<svg width="24" height="24" viewBox="0 0 24 24" fill="none" xmlns="http://www.w3.org/2000/svg">
<path d="M14.6972 2.35565L22.6445 10.303C23.1284 10.7869 23.1163 11.5611 22.6203 12.0328L14.673 19.5326C13.8988 20.2584 12.6408 19.7141 12.6408 18.6617V16.0247C12.6408 15.3473 12.0964 14.8029 11.4311 14.8755C8.21345 15.2142 5.75787 16.8835 4.01598 18.6859C3.08455 19.6415 0.786224 18.9399 1.01606 17.6214C2.10474 11.3675 5.17724 7.42407 11.4311 6.9886C12.0964 6.94021 12.6408 6.40797 12.6408 5.74266V3.2145C12.6408 2.13791 13.9351 1.59357 14.6972 2.35565Z" fill="#404040"/>
<path d="M22.6445 10.303C23.1284 10.7869 23.1163 11.5611 22.6203 12.0328L14.673 19.5326C13.8988 20.2584 12.6408 19.7141 12.6408 18.6617V16.0247C12.6408 15.3473 12.0964 14.8029 11.4311 14.8755C8.21345 15.2142 5.75787 16.8835 4.01598 18.6859C3.08455 19.6415 0.786224 18.9399 1.01606 17.6214C2.10474 11.3675 5.17724 7.42407 11.4311 6.9886C12.0964 6.94021 12.6408 6.40797 12.6408 5.74266V3.2145C12.6408 2.13791 13.9351 1.59357 14.6972 2.35565L22.6445 10.303Z" stroke="#404040" stroke-width="1.81447" stroke-linejoin="round"/>
</svg>
