<svg width="24" height="24" viewBox="0 0 24 24" fill="none" xmlns="http://www.w3.org/2000/svg">
<path fill-rule="evenodd" clip-rule="evenodd" d="M4.18174 4.18174C4.66398 3.69951 5.31803 3.42859 6.00002 3.42859H8.57145C9.04483 3.42859 9.42859 3.81234 9.42859 4.28573C9.42859 4.75912 9.04483 5.14287 8.57145 5.14287H6.00002C5.77269 5.14287 5.55467 5.23318 5.39393 5.39393C5.23318 5.55467 5.14287 5.77269 5.14287 6.00002V8.57145C5.14287 9.04483 4.75912 9.42859 4.28573 9.42859C3.81234 9.42859 3.42859 9.04483 3.42859 8.57145V6.00002C3.42859 5.31803 3.69951 4.66398 4.18174 4.18174ZM14.5714 4.28573C14.5714 3.81234 14.9552 3.42859 15.4286 3.42859H18C18.682 3.42859 19.3361 3.69951 19.8183 4.18174C20.3005 4.66398 20.5714 5.31803 20.5714 6.00002V8.57145C20.5714 9.04483 20.1877 9.42859 19.7143 9.42859C19.2409 9.42859 18.8572 9.04483 18.8572 8.57145V6.00002C18.8572 5.77269 18.7669 5.55467 18.6061 5.39393C18.4454 5.23318 18.2273 5.14287 18 5.14287H15.4286C14.9552 5.14287 14.5714 4.75912 14.5714 4.28573ZM4.28573 14.5714C4.75912 14.5714 5.14287 14.9552 5.14287 15.4286V18C5.14287 18.2273 5.23318 18.4454 5.39393 18.6061C5.55467 18.7669 5.77269 18.8572 6.00002 18.8572H8.57145C9.04483 18.8572 9.42859 19.2409 9.42859 19.7143C9.42859 20.1877 9.04483 20.5714 8.57145 20.5714H6.00002C5.31803 20.5714 4.66398 20.3005 4.18174 19.8183C3.69951 19.3361 3.42859 18.682 3.42859 18V15.4286C3.42859 14.9552 3.81234 14.5714 4.28573 14.5714ZM19.7143 14.5714C20.1877 14.5714 20.5714 14.9552 20.5714 15.4286V18C20.5714 18.682 20.3005 19.3361 19.8183 19.8183C19.3361 20.3005 18.682 20.5714 18 20.5714H15.4286C14.9552 20.5714 14.5714 20.1877 14.5714 19.7143C14.5714 19.2409 14.9552 18.8572 15.4286 18.8572H18C18.2273 18.8572 18.4454 18.7669 18.6061 18.6061C18.7669 18.4454 18.8572 18.2273 18.8572 18V15.4286C18.8572 14.9552 19.2409 14.5714 19.7143 14.5714Z" fill="white"/>
</svg>
