<svg width="24" height="24" viewBox="0 0 24 24" fill="none" xmlns="http://www.w3.org/2000/svg">
<g clip-path="url(#clip0_412_2691)">
<path d="M10.6454 22.2218C10.0799 22.2227 9.52423 22.0744 9.03432 21.7921C8.5444 21.5097 8.13758 21.1032 7.85485 20.6135C6.50131 18.2335 4.76206 16.0948 2.70802 14.2845C2.07246 13.7418 1.67306 12.973 1.5944 12.141C1.51574 11.3089 1.76398 10.479 2.28658 9.82675C2.80918 9.17455 3.56509 8.75135 4.39427 8.64674C5.22344 8.54214 6.06078 8.76435 6.72898 9.26633C7.93362 10.2682 9.04771 11.3742 10.0583 12.5716C11.9336 8.99933 14.1616 5.62368 16.709 2.49503C17.2486 1.83385 18.0288 1.41411 18.8779 1.32814C19.7269 1.24218 20.5754 1.49703 21.2366 2.03665C21.8978 2.57626 22.3175 3.35642 22.4035 4.20551C22.4894 5.0546 22.2346 5.90306 21.695 6.56424C18.3493 10.6459 15.6381 15.2087 13.6531 20.0988C13.4471 20.6765 13.0803 21.1833 12.5959 21.5595C12.1114 21.9356 11.5296 22.1655 10.9188 22.2218H10.6454Z" fill="#404040"/>
<rect y="0.311035" width="24" height="24" fill="black" fill-opacity="0.01"/>
</g>
<defs>
<clipPath id="clip0_412_2691">
<rect width="24" height="24" fill="white"/>
</clipPath>
</defs>
</svg>
