<svg width="24" height="24" viewBox="0 0 24 24" fill="none" xmlns="http://www.w3.org/2000/svg">
<g clip-path="url(#clip0_3897_5733)">
<path d="M21.5 3.75008C21.498 3.2899 21.3138 2.84925 20.9877 2.52456C20.6616 2.19986 20.2202 2.01757 19.76 2.01758C10.595 2.01758 7.055 3.51758 6.71 3.69758C6.42244 3.84274 6.1806 4.06455 6.01119 4.33852C5.84177 4.61249 5.75138 4.92796 5.75 5.25008V15.0526C2.8775 14.4901 0.5 16.3126 0.5 18.6976C0.5 20.7676 2.5175 22.4476 5 22.4476C7.4825 22.4476 9.4325 20.8201 9.5 18.7951V7.98008C12.1774 7.17917 14.9554 6.76498 17.75 6.75008V13.3051C17.1434 13.1577 16.5118 13.1457 15.9001 13.2699C15.2883 13.3941 14.7114 13.6515 14.2103 14.0237C13.7092 14.396 13.2962 14.874 13.0006 15.4238C12.705 15.9736 12.5341 16.5818 12.5 17.2051C12.5 19.2751 14.5175 20.9551 17 20.9551C19.4825 20.9551 21.425 19.3426 21.5 17.3251V3.75008Z" fill="#404040"/>
</g>
<defs>
<clipPath id="clip0_3897_5733">
<rect width="24" height="24" fill="white"/>
</clipPath>
</defs>
</svg>
