<svg width="24" height="24" viewBox="0 0 24 24" fill="none" xmlns="http://www.w3.org/2000/svg">
<g clip-path="url(#clip0_3897_5735)">
<path fill-rule="evenodd" clip-rule="evenodd" d="M21.5 3.75008C21.498 3.2899 21.3138 2.84925 20.9877 2.52456C20.6616 2.19986 20.2202 2.01757 19.76 2.01758C10.595 2.01758 7.055 3.51758 6.71 3.69758C6.42244 3.84274 6.1806 4.06455 6.01119 4.33852C5.95924 4.42253 5.91473 4.51043 5.87793 4.60124L10.6438 7.663C12.9649 7.06983 15.3514 6.76287 17.75 6.75008V12.2283L21.5 14.6375V3.75008ZM5.75 9.76996V15.0526C2.8775 14.4901 0.5 16.3126 0.5 18.6976C0.5 20.7676 2.5175 22.4476 5 22.4476C7.4825 22.4476 9.4325 20.8201 9.5 18.7951V12.1791L13.4682 14.7284C13.2903 14.9436 13.1336 15.1764 13.0006 15.4238C12.705 15.9736 12.5341 16.5818 12.5 17.2051C12.5 19.2751 14.5175 20.9551 17 20.9551C18.5471 20.9551 19.8845 20.3288 20.6908 19.3685L21.3437 19.788C22.0407 20.2357 22.9687 20.0337 23.4165 19.3367C23.8642 18.6397 23.6622 17.7117 22.9652 17.2639L5.10117 5.78738C4.40419 5.33961 3.47617 5.54163 3.0284 6.23862C2.58063 6.93561 2.78266 7.86362 3.47964 8.31139L5.75 9.76996Z" fill="#404040"/>
</g>
<defs>
<clipPath id="clip0_3897_5735">
<rect width="24" height="24" fill="white"/>
</clipPath>
</defs>
</svg>
