<svg width="24" height="24" viewBox="0 0 24 24" fill="none" xmlns="http://www.w3.org/2000/svg">
<path d="M18 13.4475C16.3144 16.1033 14.0634 18.3543 11.4075 20.04C11.0908 20.2344 10.7386 20.3641 10.3714 20.4216C10.0042 20.4792 9.62924 20.4633 9.26819 20.375C8.90714 20.2868 8.56717 20.1278 8.26794 19.9073C7.9687 19.6869 7.71613 19.4093 7.52483 19.0906C7.33353 18.7719 7.20729 18.4185 7.15341 18.0507C7.09952 17.683 7.11907 17.3082 7.21092 16.948C7.30276 16.5879 7.46509 16.2495 7.6885 15.9525C7.91192 15.6554 8.19199 15.4056 8.51254 15.2175C9.88094 14.3526 11.0952 13.2651 12.105 12C11.0626 10.764 9.84468 9.6876 8.49004 8.80496C8.16949 8.61682 7.88942 8.367 7.666 8.06996C7.44259 7.77292 7.28026 7.43454 7.18842 7.07439C7.09657 6.71423 7.07702 6.33944 7.13091 5.97168C7.18479 5.60393 7.31103 5.2505 7.50233 4.93182C7.69363 4.61315 7.9462 4.33556 8.24544 4.11509C8.54467 3.89463 8.88464 3.73566 9.24569 3.64738C9.60674 3.5591 9.9817 3.54326 10.3489 3.60077C10.7161 3.65829 11.0683 3.78801 11.385 3.98246C14.0466 5.65904 16.3053 7.9024 18 10.5525C18.2625 10.9897 18.4011 11.49 18.4011 12C18.4011 12.5099 18.2625 13.0102 18 13.4475Z" fill="black"/>
</svg>
