<svg width="24" height="24" viewBox="0 0 24 24" fill="none" xmlns="http://www.w3.org/2000/svg">
<path d="M10.5525 17.25C7.89671 15.5644 5.64567 13.3134 3.96003 10.6575C3.76558 10.3408 3.63586 9.98861 3.57834 9.62141C3.52083 9.2542 3.53667 8.87924 3.62495 8.51819C3.71323 8.15714 3.87219 7.81717 4.09266 7.51794C4.31313 7.2187 4.59072 6.96613 4.90939 6.77483C5.22807 6.58353 5.58149 6.45729 5.94925 6.40341C6.31701 6.34952 6.6918 6.36907 7.05195 6.46092C7.41211 6.55276 7.75049 6.71509 8.04753 6.9385C8.34457 7.16192 8.59439 7.44199 8.78253 7.76254C9.64738 9.13094 10.7349 10.3452 12 11.355C13.2359 10.3126 14.3124 9.09468 15.195 7.74004C15.3832 7.41949 15.633 7.13942 15.93 6.916C16.2271 6.69259 16.5654 6.53026 16.9256 6.43842C17.2858 6.34657 17.6605 6.32702 18.0283 6.38091C18.3961 6.43479 18.7495 6.56103 19.0682 6.75233C19.3868 6.94363 19.6644 7.1962 19.8849 7.49544C20.1054 7.79467 20.2643 8.13464 20.3526 8.49569C20.4409 8.85674 20.4567 9.2317 20.3992 9.59891C20.3417 9.96611 20.212 10.3183 20.0175 10.635C18.341 13.2966 16.0976 15.5553 13.4475 17.25C13.0103 17.5125 12.51 17.6511 12 17.6511C11.4901 17.6511 10.9897 17.5125 10.5525 17.25Z" fill="black"/>
</svg>
