<svg width="24" height="24" viewBox="0 0 24 24" fill="none" xmlns="http://www.w3.org/2000/svg">
<path d="M6 10.5525C7.68564 7.89668 9.93668 5.64564 12.5925 3.96C12.9093 3.76555 13.2614 3.63582 13.6286 3.57831C13.9958 3.5208 14.3708 3.53664 14.7318 3.62492C15.0929 3.7132 15.4329 3.87216 15.7321 4.09263C16.0313 4.3131 16.2839 4.59069 16.4752 4.90936C16.6665 5.22803 16.7928 5.58146 16.8466 5.94922C16.9005 6.31698 16.881 6.69177 16.7891 7.05192C16.6973 7.41208 16.535 7.75046 16.3115 8.0475C16.0881 8.34454 15.808 8.59436 15.4875 8.7825C14.1191 9.64735 12.9049 10.7348 11.895 12C12.9374 13.2359 14.1554 14.3124 15.51 15.195C15.8305 15.3831 16.1106 15.633 16.334 15.93C16.5575 16.227 16.7198 16.5654 16.8116 16.9256C16.9035 17.2857 16.923 17.6605 16.8691 18.0283C16.8153 18.396 16.689 18.7495 16.4977 19.0681C16.3064 19.3868 16.0538 19.6644 15.7546 19.8849C15.4554 20.1053 15.1154 20.2643 14.7543 20.3526C14.3933 20.4409 14.0183 20.4567 13.6511 20.3992C13.2839 20.3417 12.9318 20.2119 12.615 20.0175C9.95343 18.3409 7.69471 16.0976 6 13.4475C5.73755 13.0103 5.59891 12.5099 5.59891 12C5.59891 11.4901 5.73755 10.9897 6 10.5525Z" fill="black"/>
</svg>
