<svg width="24" height="24" viewBox="0 0 24 24" fill="none" xmlns="http://www.w3.org/2000/svg">
<path d="M13.4475 6.74997C16.1033 8.43561 18.3543 10.6867 20.04 13.3425C20.2344 13.6592 20.3641 14.0114 20.4216 14.3786C20.4792 14.7458 20.4633 15.1208 20.375 15.4818C20.2868 15.8429 20.1278 16.1828 19.9073 16.4821C19.6869 16.7813 19.4093 17.0339 19.0906 17.2252C18.7719 17.4165 18.4185 17.5427 18.0507 17.5966C17.683 17.6505 17.3082 17.6309 16.948 17.5391C16.5879 17.4472 16.2495 17.2849 15.9525 17.0615C15.6554 16.8381 15.4056 16.558 15.2175 16.2375C14.3526 14.8691 13.2651 13.6548 12 12.645C10.764 13.6874 9.6876 14.9053 8.80496 16.26C8.61682 16.5805 8.367 16.8606 8.06996 17.084C7.77292 17.3074 7.43454 17.4697 7.07439 17.5616C6.71423 17.6534 6.33944 17.673 5.97168 17.6191C5.60393 17.5652 5.2505 17.439 4.93182 17.2477C4.61315 17.0564 4.33556 16.8038 4.11509 16.5046C3.89463 16.2053 3.73566 15.8654 3.64738 15.5043C3.5591 15.1433 3.54326 14.7683 3.60077 14.4011C3.65829 14.0339 3.78801 13.6817 3.98246 13.365C5.65904 10.7034 7.9024 8.44467 10.5525 6.74997C10.9897 6.48752 11.49 6.34888 12 6.34888C12.5099 6.34888 13.0102 6.48752 13.4475 6.74997Z" fill="black"/>
</svg>
