<svg width="24" height="24" viewBox="0 0 24 24" fill="none" xmlns="http://www.w3.org/2000/svg">
<rect width="24" height="24" rx="12" fill="#FF715C"/>
<path fill-rule="evenodd" clip-rule="evenodd" d="M14.8314 6.83637C15.4206 6.35584 16.2897 6.39017 16.8388 6.93934C17.4246 7.52513 17.4246 8.47487 16.8388 9.06066L14.0104 11.8891L16.8388 14.7175C17.4246 15.3033 17.4246 16.253 16.8388 16.8388C16.2897 17.388 15.4206 17.4223 14.8314 16.9418L14.7175 16.8388L11.8891 14.0104L9.06066 16.8388L8.94674 16.9418C8.35758 17.4223 7.48851 17.388 6.93934 16.8388C6.35355 16.253 6.35355 15.3033 6.93934 14.7175L9.76777 11.8891L6.93934 9.06066C6.35355 8.47487 6.35355 7.52513 6.93934 6.93934C7.48851 6.39017 8.35758 6.35584 8.94674 6.83637L9.06066 6.93934L11.8891 9.76777L14.7175 6.93934L14.8314 6.83637Z" fill="white"/>
</svg>
