<svg width="24" height="24" viewBox="0 0 24 24" fill="none" xmlns="http://www.w3.org/2000/svg">
<rect width="24" height="24" rx="12" fill="#FF9045"/>
<path fill-rule="evenodd" clip-rule="evenodd" d="M13.8173 5.79243C13.8173 4.80294 12.9996 4.00081 11.9908 4.00081L11.991 4.00081C11.9725 4.00026 11.954 3.99999 11.9354 4C10.9267 4.00034 10.1092 4.80275 10.1096 5.79224L10.1096 5.79243C10.1096 6.53971 10.1041 6.89345 10.1087 7.24705C10.1187 8.01249 10.176 8.77731 10.4383 13.5322C10.4383 14.3584 11.1212 15.0282 11.9634 15.0282C12.8057 15.0282 13.4885 14.3584 13.4885 13.5322C13.7537 8.68882 13.8094 7.93068 13.8185 7.17199C13.8225 6.83335 13.8173 6.49461 13.8173 5.79243ZM10 18.0292C9.99498 19.1127 10.8863 19.995 11.9908 20H12.0091C13.1137 19.995 14.005 19.1127 14 18.0292L14 18.0292C13.9949 16.9527 13.1066 16.0813 12.0092 16.0764C10.9046 16.0714 10.0051 16.9457 10 18.0292Z" fill="white"/>
</svg>
