<svg width="24" height="24" viewBox="0 0 24 24" fill="none" xmlns="http://www.w3.org/2000/svg">
<path fill-rule="evenodd" clip-rule="evenodd" d="M20.9958 2.48694C21.0596 1.56994 20.3744 0.774394 19.4655 0.710046C19.4257 0.707229 19.3858 0.705869 19.3459 0.705968H4.65391C3.74271 0.703713 3.00224 1.44709 3 2.36634C2.99991 2.40658 3.00126 2.4468 3.00405 2.48694C3.40001 6.73963 5.16537 10.3432 7.62366 12.3489C5.14887 14.3462 3.40001 17.9581 3.0123 22.2191C2.94749 23.136 3.63174 23.9323 4.54063 23.9977C4.55363 23.9987 4.56664 23.9994 4.57967 24.0001H19.4284C20.3386 23.9564 21.0414 23.1767 20.9981 22.2585C20.9975 22.2453 20.9967 22.2322 20.9958 22.2191C20.6081 17.9581 18.8427 14.3462 16.3844 12.3489C18.8592 10.3515 20.6081 6.73963 20.9958 2.48694ZM17.0773 19.3063C17.0773 19.3063 14.6924 17.2779 11.9999 17.2765C9.30741 17.2752 6.92244 19.298 6.92244 19.298C7.94536 15.969 9.92519 14.0133 12.004 14.0133C14.0828 14.0133 16.0709 15.969 17.0773 19.3063ZM17.4238 4.02647H6.58426C7.40919 8.13768 9.59525 10.6177 11.9133 10.6843H12.0948C14.4129 10.6177 16.5989 8.13768 17.4238 4.02647Z" fill="#33BBFF"/>
</svg>
