<svg width="24" height="24" viewBox="0 0 24 24" fill="none" xmlns="http://www.w3.org/2000/svg">
<rect width="24" height="24" rx="12" fill="#FCDA00"/>
<path fill-rule="evenodd" clip-rule="evenodd" d="M13.0697 13.3675C13.0697 12.8352 13.4246 12.5267 14.1035 11.9867L14.1035 11.9944C15.2259 11.3267 15.9342 10.1365 15.9857 8.83153C15.9857 6.62524 14.2809 5.1441 11.7429 5.1441C10.6527 5.12131 9.57974 5.41905 8.65717 6.00039L8.65717 6.00039C8.19018 6.23993 7.89349 6.7176 7.88574 7.24239V7.24238C7.88574 8.00927 8.50743 8.63095 9.27431 8.63095C9.54813 8.62115 9.8144 8.53861 10.0457 8.39181C10.5168 8.12796 11.0488 7.9923 11.5886 7.99838C13.0235 7.99838 13.0235 8.64638 13.0235 8.90867C13.0235 9.17095 12.7072 9.44867 12.1749 9.88067C11.3263 10.5672 10.1692 11.5084 10.1692 13.3675C10.1692 14.1685 10.8185 14.8178 11.6195 14.8178C12.4204 14.8178 13.0697 14.1685 13.0697 13.3675ZM9.90692 18.0472C9.90265 18.9803 10.6556 19.7401 11.5886 19.7444H11.6041C12.5371 19.7401 13.29 18.9803 13.2857 18.0473V18.0472C13.2815 17.1202 12.5311 16.3698 11.6041 16.3656C10.671 16.3613 9.91119 17.1142 9.90692 18.0472Z" fill="white"/>
</svg>
