<svg width="24" height="24" viewBox="0 0 24 24" fill="none" xmlns="http://www.w3.org/2000/svg">
<path fill-rule="evenodd" clip-rule="evenodd" d="M3.11445 10.5875C3.20441 9.85387 3.24939 9.48708 3.51341 9.08132C3.70959 8.77983 4.14327 8.42138 4.4763 8.28546C4.9245 8.10254 5.30012 8.12788 6.05135 8.17855C7.66239 8.28722 9.7884 8.57585 11.6032 9.30937C11.6032 12.225 11.6032 13.099 11.6032 14.9144C9.85693 15.6023 7.82251 15.9716 6.23601 16.1686C5.4135 16.2708 5.00224 16.3218 4.52701 16.1477C4.17008 16.0169 3.71488 15.658 3.50449 15.3414C3.22436 14.9198 3.18022 14.5265 3.09194 13.7397C3.03705 13.2506 3.00005 12.7419 3.00005 12.2594C3.00005 11.7135 3.0474 11.1341 3.11445 10.5875Z" fill="#404040"/>
<path fill-rule="evenodd" clip-rule="evenodd" d="M20.0856 10.1958C20.9208 11.2959 21.0215 12.7592 20.2306 13.8915C19.4998 14.9378 18.359 16.2861 16.6809 17.5856C15.4846 18.512 14.2073 19.3834 13.0468 20.1279C11.1762 21.3279 8.80876 20.0916 8.65795 17.8743C8.52957 15.9868 8.4197 13.7553 8.4197 11.6461C8.4197 9.67588 8.51557 7.70568 8.63284 6.03264C8.78654 3.84 11.1196 2.63895 12.9581 3.84358C13.923 4.47581 14.9745 5.20695 15.9986 6.00001C17.7726 7.37367 19.1687 8.98786 20.0856 10.1958Z" fill="#404040"/>
</svg>
