<svg width="24" height="24" viewBox="0 0 24 24" fill="none" xmlns="http://www.w3.org/2000/svg">
<path d="M21.25 13.5C21.25 8.80561 17.4444 5.00003 12.75 5.00003H11.0238C10.9649 2.71223 10.6076 1.86016 9.57267 1.68809C8.33641 1.48255 6.58813 2.90946 3.9187 6.03928C3.34549 6.71115 3.21554 7.73378 3.77266 8.41759C5.54353 10.5912 8.31664 12.5725 9.54081 12.4583C10.8998 12.3315 11.0384 11.0269 11.0349 9.00003H12.75C15.2353 9.00003 17.25 11.0148 17.25 13.5C17.25 15.9853 15.2353 18 12.75 18H9.75001C8.64544 18 7.75001 18.8955 7.75001 20C7.75001 21.1046 8.64544 22 9.75001 22H12.75C17.4444 22 21.25 18.1945 21.25 13.5Z" fill="#404040"/>
</svg>
