<svg width="24" height="24" viewBox="0 0 24 24" fill="none" xmlns="http://www.w3.org/2000/svg">
<path fill-rule="evenodd" clip-rule="evenodd" d="M19.5478 4.8815C16.5664 1.38589 14.6138 -0.207796 13.233 0.0217675C12.0544 0.217727 11.6627 1.20339 11.6089 3.87366C6.14163 3.97877 1.74198 8.44354 1.74198 13.9359C1.74198 19.4942 6.24785 24 11.8061 24C17.3644 24 21.8703 19.4942 21.8703 13.9359C21.8703 12.6948 20.8641 11.6887 19.623 11.6887C18.3819 11.6887 17.3758 12.6948 17.3758 13.9359C17.3758 17.0119 14.8822 19.5056 11.8061 19.5056C8.73009 19.5056 6.23647 17.0119 6.23647 13.9359C6.23647 10.9289 8.61943 8.47847 11.5999 8.37C11.6054 10.5299 11.7918 11.913 13.2686 12.0508C14.6359 12.1783 17.7331 9.96541 19.7109 7.53778C20.3332 6.77405 20.188 5.6319 19.5478 4.8815Z" fill="#404040"/>
</svg>
