<svg width="327" height="363" viewBox="0 0 327 363" fill="none" xmlns="http://www.w3.org/2000/svg">
<path d="M25.0988 182.25C26.3888 199.92 29.8687 259.07 63.6887 292.5C102.959 331.32 153.709 329.33 209.489 325.9C260.949 322.74 323.239 309.65 324.589 283.02C325.939 256.39 274.039 212.6 260.949 171.98C247.859 131.36 20.8188 123.46 25.0988 182.25Z" fill="#F0503C" stroke="#512921" stroke-width="2.75" stroke-linecap="round" stroke-linejoin="round"/>
<path fill-rule="evenodd" clip-rule="evenodd" d="M147.43 22.2202C147.43 22.2202 164.13 -0.259791 184.21 1.47021C188.68 1.85021 191.73 3.35013 194.08 5.64013C201.02 12.4101 197.07 22.1301 197.07 22.1301C199.26 21.8801 210.49 23.5502 209.95 34.9702C209.72 39.7702 205.37 46.3102 197.08 46.0602C182.43 45.6202 157.43 33.8101 147.43 22.2301V22.2202Z" fill="#FFE465" stroke="#512921" stroke-width="2.75" stroke-linecap="round" stroke-linejoin="round"/>
<path d="M35.7094 181.46C23.0694 188.23 -2.45045 212.65 1.85955 235.63C5.91955 257.3 31.6496 260.91 31.6496 260.91C31.6496 260.91 39.7694 273.55 51.9594 270.39C64.1494 267.23 47.4494 242.86 45.1894 239.24C44.3294 237.87 47.9496 221.88 47.8996 210.8C47.8096 192.75 43.5494 177.26 35.7094 181.46Z" fill="#FFE465" stroke="#512921" stroke-width="2.75" stroke-linecap="round" stroke-linejoin="round"/>
<path d="M28.48 257.07C28.48 257.07 37.9601 272.64 49.1301 271.97C60.3001 271.29 56.4301 252.88 50.8201 243.53C41.6801 228.3 24.4102 234.73 24.4102 234.73" fill="#FFE465"/>
<path d="M28.48 257.07C28.48 257.07 37.9601 272.64 49.1301 271.97C60.3001 271.29 56.4301 252.88 50.8201 243.53C41.6801 228.3 24.4102 234.73 24.4102 234.73" stroke="#512921" stroke-width="2.75" stroke-linecap="round" stroke-linejoin="round"/>
<path fill-rule="evenodd" clip-rule="evenodd" d="M96.9213 342.18C94.6313 341.4 91.6813 340.57 91.6813 340.57C91.6813 340.57 93.1513 315.63 103.981 291.37L118.091 292.72C109.741 320.03 111.341 343.03 110.701 355.92C110.591 358.05 109.291 359.38 107.361 360.13C104.231 361.34 80.8313 361.25 77.9513 359.98C76.3813 359.29 74.8414 358.52 74.2714 356.91C73.2614 354.08 73.2514 348.09 75.7714 344.09C80.3214 336.88 91.0814 340.34 91.0814 340.34" fill="#FF9210"/>
<path d="M96.9213 342.18C94.6313 341.4 91.6813 340.57 91.6813 340.57C91.6813 340.57 93.1513 315.63 103.981 291.37L118.091 292.72C109.741 320.03 111.341 343.03 110.701 355.92C110.591 358.05 109.291 359.38 107.361 360.13C104.231 361.34 80.8313 361.25 77.9513 359.98C76.3813 359.29 74.8414 358.52 74.2714 356.91C73.2614 354.08 73.2514 348.09 75.7714 344.09C80.3214 336.88 91.0814 340.34 91.0814 340.34" stroke="#512921" stroke-width="2.75" stroke-linecap="round" stroke-linejoin="round"/>
<path fill-rule="evenodd" clip-rule="evenodd" d="M257.358 341.73C259.648 340.95 260.718 340.43 260.718 340.43C263.988 341.34 238.148 295.12 230.028 292.5L219.078 297.61C231.608 315.3 242.938 342.59 243.578 355.48C243.688 357.61 244.988 358.94 246.918 359.69C250.048 360.9 273.448 360.81 276.328 359.54C277.898 358.85 279.438 358.08 280.008 356.47C281.018 353.64 281.028 347.65 278.508 343.65C273.958 336.44 260.798 340.35 260.798 340.35" fill="#FF9210"/>
<path d="M257.358 341.73C259.648 340.95 260.718 340.43 260.718 340.43C263.988 341.34 238.148 295.12 230.028 292.5L219.078 297.61C231.608 315.3 242.938 342.59 243.578 355.48C243.688 357.61 244.988 358.94 246.918 359.69C250.048 360.9 273.448 360.81 276.328 359.54C277.898 358.85 279.438 358.08 280.008 356.47C281.018 353.64 281.028 347.65 278.508 343.65C273.958 336.44 260.798 340.35 260.798 340.35" stroke="#512921" stroke-width="2.75" stroke-linecap="round" stroke-linejoin="round"/>
<path d="M24.4205 171.83C24.5705 173.97 27.1306 245.17 67.7506 284.49C114.611 329.84 227.611 311.14 261.731 291.26C298.971 269.57 294.571 237.11 293.211 225.58C291.861 214.06 280.351 220.16 280.351 220.16C280.351 220.16 266.131 160.97 255.981 126.4C245.821 91.8301 21.0405 125.04 24.4205 171.82V171.83Z" fill="#FFE465" stroke="#512921" stroke-width="2.75" stroke-linecap="round" stroke-linejoin="round"/>
<path d="M258.18 142.13C237.87 39.22 185.06 18.23 127.51 22.29C69.9598 26.35 36.1099 64.27 24.5999 104.89C13.0899 145.51 24.5999 182.41 24.5999 182.41" fill="#FFE465"/>
<path d="M258.18 142.13C237.87 39.22 185.06 18.23 127.51 22.29C69.9598 26.35 36.1099 64.27 24.5999 104.89C13.0899 145.51 24.5999 182.41 24.5999 182.41" stroke="#512921" stroke-width="2.75" stroke-linecap="round" stroke-linejoin="round"/>
<path d="M21.0378 134.18C21.0378 134.18 11.2178 150.43 13.5878 163.97C15.9578 177.51 26.4478 184.28 37.6278 185.3" fill="#FFE465"/>
<path d="M21.0378 134.18C21.0378 134.18 11.2178 150.43 13.5878 163.97C15.9578 177.51 26.4478 184.28 37.6278 185.3" stroke="#512921" stroke-width="2.75" stroke-linecap="round" stroke-linejoin="round"/>
<path d="M25.0977 182.25C25.0977 182.25 72.0376 189.58 148.548 174.01C225.058 158.44 252.368 135.42 255.528 130.45C258.688 125.48 266.807 148.05 269.067 169.72C271.327 191.39 290.738 202.9 302.018 238.1C302.018 238.1 324.717 261.06 325.167 279.57C325.337 286.51 323.047 289.05 323.047 289.05C323.047 289.05 299.538 228.4 200.458 198.83C142.058 181.4 37.9577 219.82 25.0977 182.24V182.25Z" fill="#F0503C" stroke="#512921" stroke-width="2.75" stroke-linecap="round" stroke-linejoin="round"/>
<path d="M85.4011 210.03C93.1 210.03 99.3411 202.468 99.3411 193.14C99.3411 183.812 93.1 176.25 85.4011 176.25C77.7023 176.25 71.4609 183.812 71.4609 193.14C71.4609 202.468 77.7023 210.03 85.4011 210.03Z" fill="#F0503C" stroke="#512921" stroke-width="2.75" stroke-miterlimit="10"/>
<path d="M119.03 209.24C127.595 209.24 134.54 201.678 134.54 192.35C134.54 183.022 127.595 175.46 119.03 175.46C110.464 175.46 103.52 183.022 103.52 192.35C103.52 201.678 110.464 209.24 119.03 209.24Z" fill="#F0503C" stroke="#512921" stroke-width="2.75" stroke-miterlimit="10"/>
<path d="M101.59 205.536C108.176 205.373 113.373 199.462 113.196 192.334C113.019 185.206 107.536 179.561 100.95 179.724C94.363 179.887 89.1667 185.798 89.3434 192.925C89.52 200.053 95.0028 205.699 101.59 205.536Z" fill="#F0503C" stroke="#512921" stroke-width="2.75" stroke-miterlimit="10"/>
<path d="M100.824 126.28C100.824 126.28 104.864 147.12 105.224 159.34C105.674 174.8 117.414 174.81 117.414 162.61C117.414 142.3 110.414 118.37 110.414 118.37L100.824 126.27V126.28Z" fill="#FF5640" stroke="#512921" stroke-width="2.75" stroke-linecap="round" stroke-linejoin="round"/>
<path d="M104.312 148.42C104.773 152.3 105.132 156.12 105.222 159.34C105.672 174.8 117.413 174.81 117.413 162.61C117.413 154.04 116.162 144.84 114.732 137.06C108.852 138.16 105.823 142.94 104.323 148.42H104.312Z" fill="#FF929F" stroke="#512921" stroke-width="2.75" stroke-linecap="round" stroke-linejoin="round"/>
<path d="M107.492 114.33C103.262 113.48 101.312 112.31 97.9321 110.73C94.5421 109.15 86.4922 111.49 86.4922 118.94C86.4922 129.23 99.2323 130.67 104.572 127.78C109.272 125.24 110.282 123.04 110.622 120.21C110.922 117.7 109.752 114.78 107.492 114.33Z" fill="#FF9210" stroke="#512921" stroke-width="2.75" stroke-linecap="round" stroke-linejoin="round"/>
<path d="M24.1914 140.47C26.1114 142.29 27.4414 144.7 27.9614 147.29" stroke="#FF7873" stroke-width="3.85" stroke-linecap="round" stroke-linejoin="round"/>
<path d="M34.5312 138.51C35.4613 140.39 36.1413 142.39 36.5613 144.45" stroke="#FF7873" stroke-width="3.85" stroke-linecap="round" stroke-linejoin="round"/>
<path d="M183.783 116.7C182.333 118.52 181.253 120.63 180.633 122.86" stroke="#FF7873" stroke-width="3.85" stroke-linecap="round" stroke-linejoin="round"/>
<path d="M194.043 116.12C192.263 118.09 190.993 120.52 190.383 123.11" stroke="#FF7873" stroke-width="3.85" stroke-linecap="round" stroke-linejoin="round"/>
<path d="M123.27 111.27C123.27 111.95 131.17 130.68 152.84 126.39C174.51 122.1 174.05 103.14 174.28 94.3403L123.27 111.27Z" fill="white"/>
<path d="M132.531 123.91C132.531 123.91 146.161 129.94 158.481 124.36C170.801 118.78 171.121 111.95 171.121 111.95" stroke="#512921" stroke-width="2.75" stroke-linecap="round" stroke-linejoin="round"/>
<path d="M138.3 111.79C139.9 115.54 141.94 120.42 143.23 123.54C144.05 125.52 145.93 126.84 148.07 126.93C150.96 127.05 155.1 126.9 158.48 125.47C161.53 124.18 163.42 122.55 164.53 121.29C165.44 120.25 165.91 118.9 165.87 117.52L165.46 103.33C165.35 99.5701 161.59 97.0201 158.06 98.3301L141.44 104.47C138.49 105.56 137.05 108.9 138.29 111.8L138.3 111.79Z" fill="#512921"/>
<path d="M154.902 112C157.272 113.76 159.922 114.83 161.852 113.1C163.782 111.38 164.272 107.51 161.902 105.75C159.532 103.99 155.202 105 153.272 106.72C151.342 108.44 152.532 110.23 154.902 111.99V112Z" fill="white"/>
<path d="M153.173 120.639C153.946 120.357 154.352 119.522 154.079 118.775C153.806 118.028 152.958 117.652 152.185 117.934C151.412 118.217 151.006 119.051 151.279 119.798C151.552 120.545 152.4 120.922 153.173 120.639Z" fill="white"/>
<path d="M145.028 111.57L144.738 113.8C144.718 113.98 144.648 114.14 144.548 114.26L143.328 115.77C142.918 116.27 143.178 117.23 143.778 117.46L145.578 118.15C145.728 118.21 145.858 118.31 145.968 118.45L147.328 120.23C147.778 120.82 148.498 120.63 148.598 119.88L148.888 117.65C148.908 117.47 148.978 117.31 149.078 117.19L150.298 115.68C150.708 115.18 150.448 114.22 149.848 113.99L148.048 113.3C147.898 113.24 147.768 113.14 147.658 113L146.298 111.22C145.848 110.63 145.128 110.82 145.028 111.57Z" fill="white"/>
<path d="M123.951 109.89C126.551 107.44 153.681 91.1003 159.331 89.7503C163.291 88.8003 169.281 89.9903 172.881 91.5703C174.401 92.2403 177.352 93.8103 172.702 96.2703C163.622 101.08 138.651 109.23 126.491 112.1C122.591 113.02 122.511 111.25 123.951 109.9V109.89Z" fill="#512921"/>
<path d="M156.449 92.9901C156.449 92.9901 158.479 88.9301 158.029 84.6401L156.449 92.9901Z" fill="#FFE465"/>
<path d="M155.46 92.4901C155.52 91.8501 155.62 91.1401 155.7 90.4901C155.78 89.8201 155.86 89.1701 155.91 88.5301C155.97 87.8901 156 87.2601 156.03 86.6501C156.07 86.0301 156.06 85.4402 156.11 84.8302L156.13 84.6401C156.23 83.5801 157.17 82.8001 158.23 82.8901C159.09 82.9701 159.77 83.6102 159.94 84.4202C160.29 86.0702 160.1 87.7501 159.64 89.2701C159.41 90.0301 159.12 90.7702 158.76 91.4702C158.4 92.1802 157.98 92.8102 157.43 93.4702C157.03 93.9502 156.31 94.0101 155.83 93.6101C155.53 93.3601 155.4 92.9901 155.43 92.6301L155.45 92.4702L155.46 92.4901Z" fill="#512921"/>
<path d="M166.613 91.8601C166.613 91.8601 169.544 88.7001 170.454 84.6401L166.613 91.8601Z" fill="#FFE465"/>
<path d="M165.792 91.1101C166.022 90.5301 166.292 89.9002 166.552 89.3202L167.282 87.5702C167.522 87.0002 167.732 86.4301 167.942 85.8701C168.162 85.3101 168.332 84.7602 168.572 84.2202L168.642 84.0502C169.072 83.0802 170.222 82.6402 171.192 83.0702C171.982 83.4202 172.412 84.2402 172.322 85.0502C172.142 86.6502 171.482 88.1202 170.632 89.3802C170.202 90.0102 169.732 90.6102 169.202 91.1402C168.672 91.6902 168.112 92.1502 167.422 92.6002C166.892 92.9402 166.192 92.7902 165.852 92.2702C165.642 91.9502 165.612 91.5701 165.742 91.2401L165.802 91.0902L165.792 91.1101Z" fill="#512921"/>
<path d="M83.3289 119.62L37.9688 121.48C37.9688 121.48 41.8588 136.38 51.5088 140.95C61.1588 145.52 78.5888 137.9 81.2988 133.16C84.0088 128.42 83.3289 119.62 83.3289 119.62Z" fill="white"/>
<path d="M47.7812 139.34C47.7812 139.34 55.5713 145.43 67.0813 142.89C78.5913 140.35 82.3113 132.73 82.3113 132.73" stroke="#512921" stroke-width="2.75" stroke-linecap="round" stroke-linejoin="round"/>
<path d="M56.9997 119.96C52.8997 120.22 50.3297 124.59 52.0497 128.38C54.4697 133.72 57.6398 140.09 59.6398 141.72C63.2398 144.65 75.6698 140.44 77.1098 136.96C77.9398 134.95 77.8097 129.17 77.5597 124.64C77.3697 121.34 74.5898 118.83 71.3498 119.04L56.9997 119.96Z" fill="#512921"/>
<path d="M66.551 130.11C68.701 131.87 71.141 133 73.041 131.46C74.941 129.93 75.5709 126.31 73.4209 124.55C71.2709 122.79 67.151 123.54 65.261 125.08C63.361 126.61 64.411 128.35 66.561 130.11H66.551Z" fill="white"/>
<path d="M65.6008 138.276C66.339 138.046 66.7577 137.282 66.5358 136.57C66.314 135.859 65.5356 135.468 64.7974 135.698C64.0593 135.928 63.6408 136.692 63.8626 137.404C64.0845 138.115 64.8626 138.506 65.6008 138.276Z" fill="white"/>
<path d="M58.3807 129.26L58.0005 131.35C57.9705 131.52 57.9006 131.67 57.8006 131.78L56.5806 133.15C56.1806 133.6 56.3705 134.52 56.9205 134.76L58.5906 135.49C58.7206 135.55 58.8505 135.65 58.9405 135.79L60.1407 137.53C60.5407 138.11 61.2306 137.96 61.3506 137.26L61.7305 135.17C61.7605 135 61.8305 134.85 61.9305 134.74L63.1507 133.37C63.5507 132.92 63.3606 132 62.8106 131.76L61.1407 131.03C61.0107 130.97 60.8806 130.87 60.7906 130.73L59.5906 128.99C59.1906 128.41 58.5007 128.56 58.3807 129.26Z" fill="white"/>
<path d="M84.1704 119.7C83.8304 122.07 74.1804 122.75 54.7204 123.76C35.7304 124.75 33.3406 123.3 39.6606 119.02C45.3806 115.14 46.0904 114.62 52.1904 115.13C58.2804 115.64 84.5904 116.84 84.1804 119.7H84.1704Z" fill="#512921"/>
<path d="M52.8796 117.44C52.8796 117.44 50.5595 113.9 50.5195 109.88L52.8796 117.44Z" fill="#FFE465"/>
<path d="M51.9497 118.05C51.3497 117.5 50.8897 116.97 50.4697 116.35C50.0497 115.74 49.6999 115.09 49.3999 114.4C48.8099 113.03 48.4399 111.48 48.5999 109.9C48.6999 108.84 49.6497 108.06 50.7097 108.17C51.5597 108.25 52.2299 108.87 52.4099 109.66L52.4497 109.86C52.5697 110.41 52.6297 110.95 52.7297 111.51C52.8197 112.07 52.9098 112.64 53.0298 113.22C53.1398 113.8 53.2699 114.4 53.4099 115C53.5499 115.59 53.6998 116.25 53.8098 116.83L53.8399 116.99C53.9599 117.61 53.5497 118.2 52.9297 118.32C52.5697 118.39 52.1997 118.27 51.9497 118.04V118.05Z" fill="#512921"/>
<path d="M45.0137 118.99C45.0137 118.99 41.9536 116.38 40.6836 112.72L45.0137 118.99Z" fill="#FFE465"/>
<path d="M44.2926 119.83C43.5926 119.49 43.0125 119.13 42.4525 118.68C41.8925 118.24 41.3927 117.74 40.9127 117.2C39.9727 116.12 39.2027 114.82 38.8627 113.34C38.6327 112.3 39.2826 111.26 40.3226 111.03C41.1526 110.84 41.9727 111.22 42.3927 111.9L42.4925 112.07C42.7725 112.53 42.9925 113.02 43.2425 113.5C43.4925 113.99 43.7426 114.49 44.0126 114.99L44.8526 116.53C45.1426 117.04 45.4525 117.61 45.7125 118.12L45.7826 118.27C46.0626 118.83 45.8326 119.52 45.2626 119.8C44.9426 119.96 44.5726 119.95 44.2626 119.8L44.2926 119.83Z" fill="#512921"/>
<path d="M111.243 86.2802C112.323 88.7102 114.673 93.5502 116.913 95.1602C117.193 95.3602 117.543 95.4403 117.883 95.3403C120.503 94.5803 133.283 90.0002 136.173 72.3802C136.343 71.3102 135.033 70.6502 134.293 71.4402C130.293 75.6702 121.593 83.6802 112.133 84.7502C111.403 84.8302 110.963 85.6002 111.263 86.2802H111.243Z" fill="#512921"/>
<path d="M76.1905 94.7301C76.0905 97.2701 75.7305 102.46 74.4505 104.7C74.2505 105.05 73.8805 105.25 73.4805 105.24C70.7405 105.22 59.2106 104.19 51.3206 88.9902C50.8106 88.0002 51.9107 86.9502 52.8707 87.5302C57.6807 90.4402 67.0307 95.1601 74.8907 93.6101C75.5807 93.4701 76.2205 94.0103 76.1905 94.7203V94.7301Z" fill="#512921"/>
<path d="M195.721 182.14C195.721 182.14 139.521 174.24 98.0007 158.44C65.1407 145.94 27.1306 134.97 24.4206 154.38C21.7106 173.79 28.4806 212.61 68.2006 253.68C107.921 294.76 179.241 283.02 210.391 281.21C241.541 279.4 308.041 269.54 323.391 288.5C324.741 288.5 330.461 274.5 312.631 250.51C287.131 216.21 239.281 196.8 239.281 196.8" fill="#F0503C"/>
<path d="M195.721 182.14C195.721 182.14 139.521 174.24 98.0007 158.44C65.1407 145.94 27.1306 134.97 24.4206 154.38C21.7106 173.79 28.4806 212.61 68.2006 253.68C107.921 294.76 179.241 283.02 210.391 281.21C241.541 279.4 308.041 269.54 323.391 288.5C324.741 288.5 330.461 274.5 312.631 250.51C287.131 216.21 239.281 196.8 239.281 196.8" stroke="#512921" stroke-width="2.75" stroke-linecap="round" stroke-linejoin="round"/>
</svg>
