<svg width="370" height="331" viewBox="0 0 370 331" fill="none" xmlns="http://www.w3.org/2000/svg">
<path fill-rule="evenodd" clip-rule="evenodd" d="M254.864 290.875C254.104 284.175 252.874 271.885 252.754 268.095C253.834 267.965 269.284 264.905 269.284 264.905L272.644 287.195C273.834 299.025 256.084 301.625 254.864 290.875Z" fill="#FF9210" stroke="#512921" stroke-width="2.5" stroke-linecap="round" stroke-linejoin="round"/>
<path fill-rule="evenodd" clip-rule="evenodd" d="M254.845 285.925L243.375 299.565C237.415 308.095 252.175 318.415 258.135 309.885L271.605 292.725" fill="#FF9210"/>
<path d="M254.845 285.925L243.375 299.565C237.415 308.095 252.175 318.415 258.135 309.885L271.605 292.725" stroke="#512921" stroke-width="2.5" stroke-linecap="round" stroke-linejoin="round"/>
<path fill-rule="evenodd" clip-rule="evenodd" d="M258.762 308.215C259.502 317.425 257.642 329.405 247.092 329.015C236.542 328.625 235.822 313.545 235.682 310.755C235.542 307.965 236.812 298.965 245.092 297.835" fill="#FF9210"/>
<path d="M258.762 308.215C259.502 317.425 257.642 329.405 247.092 329.015C236.542 328.625 235.822 313.545 235.682 310.755C235.542 307.965 236.812 298.965 245.092 297.835" stroke="#512921" stroke-width="2.5" stroke-linecap="round" stroke-linejoin="round"/>
<path d="M240.953 304.125C251.783 303.485 253.643 331.125 242.583 327.705" stroke="#512921" stroke-width="2.5" stroke-linecap="round" stroke-linejoin="round"/>
<path fill-rule="evenodd" clip-rule="evenodd" d="M189.394 277.725C192.744 271.795 197.044 262.315 199.364 257.635C200.334 258.125 214.864 264.205 214.864 264.205L205.214 284.585C199.594 295.065 184.074 287.135 189.394 277.725Z" fill="#FF9210" stroke="#512921" stroke-width="2.5" stroke-linecap="round" stroke-linejoin="round"/>
<path fill-rule="evenodd" clip-rule="evenodd" d="M192.445 272.835L177.945 275.645C168.235 279.395 174.735 296.195 184.435 292.445L201.255 288.605" fill="#FF9210"/>
<path d="M192.445 272.835L177.945 275.645C168.235 279.395 174.735 296.195 184.435 292.445L201.255 288.605" stroke="#512921" stroke-width="2.5" stroke-linecap="round" stroke-linejoin="round"/>
<path fill-rule="evenodd" clip-rule="evenodd" d="M185.892 291.405C181.362 299.465 173.142 308.365 164.602 302.155C156.072 295.945 163.883 283.035 165.323 280.635C166.763 278.235 172.832 271.485 180.342 275.155" fill="#FF9210"/>
<path d="M185.892 291.405C181.362 299.465 173.142 308.365 164.602 302.155C156.072 295.945 163.883 283.035 165.323 280.635C166.763 278.235 172.832 271.485 180.342 275.155" stroke="#512921" stroke-width="2.5" stroke-linecap="round" stroke-linejoin="round"/>
<path d="M173.392 278.075C182.732 283.585 168.862 307.555 161.582 298.545" stroke="#512921" stroke-width="2.5" stroke-linecap="round" stroke-linejoin="round"/>
<path fill-rule="evenodd" clip-rule="evenodd" d="M121.964 192.625C122.324 183.205 122.854 172.585 123.714 161.425C124.474 133.595 173.044 110.925 233.754 110.925C294.484 110.925 343.924 133.535 344.034 161.445C344.534 170.415 344.604 179.155 344.304 187.425C342.724 232.215 320.734 249.785 310.154 257.255C280.754 278.005 229.484 277.065 229.484 277.065C229.484 277.065 175.734 279.305 146.324 258.555C135.744 251.095 120.214 238.695 121.964 192.615V192.625Z" fill="#FFE465" stroke="#512921" stroke-width="2.5" stroke-linecap="round" stroke-linejoin="round"/>
<path fill-rule="evenodd" clip-rule="evenodd" d="M123.883 161.545C123.883 189.495 172.953 212.155 233.753 212.155C294.553 212.155 343.833 189.495 343.833 161.545C343.833 133.595 294.553 110.935 233.753 110.935C172.953 110.935 123.883 133.595 123.883 161.545Z" fill="#FFE465"/>
<path fill-rule="evenodd" clip-rule="evenodd" d="M123.883 161.545C123.883 189.495 172.953 212.155 233.753 212.155C294.553 212.155 343.833 189.495 343.833 161.545C343.833 133.595 294.553 110.935 233.753 110.935C172.953 110.935 123.883 133.595 123.883 161.545Z" stroke="#F7886D" stroke-width="2.5" stroke-miterlimit="10"/>
<path fill-rule="evenodd" clip-rule="evenodd" d="M123.723 161.525C123.723 161.425 123.723 161.245 123.723 161.245C126.913 120.175 134.603 71.9248 154.663 50.0548C185.843 16.0648 229.473 19.2048 229.473 19.2048C229.473 19.2048 272.303 16.8148 304.283 50.0548C330.943 77.7748 341.753 121.705 344.003 161.245C344.003 161.245 344.003 161.485 344.003 161.545" fill="#FFE465"/>
<path d="M123.723 161.525C123.723 161.425 123.723 161.245 123.723 161.245C126.913 120.175 134.603 71.9248 154.663 50.0548C185.843 16.0648 229.473 19.2048 229.473 19.2048C229.473 19.2048 272.303 16.8148 304.283 50.0548C330.943 77.7748 341.753 121.705 344.003 161.245C344.003 161.245 344.003 161.485 344.003 161.545" stroke="#512921" stroke-width="2.5" stroke-linecap="round" stroke-linejoin="round"/>
<path d="M327.184 234.515C356.764 238.225 371.654 218.365 367.744 200.495C364.074 183.755 346.574 181.745 339.994 186.175" fill="#FFE465"/>
<path d="M327.184 234.515C356.764 238.225 371.654 218.365 367.744 200.495C364.074 183.755 346.574 181.745 339.994 186.175" stroke="#512921" stroke-width="2.5" stroke-linecap="round" stroke-linejoin="round"/>
<path d="M344.473 188.865C332.263 175.205 339.983 152.625 339.983 152.625L302.553 172.785C302.553 172.785 284.613 223.305 327.183 234.515" fill="#FFE465"/>
<path d="M344.473 188.865C332.263 175.205 339.983 152.625 339.983 152.625L302.553 172.785C302.553 172.785 284.613 223.305 327.183 234.515" stroke="#512921" stroke-width="2.5" stroke-linecap="round" stroke-linejoin="round"/>
<path d="M52.7851 240.095C93.8351 232.175 196.075 194.045 196.075 194.045C196.075 194.045 138.245 138.695 74.835 168.395C38.815 185.265 52.7751 240.105 52.7751 240.105L52.7851 240.095Z" fill="#F0503C" stroke="#512921" stroke-width="2.5" stroke-linecap="round" stroke-linejoin="round"/>
<path d="M137.174 140.345C169.574 139.845 341.964 143.235 343.504 143.905C346.924 147.105 349.354 169.635 345.774 176.385C343.234 179.035 306.034 247.255 196.074 278.495C180.924 282.795 151.884 291.745 139.894 266.155C132.384 250.145 122.094 228.435 104.774 215.385C87.8041 202.605 66.1241 203.995 64.7641 222.465C62.2541 256.475 21.3142 239.695 12.7942 214.725C-3.69583 166.415 22.5542 94.7848 86.3242 71.2648C56.7842 120.235 98.6742 140.925 137.184 140.335L137.174 140.345Z" fill="#F0503C" stroke="#512921" stroke-width="2.5" stroke-linecap="round" stroke-linejoin="round"/>
<path d="M69.125 211.855C99.885 186.965 181.725 173.085 252.225 179.115" stroke="#512921" stroke-width="2.5" stroke-linecap="round" stroke-linejoin="round"/>
<path d="M65.6332 98.3048C63.8632 98.1548 62.1832 97.2148 61.1232 95.6248C59.3032 92.8548 60.0731 89.1348 62.8431 87.3148C87.4531 71.1548 109.113 65.7748 125.233 62.8948C128.493 62.3148 131.613 64.4848 132.193 67.7448C132.773 71.0048 130.603 74.1248 127.343 74.7048C111.423 77.5448 92.0932 82.4548 69.4332 97.3348C68.2632 98.1048 66.9232 98.4048 65.6332 98.2948V98.3048Z" fill="#F0503C"/>
<path d="M5.96315 135.645C5.08315 135.645 4.19315 135.445 3.34315 135.025C0.373154 133.555 -0.846817 129.965 0.623183 126.985C10.2032 107.585 23.3833 85.1448 58.6933 64.4048C61.5533 62.7248 65.2232 63.6848 66.9032 66.5348C68.5832 69.3948 67.6232 73.0648 64.7732 74.7448C32.3232 93.8048 20.2032 114.445 11.3932 132.295C10.3432 134.425 8.19316 135.655 5.97316 135.635L5.96315 135.645Z" fill="#F0503C"/>
<path d="M55.3626 127.535C54.1626 127.405 52.9826 126.915 52.0126 126.045C49.5426 123.835 49.3226 120.045 51.5326 117.575C59.8726 108.235 77.0126 95.0549 96.4826 86.6949C99.5226 85.3949 103.053 86.7949 104.363 89.8349C105.673 92.8749 104.263 96.4049 101.223 97.7149C83.4426 105.355 67.9526 117.205 60.4926 125.565C59.1526 127.065 57.2326 127.735 55.3726 127.535H55.3626Z" fill="#F0503C"/>
<path d="M94.0833 121.075C92.8233 120.945 91.5934 120.415 90.6034 119.475C88.2034 117.215 88.0635 113.455 90.3135 111.035C90.6935 110.625 99.9434 100.865 120.223 94.1749C123.373 93.1449 126.763 94.8549 127.803 97.9949C128.843 101.145 127.133 104.535 123.983 105.575C106.883 111.205 99.1535 119.155 99.0735 119.235C97.7335 120.635 95.8733 121.255 94.0833 121.065V121.075Z" fill="#F0503C"/>
<path d="M127.344 74.7048C111.424 77.5448 92.0936 82.4548 69.4336 97.3348" stroke="#512921" stroke-width="2.5" stroke-linecap="round" stroke-linejoin="round"/>
<path d="M64.7628 74.7548C32.3128 93.8148 20.1928 114.455 11.3828 132.305" stroke="#512921" stroke-width="2.5" stroke-linecap="round" stroke-linejoin="round"/>
<path d="M101.222 97.7148C83.4422 105.355 67.9522 117.205 60.4922 125.565" stroke="#512921" stroke-width="2.5" stroke-linecap="round" stroke-linejoin="round"/>
<path d="M123.984 105.585C106.884 111.215 99.1542 119.165 99.0742 119.245" stroke="#512921" stroke-width="2.5" stroke-linecap="round" stroke-linejoin="round"/>
<path d="M181.702 41.2148C173.742 41.7748 169.532 35.9748 169.342 31.5948C168.882 21.2048 179.732 19.5248 181.812 19.7148C181.812 19.7148 178.092 11.0548 184.702 4.99477C186.912 2.97477 189.762 1.66477 193.882 1.35477C211.982 -0.0152307 221.712 12.4048 226.402 20.5948" fill="#FFE465"/>
<path d="M181.702 41.2148C173.742 41.7748 169.532 35.9748 169.342 31.5948C168.882 21.2048 179.732 19.5248 181.812 19.7148C181.812 19.7148 178.092 11.0548 184.702 4.99477C186.912 2.97477 189.762 1.66477 193.882 1.35477C211.982 -0.0152306 221.712 12.4048 226.402 20.5948" stroke="#512921" stroke-width="2.5" stroke-linecap="round" stroke-linejoin="round"/>
</svg>
