<svg width="413" height="316" viewBox="0 0 413 316" fill="none" xmlns="http://www.w3.org/2000/svg">
<path fill-rule="evenodd" clip-rule="evenodd" d="M314.35 126.656L99.3095 135.816C94.1195 136.376 93.9395 139.516 90.9795 143.006C37.6395 205.836 10.6497 188.366 3.21969 200.826C-2.61031 210.596 3.91938 233.156 30.6494 245.136C66.7994 261.346 86.6493 248.476 102.319 261.346C110.759 268.286 119.409 269.935 131.149 272.375C157.119 277.755 188.07 272.416 202.77 272.616C358.669 274.726 333.599 169.396 314.359 126.656H314.35Z" fill="#F0503C" stroke="#512921" stroke-width="2.5" stroke-linecap="round" stroke-linejoin="round"/>
<path fill-rule="evenodd" clip-rule="evenodd" d="M250.831 248.256L262.061 295.355C267.251 294.505 271.811 294.215 275.141 298.455C277.791 301.835 277.42 307.535 276.5 310.105C275.98 311.565 274.58 312.265 273.15 312.895C270.53 314.055 254.55 314.126 251.71 313.036C249.96 312.356 249.64 310.756 248.67 309.216C247.61 305.266 237.671 259.236 236.391 253.986C237.651 253.636 250.831 248.266 250.831 248.266V248.256Z" fill="#FF9210" stroke="#512921" stroke-width="2.5" stroke-linecap="round" stroke-linejoin="round"/>
<path fill-rule="evenodd" clip-rule="evenodd" d="M257.832 296.705C262.172 295.035 266.512 295.036 266.512 295.036L257.832 296.705Z" fill="#FF9210"/>
<path d="M257.832 296.705C262.172 295.035 266.512 295.036 266.512 295.036" stroke="#512921" stroke-width="2.5" stroke-linecap="round" stroke-linejoin="round"/>
<path fill-rule="evenodd" clip-rule="evenodd" d="M167.558 248.256L156.328 295.355C151.138 294.505 146.578 294.215 143.248 298.455C140.598 301.835 140.969 307.535 141.889 310.105C142.409 311.565 143.809 312.265 145.239 312.895C147.859 314.055 163.839 314.126 166.679 313.036C168.429 312.356 168.749 310.756 169.719 309.216C170.779 305.266 180.718 259.236 181.998 253.986C180.738 253.636 167.558 248.266 167.558 248.266V248.256Z" fill="#FF9210" stroke="#512921" stroke-width="2.5" stroke-linecap="round" stroke-linejoin="round"/>
<path fill-rule="evenodd" clip-rule="evenodd" d="M160.559 296.705C156.219 295.035 151.879 295.036 151.879 295.036L160.559 296.705Z" fill="#FF9210"/>
<path d="M160.559 296.705C156.219 295.035 151.879 295.036 151.879 295.036" stroke="#512921" stroke-width="2.5" stroke-linecap="round" stroke-linejoin="round"/>
<path fill-rule="evenodd" clip-rule="evenodd" d="M173.259 15.3356C173.259 15.3356 155.069 -2.4643 137.289 1.9557C133.339 2.9357 130.809 4.7156 129.029 7.1056C123.759 14.1756 128.689 22.3356 128.689 22.3356C126.689 22.4156 116.849 25.5259 118.959 35.6959C119.849 39.9759 124.689 45.2261 132.089 43.8161C145.179 41.326 165.929 27.1658 173.259 15.3458V15.3356Z" fill="#FFE465" stroke="#512921" stroke-width="2.5" stroke-linecap="round" stroke-linejoin="round"/>
<path d="M310.199 114.665C312.159 110.115 320.749 90.0154 342.029 90.6054C349.599 90.8154 357.619 94.1556 361.669 96.5356C364.959 93.8956 368.089 92.5855 370.569 91.8955C388.609 86.8855 405.719 105.595 406.409 106.645C411.679 114.665 412.779 127.506 407.809 132.456C404.339 135.906 400.359 137.776 394.509 139.256C372.189 154.266 347.919 166.956 318.639 166.826" fill="#FFE465"/>
<path d="M310.199 114.665C312.159 110.115 320.749 90.0154 342.029 90.6054C349.599 90.8154 357.619 94.1556 361.669 96.5356C364.959 93.8956 368.089 92.5855 370.569 91.8955C388.609 86.8855 405.719 105.595 406.409 106.645C411.679 114.665 412.779 127.506 407.809 132.456C404.339 135.906 400.359 137.776 394.509 139.256C372.189 154.266 347.919 166.956 318.639 166.826" stroke="#512921" stroke-width="2.5" stroke-linecap="round" stroke-linejoin="round"/>
<path d="M328.68 140.036C331.04 140.506 337.109 141.386 343.899 138.546C349.349 136.266 352.64 132.686 354.16 130.796C356.87 130.466 359.58 130.136 362.28 129.806" fill="#FFE465"/>
<path d="M328.68 140.036C331.04 140.506 337.109 141.386 343.899 138.546C349.349 136.266 352.64 132.686 354.16 130.796C356.87 130.466 359.58 130.136 362.28 129.806" stroke="#EDAE20" stroke-width="2.5" stroke-linecap="round" stroke-linejoin="round"/>
<path d="M362.181 115.446C361.421 114.816 360.311 113.806 359.201 112.386C354.641 106.556 354.571 99.5656 354.581 96.5356C354.581 94.0556 354.871 93.8856 355.011 91.2856C355.351 85.0956 354.091 79.7855 352.641 75.7255C364.611 72.5455 376.591 69.3657 388.561 66.1957C389.341 67.5557 390.51 69.5758 391.98 71.9858C393.18 73.9558 394.111 75.4357 394.271 75.6957C401.661 87.4757 405.361 93.3656 407.621 99.8256C408.701 102.916 410.03 110.375 410.42 116.665" fill="#FFE465"/>
<path d="M362.181 115.446C361.421 114.816 360.311 113.806 359.201 112.386C354.641 106.556 354.571 99.5656 354.581 96.5356C354.581 94.0556 354.871 93.8856 355.011 91.2856C355.351 85.0956 354.091 79.7855 352.641 75.7255C364.611 72.5455 376.591 69.3657 388.561 66.1957C389.341 67.5557 390.51 69.5758 391.98 71.9858C393.18 73.9558 394.111 75.4357 394.271 75.6957C401.661 87.4757 405.361 93.3656 407.621 99.8256C408.701 102.916 410.03 110.375 410.42 116.665" stroke="#512921" stroke-width="2.5" stroke-linecap="round" stroke-linejoin="round"/>
<path d="M370.038 51.5157C357.508 51.1657 345.638 65.0358 348.288 73.6158C348.728 75.0458 350.218 78.3957 356.458 80.9757C359.948 80.0357 364.698 78.6456 370.228 76.6456C381.868 72.4356 387.698 70.3256 388.448 66.8956C389.688 61.2556 380.108 51.7957 370.028 51.5157H370.038Z" fill="#FFE465"/>
<path d="M351.231 80.2454C347.331 78.6954 345.06 75.3057 345.55 72.5057C346.03 69.7557 349.3 68.5453 353.09 67.1253C355.68 66.1553 357.721 65.3856 359.661 66.4256C361.251 67.2756 362.491 69.1653 362.351 71.1853C362.181 73.6853 359.891 75.9053 356.871 76.1253" fill="#FFE465"/>
<path d="M351.231 80.2454C347.331 78.6954 345.06 75.3057 345.55 72.5057C346.03 69.7557 349.3 68.5453 353.09 67.1253C355.68 66.1553 357.721 65.3856 359.661 66.4256C361.251 67.2756 362.491 69.1653 362.351 71.1853C362.181 73.6853 359.891 75.9053 356.871 76.1253" stroke="#512921" stroke-width="2.5" stroke-linecap="round" stroke-linejoin="round"/>
<path d="M348.57 78.2958C349.2 78.9558 351.89 81.6656 356.32 82.0356C360.6 82.3956 363.63 80.3356 364.4 79.7856" fill="#FFE465"/>
<path d="M348.57 78.2958C349.2 78.9558 351.89 81.6656 356.32 82.0356C360.6 82.3956 363.63 80.3356 364.4 79.7856" stroke="#512921" stroke-width="2.5" stroke-linecap="round" stroke-linejoin="round"/>
<path d="M354.809 49.3354C353.699 49.3354 350.769 49.5656 347.749 51.5556C346.859 52.1456 343.809 54.3557 342.859 58.4657C342.709 59.1357 341.499 64.7755 345.309 68.1855C345.759 68.5955 348.799 71.2054 352.459 70.0854C354.629 69.4254 357.079 67.4257 357.169 64.7157C357.259 61.7657 354.499 58.7655 350.579 58.5155" fill="#FFE465"/>
<path d="M354.809 49.3354C353.699 49.3354 350.769 49.5656 347.749 51.5556C346.859 52.1456 343.809 54.3557 342.859 58.4657C342.709 59.1357 341.499 64.7755 345.309 68.1855C345.759 68.5955 348.799 71.2054 352.459 70.0854C354.629 69.4254 357.079 67.4257 357.169 64.7157C357.259 61.7657 354.499 58.7655 350.579 58.5155" stroke="#512921" stroke-width="2.5" stroke-linecap="round" stroke-linejoin="round"/>
<path d="M373.377 51.5156C372.597 50.5656 370.327 48.2056 366.517 47.0156C363.497 46.0756 360.157 46.4258 357.257 47.6758C354.007 49.0758 351.187 51.7059 350.077 55.0659C348.967 58.4259 349.807 62.4856 352.517 64.7656C354.977 66.8356 359.347 67.0057 362.107 64.3657C364.757 61.8257 365.077 57.4555 362.667 54.3555" fill="#FFE465"/>
<path d="M373.377 51.5156C372.597 50.5656 370.327 48.2056 366.517 47.0156C363.497 46.0756 360.157 46.4258 357.257 47.6758C354.007 49.0758 351.187 51.7059 350.077 55.0659C348.967 58.4259 349.807 62.4856 352.517 64.7656C354.977 66.8356 359.347 67.0057 362.107 64.3657C364.757 61.8257 365.077 57.4555 362.667 54.3555" stroke="#512921" stroke-width="2.5" stroke-linecap="round" stroke-linejoin="round"/>
<path d="M389.25 66.8655C388.68 62.1555 387.18 57.5656 384.87 53.4256C383.53 51.0156 381.859 48.7056 379.569 47.1756C376.939 45.4156 373.64 44.8053 370.5 45.1853C366.99 45.6153 363.54 47.3356 361.52 50.2356C359.5 53.1356 359.159 57.2754 361.109 60.2254C363.059 63.1754 367.409 64.4154 370.419 62.5554C373.419 60.6854 374.27 56.6153 373.79 53.1053" fill="#FFE465"/>
<path d="M389.25 66.8655C388.68 62.1555 387.18 57.5656 384.87 53.4256C383.53 51.0156 381.859 48.7056 379.569 47.1756C376.939 45.4156 373.64 44.8053 370.5 45.1853C366.99 45.6153 363.54 47.3356 361.52 50.2356C359.5 53.1356 359.159 57.2754 361.109 60.2254C363.059 63.1754 367.409 64.4154 370.419 62.5554C373.419 60.6854 374.27 56.6153 373.79 53.1053" stroke="#512921" stroke-width="2.5" stroke-linecap="round" stroke-linejoin="round"/>
<path d="M366.047 67.3354C366.067 68.0254 366.207 71.4355 368.957 73.9755C369.257 74.2555 372.787 77.4056 377.047 76.1156C379.307 75.4256 380.617 73.8357 381.117 73.1557" stroke="#512921" stroke-width="2.5" stroke-linecap="round" stroke-linejoin="round"/>
<path fill-rule="evenodd" clip-rule="evenodd" d="M95.5212 210.676C96.2812 206.826 99.2513 204.895 102.121 205.475C103.831 205.825 103.321 203.466 103.301 202.816C103.031 200.146 100.981 180.455 99.5114 156.605C99.5114 156.605 99.4912 156.325 99.5212 155.855C99.3012 128.345 146.661 103.986 205.941 101.216C265.881 98.4156 315.111 128.136 315.981 146.716C322.901 208.176 300.101 232.486 288.931 241.406C270.581 256.046 245.941 262.045 226.811 265.165C197.731 269.905 159.941 265.935 141.541 260.995C94.0412 248.235 94.1414 217.635 95.5114 210.665L95.5212 210.676Z" fill="#FFE465" stroke="#512921" stroke-width="2.5" stroke-linecap="round" stroke-linejoin="round"/>
<path fill-rule="evenodd" clip-rule="evenodd" d="M315.979 146.725C315.899 144.965 315.249 140.625 315.189 140.165C313.709 130.155 300.149 13.4352 202.919 9.1652C119.729 5.5052 100.679 70.7255 98.5492 84.4455C94.4392 110.885 100.489 128.735 98.6293 156.155L98.6996 156.875" fill="#FFE465"/>
<path d="M315.979 146.725C315.899 144.965 315.249 140.625 315.189 140.165C313.709 130.155 300.149 13.4352 202.919 9.1652C119.729 5.5052 100.679 70.7255 98.5492 84.4455C94.4392 110.885 100.489 128.735 98.6293 156.155L98.6996 156.875" stroke="#512921" stroke-width="2.5" stroke-linecap="round" stroke-linejoin="round"/>
<path d="M104.539 139.415C63.6192 165.875 67.1692 203.146 90.5392 211.536C125.339 224.026 138.269 186.456 116.899 176.066L108.599 173.256" fill="#FFE465"/>
<path d="M104.539 139.415C63.6192 165.875 67.1692 203.146 90.5392 211.536C125.339 224.026 138.269 186.456 116.899 176.066L108.599 173.256" stroke="#512921" stroke-width="2.5" stroke-linecap="round" stroke-linejoin="round"/>
<path fill-rule="evenodd" clip-rule="evenodd" d="M96.2295 138.416C115.939 122.516 274.069 90.5657 310.339 105.686C311.369 103.466 311.889 101.896 315.859 103.806C319.239 105.426 308.69 137.706 227.16 122.906C185.16 143.076 144.539 140.176 97.7993 160.666C69.8593 172.916 71.7994 177.616 59.8594 184.826" fill="#F0503C"/>
<path d="M96.2295 138.416C115.939 122.516 274.069 90.5657 310.339 105.686C311.369 103.466 311.889 101.896 315.859 103.806C319.239 105.426 308.69 137.706 227.16 122.906C185.16 143.076 144.539 140.176 97.7993 160.666C69.8593 172.916 71.7994 177.616 59.8594 184.826" stroke="#512921" stroke-width="2.5" stroke-linecap="round" stroke-linejoin="round"/>
<path d="M246.517 128.764C253.426 127.659 257.943 119.978 256.605 111.606C255.268 103.235 248.582 97.3438 241.672 98.4481C234.762 99.5524 230.245 107.234 231.583 115.605C232.92 123.977 239.607 129.868 246.517 128.764Z" fill="#F0503C" stroke="#512921" stroke-width="2.5" stroke-miterlimit="10"/>
<path d="M215.568 134.11C223.258 132.882 228.408 125.1 227.072 116.729C225.736 108.357 218.418 102.566 210.728 103.793C203.039 105.021 197.888 112.803 199.224 121.174C200.561 129.546 207.878 135.337 215.568 134.11Z" fill="#F0503C" stroke="#512921" stroke-width="2.5" stroke-miterlimit="10"/>
<path d="M231.349 127.408C237.282 126.606 241.387 120.747 240.518 114.321C239.649 107.896 234.136 103.338 228.203 104.14C222.27 104.942 218.165 110.801 219.034 117.226C219.903 123.651 225.416 128.21 231.349 127.408Z" fill="#F0503C" stroke="#512921" stroke-width="2.5" stroke-miterlimit="10"/>
<path d="M206.848 56.2758C199.208 74.7658 198.498 101.246 203.838 102.576C211.098 104.376 221.938 74.8258 220.618 60.8158L206.858 56.2758H206.848Z" fill="#FF5640" stroke="#512921" stroke-width="2.5" stroke-linecap="round" stroke-linejoin="round"/>
<path d="M200.929 80.3857C199.619 92.0457 200.649 101.786 203.839 102.576C207.019 103.366 210.879 98.1456 214.109 90.8656C210.999 86.0256 205.709 82.4854 200.939 80.3954L200.929 80.3857Z" fill="#FF929F" stroke="#512921" stroke-width="2.5" stroke-linecap="round" stroke-linejoin="round"/>
<path d="M222.988 48.2756C229.718 48.9256 231.378 59.2555 225.818 63.6355C222.308 66.3955 213.738 68.3456 204.488 63.5456C204.958 61.7056 206.208 55.1555 208.458 54.8855C215.848 53.1455 215.428 47.5456 222.988 48.2756Z" fill="#FF9210" stroke="#512921" stroke-width="2.5" stroke-miterlimit="10"/>
<path d="M102.75 173.975C115.85 160.815 141.32 168.995 139.4 191.895C137.63 212.925 111.211 220.706 88.1406 210.546" fill="#FFE465"/>
<path d="M102.75 173.975C115.85 160.815 141.32 168.995 139.4 191.895C137.63 212.925 111.211 220.706 88.1406 210.546" stroke="#512921" stroke-width="2.5" stroke-linecap="round" stroke-linejoin="round"/>
<path d="M327.07 109.006C334.17 107.106 336.59 109.935 336.42 115.435L327.07 109.006Z" fill="#FFE465"/>
<path d="M327.07 109.006C334.17 107.106 336.59 109.935 336.42 115.435" stroke="#EDAE20" stroke-width="2.5" stroke-linecap="round" stroke-linejoin="round"/>
<path d="M343.341 103.296C337.461 104.676 338.841 111.186 341.611 113.216L343.341 103.296Z" fill="#FFE465"/>
<path d="M343.341 103.296C337.461 104.676 338.841 111.186 341.611 113.216" stroke="#EDAE20" stroke-width="2.5" stroke-linecap="round" stroke-linejoin="round"/>
<path d="M326.199 102.605C331.569 104.855 336.669 104.506 339.219 98.8857L326.199 102.605Z" fill="#FFE465"/>
<path d="M326.199 102.605C331.569 104.855 336.669 104.506 339.219 98.8857" stroke="#EDAE20" stroke-width="2.5" stroke-linecap="round" stroke-linejoin="round"/>
<path d="M237.86 55.1856C238.28 60.2956 245.7 62.4957 257.31 60.9557C268.95 59.5957 275.59 55.6558 274.75 50.5958C274.33 45.4858 266.91 43.2858 255.3 44.8258C243.66 46.1758 237.02 50.1256 237.86 55.1856Z" fill="white" stroke="#512921" stroke-width="2.5" stroke-miterlimit="10"/>
<path d="M264.491 62.1615C268.418 61.609 271.118 57.734 270.523 53.5065C269.929 49.279 266.263 46.2999 262.337 46.8524C258.41 47.405 255.709 51.28 256.304 55.5075C256.899 59.735 260.564 62.7141 264.491 62.1615Z" fill="#512921"/>
<path d="M189.87 58.1054C190.72 63.1654 183.72 67.1554 171.51 68.5854C159.32 70.1954 151.56 68.0358 151.14 62.9258C150.29 57.8658 157.29 53.8758 169.5 52.4458C181.69 50.8358 189.46 52.9954 189.87 58.1054Z" fill="white" stroke="#512921" stroke-width="2.5" stroke-miterlimit="10"/>
<path d="M181.159 70.165C185.086 69.6124 187.786 65.7374 187.191 61.5099C186.597 57.2824 182.931 54.3033 179.005 54.8558C175.078 55.4084 172.377 59.2834 172.972 63.5109C173.567 67.7384 177.232 70.7175 181.159 70.165Z" fill="#512921"/>
<path d="M249.049 28.9755C242.969 34.9755 236.32 39.5754 230.93 36.3754" stroke="#512921" stroke-width="2.5" stroke-linecap="round" stroke-linejoin="round"/>
<path d="M222.5 36.3554C223.8 38.6754 225.8 39.3256 225.8 39.3256" stroke="#512921" stroke-width="2.5" stroke-linecap="round" stroke-linejoin="round"/>
<path d="M169.09 35.7856C179.12 41.1456 188.1 44.6554 192.45 40.1454" stroke="#512921" stroke-width="2.5" stroke-linecap="round" stroke-linejoin="round"/>
<path d="M200.572 37.8954C199.932 40.4754 198.172 41.6254 198.172 41.6254" stroke="#512921" stroke-width="2.5" stroke-linecap="round" stroke-linejoin="round"/>
</svg>
