<svg width="278" height="295" viewBox="0 0 278 295" fill="none" xmlns="http://www.w3.org/2000/svg">
<path fill-rule="evenodd" clip-rule="evenodd" d="M241.94 108.456C241.94 108.456 281.86 145.136 275.94 190.766C265.48 271.386 127.19 281.136 83.3202 251.686C17.8802 207.756 21.17 143.996 21.17 143.996L241.94 108.456Z" fill="#F0503C" stroke="#512921" stroke-width="2.5" stroke-linecap="round" stroke-linejoin="round"/>
<path fill-rule="evenodd" clip-rule="evenodd" d="M86.8708 211.105C81.3308 231.645 74.6708 255.366 69.1208 275.906C65.2308 272.206 56.8909 274.735 53.9809 278.365C51.5209 281.425 51.3208 286.045 52.6508 289.745C53.1608 291.175 54.5209 291.855 55.9209 292.465C58.4809 293.595 79.251 293.675 82.021 292.595C83.131 292.165 84.0109 291.515 84.5109 290.605C84.7409 290.195 84.8109 289.756 84.9809 289.016C85.2509 287.806 85.331 286.865 85.341 286.705C85.341 286.705 85.341 286.696 85.341 286.686C85.381 286.026 86.291 274.516 101.331 220.556C96.511 217.406 91.6908 214.255 86.8708 211.105Z" fill="#FF9210" stroke="#512921" stroke-width="2.5" stroke-linecap="round" stroke-linejoin="round"/>
<path fill-rule="evenodd" clip-rule="evenodd" d="M71.5813 276.505C70.3413 275.985 69.1013 275.466 67.8613 274.936L71.5813 276.505Z" fill="#FF9210"/>
<path d="M71.5813 276.505C70.3413 275.985 69.1013 275.466 67.8613 274.936" stroke="#512921" stroke-width="2.5" stroke-linecap="round" stroke-linejoin="round"/>
<path fill-rule="evenodd" clip-rule="evenodd" d="M189.879 208.886C200.009 219.756 210.35 231.466 220.75 244.046C228.4 253.296 235.58 262.406 242.33 271.336C247.54 269.636 253.409 270.686 255.919 274.666C258.159 278.216 258.15 283.536 257.25 286.046C256.74 287.476 255.379 288.156 253.979 288.766C251.419 289.896 230.649 289.976 227.879 288.896C226.769 288.466 225.889 287.816 225.389 286.906C225.159 286.496 225.089 286.056 224.919 285.316C224.719 284.436 224.77 283.996 224.56 283.006C224.45 282.496 224.33 282.086 224.25 281.826C218.55 272.166 211.72 261.756 203.53 251.006C191.83 235.636 179.95 222.986 169.1 212.746C176.03 211.456 182.959 210.176 189.889 208.886H189.879Z" fill="#FF9210" stroke="#512921" stroke-width="2.5" stroke-linecap="round" stroke-linejoin="round"/>
<path fill-rule="evenodd" clip-rule="evenodd" d="M238.98 272.426C240.09 272.056 241.201 271.686 242.311 271.316L238.98 272.426Z" fill="#FF9210"/>
<path d="M238.98 272.426C240.09 272.056 241.201 271.686 242.311 271.316" stroke="#512921" stroke-width="2.5" stroke-linecap="round" stroke-linejoin="round"/>
<path d="M44.2335 218.786C54.1742 218.69 62.1439 209.368 62.0345 197.964C61.925 186.56 53.7777 177.392 43.8371 177.487C33.8964 177.583 25.9266 186.905 26.0361 198.309C26.1456 209.713 34.2928 218.881 44.2335 218.786Z" fill="#FFE465" stroke="#512921" stroke-width="2.5" stroke-linecap="round" stroke-linejoin="round"/>
<path fill-rule="evenodd" clip-rule="evenodd" d="M21.4601 142.886C21.4601 142.886 5.18022 154.486 1.57022 179.176C-0.97978 196.636 11.7402 214.566 38.2902 211.366L50.89 180.656C50.89 180.656 40.1601 170.676 37.6501 159.936" fill="#FFE465"/>
<path d="M21.4601 142.886C21.4601 142.886 5.18022 154.486 1.57022 179.176C-0.97978 196.636 11.7402 214.566 38.2902 211.366" stroke="#512921" stroke-width="2.5" stroke-linecap="round" stroke-linejoin="round"/>
<path d="M18.9209 126.356C19.6509 141.186 34.5111 209.326 93.5911 238.136C152.671 266.946 220.151 244.516 242.721 221.536C262.871 201.016 265.311 182.186 265.571 167.376C265.701 159.996 265.081 149.736 262.621 146.666C257.681 140.486 259.131 148.516 253.181 149.016C240.921 150.066 225.601 132.376 220.361 105.606C216.801 87.4356 16.4609 76.0256 18.9209 126.346V126.356Z" fill="#FFE465" stroke="#512921" stroke-width="2.5" stroke-linecap="round" stroke-linejoin="round"/>
<path fill-rule="evenodd" clip-rule="evenodd" d="M155.48 6.64547C155.48 6.64547 180.66 0.825501 196.7 10.9255C212.75 21.0255 201.01 30.1655 201.01 30.1655C201.01 30.1655 217.101 43.9454 193.841 50.3454" fill="#FFE465"/>
<path d="M155.48 6.64547C155.48 6.64547 180.66 0.825501 196.7 10.9255C212.75 21.0255 201.01 30.1655 201.01 30.1655C201.01 30.1655 217.101 43.9454 193.841 50.3454" stroke="#512921" stroke-width="2.5" stroke-linecap="round" stroke-linejoin="round"/>
<path d="M24.8709 139.076C24.8709 139.076 7.29093 91.9357 36.1509 47.1757C64.4609 3.27572 109.181 -6.56432 153.481 6.76568C191.651 18.2557 216.941 58.6156 220.661 107.456" fill="#FFE465"/>
<path d="M24.8709 139.076C24.8709 139.076 7.29093 91.9357 36.1509 47.1757C64.4609 3.27572 109.181 -6.56432 153.481 6.76568C191.651 18.2557 216.941 58.6156 220.661 107.456" stroke="#512921" stroke-width="2.5" stroke-linecap="round" stroke-linejoin="round"/>
<path fill-rule="evenodd" clip-rule="evenodd" d="M251.33 133.335C236.15 156.105 234.1 154.056 225.89 154.256C217.68 154.466 208.25 143.586 216.66 124.306C225.07 105.026 247.63 108.716 255.63 110.356C263.63 111.996 256.25 125.946 251.32 133.326L251.33 133.335Z" fill="#FFE465"/>
<path fill-rule="evenodd" clip-rule="evenodd" d="M235.09 109.046C235.09 109.046 262.88 106.486 272.73 122.376C281.38 136.346 272.42 156.016 265.96 165.046C265.96 165.046 270.57 164.226 270.17 172.836C269.55 185.916 252.32 196.626 239.61 188.016C227.62 179.896 232.12 168.326 230.79 160.326C229.46 152.326 221.25 154.276 221.25 154.276" fill="#FFE465"/>
<path d="M235.09 109.046C235.09 109.046 262.88 106.486 272.73 122.376C281.38 136.346 272.42 156.016 265.96 165.046C265.96 165.046 270.57 164.226 270.17 172.836C269.55 185.916 252.32 196.626 239.61 188.016C227.62 179.896 232.12 168.326 230.79 160.326C229.46 152.326 221.25 154.276 221.25 154.276" stroke="#512921" stroke-width="2.5" stroke-linecap="round" stroke-linejoin="round"/>
<path fill-rule="evenodd" clip-rule="evenodd" d="M262.16 170.176C262.16 170.176 264.67 167.045 266.88 163.615L262.16 170.176Z" fill="#FFE465"/>
<path d="M262.16 170.176C262.16 170.176 264.67 167.045 266.88 163.615" stroke="#512921" stroke-width="2.5" stroke-linecap="round" stroke-linejoin="round"/>
<path d="M225.631 108.455C223.371 103.015 220.551 103.836 220.551 103.836C220.551 103.836 218.381 135.566 189.931 151.376C156.701 169.836 121.471 157.636 121.471 157.636L102.191 156.406C44.3407 165.846 20.0909 119.536 20.0909 119.536C20.0909 119.536 17.7607 125.266 18.9107 137.026C19.5307 143.336 23.6307 152.306 29.1707 158.156C47.2007 177.186 97.2708 164.205 97.2708 164.205L124.351 165.436C124.351 165.436 146.501 186.876 185.071 179.486C222.541 172.306 225.281 126.456 227.741 117.846C230.201 109.226 243.331 108.816 243.331 108.816C231.431 106.356 225.641 108.455 225.641 108.455H225.631Z" fill="#F0503C" stroke="#512921" stroke-width="2.5" stroke-linecap="round" stroke-linejoin="round"/>
<path d="M114.1 67.6858C114.1 67.6858 110 122.746 115.33 124.286C118.49 125.196 123.54 78.8457 124.36 70.3757L114.1 67.6758V67.6858Z" fill="#FF5640" stroke="#512921" stroke-width="2.5" stroke-miterlimit="10"/>
<path d="M115.331 124.296C117.391 124.886 120.25 105.416 122.22 89.4357C121.7 89.3057 121.151 89.2656 120.561 89.3556C117.171 89.8556 114.61 92.7657 112.68 96.6357C112.37 110.186 112.741 123.546 115.331 124.296Z" fill="#FF929F" stroke="#512921" stroke-width="2.5" stroke-miterlimit="10"/>
<path d="M104.808 161.116C105.151 152.646 99.7613 145.549 92.7696 145.266C85.7779 144.983 79.8317 151.62 79.4886 160.09C79.1454 168.561 84.5351 175.658 91.5268 175.941C98.5186 176.224 104.465 169.587 104.808 161.116Z" fill="#F0503C" stroke="#512921" stroke-width="2.5" stroke-miterlimit="10"/>
<path d="M133.049 172.23C136.202 164.361 132.899 155.633 125.671 152.736C118.443 149.839 110.026 153.87 106.873 161.739C103.719 169.608 107.022 178.336 114.25 181.233C121.478 184.13 129.895 180.099 133.049 172.23Z" fill="#F0503C" stroke="#512921" stroke-width="2.5" stroke-miterlimit="10"/>
<path d="M114.667 165.753C116.097 159.429 112.522 153.232 106.683 151.912C100.843 150.592 94.9505 154.648 93.5206 160.972C92.0908 167.297 95.6655 173.494 101.505 174.814C107.344 176.134 113.237 172.078 114.667 165.753Z" fill="#F0503C" stroke="#512921" stroke-width="2.5" stroke-miterlimit="10"/>
<path d="M61.981 52.9856C63.631 46.8456 73.881 41.7157 86.071 45.7757C97.651 49.6357 99.7609 58.1356 98.6709 62.8356C97.6709 67.1656 93.151 69.5356 85.991 64.4756C79.041 59.5656 73.0309 61.0056 69.4309 61.4556C65.2509 61.9756 60.581 58.2156 61.991 52.9756L61.981 52.9856Z" fill="white"/>
<mask id="mask0_16769_44771" style="mask-type:luminance" maskUnits="userSpaceOnUse" x="61" y="44" width="38" height="24">
<path d="M61.981 52.9856C63.631 46.8456 73.881 41.7157 86.071 45.7757C97.651 49.6357 99.7609 58.1356 98.6709 62.8356C97.6709 67.1656 93.151 69.5356 85.991 64.4756C79.041 59.5656 73.0309 61.0056 69.4309 61.4556C65.2509 61.9756 60.581 58.2156 61.991 52.9756L61.981 52.9856Z" fill="white"/>
</mask>
<g mask="url(#mask0_16769_44771)">
<path d="M69.251 61.3455C73.8736 61.3455 77.6208 57.5981 77.6208 52.9755C77.6208 48.3528 73.8736 44.6055 69.251 44.6055C64.6284 44.6055 60.8809 48.3528 60.8809 52.9755C60.8809 57.5981 64.6284 61.3455 69.251 61.3455Z" fill="#512921"/>
</g>
<path d="M61.981 52.9856C63.631 46.8456 73.881 41.7157 86.071 45.7757C97.651 49.6357 99.7609 58.1356 98.6709 62.8356C97.6709 67.1656 93.151 69.5356 85.991 64.4756C79.041 59.5656 73.0309 61.0056 69.4309 61.4556C65.2509 61.9756 60.581 58.2156 61.991 52.9756L61.981 52.9856Z" stroke="#512921" stroke-width="2.5" stroke-linecap="round" stroke-linejoin="round"/>
<path d="M139.73 72.1256C141.89 66.2456 152.89 61.9757 165.25 66.8257C176.99 71.4357 178.56 79.8956 177.1 84.4156C175.75 88.5756 170.86 90.5056 163.82 85.1056C156.57 79.5456 150.62 80.7756 146.85 80.9556C142.47 81.1656 137.89 77.1456 139.74 72.1256H139.73Z" fill="white"/>
<mask id="mask1_16769_44771" style="mask-type:luminance" maskUnits="userSpaceOnUse" x="139" y="64" width="39" height="25">
<path d="M139.73 72.1256C141.89 66.2456 152.89 61.9757 165.25 66.8257C176.99 71.4357 178.56 79.8956 177.1 84.4156C175.75 88.5756 170.86 90.5056 163.82 85.1056C156.57 79.5456 150.62 80.7756 146.85 80.9556C142.47 81.1656 137.89 77.1456 139.74 72.1256H139.73Z" fill="white"/>
</mask>
<g mask="url(#mask1_16769_44771)">
<path d="M147.291 81.7156C152.3 81.7156 156.361 77.6549 156.361 72.6456C156.361 67.6364 152.3 63.5757 147.291 63.5757C142.282 63.5757 138.221 67.6364 138.221 72.6456C138.221 77.6549 142.282 81.7156 147.291 81.7156Z" fill="#512921"/>
</g>
<path d="M139.73 72.1256C141.89 66.2456 152.89 61.9757 165.25 66.8257C176.99 71.4357 178.56 79.8956 177.1 84.4156C175.75 88.5756 170.86 90.5056 163.82 85.1056C156.57 79.5456 150.62 80.7756 146.85 80.9556C142.47 81.1656 137.89 77.1456 139.74 72.1256H139.73Z" stroke="#512921" stroke-width="2.5" stroke-linecap="round" stroke-linejoin="round"/>
<path d="M101.48 11.0757C101.48 11.0757 108.86 11.0757 109.48 16.9257C110.1 22.7757 106.4 33.5457 110.71 32.9257" stroke="#512921" stroke-width="3.5" stroke-linecap="round" stroke-linejoin="round"/>
<path d="M117.791 33.5356C117.791 33.5356 119.941 35.6857 115.641 39.0757" stroke="#512921" stroke-width="2.5" stroke-linecap="round" stroke-linejoin="round"/>
<path d="M144.25 46.1558C144.25 46.1558 144.87 50.7757 151.63 49.2357C158.4 47.6957 159.42 48.0057 159.42 48.0057" stroke="#512921" stroke-width="3.5" stroke-linecap="round" stroke-linejoin="round"/>
<path d="M124.56 64.1557C123.18 62.6157 117.64 51.0757 112.25 53.6957C106.87 56.3157 105.64 76.6257 115.48 76.9257C122.3 77.1357 123.22 73.7456 124.15 72.2056C125.07 70.6656 124.56 64.1557 124.56 64.1557Z" fill="#FF9210" stroke="#512921" stroke-width="2.5" stroke-miterlimit="10"/>
<path d="M45.9898 61.1255C45.9898 61.1255 43.0197 64.7155 43.1197 69.7455" stroke="#FF7873" stroke-width="3.5" stroke-linecap="round" stroke-linejoin="round"/>
<path d="M54.6104 65.1255C54.6104 65.1255 53.0703 67.5855 53.0703 70.2555" stroke="#FF7873" stroke-width="3.5" stroke-linecap="round" stroke-linejoin="round"/>
<path d="M177.479 96.4055C177.479 96.4055 176.249 99.4855 175.629 100.916" stroke="#FF7873" stroke-width="3.5" stroke-linecap="round" stroke-linejoin="round"/>
<path d="M185.479 95.5854C185.479 95.5854 186.299 98.2555 184.449 103.375" stroke="#FF7873" stroke-width="3.5" stroke-linecap="round" stroke-linejoin="round"/>
</svg>
