<svg width="246" height="326" viewBox="0 0 246 326" fill="none" xmlns="http://www.w3.org/2000/svg">
<path fill-rule="evenodd" clip-rule="evenodd" d="M18.4413 140.598C63.3013 134.628 170.501 135.748 226.371 140.598C230.241 140.938 233.441 143.658 234.261 147.318C239.641 171.388 250.701 234.868 237.931 256.568C222.171 284.788 169.691 298.648 122.581 298.558C69.1012 298.458 26.4113 282.458 9.49134 259.948C-7.51866 237.318 6.34128 169.708 10.9313 147.418C11.6713 143.828 14.6913 141.088 18.4513 140.588L18.4413 140.598Z" fill="#F0503C" stroke="#512921" stroke-width="2.5" stroke-linecap="round" stroke-linejoin="round"/>
<path fill-rule="evenodd" clip-rule="evenodd" d="M88.2211 261.208L91.7511 305.357C91.7511 305.357 81.971 302.218 77.841 308.768C75.551 312.398 75.5611 317.847 76.4811 320.417C77.0011 321.877 78.401 322.578 79.831 323.208C82.451 324.368 103.721 324.438 106.561 323.348C108.311 322.668 109.751 321.458 109.601 319.528C108.641 307.478 105.361 266.188 105.031 262.408C103.941 262.408 88.2411 261.218 88.2411 261.218L88.2211 261.208Z" fill="#FF9210" stroke="#512921" stroke-width="2.5" stroke-linecap="round" stroke-linejoin="round"/>
<path fill-rule="evenodd" clip-rule="evenodd" d="M97.0598 307.028C94.9798 306.318 91.75 305.358 91.75 305.358L97.0598 307.028Z" fill="#FF9210"/>
<path d="M97.0598 307.028C94.9798 306.318 91.75 305.358 91.75 305.358" stroke="#512921" stroke-width="2.5" stroke-linecap="round" stroke-linejoin="round"/>
<path fill-rule="evenodd" clip-rule="evenodd" d="M156.859 261.208L153.329 305.357C153.329 305.357 163.11 302.218 167.24 308.768C169.53 312.398 169.519 317.847 168.599 320.417C168.079 321.877 166.68 322.578 165.25 323.208C162.63 324.368 141.36 324.438 138.52 323.348C136.77 322.668 135.33 321.458 135.48 319.528C136.44 307.478 139.719 266.188 140.049 262.408C141.139 262.408 156.839 261.218 156.839 261.218L156.859 261.208Z" fill="#FF9210" stroke="#512921" stroke-width="2.5" stroke-linecap="round" stroke-linejoin="round"/>
<path fill-rule="evenodd" clip-rule="evenodd" d="M148.012 307.028C150.092 306.318 153.322 305.358 153.322 305.358L148.012 307.028Z" fill="#FF9210"/>
<path d="M148.012 307.028C150.092 306.318 153.322 305.358 153.322 305.358" stroke="#512921" stroke-width="2.5" stroke-linecap="round" stroke-linejoin="round"/>
<path fill-rule="evenodd" clip-rule="evenodd" d="M102.143 32.5676C102.143 32.5676 105.113 2.83764 126.883 1.30764C142.053 0.247636 141.973 14.1577 142.513 14.3277C142.513 14.3277 149.893 11.9277 153.583 17.5877C156.913 22.6977 153.503 29.3476 147.393 30.9376C133.143 34.6376 104.943 33.8576 102.133 32.5676H102.143Z" fill="#FFE465" stroke="#512921" stroke-width="2.5" stroke-linecap="round" stroke-linejoin="round"/>
<path fill-rule="evenodd" clip-rule="evenodd" d="M15.6396 161.947C15.1896 170.817 15.1396 179.467 15.3996 187.647C16.8696 232.657 37.3797 250.307 47.2497 257.807C74.6697 278.657 113.28 277.147 122.48 277.147C131.68 277.147 170.29 278.657 197.71 257.807C207.58 250.307 228.09 232.647 229.56 187.647C229.8 180.297 229.78 169.747 229.45 161.827C228.6 141.557 193.15 113.067 122.78 113.387C51.2998 113.717 16.6496 141.977 15.6396 161.937V161.947Z" fill="#FFE465" stroke="#512921" stroke-width="2.5" stroke-linecap="round" stroke-linejoin="round"/>
<path fill-rule="evenodd" clip-rule="evenodd" d="M229.3 161.907C229.3 101.787 209.37 18.6074 122.49 18.6074C35.6097 18.6074 15.6797 101.787 15.6797 161.947" fill="#FFE465"/>
<path d="M229.3 161.907C229.3 101.787 209.37 18.6074 122.49 18.6074C35.6097 18.6074 15.6797 101.787 15.6797 161.947" stroke="#512921" stroke-width="2.5" stroke-linecap="round" stroke-linejoin="round"/>
<path d="M175.079 182.078C144.149 195.978 164.859 230.538 189.939 220.708C202.539 215.768 212.31 205.278 218.74 194.388" fill="#FFE465"/>
<path d="M175.079 182.078C144.149 195.978 164.859 230.538 189.939 220.708C202.539 215.768 212.31 205.278 218.74 194.388" stroke="#512921" stroke-width="2.5" stroke-linecap="round" stroke-linejoin="round"/>
<path d="M69.3513 182.078C100.281 195.978 79.5715 230.538 54.4915 220.708C41.8915 215.768 32.1214 205.278 25.6914 194.378" fill="#FFE465"/>
<path d="M69.3513 182.078C100.281 195.978 79.5715 230.538 54.4915 220.708C41.8915 215.768 32.1214 205.278 25.6914 194.378" stroke="#512921" stroke-width="2.5" stroke-linecap="round" stroke-linejoin="round"/>
<path fill-rule="evenodd" clip-rule="evenodd" d="M239.803 194.948C238.753 177.228 231.973 144.918 230.173 143.438C227.593 141.308 222.353 159.158 121.823 158.218C121.843 158.218 121.853 158.248 121.863 158.308C22.1028 159.148 15.3328 141.368 14.8628 143.578C13.8228 148.478 7.43281 176.818 6.38281 194.498C10.2028 193.028 30.0529 175.148 124.183 175.148C124.183 175.138 124.183 175.118 124.183 175.108C217.593 175.208 236.003 193.488 239.813 194.948H239.803Z" fill="#F0503C"/>
<path d="M7.44141 194.388C11.2014 192.938 31.4813 175.048 124.311 175.048C124.311 175.038 122.661 175.028 122.661 175.008C214.781 175.108 234.441 192.938 238.191 194.388" stroke="#512921" stroke-width="2.5" stroke-linecap="round" stroke-linejoin="round"/>
<path d="M229.523 142.318C228.473 143.268 215.413 158.518 123.663 158.518C123.683 158.518 122.433 158.468 122.453 158.518C32.1131 158.518 19.613 145.168 15.793 142.318" stroke="#512921" stroke-width="2.5" stroke-linecap="round" stroke-linejoin="round"/>
<path d="M117.534 167.09C117.738 158.615 111.593 151.592 103.808 151.405C96.0229 151.217 89.5465 157.936 89.3423 166.411C89.1382 174.886 95.2836 181.908 103.069 182.096C110.853 182.283 117.33 175.565 117.534 167.09Z" fill="#F0503C" stroke="#512921" stroke-width="2.5" stroke-miterlimit="10"/>
<path d="M155.233 167.101C155.438 158.626 149.292 151.604 141.507 151.416C133.722 151.229 127.246 157.947 127.042 166.422C126.837 174.897 132.983 181.92 140.768 182.107C148.553 182.295 155.029 175.576 155.233 167.101Z" fill="#F0503C" stroke="#512921" stroke-width="2.5" stroke-miterlimit="10"/>
<path d="M122.244 178.468C128.728 178.468 133.984 173.212 133.984 166.728C133.984 160.244 128.728 154.988 122.244 154.988C115.76 154.988 110.504 160.244 110.504 166.728C110.504 173.212 115.76 178.468 122.244 178.468Z" fill="#F0503C" stroke="#512921" stroke-width="2.5" stroke-miterlimit="10"/>
<path d="M173.821 182.288C159.321 173.038 148.531 170.058 140.141 169.928C135.541 169.858 129.241 170.868 125.651 175.168C121.911 179.648 124.261 182.758 128.481 182.928C113.351 203.628 156.121 235.258 189.941 220.708" fill="#FFE465"/>
<path d="M173.821 182.288C159.321 173.038 148.531 170.058 140.141 169.928C135.541 169.858 129.241 170.868 125.651 175.168C121.911 179.648 124.261 182.758 128.481 182.928C113.351 203.628 156.121 235.258 189.941 220.708" stroke="#512921" stroke-width="2.5" stroke-linecap="round" stroke-linejoin="round"/>
<path d="M70.6804 182.288C85.1804 173.038 95.9704 170.058 104.36 169.928C108.96 169.858 115.26 170.868 118.85 175.168C122.59 179.648 120.241 182.758 116.021 182.928C131.151 203.628 88.3005 235.258 54.4805 220.708" fill="#FFE465"/>
<path d="M70.6804 182.288C85.1804 173.038 95.9704 170.058 104.36 169.928C108.96 169.858 115.26 170.868 118.85 175.168C122.59 179.648 120.241 182.758 116.021 182.928C131.151 203.628 88.3005 235.258 54.4805 220.708" stroke="#512921" stroke-width="2.5" stroke-linecap="round" stroke-linejoin="round"/>
<path d="M164.653 61.3174C159.403 61.0974 155.203 58.2075 152.062 52.6475" stroke="#512921" stroke-width="3.5" stroke-linecap="round" stroke-linejoin="round"/>
<path d="M80.3203 61.3174C85.5703 61.0974 89.7704 58.2075 92.9104 52.6475" stroke="#512921" stroke-width="3.5" stroke-linecap="round" stroke-linejoin="round"/>
<path d="M79.3704 105.938C90.3553 105.938 99.2605 97.0326 99.2605 86.0477C99.2605 75.0627 90.3553 66.1577 79.3704 66.1577C68.3854 66.1577 59.4805 75.0627 59.4805 86.0477C59.4805 97.0326 68.3854 105.938 79.3704 105.938Z" fill="white" stroke="#512921" stroke-width="2.5" stroke-linecap="round" stroke-linejoin="round"/>
<path d="M167.152 105.938C178.137 105.938 187.042 97.0326 187.042 86.0477C187.042 75.0627 178.137 66.1577 167.152 66.1577C156.167 66.1577 147.262 75.0627 147.262 86.0477C147.262 97.0326 156.167 105.938 167.152 105.938Z" fill="white" stroke="#512921" stroke-width="2.5" stroke-linecap="round" stroke-linejoin="round"/>
<path d="M128.358 106.128C130.008 107.748 132.799 106.458 132.199 104.128C131.649 101.978 129.538 98.7975 129.168 94.9175C129.168 94.8175 129.059 94.7476 128.959 94.7476H118.019C116.939 100.198 115.709 104.028 115.479 105.788C115.319 107.008 115.149 108.578 115.999 106.638C117.159 104.588 119.129 101.408 122.739 101.738C126.859 102.118 126.748 104.548 128.358 106.138V106.128Z" fill="#FF5640" stroke="#512921" stroke-width="2.5" stroke-miterlimit="10"/>
<path d="M125 117.528C125 120.468 126.18 123.848 129.87 126.778" stroke="#512921" stroke-width="2.5" stroke-linecap="round" stroke-linejoin="round"/>
<path d="M118.441 117.528C117.641 120.268 116.911 125.028 119.121 127.208" stroke="#512921" stroke-width="2.5" stroke-linecap="round" stroke-linejoin="round"/>
<path d="M136.581 102.748C138.491 105.738 135.831 112.678 129.871 111.438" stroke="#512921" stroke-width="2.5" stroke-linecap="round" stroke-linejoin="round"/>
<path d="M114.7 111.868C111.68 111.968 108.91 109.548 110.97 103.328" stroke="#512921" stroke-width="2.5" stroke-linecap="round" stroke-linejoin="round"/>
<path d="M132.36 92.7675C132.36 97.7975 127.29 99.6675 123.09 99.6675C118.89 99.6675 113.82 97.7975 113.82 92.7675C113.82 87.1575 118.72 82.9175 123.09 82.9175C127.46 82.9175 132.36 87.1475 132.36 92.7675Z" fill="#FF9210" stroke="#512921" stroke-width="2.5" stroke-miterlimit="10"/>
<path d="M68.4431 78.9275C66.2431 82.2175 68.703 86.1575 67.583 87.9175C64.823 92.2675 67.0631 96.5275 73.1131 96.6075C77.0931 97.8775 78.093 99.0275 81.313 97.7975C82.413 97.3775 83.2631 96.3075 84.1931 95.3075C85.1231 94.3075 89.1131 93.3075 89.6931 92.2575C90.9431 90.0675 91.2831 88.9175 91.1031 87.1875C90.9631 85.8275 93.2231 83.8375 91.9331 81.5975C90.6731 79.4175 89.7231 82.2675 89.1731 77.9975C88.6731 74.0975 80.5331 71.3575 74.8531 76.9175C73.2231 78.5075 70.1432 76.6575 68.4532 78.9275H68.4431Z" fill="#502823"/>
<path d="M77.8931 80.1775C79.0931 79.0475 82.1832 75.4176 84.5132 79.3376C86.8432 83.2576 85.9132 84.8976 83.4232 85.6276C80.4332 86.5076 80.0032 84.6975 78.2632 85.8575C77.2932 86.5075 74.843 84.2876 75.793 82.4976C76.543 81.0876 76.9231 81.0875 77.9031 80.1675L77.8931 80.1775Z" fill="white"/>
<path d="M72.7917 87.7179C74.3117 86.1379 75.6719 86.3079 75.9719 87.7179C76.2719 89.1279 76.9318 91.2679 74.3818 91.3379C71.8318 91.4079 70.9417 89.6379 72.7917 87.7179Z" fill="white"/>
<path d="M156.22 78.9275C154.02 82.2175 156.48 86.1575 155.36 87.9175C152.6 92.2675 154.84 96.5275 160.89 96.6075C164.87 97.8775 165.87 99.0275 169.09 97.7975C170.19 97.3775 171.04 96.3075 171.97 95.3075C172.9 94.3075 176.89 93.3075 177.47 92.2575C178.72 90.0675 179.06 88.9175 178.88 87.1875C178.74 85.8275 181 83.8375 179.71 81.5975C178.45 79.4175 177.5 82.2675 176.95 77.9975C176.45 74.0975 168.31 71.3575 162.63 76.9175C161 78.5075 157.92 76.6575 156.23 78.9275H156.22Z" fill="#502823"/>
<path d="M165.682 80.1775C166.882 79.0475 169.972 75.4176 172.302 79.3376C174.632 83.2576 173.702 84.8976 171.212 85.6276C168.222 86.5076 167.792 84.6975 166.052 85.8575C165.082 86.5075 162.632 84.2876 163.582 82.4976C164.332 81.0876 164.712 81.0875 165.692 80.1675L165.682 80.1775Z" fill="white"/>
<path d="M160.581 87.7179C162.101 86.1379 163.461 86.3079 163.761 87.7179C164.061 89.1279 164.721 91.2679 162.171 91.3379C159.621 91.4079 158.731 89.6379 160.581 87.7179Z" fill="white"/>
<path d="M79.0718 94.9976C67.5918 95.8476 58.4418 98.6376 58.6318 101.218C58.8218 103.798 68.5717 109.358 80.0517 108.498C91.5317 107.648 100.392 100.708 100.202 98.1276C100.012 95.5476 90.5518 94.1476 79.0718 94.9976Z" fill="#FFE465"/>
<path d="M61.7812 98.4178C65.3912 96.8578 71.761 95.5278 79.071 94.9878C86.861 94.4078 93.7211 94.8679 97.3811 96.0279" fill="#FFE465"/>
<path d="M61.7812 98.4178C65.3912 96.8578 71.761 95.5278 79.071 94.9878C86.861 94.4078 93.7211 94.8679 97.3811 96.0279" stroke="#512921" stroke-width="2.5" stroke-linecap="round" stroke-linejoin="round"/>
<path d="M66.5205 93.0776C69.8105 93.7976 71.6005 100.848 60.7705 101.438C49.7705 102.028 50.3705 92.5676 61.4905 92.2876" fill="white"/>
<path d="M66.5205 93.0776C69.8105 93.7976 71.6005 100.848 60.7705 101.438C49.7705 102.028 50.3705 92.5676 61.4905 92.2876" stroke="#512921" stroke-width="2.5" stroke-linecap="round" stroke-linejoin="round"/>
<path d="M167.442 94.9976C155.962 94.1476 146.502 95.5476 146.312 98.1276C146.122 100.708 154.982 107.648 166.462 108.498C177.942 109.348 187.692 103.798 187.882 101.218C188.072 98.6376 178.922 95.8576 167.442 94.9976Z" fill="#FFE465"/>
<path d="M184.741 98.4178C181.131 96.8578 174.761 95.5278 167.451 94.9878C159.661 94.4078 152.801 94.8679 149.141 96.0279" fill="#FFE465"/>
<path d="M184.741 98.4178C181.131 96.8578 174.761 95.5278 167.451 94.9878C159.661 94.4078 152.801 94.8679 149.141 96.0279" stroke="#512921" stroke-width="2.5" stroke-linecap="round" stroke-linejoin="round"/>
<path d="M180.001 93.0776C176.711 93.7976 174.921 100.848 185.751 101.438C196.751 102.028 196.151 92.5676 185.031 92.2876" fill="white"/>
<path d="M180.001 93.0776C176.711 93.7976 174.921 100.848 185.751 101.438C196.751 102.028 196.151 92.5676 185.031 92.2876" stroke="#512921" stroke-width="2.5" stroke-linecap="round" stroke-linejoin="round"/>
</svg>
