<svg width="326" height="362" viewBox="0 0 326 362" fill="none" xmlns="http://www.w3.org/2000/svg">
<path d="M33.4873 180.05C34.7773 197.72 27.1873 262.89 61.0173 296.33C100.287 335.15 172.217 331.81 227.237 322.06C293.807 310.26 332.857 283.47 322.027 237.43C315.917 211.47 276.887 158.55 263.797 117.93C250.707 77.31 29.1973 121.27 33.4873 180.06V180.05Z" fill="#F0503C" stroke="#512921" stroke-width="2.75" stroke-linecap="round" stroke-linejoin="round"/>
<path fill-rule="evenodd" clip-rule="evenodd" d="M155.828 22.2202C155.828 22.2202 172.528 -0.259791 192.608 1.47021C197.078 1.85021 200.128 3.35013 202.478 5.64013C209.418 12.4101 205.468 22.1301 205.468 22.1301C207.658 21.8801 218.888 23.5502 218.348 34.9702C218.118 39.7702 213.768 46.3102 205.478 46.0602C190.828 45.6202 165.828 33.8102 155.828 22.2302V22.2202Z" fill="#FFE465" stroke="#512921" stroke-width="2.75" stroke-linecap="round" stroke-linejoin="round"/>
<path fill-rule="evenodd" clip-rule="evenodd" d="M105.308 341.08C103.018 340.3 100.068 339.47 100.068 339.47C100.068 339.47 101.538 314.53 112.368 290.27L126.478 291.62C118.128 318.93 119.728 341.93 119.088 354.82C118.978 356.95 117.678 358.28 115.748 359.03C112.618 360.24 89.218 360.15 86.338 358.88C84.768 358.19 83.2281 357.42 82.6581 355.81C81.6481 352.98 81.6381 346.99 84.1581 342.99C88.7081 335.78 99.4681 339.24 99.4681 339.24" fill="#FF9210"/>
<path d="M105.308 341.08C103.018 340.3 100.068 339.47 100.068 339.47C100.068 339.47 101.538 314.53 112.368 290.27L126.478 291.62C118.128 318.93 119.728 341.93 119.088 354.82C118.978 356.95 117.678 358.28 115.748 359.03C112.618 360.24 89.218 360.15 86.338 358.88C84.768 358.19 83.2281 357.42 82.6581 355.81C81.6481 352.98 81.6381 346.99 84.1581 342.99C88.7081 335.78 99.4681 339.24 99.4681 339.24" stroke="#512921" stroke-width="2.75" stroke-linecap="round" stroke-linejoin="round"/>
<path fill-rule="evenodd" clip-rule="evenodd" d="M265.745 340.63C268.035 339.85 269.105 339.33 269.105 339.33C272.375 340.24 246.535 294.02 238.415 291.4L227.465 296.51C239.995 314.2 251.325 341.49 251.965 354.38C252.075 356.51 253.375 357.84 255.305 358.59C258.435 359.8 281.835 359.71 284.715 358.44C286.285 357.75 287.825 356.98 288.395 355.37C289.405 352.54 289.415 346.55 286.895 342.55C282.345 335.34 269.185 339.25 269.185 339.25" fill="#FF9210"/>
<path d="M265.745 340.63C268.035 339.85 269.105 339.33 269.105 339.33C272.375 340.24 246.535 294.02 238.415 291.4L227.465 296.51C239.995 314.2 251.325 341.49 251.965 354.38C252.075 356.51 253.375 357.84 255.305 358.59C258.435 359.8 281.835 359.71 284.715 358.44C286.285 357.75 287.825 356.98 288.395 355.37C289.405 352.54 289.415 346.55 286.895 342.55C282.345 335.34 269.185 339.25 269.185 339.25" stroke="#512921" stroke-width="2.75" stroke-linecap="round" stroke-linejoin="round"/>
<path d="M33.5961 178.01C33.5961 178.01 -0.253761 196.63 1.43624 229.47C2.61624 252.35 37.9963 257.57 37.9963 257.57C37.9963 257.57 32.2362 262.99 37.6562 271.45C43.0762 279.91 65.7563 276.87 69.4763 263.66C73.1963 250.46 53.5661 178.01 33.5961 178.01Z" fill="#FFE465" stroke="#512921" stroke-width="2.75" stroke-linecap="round" stroke-linejoin="round"/>
<path d="M31.7159 170.73C31.8659 172.87 34.4257 244.07 75.0457 283.39C121.906 328.74 229.216 311.51 267.436 286.26C305.356 261.21 303.086 231.24 300.276 222.95C296.546 211.96 287.646 219.07 287.646 219.07C287.646 219.07 272.516 160.7 262.356 126.13C252.196 91.5601 28.3259 123.95 31.7059 170.73H31.7159Z" fill="#FFE465" stroke="#512921" stroke-width="2.75" stroke-linecap="round" stroke-linejoin="round"/>
<path d="M267.185 142.46C248.905 37.1801 195.075 17.88 137.525 21.94C79.9747 26 47.4749 65.27 35.9649 105.9C24.4549 146.52 34.2747 186.81 34.2747 186.81" fill="#FFE465"/>
<path d="M267.185 142.46C248.905 37.1801 195.075 17.88 137.525 21.94C79.9747 26 47.4749 65.27 35.9649 105.9C24.4549 146.52 34.2747 186.81 34.2747 186.81" stroke="#512921" stroke-width="2.75" stroke-linecap="round" stroke-linejoin="round"/>
<path d="M31.5664 173.95C31.5664 173.95 66.7766 208.82 125.007 184.78C125.007 184.78 219.456 176.99 261.776 116.73C261.776 116.73 265.686 117.38 262.796 123.5C253.816 142.48 226.227 186.22 195.767 199.11C166.977 211.29 135.737 190.53 135.737 190.53L120.836 192.79C120.836 192.79 93.6064 231.33 62.6064 215.36C40.2664 203.85 31.9164 184.1 31.5764 173.95H31.5664Z" fill="#F0503C" stroke="#512921" stroke-width="2.75" stroke-linecap="round" stroke-linejoin="round"/>
<path d="M115.039 213.668C122.679 212.72 127.942 204.448 126.794 195.191C125.646 185.934 118.521 179.197 110.881 180.145C103.241 181.092 97.9776 189.365 99.1257 198.622C100.274 207.879 107.398 214.616 115.039 213.668Z" fill="#F0503C" stroke="#512921" stroke-width="2.75" stroke-miterlimit="10"/>
<path d="M148.312 208.798C156.812 207.744 162.773 199.384 161.625 190.127C160.477 180.87 152.655 174.221 144.154 175.275C135.653 176.329 129.692 184.688 130.841 193.945C131.989 203.202 139.811 209.852 148.312 208.798Z" fill="#F0503C" stroke="#512921" stroke-width="2.75" stroke-miterlimit="10"/>
<path d="M130.54 207.277C137.057 206.309 141.491 199.807 140.443 192.754C139.396 185.702 133.263 180.769 126.746 181.738C120.229 182.706 115.795 189.208 116.842 196.26C117.89 203.313 124.023 208.245 130.54 207.277Z" fill="#F0503C" stroke="#512921" stroke-width="2.75" stroke-miterlimit="10"/>
<path d="M113.996 129.54C113.996 129.54 119.336 139.57 120.696 154.18C122.056 168.79 124.936 176.62 130.426 173.89C138.346 169.95 135.366 147.8 127.546 123.3L113.996 129.53V129.54Z" fill="#FF5640" stroke="#512921" stroke-width="2.75" stroke-linecap="round" stroke-linejoin="round"/>
<path d="M132.947 143.48C125.547 145.92 122.617 153.78 121.547 161.14C123.137 171.18 125.887 176.15 130.417 173.89C136.067 171.08 136.167 159.03 132.937 143.48H132.947Z" fill="#FF929F" stroke="#512921" stroke-width="2.75" stroke-linecap="round" stroke-linejoin="round"/>
<path d="M124.778 120.12C120.218 119.07 118.188 118.5 114.828 116.32C110.448 113.46 102.358 116.53 102.038 123.97C101.588 134.25 115.368 136.3 121.298 133.67C126.518 131.36 127.718 129.21 128.208 126.39C128.648 123.9 127.208 120.67 124.778 120.11V120.12Z" fill="#FF9210" stroke="#512921" stroke-width="2.75" stroke-linecap="round" stroke-linejoin="round"/>
<path d="M36.9766 143.77C38.8966 145.59 40.2266 148 40.7466 150.59" stroke="#FF7873" stroke-width="3.85" stroke-linecap="round" stroke-linejoin="round"/>
<path d="M47.3281 141.81C48.2581 143.69 48.9382 145.69 49.3582 147.75" stroke="#FF7873" stroke-width="3.85" stroke-linecap="round" stroke-linejoin="round"/>
<path d="M196.568 120C195.118 121.82 194.038 123.93 193.418 126.16" stroke="#FF7873" stroke-width="3.85" stroke-linecap="round" stroke-linejoin="round"/>
<path d="M206.836 119.42C205.056 121.39 203.786 123.82 203.176 126.41" stroke="#FF7873" stroke-width="3.85" stroke-linecap="round" stroke-linejoin="round"/>
<path d="M136.066 114.57C136.066 115.25 143.966 133.98 165.636 129.69C187.306 125.4 186.846 106.44 187.076 97.6404L136.066 114.57Z" fill="white"/>
<path d="M145.316 127.21C145.316 127.21 158.947 133.24 171.267 127.66C183.227 122.24 183.906 115.25 183.906 115.25" stroke="#512921" stroke-width="2.75" stroke-linecap="round" stroke-linejoin="round"/>
<path d="M151.089 115.09C152.689 118.84 154.729 123.72 156.019 126.84C156.839 128.82 158.719 130.14 160.859 130.23C163.749 130.35 167.889 130.2 171.269 128.77C174.319 127.48 176.209 125.85 177.319 124.59C178.229 123.55 178.699 122.2 178.659 120.82L178.249 106.63C178.139 102.87 174.379 100.32 170.849 101.63L154.229 107.77C151.279 108.86 149.839 112.2 151.079 115.1L151.089 115.09Z" fill="#512921"/>
<path d="M167.699 115.3C170.069 117.06 172.719 118.13 174.649 116.4C176.579 114.68 177.069 110.81 174.699 109.05C172.329 107.29 167.999 108.3 166.069 110.02C164.139 111.74 165.329 113.53 167.699 115.29V115.3Z" fill="white"/>
<path d="M165.974 123.946C166.747 123.664 167.152 122.83 166.879 122.083C166.606 121.336 165.758 120.959 164.985 121.241C164.213 121.524 163.807 122.358 164.08 123.105C164.353 123.852 165.201 124.229 165.974 123.946Z" fill="white"/>
<path d="M157.829 114.87L157.539 117.1C157.519 117.28 157.449 117.44 157.349 117.56L156.129 119.07C155.719 119.57 155.979 120.53 156.579 120.76L158.379 121.45C158.529 121.51 158.659 121.61 158.769 121.75L160.129 123.53C160.579 124.12 161.299 123.93 161.399 123.18L161.689 120.95C161.709 120.77 161.779 120.61 161.879 120.49L163.099 118.98C163.509 118.48 163.249 117.52 162.649 117.29L160.849 116.6C160.699 116.54 160.569 116.44 160.459 116.3L159.099 114.52C158.649 113.93 157.929 114.12 157.829 114.87Z" fill="white"/>
<path d="M136.748 113.19C139.348 110.74 166.478 94.4003 172.128 93.0503C176.088 92.1003 182.078 93.2904 185.678 94.8704C187.198 95.5404 190.148 97.1103 185.498 99.5703C176.418 104.38 151.448 112.53 139.288 115.4C135.388 116.32 135.308 114.55 136.748 113.2V113.19Z" fill="#512921"/>
<path d="M169.25 96.2904C169.25 96.2904 171.28 92.2304 170.83 87.9404L169.25 96.2904Z" fill="#FFE465"/>
<path d="M168.249 95.7904C168.309 95.1504 168.409 94.4404 168.489 93.7904C168.569 93.1204 168.649 92.4704 168.699 91.8304C168.759 91.1904 168.789 90.5604 168.819 89.9504C168.859 89.3304 168.849 88.7404 168.899 88.1304L168.919 87.9404C169.019 86.8804 169.959 86.1004 171.019 86.1904C171.879 86.2704 172.559 86.9104 172.729 87.7204C173.079 89.3704 172.889 91.0504 172.429 92.5704C172.199 93.3304 171.909 94.0704 171.549 94.7704C171.189 95.4804 170.769 96.1104 170.219 96.7704C169.819 97.2504 169.099 97.3104 168.619 96.9104C168.319 96.6604 168.189 96.2904 168.219 95.9304L168.239 95.7704L168.249 95.7904Z" fill="#512921"/>
<path d="M179.398 95.1602C179.398 95.1602 182.329 92.0002 183.239 87.9402L179.398 95.1602Z" fill="#FFE465"/>
<path d="M178.589 94.4102C178.819 93.8302 179.089 93.2003 179.349 92.6203L180.079 90.8703C180.319 90.3003 180.529 89.7302 180.739 89.1702C180.959 88.6102 181.129 88.0602 181.369 87.5202L181.439 87.3503C181.869 86.3703 183.019 85.9403 183.989 86.3703C184.779 86.7203 185.209 87.5403 185.119 88.3503C184.939 89.9503 184.279 91.4203 183.429 92.6803C182.999 93.3103 182.529 93.9103 181.999 94.4403C181.469 94.9903 180.909 95.4502 180.219 95.9002C179.689 96.2402 178.989 96.0903 178.649 95.5703C178.439 95.2503 178.409 94.8702 178.539 94.5402L178.599 94.3902L178.589 94.4102Z" fill="#512921"/>
<path d="M96.1177 122.92L50.7578 124.78C50.7578 124.78 54.6476 139.68 64.2976 144.25C73.9476 148.82 91.3776 141.2 94.0876 136.46C96.7976 131.72 96.1177 122.92 96.1177 122.92Z" fill="white"/>
<path d="M60.5781 142.64C60.5781 142.64 68.3682 148.73 79.8782 146.19C91.3882 143.65 95.1082 136.03 95.1082 136.03" stroke="#512921" stroke-width="2.75" stroke-linecap="round" stroke-linejoin="round"/>
<path d="M69.7887 123.26C65.6887 123.52 63.1188 127.89 64.8388 131.68C67.2588 137.02 70.4289 143.39 72.4289 145.02C76.0289 147.95 88.4589 143.74 89.8989 140.26C90.7289 138.25 90.5988 132.47 90.3488 127.94C90.1588 124.64 87.3788 122.13 84.1388 122.34L69.7887 123.26Z" fill="#512921"/>
<path d="M79.3479 133.41C81.4979 135.17 83.9379 136.3 85.8379 134.76C87.7379 133.23 88.368 129.61 86.218 127.85C84.068 126.09 79.9478 126.84 78.0578 128.38C76.1578 129.91 77.2079 131.65 79.3579 133.41H79.3479Z" fill="white"/>
<path d="M78.4057 141.577C79.1439 141.347 79.5624 140.583 79.3405 139.871C79.1187 139.16 78.3405 138.769 77.6024 138.999C76.8642 139.229 76.4455 139.993 76.6673 140.705C76.8891 141.416 77.6675 141.807 78.4057 141.577Z" fill="white"/>
<path d="M71.1775 132.56L70.7973 134.65C70.7673 134.82 70.6974 134.97 70.5974 135.08L69.3774 136.45C68.9774 136.9 69.1675 137.82 69.7175 138.06L71.3874 138.79C71.5174 138.85 71.6475 138.95 71.7375 139.09L72.9375 140.83C73.3375 141.41 74.0274 141.26 74.1474 140.56L74.5273 138.47C74.5573 138.3 74.6275 138.15 74.7275 138.04L75.9475 136.67C76.3475 136.22 76.1574 135.3 75.6074 135.06L73.9375 134.33C73.8075 134.27 73.6774 134.17 73.5874 134.03L72.3874 132.29C71.9874 131.71 71.2975 131.86 71.1775 132.56Z" fill="white"/>
<path d="M96.9674 123.01C96.6274 125.38 86.9775 126.06 67.5175 127.07C48.5275 128.06 46.1374 126.61 52.4574 122.33C58.1774 118.45 58.8874 117.93 64.9874 118.44C71.0774 118.95 97.3874 120.15 96.9774 123.01H96.9674Z" fill="#512921"/>
<path d="M65.6687 120.74C65.6687 120.74 63.3486 117.2 63.3086 113.18L65.6687 120.74Z" fill="#FFE465"/>
<path d="M64.739 121.35C64.139 120.8 63.679 120.27 63.259 119.65C62.839 119.04 62.489 118.39 62.189 117.7C61.599 116.33 61.2289 114.78 61.3889 113.2C61.4889 112.14 62.439 111.36 63.499 111.47C64.349 111.55 65.019 112.17 65.199 112.96L65.239 113.16C65.359 113.71 65.4191 114.25 65.5191 114.81C65.6091 115.37 65.6989 115.94 65.8189 116.52C65.9289 117.1 66.059 117.7 66.199 118.3C66.339 118.89 66.4889 119.55 66.5989 120.13L66.6289 120.29C66.7489 120.91 66.339 121.5 65.719 121.62C65.359 121.69 64.989 121.57 64.739 121.34V121.35Z" fill="#512921"/>
<path d="M57.8064 122.29C57.8064 122.29 54.7466 119.68 53.4766 116.02L57.8064 122.29Z" fill="#FFE465"/>
<path d="M57.0856 123.13C56.3856 122.79 55.8057 122.43 55.2457 121.98C54.6857 121.54 54.1857 121.04 53.7057 120.5C52.7657 119.42 51.9956 118.12 51.6556 116.64C51.4256 115.6 52.0756 114.56 53.1156 114.33C53.9456 114.14 54.7656 114.52 55.1856 115.2L55.2855 115.37C55.5655 115.83 55.7855 116.32 56.0355 116.8C56.2855 117.29 56.5355 117.79 56.8055 118.29L57.6456 119.83C57.9356 120.34 58.2457 120.91 58.5057 121.42L58.5755 121.57C58.8555 122.13 58.6255 122.82 58.0555 123.1C57.7355 123.26 57.3555 123.25 57.0555 123.1L57.0856 123.13Z" fill="#512921"/>
<path d="M136.796 97.2403C134.236 96.5203 129.116 94.8802 127.196 92.8902C126.956 92.6402 126.836 92.3003 126.886 91.9603C127.266 89.2603 129.986 75.9503 147.006 70.5903C148.036 70.2703 148.876 71.4703 148.206 72.3203C144.586 76.8803 137.896 86.6302 138.186 96.1502C138.206 96.8902 137.506 97.4303 136.796 97.2303V97.2403Z" fill="#512921"/>
<path d="M96.4648 102.22C96.1348 104.74 95.2947 109.88 93.8047 111.99C93.5747 112.32 93.1847 112.48 92.7947 112.44C90.0747 112.17 78.6849 110.08 72.2349 94.2103C71.8149 93.1803 73.0148 92.2403 73.9148 92.9003C78.4348 96.2403 87.3047 101.81 95.2847 100.99C95.9847 100.92 96.5749 101.52 96.4849 102.22H96.4648Z" fill="#512921"/>
<path d="M215.727 187.15C216.747 186.81 240.436 164.47 254.656 134C268.876 103.53 290.206 100.48 305.606 114.2C324.686 131.18 324.056 186.48 238.406 211.53" fill="#FFE465"/>
<path d="M215.727 187.15C216.747 186.81 240.436 164.47 254.656 134C268.876 103.53 290.206 100.48 305.606 114.2C324.686 131.18 324.056 186.48 238.406 211.53" stroke="#512921" stroke-width="2.75" stroke-linecap="round" stroke-linejoin="round"/>
<path d="M280.736 108.14C280.736 108.14 281.356 88.0001 268.816 87.8701C251.796 87.6901 254.306 107.8 256.636 118.97C256.686 119.03 245.106 129.42 250.856 142.85" fill="#FFE465"/>
<path d="M280.736 108.14C280.736 108.14 281.356 88.0001 268.816 87.8701C251.796 87.6901 254.306 107.8 256.636 118.97C256.686 119.03 245.106 129.42 250.856 142.85" stroke="#512921" stroke-width="2.75" stroke-linecap="round" stroke-linejoin="round"/>
<path d="M284.786 111.15C279.866 113.29 273.976 124.05 276.166 139.05C278.456 154.78 293.246 166.17 305.266 158.21" fill="#FFE465"/>
<path d="M284.786 111.15C279.866 113.29 273.976 124.05 276.166 139.05C278.456 154.78 293.246 166.17 305.266 158.21" stroke="#512921" stroke-width="2.75" stroke-linecap="round" stroke-linejoin="round"/>
</svg>
