<svg width="291" height="367" viewBox="0 0 291 367" fill="none" xmlns="http://www.w3.org/2000/svg">
<path fill-rule="evenodd" clip-rule="evenodd" d="M42.2613 140.905C42.2613 140.905 282.471 167.965 283.591 173.055C289.241 198.615 283.141 271.435 280.111 314.035C276.631 362.835 216.521 329.905 160.711 326.725C86.1315 322.485 52.3813 304.005 35.3013 272.985C19.0013 243.375 28.7513 176.945 34.9913 152.075C36.2113 147.215 38.8213 141.505 42.2613 140.915V140.905Z" fill="#F0503C" stroke="#512921" stroke-width="2.8" stroke-linecap="round" stroke-linejoin="round"/>
<path d="M13.9219 228.825C15.2819 270.065 85.2117 246.355 61.4717 206.605C55.5317 196.665 59.8018 193.065 59.8018 193.065" fill="#FFE465"/>
<path d="M13.9219 228.825C15.2819 270.065 85.2117 246.355 61.4717 206.605C55.5317 196.665 59.8018 193.065 59.8018 193.065" stroke="#512921" stroke-width="2.8" stroke-linecap="round" stroke-linejoin="round"/>
<path d="M34.2714 155.155C-4.65865 174.845 -6.38878 210.675 15.3812 230.215C17.7412 232.335 20.4115 234.175 23.3715 235.645" fill="#FFE465"/>
<path d="M34.2714 155.155C-4.65865 174.845 -6.38878 210.675 15.3812 230.215C17.7412 232.335 20.4115 234.175 23.3715 235.645" stroke="#512921" stroke-width="2.8" stroke-linecap="round" stroke-linejoin="round"/>
<path d="M35.2529 232.795C16.1829 234.145 4.69267 208.135 9.97267 190.825C15.2527 173.515 30.5831 160.405 40.3931 167.095C50.2131 173.795 54.813 190.265 54.813 190.265" fill="#FFE465"/>
<path d="M110.41 289.015C109.11 291.885 107.57 296.255 107.32 298.385C108.49 300.125 111.56 302.315 125.14 303.795C130.08 304.335 133.64 308.775 133.1 313.715C132.65 317.835 129.5 320.995 125.6 321.625C124.82 321.755 124.01 321.775 123.19 321.685C101.63 319.335 93.8303 314.335 89.6003 305.895C87.5603 301.815 87.8004 296.375 90.1404 289.115C90.7404 287.255 91.42 285.465 92.05 283.945" fill="#FF9210"/>
<path d="M110.41 289.015C109.11 291.885 107.57 296.255 107.32 298.385C108.49 300.125 111.56 302.315 125.14 303.795C130.08 304.335 133.64 308.775 133.1 313.715C132.65 317.835 129.5 320.995 125.6 321.625C124.82 321.755 124.01 321.775 123.19 321.685C101.63 319.335 93.8303 314.335 89.6003 305.895C87.5603 301.815 87.8004 296.375 90.1404 289.115C90.7404 287.255 91.42 285.465 92.05 283.945" stroke="#512921" stroke-width="2.8" stroke-linecap="round" stroke-linejoin="round"/>
<path d="M125.148 303.785C125.148 303.785 129.188 300.285 134.368 303.525C138.748 306.265 139.398 310.275 139.318 313.575C142.618 318.895 147.118 322.545 147.708 325.475C148.698 330.405 140.938 336.205 134.978 335.655C122.178 334.475 119.168 321.045 119.168 321.045" fill="#FF9210"/>
<path d="M125.148 303.785C125.148 303.785 129.188 300.285 134.368 303.525C138.748 306.265 139.398 310.275 139.318 313.575C142.618 318.895 147.118 322.545 147.708 325.475C148.698 330.405 140.938 336.205 134.978 335.655C122.178 334.475 119.168 321.045 119.168 321.045" stroke="#512921" stroke-width="2.8" stroke-linecap="round" stroke-linejoin="round"/>
<path fill-rule="evenodd" clip-rule="evenodd" d="M152.893 287.675L127.423 343.215C127.423 343.215 120.493 342.395 117.603 347.105C115.043 351.275 115.003 357.455 116.053 360.385C116.653 362.055 118.233 362.845 119.863 363.565C122.843 364.885 141.033 364.975 144.273 363.715C146.273 362.945 147.623 361.565 147.733 359.355C148.393 345.995 171.002 296.875 171.432 292.565C170.212 292.335 152.903 287.665 152.903 287.665L152.893 287.675Z" fill="#FF9210" stroke="#512921" stroke-width="2.8" stroke-linecap="round" stroke-linejoin="round"/>
<path fill-rule="evenodd" clip-rule="evenodd" d="M137.314 345.115C132.374 343.215 127.434 343.215 127.434 343.215L137.314 345.115Z" fill="#FF9210"/>
<path d="M137.314 345.115C132.374 343.215 127.434 343.215 127.434 343.215" stroke="#512921" stroke-width="2.8" stroke-linecap="round" stroke-linejoin="round"/>
<path fill-rule="evenodd" clip-rule="evenodd" d="M200.141 17.2453C200.141 17.2453 220.98 -2.91467 241.2 2.24533C245.7 3.39533 248.56 5.43526 250.57 8.17526C256.52 16.2753 250.84 25.5352 250.84 25.5352C253.12 25.6453 264.301 29.2553 261.831 40.8353C260.791 45.7053 255.24 51.6553 246.82 50.0053C231.94 47.0753 208.411 30.7853 200.141 17.2453Z" fill="#FFE465" stroke="#512921" stroke-width="2.8" stroke-linecap="round" stroke-linejoin="round"/>
<path fill-rule="evenodd" clip-rule="evenodd" d="M275.9 256.055C275.56 251.595 272.45 249.015 269.13 249.285C267.15 249.455 268.04 246.855 268.15 246.115C268.81 243.135 273.75 221.105 278.58 194.295C278.58 194.295 278.64 193.985 278.67 193.445C282.58 162.325 232.27 128.425 165.61 117.385C98.2001 106.225 39.3502 122.635 34.1702 154.035C34.0802 154.555 34.0103 155.085 33.9603 155.605C17.9603 224.275 41.6604 253.475 53.1004 265.055C71.9004 284.085 98.9702 294.155 120.19 300.245C152.44 309.495 195.7 310.035 217.17 306.895C272.59 298.775 276.54 264.115 275.92 256.045L275.9 256.055Z" fill="#FFE465" stroke="#512921" stroke-width="2.8" stroke-linecap="round" stroke-linejoin="round"/>
<path fill-rule="evenodd" clip-rule="evenodd" d="M35.1133 154.255C35.4433 152.275 36.7433 147.445 36.8833 146.935C39.8833 135.805 70.7632 5.44529 181.283 13.5653C275.843 20.5153 289.303 96.8853 289.293 112.715C289.263 134.735 284.533 166.715 279.653 193.905L279.483 194.715" fill="#FFE465"/>
<path d="M35.1133 154.255C35.4433 152.275 36.7433 147.445 36.8833 146.935C39.8833 135.805 70.7632 5.44529 181.283 13.5653C275.843 20.5153 289.303 96.8853 289.293 112.715C289.263 134.735 284.533 166.715 279.653 193.905L279.483 194.715" stroke="#512921" stroke-width="2.8" stroke-linecap="round" stroke-linejoin="round"/>
<path d="M186.121 184.485C183.321 184.795 151.491 179.455 148.691 204.415C145.891 229.375 158.391 237.525 205.131 222.235" fill="#FFE465"/>
<path d="M186.121 184.485C183.321 184.795 151.491 179.455 148.691 204.415C145.891 229.375 158.391 237.525 205.131 222.235" stroke="#512921" stroke-width="2.8" stroke-linecap="round" stroke-linejoin="round"/>
<path fill-rule="evenodd" clip-rule="evenodd" d="M279.32 320.845C282.47 303.785 288.77 170.605 283.59 173.045C268.32 180.235 198.061 176.475 138.101 165.535C72.3906 153.555 42.8506 133.845 40.1206 132.105C37.0706 134.125 31.7306 140.825 25.6406 158.375C37.3006 182.175 100.85 175.725 126.34 177.665C237.24 186.115 262.77 270.025 273.22 304.935" fill="#F0503C"/>
<path d="M279.32 320.845C282.47 303.785 288.77 170.605 283.59 173.045C268.32 180.235 198.061 176.475 138.101 165.535C72.3906 153.555 42.8506 133.845 40.1206 132.105C37.0706 134.125 31.7306 140.825 25.6406 158.375C37.3006 182.175 100.85 175.725 126.34 177.665C237.24 186.115 262.77 270.025 273.22 304.935" stroke="#512921" stroke-width="2.8" stroke-linecap="round" stroke-linejoin="round"/>
<path d="M221.363 47.3053C221.363 47.3053 221.503 42.5854 215.553 41.0154C209.603 39.4454 197.363 46.5054 197.363 46.5054" stroke="#512921" stroke-width="3.8" stroke-linecap="round" stroke-linejoin="round"/>
<path d="M120.551 20.8253C120.551 20.8253 129.611 13.9253 131.231 19.8653C132.851 25.8053 134.691 31.9052 134.691 31.9052" stroke="#512921" stroke-width="3.8" stroke-linecap="round" stroke-linejoin="round"/>
<path d="M121.295 172.386C123.941 163.091 119.872 153.786 112.207 151.604C104.542 149.422 96.1836 155.189 93.5374 164.485C90.8913 173.78 94.9597 183.085 102.625 185.267C110.29 187.449 118.648 181.682 121.295 172.386Z" fill="#F0503C" stroke="#512921" stroke-width="2.8" stroke-miterlimit="10"/>
<path d="M156.49 180.747C159.115 171.446 154.323 161.952 145.787 159.543C137.251 157.134 128.202 162.722 125.577 172.023C122.952 181.325 127.744 190.818 136.281 193.228C144.817 195.637 153.865 190.049 156.49 180.747Z" fill="#F0503C" stroke="#512921" stroke-width="2.8" stroke-miterlimit="10"/>
<path d="M134.784 174.545C136.619 167.387 132.751 160.211 126.144 158.517C119.537 156.823 112.693 161.253 110.858 168.411C109.023 175.569 112.891 182.745 119.498 184.438C126.105 186.132 132.949 181.703 134.784 174.545Z" fill="#F0503C" stroke="#512921" stroke-width="2.8" stroke-miterlimit="10"/>
<path d="M127.331 73.1167C131.273 62.3621 125.952 50.5222 115.446 46.6714C104.94 42.8206 93.2283 48.417 89.2862 59.1717C85.3442 69.9264 90.6651 81.7667 101.171 85.6175C111.677 89.4683 123.389 83.8714 127.331 73.1167Z" fill="white"/>
<mask id="mask0_16769_44953" style="mask-type:luminance" maskUnits="userSpaceOnUse" x="87" y="45" width="42" height="42">
<path d="M127.331 73.1165C131.273 62.3618 125.952 50.522 115.446 46.6711C104.94 42.8203 93.2283 48.4168 89.2862 59.1715C85.3442 69.9262 90.6651 81.7665 101.171 85.6173C111.677 89.4681 123.389 83.8712 127.331 73.1165Z" fill="white"/>
</mask>
<g mask="url(#mask0_16769_44953)">
<path d="M122.004 68.1052C125.268 68.1052 127.914 65.4592 127.914 62.1952C127.914 58.9312 125.268 56.2852 122.004 56.2852C118.74 56.2852 116.094 58.9312 116.094 62.1952C116.094 65.4592 118.74 68.1052 122.004 68.1052Z" fill="#512921"/>
</g>
<path d="M127.331 73.1167C131.273 62.3621 125.952 50.5222 115.446 46.6714C104.94 42.8206 93.2283 48.417 89.2862 59.1717C85.3442 69.9264 90.6651 81.7667 101.171 85.6175C111.677 89.4683 123.389 83.8714 127.331 73.1167Z" stroke="#512921" stroke-width="2.8" stroke-miterlimit="10"/>
<path d="M196.502 110.344C208.616 109.663 217.895 99.4726 217.226 87.5842C216.557 75.6957 206.194 66.6108 194.08 67.2923C181.965 67.9739 172.687 78.1638 173.356 90.0523C174.024 101.941 184.387 111.026 196.502 110.344Z" fill="white"/>
<mask id="mask1_16769_44953" style="mask-type:luminance" maskUnits="userSpaceOnUse" x="173" y="67" width="45" height="44">
<path d="M196.502 110.344C208.616 109.662 217.895 99.4724 217.226 87.5839C216.557 75.6955 206.194 66.6105 194.08 67.2921C181.965 67.9736 172.687 78.1636 173.356 90.052C174.024 101.94 184.387 111.026 196.502 110.344Z" fill="white"/>
</mask>
<g mask="url(#mask1_16769_44953)">
<path d="M210.261 89.9552C213.525 89.9552 216.171 87.3092 216.171 84.0452C216.171 80.7812 213.525 78.1353 210.261 78.1353C206.997 78.1353 204.352 80.7812 204.352 84.0452C204.352 87.3092 206.997 89.9552 210.261 89.9552Z" fill="#512921"/>
</g>
<path d="M196.502 110.344C208.616 109.663 217.895 99.4726 217.226 87.5842C216.557 75.6957 206.194 66.6108 194.08 67.2923C181.965 67.9739 172.687 78.1638 173.356 90.0523C174.024 101.941 184.387 111.026 196.502 110.344Z" stroke="#512921" stroke-width="2.8" stroke-miterlimit="10"/>
<path d="M121.953 82.5054C122.593 84.1954 122.703 85.8554 122.183 87.3754C120.093 93.4454 108.723 95.0353 96.7828 90.9153C84.8428 86.7953 76.8629 78.5353 78.9429 72.4653C79.8529 69.8253 82.5027 68.0353 86.2027 67.1953" fill="#FFE465"/>
<path d="M86.2031 67.1954C91.0131 66.0954 97.5935 66.5954 104.354 68.9254C113.304 72.0154 120.043 77.4355 121.963 82.5155" fill="#FFE465"/>
<path d="M86.2031 67.1954C91.0131 66.0954 97.5935 66.5954 104.354 68.9254C113.304 72.0154 120.043 77.4355 121.963 82.5155" stroke="#512921" stroke-width="2.8" stroke-linecap="round" stroke-linejoin="round"/>
<path d="M210.322 107.455C211.102 109.125 211.332 110.775 210.892 112.325C209.142 118.505 197.451 120.605 184.781 117.015C172.111 113.425 163.252 105.495 165.002 99.3151C165.762 96.6351 168.391 94.7151 172.161 93.7051" fill="#FFE465"/>
<path d="M172.172 93.6952C177.092 92.3752 183.942 92.5852 191.122 94.6252C200.622 97.3252 207.982 102.455 210.332 107.455" fill="#FFE465"/>
<path d="M172.172 93.6952C177.092 92.3752 183.942 92.5852 191.122 94.6252C200.622 97.3252 207.982 102.455 210.332 107.455" stroke="#512921" stroke-width="2.8" stroke-linecap="round" stroke-linejoin="round"/>
<path d="M153.36 82.4954C140.57 121.075 134.88 138.095 131.83 137.045C124.19 134.395 127.45 107.305 139.84 79.6853L153.37 82.5054L153.36 82.4954Z" fill="#FF5640"/>
<mask id="mask2_16769_44953" style="mask-type:luminance" maskUnits="userSpaceOnUse" x="127" y="79" width="27" height="59">
<path d="M153.36 82.4954C140.57 121.075 134.88 138.095 131.83 137.045C124.19 134.395 127.45 107.305 139.84 79.6853L153.37 82.5054L153.36 82.4954Z" fill="white"/>
</mask>
<g mask="url(#mask2_16769_44953)">
<path d="M132.059 150.155C135.199 151.305 138.059 133.205 145.679 108.285C137.079 108.115 130.299 110.865 125.669 117.415C125.439 134.225 126.509 148.125 132.059 150.155Z" fill="#FF929F" stroke="#512921" stroke-width="2.8" stroke-miterlimit="10"/>
</g>
<path d="M153.36 82.4954C140.57 121.075 134.88 138.095 131.83 137.045C124.19 134.395 127.45 107.305 139.84 79.6853L153.37 82.5054L153.36 82.4954Z" stroke="#512921" stroke-width="2.8" stroke-miterlimit="10"/>
<path d="M143.251 63.3653C132.451 59.9553 128.251 73.2853 133.301 79.5153C138.851 86.3653 148.151 87.5152 151.961 87.0552C153.091 83.4552 155.531 78.0353 152.801 77.0753C147.711 74.8253 152.031 66.1453 143.251 63.3653Z" fill="#FF9210" stroke="#512921" stroke-width="2.8" stroke-miterlimit="10"/>
<path d="M173.482 192.625L158.842 148.635C158.842 148.635 162.832 131.975 156.512 131.305C150.192 130.635 143.202 142.305 143.202 142.305C143.202 142.305 112.922 131.305 107.592 134.305C102.272 137.305 103.262 142.305 115.242 147.635C115.242 147.635 101.932 169.295 113.912 189.285C123.262 204.885 135.442 229.815 168.792 229.895" fill="#FFE465"/>
<path d="M173.482 192.625L158.842 148.635C158.842 148.635 162.832 131.975 156.512 131.305C150.192 130.635 143.202 142.305 143.202 142.305C143.202 142.305 112.922 131.305 107.592 134.305C102.272 137.305 103.262 142.305 115.242 147.635C115.242 147.635 101.932 169.295 113.912 189.285C123.262 204.885 135.442 229.815 168.792 229.895" stroke="#512921" stroke-width="2.8" stroke-linecap="round" stroke-linejoin="round"/>
</svg>
