<svg width="365" height="348" viewBox="0 0 365 348" fill="none" xmlns="http://www.w3.org/2000/svg">
<path fill-rule="evenodd" clip-rule="evenodd" d="M260.167 129.97C208.277 142.84 98.3067 174.82 35.7567 153.13C32.2167 151.9 29.127 156.17 26.097 160.04C24.537 162.03 19.5268 164.48 19.8768 167.85C27.1868 239.06 46.7069 282 92.9969 305.25C125.327 321.49 169.477 331.35 234.127 304.02C313.947 270.27 294.767 181.96 297.097 146.48C297.387 142.12 294.147 138.56 291.847 138.84C278.167 140.5 263.717 129.09 260.167 129.98V129.97Z" fill="#F0503C" stroke="#512921" stroke-width="2.5" stroke-linecap="round" stroke-linejoin="round"/>
<path fill-rule="evenodd" clip-rule="evenodd" d="M152.718 328.99C150.648 328.34 147.418 327.45 147.418 327.45L152.718 328.99Z" fill="#FF9210"/>
<path d="M152.718 328.99C150.648 328.34 147.418 327.45 147.418 327.45" stroke="#512921" stroke-width="2.5" stroke-linecap="round" stroke-linejoin="round"/>
<path fill-rule="evenodd" clip-rule="evenodd" d="M126.637 291.09L148.176 331.09C148.176 331.09 155.557 336.94 162.637 328.63L151.557 287.4L126.637 291.09Z" fill="#FF9210" stroke="#512921" stroke-width="2.5" stroke-linecap="round" stroke-linejoin="round"/>
<path fill-rule="evenodd" clip-rule="evenodd" d="M147.927 328.99C147.927 328.99 144.137 336.76 146.897 342.22C149.667 347.68 158.068 346.06 160.748 343.96C163.428 341.86 162.538 327.86 162.538 327.86" fill="#FF9210"/>
<path d="M147.927 328.99C147.927 328.99 144.137 336.76 146.897 342.22C149.667 347.68 158.068 346.06 160.748 343.96C163.428 341.86 162.538 327.86 162.538 327.86" stroke="#512921" stroke-width="2.5" stroke-linecap="round" stroke-linejoin="round"/>
<path fill-rule="evenodd" clip-rule="evenodd" d="M218.336 291.09L196.796 331.09C196.796 331.09 189.416 336.94 182.336 328.63L193.416 287.4L218.336 291.09Z" fill="#FF9210" stroke="#512921" stroke-width="2.5" stroke-linecap="round" stroke-linejoin="round"/>
<path fill-rule="evenodd" clip-rule="evenodd" d="M197.667 328.99C197.667 328.99 201.457 336.76 198.697 342.22C195.927 347.68 187.527 346.06 184.847 343.96C182.167 341.86 182.387 328.06 182.387 328.06" fill="#FF9210"/>
<path d="M197.667 328.99C197.667 328.99 201.457 336.76 198.697 342.22C195.927 347.68 187.527 346.06 184.847 343.96C182.167 341.86 182.387 328.06 182.387 328.06" stroke="#512921" stroke-width="2.5" stroke-linecap="round" stroke-linejoin="round"/>
<path d="M90.4868 284.53C90.8679 284.53 91.1768 284.221 91.1768 283.84C91.1768 283.459 90.8679 283.15 90.4868 283.15C90.1057 283.15 89.7969 283.459 89.7969 283.84C89.7969 284.221 90.1057 284.53 90.4868 284.53Z" fill="#FF0000"/>
<path fill-rule="evenodd" clip-rule="evenodd" d="M158.806 32.21C158.806 32.21 146.106 -3.10002 119.106 1.69998C100.306 5.03998 104.656 21.97 104.056 22.34C104.056 22.34 94.336 21.67 91.566 29.69C89.066 36.93 95.2561 43.99 103.186 44.06C121.686 44.21 155.786 34.64 158.816 32.21H158.806Z" fill="#FFE465" stroke="#512921" stroke-width="2.5" stroke-linecap="round" stroke-linejoin="round"/>
<path d="M41.3461 155.24C41.3461 155.24 -8.75392 180.84 3.05608 215.18C7.98608 229.52 22.1961 235.25 29.0561 237.93C24.9261 242.41 25.4558 252.75 36.2558 255.8C52.6758 260.45 60.1659 252.38 60.1659 252.38" fill="#FFE465"/>
<path d="M41.3461 155.24C41.3461 155.24 -8.75392 180.84 3.05608 215.18C7.98608 229.52 22.1961 235.25 29.0561 237.93C24.9261 242.41 25.4558 252.75 36.2558 255.8C52.6758 260.45 60.1659 252.38 60.1659 252.38" stroke="#512921" stroke-width="2.5" stroke-linecap="round" stroke-linejoin="round"/>
<path d="M347.796 181C347.596 230.81 293.626 254.32 268.326 216.23C244.726 180.7 348.016 126.36 347.796 181Z" fill="#FFE465" stroke="#512921" stroke-width="2.33" stroke-linecap="round" stroke-linejoin="round"/>
<path fill-rule="evenodd" clip-rule="evenodd" d="M294.197 183.77C287.737 269.11 231.217 321.34 132.857 305.01C50.6372 291.36 29.8174 218.64 33.5174 161.16C36.2374 118.92 75.9972 79.4699 89.8572 68.6099C194.347 -13.2601 296.657 157.1 294.197 183.77Z" fill="#FFE465" stroke="#512921" stroke-width="2.5" stroke-linecap="round" stroke-linejoin="round"/>
<path fill-rule="evenodd" clip-rule="evenodd" d="M294.745 173.11C295.835 100.27 241.285 3.00002 132.525 22.34C60.1546 35.21 32.3246 100.08 33.5046 161.16" fill="#FFE465"/>
<path d="M294.745 173.11C295.835 100.27 241.285 3.00002 132.525 22.34C60.1546 35.21 32.3246 100.08 33.5046 161.16" stroke="#512921" stroke-width="2.5" stroke-linecap="round" stroke-linejoin="round"/>
<path fill-rule="evenodd" clip-rule="evenodd" d="M31.9658 158.27C33.4658 193.53 68.3362 250.37 176.556 235.69C229.146 228.56 290.006 211 294.356 146.71C294.596 143.2 292.766 165.23 293.276 171.95C294.406 187 278.996 279.84 173.406 242.36C147.286 252.65 137.666 261 118.636 261.45C68.7062 262.62 29.0662 228.92 20.9062 167.22" fill="#F0503C"/>
<path d="M31.9658 158.27C33.4658 193.53 68.3362 250.37 176.556 235.69C229.146 228.56 290.006 211 294.356 146.71C294.596 143.2 292.766 165.23 293.276 171.95C294.406 187 278.996 279.84 173.406 242.36C147.286 252.65 137.666 261 118.636 261.45C68.7062 262.62 29.0662 228.92 20.9062 167.22" stroke="#512921" stroke-width="2.5" stroke-linecap="round" stroke-linejoin="round"/>
<path d="M196.386 224.11C206.656 222.62 214.526 231.43 214.076 242.53C213.676 252.46 206.626 260.87 198.236 262.21C189.796 263.57 181.886 257.47 180.506 247.68C178.956 236.72 186.026 225.6 196.386 224.1V224.11Z" fill="#F0503C" stroke="#512921" stroke-width="2.54" stroke-miterlimit="10"/>
<path d="M145.016 230.2C155.796 228.64 166.466 237.08 168.676 247.83C170.656 257.43 165.076 265.62 156.336 267.02C147.536 268.43 137.496 262.65 133.596 253.21C129.226 242.63 134.146 231.78 145.016 230.2Z" fill="#F0503C" stroke="#512921" stroke-width="2.5" stroke-miterlimit="10"/>
<path d="M160.026 249.36C161.736 256.77 169.036 261.53 176.416 260.52C183.736 259.52 189.235 253.1 188.715 245.65C188.155 237.53 180.786 231.24 172.226 232.27C163.586 233.32 158.166 241.28 160.026 249.36Z" fill="#F0503C" stroke="#512921" stroke-width="2.5" stroke-miterlimit="10"/>
<path d="M203.016 91.3501C200.496 96.8501 194.215 106.2 187.355 107.36" stroke="#512921" stroke-width="4.4" stroke-linecap="round" stroke-linejoin="round"/>
<path d="M165.007 195.46C156.187 196.69 149.467 178.22 150.597 153.79C153.927 153.32 163.137 152.04 167.637 151.41C176.827 174.18 173.287 194.3 165.007 195.46Z" fill="#FF5640"/>
<mask id="mask0_16769_45228" style="mask-type:luminance" maskUnits="userSpaceOnUse" x="150" y="151" width="24" height="45">
<path d="M165.007 195.46C156.187 196.69 149.467 178.22 150.597 153.79C153.927 153.32 163.137 152.04 167.637 151.41C176.827 174.18 173.287 194.3 165.007 195.46Z" fill="white"/>
</mask>
<g mask="url(#mask0_16769_45228)">
<path d="M178.505 193.34C176.295 177.55 159.216 171.75 147.766 175.42C149.766 189.73 151.396 201.37 151.886 204.91C164.426 203.16 176.575 201.81 178.505 193.35V193.34Z" fill="#FF929F" stroke="#512921" stroke-width="2.62" stroke-miterlimit="10"/>
</g>
<path d="M165.007 195.46C156.187 196.69 149.467 178.22 150.597 153.79C153.927 153.32 163.137 152.04 167.637 151.41C176.827 174.18 173.287 194.3 165.007 195.46Z" stroke="#512921" stroke-width="2.62" stroke-miterlimit="10"/>
<path d="M154.146 140.13C153.806 140.19 153.496 140.36 153.326 140.65C152.746 141.65 151.425 144.38 150.965 149.11C150.515 153.74 150.645 156.14 150.775 157.2C150.825 157.64 151.116 158.02 151.536 158.14C155.656 159.31 171.986 159.31 177.646 151.21C184.556 141.31 175.916 132.12 169.186 133.06C161.066 134.2 162.736 138.68 154.156 140.13H154.146Z" fill="#FF9210" stroke="#512921" stroke-width="2.62" stroke-miterlimit="10"/>
<path d="M291.506 217.97C291.506 217.97 289.797 197.76 288.137 176.11C288.137 176.11 346.707 158.04 346.117 182.01" fill="#FFE465"/>
<path d="M291.506 217.97C291.506 217.97 289.797 197.76 288.137 176.11C288.137 176.11 346.707 158.04 346.117 182.01" stroke="#512921" stroke-width="2.42" stroke-linecap="round" stroke-linejoin="round"/>
<path d="M317.165 194.26C334.937 194.26 349.345 179.852 349.345 162.08C349.345 144.307 334.937 129.9 317.165 129.9C299.392 129.9 284.984 144.307 284.984 162.08C284.984 179.852 299.392 194.26 317.165 194.26Z" fill="#FFE465"/>
<path d="M289.185 138.27C279.205 91.8999 310.166 81.5599 322.076 91.8099C331.586 99.9999 326.065 117.16 321.675 126.76C333.735 116.2 352.195 124.9 349.585 140.52C347.485 153.09 337.065 162.97 325.175 161.7C312.555 160.35 311.055 140.77 318.435 132.04" fill="#FFE465"/>
<path d="M289.185 138.27C279.205 91.8999 310.166 81.5599 322.076 91.8099C331.586 99.9999 326.065 117.16 321.675 126.76C333.735 116.2 352.195 124.9 349.585 140.52C347.485 153.09 337.065 162.97 325.175 161.7C312.555 160.35 311.055 140.77 318.435 132.04" stroke="#512921" stroke-width="2.5" stroke-linecap="round" stroke-linejoin="round"/>
<path d="M286.115 163.41C300.805 174.34 320.185 158.15 305.255 141.08C298.705 133.6 283.865 131.28 275.835 141.72C266.355 154.05 271.795 188.2 295.455 189.99" fill="#FFE465"/>
<path d="M286.115 163.41C300.805 174.34 320.185 158.15 305.255 141.08C298.705 133.6 283.865 131.28 275.835 141.72C266.355 154.05 271.795 188.2 295.455 189.99" stroke="#512921" stroke-width="2.43" stroke-linecap="round" stroke-linejoin="round"/>
<path d="M351.145 168.97C348.705 177.9 329.325 179.59 326.615 165.14C322.415 142.79 361.715 132.87 362.815 162.2C363.375 177.16 350.294 194.21 330.234 192.27" fill="#FFE465"/>
<path d="M351.145 168.97C348.705 177.9 329.325 179.59 326.615 165.14C322.415 142.79 361.715 132.87 362.815 162.2C363.375 177.16 350.294 194.21 330.234 192.27" stroke="#512921" stroke-width="2.5" stroke-linecap="round" stroke-linejoin="round"/>
<path d="M29.0469 237.94C34.2269 239.78 34.5469 240.22 34.5469 240.22L29.0469 237.94Z" fill="#FFE465"/>
<path d="M29.0469 237.94C34.2269 239.78 34.5469 240.22 34.5469 240.22" stroke="#512921" stroke-width="2.5" stroke-linecap="round" stroke-linejoin="round"/>
<path d="M214.611 166.656C230.085 166.508 242.514 154.313 242.371 139.419C242.228 124.524 229.567 112.57 214.093 112.719C198.619 112.867 186.19 125.062 186.333 139.957C186.476 154.851 199.136 166.805 214.611 166.656Z" fill="white" stroke="#512921" stroke-width="3.25" stroke-linecap="round" stroke-linejoin="round"/>
<path d="M215.507 134.2C213.877 129.28 208.578 126.61 203.658 128.24C198.738 129.87 196.067 135.17 197.697 140.09C199.327 145.01 204.627 147.68 209.547 146.05C214.467 144.42 217.137 139.12 215.507 134.2Z" fill="#502823"/>
<path d="M242.215 159.79C241.795 154.69 229.875 151.69 215.585 153.09C201.295 154.49 190.045 159.76 190.465 164.86C190.885 169.96 202.805 172.96 217.095 171.56C231.385 170.16 242.635 164.89 242.215 159.79Z" fill="#FFE465"/>
<path d="M194.215 159.43C198.615 156.44 206.485 153.98 215.595 153.09C225.285 152.14 233.895 153.22 238.555 155.6" fill="#FFE465"/>
<path d="M194.215 159.43C198.615 156.44 206.485 153.98 215.595 153.09C225.285 152.14 233.895 153.22 238.555 155.6" stroke="#512921" stroke-width="2.93" stroke-linecap="round" stroke-linejoin="round"/>
<path d="M101.145 101.54C105.055 106.15 113.614 113.48 120.544 112.75" stroke="#512921" stroke-width="4.4" stroke-linecap="round" stroke-linejoin="round"/>
<path d="M110.132 176.603C125.074 172.58 134.048 157.659 130.176 143.276C126.303 128.893 111.05 120.495 96.1072 124.519C81.1643 128.542 72.1902 143.463 76.063 157.846C79.9357 172.229 95.1887 180.627 110.132 176.603Z" fill="white" stroke="#512921" stroke-width="3.25" stroke-linecap="round" stroke-linejoin="round"/>
<path d="M110.457 137.24C105.287 137 100.887 141 100.647 146.17C100.407 151.34 104.407 155.74 109.577 155.98C114.747 156.22 119.147 152.22 119.387 147.05C119.627 141.88 115.627 137.48 110.457 137.24Z" fill="#502823"/>
<path d="M133.015 168.96C132.045 163.93 119.795 161.88 105.655 164.38C91.5155 166.88 80.8451 172.98 81.8151 178C82.7851 183.03 95.035 185.08 109.175 182.58C123.315 180.08 133.985 173.98 133.015 168.96Z" fill="#FFE465"/>
<path d="M127.957 164.73C122.907 163.04 114.667 162.78 105.667 164.37C96.0765 166.06 88.0766 169.42 84.2266 172.97" fill="#FFE465"/>
<path d="M127.957 164.73C122.907 163.04 114.667 162.78 105.667 164.37C96.0765 166.06 88.0766 169.42 84.2266 172.97" stroke="#512921" stroke-width="2.93" stroke-linecap="round" stroke-linejoin="round"/>
</svg>
