<svg width="353" height="341" viewBox="0 0 353 341" fill="none" xmlns="http://www.w3.org/2000/svg">
<path fill-rule="evenodd" clip-rule="evenodd" d="M56.9806 143.705L290.63 142.995C299.67 142.995 304.9 151.865 307.37 156.235C336.13 207.165 391.4 319.125 212.81 305.005C140.94 299.325 135.03 304.095 88.3305 264.855C45.9505 229.245 43.6304 183.345 52.5704 146.695C54.6704 142.335 53.7106 144.465 56.9806 143.715V143.705Z" fill="#F0503C" stroke="#512921" stroke-width="2.5" stroke-linecap="round" stroke-linejoin="round"/>
<path d="M130.991 336.215C127.611 336.215 124.341 334.375 122.681 331.155C104.271 295.515 104.061 262.445 104.061 261.055C104.061 255.895 108.241 251.715 113.401 251.715C118.561 251.715 122.741 255.895 122.741 261.055C122.741 262.265 122.931 290.935 139.281 322.585C141.651 327.165 139.851 332.805 135.271 335.175C133.901 335.885 132.431 336.215 130.991 336.215Z" fill="#FF9210" stroke="#512921" stroke-width="2.5" stroke-linecap="round" stroke-linejoin="round"/>
<path fill-rule="evenodd" clip-rule="evenodd" d="M122.341 320.785C122.341 320.785 114.111 317.375 109.621 324.495C107.131 328.445 107.301 332.765 108.311 335.565C108.881 337.155 110.391 337.905 111.951 338.595C114.801 339.855 137.59 339.835 140.52 338.275C142.36 337.295 144.271 331.185 138.661 321.775" fill="#FF9210"/>
<path d="M122.341 320.785C122.341 320.785 114.111 317.375 109.621 324.495C107.131 328.445 107.301 332.765 108.311 335.565C108.881 337.155 110.391 337.905 111.951 338.595C114.801 339.855 137.59 339.835 140.52 338.275C142.36 337.295 144.271 331.185 138.661 321.775" stroke="#512921" stroke-width="2.5" stroke-linecap="round" stroke-linejoin="round"/>
<path d="M269.72 337.605C271.1 337.605 272.49 337.295 273.81 336.645C278.36 334.385 280.22 328.855 277.96 324.305C277.43 323.245 259.62 292.855 239.91 275.545C236.09 272.185 230.11 273.135 226.98 277.145C223.85 281.155 226.92 285.065 230.38 288.805C245.43 305.045 259.86 332.475 259.99 332.735C261.6 335.975 266.33 337.615 269.71 337.615L269.72 337.605Z" fill="#FF9210" stroke="#512921" stroke-width="2.5" stroke-linecap="round" stroke-linejoin="round"/>
<path fill-rule="evenodd" clip-rule="evenodd" d="M278.45 318.625C278.45 318.625 286.68 315.215 291.17 322.335C293.66 326.285 293.65 332.215 292.65 335.005C292.08 336.595 290.57 337.345 289.01 338.035C286.16 339.295 266.72 339.575 263.79 338.015C261.95 337.035 259.13 330.865 257.99 328.665" fill="#FF9210"/>
<path d="M278.45 318.625C278.45 318.625 286.68 315.215 291.17 322.335C293.66 326.285 293.65 332.215 292.65 335.005C292.08 336.595 290.57 337.345 289.01 338.035C286.16 339.295 266.72 339.575 263.79 338.015C261.95 337.035 259.13 330.865 257.99 328.665" stroke="#512921" stroke-width="2.5" stroke-linecap="round" stroke-linejoin="round"/>
<path fill-rule="evenodd" clip-rule="evenodd" d="M272.67 320.445C274.93 319.675 277.74 318.855 277.74 318.855L272.67 320.445Z" fill="#FF9210"/>
<path d="M272.67 320.445C274.93 319.675 277.74 318.855 277.74 318.855" stroke="#512921" stroke-width="2.5" stroke-linecap="round" stroke-linejoin="round"/>
<path fill-rule="evenodd" clip-rule="evenodd" d="M206.41 17.5951C206.41 17.5951 225.88 -2.47498 245.54 1.86502C249.91 2.82502 252.74 4.70507 254.76 7.28507C260.75 14.8951 255.57 24.005 255.57 24.005C257.77 24.035 268.67 27.1651 266.64 38.4051C265.79 43.1351 260.62 49.035 252.45 47.705C238 45.345 214.8 30.385 206.41 17.605V17.5951Z" fill="#FFE465" stroke="#512921" stroke-width="2.5" stroke-linecap="round" stroke-linejoin="round"/>
<path fill-rule="evenodd" clip-rule="evenodd" d="M301.251 224.945C300.221 220.765 296.861 218.795 293.741 219.575C291.881 220.045 292.321 217.435 292.311 216.715C292.471 213.775 293.711 192.055 294.101 165.795C294.101 165.795 294.101 165.495 294.051 164.975C292.881 134.775 239.651 110.455 174.441 110.455C109.231 110.455 55.0508 135.325 55.0508 165.995C55.0508 166.505 55.0708 167.015 55.1008 167.525C53.7608 217.015 80.8608 260.285 93.5808 269.495C114.481 284.625 142.741 289.035 163.911 291.485C196.071 295.205 226.021 290.405 245.961 284.035C297.451 267.595 303.131 232.515 301.271 224.935L301.251 224.945Z" fill="#FFE465" stroke="#512921" stroke-width="2.5" stroke-linecap="round" stroke-linejoin="round"/>
<path fill-rule="evenodd" clip-rule="evenodd" d="M55.0996 162.635C55.1796 160.705 55.7296 155.445 55.8096 154.945C57.3896 143.945 71.7596 15.625 178.57 10.485C269.96 6.08496 291.77 77.575 293.6 92.725C296.15 113.795 295.34 144.945 293.84 171.525L293.77 172.315" fill="#FFE465"/>
<path d="M55.0996 162.635C55.1796 160.705 55.7296 155.445 55.8096 154.945C57.3896 143.945 71.7596 15.625 178.57 10.485C269.96 6.08496 291.77 77.575 293.6 92.725C296.15 113.795 295.34 144.945 293.84 171.525L293.77 172.315" stroke="#512921" stroke-width="2.5" stroke-linecap="round" stroke-linejoin="round"/>
<path d="M212.021 50.625C212.021 50.625 204.341 56.995 198.491 57.975C192.641 58.955 191.061 55.005 191.061 55.005" stroke="#512921" stroke-width="3.5" stroke-linecap="round" stroke-linejoin="round"/>
<path d="M129.02 28.3151C129.02 28.3151 133.04 23.9851 138.58 26.1251C144.12 28.2551 144.66 33.545 144.66 33.545" stroke="#512921" stroke-width="3.5" stroke-linecap="round" stroke-linejoin="round"/>
<path fill-rule="evenodd" clip-rule="evenodd" d="M63.1093 118.745C63.1093 118.745 71.0392 146.845 147.289 157.265C223.539 167.685 295.529 137.215 295.529 137.215C295.529 137.215 297.769 136.275 298.849 137.455C303.199 142.215 310.219 164.375 310.219 164.375C310.219 164.375 290.089 183.635 229.469 181.265C168.849 178.895 145.399 162.475 145.399 162.475C145.399 162.475 124.559 169.575 83.1994 161.365C74.4394 159.125 58.0992 182.365 59.0492 219.305C51.3292 216.465 51.9494 153.005 51.9494 153.005C51.9494 153.005 56.3693 117.685 63.1193 118.745H63.1093Z" fill="#F0503C"/>
<path d="M295.061 166.585C295.061 166.585 335.981 206.625 332.831 235.385" stroke="#512921" stroke-width="2.5" stroke-linecap="round" stroke-linejoin="round"/>
<path d="M294.99 172.115C282.71 177.275 261.94 182.525 229.46 181.265C168.84 178.895 145.39 162.475 145.39 162.475C145.39 162.475 120.74 169.615 100.99 164.565C96.1602 163.335 89.8902 161.675 83.5002 161.265C70.0302 160.415 60.7302 182.075 59.2402 210.455" stroke="#512921" stroke-width="2.5" stroke-linecap="round" stroke-linejoin="round"/>
<path d="M49.25 163.735C49.25 163.735 56.3499 117.675 63.0999 118.745C63.0999 118.745 71.0298 146.845 147.28 157.265C223.53 167.685 295.52 137.215 295.52 137.215C295.52 137.215 298.68 133.975 300.41 140.215C302.05 146.095 311 162.415 311 162.415" stroke="#512921" stroke-width="2.5" stroke-linecap="round" stroke-linejoin="round"/>
<path d="M144.634 163.17C146.052 153.961 141.039 145.547 133.435 144.375C125.832 143.203 118.517 149.718 117.099 158.927C115.68 168.135 120.693 176.55 128.297 177.722C135.9 178.893 143.215 172.378 144.634 163.17Z" fill="#F0503C" stroke="#512921" stroke-width="2.5" stroke-miterlimit="10"/>
<path d="M179.51 167.769C180.929 158.56 175.225 150.039 166.77 148.736C158.315 147.433 150.31 153.842 148.891 163.051C147.473 172.259 153.176 180.78 161.632 182.083C170.087 183.386 178.091 176.977 179.51 167.769Z" fill="#F0503C" stroke="#512921" stroke-width="2.5" stroke-miterlimit="10"/>
<path d="M158.239 164.6C159.154 157.534 154.603 151.121 148.075 150.276C141.546 149.43 135.512 154.472 134.596 161.538C133.681 168.603 138.232 175.016 144.761 175.862C151.289 176.707 157.324 171.665 158.239 164.6Z" fill="#F0503C" stroke="#512921" stroke-width="2.5" stroke-miterlimit="10"/>
<path d="M136.571 80.9052C130.501 92.2752 118.782 95.7852 108.742 91.3752C98.7016 86.9652 95.3814 75.2452 100.851 64.9752C106.321 54.7052 118.741 49.8952 128.581 54.2052C138.411 58.5252 142.051 70.6352 136.571 80.8952V80.9052Z" fill="white" stroke="#512921" stroke-width="2.5" stroke-miterlimit="10"/>
<path d="M130.861 60.5651C123.911 57.6251 115.111 61.4951 111.221 69.2151C107.331 76.9351 109.811 85.5751 116.761 88.5251C123.711 91.4651 132.511 87.5951 136.411 79.8751C140.311 72.1551 137.821 63.5151 130.871 60.5651H130.861Z" fill="#512921"/>
<path d="M127.08 65.4451C124.16 69.9651 119.08 69.8151 119.08 69.8151C121.38 73.3551 120.05 78.5551 120.05 78.5551C123.6 74.2651 128.07 74.1351 128.07 74.1351C125.05 70.6951 127.07 65.4551 127.07 65.4551L127.08 65.4451Z" fill="white"/>
<path d="M129.191 75.5352C127.201 78.0652 124.221 77.6651 124.221 77.6651C125.351 79.9251 124.251 82.9551 124.251 82.9551C126.601 80.6051 129.241 80.7951 129.241 80.7951C127.681 78.5551 129.191 75.5352 129.191 75.5352Z" fill="white"/>
<path d="M224.64 85.195C223.23 85.005 221.74 84.825 220.28 84.735C218.82 84.605 217.35 84.535 215.88 84.515C212.95 84.485 210.04 84.6151 207.18 85.0351C204.32 85.4351 201.54 86.155 198.92 87.225C196.3 88.305 193.89 89.825 191.75 91.725L191.73 91.745C191.25 92.175 190.51 92.125 190.08 91.645C189.69 91.205 189.69 90.565 190.05 90.125C191.06 88.895 192.23 87.785 193.49 86.795C194.78 85.845 196.15 85.005 197.59 84.295C199.02 83.585 200.53 83.045 202.05 82.585C203.58 82.155 205.13 81.835 206.68 81.585C209.8 81.155 212.93 81.055 216.03 81.305C219.14 81.555 222.16 82.025 225.19 82.945C225.81 83.135 226.15 83.785 225.97 84.405C225.8 84.965 225.26 85.295 224.7 85.225H224.64V85.195Z" fill="#502823"/>
<path d="M216.829 92.405C214.849 91.705 212.759 91.305 210.639 91.025C208.519 90.765 206.359 90.645 204.199 90.665C202.039 90.665 199.869 90.805 197.709 91.015C195.549 91.255 193.399 91.565 191.279 92.025H191.259C190.629 92.165 189.999 91.765 189.859 91.135C189.739 90.585 190.029 90.035 190.529 89.815C192.679 88.865 194.939 88.215 197.229 87.805C199.519 87.375 201.849 87.175 204.179 87.155C206.509 87.155 208.859 87.345 211.169 87.825C213.479 88.295 215.779 89.055 217.849 90.315C218.399 90.645 218.579 91.365 218.249 91.925C217.959 92.405 217.369 92.605 216.859 92.425H216.829V92.405Z" fill="#502823"/>
<path d="M151.492 131.725C157.872 133.205 166.832 107.655 167.622 89.6849C165.212 89.1249 158.552 87.5749 155.292 86.8149C147.062 102.895 145.502 130.335 151.502 131.725H151.492Z" fill="#FF5640" stroke="#512921" stroke-width="2.5" stroke-linecap="round" stroke-linejoin="round"/>
<path d="M147.87 118.895C147.78 125.925 148.96 131.135 151.49 131.725C155.01 132.545 159.31 125.135 162.6 115.305C157.89 114.295 152.27 115.415 147.88 118.895H147.87Z" fill="#FF929F" stroke="#512921" stroke-width="2.5" stroke-linecap="round" stroke-linejoin="round"/>
<path d="M166.011 78.145C166.281 78.215 166.531 78.385 166.641 78.635C167.041 79.495 167.921 81.815 167.941 85.705C167.961 89.515 167.681 91.455 167.501 92.315C167.421 92.665 167.161 92.965 166.811 93.025C163.371 93.685 150.051 92.485 146.031 85.455C141.121 76.875 148.841 70.015 154.261 71.275C160.801 72.795 159.101 76.325 166.001 78.145H166.011Z" fill="#FF9210" stroke="#512921" stroke-width="2.5" stroke-linecap="round" stroke-linejoin="round"/>
<path d="M114.56 81.7351C102.32 79.4451 91.6699 81.5051 90.7699 86.3351C89.8699 91.1651 99.0499 96.9451 111.29 99.2351C123.53 101.525 134.18 99.4651 135.08 94.6351C135.98 89.8051 126.8 84.0251 114.56 81.7351Z" fill="#FFE465"/>
<path d="M98.3906 81.3751C102.701 80.5351 108.431 80.5951 114.561 81.7351C122.071 83.1451 128.431 85.8551 132.011 88.8651" stroke="#512921" stroke-width="2.5" stroke-linecap="round" stroke-linejoin="round"/>
<path d="M38.6302 27.025C43.5802 37.355 29.6503 54.335 29.6503 54.335C29.6503 54.335 7.68035 54.575 2.73035 44.245C-2.21965 33.915 8.61015 24.865 19.7802 33.765C19.4502 20.125 33.6702 16.695 38.6302 27.025Z" fill="#FF88AA" stroke="#FF5F94" stroke-width="3" stroke-linecap="round" stroke-linejoin="round"/>
<path opacity="0.5" d="M30.1802 28.9748C28.1402 28.6048 26.8401 28.4249 27.0301 27.3349C27.2301 26.2449 28.8502 24.6549 30.8902 25.0249C32.9302 25.3949 34.6102 27.5649 34.4202 28.6549C34.2302 29.7449 32.2202 29.3349 30.1902 28.9649L30.1802 28.9748Z" fill="white"/>
<path d="M349.822 110.385C345.632 119.335 326.672 119.315 326.672 119.315C326.672 119.315 314.502 104.775 318.692 95.825C322.882 86.875 334.852 89.155 335.012 101.485C343.942 93.805 354.002 101.435 349.822 110.385Z" fill="#FF88AA" stroke="#FF5F94" stroke-width="3" stroke-linecap="round" stroke-linejoin="round"/>
<path opacity="0.5" d="M345.548 106.374C345.779 104.717 344.991 103.237 343.788 103.07C342.584 102.902 341.421 104.109 341.19 105.767C340.959 107.424 341.747 108.904 342.95 109.071C344.154 109.239 345.317 108.032 345.548 106.374Z" fill="white"/>
<path d="M321.641 20.7552C318.311 27.8752 303.251 27.8551 303.251 27.8551C303.251 27.8551 293.581 16.3052 296.911 9.18517C300.241 2.06517 309.751 3.88517 309.881 13.6852C316.971 7.58517 324.971 13.6452 321.651 20.7552H321.641Z" fill="#FF88AA" stroke="#FF5F94" stroke-width="3" stroke-linecap="round" stroke-linejoin="round"/>
<path opacity="0.5" d="M318.192 17.5532C318.376 16.235 317.749 15.0582 316.792 14.9247C315.834 14.7912 314.909 15.7515 314.726 17.0697C314.542 18.388 315.169 19.565 316.126 19.6985C317.083 19.832 318.008 18.8715 318.192 17.5532Z" fill="white"/>
<path d="M81.6211 161.455C111.771 163.035 124.561 159.095 164.701 137.225C168.711 135.035 189.461 185.115 179.141 189.085C163.161 195.245 122.661 205.095 73.291 199.035" fill="#FFE465"/>
<path d="M81.6211 161.455C111.771 163.035 124.561 159.095 164.701 137.225C168.711 135.035 189.461 185.115 179.141 189.085C163.161 195.245 122.661 205.095 73.291 199.035" stroke="#512921" stroke-width="2.5" stroke-linecap="round" stroke-linejoin="round"/>
<path d="M264.111 195.625C250.441 192.295 219.881 186.025 219.881 186.025L238.701 135.555C238.701 135.555 292.061 153.955 303.231 168.355C312.501 180.315 303.111 197.835 291.271 199.025C284.091 199.745 270.761 197.255 264.121 195.635L264.111 195.625Z" fill="#FFE465" stroke="#512921" stroke-width="2.5" stroke-linecap="round" stroke-linejoin="round"/>
<path d="M231.781 187.535C227.901 189.135 220.251 186.275 220.251 186.275C213.401 189.475 202.841 189.315 202.101 182.735C201.361 176.155 213.341 170.065 216.941 164.015C225.891 148.985 216.941 140.005 216.251 140.005C216.251 140.005 220.191 142.535 224.261 142.955L239.771 142.665" fill="#FFE465"/>
<path d="M231.781 187.535C227.901 189.135 220.251 186.275 220.251 186.275C213.401 189.475 202.841 189.315 202.101 182.735C201.361 176.155 213.341 170.065 216.941 164.015C225.891 148.985 216.941 140.005 216.251 140.005C216.251 140.005 220.191 142.535 224.261 142.955L239.771 142.665" stroke="#512921" stroke-width="2.5" stroke-linecap="round" stroke-linejoin="round"/>
<path d="M253.221 140.925C243.861 134.415 230.421 129.425 222.091 129.395C206.091 129.345 199.211 140.085 200.921 145.145C203.411 152.485 213.941 150.595 216.861 148.725C216.861 148.725 217.111 150.515 222.031 152.465C223.881 153.195 230.151 154.005 232.181 153.635C235.771 154.735 238.831 159.275 240.761 158.345" fill="#FFE465"/>
<path d="M253.221 140.925C243.861 134.415 230.421 129.425 222.091 129.395C206.091 129.345 199.211 140.085 200.921 145.145C203.411 152.485 213.941 150.595 216.861 148.725C216.861 148.725 217.111 150.515 222.031 152.465C223.881 153.195 230.151 154.005 232.181 153.635C235.771 154.735 238.831 159.275 240.761 158.345" stroke="#512921" stroke-width="2.5" stroke-linecap="round" stroke-linejoin="round"/>
<path d="M170.84 192.015C176.58 192.015 182.79 188.975 182.79 188.975C190.75 191.085 201.57 189.325 201.53 182.535C201.49 175.745 187.79 169.415 183.38 163.685C172.44 149.465 181.17 141.745 181.87 141.655C181.87 141.655 178.16 144.715 174.07 145.635L158.24 147.225" fill="#FFE465"/>
<path d="M170.84 192.015C176.58 192.015 182.79 188.975 182.79 188.975C190.75 191.085 201.57 189.325 201.53 182.535C201.49 175.745 187.79 169.415 183.38 163.685C172.44 149.465 181.17 141.745 181.87 141.655C181.87 141.655 178.16 144.715 174.07 145.635L158.24 147.225" stroke="#512921" stroke-width="2.5" stroke-linecap="round" stroke-linejoin="round"/>
<path d="M139.32 150.875C147.44 142.605 164.18 131.965 175.22 131.205C191.58 130.085 200.57 139.355 197.85 146.325C194.82 154.105 182.09 151.065 180.81 149.235C180.81 149.235 180.81 151.085 176.29 153.795C174.6 154.815 168.61 156.565 166.59 156.505C164.49 158.815 163.25 160.595 159.61 161.305" fill="#FFE465"/>
<path d="M139.32 150.875C147.44 142.605 164.18 131.965 175.22 131.205C191.58 130.085 200.57 139.355 197.85 146.325C194.82 154.105 182.09 151.065 180.81 149.235C180.81 149.235 180.81 151.085 176.29 153.795C174.6 154.815 168.61 156.565 166.59 156.505C164.49 158.815 163.25 160.595 159.61 161.305" stroke="#512921" stroke-width="2.5" stroke-linecap="round" stroke-linejoin="round"/>
</svg>
