<svg width="347" height="349" viewBox="0 0 347 349" fill="none" xmlns="http://www.w3.org/2000/svg">
<path fill-rule="evenodd" clip-rule="evenodd" d="M195.582 20.3244C195.582 20.3244 213.342 -1.08563 233.172 1.69437C237.582 2.31437 240.532 3.9544 242.742 6.3544C249.272 13.4444 244.832 22.8744 244.832 22.8744C247.012 22.7344 258.072 24.9943 256.932 36.2943C256.452 41.0443 251.782 47.3044 243.572 46.6144C229.062 45.3944 204.892 32.3544 195.582 20.3244Z" fill="#FFE465" stroke="#512921" stroke-width="2.89" stroke-linecap="round" stroke-linejoin="round"/>
<path fill-rule="evenodd" clip-rule="evenodd" d="M42.7311 172.854L280.661 155.964C290.091 155.054 291.822 158.244 292.902 163.404C304.402 218.154 333.362 210.474 343.402 243.774C361.292 303.154 245.451 330.294 189.011 333.484C15.1514 343.304 -3.83881 230.174 21.7912 190.394C27.8312 181.014 39.4014 173.974 42.7414 172.854H42.7311Z" fill="#F0503C" stroke="#512921" stroke-width="2.89" stroke-linecap="round" stroke-linejoin="round"/>
<path fill-rule="evenodd" clip-rule="evenodd" d="M106.503 319.984C114.513 315.494 124.084 305.424 126.574 304.004C126.054 302.864 119.233 287.314 119.233 287.314L95.6836 304.184C90.9836 307.644 89.6836 310.674 89.6836 314.354C89.6836 319.204 102.304 322.334 106.514 319.974L106.503 319.984Z" fill="#FF9210" stroke="#512921" stroke-width="2.89" stroke-linecap="round" stroke-linejoin="round"/>
<path fill-rule="evenodd" clip-rule="evenodd" d="M89.6726 314.354L89.9226 324.084C89.9226 324.084 78.6523 320.474 73.8923 328.014C71.2523 332.194 71.2625 338.474 72.3225 341.434C72.9225 343.114 74.5326 343.914 76.1726 344.644C79.1826 345.974 103.682 346.064 106.952 344.804C108.972 344.024 110.342 342.634 110.452 340.404C110.682 335.724 110.503 326.904 110.153 317.194" fill="#FF9210"/>
<path d="M89.6726 314.354L89.9226 324.084C89.9226 324.084 78.6523 320.474 73.8923 328.014C71.2523 332.194 71.2625 338.474 72.3225 341.434C72.9225 343.114 74.5326 343.914 76.1726 344.644C79.1826 345.974 103.682 346.064 106.952 344.804C108.972 344.024 110.342 342.634 110.452 340.404C110.682 335.724 110.503 326.904 110.153 317.194" stroke="#512921" stroke-width="2.89" stroke-linecap="round" stroke-linejoin="round"/>
<path fill-rule="evenodd" clip-rule="evenodd" d="M96.0303 326.014C93.6303 325.204 89.9102 324.094 89.9102 324.094L96.0303 326.014Z" fill="#FF9210"/>
<path d="M96.0303 326.014C93.6303 325.204 89.9102 324.094 89.9102 324.094" stroke="#512921" stroke-width="2.89" stroke-linecap="round" stroke-linejoin="round"/>
<path fill-rule="evenodd" clip-rule="evenodd" d="M257.453 294.574L292.643 326.134C292.643 326.134 303.922 321.444 310.252 328.794C313.472 332.544 312.803 340.544 311.673 343.474C311.023 345.144 309.402 345.894 307.732 346.584C304.682 347.834 286.282 347.444 283.042 346.094C281.042 345.264 281.033 343.364 279.663 341.604C275.443 336.194 238.993 299.504 235.812 296.134C237.062 296.164 257.453 294.584 257.453 294.584V294.574Z" fill="#FF9210" stroke="#512921" stroke-width="2.89" stroke-linecap="round" stroke-linejoin="round"/>
<path fill-rule="evenodd" clip-rule="evenodd" d="M304.73 224.975C303.08 220.775 299.31 219.195 296.17 220.455C294.3 221.205 294.4 218.424 294.28 217.685C291.5 212.475 289.69 201.064 287.44 173.634C287.44 173.634 292.8 170.145 292.69 169.615C288.43 138.225 230.44 118.214 162.41 124.774C93.6201 131.414 40.3504 162.745 43.4404 194.745C43.4904 195.275 43.5601 195.805 43.6401 196.335C44.8301 270.705 91.1702 313.375 165.51 315.105C199.43 315.895 241.06 305.495 261.94 294.705C312.28 268.705 307.72 232.575 304.72 224.965L304.73 224.975Z" fill="#FFE465" stroke="#512921" stroke-width="2.89" stroke-linecap="round" stroke-linejoin="round"/>
<path fill-rule="evenodd" clip-rule="evenodd" d="M44.4315 194.704C44.2315 192.684 44.2616 187.624 44.2616 187.094C44.3016 175.444 29.3215 43.9542 144.202 20.0042C238.092 0.434204 279.901 75.3643 284.411 90.7043C293.771 122.624 285.632 142.404 287.922 170.224" fill="#FFE465"/>
<path d="M44.4315 194.704C44.2315 192.684 44.2616 187.624 44.2616 187.094C44.3016 175.444 29.3215 43.9542 144.202 20.0042C238.092 0.434204 279.901 75.3643 284.411 90.7043C293.771 122.624 285.632 142.404 287.922 170.224" stroke="#512921" stroke-width="2.89" stroke-linecap="round" stroke-linejoin="round"/>
<path fill-rule="evenodd" clip-rule="evenodd" d="M51.2601 110.074C36.4201 117.544 24.56 148.524 50.47 174.484L51.2601 110.074Z" fill="#FFE465"/>
<path d="M51.2601 110.074C36.4201 117.544 24.56 148.524 50.47 174.484" stroke="#512921" stroke-width="2.89" stroke-linecap="round" stroke-linejoin="round"/>
<path fill-rule="evenodd" clip-rule="evenodd" d="M332.149 246.664C297.909 208.484 294.939 180.655 292.579 166.865C291.269 159.245 289.439 156.824 287.029 157.454C264.189 166.134 196.079 182.864 133.67 179.284C56.1095 174.834 43.0695 161.665 39.8995 160.605C37.3995 163.315 37.3094 161.174 38.0494 181.534C58.7794 186.904 66.0292 199.945 142.599 194.865C268.389 193.095 295.069 191.914 332.149 246.664Z" fill="#F0503C"/>
<path d="M38.0508 181.534C49.0708 181.444 54.8008 195.174 99.3008 195.524C125.441 195.734 137.901 197.174 146.421 196.654C254.621 190.094 287.691 190.564 329.941 234.244" stroke="#512921" stroke-width="2.89" stroke-linecap="round" stroke-linejoin="round"/>
<path d="M286.48 156.944C285.16 158.044 248.68 179.984 131.57 179.144C80.5003 178.784 41.5902 161.904 39.9102 160.604" stroke="#512921" stroke-width="2.89" stroke-linecap="round" stroke-linejoin="round"/>
<path d="M134.102 189.201C134.242 179.438 127.82 171.429 119.757 171.314C111.694 171.198 105.045 179.02 104.905 188.783C104.766 198.546 111.188 206.555 119.251 206.67C127.313 206.786 133.963 198.964 134.102 189.201Z" fill="#F0503C" stroke="#512921" stroke-width="2.89" stroke-miterlimit="10"/>
<path d="M170.987 188.934C171.127 179.17 163.97 171.151 155.002 171.023C146.034 170.895 138.651 178.705 138.511 188.469C138.371 198.232 145.528 206.251 154.496 206.379C163.464 206.508 170.848 198.697 170.987 188.934Z" fill="#F0503C" stroke="#512921" stroke-width="2.89" stroke-miterlimit="10"/>
<path d="M135.75 202.475C142.648 202.408 148.18 196.3 148.107 188.834C148.034 181.367 142.383 175.369 135.486 175.437C128.588 175.504 123.055 181.611 123.128 189.078C123.201 196.545 128.852 202.543 135.75 202.475Z" fill="#F0503C" stroke="#512921" stroke-width="2.89" stroke-miterlimit="10"/>
<path d="M256.24 227.094C256.24 227.094 218.97 232.064 200.64 187.724C180.05 137.924 222.06 110.244 241.91 139.614C247.8 140.904 249.49 147.534 249.97 154.014C252.92 193.514 265.61 203.974 265.61 203.974" fill="#FFE465"/>
<path d="M256.24 227.094C256.24 227.094 218.97 232.064 200.64 187.724C180.05 137.924 222.06 110.244 241.91 139.614C247.8 140.904 249.49 147.534 249.97 154.014C252.92 193.514 265.61 203.974 265.61 203.974" stroke="#512921" stroke-width="2.89" stroke-linecap="round" stroke-linejoin="round"/>
<path d="M38.4112 222.374C48.4912 220.804 69.1314 209.374 80.1514 176.104C96.9414 125.364 56.5712 104.894 39.4912 135.924C34.0712 138.014 32.8212 144.614 32.6812 150.894C32.2712 168.944 26.7614 178.514 22.6314 185.724C9.16138 209.164 22.2414 224.894 38.4214 222.364L38.4112 222.374Z" fill="#FFE465" stroke="#512921" stroke-width="2.89" stroke-linecap="round" stroke-linejoin="round"/>
<path d="M198.452 35.8443C198.552 32.1443 196.312 27.5542 191.692 26.0042C185.852 24.0442 181.592 28.2743 180.102 31.8143" stroke="#512921" stroke-width="4.05" stroke-linecap="round" stroke-linejoin="round"/>
<path d="M107.691 30.4243C109.241 26.0143 113.331 23.0743 117.591 23.4343C121.391 23.7543 123.761 27.4442 123.671 30.7542" stroke="#512921" stroke-width="4.05" stroke-linecap="round" stroke-linejoin="round"/>
<path d="M215.792 104.014C214.512 120.124 200.232 131.964 184.292 130.894C168.352 129.824 156.482 115.894 157.762 99.7842C159.042 83.6742 173.003 71.4942 188.943 72.5642C204.883 73.6342 217.082 87.9042 215.792 104.014Z" fill="white" stroke="#512921" stroke-width="2.89" stroke-miterlimit="10"/>
<path d="M204.729 101.674C205.335 90.612 197.459 81.1852 187.136 80.6188C176.812 80.0525 167.952 88.5612 167.345 99.6234C166.738 110.686 174.615 120.112 184.938 120.679C195.261 121.245 204.122 112.736 204.729 101.674Z" fill="#512921"/>
<path d="M175.974 107.804L182.894 105.144C183.284 104.994 183.724 105.044 184.064 105.284L190.184 109.484C191.054 110.074 192.224 109.424 192.164 108.374L191.774 100.964C191.754 100.544 191.934 100.144 192.264 99.8941L198.144 95.3742C198.974 94.7342 198.714 93.4141 197.704 93.1441L190.534 91.2242C190.134 91.1142 189.804 90.8141 189.664 90.4241L187.184 83.4341C186.834 82.4441 185.504 82.2841 184.924 83.1641L180.884 89.3841C180.654 89.7341 180.274 89.9541 179.854 89.9641L172.434 90.1641C171.384 90.1941 170.824 91.4142 171.484 92.2242L176.154 97.9842C176.414 98.3042 176.504 98.7441 176.384 99.1441L174.284 106.264C173.984 107.274 174.974 108.184 175.954 107.804H175.974Z" fill="#FFE465"/>
<path d="M168.071 129.954C158.461 137.354 170.161 139.494 194.591 132.504C219.021 125.514 224.271 117.414 215.751 116.314C195.311 110.874 176.901 119.024 168.071 129.954Z" fill="#FFE465"/>
<path d="M215.513 116.224C202.243 110.684 175.983 117.634 168.973 129.134" stroke="#512921" stroke-width="2.89" stroke-linecap="round" stroke-linejoin="round"/>
<path d="M167.621 64.6943C169.831 71.1343 178.061 72.8644 186.821 72.4844" stroke="#512921" stroke-width="2.89" stroke-linecap="round" stroke-linejoin="round"/>
<path d="M120.983 106.474C115.813 123.234 101.673 130.194 87.8833 125.954C74.3733 121.804 67.2032 106.174 71.8632 91.0544C76.5232 75.9344 91.2531 67.0344 104.763 71.1844C118.273 75.3344 125.643 91.3444 120.983 106.474Z" fill="white" stroke="#512921" stroke-width="2.89" stroke-miterlimit="10"/>
<path d="M111.282 101.893C114.099 91.1779 109.065 80.5679 100.038 78.1947C91.011 75.8215 81.4097 82.5837 78.5927 93.2984C75.7758 104.013 80.8099 114.623 89.8368 116.996C98.8636 119.369 108.465 112.607 111.282 101.893Z" fill="#512921"/>
<path d="M86.4488 104.145L92.7686 101.555C93.1186 101.405 93.5189 101.465 93.8189 101.705L99.1587 105.955C99.9187 106.555 100.989 105.915 100.979 104.865L100.899 97.4647C100.899 97.0447 101.079 96.6546 101.379 96.4046L106.829 91.9547C107.599 91.3247 107.409 90.0047 106.509 89.7247L100.139 87.7447C99.7787 87.6347 99.4987 87.3347 99.3887 86.9347L97.4087 79.9347C97.1287 78.9447 95.9387 78.7746 95.3887 79.6446L91.5386 85.8147C91.3186 86.1647 90.9687 86.3746 90.5987 86.3846L83.9287 86.5146C82.9887 86.5346 82.4386 87.7447 82.9986 88.5647L86.9888 94.3647C87.2088 94.6947 87.2787 95.1246 87.1587 95.5246L85.0186 102.605C84.7186 103.605 85.569 104.525 86.459 104.155L86.4488 104.145Z" fill="#FFE465"/>
<path d="M109.442 126.544C117.072 133.894 106.772 135.934 86.3019 128.904C65.8319 121.874 60.8917 113.374 68.3517 112.334C84.0417 106.384 98.722 113.274 109.442 126.544Z" fill="#FFE465"/>
<path d="M70.1328 110.695C82.3628 109.305 100.493 113.685 108.963 125.955" stroke="#512921" stroke-width="2.89" stroke-linecap="round" stroke-linejoin="round"/>
<path d="M84.7617 62.5344C86.4317 68.6644 92.9818 70.1045 100.572 70.3145" stroke="#512921" stroke-width="2.89" stroke-linecap="round" stroke-linejoin="round"/>
<path d="M136.68 176.865C147.27 176.255 139.8 137.915 146.99 100.715C144.42 100.405 140.06 99.6146 136.58 99.1946C125.92 125.485 124.31 177.575 136.68 176.865Z" fill="#FF5640"/>
<mask id="mask0_16769_45276" style="mask-type:luminance" maskUnits="userSpaceOnUse" x="127" y="99" width="20" height="78">
<path d="M136.68 176.865C147.27 176.255 139.8 137.915 146.99 100.715C144.42 100.405 140.06 99.6146 136.58 99.1946C125.92 125.485 124.31 177.575 136.68 176.865Z" fill="white"/>
</mask>
<g mask="url(#mask0_16769_45276)">
<path d="M113.989 155.945C124.849 131.925 146.899 128.395 157.959 135.985C151.239 150.625 147.859 183.215 146.199 186.835C133.369 180.945 113.329 165.615 113.989 155.955V155.945Z" fill="#FF929F" stroke="#512921" stroke-width="2.89" stroke-miterlimit="10"/>
</g>
<path d="M136.68 176.865C147.27 176.255 139.8 137.915 146.99 100.715C144.42 100.405 140.06 99.6146 136.58 99.1946C125.92 125.485 124.31 177.575 136.68 176.865Z" stroke="#512921" stroke-width="2.89" stroke-miterlimit="10"/>
<path d="M147.14 96.0044C147.41 96.1344 147.55 96.4445 147.56 96.7345C147.61 97.7345 147.18 99.7245 146.65 102.984C145.99 107.084 145.52 108.234 144.99 108.984C144.77 109.294 144.66 109.494 144.29 109.424C138.54 108.374 127.89 103.034 126.69 94.2944C125.25 83.7744 135.3 78.1944 141.52 82.6444C149.46 88.3144 140.7 92.9344 147.14 96.0144V96.0044Z" fill="#FF9210" stroke="#512921" stroke-width="2.89" stroke-miterlimit="10"/>
<path d="M74.6503 125.504C74.2803 125.404 73.9404 125.164 73.7104 124.804C73.2204 124.024 73.4401 122.944 74.2001 122.414L78.31 119.514C79.07 118.974 80.0802 119.174 80.5702 119.964C81.0602 120.744 80.84 121.825 80.08 122.355L75.9701 125.254C75.5601 125.544 75.0803 125.614 74.6503 125.504Z" fill="#FF7873"/>
<path d="M80.4507 127.944C80.1207 127.854 79.8208 127.664 79.5908 127.364C79.0408 126.624 79.1806 125.544 79.8906 124.944L83.7607 121.704C84.4807 121.104 85.5008 121.214 86.0508 121.954C86.6008 122.694 86.4605 123.774 85.7505 124.374L81.8808 127.614C81.4608 127.974 80.9209 128.074 80.4409 127.954L80.4507 127.944Z" fill="#FF7873"/>
<path d="M85.7513 130.004C85.4213 129.914 85.1214 129.724 84.8914 129.424C84.3414 128.684 84.4817 127.604 85.1917 127.004L89.0613 123.764C89.7813 123.164 90.8014 123.274 91.3514 124.014C91.9014 124.754 91.7616 125.834 91.0516 126.434L87.1814 129.674C86.7614 130.034 86.2215 130.134 85.7415 130.014L85.7513 130.004Z" fill="#FF7873"/>
<path d="M192.352 134.104C191.952 134.164 191.522 134.074 191.152 133.834C190.362 133.304 190.142 132.234 190.672 131.434L193.522 127.144C194.052 126.354 195.122 126.134 195.922 126.664C196.712 127.194 196.932 128.264 196.402 129.064L193.552 133.354C193.272 133.784 192.822 134.044 192.352 134.104Z" fill="#FF7873"/>
<path d="M185.302 135.104C184.902 135.164 184.471 135.074 184.101 134.834C183.311 134.304 183.091 133.234 183.621 132.434L186.472 128.144C187.002 127.354 188.071 127.134 188.871 127.664C189.661 128.194 189.881 129.264 189.351 130.064L186.501 134.354C186.221 134.784 185.772 135.044 185.302 135.104Z" fill="#FF7873"/>
<path d="M199.012 134.054C198.652 134.104 198.282 134.055 197.942 133.855C197.102 133.395 196.802 132.344 197.262 131.504L199.752 126.985C200.212 126.145 201.262 125.844 202.102 126.304C202.942 126.764 203.242 127.814 202.782 128.654L200.292 133.174C200.022 133.664 199.542 133.974 199.022 134.054H199.012Z" fill="#FF7873"/>
<path d="M60.2617 62.1644C60.2617 46.3944 52.4816 32.9645 43.3516 32.9645C52.4816 32.9645 60.2617 19.5344 60.2617 3.7644C60.2617 19.5344 68.0419 32.9645 77.1719 32.9645C68.0419 32.9645 60.2617 46.3944 60.2617 62.1644Z" fill="#FFEF94" stroke="#FFCC4D" stroke-width="2.5" stroke-linecap="round" stroke-linejoin="round"/>
<path d="M15.6001 145.464C15.6001 132.074 9 120.674 1.25 120.674C9 120.674 15.6001 109.274 15.6001 95.8843C15.6001 109.274 22.2002 120.674 29.9502 120.674C22.2002 120.674 15.6001 132.074 15.6001 145.464Z" fill="#FFEF94" stroke="#FFCC4D" stroke-width="2.5" stroke-linecap="round" stroke-linejoin="round"/>
<path d="M318.192 148.444C318.192 132.954 310.552 119.764 301.582 119.764C310.552 119.764 318.192 106.574 318.192 91.0842C318.192 106.574 325.832 119.764 334.802 119.764C325.832 119.764 318.192 132.954 318.192 148.444Z" fill="#FFEF94" stroke="#FFCC4D" stroke-width="2.89" stroke-linecap="round" stroke-linejoin="round"/>
<path d="M298.202 63.4043C298.202 51.1843 292.172 40.7743 285.102 40.7743C292.182 40.7743 298.202 30.3643 298.202 18.1443C298.202 30.3643 304.232 40.7743 311.302 40.7743C304.222 40.7743 298.202 51.1843 298.202 63.4043Z" fill="#FFEF94" stroke="#FFCC4D" stroke-width="2.89" stroke-linecap="round" stroke-linejoin="round"/>
</svg>
