<svg width="334" height="327" viewBox="0 0 334 327" fill="none" xmlns="http://www.w3.org/2000/svg">
<path fill-rule="evenodd" clip-rule="evenodd" d="M274.1 160.45L68.5199 116.61C65.8899 116.08 63.3 117.59 62.35 120.15C44.52 168.05 -17.1605 199.801 6.63952 244.371C17.9295 265.521 52.06 266.95 67.08 268.4C99.96 271.57 94.1797 282.501 118.36 286.911C147.46 292.221 179.72 279.511 192.43 280.021C203.95 280.481 214.13 286.171 225.82 284.191C276.18 275.631 283.26 169.861 274.1 160.441V160.45Z" fill="#F0503C" stroke="#512921" stroke-width="2.5" stroke-linecap="round" stroke-linejoin="round"/>
<path fill-rule="evenodd" clip-rule="evenodd" d="M152.809 322.27C161.029 329.21 171.618 320.46 174.648 310.7C177.578 301.28 175.228 294.901 168.678 293.141C162.128 291.381 156.648 293.52 151.688 308.78C149.068 316.85 150.468 320.3 152.798 322.27H152.809Z" fill="#FF9210" stroke="#512921" stroke-width="2.5" stroke-linecap="round" stroke-linejoin="round"/>
<path fill-rule="evenodd" clip-rule="evenodd" d="M171.679 307.771C179.699 306.991 188.529 304.941 197.239 301.831C207.359 297.431 200.719 283.811 191.459 287.561C184.109 289.871 175.67 291.65 166.52 292.32" fill="#FF9210"/>
<path d="M171.679 307.771C179.699 306.991 188.529 304.941 197.239 301.831C207.359 297.431 200.719 283.811 191.459 287.561C184.109 289.871 175.67 291.65 166.52 292.32" stroke="#512921" stroke-width="2.5" stroke-linecap="round" stroke-linejoin="round"/>
<path fill-rule="evenodd" clip-rule="evenodd" d="M187.598 289.96C186.678 277.1 180.678 261.28 176.918 254.78C178.218 254.58 191.698 249.92 191.698 249.92C196.228 264.54 202.738 281.32 202.238 295.92" fill="#FF9210"/>
<path d="M187.598 289.96C186.678 277.1 180.678 261.28 176.918 254.78C178.218 254.58 191.698 249.92 191.698 249.92C196.228 264.54 202.738 281.32 202.238 295.92" stroke="#512921" stroke-width="2.5" stroke-linecap="round" stroke-linejoin="round"/>
<path fill-rule="evenodd" clip-rule="evenodd" d="M154.742 22.7104C154.742 22.7104 141.242 1.14042 122.922 1.25042C118.852 1.27042 115.972 2.41048 113.682 4.31048C106.902 9.94048 109.772 19.0302 109.772 19.0302C107.812 18.6402 97.512 19.3504 97.172 29.7304C97.032 34.1004 100.502 40.3404 108.032 40.7104C121.332 41.3704 144.842 32.4804 154.742 22.7104Z" fill="#FFE465" stroke="#512921" stroke-width="2.5" stroke-linecap="round" stroke-linejoin="round"/>
<path d="M241.27 180.49C280.65 160.51 289.919 121.61 315.889 123.78C344.029 126.14 342.069 197.601 253.899 204.021" fill="#FFE465"/>
<path d="M241.27 180.49C280.65 160.51 289.919 121.61 315.889 123.78C344.029 126.14 342.069 197.601 253.899 204.021" stroke="#512921" stroke-width="2.37" stroke-linecap="round" stroke-linejoin="round"/>
<path d="M63.2812 169.081C105.251 155.381 120.391 118.36 145.721 124.49C173.171 131.14 160.261 201.45 72.1514 194.27" fill="#FFE465"/>
<path d="M63.2812 169.081C105.251 155.381 120.391 118.36 145.721 124.49C173.171 131.14 160.261 201.45 72.1514 194.27" stroke="#512921" stroke-width="2.37" stroke-linecap="round" stroke-linejoin="round"/>
<path fill-rule="evenodd" clip-rule="evenodd" d="M48.7392 174.38C50.6992 170.99 54.0695 170.121 56.5195 171.601C57.9795 172.481 58.2794 170.09 58.4794 169.47C59.1094 166.87 61.4495 153.49 64.3095 133.38C64.3095 133.38 64.3692 133.11 64.5292 132.67C72.1092 106.23 123.289 95.9206 179.509 109.621C236.359 123.471 273.979 165.551 269.539 183.621C259.479 239.091 216.639 280.631 148.459 269.891C120.069 265.421 91.6492 251.681 77.2792 239.811C44.4792 212.711 45.1995 180.54 48.7495 174.4L48.7392 174.38Z" fill="#FFE465" stroke="#512921" stroke-width="2.5" stroke-linecap="round" stroke-linejoin="round"/>
<path fill-rule="evenodd" clip-rule="evenodd" d="M269.521 183.601C269.941 181.891 270.551 177.541 270.621 177.081C272.031 167.061 292.061 51.2808 200.011 19.6608C121.261 -7.38924 84.6908 48.8104 77.2808 65.3004C66.3108 89.7104 69.5509 112.851 64.9609 133.041" fill="#FFE465"/>
<path d="M269.521 183.601C269.941 181.891 270.551 177.541 270.621 177.081C272.031 167.061 292.061 51.2808 200.011 19.6608C121.261 -7.38924 84.6908 48.8104 77.2808 65.3004C66.3108 89.7104 69.5509 112.851 64.9609 133.041" stroke="#512921" stroke-width="2.5" stroke-linecap="round" stroke-linejoin="round"/>
<path fill-rule="evenodd" clip-rule="evenodd" d="M44.9399 171.92C82.4699 110.1 165.62 158.87 193.14 143.38C251.91 180.23 270.69 164.4 277.86 151.11C279.95 147.23 277.44 149.18 275.4 147.24C271.77 143.77 248.43 140.75 196.92 140.94C130.92 108.22 67.5497 107.26 64.7197 119.45C60.3397 138.29 44.9297 171.93 44.9297 171.93L44.9399 171.92Z" fill="#F0503C"/>
<path d="M21.25 192.19C82.7 103.55 139.88 160.64 193.15 143.38C251.92 180.23 270.7 164.4 277.87 151.11C279.96 147.23 277.45 149.18 275.41 147.24C271.78 143.77 248.44 140.75 196.93 140.94C130.93 108.22 65.1801 107.97 62.3501 120.16" stroke="#512921" stroke-width="2.5" stroke-linecap="round" stroke-linejoin="round"/>
<path d="M218.896 150.377C220.586 142.07 216.397 134.205 209.54 132.81C202.684 131.415 195.754 137.018 194.064 145.325C192.374 153.633 196.563 161.498 203.42 162.893C210.277 164.288 217.206 158.685 218.896 150.377Z" fill="#F0503C" stroke="#512921" stroke-width="2.5" stroke-miterlimit="10"/>
<path d="M190.448 143.842C192.138 135.535 187.322 127.542 179.692 125.989C172.061 124.437 164.504 129.913 162.814 138.22C161.124 146.528 165.94 154.521 173.571 156.073C181.202 157.626 188.758 152.15 190.448 143.842Z" fill="#F0503C" stroke="#512921" stroke-width="2.5" stroke-miterlimit="10"/>
<path d="M203.154 147.258C204.599 140.938 201.04 134.732 195.203 133.398C189.367 132.063 183.465 136.105 182.019 142.426C180.574 148.746 184.133 154.952 189.969 156.287C195.806 157.621 201.708 153.579 203.154 147.258Z" fill="#F0503C" stroke="#512921" stroke-width="2.5" stroke-miterlimit="10"/>
<path d="M196.351 68.7603C190.771 96.6503 191.701 109.14 195.711 111.13C201.171 113.85 209.831 98.3503 206.481 70.8003L196.351 68.7603Z" fill="#FF5640" stroke="#512921" stroke-width="2.5" stroke-linecap="round" stroke-linejoin="round"/>
<path d="M193.071 89.1104C191.561 102.95 192.851 109.71 195.711 111.13C198.781 112.66 202.851 108.441 205.241 99.5605C202.911 95.4805 198.131 90.4604 193.071 89.1104Z" fill="#FF929F" stroke="#512921" stroke-width="2.5" stroke-linecap="round" stroke-linejoin="round"/>
<path d="M211.88 54.7506C220.58 56.4806 220.32 66.3504 214.74 70.7804C210.57 74.0904 204.12 74.7306 195.75 71.2506C196.21 68.8406 197.46 62.3205 200.69 62.1105C202.62 57.5805 206.11 53.6006 211.89 54.7506H211.88Z" fill="#FF9210" stroke="#512921" stroke-width="2.5" stroke-miterlimit="10"/>
<path d="M242.322 43.4704C237.832 39.8604 231.572 40.1507 227.332 44.0807" stroke="#512921" stroke-width="3.5" stroke-linecap="round" stroke-linejoin="round"/>
<path d="M155.609 25.8504C161.099 24.1104 166.829 26.6404 169.369 31.8304" stroke="#512921" stroke-width="3.5" stroke-linecap="round" stroke-linejoin="round"/>
<path d="M177.732 68.5502C178.002 75.4602 170.132 79.6802 157.062 79.6302C144.002 79.8202 136.082 75.6904 136.282 68.7704C136.012 61.8604 142.492 52.7801 155.282 52.2001C169.222 51.5701 177.922 61.6402 177.732 68.5502Z" fill="white" stroke="#512921" stroke-width="2.5" stroke-linecap="round" stroke-linejoin="round"/>
<path d="M142.652 60.1505C138.442 60.2905 135.142 64.0804 135.282 68.6104C135.422 73.1404 138.952 76.7006 143.162 76.5606C147.372 76.4206 150.672 72.6307 150.532 68.1007C150.392 63.5707 146.862 60.0105 142.652 60.1505Z" fill="#512921"/>
<path d="M156.99 74.7C146.06 74.76 137.23 78.3102 137.25 82.6302C137.27 86.9502 146.15 90.4001 157.07 90.3401C167.99 90.2801 176.83 86.7304 176.81 82.4104C176.79 78.0904 167.91 74.64 156.99 74.7Z" fill="#FFE465"/>
<path d="M173.62 78.18C170.08 76.05 163.95 74.6601 156.99 74.7001C149.58 74.7401 143.13 76.3904 139.75 78.7904" fill="#FFE465"/>
<path d="M173.62 78.18C170.08 76.05 163.95 74.6601 156.99 74.7001C149.58 74.7401 143.13 76.3904 139.75 78.7904" stroke="#512921" stroke-width="2.5" stroke-linecap="round" stroke-linejoin="round"/>
<path d="M218.258 78.8402C216.128 85.7602 220.858 91.8603 232.428 96.4203C243.908 101.21 251.668 99.8201 254.848 93.6801C258.678 86.2701 253.468 73.8203 241.388 69.6703C228.498 65.2403 220.218 72.4902 218.258 78.8402Z" fill="white" stroke="#512921" stroke-width="2.5" stroke-linecap="round" stroke-linejoin="round"/>
<path d="M233.018 79.9302C231.528 75.6502 227.097 73.3005 223.117 74.6905C219.137 76.0805 217.118 80.6805 218.608 84.9605C220.098 89.2405 224.527 91.5902 228.507 90.2002C232.487 88.8102 234.508 84.2102 233.018 79.9302Z" fill="#512921"/>
<path d="M235.07 91.6004C224.88 87.6704 215.349 87.7403 213.799 91.7703C212.239 95.8003 219.24 102.26 229.44 106.19C239.63 110.12 249.16 110.05 250.71 106.02C252.27 101.99 245.27 95.5304 235.07 91.6004Z" fill="#FFE465"/>
<path d="M249.27 100.91C246.75 97.6404 241.56 94.1104 235.06 91.6004C228.15 88.9304 221.54 88.1102 217.52 89.1102" fill="#FFE465"/>
<path d="M249.27 100.91C246.75 97.6404 241.56 94.1104 235.06 91.6004C228.15 88.9304 221.54 88.1102 217.52 89.1102" stroke="#512921" stroke-width="2.5" stroke-linecap="round" stroke-linejoin="round"/>
<path d="M114.76 162.63C141.31 146.32 184.211 143.621 194.601 119.601C208.051 88.5206 140.73 65.5505 84.6602 152.831" fill="#FFE465"/>
<path d="M114.76 162.63C141.31 146.32 184.211 143.621 194.601 119.601C208.051 88.5206 140.73 65.5505 84.6602 152.831" stroke="#512921" stroke-width="2.37" stroke-linecap="round" stroke-linejoin="round"/>
<path fill-rule="evenodd" clip-rule="evenodd" d="M125.77 239C123.17 239.64 111.62 245.07 105.83 248.93C97.77 254.3 87.86 242.29 99.5 234.74C108.28 229.06 125.81 221.96 132.51 221.59" fill="#FF9210"/>
<path d="M99.5117 234.74C108.292 229.06 125.822 221.96 132.522 221.59" stroke="#512921" stroke-width="2.5" stroke-linecap="round" stroke-linejoin="round"/>
<path d="M125.772 239C123.172 239.64 111.622 245.07 105.832 248.93" stroke="#512921" stroke-width="2.5" stroke-linecap="round" stroke-linejoin="round"/>
<path fill-rule="evenodd" clip-rule="evenodd" d="M123.009 235.11C120.999 240.3 118.479 245.68 115.359 251.03C109.279 262.48 127.449 267.761 131.009 255.521C133.669 250.221 139.149 237.3 140.589 231.09C142.029 224.88 137.739 221.661 133.369 221.601" fill="#FF9210"/>
<path d="M123.009 235.11C120.999 240.3 118.479 245.68 115.359 251.03C109.279 262.48 127.449 267.761 131.009 255.521C133.669 250.221 139.149 237.3 140.589 231.09C142.029 224.88 137.739 221.661 133.369 221.601" stroke="#512921" stroke-width="2.5" stroke-linecap="round" stroke-linejoin="round"/>
<path fill-rule="evenodd" clip-rule="evenodd" d="M115.232 251.48C112.432 254.58 110.842 259.95 111.612 268.47C112.692 280.35 123.622 280.65 126.512 279.67C133.012 277.46 134.892 270.17 133.902 261.2C133.412 256.75 132.052 253.32 130.942 251.69" fill="#FF9210"/>
<path d="M115.232 251.48C112.432 254.58 110.842 259.95 111.612 268.47C112.692 280.35 123.622 280.65 126.512 279.67C133.012 277.46 134.892 270.17 133.902 261.2C133.412 256.75 132.052 253.32 130.942 251.69" stroke="#512921" stroke-width="2.5" stroke-linecap="round" stroke-linejoin="round"/>
</svg>
