<svg width="360" height="327" viewBox="0 0 360 327" fill="none" xmlns="http://www.w3.org/2000/svg">
<path fill-rule="evenodd" clip-rule="evenodd" d="M77.5214 141.512C122.381 135.542 229.581 136.662 285.451 141.512C289.321 141.852 292.521 144.572 293.341 148.232C298.721 172.302 309.781 235.782 297.011 257.482C281.251 285.702 228.772 299.562 181.662 299.472C128.182 299.372 85.4914 283.372 68.5714 260.862C51.5614 238.232 65.4214 170.622 70.0114 148.332C70.7514 144.742 73.7714 142.002 77.5314 141.502L77.5214 141.512Z" fill="#F0503C" stroke="#512921" stroke-width="2.5" stroke-linecap="round" stroke-linejoin="round"/>
<path fill-rule="evenodd" clip-rule="evenodd" d="M147.311 262.122L150.841 306.272C150.841 306.272 141.061 303.132 136.931 309.682C134.641 313.312 134.651 318.762 135.571 321.332C136.091 322.792 137.491 323.492 138.921 324.122C141.541 325.282 162.811 325.352 165.651 324.262C167.401 323.582 168.841 322.372 168.691 320.442C167.731 308.392 164.451 267.102 164.121 263.322C163.031 263.322 147.331 262.132 147.331 262.132L147.311 262.122Z" fill="#FF9210" stroke="#512921" stroke-width="2.5" stroke-linecap="round" stroke-linejoin="round"/>
<path fill-rule="evenodd" clip-rule="evenodd" d="M156.152 307.942C154.072 307.232 150.842 306.272 150.842 306.272L156.152 307.942Z" fill="#FF9210"/>
<path d="M156.152 307.942C154.072 307.232 150.842 306.272 150.842 306.272" stroke="#512921" stroke-width="2.5" stroke-linecap="round" stroke-linejoin="round"/>
<path fill-rule="evenodd" clip-rule="evenodd" d="M215.942 262.122L212.412 306.272C212.412 306.272 222.192 303.132 226.322 309.682C228.612 313.312 228.602 318.762 227.682 321.332C227.162 322.792 225.762 323.492 224.332 324.122C221.712 325.282 200.442 325.352 197.602 324.262C195.852 323.582 194.412 322.372 194.562 320.442C195.522 308.392 198.802 267.102 199.132 263.322C200.222 263.322 215.922 262.132 215.922 262.132L215.942 262.122Z" fill="#FF9210" stroke="#512921" stroke-width="2.5" stroke-linecap="round" stroke-linejoin="round"/>
<path fill-rule="evenodd" clip-rule="evenodd" d="M207.102 307.942C209.182 307.232 212.412 306.272 212.412 306.272L207.102 307.942Z" fill="#FF9210"/>
<path d="M207.102 307.942C209.182 307.232 212.412 306.272 212.412 306.272" stroke="#512921" stroke-width="2.5" stroke-linecap="round" stroke-linejoin="round"/>
<path d="M275.29 224.732C275.594 224.732 275.84 224.486 275.84 224.182C275.84 223.879 275.594 223.632 275.29 223.632C274.987 223.632 274.74 223.879 274.74 224.182C274.74 224.486 274.987 224.732 275.29 224.732Z" fill="#ED1C24"/>
<path d="M275.271 183.082C275.575 183.082 275.821 182.836 275.821 182.532C275.821 182.229 275.575 181.982 275.271 181.982C274.967 181.982 274.721 182.229 274.721 182.532C274.721 182.836 274.967 183.082 275.271 183.082Z" fill="#FF0000"/>
<path d="M87.7903 224.762C88.094 224.762 88.3403 224.516 88.3403 224.212C88.3403 223.908 88.094 223.662 87.7903 223.662C87.4865 223.662 87.2402 223.908 87.2402 224.212C87.2402 224.516 87.4865 224.762 87.7903 224.762Z" fill="#ED1C24"/>
<path d="M87.7708 183.112C88.0745 183.112 88.3208 182.866 88.3208 182.562C88.3208 182.258 88.0745 182.012 87.7708 182.012C87.467 182.012 87.2207 182.258 87.2207 182.562C87.2207 182.866 87.467 183.112 87.7708 183.112Z" fill="#FF0000"/>
<path fill-rule="evenodd" clip-rule="evenodd" d="M149.352 34.4823C149.352 34.4823 150.111 4.61227 171.711 1.48227C186.761 -0.697733 187.711 13.1823 188.261 13.3123C188.261 13.3123 195.442 10.3723 199.542 15.7423C203.242 20.5923 200.332 27.4823 194.362 29.5123C180.422 34.2623 152.242 35.5723 149.352 34.4923V34.4823Z" fill="#FFE465" stroke="#512921" stroke-width="2.5" stroke-linecap="round" stroke-linejoin="round"/>
<path fill-rule="evenodd" clip-rule="evenodd" d="M74.7217 162.862C74.2717 171.732 74.2217 180.382 74.4817 188.562C75.9517 233.572 96.4618 251.222 106.332 258.722C133.752 279.572 172.362 278.062 181.562 278.062C190.762 278.062 229.372 279.572 256.792 258.722C266.662 251.222 287.172 233.562 288.642 188.562C288.882 181.212 288.862 170.662 288.532 162.742C287.682 142.472 252.232 113.982 181.862 114.302C110.382 114.632 75.7317 142.892 74.7217 162.852V162.862Z" fill="#FFE465" stroke="#512921" stroke-width="2.5" stroke-linecap="round" stroke-linejoin="round"/>
<path fill-rule="evenodd" clip-rule="evenodd" d="M288.381 162.812C286.261 100.542 264.461 15.8823 176.961 19.5123C87.2111 23.2323 72.1112 104.542 74.7512 162.852" fill="#FFE465"/>
<path d="M288.381 162.812C286.261 100.542 264.461 15.8823 176.961 19.5123C87.2111 23.2323 72.1112 104.542 74.7512 162.852" stroke="#512921" stroke-width="2.5" stroke-linecap="round" stroke-linejoin="round"/>
<path d="M95.6118 188.432C86.4118 203.012 74.5317 209.602 62.3117 210.732C34.9117 213.472 33.7618 173.192 61.1618 170.452C61.1618 170.452 73.2016 166.992 75.9516 162.352" fill="#FFE465"/>
<path d="M95.6118 188.432C86.4118 203.012 74.5317 209.602 62.3117 210.732C34.9117 213.472 33.7618 173.192 61.1618 170.452C61.1618 170.452 73.2016 166.992 75.9516 162.352" stroke="#512921" stroke-width="2.5" stroke-linecap="round" stroke-linejoin="round"/>
<path d="M284.912 166.752C309.822 164.762 312.262 150.652 322.952 140.572C331.352 132.652 375.232 161.262 348.962 177.462C332.432 197.732 301.572 219.582 254.012 188.632" fill="#FFE465"/>
<path d="M284.912 166.752C309.822 164.762 312.262 150.652 322.952 140.572C331.352 132.652 375.232 161.262 348.962 177.462C332.432 197.732 301.572 219.582 254.012 188.632" stroke="#512921" stroke-width="2.5" stroke-linecap="round" stroke-linejoin="round"/>
<path fill-rule="evenodd" clip-rule="evenodd" d="M291.132 162.832C292.002 153.802 291.062 145.822 289.262 144.342C286.682 142.212 281.442 168.092 180.912 167.152C180.932 167.152 180.942 167.182 180.952 167.242C81.1918 168.082 74.4218 142.272 73.9518 144.482C72.0418 145.062 71.4719 156.162 72.8519 163.382C79.9819 169.822 108.182 197.952 155.222 183.172C165.842 182.642 170.332 186.302 183.272 184.072C183.272 184.062 196.592 181.622 196.592 181.612C254.952 204.562 291.142 162.822 291.142 162.822L291.132 162.832Z" fill="#F0503C"/>
<path d="M72.8418 163.382C79.9718 169.822 108.172 197.952 155.212 183.172C165.832 182.642 196.582 181.622 196.582 181.612C254.942 204.562 291.132 162.822 291.132 162.822" stroke="#512921" stroke-width="2.5" stroke-linecap="round" stroke-linejoin="round"/>
<path d="M289.261 144.342C286.681 142.212 281.441 168.092 180.911 167.152C180.931 167.152 180.941 167.182 180.951 167.242C81.1912 168.082 74.4212 142.272 73.9512 144.482" stroke="#512921" stroke-width="2.5" stroke-linecap="round" stroke-linejoin="round"/>
<path d="M176.597 176.497C176.801 168.021 170.655 160.999 162.871 160.812C155.086 160.624 148.609 167.342 148.405 175.817C148.201 184.293 154.346 191.315 162.131 191.503C169.916 191.69 176.393 184.972 176.597 176.497Z" fill="#F0503C" stroke="#512921" stroke-width="2.5" stroke-miterlimit="10"/>
<path d="M214.294 176.488C214.498 168.012 208.353 160.99 200.568 160.803C192.783 160.615 186.306 167.333 186.102 175.808C185.898 184.284 192.043 191.306 199.828 191.494C207.613 191.681 214.09 184.963 214.294 176.488Z" fill="#F0503C" stroke="#512921" stroke-width="2.5" stroke-miterlimit="10"/>
<path d="M181.332 187.852C187.816 187.852 193.072 182.596 193.072 176.112C193.072 169.629 187.816 164.372 181.332 164.372C174.848 164.372 169.592 169.629 169.592 176.112C169.592 182.596 174.848 187.852 181.332 187.852Z" fill="#F0503C" stroke="#512921" stroke-width="2.5" stroke-miterlimit="10"/>
<path d="M139.932 49.9322C139.932 49.9322 143.652 46.0522 148.662 48.0722C153.672 50.0922 154.092 54.9022 154.092 54.9022" stroke="#512921" stroke-width="3.5" stroke-linecap="round" stroke-linejoin="round"/>
<path d="M222.112 48.2622C222.112 48.2622 218.832 44.0021 213.632 45.4721C208.432 46.9421 207.502 51.6821 207.502 51.6821" stroke="#512921" stroke-width="3.5" stroke-linecap="round" stroke-linejoin="round"/>
<path d="M158.081 109.482C158.981 118.602 152.301 129.072 140.031 129.852C127.771 130.902 119.621 121.532 119.161 112.372C118.261 103.252 124.891 92.0422 137.161 91.2722C149.411 90.2222 157.621 100.322 158.081 109.482Z" fill="white" stroke="#512921" stroke-width="2.5" stroke-linecap="round" stroke-linejoin="round"/>
<path d="M150.74 123.19C154.698 122.959 157.706 119.318 157.458 115.056C157.21 110.794 153.8 107.525 149.842 107.756C145.883 107.986 142.875 111.628 143.123 115.89C143.371 120.152 146.781 123.42 150.74 123.19Z" fill="#512921"/>
<path d="M206.79 106.092C207.24 115.142 215.39 124.392 227.64 123.342C239.92 122.562 246.6 112.212 245.71 103.202C245.26 94.1522 237.06 84.1821 224.81 85.2321C212.54 86.0121 205.9 97.0821 206.79 106.102V106.092Z" fill="white" stroke="#512921" stroke-width="2.5" stroke-linecap="round" stroke-linejoin="round"/>
<path d="M238.275 116.546C242.234 116.315 245.242 112.674 244.994 108.412C244.746 104.15 241.336 100.881 237.377 101.112C233.418 101.342 230.41 104.984 230.658 109.246C230.906 113.508 234.316 116.776 238.275 116.546Z" fill="#512921"/>
<path d="M191.601 117.682C198.821 121.242 203.532 137.752 184.942 139.132C166.352 140.512 166.742 124.662 175.182 118.902C178.272 116.792 178.561 114.632 183.091 114.292C187.621 113.952 188.241 116.022 191.601 117.672V117.682Z" fill="#FF5640" stroke="#512921" stroke-width="2.5" stroke-miterlimit="10"/>
<path d="M192.341 113.632C192.711 118.642 187.791 120.882 183.601 121.192C179.411 121.502 174.211 120.012 173.841 115.002C173.421 109.402 178.001 104.822 182.361 104.492C186.721 104.162 191.921 108.032 192.341 113.622V113.632Z" fill="#FF9210" stroke="#512921" stroke-width="2.5" stroke-miterlimit="10"/>
<path d="M238.241 125.056C246.896 121.668 253.07 116.77 252.032 114.116C250.993 111.462 243.134 112.058 234.479 115.447C225.823 118.835 219.649 123.733 220.688 126.387C221.727 129.041 229.585 128.445 238.241 125.056Z" fill="#FFE465"/>
<path d="M221.342 123.802C223.192 121.182 228.172 117.922 234.472 115.452C239.452 113.502 244.162 112.482 247.462 112.462" fill="#FFE465"/>
<path d="M221.342 123.802C223.192 121.182 228.172 117.922 234.472 115.452C239.452 113.502 244.162 112.482 247.462 112.462" stroke="#512921" stroke-width="2.5" stroke-linecap="round" stroke-linejoin="round"/>
<path d="M148.266 131.813C148.901 129.035 142.071 125.104 133.01 123.032C123.949 120.96 116.088 121.532 115.453 124.31C114.818 127.088 121.648 131.02 130.709 133.092C139.77 135.164 147.631 134.591 148.266 131.813Z" fill="#FFE465"/>
<path d="M147.192 129.322C144.972 127.002 139.561 124.512 132.971 123.002C127.761 121.812 122.952 121.492 119.682 121.972" fill="#FFE465"/>
<path d="M147.192 129.322C144.972 127.002 139.561 124.512 132.971 123.002C127.761 121.812 122.952 121.492 119.682 121.972" stroke="#512921" stroke-width="2.5" stroke-linecap="round" stroke-linejoin="round"/>
<path d="M184.941 139.142C189.741 138.782 192.971 137.412 195.021 135.532C193.131 132.122 188.14 129.212 181.97 128.332C177.15 127.642 172.691 128.352 169.641 130.002C170.041 135.262 174.491 139.922 184.941 139.152V139.142Z" fill="#FF929F" stroke="#512921" stroke-width="2.5" stroke-miterlimit="10"/>
<path d="M64.0215 170.862C57.1915 168.402 49.4215 160.262 38.7315 150.182C19.5215 137.742 8.75166 142.662 10.6717 161.582C7.66166 170.562 4.46147 177.502 12.7315 187.072C24.6615 201.662 43.8715 212.422 62.3015 210.722" fill="#FFE465"/>
<path d="M64.0215 170.862C57.1915 168.402 49.4215 160.262 38.7315 150.182C19.5215 137.742 8.75166 142.662 10.6717 161.582C7.66166 170.562 4.46147 177.502 12.7315 187.072C24.6615 201.662 43.8715 212.422 62.3015 210.722" stroke="#512921" stroke-width="2.5" stroke-linecap="round" stroke-linejoin="round"/>
<path d="M290.131 126.402L347.331 116.192C347.331 116.192 356.631 171.042 342.841 177.782C329.051 184.522 296.411 180.322 294.931 172.322C293.681 165.592 297.291 141.212 297.291 141.212C297.291 141.212 291.731 130.892 290.131 126.402Z" fill="white" stroke="#FF0000" stroke-width="2.2" stroke-linecap="round" stroke-linejoin="round"/>
<path d="M342.45 147.032C336.12 148.072 331.121 135.292 344.171 131.462C358.111 127.372 360.051 142.242 353.391 145.612" fill="#FFE465"/>
<path d="M342.45 147.032C336.12 148.072 331.121 135.292 344.171 131.462C358.111 127.372 360.051 142.242 353.391 145.612" stroke="#512921" stroke-width="2.5" stroke-linecap="round" stroke-linejoin="round"/>
<path d="M343.051 158.172C336.641 158.532 333.032 145.292 346.432 142.872C360.732 140.302 361.071 155.282 354.091 157.932" fill="#FFE465"/>
<path d="M343.051 158.172C336.641 158.532 333.032 145.292 346.432 142.872C360.732 140.302 361.071 155.282 354.091 157.932" stroke="#512921" stroke-width="2.5" stroke-linecap="round" stroke-linejoin="round"/>
<path d="M348.95 177.462C363.45 169.832 359.461 155.052 350.601 155.202C330.961 155.532 336.841 174.602 348.601 168.902" fill="#FFE465"/>
<path d="M348.95 177.462C363.45 169.832 359.461 155.052 350.601 155.202C330.961 155.532 336.841 174.602 348.601 168.902" stroke="#512921" stroke-width="2.5" stroke-linecap="round" stroke-linejoin="round"/>
<path d="M47.1137 118.36L32.166 114.453L8.85243 203.636L23.8001 207.543L47.1137 118.36Z" fill="white" stroke="#FF0000" stroke-width="2.2" stroke-linecap="round" stroke-linejoin="round"/>
<path d="M33.0117 171.522C33.3417 177.462 37.3017 181.192 43.0117 180.092L33.0117 171.522Z" fill="#FFE465"/>
<path d="M33.0117 171.522C33.3417 177.462 37.3017 181.192 43.0117 180.092" stroke="#512921" stroke-width="2.5" stroke-linecap="round" stroke-linejoin="round"/>
<path d="M38.7407 156.172C27.4007 154.372 22.7507 166.182 27.5107 170.452C34.2107 176.472 40.9606 168.922 40.9606 168.922" fill="#FFE465"/>
<path d="M38.7407 156.172C27.4007 154.372 22.7507 166.182 27.5107 170.452C34.2107 176.472 40.9606 168.922 40.9606 168.922" stroke="#512921" stroke-width="2.5" stroke-linecap="round" stroke-linejoin="round"/>
<path d="M4.85078 176.282C-4.30922 189.502 19.2208 194.922 22.1308 184.662C23.8308 178.662 18.7509 173.182 11.6809 175.742" fill="#FFE465"/>
<path d="M4.85078 176.282C-4.30922 189.502 19.2208 194.922 22.1308 184.662C23.8308 178.662 18.7509 173.182 11.6809 175.742" stroke="#512921" stroke-width="2.5" stroke-linecap="round" stroke-linejoin="round"/>
<path d="M8.84118 157.712C-8.81882 166.682 8.70128 182.572 17.4413 175.922C22.5513 172.032 21.9112 164.162 14.6412 161.702" fill="#FFE465"/>
<path d="M8.84118 157.712C-8.81882 166.682 8.70128 182.572 17.4413 175.922C22.5513 172.032 21.9112 164.162 14.6412 161.702" stroke="#512921" stroke-width="2.5" stroke-linecap="round" stroke-linejoin="round"/>
<path d="M21.6717 143.382C7.14166 142.292 1.49163 157.962 11.8916 163.482C22.8916 169.322 30.7716 158.052 21.1216 149.632" fill="#FFE465"/>
<path d="M21.6717 143.382C7.14166 142.292 1.49163 157.962 11.8916 163.482C22.8916 169.322 30.7716 158.052 21.1216 149.632" stroke="#512921" stroke-width="2.5" stroke-linecap="round" stroke-linejoin="round"/>
<path d="M196.232 131.442C208.512 132.902 207.012 149.002 197.782 147.082C191.242 145.722 196.012 136.312 191.092 134.872" fill="#FF9C3E"/>
<path d="M196.232 131.442C208.512 132.902 207.012 149.002 197.782 147.082C191.242 145.722 196.012 136.312 191.092 134.872" stroke="#512921" stroke-width="2.5" stroke-linecap="round" stroke-linejoin="round"/>
</svg>
