<svg width="326" height="324" viewBox="0 0 326 324" fill="none" xmlns="http://www.w3.org/2000/svg">
<path d="M135.374 271.549C138.174 289.029 137.424 310.549 136.724 315.649C135.964 320.519 133.824 321.909 130.724 321.909C126.684 321.909 88.1135 321.909 85.8435 321.909C82.5835 321.909 83.4536 317.989 85.6736 313.799C86.1136 312.969 86.1336 312.229 85.7336 311.319C79.9136 298.229 77.7734 283.129 77.7734 283.129" fill="#FFD2B9"/>
<path d="M135.374 271.549C138.174 289.029 137.424 310.549 136.724 315.649C135.964 320.519 133.824 321.909 130.724 321.909C126.684 321.909 88.1135 321.909 85.8435 321.909C82.5835 321.909 83.4536 317.989 85.6736 313.799C86.1136 312.969 86.1336 312.229 85.7336 311.319C79.9136 298.229 77.7734 283.129 77.7734 283.129" stroke="#4F2A1A" stroke-width="2.5" stroke-linecap="round" stroke-linejoin="round"/>
<path d="M104.532 298.679C121.863 298.679 135.912 284.63 135.912 267.299C135.912 249.969 121.863 235.919 104.532 235.919C87.2015 235.919 73.1523 249.969 73.1523 267.299C73.1523 284.63 87.2015 298.679 104.532 298.679Z" fill="#FFD2B9"/>
<path d="M86.0338 321.909C88.1138 321.909 92.0738 321.909 96.8038 321.909C93.2738 313.909 88.834 313.529 85.204 320.549C84.884 321.169 85.3238 321.909 86.0238 321.909H86.0338ZM105.224 321.909H118.694C114.204 313.269 109.714 313.269 105.224 321.909Z" fill="#FFAA8C" stroke="#512920" stroke-width="2.5" stroke-linecap="round" stroke-linejoin="round"/>
<path d="M152.474 271.549C149.674 289.029 150.424 310.549 151.124 315.649C151.884 320.519 154.024 321.909 157.124 321.909C161.164 321.909 199.734 321.909 202.004 321.909C205.264 321.909 204.394 317.989 202.174 313.799C201.734 312.969 201.714 312.229 202.114 311.319C207.934 298.229 210.074 283.129 210.074 283.129" fill="#FFD2B9"/>
<path d="M152.474 271.549C149.674 289.029 150.424 310.549 151.124 315.649C151.884 320.519 154.024 321.909 157.124 321.909C161.164 321.909 199.734 321.909 202.004 321.909C205.264 321.909 204.394 317.989 202.174 313.799C201.734 312.969 201.714 312.229 202.114 311.319C207.934 298.229 210.074 283.129 210.074 283.129" stroke="#4F2A1A" stroke-width="2.5" stroke-linecap="round" stroke-linejoin="round"/>
<path d="M183.306 298.679C200.636 298.679 214.686 284.63 214.686 267.299C214.686 249.969 200.636 235.919 183.306 235.919C165.975 235.919 151.926 249.969 151.926 267.299C151.926 284.63 165.975 298.679 183.306 298.679Z" fill="#FFD2B9"/>
<path d="M202.622 320.549C198.992 313.529 194.552 313.919 191.022 321.909C195.762 321.909 199.712 321.909 201.792 321.909C202.492 321.909 202.932 321.169 202.612 320.549H202.622ZM169.152 321.909C173.302 321.909 178.022 321.909 182.622 321.909C178.132 313.269 173.642 313.269 169.152 321.909Z" fill="#FFAA8C" stroke="#512920" stroke-width="2.5" stroke-linecap="round" stroke-linejoin="round"/>
<path d="M39.794 217.569C39.794 217.569 36.0741 230.899 34.8341 244.749C34.3341 250.329 33.9341 257.639 31.8141 263.409C31.6641 271.189 26.364 273.069 24.294 268.279C21.584 268.339 25.5242 277.829 17.9542 276.729C3.14419 275.069 -8.01592 243.379 12.3341 206.789L39.784 217.569H39.794Z" fill="#FFD2B9" stroke="#4F2A1A" stroke-width="2.5" stroke-linecap="round" stroke-linejoin="round"/>
<path d="M25.9862 178.019C25.9862 178.019 9.64605 192.029 2.34605 214.429C1.86605 215.889 2.27611 217.489 3.40611 218.539C10.8061 225.339 26.956 230.569 39.526 230.919C41.416 230.969 42.9962 229.669 43.4762 227.839C44.9362 222.129 48.1861 215.549 49.9361 194.889" fill="white"/>
<path d="M25.9862 178.019C25.9862 178.019 9.64605 192.029 2.34605 214.429C1.86605 215.889 2.27611 217.489 3.40611 218.539C10.8061 225.339 26.956 230.569 39.526 230.919C41.416 230.969 42.9962 229.669 43.4762 227.839C44.9362 222.129 48.1861 215.549 49.9361 194.889" stroke="#4F2A1A" stroke-width="2.5" stroke-linecap="round" stroke-linejoin="round"/>
<path d="M35.384 204.559C43.0995 204.559 49.354 198.305 49.354 190.589C49.354 182.874 43.0995 176.619 35.384 176.619C27.6686 176.619 21.4141 182.874 21.4141 190.589C21.4141 198.305 27.6686 204.559 35.384 204.559Z" fill="white"/>
<path d="M257.645 164.049C257.645 164.049 264.704 152.279 271.834 140.349C273.594 137.399 275.364 133.799 277.344 130.379C277.674 125.369 277.864 119.419 280.044 116.679C281.544 114.789 286.255 114.739 287.935 119.439C289.145 117.799 291.135 113.629 294.015 112.159C297.035 110.609 300.045 112.679 299.405 117.349C301.925 116.059 304.794 115.909 306.044 117.369C307.634 119.239 306.865 123.059 304.885 126.079C307.725 125.219 311.025 126.439 310.675 130.049C310.395 132.979 308.364 136.439 306.064 139.659C304.574 158.279 300.725 173.749 280.265 191.119L257.645 164.059V164.049Z" fill="#FFD2B9" stroke="#4F2A1A" stroke-width="2.5" stroke-linecap="round" stroke-linejoin="round"/>
<path d="M257.644 210.889C257.644 210.889 278.064 203.649 285.784 190.519C291.514 180.789 278.964 156.179 267.324 151.409C265.574 150.689 263.634 151.349 262.544 152.899C259.154 157.719 253.794 162.729 244.844 181.429" fill="white"/>
<path d="M257.644 210.889C257.644 210.889 278.064 203.649 285.784 190.519C291.514 180.789 278.964 156.179 267.324 151.409C265.574 150.689 263.634 151.349 262.544 152.899C259.154 157.719 253.794 162.729 244.844 181.429" stroke="#4F2A1A" stroke-width="2.5" stroke-linecap="round" stroke-linejoin="round"/>
<path d="M256.935 204.559C264.65 204.559 270.905 198.305 270.905 190.589C270.905 182.874 264.65 176.619 256.935 176.619C249.219 176.619 242.965 182.874 242.965 190.589C242.965 198.305 249.219 204.559 256.935 204.559Z" fill="white"/>
<path d="M129.954 4.34935C119.284 -0.460655 97.4142 2.67934 98.0242 11.4793C98.6142 20.0193 128.764 16.3293 130.764 16.0693C132.784 16.0493 163.144 15.5593 162.564 7.01934C161.954 -1.78066 139.874 -1.88065 129.954 4.34935Z" fill="#4F2A1A"/>
<path d="M260.825 155.979C267.615 141.249 265.125 128.529 260.385 119.339C258.155 111.509 252.575 92.6994 250.335 84.2794C241.875 52.4094 208.835 3.34942 132.375 7.67942C55.6252 12.0194 30.3152 64.7794 25.7052 97.4494C23.4452 113.439 23.2152 125.909 22.8652 132.949C18.9352 140.769 14.0353 159.429 24.5053 174.819C24.5053 174.819 26.6752 183.069 27.1252 189.729C31.5852 255.229 86.1651 264.979 151.275 260.889C216.175 256.809 266.895 240.519 261.995 175.419C261.495 168.799 262.115 162.249 260.595 155.999H260.815L260.825 155.979Z" fill="#FFD2B9" stroke="#4F2A1A" stroke-width="2.5" stroke-linecap="round" stroke-linejoin="round"/>
<path d="M261.496 154.459C197.976 189.809 40.6757 182.329 23.8257 173.909C19.0157 199.899 5.95561 301.969 143.786 301.969C289.906 301.969 268.396 180.419 264.716 164.079C264.486 163.069 262.396 153.959 261.496 154.459Z" fill="white" stroke="#4F2A1A" stroke-width="2.5" stroke-linecap="round" stroke-linejoin="round"/>
<path d="M209.998 261.599C209.278 261.639 208.697 261.009 208.797 260.299C213.057 230.079 213.107 193.069 213.107 192.669H205.248C205.248 193.069 205.198 229.689 200.988 259.479C200.788 260.919 199.587 261.999 198.137 262.059C180.897 262.799 163.547 263.189 143.777 263.189C124.007 263.189 106.657 262.799 89.4175 262.059C87.9675 261.999 86.7674 261.419 86.5674 259.979C82.3674 230.199 82.3174 193.569 82.3174 193.169L74.4575 192.669C74.4575 193.069 74.5076 230.069 78.7676 260.299C78.8676 261.019 78.2874 261.639 77.5674 261.599C62.8874 260.839 50.4173 259.779 37.5273 258.519C52.9273 280.759 80.6675 298.839 130.238 301.599C130.468 301.609 130.698 301.629 130.938 301.639C132.647 301.729 134.387 301.799 136.147 301.849C136.597 301.859 137.038 301.879 137.488 301.889C139.558 301.939 141.647 301.969 143.787 301.969C145.927 301.969 148.017 301.939 150.087 301.889C150.537 301.879 150.977 301.859 151.427 301.849C153.187 301.799 154.927 301.729 156.637 301.639C156.867 301.629 157.097 301.619 157.337 301.599C206.907 298.839 234.848 280.789 250.248 258.559C237.348 259.819 224.688 260.839 210.008 261.599H209.998Z" fill="#41AAFF" stroke="#4F2A1A" stroke-width="2.5" stroke-linecap="round" stroke-linejoin="round"/>
<path d="M257.644 170.819C257.644 170.819 218.094 208.789 168.664 188.189L257.644 170.819Z" fill="white"/>
<path d="M257.644 170.819C257.644 170.819 218.094 208.789 168.664 188.189" stroke="#4F2A1A" stroke-width="2.5" stroke-linecap="round" stroke-linejoin="round"/>
<path d="M32.9258 186.08C32.9258 186.08 69.3457 215.09 116.856 190.38L32.9258 186.08Z" fill="white"/>
<path d="M32.9258 186.08C32.9258 186.08 69.3457 215.09 116.856 190.38" stroke="#4F2A1A" stroke-width="2.5" stroke-linecap="round" stroke-linejoin="round"/>
<path d="M149.035 179.819C149.035 179.819 157.835 172.759 170.825 169.419C172.415 169.009 174.025 169.999 174.425 171.589C176.355 179.379 176.875 187.859 175.695 197.159C175.485 198.829 173.935 199.999 172.275 199.719C167.115 198.859 156.425 196.379 149.555 189.939L149.035 179.809V179.819Z" fill="#41AAFF" stroke="#4F2A1A" stroke-width="2.5" stroke-linecap="round" stroke-linejoin="round"/>
<path d="M134.986 180.54C134.986 180.54 125.506 174.42 112.246 172.43C110.626 172.19 109.116 173.34 108.886 174.96C107.766 182.91 108.116 191.4 110.246 200.53C110.626 202.17 112.286 203.17 113.916 202.73C118.966 201.34 129.336 197.78 135.516 190.68L134.996 180.55L134.986 180.54Z" fill="#41AAFF" stroke="#4F2A1A" stroke-width="2.5" stroke-linecap="round" stroke-linejoin="round"/>
<path d="M141.946 178.152L141.857 178.156C138.227 178.343 135.436 181.436 135.623 185.065L135.758 187.692C135.944 191.321 139.037 194.112 142.666 193.925L142.756 193.921C146.385 193.734 149.176 190.641 148.99 187.012L148.855 184.385C148.669 180.756 145.576 177.965 141.946 178.152Z" fill="#41AAFF" stroke="#4F2A1A" stroke-width="2.5" stroke-linecap="round" stroke-linejoin="round"/>
<path d="M87.4727 62.8593C90.0427 60.1793 98.5426 56.6393 102.683 56.8493" stroke="#512920" stroke-width="4.5" stroke-linecap="round" stroke-linejoin="round"/>
<path d="M185.706 56.4191C182.806 54.0991 173.926 51.6891 169.836 52.4291" stroke="#512920" stroke-width="4.5" stroke-linecap="round" stroke-linejoin="round"/>
<path d="M140.971 134.256C154.842 132.991 165.377 124.19 164.503 114.598C163.628 105.006 151.674 98.2551 137.803 99.5199C123.932 100.785 113.397 109.586 114.271 119.178C115.146 128.77 127.1 135.521 140.971 134.256Z" fill="#FFAA8C" stroke="#512920" stroke-width="2.5" stroke-linecap="round" stroke-linejoin="round"/>
<path d="M130.484 112.919C130.854 117.019 131.184 120.579 131.364 122.539" stroke="#512920" stroke-width="2.5" stroke-linecap="round" stroke-linejoin="round"/>
<path d="M147.316 111.379C147.686 115.479 148.017 119.039 148.197 120.999" stroke="#512920" stroke-width="2.5" stroke-linecap="round" stroke-linejoin="round"/>
<path d="M70.822 28.4492C71.472 23.1692 48.622 19.3392 34.522 35.7592C25.692 46.0492 24.5021 56.8192 22.8821 65.9492C20.6221 69.7592 20.562 72.7192 22.042 73.7092C30.662 79.4892 49.2122 68.2492 58.2622 56.8392C66.6022 46.3192 69.822 36.5992 70.822 28.4492Z" fill="#FFAA8C" stroke="#512920" stroke-width="2.5" stroke-linecap="round" stroke-linejoin="round"/>
<path d="M190.473 20.7494C188.993 15.6394 210.953 8.22943 227.473 22.1994C237.823 30.9494 240.713 41.3994 243.753 50.1594C246.593 53.5694 247.123 56.4694 245.813 57.6894C238.223 64.7594 219.133 57.9094 208.393 48.0794C198.493 39.0194 192.753 28.6294 190.473 20.7394V20.7494Z" fill="#FFAA8C" stroke="#512920" stroke-width="2.5" stroke-linecap="round" stroke-linejoin="round"/>
<path d="M106.545 123.199C98.4047 119.119 86.3348 120.739 78.2148 125.579" stroke="#4F2A1A" stroke-width="3.5" stroke-linecap="round" stroke-linejoin="round"/>
<path d="M106.757 124.289C98.3766 121.629 84.7366 124.189 78.4766 129.179" stroke="#4F2A1A" stroke-width="3.5" stroke-linecap="round" stroke-linejoin="round"/>
<path d="M174.633 115.589C181.853 110.039 193.343 109.429 202.233 112.649" stroke="#4F2A1A" stroke-width="3.5" stroke-linecap="round" stroke-linejoin="round"/>
<path d="M174.633 116.699C182.353 112.499 194.393 111.989 202.653 115.729" stroke="#4F2A1A" stroke-width="3.5" stroke-linecap="round" stroke-linejoin="round"/>
<path d="M170.372 137.609C169.322 141.749 165.052 146.619 154.202 149.869C139.982 154.139 124.042 151.129 117.422 146.859C115.982 145.929 114.932 144.909 114.222 143.869C111.652 140.149 113.242 136.189 115.292 135.129C117.462 134.009 119.712 135.209 119.712 135.209C119.712 135.209 121.292 135.899 124.082 136.589C128.192 137.609 134.922 138.619 143.072 137.399C152.562 135.979 156.732 134.219 159.212 132.919C159.622 132.709 159.982 132.509 160.312 132.319C162.382 131.159 165.572 128.179 168.432 130.279C169.982 131.419 171.222 134.269 170.372 137.599V137.609Z" fill="#F0503C" stroke="#512920" stroke-width="2.5" stroke-linecap="round" stroke-linejoin="round"/>
<path d="M170.373 137.609C169.323 141.749 165.053 146.619 154.203 149.869C139.983 154.139 124.043 151.129 117.423 146.859C115.983 145.929 114.933 144.909 114.223 143.869C116.233 141.129 119.673 138.609 124.093 136.589C128.203 137.609 134.933 138.619 143.083 137.399C152.573 135.979 156.743 134.219 159.223 132.919C163.823 133.919 167.673 135.529 170.373 137.589V137.609Z" fill="#FF7872" stroke="#512920" stroke-width="2.5" stroke-linecap="round" stroke-linejoin="round"/>
<path d="M50.8828 143.309L56.6128 138.199" stroke="#FF7873" stroke-width="2.5" stroke-linecap="round" stroke-linejoin="round"/>
<path d="M56.6133 143.309L62.3533 138.199" stroke="#FF7873" stroke-width="2.5" stroke-linecap="round" stroke-linejoin="round"/>
<path d="M216.945 123.989L222.675 118.879" stroke="#FF7873" stroke-width="2.5" stroke-linecap="round" stroke-linejoin="round"/>
<path d="M222.676 123.989L228.406 118.879" stroke="#FF7873" stroke-width="2.5" stroke-linecap="round" stroke-linejoin="round"/>
<path d="M288.684 122.839C288.684 122.839 294.293 124.839 294.293 132.079L288.684 122.839Z" fill="#FFD2B9"/>
<path d="M288.684 122.839C288.684 122.839 294.293 124.839 294.293 132.079" stroke="#4F2A1A" stroke-width="2.5" stroke-linecap="round" stroke-linejoin="round"/>
<path d="M271.812 105.989C271.812 105.989 278.353 101.399 286.743 102.089" stroke="#4F2A1A" stroke-width="2.5" stroke-linecap="round" stroke-linejoin="round"/>
<path d="M277.633 108.449C277.633 108.449 282.553 106.009 288.813 106.559" stroke="#4F2A1A" stroke-width="2.5" stroke-linecap="round" stroke-linejoin="round"/>
<path d="M318.945 124.609C318.945 124.609 323.985 130.809 323.905 139.229" stroke="#4F2A1A" stroke-width="2.5" stroke-linecap="round" stroke-linejoin="round"/>
<path d="M316.902 130.589C316.902 130.589 319.692 135.329 319.582 141.609" stroke="#4F2A1A" stroke-width="2.5" stroke-linecap="round" stroke-linejoin="round"/>
</svg>
