<svg width="323" height="293" viewBox="0 0 323 293" fill="none" xmlns="http://www.w3.org/2000/svg">
<path d="M35.51 43.2246C28.84 48.0046 19.64 48.7846 13.58 43.6746C7.82002 38.8146 15.31 30.6346 21.13 35.3846C23.72 37.4946 23.68 44.7646 16.97 47.8646C7.02 52.4646 1.25 44.1346 1.25 44.1346" stroke="#4F2A1A" stroke-width="2.5" stroke-linecap="round" stroke-linejoin="round"/>
<path d="M135.242 217.285C62.3915 217.285 22.5815 225.485 21.1715 237.175C19.7715 248.865 66.1715 260.295 109.382 261.005C113.242 261.185 120.052 261.425 119.872 264.265C119.602 268.485 105.522 268.255 106.572 276.165C107.622 284.065 125.892 284.535 131.862 285.585C129.932 288.395 140.482 292.565 210.592 290.285C252.562 289.705 264.202 279.215 261.022 271.665C258.772 266.325 247.252 261.405 230.732 260.505C220.472 260.145 219.742 257.275 223.202 256.925C238.392 255.385 290.102 250.935 282.372 233.985C274.642 217.025 205.362 217.735 135.242 217.295V217.285Z" fill="white" stroke="#512920" stroke-width="2.5" stroke-linecap="round" stroke-linejoin="round"/>
<path d="M282.878 185.435C286.628 191.425 289.488 199.345 286.758 211.095C291.808 212.385 292.978 215.545 292.968 219.915C298.358 221.635 295.158 229.355 287.868 225.455C282.198 227.585 278.068 227.385 270.838 225.865C263.648 224.675 261.688 227.035 256.758 226.275C250.968 225.385 247.278 223.825 252.898 211.875C258.518 199.935 273.968 185.765 282.868 185.435H282.878Z" fill="#FFAA8C" stroke="#512920" stroke-width="2.5" stroke-linecap="round" stroke-linejoin="round"/>
<path d="M276.449 218.374C279.309 216.144 285.109 217.034 286.759 211.104L276.449 218.374Z" fill="#FFAA8C"/>
<path d="M276.449 218.374C279.309 216.144 285.109 217.034 286.759 211.104" stroke="#512920" stroke-width="2.5" stroke-linecap="round" stroke-linejoin="round"/>
<path d="M139.509 236.355C132.799 230.105 126.949 186.035 126.949 145.065C126.949 77.2747 141.979 11.4746 146.999 8.89461C160.369 -1.68539 177.399 -0.735349 196.399 8.37465C256.089 18.1747 297.419 42.3246 297.419 124.795C297.419 178.055 280.589 213.675 251.229 225.745C222.629 237.495 189.969 240.055 139.509 236.365V236.355Z" fill="#FFD2B9" stroke="#4F2A1A" stroke-width="2.5" stroke-linecap="round" stroke-linejoin="round"/>
<path d="M293.371 132.255C294.911 124.515 301.971 123.165 306.991 123.615C312.781 124.135 323.871 130.885 322.271 141.795C321.041 148.365 310.371 145.345 306.991 141.795C314.661 156.645 312.291 174.455 305.801 175.965C299.311 177.475 293.221 167.565 292.761 155.945C292.371 146.235 292.201 137.955 293.371 132.265V132.255Z" fill="#4F2A1A"/>
<path d="M196.757 179.875C194.037 181.575 172.637 194.465 167.367 197.025" stroke="#FF7873" stroke-width="2.5" stroke-linecap="round" stroke-linejoin="round"/>
<path d="M200.906 169.965C198.186 171.665 176.786 184.555 171.516 187.115" stroke="#FF7873" stroke-width="2.5" stroke-linecap="round" stroke-linejoin="round"/>
<path d="M202.976 161.065C200.256 162.765 178.856 175.655 173.586 178.215" stroke="#FF7873" stroke-width="2.5" stroke-linecap="round" stroke-linejoin="round"/>
<path d="M196.757 157.015C194.037 158.715 172.637 171.605 167.367 174.165" stroke="#FF7873" stroke-width="2.5" stroke-linecap="round" stroke-linejoin="round"/>
<path d="M196.136 149.535C193.416 151.235 172.016 164.125 166.746 166.685" stroke="#FF7873" stroke-width="2.5" stroke-linecap="round" stroke-linejoin="round"/>
<path d="M197.374 140.635C194.654 142.335 173.254 155.225 167.984 157.785" stroke="#FF7873" stroke-width="2.5" stroke-linecap="round" stroke-linejoin="round"/>
<path d="M204.378 121.905C209.698 106.495 204.498 99.1646 201.448 94.6446C198.398 90.1246 199.148 87.4447 194.128 81.4347C186.908 72.7947 173.858 72.2647 163.508 76.5947C157.728 79.7747 147.708 77.2847 143.438 92.6347C139.168 107.985 140.518 128.455 150.588 133.665C156.548 136.795 157.258 141.235 168.218 143.055C181.028 145.185 187.458 138.935 190.378 137.025C193.308 135.125 200.348 133.575 204.368 121.905H204.378Z" fill="white" stroke="#512920" stroke-width="2.5" stroke-linecap="round" stroke-linejoin="round"/>
<path d="M196.779 119.045C199.189 114.125 199.689 105.005 195.879 100.045C191.209 93.9646 191.649 88.6747 183.839 83.8047C179.189 80.9047 174.299 81.7646 170.019 83.0246C170.639 85.9546 168.359 89.1847 165.699 90.2447C163.019 91.3147 159.269 91.3947 155.869 87.5647C152.149 90.2447 148.729 95.2947 147.999 103.805C146.839 117.425 152.759 124.165 157.669 126.795C162.579 129.415 164.509 134.165 172.319 134.165C180.129 134.165 183.689 129.865 186.659 128.295C190.839 126.085 193.779 125.185 196.779 119.055V119.045Z" fill="#4F2A1A"/>
<path d="M180.118 124.635C185.278 127.645 193.618 122.495 194.758 114.795C195.898 107.095 192.018 96.8547 182.878 99.0847C176.048 100.755 177.268 110.985 181.738 111.785C177.178 112.655 174.608 121.435 180.108 124.645L180.118 124.635Z" fill="white"/>
<path d="M161.748 121.845C164.298 120.675 165.588 117.415 164.368 114.215C163.148 111.015 160.098 108.095 156.498 109.465C152.898 110.835 152.368 115.835 154.278 118.925C156.268 122.145 159.668 122.795 161.748 121.845Z" fill="white"/>
<path d="M163.529 101.905C165.859 101.435 167.229 99.4046 166.929 97.2646C166.629 95.1246 164.679 93.6346 162.119 93.9946C159.559 94.3546 158.849 96.4346 159.109 98.3446C159.369 100.245 160.839 102.455 163.519 101.915L163.529 101.905Z" fill="white"/>
<path d="M218.699 146.475C214.259 145.235 210.899 140.155 211.359 134.835" stroke="#512920" stroke-width="4.5" stroke-linecap="round" stroke-linejoin="round"/>
<path d="M145.497 223.245C140.107 212.045 142.347 192.435 152.017 187.995C157.737 185.335 158.417 181.555 168.937 180.005C181.227 178.195 187.397 183.505 190.207 185.125C193.017 186.745 199.767 188.065 203.637 197.985C208.737 211.095 205.267 216.665 202.337 220.515C199.407 224.365 200.307 225.865 197.187 228.205" fill="white"/>
<path d="M145.497 223.245C140.107 212.045 142.347 192.435 152.017 187.995C157.737 185.335 158.417 181.555 168.937 180.005C181.227 178.195 187.397 183.505 190.207 185.125C193.017 186.745 199.767 188.065 203.637 197.985C208.737 211.095 205.267 216.665 202.337 220.515C199.407 224.365 200.307 225.865 197.187 228.205" stroke="#512920" stroke-width="2.5" stroke-linecap="round" stroke-linejoin="round"/>
<path d="M170.236 225.435C174.346 226.505 178.116 226.955 186.656 227.385C194.156 223.245 190.476 220.925 194.956 215.755C198.606 211.545 198.126 203.775 195.816 199.595C192.936 194.385 190.116 193.615 186.106 191.745C183.246 190.415 179.836 186.755 172.346 186.755C169.846 186.755 169.546 186.895 167.986 187.575C168.946 189.065 168.326 192.695 165.716 194.345C163.786 195.565 161.226 196.515 156.386 193.905C152.796 196.435 147.986 201.905 149.006 212.565C149.706 219.805 152.756 220.805 156.336 223.085C163.436 224.175 166.816 224.235 170.226 225.425L170.236 225.435Z" fill="#4F2A1A"/>
<path d="M180.358 195.675C185.318 193.115 193.318 197.495 194.408 204.045C195.498 210.595 191.778 219.305 183.008 217.405C176.448 215.985 177.618 207.285 181.918 206.605C177.548 205.865 175.068 198.395 180.358 195.675Z" fill="white"/>
<path d="M165.469 225.185C163.209 226.475 159.829 225.945 157.749 223.655C155.669 221.365 154.749 217.915 157.699 215.975C160.649 214.035 165.109 215.875 166.749 218.605C168.389 221.335 167.299 224.135 165.459 225.185H165.469Z" fill="white"/>
<path d="M160.107 200.775C162.347 201.175 163.657 202.905 163.377 204.725C163.097 206.545 161.217 207.815 158.767 207.505C156.307 207.205 155.627 205.425 155.877 203.805C156.127 202.185 157.537 200.315 160.107 200.765V200.775Z" fill="white"/>
<path d="M218.128 181.854C214.458 182.474 211.068 186.264 211.318 192.414" stroke="#512920" stroke-width="4.5" stroke-linecap="round" stroke-linejoin="round"/>
<path d="M178.507 217.785C179.657 215.135 183.087 214.405 185.877 215.665C188.377 216.795 189.487 218.025 191.207 218.555C193.807 219.355 194.867 218.055 198.007 219.155C200.887 220.165 202.707 223.215 201.167 226.195C199.647 229.145 196.007 229.945 189.757 226.785C186.737 225.225 184.227 225.075 181.617 223.735C178.597 222.195 177.647 219.735 178.497 217.785H178.507Z" fill="white" stroke="#512920" stroke-width="2.5" stroke-linecap="round" stroke-linejoin="round"/>
<path d="M199.868 230.595C186.668 219.615 154.788 214.555 142.898 225.595L199.868 230.595Z" fill="#FFD2B9"/>
<path d="M199.868 230.595C186.668 219.615 154.788 214.555 142.898 225.595" stroke="#4F2A1A" stroke-width="2.5" stroke-linecap="round" stroke-linejoin="round"/>
<path d="M165.927 141.705C159.737 141.705 154.317 146.115 152.807 153.295C151.737 158.355 153.577 161.265 153.577 165.865C153.577 170.945 151.507 173.765 153.217 179.555C155.137 186.065 160.077 190.035 165.927 190.035C173.427 190.035 179.797 183.845 182.117 174.375C182.727 171.905 185.977 170.055 185.977 166.325C185.977 162.135 182.717 160.465 182.117 157.985C179.797 148.515 173.427 141.715 165.927 141.715V141.705Z" fill="#FFAA8C" stroke="#512920" stroke-width="2.5" stroke-linecap="round" stroke-linejoin="round"/>
<path d="M170.757 160.655C166.717 160.655 163.427 160.125 161.277 158.535L170.757 160.655Z" fill="white"/>
<path d="M170.757 160.655C166.717 160.655 163.427 160.125 161.277 158.535" stroke="#512920" stroke-width="2.5" stroke-linecap="round" stroke-linejoin="round"/>
<path d="M250.188 19.1947C267.518 23.6447 281.638 40.3247 281.598 51.0547C281.558 63.7247 263.548 72.9147 252.008 72.4147C247.128 78.3347 236.738 72.9747 242.378 64.1847C237.498 52.3447 242.108 35.3647 247.058 26.2847C246.458 24.1847 245.018 22.6347 242.258 21.0347C244.628 19.1847 246.478 18.2347 250.188 19.1847V19.1947Z" fill="#FFAA8C" stroke="#512920" stroke-width="2.5" stroke-linecap="round" stroke-linejoin="round"/>
<path d="M247.796 22.0146C247.856 23.1246 247.836 24.7946 247.066 26.2846L247.796 22.0146Z" fill="#FFAA8C"/>
<path d="M247.796 22.0146C247.856 23.1246 247.836 24.7946 247.066 26.2846" stroke="#512920" stroke-width="2.5" stroke-linecap="round" stroke-linejoin="round"/>
<path d="M149.551 72.0747C149.551 72.4347 149.681 72.7946 149.951 73.0846C150.521 73.7146 151.511 73.7647 152.161 73.2047L155.641 70.1747C156.281 69.6147 156.341 68.6546 155.771 68.0246C155.201 67.3946 154.211 67.3446 153.561 67.9046L150.081 70.9347C149.731 71.2347 149.561 71.6547 149.561 72.0747H149.551Z" fill="#FF7873"/>
<path d="M149.551 78.3446C149.551 78.7046 149.681 79.0647 149.951 79.3547C150.521 79.9847 151.511 80.0346 152.161 79.4746L155.641 76.4447C156.281 75.8847 156.341 74.9247 155.771 74.2947C155.201 73.6647 154.211 73.6147 153.561 74.1747L150.081 77.2047C149.731 77.5047 149.561 77.9246 149.561 78.3446H149.551Z" fill="#FF7873"/>
<path d="M148.75 66.2346C148.75 66.5546 148.85 66.8746 149.06 67.1446C149.58 67.8146 150.56 67.9546 151.25 67.4446L154.98 64.7146C155.67 64.2046 155.81 63.2546 155.29 62.5846C154.77 61.9146 153.79 61.7746 153.1 62.2846L149.37 65.0146C148.96 65.3146 148.75 65.7746 148.75 66.2346Z" fill="#FF7873"/>
<path d="M151.121 228.635C151.121 228.995 151.251 229.355 151.521 229.645C152.091 230.275 153.081 230.325 153.731 229.765L157.211 226.735C157.851 226.175 157.911 225.215 157.341 224.585C156.771 223.955 155.781 223.905 155.131 224.465L151.651 227.495C151.301 227.795 151.131 228.215 151.131 228.635H151.121Z" fill="#FF7873"/>
<path d="M151.121 234.915C151.121 235.275 151.251 235.635 151.521 235.925C152.091 236.555 153.081 236.605 153.731 236.045L157.211 233.015C157.851 232.455 157.911 231.494 157.341 230.864C156.771 230.234 155.781 230.184 155.131 230.744L151.651 233.775C151.301 234.075 151.131 234.495 151.131 234.915H151.121Z" fill="#FF7873"/>
<path d="M150.32 222.805C150.32 223.125 150.42 223.445 150.63 223.715C151.15 224.385 152.13 224.525 152.82 224.015L156.55 221.285C157.24 220.775 157.38 219.825 156.86 219.155C156.34 218.485 155.36 218.345 154.67 218.855L150.94 221.585C150.53 221.885 150.32 222.345 150.32 222.805Z" fill="#FF7873"/>
<path d="M196.758 132.575C199.938 137.055 196.668 143.505 196.698 148.335C196.758 155.295 199.538 159.825 199.538 166.425C199.538 170.445 198.148 175.545 198.148 191.705C197.438 191.455 194.858 191.445 192.748 190.095C191.478 189.285 190.388 188.005 189.968 185.905C191.628 183.275 192.298 162.595 189.968 159.125C183.648 153.235 185.628 142.745 185.978 135.855C189.248 133.295 194.608 131.705 196.758 132.585V132.575Z" fill="white"/>
<path d="M189.978 185.905C191.638 183.275 192.308 162.595 189.978 159.125C183.658 153.235 185.358 146.595 185.708 139.705" stroke="#512920" stroke-width="2.5" stroke-linecap="round" stroke-linejoin="round"/>
<path d="M196.759 132.575C199.939 137.055 196.669 143.505 196.699 148.335C196.759 155.295 199.539 159.825 199.539 166.425C199.539 170.445 198.149 175.545 198.149 191.705" stroke="#512920" stroke-width="2.5" stroke-linecap="round" stroke-linejoin="round"/>
<path d="M169.53 173.245C168.71 182.675 171.8 191.595 171.81 204.245C171.81 221.015 168.73 227.525 169.7 241.385C167.72 243.635 158.55 241.825 156.08 240.615C154.84 228.805 158.63 221.935 162.01 216.915C164.28 213.545 162.12 200.365 162.66 191.545C163.2 182.725 164.88 179.795 163.57 175.545C166.1 171.735 166.9 172.905 169.53 173.235V173.245Z" fill="white"/>
<path d="M156.081 240.615C155.831 230.945 155.831 224.085 161.131 218.645C163.961 215.735 162.131 200.355 162.671 191.545C163.211 182.735 164.891 179.795 163.581 175.545" stroke="#512920" stroke-width="2.5" stroke-linecap="round" stroke-linejoin="round"/>
<path d="M169.53 173.245C168.71 182.675 171.87 191.595 171.81 204.245C171.78 209.485 172.46 216.375 171.22 219.885C167.6 230.165 171.02 233.395 169.7 241.385" stroke="#512920" stroke-width="2.5" stroke-linecap="round" stroke-linejoin="round"/>
<path d="M170.757 172.765C166.717 172.765 163.637 173.745 161.277 174.715L170.757 172.765Z" fill="white"/>
<path d="M170.757 172.765C166.717 172.765 163.637 173.745 161.277 174.715" stroke="#512920" stroke-width="2.5" stroke-linecap="round" stroke-linejoin="round"/>
<path d="M196.143 225.005C197.193 228.205 200.883 223.005 201.123 239.615C199.253 240.265 190.273 240.615 189.213 240.385C188.373 237.405 189.773 234.865 189.983 231.825C190.203 228.785 188.443 224.045 186.223 221.435C191.953 222.685 195.313 223.355 196.153 225.005H196.143Z" fill="white"/>
<path d="M189.201 240.385C188.361 237.405 189.761 234.865 189.971 231.825C190.191 228.785 188.431 224.045 186.211 221.435" stroke="#512920" stroke-width="2.5" stroke-linecap="round" stroke-linejoin="round"/>
<path d="M196.973 226.044C198.023 229.244 200.773 226.114 201.123 239.614" stroke="#512920" stroke-width="2.5" stroke-linecap="round" stroke-linejoin="round"/>
<path d="M147.009 9.24452C121.889 120.545 120.419 196.305 143.509 236.295C143.809 236.815 143.399 236.984 142.839 237.154C136.699 239.044 109.929 239.945 77.7988 237.835C76.6488 237.765 75.4688 237.614 74.2688 237.394C67.7888 236.254 60.8588 233.284 56.1388 230.264C34.5988 216.444 13.6388 193.044 8.44882 126.844C3.18882 59.7645 37.8388 13.0845 88.6288 4.4045C88.7588 4.3845 88.8888 4.35449 89.0188 4.33449C108.849 1.06449 129.559 2.13449 146.429 7.58449C147.639 7.97449 147.179 8.49452 147.009 9.24452Z" fill="white" stroke="#4F2A1A" stroke-width="2.5" stroke-linecap="round" stroke-linejoin="round"/>
<path d="M72.0888 218.535C72.2688 221.425 73.0488 229.695 74.2688 237.395C67.7888 236.255 60.8588 233.285 56.1388 230.265C34.5988 216.445 13.6388 193.045 8.44882 126.845C3.18882 59.7645 37.8388 13.0845 88.6288 4.40454C71.8088 52.7845 69.4788 107.735 68.9788 118.505C68.9488 119.115 69.4788 119.485 70.0988 119.485C92.9388 119.595 105.539 119.185 119.539 117.405L119.639 124.605C103.949 127.185 90.2088 127.035 69.8888 126.745C69.0988 126.735 68.4988 127.545 68.4788 128.325C67.5788 162.825 67.9888 183.385 70.9388 209.375C71.0188 210.095 71.5988 210.665 72.3188 210.795C99.9688 215.975 116.809 210.775 121.879 210.435L121.969 216.965C116.949 217.305 100.579 222.485 73.2088 217.475C72.5588 217.355 72.0488 217.895 72.0888 218.545V218.535Z" fill="#41AAFF" stroke="#4F2A1A" stroke-width="2.5" stroke-linecap="round" stroke-linejoin="round"/>
<path d="M136.609 238.125C136.609 238.125 105.899 230.755 121.319 195.695L136.609 238.125Z" fill="white"/>
<path d="M136.609 238.125C136.609 238.125 105.899 230.755 121.319 195.695" stroke="#4F2A1A" stroke-width="2.5" stroke-linecap="round" stroke-linejoin="round"/>
<path d="M128.81 72.9146C128.81 72.9146 94.78 96.7146 119.19 144.455L128.81 72.9146Z" fill="white"/>
<path d="M128.81 72.9146C128.81 72.9146 94.78 96.7146 119.19 144.455" stroke="#4F2A1A" stroke-width="2.5" stroke-linecap="round" stroke-linejoin="round"/>
<path d="M131.017 162.415C131.017 162.415 137.107 153.865 139.457 141.695C139.747 140.205 138.717 138.785 137.207 138.525C129.787 137.255 121.797 137.325 113.157 139.005C111.607 139.305 110.597 140.815 110.967 142.325C112.087 147.015 115.057 156.685 121.507 162.585L131.037 162.405L131.017 162.415Z" fill="#41AAFF" stroke="#4F2A1A" stroke-width="2.5" stroke-linecap="round" stroke-linejoin="round"/>
<path d="M131.158 172.965C131.158 172.965 137.468 181.285 140.138 193.355C140.468 194.825 139.478 196.285 137.968 196.605C130.578 198.145 122.598 198.375 113.908 197.015C112.348 196.775 111.308 195.305 111.628 193.785C112.628 189.055 115.338 179.275 121.628 173.145L131.158 172.965Z" fill="#41AAFF" stroke="#4F2A1A" stroke-width="2.5" stroke-linecap="round" stroke-linejoin="round"/>
<path d="M118.238 165.774L118.319 171.704C118.339 173.434 119.749 174.824 121.449 174.784L130.108 174.624C131.808 174.594 133.179 173.154 133.159 171.424L133.079 165.494C133.059 163.764 131.649 162.374 129.949 162.414L121.289 162.574C119.589 162.604 118.218 164.044 118.238 165.774Z" fill="#41AAFF" stroke="#4F2A1A" stroke-width="2.5" stroke-linecap="round" stroke-linejoin="round"/>
<path d="M23.099 180.985C31.649 172.655 50.869 172.465 61.939 179.065C76.309 187.635 81.019 210.285 69.829 224.275C56.489 240.945 21.799 233.255 17.999 228.945C13.899 230.945 9.879 230.935 8.229 227.155C3.749 216.875 4.61901 193.685 8.61901 186.045C9.62901 183.525 14.849 181.485 23.099 180.985Z" fill="#FFD2B9"/>
<mask id="mask0_16770_66559" style="mask-type:luminance" maskUnits="userSpaceOnUse" x="5" y="174" width="72" height="61">
<path d="M23.099 180.985C31.649 172.655 50.869 172.465 61.939 179.065C76.309 187.635 81.019 210.285 69.829 224.275C56.489 240.945 21.799 233.255 17.999 228.945C13.899 230.945 9.879 230.935 8.229 227.155C3.749 216.875 4.61901 193.685 8.61901 186.045C9.62901 183.525 14.849 181.485 23.099 180.985Z" fill="white"/>
</mask>
<g mask="url(#mask0_16770_66559)">
<path d="M6.15882 225.295C10.2688 224.845 12.1088 222.735 12.0488 220.605C11.9788 218.475 9.69883 216.605 4.87883 216.815C3.03883 220.395 4.71882 223.675 6.15882 225.295Z" fill="#FFAA8C" stroke="#512920" stroke-width="2.5" stroke-linecap="round" stroke-linejoin="round"/>
<path d="M4.62013 209.555C8.77013 209.555 10.9101 207.675 11.1701 205.555C11.4301 203.435 9.45012 201.325 4.64012 201.005C2.27012 204.355 3.44013 207.785 4.62013 209.555Z" fill="#FFAA8C" stroke="#512920" stroke-width="2.5" stroke-linecap="round" stroke-linejoin="round"/>
<path d="M43.9316 183.835C38.4916 181.515 31.2816 180.625 23.1016 180.985" stroke="#4F2A1A" stroke-width="2.5" stroke-linecap="round" stroke-linejoin="round"/>
</g>
<path d="M23.099 180.985C31.649 172.655 50.869 172.465 61.939 179.065C76.309 187.635 81.019 210.285 69.829 224.275C56.489 240.945 21.799 233.255 17.999 228.945C13.899 230.945 9.879 230.935 8.229 227.155C3.749 216.875 4.61901 193.685 8.61901 186.045C9.62901 183.525 14.849 181.485 23.099 180.985Z" stroke="#4F2A1A" stroke-width="2.5" stroke-linecap="round" stroke-linejoin="round"/>
<path d="M14.2908 132.075C23.5208 114.445 48.6908 113.465 59.8408 120.335C74.3108 129.245 86.0308 155.315 69.0608 176.795C55.4108 194.085 21.1408 186.705 17.2908 182.195C13.2108 184.345 9.20079 184.375 7.50079 180.395C2.90079 169.585 3.89082 145.985 7.84082 135.825C8.83082 133.245 11.6608 132.605 14.2808 132.075H14.2908Z" fill="#FFD2B9"/>
<mask id="mask1_16770_66559" style="mask-type:luminance" maskUnits="userSpaceOnUse" x="4" y="116" width="74" height="72">
<path d="M14.2908 132.075C23.5208 114.445 48.6908 113.465 59.8408 120.335C74.3108 129.245 86.0308 155.315 69.0608 176.795C55.4108 194.085 21.1408 186.705 17.2908 182.195C13.2108 184.345 9.20079 184.375 7.50079 180.395C2.90079 169.585 3.89082 145.985 7.84082 135.825C8.83082 133.245 11.6608 132.605 14.2808 132.075H14.2908Z" fill="white"/>
</mask>
<g mask="url(#mask1_16770_66559)">
<path d="M5.40973 178.454C9.51973 177.944 11.3297 175.694 11.2397 173.454C11.1497 171.214 8.83972 169.254 4.02972 169.514C2.22972 173.304 3.94973 176.754 5.40973 178.454Z" fill="#FFAA8C" stroke="#512920" stroke-width="2.5" stroke-linecap="round" stroke-linejoin="round"/>
<path d="M3.68118 161.865C7.83118 161.835 9.95118 159.824 10.1812 157.584C10.4112 155.344 8.40118 153.144 3.59118 152.844C1.26118 156.394 2.47117 160.015 3.67117 161.865H3.68118Z" fill="#FFAA8C" stroke="#512920" stroke-width="2.5" stroke-linecap="round" stroke-linejoin="round"/>
<path d="M42.693 134.384C37.233 131.984 26.463 130.754 14.293 132.074" stroke="#4F2A1A" stroke-width="2.5" stroke-linecap="round" stroke-linejoin="round"/>
</g>
<path d="M14.2908 132.075C23.5208 114.445 48.6908 113.465 59.8408 120.335C74.3108 129.245 86.0308 155.315 69.0608 176.795C55.4108 194.085 21.1408 186.705 17.2908 182.195C13.2108 184.345 9.20079 184.375 7.50079 180.395C2.90079 169.585 3.89082 145.985 7.84082 135.825C8.83082 133.245 11.6608 132.605 14.2808 132.075H14.2908Z" stroke="#4F2A1A" stroke-width="2.5" stroke-linecap="round" stroke-linejoin="round"/>
<path d="M130.59 238.295C122.51 248.805 78.7201 255.015 67.8801 236.675C52.5401 210.855 88.3802 198.075 110.76 213.065C114.75 215.885 121.68 226.285 122.72 231.665" fill="white"/>
<path d="M130.59 238.295C122.51 248.805 78.7201 255.015 67.8801 236.675C52.5401 210.855 88.3802 198.075 110.76 213.065C114.75 215.885 121.68 226.285 122.72 231.665" stroke="#4F2A1A" stroke-width="2.5" stroke-linecap="round" stroke-linejoin="round"/>
<path d="M73.3482 237.875C86.4982 246.825 115.308 238.005 108.608 215.655C107.768 213.505 107.488 211.565 106.758 210.725C108.708 204.435 113.038 182.375 94.8482 176.025C79.0282 170.495 69.2782 180.825 65.5482 195.555C61.6882 210.785 62.3482 227.745 73.3582 237.875H73.3482Z" fill="#FFD2B9" stroke="#4F2A1A" stroke-width="2.5" stroke-linecap="round" stroke-linejoin="round"/>
<path d="M109.056 215.645C112.336 223.835 109.406 229.895 103.566 235.125" stroke="#4F2A1A" stroke-width="2.5" stroke-linecap="round" stroke-linejoin="round"/>
<path d="M103.182 66.5046C85.2818 66.8846 74.5218 76.9647 68.0918 88.7047C56.7818 110.305 98.6618 132.795 112.192 118.525C117.042 112.845 121.032 96.3746 121.032 78.9446" fill="white"/>
<path d="M103.182 66.5046C85.2818 66.8846 74.5218 76.9647 68.0918 88.7047C56.7818 110.305 98.6618 132.795 112.192 118.525C117.042 112.845 121.032 96.3746 121.032 78.9446" stroke="#4F2A1A" stroke-width="2.5" stroke-linecap="round" stroke-linejoin="round"/>
<path d="M69.1914 96.9646C72.1814 94.0546 80.8814 94.1247 88.9814 96.2347L69.1914 96.9646Z" fill="white"/>
<path d="M69.1914 96.9646C72.1814 94.0546 80.8814 94.1247 88.9814 96.2347" stroke="#4F2A1A" stroke-width="2.5" stroke-linecap="round" stroke-linejoin="round"/>
<path d="M108.951 114.485C105.851 121.405 105.681 126.565 105.691 128.515C108.271 136.535 116.701 168.635 96.2711 175.525C78.3211 181.575 65.3511 166.525 62.8211 147.635C60.1411 127.625 62.1811 110.615 72.0311 95.4948C91.7911 91.9748 108.181 103.915 108.951 114.485Z" fill="#FFD2B9" stroke="#4F2A1A" stroke-width="2.5" stroke-linecap="round" stroke-linejoin="round"/>
<path d="M109.933 116.755C110.033 114.815 108.663 107.345 100.633 101.695" stroke="#4F2A1A" stroke-width="2.5" stroke-linecap="round" stroke-linejoin="round"/>
</svg>
