<svg width="279" height="340" viewBox="0 0 279 340" fill="none" xmlns="http://www.w3.org/2000/svg">
<path d="M1.29135 68.9443C1.29135 68.9443 -0.588562 78.4043 21.0014 83.7043C48.6214 90.4943 72.6414 65.4943 65.8614 44.7743C62.1714 33.5143 42.9614 30.9643 31.1214 35.6543C24.1414 38.4243 13.2914 48.2143 5.70139 64.3543C4.78139 66.3043 2.58135 66.4543 1.29135 68.9443Z" fill="#FFAA8C" stroke="#512920" stroke-width="2.5" stroke-linecap="round" stroke-linejoin="round"/>
<path d="M105.661 4.5344C115.131 -2.3456 136.401 -1.3656 138.711 7.2644C140.931 15.5344 112.291 15.9244 103.321 13.8744C91.9515 17.9444 76.3815 20.8444 76.1315 19.0544C74.8715 9.8344 94.6914 0.464398 105.661 4.5444V4.5344Z" fill="#4F2A1A"/>
<path d="M149.551 219.474C75.8713 222.784 34.0312 194.924 25.7812 186.244C17.5312 177.564 1.29127 160.894 14.6913 129.244C14.6913 129.244 4.04132 21.4942 117.871 7.45422C241.721 -7.81578 252.301 99.9842 252.301 99.9842C252.301 99.9842 264.681 128.544 248.671 156.244C235.311 179.354 149.551 219.484 149.551 219.484V219.474Z" fill="#FFD2B9" stroke="#4F2A1A" stroke-width="2.5" stroke-linecap="round" stroke-linejoin="round"/>
<path d="M241.21 34.2442C241.21 34.2442 244.69 43.2442 224.33 52.1742C198.29 63.6042 170.33 43.1042 173.45 21.5242C175.15 9.79417 193.64 3.98417 206.11 6.57417C213.46 8.10417 225.83 15.8842 236.08 30.4842C237.32 32.2442 239.51 32.0142 241.21 34.2442Z" fill="#FFAA8C" stroke="#512920" stroke-width="2.5" stroke-linecap="round" stroke-linejoin="round"/>
<path d="M73.0295 112.364C73.2795 124.694 64.6495 135.694 53.6095 136.284C42.4195 136.874 33.9996 126.524 34.8796 113.854C35.7096 101.894 44.6095 92.4744 54.6795 92.2044C64.6295 91.9444 72.7895 100.714 73.0295 112.364Z" fill="white" stroke="#4F2A1A" stroke-width="2.5" stroke-linecap="round" stroke-linejoin="round"/>
<path d="M94.9292 135.315C108.772 133.37 119.008 124.783 117.793 116.137C116.577 107.49 104.371 102.058 90.5286 104.003C76.6863 105.948 66.45 114.535 67.6652 123.182C68.8804 131.828 81.0869 137.261 94.9292 135.315Z" fill="#FFAA8C" stroke="#512920" stroke-width="2.5" stroke-linecap="round" stroke-linejoin="round"/>
<path d="M95.4805 111.404L97.3505 121.444" stroke="#4F2A1A" stroke-width="2.5" stroke-linecap="round" stroke-linejoin="round"/>
<path d="M79.8906 114.314L81.7606 124.354" stroke="#4F2A1A" stroke-width="2.5" stroke-linecap="round" stroke-linejoin="round"/>
<path d="M173.04 321.375C172.14 325.255 160.11 334.825 144.59 337.155C142.56 337.455 140.47 337.675 138.36 337.825C133.82 338.135 129.21 338.095 125.02 337.825C121.56 337.605 118.38 337.235 115.76 336.765C111.8 336.065 109.13 335.165 108.71 334.315C107.74 332.345 108.55 329.765 109.42 327.935C110.06 326.585 110.72 325.645 110.72 325.645C101.28 315.685 93.1602 296.355 93.1602 295.775L173.05 295.125C173.05 295.125 173.96 317.495 173.05 321.375H173.04Z" fill="#FFD2B9" stroke="#4F2A1A" stroke-width="2.5" stroke-linecap="round" stroke-linejoin="round"/>
<path d="M260.402 321.974C260.242 323.174 259.762 324.414 258.862 325.634C257.382 327.644 254.392 329.104 250.632 330.144C248.092 330.844 245.202 331.344 242.192 331.674C237.422 332.204 232.352 332.314 227.882 332.154C225.282 332.054 222.892 331.864 220.882 331.604C210.022 330.194 199.481 327.254 192.501 320.084C185.521 312.904 176.602 295.124 176.602 295.124C176.602 295.124 251.152 251.164 253.342 257.104C255.542 263.054 254.721 310.984 254.721 310.984C254.721 310.984 261.212 316.134 260.402 321.984V321.974Z" fill="#FFD2B9" stroke="#4F2A1A" stroke-width="2.5" stroke-linecap="round" stroke-linejoin="round"/>
<path d="M275.021 227.414C272.001 242.264 264.911 257.124 251.221 270.014C210.621 308.224 122.591 312.854 80.0508 298.304C63.9908 292.804 50.9209 284.004 40.9909 272.334C22.6009 250.734 14.9809 219.314 19.0809 180.974C19.0809 180.974 54.2608 191.884 111.911 184.934C204.131 173.814 247.321 149.364 255.311 139.274C255.311 139.274 258.791 139.704 259.941 146.924C262.651 149.384 282.971 188.354 275.021 227.434V227.414Z" fill="white" stroke="#4F2A1A" stroke-width="2.5" stroke-linecap="round" stroke-linejoin="round"/>
<path d="M275.022 227.415C272.002 242.265 264.912 257.125 251.222 270.015C210.622 308.225 122.592 312.855 80.0521 298.305C63.9921 292.805 50.9222 284.005 40.9922 272.335C49.2822 273.325 61.2321 274.505 75.3021 275.205C55.4521 243.535 55.9822 201.125 55.9822 201.125L62.8121 201.105C63.5921 238.515 78.0822 266.545 83.3522 275.545C107.152 276.335 135.692 275.525 162.572 270.275C179.612 266.945 195.822 262.555 210.702 257.555C206.802 222.585 195.352 185.775 195.352 185.775L202.402 184.225C210.962 207.575 216.202 241.895 217.992 255.025C241.542 246.565 261.292 236.705 275.012 227.425L275.022 227.415Z" fill="#41AAFF" stroke="#512920" stroke-width="2.5" stroke-linecap="round" stroke-linejoin="round"/>
<path d="M23.8828 191.185C23.8828 191.185 52.2028 221.705 93.3728 197.395L23.8828 191.185Z" fill="white"/>
<path d="M23.8828 191.185C23.8828 191.185 52.2028 221.705 93.3728 197.395" stroke="#4F2A1A" stroke-width="2.5" stroke-linecap="round" stroke-linejoin="round"/>
<path d="M151 190.694C151 190.694 216.93 202.844 244.16 155.864L151 190.694Z" fill="white"/>
<path d="M151 190.694C151 190.694 216.93 202.844 244.16 155.864" stroke="#4F2A1A" stroke-width="2.5" stroke-linecap="round" stroke-linejoin="round"/>
<path d="M123.584 184.714C123.584 184.714 131.724 176.904 144.374 172.434C145.924 171.884 147.614 172.734 148.144 174.284C150.754 181.874 152.014 190.274 151.664 199.644C151.604 201.324 150.154 202.624 148.474 202.494C143.254 202.094 132.394 200.564 124.984 194.754L123.574 184.714H123.584Z" fill="#41AAFF" stroke="#4F2A1A" stroke-width="2.5" stroke-linecap="round" stroke-linejoin="round"/>
<path d="M110.842 186.504C110.842 186.504 100.862 181.244 87.4723 180.424C85.8323 180.324 84.4323 181.604 84.3523 183.244C83.9423 191.264 85.0423 199.684 87.9523 208.594C88.4723 210.194 90.2222 211.044 91.8022 210.454C96.7122 208.624 106.732 204.164 112.252 196.544L110.842 186.504Z" fill="#41AAFF" stroke="#4F2A1A" stroke-width="2.5" stroke-linecap="round" stroke-linejoin="round"/>
<path d="M116.363 183.556L116.274 183.569C112.675 184.074 110.168 187.402 110.674 191L111.04 193.605C111.545 197.203 114.873 199.711 118.471 199.205L118.56 199.192C122.159 198.687 124.666 195.359 124.161 191.761L123.795 189.156C123.289 185.558 119.962 183.05 116.363 183.556Z" fill="#41AAFF" stroke="#4F2A1A" stroke-width="2.5" stroke-linecap="round" stroke-linejoin="round"/>
<path d="M89.0099 143.544C89.0099 143.544 84.0199 154.764 93.6299 156.094C99.9199 156.964 106.23 152.044 106.23 152.044" stroke="#4F2A1A" stroke-width="2.5" stroke-linecap="round" stroke-linejoin="round"/>
<path d="M121.57 43.4344C121.57 43.4344 126.13 33.8344 135.96 40.5944" stroke="#4F2A1A" stroke-width="4.5" stroke-linecap="round" stroke-linejoin="round"/>
<path d="M51.7227 54.8844C51.7227 54.8844 58.2527 42.6344 67.0227 51.5144" stroke="#4F2A1A" stroke-width="4.5" stroke-linecap="round" stroke-linejoin="round"/>
<path d="M170.17 102.715C171.14 115.425 161.26 126.415 147.87 126.685C134.23 126.965 123.16 116.055 123.35 102.935C123.53 90.4445 133.95 80.8645 146.44 80.9845C158.73 81.1045 169.26 90.6045 170.18 102.725L170.17 102.715Z" fill="white" stroke="#4F2A1A" stroke-width="2.5" stroke-linecap="round" stroke-linejoin="round"/>
<path d="M178.141 123.314L183.941 118.274" stroke="#FF7873" stroke-width="2.5" stroke-linecap="round" stroke-linejoin="round"/>
<path d="M183.871 123.384L189.671 118.344" stroke="#FF7873" stroke-width="2.5" stroke-linecap="round" stroke-linejoin="round"/>
<path d="M18.5117 140.974L24.3116 135.944" stroke="#FF7873" stroke-width="2.5" stroke-linecap="round" stroke-linejoin="round"/>
<path d="M24.2422 141.054L30.0421 136.014" stroke="#FF7873" stroke-width="2.5" stroke-linecap="round" stroke-linejoin="round"/>
<path d="M113.82 325.694C113.82 325.694 127.53 328.534 143.99 326.124" stroke="#4F2A1A" stroke-width="2.5" stroke-linecap="round" stroke-linejoin="round"/>
<path d="M221.66 320.614C221.66 320.614 236.4 319.754 249.85 311.564" stroke="#4F2A1A" stroke-width="2.5" stroke-linecap="round" stroke-linejoin="round"/>
<path d="M115.772 336.755C111.812 336.055 109.142 335.154 108.722 334.304C107.752 332.334 108.562 329.754 109.432 327.924C109.692 327.834 109.932 327.804 110.172 327.834C112.172 328.084 114.942 333.435 115.782 336.755H115.772Z" fill="#FFAA8C" stroke="#512920" stroke-width="2.5" stroke-linecap="round" stroke-linejoin="round"/>
<path d="M138.359 337.814C133.819 338.124 129.21 338.084 125.02 337.814C125.68 335.724 127.4 331.424 130.52 330.744C133.48 330.094 136.749 334.984 138.359 337.814Z" fill="#FFAA8C" stroke="#512920" stroke-width="2.5" stroke-linecap="round" stroke-linejoin="round"/>
<path d="M242.193 331.674C237.423 332.204 232.353 332.314 227.883 332.154C229.383 329.474 232.263 324.954 235.023 324.234C237.763 323.524 240.663 328.514 242.193 331.674Z" fill="#FFAA8C" stroke="#512920" stroke-width="2.5" stroke-linecap="round" stroke-linejoin="round"/>
<path d="M260.403 321.975C260.243 323.175 259.763 324.415 258.863 325.635C257.383 327.645 254.393 329.105 250.633 330.145C250.813 327.005 251.363 321.905 253.043 319.885C254.813 317.755 258.433 319.925 260.403 321.985V321.975Z" fill="#FFAA8C" stroke="#512920" stroke-width="2.5" stroke-linecap="round" stroke-linejoin="round"/>
<path d="M71.6726 252.904C74.5445 252.904 76.8727 250.124 76.8727 246.694C76.8727 243.265 74.5445 240.484 71.6726 240.484C68.8007 240.484 66.4727 243.265 66.4727 246.694C66.4727 250.124 68.8007 252.904 71.6726 252.904Z" fill="#FFD2B9" stroke="#4F2A1A" stroke-width="2.5" stroke-linecap="round" stroke-linejoin="round"/>
<path d="M203.313 226.304C206.185 226.304 208.513 223.524 208.513 220.094C208.513 216.665 206.185 213.884 203.313 213.884C200.441 213.884 198.113 216.665 198.113 220.094C198.113 223.524 200.441 226.304 203.313 226.304Z" fill="#FFD2B9" stroke="#4F2A1A" stroke-width="2.5" stroke-linecap="round" stroke-linejoin="round"/>
<path d="M15.6714 248.544C15.6714 248.544 32.1415 280.714 64.2515 264.664C75.8015 258.884 71.6614 245.784 71.6614 245.784C71.6614 245.784 74.2814 241.274 70.9114 237.384C68.5414 234.644 64.5215 233.614 55.7215 234.924C55.7215 234.924 49.3815 223.544 42.4015 220.834C31.9415 216.764 11.6014 230.124 15.6714 248.544Z" fill="#FFD2B9" stroke="#4F2A1A" stroke-width="2.5" stroke-linecap="round" stroke-linejoin="round"/>
<path d="M64.4531 243.454C64.4531 243.454 68.8531 242.674 71.6731 245.784L64.4531 243.454Z" fill="#FFD2B9"/>
<path d="M64.4531 243.454C64.4531 243.454 68.8531 242.674 71.6731 245.784" stroke="#4F2A1A" stroke-width="2.5" stroke-linecap="round" stroke-linejoin="round"/>
<path d="M18.0033 196.264C5.81331 214.194 11.1733 255.494 18.0033 256.314C21.2433 256.704 20.3333 254.944 20.3333 254.944C20.3333 254.944 19.9433 239.324 32.0133 226.914C40.7033 217.974 49.7733 224.974 49.7733 224.974C49.7733 224.974 53.9133 218.984 39.3433 207.774" fill="white"/>
<path d="M18.0033 196.264C5.81331 214.194 11.1733 255.494 18.0033 256.314C21.2433 256.704 20.3333 254.944 20.3333 254.944C20.3333 254.944 19.9433 239.324 32.0133 226.914C40.7033 217.974 49.7733 224.974 49.7733 224.974C49.7733 224.974 53.9133 218.984 39.3433 207.774" stroke="#4F2A1A" stroke-width="2.5" stroke-linecap="round" stroke-linejoin="round"/>
<path d="M230.043 199.084C230.043 199.084 217.673 203.604 210.953 205.894C210.953 205.894 201.183 206.054 200.733 214.174C200.583 216.964 202.163 220.104 202.163 220.104C202.163 220.104 201.553 230.014 211.473 233.184C214.183 234.054 221.033 234.574 221.033 234.574C221.033 234.574 264.033 237.354 271.143 210.654C279.843 178.004 238.943 181.574 234.223 187.394C229.503 193.204 230.033 199.094 230.033 199.094L230.043 199.084Z" fill="#FFD2B9" stroke="#4F2A1A" stroke-width="2.5" stroke-linecap="round" stroke-linejoin="round"/>
<path d="M208.51 213.714C208.51 213.714 204.29 213.714 202.48 220.094" stroke="#4F2A1A" stroke-width="2.5" stroke-linecap="round" stroke-linejoin="round"/>
<path d="M141.566 117.154C148.149 116.338 152.691 109.262 151.71 101.347C150.73 93.4325 144.599 87.6774 138.017 88.4926C131.434 89.3079 126.892 96.3847 127.872 104.299C128.853 112.214 134.984 117.969 141.566 117.154Z" fill="#4F2A1A"/>
<path d="M138.438 105.031C140.869 103.421 141.3 99.79 139.401 96.9211C137.501 94.0523 133.99 93.0317 131.559 94.6416C129.127 96.2515 128.696 99.8823 130.596 102.751C132.495 105.62 136.006 106.641 138.438 105.031Z" fill="white"/>
<path d="M138.957 109.141C139.476 107.555 138.455 105.798 136.675 105.216C134.896 104.633 133.033 105.446 132.514 107.031C131.995 108.616 133.017 110.373 134.796 110.956C136.575 111.538 138.438 110.726 138.957 109.141Z" fill="white"/>
<path d="M51.4625 128.291C57.9706 127.951 62.9152 121.336 62.5067 113.515C62.0982 105.694 56.4913 99.63 49.9832 99.9699C43.4751 100.31 38.5304 106.925 38.9389 114.746C39.3474 122.567 44.9544 128.631 51.4625 128.291Z" fill="#4F2A1A"/>
<path d="M49.4607 115.985C52.0003 114.552 52.688 110.961 50.9969 107.964C49.3057 104.968 45.876 103.701 43.3365 105.134C40.797 106.567 40.1092 110.158 41.8004 113.155C43.4916 116.151 46.9212 117.418 49.4607 115.985Z" fill="white"/>
<path d="M49.4106 119.937C50.0406 118.392 49.1458 116.567 47.4123 115.86C45.6787 115.153 43.7627 115.832 43.1328 117.376C42.5029 118.92 43.3975 120.746 45.1311 121.453C46.8647 122.16 48.7807 121.481 49.4106 119.937Z" fill="white"/>
<path d="M270.621 173.114C283.551 208.414 268.551 216.904 268.551 216.904C264.151 209.644 250.871 201.394 242.171 198.914C234.811 196.814 229.201 199.104 229.201 199.104C229.201 199.104 223.421 194.194 234.421 174.604" fill="white"/>
<path d="M270.621 173.114C283.551 208.414 268.551 216.904 268.551 216.904C264.151 209.644 250.871 201.394 242.171 198.914C234.811 196.814 229.201 199.104 229.201 199.104C229.201 199.104 223.421 194.194 234.421 174.604" stroke="#4F2A1A" stroke-width="2.5" stroke-linecap="round" stroke-linejoin="round"/>
</svg>
