<svg width="378" height="368" viewBox="0 0 378 368" fill="none" xmlns="http://www.w3.org/2000/svg">
<path d="M300.811 175.976C300.811 175.976 308.731 172.716 318.181 175.836C332.841 180.676 336.551 196.116 336.551 207.286C336.551 210.226 338.471 213.706 337.051 217.766C335.871 221.136 318.611 224.176 309.361 215.176C298.241 204.366 297.691 189.926 297.691 189.926" fill="#FFAA8C"/>
<path d="M300.811 175.976C300.811 175.976 308.731 172.716 318.181 175.836C332.841 180.676 336.551 196.116 336.551 207.286C336.551 210.226 338.471 213.706 337.051 217.766C335.871 221.136 318.611 224.176 309.361 215.176C298.241 204.366 297.691 189.926 297.691 189.926" stroke="#512920" stroke-width="2.5" stroke-linecap="round" stroke-linejoin="round"/>
<path d="M274.589 149.376C267.109 152.236 266.499 159.686 272.829 162.196C279.469 164.826 307.849 168.906 309.139 159.576C310.459 149.956 286.669 144.886 274.589 149.376Z" fill="#4F2A1A"/>
<path d="M284.302 160.986C285.072 168.956 278.672 172.816 273.602 168.266C268.292 163.496 252.002 139.886 259.792 134.586C267.822 129.126 282.942 148.166 284.302 160.986Z" fill="#4F2A1A"/>
<path d="M107.03 255.566C107.03 255.566 91.5797 219.836 102.88 189.346C115.48 155.336 151.36 150.496 151.36 150.496C151.36 150.496 193.1 123.076 246.61 136.326C294.02 148.076 323.36 180.436 315.59 226.666C315.38 262.976 298.93 278.806 266.9 280.916C162.89 287.746 107.03 255.576 107.03 255.576V255.566Z" fill="#FFD2B9" stroke="#4F2A1A" stroke-width="2.5" stroke-linecap="round" stroke-linejoin="round"/>
<path d="M92.1087 264.646C92.1087 264.646 48.0186 269.776 32.4286 237.096C32.4286 237.096 29.9586 211.046 54.5186 215.736C79.0786 220.436 95.9487 228.336 95.9487 228.336L92.1087 264.646Z" fill="#FFD2B9" stroke="#4F2A1A" stroke-width="2.5" stroke-linecap="round" stroke-linejoin="round"/>
<path d="M56.3482 216.506C56.3482 216.506 56.0682 208.896 51.2182 207.896C46.0882 206.846 44.6281 213.606 44.6281 213.606C44.6281 213.606 36.7881 204.926 30.6281 207.206C24.4681 209.486 30.3482 216.126 30.3482 216.126C30.3482 216.126 18.9582 217.356 19.4782 224.006C19.8482 228.716 28.4482 228.186 28.4482 228.186C28.4482 228.186 23.3881 231.636 25.1281 235.496C26.3681 238.246 31.4781 239.396 33.3981 239.006" fill="#FFD2B9"/>
<path d="M56.3482 216.506C56.3482 216.506 56.0682 208.896 51.2182 207.896C46.0882 206.846 44.6281 213.606 44.6281 213.606C44.6281 213.606 36.7881 204.926 30.6281 207.206C24.4681 209.486 30.3482 216.126 30.3482 216.126C30.3482 216.126 18.9582 217.356 19.4782 224.006C19.8482 228.716 28.4482 228.186 28.4482 228.186C28.4482 228.186 23.3881 231.636 25.1281 235.496C26.3681 238.246 31.4781 239.396 33.3981 239.006" stroke="#4F2A1A" stroke-width="2.5" stroke-linecap="round" stroke-linejoin="round"/>
<path d="M41.8284 229.596C41.8284 229.596 39.4583 223.426 43.9183 218.776L41.8284 229.596Z" fill="#FFD2B9"/>
<path d="M41.8284 229.596C41.8284 229.596 39.4583 223.426 43.9183 218.776" stroke="#4F2A1A" stroke-width="2.5" stroke-linecap="round" stroke-linejoin="round"/>
<path d="M104.298 229.596C74.7581 212.946 71.118 218.776 71.118 218.776C71.118 218.776 78.1781 225.476 75.3381 248.726C73.7381 261.816 69.8281 264.936 69.8281 264.936C69.8281 264.936 79.2281 270.846 99.7281 264.936" fill="white"/>
<path d="M104.298 229.596C74.7581 212.946 71.118 218.776 71.118 218.776C71.118 218.776 78.1781 225.476 75.3381 248.726C73.7381 261.816 69.8281 264.936 69.8281 264.936C69.8281 264.936 79.2281 270.846 99.7281 264.936" stroke="#4F2A1A" stroke-width="2.5" stroke-linecap="round" stroke-linejoin="round"/>
<path d="M312.111 301.776C311.931 302.506 311.741 303.236 311.541 303.976C300.931 343.056 274.321 365.696 174.381 358.216C89.1106 351.836 81.7006 308.086 80.4106 288.596C80.2506 286.186 80.2307 283.786 80.3307 281.406C81.2607 258.266 93.1907 237.116 95.5807 231.356C94.9407 224.526 98.7606 223.576 98.7606 223.576C107.491 237.576 146.631 252.926 209.631 258.906C272.631 264.886 312.211 250.796 312.211 250.796C312.211 250.796 318.611 275.256 312.121 301.766L312.111 301.776Z" fill="white" stroke="#4F2A1A" stroke-width="2.5" stroke-linecap="round" stroke-linejoin="round"/>
<path d="M312.111 301.776C311.931 302.506 311.741 303.236 311.541 303.976C300.931 343.056 274.321 365.696 174.381 358.216C89.1106 351.836 81.7006 308.086 80.4106 288.596C80.2506 286.186 80.2307 283.786 80.3307 281.406C86.4907 285.296 96.5306 290.336 112.271 295.216C113.691 285.636 117.731 262.356 124.341 254.066L130.291 255.996C130.291 255.996 121.941 274.636 119.001 297.186C127.651 299.586 137.771 301.906 149.611 303.966C173.581 308.146 201.461 309.416 228.471 308.926C229.941 298.446 232.471 281.836 234.891 272.696L241.911 273.306C241.911 273.306 238.951 290.176 236.541 308.726C265.261 307.826 292.421 305.036 312.101 301.766L312.111 301.776Z" fill="#41AAFF" stroke="#4F2A1A" stroke-width="2.5" stroke-linecap="round" stroke-linejoin="round"/>
<path d="M199.289 268.496C199.289 268.496 239.509 291.276 285.849 267.166L199.289 268.496Z" fill="white"/>
<path d="M199.289 268.496C199.289 268.496 239.509 291.276 285.849 267.166" stroke="#4F2A1A" stroke-width="2.5" stroke-linecap="round" stroke-linejoin="round"/>
<path d="M97.9219 237.706C97.9219 237.706 113.722 270.866 161.562 257.626L97.9219 237.706Z" fill="white"/>
<path d="M97.9219 237.706C97.9219 237.706 113.722 270.866 161.562 257.626" stroke="#4F2A1A" stroke-width="2.5" stroke-linecap="round" stroke-linejoin="round"/>
<path d="M178.261 253.606C178.261 253.606 189.291 247.886 204.041 247.076C205.841 246.976 207.371 248.396 207.461 250.196C207.861 259.026 206.591 268.296 203.311 278.086C202.721 279.846 200.791 280.766 199.061 280.116C193.671 278.066 182.661 273.086 176.641 264.656L178.261 253.606Z" fill="#41AAFF" stroke="#4F2A1A" stroke-width="2.5" stroke-linecap="round" stroke-linejoin="round"/>
<path d="M169.659 251.866C169.659 251.866 162.129 242.816 149.749 237.146C148.239 236.456 146.439 237.276 145.759 238.936C142.429 247.096 140.379 256.226 139.879 266.516C139.789 268.366 141.129 269.876 142.839 269.836C148.159 269.706 159.289 268.686 167.309 262.786L169.659 251.866Z" fill="#41AAFF" stroke="#4F2A1A" stroke-width="2.5" stroke-linecap="round" stroke-linejoin="round"/>
<path d="M179.064 258.246C179.792 254.281 177.169 250.477 173.206 249.749C169.244 249.022 165.441 251.647 164.713 255.612L164.21 258.357C163.482 262.322 166.104 266.126 170.067 266.854C174.03 267.581 177.832 264.956 178.56 260.99L179.064 258.246Z" fill="#41AAFF" stroke="#4F2A1A" stroke-width="2.5" stroke-linecap="round" stroke-linejoin="round"/>
<path d="M301.84 242.976C301.84 242.976 294.89 259.426 293.13 276.396C291.37 293.376 316.78 302.986 324.9 298.496C333.02 294.016 350.69 262.426 327.89 240.606C312.73 226.096 301.84 242.966 301.84 242.966V242.976Z" fill="#FFD2B9" stroke="#4F2A1A" stroke-width="2.5" stroke-linecap="round" stroke-linejoin="round"/>
<path d="M299.771 254.226C299.771 254.226 294.861 250.596 294.641 244.976C294.641 244.976 289.251 238.536 291.441 234.736C293.861 230.526 299.271 234.586 299.701 231.526C300.511 225.696 301.761 218.926 305.821 218.926C309.661 218.926 311.161 225.336 311.941 226.326C311.941 226.326 314.321 215.096 320.201 216.856C325.081 218.316 323.691 229.176 323.691 229.176C323.691 229.176 326.591 223.086 331.101 224.426C335.661 225.776 335.391 236.276 331.531 244.616" fill="#FFD2B9"/>
<path d="M299.771 254.226C299.771 254.226 294.861 250.596 294.641 244.976C294.641 244.976 289.251 238.536 291.441 234.736C293.861 230.526 299.271 234.586 299.701 231.526C300.511 225.696 301.761 218.926 305.821 218.926C309.661 218.926 311.161 225.336 311.941 226.326C311.941 226.326 314.321 215.096 320.201 216.856C325.081 218.316 323.691 229.176 323.691 229.176C323.691 229.176 326.591 223.086 331.101 224.426C335.661 225.776 335.391 236.276 331.531 244.616" stroke="#4F2A1A" stroke-width="2.5" stroke-linecap="round" stroke-linejoin="round"/>
<path d="M313.441 246.676C313.441 246.676 312.731 236.766 321.061 234.726L313.441 246.676Z" fill="#FFD2B9"/>
<path d="M313.441 246.676C313.441 246.676 312.731 236.766 321.061 234.726" stroke="#4F2A1A" stroke-width="2.5" stroke-linecap="round" stroke-linejoin="round"/>
<path d="M283.578 275.976C284.908 270.846 290.408 264.116 294.968 262.786C294.968 262.786 295.628 273.826 306.548 280.156C317.848 286.706 335.208 282.156 337.678 277.316C340.148 272.476 330.178 318.216 288.798 304.166" fill="white"/>
<path d="M283.578 275.976C284.908 270.846 290.408 264.116 294.968 262.786C294.968 262.786 295.628 273.826 306.548 280.156C317.848 286.706 335.208 282.156 337.678 277.316C340.148 272.476 330.178 318.216 288.798 304.166" stroke="#4F2A1A" stroke-width="2.5" stroke-linecap="round" stroke-linejoin="round"/>
<path d="M89.8109 300.696C78.0409 297.316 69.8308 299.426 62.0508 300.976C62.0508 300.976 53.7608 296.856 49.6308 303.266C46.4908 308.146 58.9209 345.446 69.8409 349.616C77.5809 352.576 112.401 349.336 122.141 346.656C127.261 345.246 110.181 306.526 89.8209 300.686L89.8109 300.696Z" fill="#FFD2B9" stroke="#4F2A1A" stroke-width="2.5" stroke-linecap="round" stroke-linejoin="round"/>
<path d="M283.58 344.706C280.72 351.406 276.62 356.156 272.09 359.476C263.91 365.466 254.31 366.806 247.99 366.616C243.59 366.476 232.28 366.246 227.12 358.976C226.02 357.426 225.2 355.556 224.79 353.306C223.51 346.326 226 335.016 234.12 325.046C241.72 315.716 255.83 308.316 269.64 313.016C283.65 317.786 288.43 333.376 283.59 344.716L283.58 344.706Z" fill="#FFD2B9" stroke="#4F2A1A" stroke-width="2.5" stroke-linecap="round" stroke-linejoin="round"/>
<path d="M235.021 148.356C234.941 158.246 220.171 164.886 204.221 163.226C190.261 161.776 180.581 154.336 181.081 146.576C181.571 138.936 191.851 132.486 205.461 132.006C220.951 131.456 235.101 138.676 235.011 148.366L235.021 148.356Z" fill="#FFAA8C" stroke="#512920" stroke-width="2.5" stroke-linecap="round" stroke-linejoin="round"/>
<path d="M274.481 167.026C272.461 171.836 260.59 170.986 253.01 168.256C242.97 164.636 236.841 156.876 238.861 152.066C240.881 147.256 250.491 146.706 260.331 150.836C270.171 154.966 276.501 162.216 274.481 167.026Z" fill="white" stroke="#512920" stroke-width="2.5" stroke-linecap="round" stroke-linejoin="round"/>
<path d="M274.551 159.546C282.631 170.046 273.341 175.616 261.551 172.346C246.461 168.146 241.431 159.546 242.191 155.166C243.051 150.186 252.251 147.726 262.081 151.626" stroke="#512920" stroke-width="2.5" stroke-linecap="round" stroke-linejoin="round"/>
<path d="M240.871 149.206C244.001 141.946 261.061 143.706 271.581 153.716C284.831 166.336 263.921 170.076 242.201 159.546" stroke="#512920" stroke-width="2.5" stroke-linecap="round" stroke-linejoin="round"/>
<path d="M259.271 225.296C255.571 243.756 238.831 243.996 228.051 237.716C211.841 228.276 205.841 221.826 190.041 221.826C174.241 221.826 159.711 234.206 145.901 231.226C145.441 231.126 144.991 231.006 144.551 230.876C131.651 227.016 125.432 209.176 131.232 193.066C138.352 173.286 158.942 154.726 177.362 163.486C192.072 170.486 193.592 184.236 219.932 178.256C239.012 173.926 257.382 178.966 259.852 212.856C260.202 217.696 259.971 221.826 259.271 225.296Z" fill="#F0503C" stroke="#512920" stroke-width="2.5" stroke-linecap="round" stroke-linejoin="round"/>
<path d="M224.54 214.366C217.23 220.346 195.4 218.546 190.09 212.186C186.47 207.856 188.23 198.456 200.03 195.866C208.12 194.726 206.45 199.586 205.61 200.846C204 203.266 204.85 207.286 209.27 207.156C212.47 207.066 213.4 203.316 211.12 200.516C209.81 198.906 212.02 195.716 216.74 196.316C229.86 199.616 230.66 209.376 224.55 214.376L224.54 214.366Z" fill="#512920"/>
<path d="M259.271 225.296C255.571 243.756 238.831 243.996 228.051 237.716C211.841 228.276 205.841 221.826 190.041 221.826C174.241 221.826 159.711 234.206 145.901 231.226C145.441 231.126 144.991 231.006 144.551 230.876C146.561 224.356 154.031 207.196 177.081 206.826C194.541 206.546 205.411 214.146 205.411 214.146C205.411 214.146 241.971 205.316 258.291 224.106C258.641 224.506 258.971 224.906 259.281 225.296H259.271Z" fill="#FF7872" stroke="#512920" stroke-width="2.5" stroke-linecap="round" stroke-linejoin="round"/>
<path d="M194.539 143.566C194.539 143.566 197.439 138.466 201.999 135.406" stroke="#4F2A1A" stroke-width="2.5" stroke-linecap="round" stroke-linejoin="round"/>
<path d="M209.18 146.006C209.18 146.006 212.37 140.426 215.56 137.476" stroke="#4F2A1A" stroke-width="2.5" stroke-linecap="round" stroke-linejoin="round"/>
<path d="M192.461 152.986C192.461 152.986 211.681 161.496 227.291 151.916" stroke="#4F2A1A" stroke-width="2.5" stroke-linecap="round" stroke-linejoin="round"/>
<path d="M169.661 149.706C169.661 149.706 160.372 148.696 149.602 150.806" stroke="#512920" stroke-width="2.5" stroke-linecap="round" stroke-linejoin="round"/>
<path d="M273.281 356.636C270.141 363.726 254.301 366.816 247.981 366.626C243.581 366.486 232.271 366.256 227.111 358.986C226.761 357.166 226.691 355.336 226.911 353.596C228.251 343.106 237.661 329.036 254.601 329.606C268.841 330.086 279.401 342.796 273.281 356.636Z" fill="#FFAA8C" stroke="#512920" stroke-width="2.5" stroke-linecap="round" stroke-linejoin="round"/>
<path d="M248.41 325.686C248.41 325.686 275.6 320.706 275.06 346.646" stroke="#512920" stroke-width="2.5" stroke-linecap="round" stroke-linejoin="round"/>
<path d="M55.8594 309.136C59.7994 316.346 66.3693 328.556 70.6393 344.176" stroke="#4F2A1A" stroke-width="2.5" stroke-linecap="round" stroke-linejoin="round"/>
<path d="M53.6106 304.966C54.8806 307.296 55.2006 308.016 57.1806 311.466C58.9206 314.496 61.2206 309.676 60.3106 306.596C59.1006 302.456 52.2706 302.506 53.6006 304.966H53.6106Z" fill="#FFAA8C" stroke="#512920" stroke-width="2.5" stroke-linecap="round" stroke-linejoin="round"/>
<path d="M181.061 191.216C166.261 185.946 134.711 197.276 135.361 179.256C135.691 170.106 140.061 163.486 133.231 156.476C122.041 144.986 95.7314 145.276 98.7514 129.146C101.811 112.756 117.311 116.956 126.491 107.506C133.231 100.576 128.301 90.2362 121.281 86.9862C91.6614 73.2462 99.6814 43.7262 117.621 32.9062C117.621 32.9062 109.751 33.0562 105.761 29.3562C101.771 25.6562 113.461 7.44621 129.051 11.5662C133.321 12.6962 135.881 15.4462 135.881 15.4462C135.881 15.4462 169.101 -2.77379 203.841 9.56621C203.841 9.56621 209.881 -0.243787 220.071 1.44621C226.051 2.44621 233.171 8.5662 236.301 12.5562C236.831 13.2262 233.882 21.8062 228.611 21.8062C228.611 21.8062 262.801 60.3662 225.051 80.3262C213.621 86.3662 200.921 89.2762 192.451 89.8662C185.951 90.3162 175.861 93.2862 173.801 108.086C171.221 126.616 160.971 125.366 153.631 132.726C144.611 141.766 156.951 148.516 162.981 159.296C168.261 168.726 145.781 180.236 167.391 180.416C184.621 180.556 197.121 187.536 198.261 199.926" fill="url(#paint0_linear_16770_66368)"/>
<path d="M181.061 191.216C166.261 185.946 134.711 197.276 135.361 179.256C135.691 170.106 140.061 163.486 133.231 156.476C122.041 144.986 95.7314 145.276 98.7514 129.146C101.811 112.756 117.311 116.956 126.491 107.506C133.231 100.576 128.301 90.2362 121.281 86.9862C91.6614 73.2462 99.6814 43.7262 117.621 32.9062C117.621 32.9062 109.751 33.0562 105.761 29.3562C101.771 25.6562 113.461 7.44621 129.051 11.5662C133.321 12.6962 135.881 15.4462 135.881 15.4462C135.881 15.4462 169.101 -2.77379 203.841 9.56621C203.841 9.56621 209.881 -0.243787 220.071 1.44621C226.051 2.44621 233.171 8.5662 236.301 12.5562C236.831 13.2262 233.881 21.8062 228.611 21.8062C228.611 21.8062 262.801 60.3662 225.051 80.3262C213.621 86.3662 200.921 89.2762 192.451 89.8662C185.951 90.3162 175.861 93.2862 173.801 108.086C171.221 126.616 160.971 125.366 153.631 132.726C144.611 141.766 156.951 148.516 162.981 159.296C168.261 168.726 145.781 180.236 167.391 180.416C184.621 180.556 197.121 187.536 198.261 199.926" stroke="#512920" stroke-width="2.5" stroke-linecap="round" stroke-linejoin="round"/>
<path d="M178.079 63.2363C172.649 61.1863 168.969 69.4763 166.119 74.8863C163.269 80.2963 158.719 82.2863 157.009 73.1763C155.299 64.0663 167.829 44.0063 181.059 47.5463C189.039 49.6863 196.149 60.5062 193.589 69.4762C191.029 78.4463 183.049 65.1163 178.079 63.2363Z" fill="white" stroke="#512920" stroke-width="2.5" stroke-linecap="round" stroke-linejoin="round"/>
<path d="M189.18 33.7462C189.18 33.7462 193.31 32.6061 196.29 33.9561C198.16 34.8061 202.5 37.0462 207.97 36.3062C213.24 35.5962 215.23 37.0861 215.23 37.0861" stroke="#512920" stroke-width="2.5" stroke-linecap="round" stroke-linejoin="round"/>
<path d="M190.262 36.8361C190.262 36.8361 193.312 35.9261 196.292 37.2761C198.162 38.1261 202.502 40.3661 207.972 39.6261C213.242 38.9161 215.902 40.6261 215.902 40.6261" stroke="#512920" stroke-width="2.5" stroke-linecap="round" stroke-linejoin="round"/>
<path d="M157.768 37.9163C157.768 37.9163 153.498 38.2762 151.168 40.5762C149.708 42.0162 146.418 45.6262 141.028 46.8362C135.838 47.9962 134.488 50.0862 134.488 50.0862" stroke="#512920" stroke-width="2.5" stroke-linecap="round" stroke-linejoin="round"/>
<path d="M157.83 41.1863C157.83 41.1863 154.65 41.3863 152.32 43.6863C150.86 45.1263 147.57 48.7363 142.18 49.9463C136.99 51.1063 135.09 53.6363 135.09 53.6363" stroke="#512920" stroke-width="2.5" stroke-linecap="round" stroke-linejoin="round"/>
<path d="M288.84 362.636C288.84 362.636 303.99 353.026 312.7 356.936C317.62 359.146 317.24 362.636 317.24 362.636C317.24 362.636 332.7 340.136 364.02 348.966" stroke="#4F2A1A" stroke-width="2.5" stroke-linecap="round" stroke-linejoin="round"/>
<path d="M325.578 309.096C325.578 309.096 319.218 326.546 333.698 327.606C347.368 328.606 359.468 318.416 359.468 318.416C359.468 318.416 333.268 350.666 375.838 342.836" stroke="#4F2A1A" stroke-width="2.5" stroke-linecap="round" stroke-linejoin="round"/>
<path d="M41.2001 350.796C41.2001 350.796 25.45 344.546 9.79004 346.676C9.79004 346.676 45.38 345.256 1.25 322.476C1.25 322.476 42.5401 338.426 36.5601 319.916" stroke="#4F2A1A" stroke-width="2.5" stroke-linecap="round" stroke-linejoin="round"/>
<defs>
<linearGradient id="paint0_linear_16770_66368" x1="170.661" y1="192.206" x2="170.661" y2="34.5662" gradientUnits="userSpaceOnUse">
<stop stop-color="white" stop-opacity="0.2"/>
<stop offset="1" stop-color="#D9D9D9"/>
</linearGradient>
</defs>
</svg>
