<svg width="258" height="306" viewBox="0 0 258 306" fill="none" xmlns="http://www.w3.org/2000/svg">
<path d="M114.466 257.333C117.096 273.733 116.386 293.923 115.736 298.703C115.016 303.273 113.016 304.573 110.106 304.573C106.316 304.573 70.1256 304.573 68.0056 304.573C65.9356 304.573 65.4456 302.783 66.2756 298.743C66.3956 298.143 66.4556 297.293 66.1356 296.413C62.9856 287.853 59.4156 267.963 60.0456 268.193" fill="#FFD2B9"/>
<path d="M114.466 257.333C117.096 273.733 116.386 293.923 115.736 298.703C115.016 303.273 113.016 304.573 110.106 304.573C106.316 304.573 70.1256 304.573 68.0056 304.573C65.9356 304.573 65.4456 302.783 66.2756 298.743C66.3956 298.143 66.4556 297.293 66.1356 296.413C62.9856 287.853 59.4156 267.963 60.0456 268.193" stroke="#4F2A1A" stroke-width="2.5" stroke-linecap="round" stroke-linejoin="round"/>
<path d="M85.5337 281.733C101.241 281.733 113.974 269 113.974 253.293C113.974 237.586 101.241 224.853 85.5337 224.853C69.8268 224.853 57.0938 237.586 57.0938 253.293C57.0938 269 69.8268 281.733 85.5337 281.733Z" fill="#FFD2B9"/>
<path d="M71.9234 304.573C73.8734 304.573 77.5834 304.573 82.0334 304.573C78.7234 297.073 74.5634 296.703 71.1534 303.293C70.8534 303.873 71.2734 304.573 71.9234 304.573ZM89.9234 304.573C94.2334 304.573 98.6634 304.573 102.553 304.573C98.3434 296.463 94.1334 296.473 89.9234 304.573Z" fill="#FFAA8C" stroke="#4F2A1A" stroke-width="2.5" stroke-linecap="round" stroke-linejoin="round"/>
<path d="M129.114 298.723C130.524 304.573 132.724 304.573 134.724 304.573H175.964C179.074 304.573 178.744 301.283 176.974 298.613C176.564 297.993 176.074 297.413 175.534 296.903C175.014 296.423 174.994 295.703 175.274 295.053C183.294 276.853 183.484 256.523 183.484 256.523L126.524 257.273C124.294 274.293 127.754 293.873 129.104 298.713L129.114 298.723Z" fill="#FFD2B9" stroke="#4F2A1A" stroke-width="2.5" stroke-linecap="round" stroke-linejoin="round"/>
<path d="M168.965 304.583H175.975C179.085 304.583 178.755 301.293 176.985 298.623C174.315 297.943 171.635 299.933 168.965 304.583Z" fill="#FEB498" stroke="#4F2A1A" stroke-width="2.5" stroke-linecap="round" stroke-linejoin="round"/>
<path d="M151.043 304.573C155.353 304.573 159.783 304.573 163.673 304.573C159.463 296.463 155.253 296.473 151.043 304.573Z" fill="#FFAA8C" stroke="#4F2A1A" stroke-width="2.5" stroke-linecap="round" stroke-linejoin="round"/>
<path d="M154.982 281.163C170.115 281.163 182.382 268.896 182.382 253.763C182.382 238.631 170.115 226.363 154.982 226.363C139.849 226.363 127.582 238.631 127.582 253.763C127.582 268.896 139.849 281.163 154.982 281.163Z" fill="#FFD2B9"/>
<path d="M111.991 275.363C109.671 275.603 107.301 275.703 104.901 275.423C102.531 275.153 100.051 274.483 98.0009 272.933C96.9809 272.163 96.1209 271.173 95.4909 270.063C94.8609 268.953 94.4209 267.623 94.5509 266.213C94.6709 264.813 95.4209 263.463 96.5609 262.643C97.6809 261.813 99.2409 261.463 100.651 261.963C102.051 262.473 103.031 263.693 103.411 264.983C103.791 266.263 103.781 267.553 103.511 268.793C103.241 270.033 102.651 271.223 101.791 272.173C100.931 273.133 99.8109 273.823 98.6409 274.223C97.4709 274.613 96.2309 274.843 94.9509 274.693C93.6809 274.563 92.4509 274.023 91.4809 273.223C90.5009 272.433 89.7609 271.433 89.1809 270.383C88.6009 269.323 88.1709 268.233 87.8809 267.033C87.8009 266.703 88.0009 266.363 88.3409 266.283C88.6709 266.203 89.0009 266.403 89.0909 266.723V266.763C89.6609 268.803 90.7309 270.883 92.3409 272.153C93.1409 272.793 94.0909 273.183 95.1009 273.273C96.0909 273.373 97.1609 273.173 98.1309 272.813C100.091 272.123 101.531 270.453 101.901 268.453C102.101 267.473 102.071 266.413 101.771 265.503C101.501 264.623 100.841 263.923 100.081 263.663C99.3109 263.403 98.3909 263.603 97.7009 264.143C97.0009 264.673 96.5709 265.503 96.5109 266.383C96.3909 268.153 97.6809 270.103 99.2809 271.233C100.921 272.403 103.021 272.943 105.161 273.123C107.311 273.303 109.521 273.153 111.721 272.873C112.401 272.783 113.031 273.263 113.121 273.943C113.211 274.623 112.731 275.253 112.051 275.343C112.041 275.343 112.021 275.343 112.011 275.343L111.991 275.363Z" fill="black"/>
<path d="M228.834 187.163C247.404 174.763 253.624 166.383 256.694 144.053C258.774 126.833 209.674 120.603 208.594 141.173C208.564 143.303 213.744 155.293 211.374 169.643" fill="white"/>
<path d="M228.834 187.163C247.404 174.763 253.624 166.383 256.694 144.053C258.774 126.833 209.674 120.603 208.594 141.173C208.564 143.303 213.744 155.293 211.374 169.643" stroke="#4F2A1A" stroke-width="2.5" stroke-linecap="round" stroke-linejoin="round"/>
<path d="M248.542 146.153C251.162 144.343 252.802 141.713 253.022 138.933C253.502 132.913 253.632 126.873 253.162 121.313C250.522 90.023 221.472 78.253 209.392 80.063C197.762 81.803 201.722 95.933 203.152 107.463C203.652 114.503 209.622 123.373 211.622 140.043C211.792 141.433 212.392 143.053 213.262 144.203C220.272 153.453 237.852 153.533 248.542 146.153Z" fill="#FFD2B9" stroke="#4F2A1A" stroke-width="2.5" stroke-linecap="round" stroke-linejoin="round"/>
<path d="M105.711 3.89304C114.551 -1.87696 132.171 -1.48696 132.701 6.77304C133.221 14.783 113.631 14.533 111.831 14.543C110.051 14.763 77.5813 18.363 77.0613 10.353C76.5313 2.09304 96.2013 -0.696957 105.701 3.89304H105.711Z" fill="#4F2A1A"/>
<path d="M226.642 149.653C226.642 149.653 239.042 134.203 225.742 107.393C220.592 97.0131 220.852 79.8731 205.292 56.0531C187.342 28.5731 157.692 4.18311 105.902 7.51311C25.7119 12.6831 8.94189 57.0831 3.06189 114.333C1.03189 134.033 -0.138108 139.463 9.47189 156.223C10.1619 177.813 -10.7981 288.563 131.402 279.423C251.162 271.723 231.152 172.453 226.642 149.663V149.653Z" fill="#FFD2B9" stroke="#4F2A1A" stroke-width="2.52" stroke-linecap="round" stroke-linejoin="round"/>
<path d="M226.643 150.433C181.643 168.643 77.1026 168.993 9.06258 156.003C8.31258 155.863 7.93258 155.373 7.42258 156.583C1.79258 170.023 -27.1874 285.533 116.463 285.533C261.073 285.533 230.863 163.693 227.473 151.143C227.313 150.553 227.193 150.203 226.643 150.433Z" fill="white" stroke="#4F2A1A" stroke-width="2.52" stroke-linecap="round" stroke-linejoin="round"/>
<path d="M76.7708 246.413C77.4008 246.453 77.8608 245.903 77.8008 245.253C75.4708 220.013 76.2408 194.493 76.7208 182.743H84.0908C83.6108 194.543 83.1108 220.523 85.2208 245.583C85.2908 246.403 86.0108 247.013 86.8108 247.083C122.621 249.913 158.081 249.783 184.291 245.873C185.021 245.763 185.621 245.203 185.771 244.453C191.591 215.643 188.881 187.173 188.621 181.863H195.301C195.551 187.113 198.251 215.083 192.621 243.613C192.491 244.283 193.041 244.893 193.691 244.803C202.901 243.423 212.081 241.833 222.241 239.883C207.781 264.803 177.431 285.533 116.461 285.543C93.0608 285.353 73.5808 282.033 57.6508 276.653C33.6408 267.933 19.2008 253.693 10.8008 237.903C27.9608 241.173 58.3808 245.293 76.7508 246.423L76.7708 246.413Z" fill="#41AAFF" stroke="#4F2A1A" stroke-width="2.52" stroke-linecap="round" stroke-linejoin="round"/>
<path d="M218.854 162.533C218.854 162.533 200.164 195.683 159.004 174.533L218.854 162.533Z" fill="white"/>
<path d="M218.854 162.533C218.854 162.533 200.164 195.683 159.004 174.533" stroke="#4F2A1A" stroke-width="2.52" stroke-linecap="round" stroke-linejoin="round"/>
<path d="M41.4336 174.393C41.4336 174.393 69.1636 202.643 109.414 177.733L41.4336 174.393Z" fill="white"/>
<path d="M41.4336 174.393C41.4336 174.393 69.1636 202.643 109.414 177.733" stroke="#4F2A1A" stroke-width="2.52" stroke-linecap="round" stroke-linejoin="round"/>
<path d="M130.103 161.943C130.103 161.943 121.483 156.243 109.473 154.413C108.003 154.193 106.653 155.273 106.453 156.793C105.493 164.253 105.873 172.213 107.863 180.763C108.223 182.303 109.733 183.233 111.193 182.813C115.753 181.493 125.113 178.113 130.643 171.433L130.103 161.943Z" fill="#41AAFF" stroke="#4F2A1A" stroke-width="2.52" stroke-linecap="round" stroke-linejoin="round"/>
<path d="M140.832 161.333C140.832 161.333 148.742 154.683 160.472 151.503C161.902 151.113 163.372 152.033 163.742 153.523C165.542 160.823 166.072 168.773 165.072 177.493C164.892 179.063 163.502 180.163 161.992 179.903C157.312 179.113 147.632 176.823 141.372 170.813L140.832 161.323V161.333Z" fill="#41AAFF" stroke="#4F2A1A" stroke-width="2.52" stroke-linecap="round" stroke-linejoin="round"/>
<path d="M130.862 168.74C131.051 172.043 133.881 174.567 137.184 174.379C140.487 174.19 143.011 171.36 142.822 168.057L142.661 165.231C142.472 161.929 139.642 159.404 136.339 159.593C133.036 159.782 130.512 162.612 130.7 165.915L130.862 168.74Z" fill="#41AAFF" stroke="#4F2A1A" stroke-width="2.52" stroke-linecap="round" stroke-linejoin="round"/>
<path d="M45.8016 22.5031C39.7316 17.5131 24.7616 20.3831 15.1116 31.8231C2.79161 46.4131 2.72161 65.1131 4.90161 73.3931C5.36161 75.1331 6.31161 76.2231 8.07161 75.8631C14.6616 74.5031 27.6316 67.2031 38.1516 52.6631C47.1216 40.2531 50.8416 26.6631 45.8016 22.5131V22.5031Z" fill="#FFAA8C" stroke="#4F2A1A" stroke-width="2.5" stroke-linecap="round" stroke-linejoin="round"/>
<path d="M157.371 14.8831C160.691 10.9331 178.031 5.71311 193.831 20.1431C210.211 35.4931 210.891 60.7031 207.901 60.8931C206.061 61.0131 193.121 41.3531 180.831 31.2231C165.671 18.7331 162.201 16.7331 157.371 14.8831Z" fill="#FFAA8C" stroke="#4F2A1A" stroke-width="2.5" stroke-linecap="round" stroke-linejoin="round"/>
<path d="M170.778 111.833C180.065 110.452 186.369 101.104 184.86 90.9544C183.35 80.8046 174.598 73.6963 165.311 75.0776C156.024 76.4589 149.72 85.8066 151.23 95.9564C152.739 106.106 161.491 113.215 170.778 111.833Z" fill="white" stroke="#4F2A1A" stroke-width="2.5" stroke-linecap="round" stroke-linejoin="round"/>
<path d="M168.292 105.653C172.412 105.653 175.752 102.192 175.752 97.9229C175.752 93.6537 172.412 90.1929 168.292 90.1929C164.172 90.1929 160.832 93.6537 160.832 97.9229C160.832 102.192 164.172 105.653 168.292 105.653Z" fill="#4F2A1A"/>
<path d="M172.453 104.583C174.386 104.583 175.953 102.998 175.953 101.043C175.953 99.0878 174.386 97.5029 172.453 97.5029C170.52 97.5029 168.953 99.0878 168.953 101.043C168.953 102.998 170.52 104.583 172.453 104.583Z" fill="white"/>
<path d="M154.281 105.723C147.281 107.273 142.621 110.023 142.621 113.143C142.621 117.983 153.801 121.913 167.581 121.913C181.371 121.913 192.541 117.983 192.541 113.143C192.541 110.603 189.471 108.313 184.551 106.713" fill="#FFD2B9"/>
<path d="M184.561 106.713C180.111 105.263 174.141 104.373 167.591 104.373C162.701 104.373 158.141 104.863 154.281 105.723" fill="#FFD2B9"/>
<path d="M184.561 106.713C180.111 105.263 174.141 104.373 167.591 104.373C162.701 104.373 158.141 104.863 154.281 105.723" stroke="#4F2A1A" stroke-width="2.52" stroke-linecap="round" stroke-linejoin="round"/>
<path d="M151.383 77.2931C155.163 72.9431 166.493 66.6531 175.003 69.7231C186.343 73.8231 189.043 84.7531 189.043 84.7531" fill="#FFD2B9"/>
<path d="M189.043 84.743C189.043 84.743 153.743 82.983 150.513 80.583C149.703 79.983 150.123 78.743 151.383 77.293" fill="#FFD2B9"/>
<path d="M189.043 84.743C189.043 84.743 153.743 82.983 150.513 80.583C149.703 79.983 150.123 78.743 151.383 77.293" stroke="#4F2A1A" stroke-width="2.52" stroke-linecap="round" stroke-linejoin="round"/>
<path d="M81.2909 117.593C91.5524 117.593 99.8709 109.275 99.8709 99.0131C99.8709 88.7517 91.5524 80.4331 81.2909 80.4331C71.0295 80.4331 62.7109 88.7517 62.7109 99.0131C62.7109 109.275 71.0295 117.593 81.2909 117.593Z" fill="white" stroke="#4F2A1A" stroke-width="2.5" stroke-linecap="round" stroke-linejoin="round"/>
<path d="M82.6514 110.993C86.7715 110.993 90.1114 107.532 90.1114 103.263C90.1114 98.994 86.7715 95.5332 82.6514 95.5332C78.5314 95.5332 75.1914 98.994 75.1914 103.263C75.1914 107.532 78.5314 110.993 82.6514 110.993Z" fill="#4F2A1A"/>
<path d="M86.8125 109.913C88.7455 109.913 90.3125 108.328 90.3125 106.373C90.3125 104.418 88.7455 102.833 86.8125 102.833C84.8795 102.833 83.3125 104.418 83.3125 106.373C83.3125 108.328 84.8795 109.913 86.8125 109.913Z" fill="white"/>
<path d="M97.1712 110.953C104.751 112.503 109.781 115.253 109.781 118.373C109.781 123.213 97.6912 127.143 82.7812 127.143C67.8713 127.143 55.7812 123.213 55.7812 118.373C55.7812 115.833 59.1112 113.543 64.4212 111.943" fill="#FFD2B9"/>
<path d="M64.4102 111.943C69.2302 110.493 75.6802 109.603 82.7702 109.603C88.0602 109.603 93.0002 110.093 97.1602 110.953" fill="#FFD2B9"/>
<path d="M64.4102 111.943C69.2302 110.493 75.6802 109.603 82.7702 109.603C88.0602 109.603 93.0002 110.093 97.1602 110.953" stroke="#4F2A1A" stroke-width="2.52" stroke-linecap="round" stroke-linejoin="round"/>
<path d="M96.1945 78.973C91.7145 75.343 79.4645 71.103 71.6245 75.603C61.1645 81.603 60.3945 92.833 60.3945 92.833" fill="#FFD2B9"/>
<path d="M60.3945 92.8331C60.3945 92.8331 94.8545 84.9831 97.6245 82.0631C98.3145 81.3331 97.6945 80.1831 96.1945 78.9731" fill="#FFD2B9"/>
<path d="M60.3945 92.8331C60.3945 92.8331 94.8545 84.9831 97.6245 82.0631C98.3145 81.3331 97.6945 80.1831 96.1945 78.9731" stroke="#4F2A1A" stroke-width="2.52" stroke-linecap="round" stroke-linejoin="round"/>
<path d="M127.931 119.475C140.911 118.64 150.965 110.689 150.388 101.717C149.811 92.7439 138.821 86.1468 125.841 86.9816C112.862 87.8164 102.808 95.7669 103.385 104.74C103.962 113.712 114.952 120.309 127.931 119.475Z" fill="#FFAA8C" stroke="#4F2A1A" stroke-width="2.5" stroke-linecap="round" stroke-linejoin="round"/>
<path d="M134.555 98.4531C134.805 102.283 135.015 105.623 135.135 107.453L134.555 98.4531Z" fill="white"/>
<path d="M134.555 98.4531C134.805 102.283 135.015 105.623 135.135 107.453" stroke="#4F2A1A" stroke-width="2.5" stroke-linecap="round" stroke-linejoin="round"/>
<path d="M118.812 99.4634C119.062 103.293 119.273 106.633 119.393 108.463L118.812 99.4634Z" fill="white"/>
<path d="M118.812 99.4634C119.062 103.293 119.273 106.633 119.393 108.463" stroke="#4F2A1A" stroke-width="2.5" stroke-linecap="round" stroke-linejoin="round"/>
<path d="M80.4414 67.1429C80.4414 67.1429 98.0814 64.6829 98.0814 57.5029" stroke="#4F2A1A" stroke-width="4.5" stroke-linecap="round" stroke-linejoin="round"/>
<path d="M143.781 54.0732C143.781 54.0732 143.631 60.5732 161.501 58.8832" stroke="#4F2A1A" stroke-width="4.5" stroke-linecap="round" stroke-linejoin="round"/>
<path d="M2.97391 175.263C2.31391 198.033 17.5339 215.593 25.4439 217.373C33.3539 219.153 41.0839 220.783 52.3539 203.533C63.6239 186.283 60.4239 176.283 55.7039 172.143C51.8739 168.773 41.2539 163.133 30.0539 165.793" fill="white"/>
<path d="M2.97391 175.263C2.31391 198.033 17.5339 215.593 25.4439 217.373C33.3539 219.153 41.0839 220.783 52.3539 203.533C63.6239 186.283 60.4239 176.283 55.7039 172.143C51.8739 168.773 41.2539 163.133 30.0539 165.793" stroke="#4F2A1A" stroke-width="2.5" stroke-linecap="round" stroke-linejoin="round"/>
<path d="M91.3568 164.039C93.9301 163.037 95.1911 160.106 94.1734 157.491C93.1556 154.877 90.2444 153.569 87.6711 154.571C85.0978 155.573 83.8368 158.504 84.8546 161.119C85.8723 163.733 88.7835 165.041 91.3568 164.039Z" fill="#FFD2B9" stroke="#4F2A1A" stroke-width="2.5" stroke-linecap="round" stroke-linejoin="round"/>
<path d="M90.6175 158.628C95.6236 157.938 99.4401 155.623 99.1418 153.457C98.8435 151.29 94.5433 150.092 89.5371 150.782C84.531 151.471 80.7145 153.786 81.0128 155.953C81.3112 158.119 85.6113 159.317 90.6175 158.628Z" fill="#38322B"/>
<path d="M25.335 212.893C20.545 204.783 34.015 184.143 38.645 180.513C42.395 171.383 54.475 156.753 67.475 152.593C70.305 150.303 76.245 147.653 78.975 147.853C90.515 148.693 88.055 155.473 84.645 156.723C86.525 156.573 90.665 162.913 89.785 164.843C93.065 169.763 94.0751 183.183 78.615 197.503C64.415 230.533 31.455 223.243 25.335 212.893Z" fill="#FFD2B9" stroke="#4F2A1A" stroke-width="2.5" stroke-linecap="round" stroke-linejoin="round"/>
<path d="M79.0547 158.163C80.1947 156.963 82.8147 156.373 84.9947 156.673L79.0547 158.163Z" fill="#FFD2B9"/>
<path d="M79.0547 158.163C80.1947 156.963 82.8147 156.373 84.9947 156.673" stroke="#4F2A1A" stroke-width="2.5" stroke-linecap="round" stroke-linejoin="round"/>
<path d="M87.6836 167.593C88.2836 167.013 89.3136 165.873 89.7836 164.843L87.6836 167.593Z" fill="#FFD2B9"/>
<path d="M87.6836 167.593C88.2836 167.013 89.3136 165.873 89.7836 164.843" stroke="#4F2A1A" stroke-width="2.5" stroke-linecap="round" stroke-linejoin="round"/>
<path d="M34.3242 196.303C34.5842 191.543 36.1742 185.923 38.6542 180.523L34.3242 196.303Z" fill="#FFD2B9"/>
<path d="M34.3242 196.303C34.5842 191.543 36.1742 185.923 38.6542 180.523" stroke="#4F2A1A" stroke-width="2.5" stroke-linecap="round" stroke-linejoin="round"/>
<path d="M109.152 123.333C109.152 123.333 123.972 124.433 128.152 132.083L109.152 123.333Z" fill="#FFD2B9"/>
<path d="M109.152 123.333C109.152 123.333 123.972 124.433 128.152 132.083" stroke="#4F2A1A" stroke-width="2.52" stroke-linecap="round" stroke-linejoin="round"/>
<path d="M97.6719 49.4032C97.6719 49.4032 104.642 47.3532 104.642 53.3032L97.6719 49.4032Z" fill="#FFD2B9"/>
<path d="M97.4718 48.723C98.2818 48.283 99.1118 48.053 100.012 47.933C100.912 47.843 101.872 47.873 102.852 48.253C103.812 48.623 104.772 49.423 105.152 50.433C105.572 51.433 105.452 52.453 105.082 53.293C104.972 53.533 104.692 53.643 104.462 53.533C104.372 53.493 104.302 53.433 104.252 53.353L104.212 53.293C103.742 52.563 103.502 51.923 103.102 51.533C102.752 51.133 102.432 50.813 101.912 50.603C101.402 50.373 100.742 50.263 100.062 50.193C99.3718 50.113 98.6018 50.103 97.8718 50.073H97.7918C97.3918 50.053 97.0918 49.713 97.1018 49.323C97.1118 49.063 97.2618 48.843 97.4718 48.723Z" fill="#4F2A1A"/>
</svg>
