<svg width="429" height="421" viewBox="0 0 429 421" fill="none" xmlns="http://www.w3.org/2000/svg">
<path d="M219.264 370.518C221.984 387.488 221.254 408.398 220.574 413.348C219.834 418.078 217.754 419.428 214.744 419.428C210.814 419.428 173.354 419.428 171.154 419.428C167.984 419.428 168.824 415.618 170.994 411.548C171.424 410.748 171.444 410.018 171.054 409.138C165.404 396.428 163.324 381.758 163.324 381.758" fill="#FFD2B9"/>
<path d="M219.264 370.518C221.984 387.488 221.254 408.398 220.574 413.348C219.834 418.078 217.754 419.428 214.744 419.428C210.814 419.428 173.354 419.428 171.154 419.428C167.984 419.428 168.824 415.618 170.994 411.548C171.424 410.748 171.444 410.018 171.054 409.138C165.404 396.428 163.324 381.758 163.324 381.758" stroke="#4F2A1A" stroke-width="2.45" stroke-linecap="round" stroke-linejoin="round"/>
<path d="M189.316 396.857C206.15 396.857 219.796 383.211 219.796 366.377C219.796 349.544 206.15 335.897 189.316 335.897C172.482 335.897 158.836 349.544 158.836 366.377C158.836 383.211 172.482 396.857 189.316 396.857Z" fill="#FFD2B9"/>
<path d="M171.348 419.427C173.368 419.427 177.208 419.427 181.808 419.427C178.378 411.657 174.068 411.287 170.548 418.097C170.238 418.697 170.668 419.417 171.348 419.417V419.427ZM189.988 419.427H203.068C198.708 411.037 194.348 411.037 189.988 419.427Z" fill="#FFAA8C" stroke="#512920" stroke-width="2.45" stroke-linecap="round" stroke-linejoin="round"/>
<path d="M235.873 370.518C233.153 387.488 233.883 408.398 234.563 413.348C235.303 418.078 237.383 419.428 240.393 419.428C244.323 419.428 281.783 419.428 283.983 419.428C287.153 419.428 286.313 415.618 284.143 411.548C283.713 410.748 283.693 410.018 284.083 409.138C289.733 396.428 291.813 381.758 291.813 381.758" fill="#FFD2B9"/>
<path d="M235.873 370.518C233.153 387.488 233.883 408.398 234.563 413.348C235.303 418.078 237.383 419.428 240.393 419.428C244.323 419.428 281.783 419.428 283.983 419.428C287.153 419.428 286.313 415.618 284.143 411.548C283.713 410.748 283.693 410.018 284.083 409.138C289.733 396.428 291.813 381.758 291.813 381.758" stroke="#4F2A1A" stroke-width="2.45" stroke-linecap="round" stroke-linejoin="round"/>
<path d="M265.812 396.857C282.646 396.857 296.292 383.211 296.292 366.377C296.292 349.544 282.646 335.897 265.812 335.897C248.978 335.897 235.332 349.544 235.332 366.377C235.332 383.211 248.978 396.857 265.812 396.857Z" fill="#FFD2B9"/>
<path d="M284.584 418.097C281.064 411.277 276.744 411.657 273.324 419.427C277.924 419.427 281.764 419.427 283.784 419.427C284.464 419.427 284.894 418.707 284.584 418.107V418.097ZM252.074 419.427C256.104 419.427 260.694 419.427 265.154 419.427C260.794 411.037 256.434 411.037 252.074 419.427Z" fill="#FFAA8C" stroke="#512920" stroke-width="2.45" stroke-linecap="round" stroke-linejoin="round"/>
<path d="M67.2341 235.007C67.2341 235.007 57.7741 230.937 58.4441 225.367C59.0641 220.217 64.9441 221.577 64.9441 221.577" fill="#FFD2B9"/>
<path d="M67.2341 235.007C67.2341 235.007 57.7741 230.937 58.4441 225.367C59.0641 220.217 64.9441 221.577 64.9441 221.577" stroke="#4F2A1A" stroke-width="2.92" stroke-linecap="round" stroke-linejoin="round"/>
<path d="M67.174 217.638C67.174 217.638 61.444 209.288 65.034 204.958C68.344 200.958 75.964 205.998 75.964 205.998" fill="#FFD2B9"/>
<path d="M67.174 217.638C67.174 217.638 61.444 209.288 65.034 204.958C68.344 200.958 75.964 205.998 75.964 205.998" stroke="#4F2A1A" stroke-width="2.92" stroke-linecap="round" stroke-linejoin="round"/>
<path d="M79.125 208.827C79.125 208.827 80.815 199.557 86.435 199.737C91.615 199.907 92.255 210.587 92.255 210.587" fill="#FFD2B9"/>
<path d="M79.125 208.827C79.125 208.827 80.815 199.557 86.435 199.737C91.615 199.907 92.255 210.587 92.255 210.587" stroke="#4F2A1A" stroke-width="2.92" stroke-linecap="round" stroke-linejoin="round"/>
<path d="M91.7049 273.708C91.7049 273.708 77.6749 255.608 70.8149 242.818C65.2149 232.388 60.2049 214.168 72.7949 207.398C85.3849 200.628 93.3649 203.978 117.835 257.398L91.7049 273.708Z" fill="#FFD2B9"/>
<path d="M91.9955 208.958C96.5755 218.988 102.815 228.808 117.835 257.388L91.7055 273.698C91.7055 273.698 74.7255 246.988 66.1055 234.648" stroke="#4F2A1A" stroke-width="2.63" stroke-linecap="round" stroke-linejoin="round"/>
<path d="M74.9922 206.337C76.8022 205.467 79.2222 205.057 81.1722 205.047" stroke="#4F2A1A" stroke-width="2.63" stroke-linecap="round" stroke-linejoin="round"/>
<path d="M63.5234 222.548C65.0434 219.798 65.5234 217.218 66.0134 214.498" stroke="#4F2A1A" stroke-width="2.63" stroke-linecap="round" stroke-linejoin="round"/>
<path d="M111.926 297.307C111.926 297.307 93.7261 285.777 80.0461 267.437C79.1561 266.237 79.0261 264.467 79.2261 262.987C81.0161 249.647 98.2561 236.757 110.046 239.357C111.846 239.757 112.726 240.787 113.726 242.327C116.846 247.127 121.876 252.167 129.916 270.637" fill="white"/>
<path d="M111.926 297.307C111.926 297.307 93.7261 285.777 80.0461 267.437C79.1561 266.237 79.0261 264.467 79.2261 262.987C81.0161 249.647 98.2561 236.757 110.046 239.357C111.846 239.757 112.726 240.787 113.726 242.327C116.846 247.127 121.876 252.167 129.916 270.637" stroke="#4F2A1A" stroke-width="2.45" stroke-linecap="round" stroke-linejoin="round"/>
<path d="M115.472 293.388C122.967 293.388 129.042 287.312 129.042 279.818C129.042 272.323 122.967 266.248 115.472 266.248C107.978 266.248 101.902 272.323 101.902 279.818C101.902 287.312 107.978 293.388 115.472 293.388Z" fill="white"/>
<path d="M289.543 198.897C317.003 170.577 349.603 140.747 349.603 140.747C349.603 140.747 381.793 160.517 391.003 201.887C391.003 201.887 351.853 229.647 315.713 242.827" fill="#F5E1B3"/>
<path d="M289.543 198.897C317.003 170.577 349.603 140.747 349.603 140.747C349.603 140.747 381.793 160.517 391.003 201.887C391.003 201.887 351.853 229.647 315.713 242.827" stroke="#4F2A1A" stroke-width="2.47" stroke-linecap="round" stroke-linejoin="round"/>
<path d="M333.653 177.667C322.743 186.077 317.373 190.367 315.933 191.467C313.183 193.567 310.323 195.487 307.493 197.437C306.873 197.867 306.033 198.307 305.603 198.357C305.013 198.417 304.583 198.207 304.353 197.897C304.263 197.777 304.833 197.077 305.213 196.657C306.073 195.707 306.933 194.727 307.933 193.847C309.613 192.357 311.453 190.977 313.133 189.487C314.783 188.027 316.303 186.487 317.903 184.987C318.743 184.197 319.573 183.347 320.483 182.657C323.263 180.547 326.143 178.587 328.873 176.417C331.703 174.177 334.413 171.787 337.143 169.437C339.643 167.297 342.053 165.057 344.603 162.987C347.503 160.637 350.493 158.397 353.483 156.167C355.363 154.757 357.343 154.737 357.553 155.747C357.673 156.327 357.583 156.927 357.203 157.607C356.563 158.767 355.353 159.797 354.893 160.197C341.763 171.427 333.643 177.677 333.643 177.677L333.653 177.667Z" fill="#D9BA7D"/>
<path d="M339.022 189.207C327.432 197.077 321.712 201.107 320.182 202.127C317.262 204.097 314.242 205.867 311.252 207.677C310.602 208.077 309.722 208.477 309.272 208.497C308.672 208.527 308.252 208.287 308.042 207.967C307.962 207.847 308.582 207.167 309.002 206.767C309.942 205.867 310.872 204.917 311.942 204.087C313.742 202.687 315.692 201.387 317.492 199.987C319.252 198.607 320.902 197.137 322.612 195.717C323.512 194.967 324.412 194.157 325.382 193.517C328.332 191.547 331.372 189.727 334.282 187.697C337.292 185.597 340.192 183.337 343.112 181.117C345.782 179.097 348.372 176.977 351.092 175.027C354.172 172.817 357.362 170.727 360.522 168.637C362.522 167.317 364.512 167.407 364.652 168.427C364.732 169.017 364.592 169.617 364.172 170.277C363.442 171.407 362.152 172.377 361.652 172.757C347.622 183.337 339.002 189.197 339.002 189.197L339.022 189.207Z" fill="#D9BA7D"/>
<path d="M342.582 200.937C329.552 208.297 323.102 212.087 321.392 213.047C318.112 214.887 314.742 216.527 311.412 218.207C310.682 218.577 309.712 218.937 309.252 218.937C308.622 218.937 308.212 218.667 308.032 218.337C307.962 218.207 308.692 217.557 309.172 217.167C310.252 216.297 311.342 215.387 312.562 214.597C314.612 213.267 316.792 212.057 318.842 210.727C320.852 209.417 322.742 208.017 324.692 206.667C325.722 205.957 326.762 205.187 327.842 204.577C331.162 202.737 334.542 201.047 337.822 199.147C341.212 197.177 344.512 195.037 347.822 192.947C350.852 191.037 353.802 189.027 356.872 187.197C360.352 185.127 363.922 183.167 367.472 181.217C369.712 179.987 371.782 180.187 371.812 181.227C371.832 181.837 371.612 182.427 371.092 183.077C370.202 184.187 368.742 185.107 368.172 185.467C352.272 195.457 342.582 200.937 342.582 200.937Z" fill="#D9BA7D"/>
<path d="M345.713 212.987C332.413 219.327 325.823 222.597 324.073 223.417C320.723 224.997 317.303 226.367 313.923 227.787C313.183 228.097 312.203 228.387 311.753 228.347C311.133 228.297 310.753 228.007 310.593 227.657C310.533 227.517 311.293 226.927 311.793 226.577C312.913 225.797 314.043 224.977 315.293 224.287C317.393 223.117 319.623 222.087 321.723 220.917C323.783 219.767 325.733 218.517 327.743 217.327C328.803 216.697 329.873 216.007 330.973 215.487C334.353 213.907 337.803 212.487 341.143 210.837C344.603 209.137 347.983 207.257 351.383 205.427C354.483 203.757 357.513 201.977 360.663 200.397C364.223 198.597 367.863 196.927 371.483 195.257C373.773 194.207 375.793 194.557 375.763 195.597C375.743 196.197 375.493 196.777 374.943 197.387C373.993 198.417 372.493 199.227 371.923 199.537C355.633 208.267 345.743 212.987 345.743 212.987H345.713Z" fill="#D9BA7D"/>
<path d="M334.414 210.667C373.154 202.917 416.134 189.137 416.134 189.137C431.844 188.227 432.274 254.617 412.634 262.897C412.634 262.897 364.654 261.647 327.824 250.537" fill="#FFF0D1"/>
<path d="M334.414 210.667C373.154 202.917 416.134 189.137 416.134 189.137C431.844 188.227 432.274 254.617 412.634 262.897C412.634 262.897 364.654 261.647 327.824 250.537" stroke="#4F2A1A" stroke-width="2.47" stroke-linecap="round" stroke-linejoin="round"/>
<path d="M376.624 215.127C363.004 217.137 356.214 218.247 354.424 218.507C350.994 218.997 347.564 219.267 344.144 219.597C343.394 219.667 342.444 219.647 342.044 219.467C341.494 219.237 341.234 218.837 341.184 218.457C341.164 218.307 342.004 217.977 342.544 217.797C343.754 217.397 344.994 216.957 346.294 216.667C348.484 216.187 350.764 215.877 352.954 215.407C355.104 214.937 357.184 214.337 359.314 213.817C360.434 213.537 361.574 213.207 362.704 213.047C366.164 212.567 369.634 212.257 373.074 211.707C376.634 211.137 380.174 210.367 383.704 209.657C386.934 209.007 390.124 208.237 393.374 207.677C397.044 207.047 400.764 206.547 404.454 206.057C406.784 205.747 408.514 206.697 408.204 207.677C408.024 208.247 407.654 208.717 406.994 209.127C405.874 209.827 404.314 210.137 403.704 210.257C386.764 213.637 376.624 215.127 376.624 215.127Z" fill="#D9BA7D"/>
<path d="M377.294 227.647C362.704 228.917 355.434 229.667 353.514 229.827C349.844 230.127 346.184 230.217 342.544 230.357C341.744 230.387 340.734 230.317 340.324 230.117C339.764 229.857 339.504 229.447 339.484 229.057C339.474 228.907 340.384 228.617 340.974 228.467C342.294 228.127 343.634 227.757 345.024 227.547C347.384 227.187 349.824 227.007 352.184 226.647C354.494 226.297 356.754 225.807 359.034 225.397C360.244 225.177 361.474 224.907 362.684 224.817C366.384 224.527 370.084 224.407 373.774 224.037C377.584 223.657 381.394 223.087 385.194 222.567C388.664 222.097 392.104 221.497 395.584 221.107C399.524 220.667 403.494 220.377 407.444 220.087C409.934 219.907 411.704 220.937 411.314 221.907C411.084 222.467 410.654 222.917 409.924 223.287C408.684 223.917 407.004 224.157 406.364 224.237C388.164 226.697 377.314 227.647 377.314 227.647H377.294Z" fill="#D9BA7D"/>
<path d="M374.012 239.777C358.672 239.847 351.012 239.997 349.002 239.997C345.152 239.997 341.312 239.787 337.492 239.627C336.652 239.587 335.612 239.437 335.192 239.207C334.632 238.897 334.402 238.467 334.402 238.087C334.402 237.937 335.382 237.727 336.012 237.627C337.412 237.397 338.852 237.137 340.322 237.037C342.822 236.877 345.382 236.887 347.872 236.727C350.322 236.567 352.712 236.267 355.142 236.047C356.422 235.927 357.732 235.757 359.002 235.767C362.892 235.777 366.762 235.957 370.642 235.897C374.662 235.827 378.682 235.567 382.692 235.367C386.352 235.177 390.002 234.867 393.662 234.767C397.812 234.657 401.982 234.687 406.132 234.727C408.752 234.747 410.502 235.927 410.012 236.857C409.722 237.397 409.232 237.807 408.442 238.127C407.092 238.657 405.322 238.747 404.642 238.787C385.422 239.747 374.012 239.797 374.012 239.797V239.777Z" fill="#D9BA7D"/>
<path d="M369.896 251.837C355.196 250.867 347.846 250.497 345.916 250.367C342.226 250.107 338.566 249.637 334.916 249.217C334.116 249.127 333.126 248.897 332.746 248.647C332.226 248.297 332.036 247.857 332.066 247.477C332.076 247.327 333.026 247.187 333.636 247.127C334.996 246.997 336.386 246.827 337.806 246.837C340.206 246.837 342.656 247.027 345.056 247.037C347.416 247.037 349.726 246.907 352.066 246.847C353.296 246.817 354.566 246.737 355.786 246.827C359.506 247.107 363.206 247.547 366.926 247.747C370.776 247.957 374.646 247.967 378.506 248.027C382.026 248.087 385.546 248.027 389.056 248.167C393.036 248.337 397.036 248.657 401.006 248.967C403.516 249.167 405.116 250.457 404.576 251.357C404.266 251.877 403.766 252.257 402.986 252.517C401.656 252.957 399.956 252.927 399.296 252.917C380.816 252.577 369.886 251.857 369.886 251.857L369.896 251.837Z" fill="#D9BA7D"/>
<path d="M416.133 189.137C407.713 191.567 409.053 203.957 409.053 203.957L355.973 205.887L416.143 189.137H416.133Z" fill="#FFF0D1" stroke="#4F2A1A" stroke-width="2.47" stroke-linecap="round" stroke-linejoin="round"/>
<path d="M324.695 299.588C324.695 299.588 337.795 302.628 350.165 308.018C360.255 312.418 370.215 318.658 377.335 305.528C385.745 290.008 368.945 270.868 328.285 271.178L324.695 299.598V299.588Z" fill="#FFD2B9" stroke="#4F2A1A" stroke-width="2.45" stroke-linecap="round" stroke-linejoin="round"/>
<path d="M334.585 268.897C334.585 268.897 355.475 269.637 374.585 282.217C358.955 275.817 338.015 293.807 351.475 317.297C346.905 313.847 340.455 310.817 326.605 296.197" fill="white"/>
<path d="M334.585 268.897C334.585 268.897 355.475 269.637 374.585 282.217C358.955 275.817 338.015 293.807 351.475 317.297C346.905 313.847 340.455 310.817 326.605 296.197" stroke="#4F2A1A" stroke-width="2.45" stroke-linecap="round" stroke-linejoin="round"/>
<path d="M335.066 297.707C342.561 297.707 348.636 291.632 348.636 284.137C348.636 276.643 342.561 270.567 335.066 270.567C327.572 270.567 321.496 276.643 321.496 284.137C321.496 291.632 327.572 297.707 335.066 297.707Z" fill="white"/>
<path d="M131.894 105.797L161.394 146.627C141.624 154.047 119.934 164.767 94.0137 184.307C81.7137 193.587 67.1838 205.227 54.0838 201.067L29.0938 156.687C53.8937 135.997 104.574 111.497 131.894 105.797Z" fill="#F5E1B3" stroke="#4F2A1A" stroke-width="2.47" stroke-linecap="round" stroke-linejoin="round"/>
<path d="M131.775 128.797C136.845 135.547 139.465 138.847 140.125 139.737C141.385 141.447 142.475 143.267 143.595 145.057C143.845 145.447 144.055 146.007 144.015 146.327C143.955 146.767 143.695 147.127 143.385 147.367C143.265 147.457 142.785 147.157 142.495 146.937C141.855 146.457 141.185 145.987 140.625 145.387C139.685 144.377 138.855 143.237 137.915 142.237C136.985 141.257 135.975 140.377 135.005 139.437C134.495 138.947 133.935 138.467 133.525 137.897C132.265 136.167 131.145 134.337 129.825 132.657C128.465 130.917 126.945 129.297 125.465 127.647C124.125 126.137 122.675 124.717 121.405 123.157C119.965 121.387 118.625 119.517 117.295 117.657C116.455 116.487 116.815 114.977 117.705 114.627C118.225 114.427 118.715 114.387 119.215 114.547C120.075 114.817 120.725 115.547 120.975 115.827C128.015 123.747 131.785 128.767 131.785 128.767L131.775 128.797Z" fill="#D9BA7D"/>
<path d="M116.494 134.277C121.564 141.027 124.184 144.327 124.844 145.217C126.104 146.927 127.194 148.747 128.314 150.537C128.564 150.927 128.774 151.487 128.734 151.807C128.674 152.247 128.414 152.607 128.104 152.847C127.984 152.937 127.504 152.637 127.214 152.417C126.574 151.937 125.904 151.467 125.344 150.867C124.404 149.857 123.574 148.717 122.634 147.717C121.704 146.737 120.694 145.857 119.724 144.917C119.214 144.427 118.654 143.947 118.244 143.377C116.984 141.647 115.864 139.817 114.544 138.137C113.184 136.397 111.664 134.777 110.184 133.127C108.844 131.617 107.394 130.197 106.124 128.637C104.684 126.867 103.344 124.997 102.014 123.137C101.174 121.967 101.534 120.457 102.424 120.117C102.944 119.917 103.434 119.877 103.934 120.037C104.794 120.307 105.444 121.037 105.694 121.317C112.734 129.237 116.504 134.257 116.504 134.257L116.494 134.277Z" fill="#D9BA7D"/>
<path d="M102.074 141.037C107.144 147.787 109.764 151.087 110.424 151.977C111.684 153.677 112.774 155.507 113.894 157.297C114.144 157.687 114.354 158.247 114.314 158.567C114.254 159.007 113.994 159.367 113.684 159.607C113.564 159.697 113.084 159.397 112.794 159.177C112.154 158.697 111.484 158.227 110.924 157.627C109.984 156.617 109.154 155.477 108.214 154.477C107.284 153.497 106.274 152.617 105.304 151.677C104.794 151.187 104.234 150.707 103.814 150.137C102.554 148.407 101.434 146.577 100.114 144.897C98.7544 143.157 97.2344 141.537 95.7544 139.887C94.4144 138.377 92.9644 136.957 91.6944 135.397C90.2544 133.627 88.9144 131.757 87.5844 129.897C86.7444 128.727 87.1044 127.217 87.9944 126.867C88.5144 126.667 89.0044 126.627 89.5044 126.787C90.3644 127.057 91.0144 127.787 91.2644 128.067C98.3044 135.987 102.074 141.007 102.074 141.007V141.037Z" fill="#D9BA7D"/>
<path d="M88.865 150.127C93.685 157.057 96.185 160.447 96.815 161.367C98.015 163.117 99.035 164.987 100.085 166.807C100.315 167.207 100.515 167.777 100.455 168.097C100.375 168.537 100.105 168.887 99.795 169.117C99.675 169.207 99.195 168.887 98.925 168.657C98.305 168.157 97.645 167.657 97.115 167.037C96.205 165.997 95.425 164.827 94.515 163.787C93.625 162.767 92.635 161.857 91.705 160.887C91.215 160.377 90.665 159.877 90.275 159.297C89.075 157.527 88.025 155.657 86.765 153.927C85.465 152.137 84.005 150.467 82.595 148.767C81.305 147.217 79.915 145.737 78.705 144.137C77.325 142.317 76.055 140.397 74.795 138.497C74.005 137.297 74.415 135.807 75.315 135.487C75.835 135.307 76.335 135.287 76.825 135.457C77.675 135.757 78.295 136.507 78.535 136.797C85.285 144.967 88.865 150.127 88.865 150.127Z" fill="#D9BA7D"/>
<path d="M75.3342 160.527C79.7642 167.717 82.0742 171.237 82.6442 172.187C83.7442 173.997 84.6542 175.917 85.6142 177.807C85.8242 178.217 85.9842 178.797 85.9142 179.117C85.8142 179.547 85.5242 179.887 85.1942 180.097C85.0642 180.177 84.6142 179.827 84.3442 179.587C83.7542 179.047 83.1242 178.517 82.6242 177.877C81.7742 176.787 81.0542 175.577 80.2142 174.487C79.3842 173.417 78.4442 172.457 77.5742 171.437C77.1142 170.897 76.5942 170.377 76.2342 169.767C75.1342 167.927 74.1842 166.007 73.0242 164.217C71.8242 162.367 70.4642 160.607 69.1442 158.827C67.9442 157.207 66.6342 155.657 65.5142 153.987C64.2342 152.097 63.0742 150.107 61.9242 148.137C61.1942 146.887 61.6942 145.427 62.6142 145.157C63.1442 145.007 63.6442 145.007 64.1242 145.217C64.9542 145.567 65.5342 146.347 65.7642 146.657C72.0442 155.187 75.3442 160.537 75.3442 160.537L75.3342 160.527Z" fill="#D9BA7D"/>
<path d="M59.4523 166.417C63.5423 173.797 65.6923 177.427 66.2223 178.397C67.2423 180.257 68.0623 182.217 68.9323 184.147C69.1223 184.567 69.2623 185.157 69.1723 185.467C69.0523 185.897 68.7423 186.217 68.4123 186.407C68.2823 186.477 67.8423 186.117 67.5923 185.867C67.0223 185.307 66.4223 184.747 65.9523 184.077C65.1523 182.947 64.4923 181.707 63.6923 180.587C62.9123 179.487 62.0223 178.477 61.1923 177.417C60.7523 176.857 60.2623 176.307 59.9323 175.687C58.9223 173.797 58.0623 171.837 56.9823 169.997C55.8723 168.087 54.5823 166.277 53.3523 164.437C52.2223 162.757 50.9923 161.157 49.9423 159.437C48.7523 157.487 47.6823 155.457 46.6223 153.427C45.9523 152.147 46.5123 150.707 47.4423 150.487C47.9823 150.357 48.4723 150.387 48.9523 150.617C49.7623 151.007 50.3123 151.817 50.5223 152.127C56.4123 160.937 59.4523 166.427 59.4523 166.427V166.417Z" fill="#D9BA7D"/>
<path d="M97.4544 89.8174L135.174 130.477C111.604 140.107 93.7844 155.137 66.5344 172.867C56.0544 179.687 41.0344 181.807 30.0844 176.337C19.7744 165.557 6.27437 139.137 1.23438 126.337C11.4144 130.037 24.0944 127.387 33.5744 120.057C56.7544 102.157 78.1544 93.8474 97.4544 89.8174Z" fill="#FFF0D1" stroke="#4F2A1A" stroke-width="2.47" stroke-linecap="round" stroke-linejoin="round"/>
<path d="M104.215 111.767C109.285 118.517 111.905 121.817 112.565 122.707C113.825 124.417 114.915 126.237 116.035 128.027C116.285 128.417 116.495 128.977 116.455 129.297C116.395 129.737 116.135 130.097 115.825 130.337C115.705 130.427 115.225 130.127 114.935 129.907C114.295 129.427 113.625 128.957 113.065 128.357C112.125 127.347 111.295 126.207 110.355 125.207C109.425 124.227 108.415 123.347 107.445 122.407C106.935 121.917 106.375 121.437 105.955 120.867C104.695 119.137 103.575 117.307 102.255 115.627C100.895 113.887 99.375 112.267 97.895 110.617C96.555 109.107 95.105 107.687 93.835 106.127C92.395 104.357 91.055 102.487 89.725 100.627C88.885 99.4572 89.245 97.9472 90.135 97.5972C90.655 97.3972 91.145 97.3572 91.645 97.5172C92.505 97.7872 93.155 98.5172 93.405 98.7972C100.445 106.717 104.215 111.737 104.215 111.737V111.767Z" fill="#D9BA7D"/>
<path d="M88.9338 117.247C94.0038 123.997 96.6238 127.297 97.2838 128.187C98.5438 129.897 99.6338 131.717 100.754 133.507C101.004 133.897 101.214 134.457 101.174 134.777C101.114 135.217 100.854 135.577 100.544 135.817C100.424 135.907 99.9438 135.607 99.6538 135.387C99.0138 134.907 98.3438 134.437 97.7838 133.837C96.8438 132.827 96.0138 131.687 95.0738 130.687C94.1438 129.707 93.1338 128.827 92.1638 127.887C91.6538 127.397 91.0938 126.917 90.6738 126.347C89.4138 124.617 88.2938 122.787 86.9738 121.107C85.6138 119.367 84.0938 117.747 82.6138 116.097C81.2738 114.587 79.8238 113.167 78.5538 111.607C77.1138 109.837 75.7738 107.967 74.4438 106.107C73.6038 104.937 73.9638 103.427 74.8538 103.087C75.3738 102.887 75.8638 102.847 76.3638 103.007C77.2238 103.277 77.8738 104.007 78.1238 104.287C85.1638 112.207 88.9338 117.227 88.9338 117.227V117.247Z" fill="#D9BA7D"/>
<path d="M74.5158 124.007C79.5858 130.757 82.2058 134.057 82.8658 134.947C84.1258 136.647 85.2158 138.477 86.3358 140.267C86.5858 140.657 86.7958 141.217 86.7558 141.537C86.6958 141.977 86.4358 142.337 86.1258 142.577C86.0058 142.667 85.5258 142.367 85.2358 142.147C84.5958 141.667 83.9258 141.197 83.3658 140.597C82.4258 139.587 81.5958 138.447 80.6558 137.447C79.7258 136.467 78.7158 135.587 77.7458 134.647C77.2358 134.157 76.6758 133.677 76.2558 133.107C74.9958 131.377 73.8758 129.547 72.5558 127.867C71.1958 126.127 69.6758 124.507 68.1958 122.857C66.8558 121.347 65.4058 119.927 64.1358 118.367C62.6958 116.597 61.3558 114.727 60.0258 112.867C59.1858 111.697 59.5458 110.187 60.4358 109.837C60.9558 109.637 61.4458 109.597 61.9458 109.757C62.8058 110.027 63.4558 110.757 63.7058 111.037C70.7458 118.957 74.5158 123.977 74.5158 123.977V124.007Z" fill="#D9BA7D"/>
<path d="M61.3025 133.097C66.1225 140.027 68.6225 143.417 69.2525 144.337C70.4525 146.087 71.4725 147.957 72.5225 149.777C72.7525 150.177 72.9525 150.747 72.8925 151.067C72.8125 151.507 72.5425 151.857 72.2325 152.087C72.1125 152.177 71.6325 151.857 71.3625 151.627C70.7425 151.127 70.0825 150.627 69.5525 150.007C68.6425 148.967 67.8625 147.797 66.9525 146.757C66.0625 145.737 65.0725 144.827 64.1425 143.857C63.6525 143.347 63.1025 142.847 62.7125 142.267C61.5125 140.497 60.4625 138.627 59.2025 136.897C57.9025 135.107 56.4425 133.437 55.0325 131.737C53.7425 130.187 52.3525 128.707 51.1425 127.107C49.7625 125.287 48.4925 123.367 47.2325 121.467C46.4425 120.267 46.8525 118.777 47.7525 118.457C48.2825 118.277 48.7725 118.257 49.2625 118.427C50.1125 118.727 50.7325 119.477 50.9725 119.767C57.7225 127.937 61.3025 133.097 61.3025 133.097Z" fill="#D9BA7D"/>
<path d="M47.7756 143.497C52.2056 150.687 54.5156 154.207 55.0856 155.157C56.1856 156.967 57.0956 158.887 58.0556 160.777C58.2656 161.187 58.4256 161.767 58.3556 162.087C58.2556 162.517 57.9656 162.857 57.6356 163.067C57.5056 163.147 57.0556 162.797 56.7856 162.557C56.1956 162.017 55.5656 161.487 55.0656 160.847C54.2156 159.757 53.4956 158.547 52.6556 157.457C51.8256 156.387 50.8856 155.427 50.0156 154.407C49.5556 153.867 49.0356 153.347 48.6756 152.737C47.5756 150.897 46.6256 148.977 45.4656 147.187C44.2656 145.337 42.9056 143.577 41.5856 141.797C40.3856 140.177 39.0756 138.627 37.9556 136.957C36.6756 135.067 35.5156 133.077 34.3656 131.107C33.6356 129.857 34.1356 128.397 35.0556 128.127C35.5856 127.977 36.0856 127.977 36.5656 128.187C37.3956 128.537 37.9756 129.317 38.2056 129.627C44.4856 138.157 47.7856 143.507 47.7856 143.507L47.7756 143.497Z" fill="#D9BA7D"/>
<path d="M31.8937 149.388C35.9837 156.768 38.1337 160.398 38.6637 161.368C39.6837 163.228 40.5037 165.188 41.3737 167.118C41.5637 167.538 41.7037 168.128 41.6137 168.438C41.4937 168.868 41.1837 169.188 40.8537 169.378C40.7237 169.448 40.2837 169.088 40.0337 168.838C39.4637 168.278 38.8637 167.718 38.3937 167.048C37.5937 165.918 36.9337 164.678 36.1337 163.558C35.3537 162.458 34.4637 161.448 33.6337 160.388C33.1937 159.828 32.7037 159.278 32.3737 158.658C31.3637 156.768 30.5037 154.808 29.4237 152.968C28.3137 151.058 27.0237 149.248 25.7937 147.408C24.6637 145.728 23.4337 144.128 22.3837 142.408C21.1937 140.458 20.1237 138.428 19.0637 136.398C18.3937 135.118 18.9537 133.678 19.8837 133.458C20.4237 133.328 20.9137 133.358 21.3937 133.588C22.2037 133.978 22.7537 134.788 22.9637 135.098C28.8537 143.908 31.8937 149.398 31.8937 149.398V149.388Z" fill="#D9BA7D"/>
<path d="M158.834 76.7271L133.434 118.347C106.124 102.787 63.2041 106.627 21.9141 108.357L60.1541 64.9071C96.4541 62.2071 134.194 58.9371 158.834 76.7271Z" fill="#FFF0D1" stroke="#4F2A1A" stroke-width="2.47" stroke-linecap="round" stroke-linejoin="round"/>
<path d="M124.622 87.5673C120.472 94.1673 118.492 97.5273 117.942 98.3873C116.882 100.037 115.652 101.567 114.462 103.127C114.202 103.467 113.782 103.837 113.472 103.897C113.052 103.977 112.622 103.857 112.292 103.657C112.162 103.577 112.252 103.057 112.332 102.727C112.522 102.007 112.692 101.257 113.012 100.577C113.562 99.4273 114.272 98.3373 114.822 97.1873C115.352 96.0573 115.752 94.8773 116.232 93.7273C116.482 93.1173 116.702 92.4673 117.052 91.9273C118.132 90.2673 119.352 88.7073 120.362 87.0073C121.412 85.2573 122.292 83.3973 123.212 81.5773C124.062 79.9173 124.792 78.1873 125.712 76.5673C126.752 74.7273 127.932 72.9673 129.102 71.2073C129.842 70.0973 131.332 69.9473 131.992 70.6373C132.372 71.0373 132.592 71.4573 132.642 71.9573C132.722 72.8073 132.322 73.6173 132.162 73.9273C127.712 82.6473 124.622 87.5673 124.612 87.5673H124.622Z" fill="#D9BA7D"/>
<path d="M138.454 92.1972C134.304 98.7972 132.324 102.157 131.774 103.017C130.714 104.667 129.484 106.197 128.294 107.757C128.034 108.097 127.614 108.467 127.304 108.527C126.884 108.607 126.454 108.487 126.124 108.287C125.994 108.207 126.084 107.687 126.164 107.357C126.354 106.637 126.524 105.887 126.844 105.207C127.394 104.057 128.104 102.967 128.654 101.817C129.184 100.687 129.584 99.5072 130.064 98.3572C130.314 97.7472 130.534 97.0972 130.884 96.5572C131.964 94.8972 133.184 93.3372 134.194 91.6372C135.244 89.8872 136.124 88.0272 137.044 86.2072C137.894 84.5472 138.624 82.8172 139.544 81.1972C140.584 79.3672 141.764 77.5972 142.934 75.8372C143.674 74.7272 145.164 74.5772 145.824 75.2672C146.204 75.6672 146.424 76.0872 146.474 76.5872C146.554 77.4372 146.154 78.2472 145.994 78.5572C141.544 87.2772 138.454 92.1972 138.444 92.1972H138.454Z" fill="#D9BA7D"/>
<path d="M109.374 85.3071C104.824 92.0071 102.644 95.4271 102.044 96.2971C100.884 97.9771 99.5544 99.5271 98.2744 101.097C97.9944 101.437 97.5444 101.807 97.2344 101.867C96.8044 101.947 96.3744 101.807 96.0544 101.597C95.9344 101.517 96.0544 100.977 96.1444 100.647C96.3744 99.9171 96.5844 99.1471 96.9444 98.4571C97.5544 97.2871 98.3444 96.1771 98.9544 95.0071C99.5544 93.8571 100.024 92.6571 100.564 91.4771C100.854 90.8571 101.104 90.1971 101.484 89.6471C102.664 87.9671 103.984 86.3771 105.094 84.6571C106.244 82.8771 107.234 80.9871 108.274 79.1271C109.214 77.4371 110.044 75.6771 111.064 74.0271C112.214 72.1571 113.504 70.3671 114.774 68.5871C115.584 67.4571 117.094 67.3371 117.724 68.0671C118.084 68.4871 118.294 68.9271 118.314 69.4371C118.354 70.3171 117.894 71.1371 117.724 71.4471C112.754 80.3271 109.364 85.3171 109.364 85.3171L109.374 85.3071Z" fill="#D9BA7D"/>
<path d="M93.8128 84.2971C89.1328 90.8471 86.8928 94.1771 86.2728 95.0371C85.0828 96.6771 83.7228 98.1771 82.4128 99.7071C82.1228 100.037 81.6728 100.397 81.3528 100.447C80.9228 100.507 80.5028 100.367 80.1828 100.147C80.0628 100.067 80.1828 99.5271 80.2928 99.2071C80.5328 98.4871 80.7628 97.7271 81.1428 97.0471C81.7828 95.8971 82.5828 94.8172 83.2128 93.6672C83.8328 92.5372 84.3328 91.3571 84.8928 90.1971C85.1928 89.5871 85.4528 88.9371 85.8528 88.3971C87.0628 86.7571 88.4128 85.2171 89.5528 83.5271C90.7428 81.7871 91.7628 79.9371 92.8328 78.1171C93.8128 76.4571 94.6728 74.7271 95.7228 73.1171C96.9128 71.2971 98.2328 69.5472 99.5428 67.8072C100.373 66.7072 101.883 66.6271 102.493 67.3671C102.843 67.7971 103.043 68.2371 103.053 68.7471C103.073 69.6171 102.603 70.4272 102.423 70.7372C97.2828 79.4372 93.7928 84.3071 93.7928 84.3071L93.8128 84.2971Z" fill="#D9BA7D"/>
<path d="M77.6834 83.9871C72.3934 90.5271 69.8434 93.8671 69.1334 94.7171C67.7934 96.3471 66.2934 97.8471 64.8334 99.3671C64.5134 99.6971 64.0234 100.047 63.7034 100.077C63.2634 100.127 62.8434 99.9571 62.5434 99.7271C62.4234 99.6371 62.6034 99.0871 62.7334 98.7571C63.0434 98.0171 63.3334 97.2571 63.7734 96.5671C64.5134 95.4071 65.4234 94.3371 66.1634 93.1771C66.8934 92.0371 67.4834 90.8471 68.1534 89.6771C68.5034 89.0671 68.8334 88.4071 69.2734 87.8671C70.6434 86.2271 72.1334 84.6971 73.4334 83.0171C74.7834 81.2771 75.9734 79.4071 77.2134 77.5871C78.3434 75.9171 79.3634 74.1771 80.5634 72.5671C81.9234 70.7371 83.4034 68.9971 84.8734 67.2571C85.8034 66.1571 87.3434 66.1471 87.9034 66.9271C88.2234 67.3771 88.3834 67.8471 88.3534 68.3671C88.3034 69.2671 87.7534 70.0671 87.5434 70.3871C81.6034 79.1171 77.6634 83.9871 77.6634 83.9871H77.6834Z" fill="#D9BA7D"/>
<path d="M60.9931 85.0673C55.4931 91.4373 52.8331 94.6873 52.1031 95.5173C50.7131 97.1073 49.1631 98.5473 47.6531 100.017C47.3231 100.337 46.8231 100.667 46.5031 100.697C46.0631 100.727 45.6531 100.547 45.3531 100.307C45.2431 100.207 45.4331 99.6773 45.5831 99.3473C45.9131 98.6273 46.2331 97.8673 46.6931 97.1973C47.4731 96.0673 48.4131 95.0173 49.1831 93.8873C49.9431 92.7773 50.5831 91.5973 51.2931 90.4573C51.6631 89.8573 52.0131 89.2073 52.4731 88.6873C53.8931 87.0973 55.4331 85.6073 56.7931 83.9673C58.1931 82.2673 59.4531 80.4473 60.7431 78.6573C61.9231 77.0273 63.0031 75.3273 64.2531 73.7473C65.6731 71.9673 67.2031 70.2673 68.7331 68.5773C69.7031 67.5073 71.2431 67.5473 71.7731 68.3373C72.0831 68.7973 72.2231 69.2673 72.1731 69.7973C72.0931 70.6973 71.5231 71.4873 71.3031 71.7873C65.0831 80.3273 60.9931 85.0573 60.9931 85.0573V85.0673Z" fill="#D9BA7D"/>
<path d="M200.973 1.37702C180.043 18.537 178.833 54.877 217.913 59.917C217.913 59.917 186.863 86.617 173.163 101.867C119.373 102.617 110.773 29.597 140.843 12.747C157.213 3.70702 181.683 0.527016 200.973 1.37702Z" fill="#F5E1B3" stroke="#4F2A1A" stroke-width="2.47" stroke-linecap="round" stroke-linejoin="round"/>
<path d="M181.705 77.4171C174.335 83.0671 170.725 85.9871 169.755 86.7271C167.895 88.1371 165.915 89.3671 163.965 90.6371C163.535 90.9171 162.935 91.1771 162.595 91.1471C162.135 91.1071 161.755 90.8571 161.515 90.5571C161.425 90.4371 161.765 89.9171 162.005 89.6071C162.545 88.9171 163.075 88.1871 163.725 87.5671C164.835 86.5271 166.075 85.6071 167.175 84.5671C168.255 83.5471 169.225 82.4371 170.265 81.3771C170.805 80.8171 171.335 80.2071 171.955 79.7471C173.845 78.3371 175.825 77.0671 177.665 75.5971C179.565 74.0771 181.345 72.4071 183.155 70.7771C184.805 69.2971 186.375 67.7171 188.085 66.2971C190.025 64.6971 192.055 63.1971 194.085 61.7071C195.365 60.7671 196.945 61.0571 197.275 61.9571C197.465 62.4871 197.495 62.9871 197.305 63.5271C196.985 64.4371 196.185 65.1571 195.875 65.4271C187.185 73.1971 181.705 77.4071 181.705 77.4071V77.4171Z" fill="#D9BA7D"/>
<path d="M169.912 66.9075C161.062 72.2575 156.702 75.0275 155.532 75.7175C153.302 77.0475 150.972 78.1875 148.672 79.3675C148.172 79.6275 147.482 79.8475 147.122 79.7975C146.632 79.7275 146.272 79.4475 146.072 79.1175C145.992 78.9875 146.452 78.4775 146.762 78.1675C147.452 77.4875 148.152 76.7675 148.952 76.1775C150.312 75.1775 151.802 74.3075 153.162 73.3075C154.492 72.3275 155.722 71.2475 157.012 70.2175C157.692 69.6775 158.362 69.0775 159.102 68.6475C161.362 67.3175 163.702 66.1375 165.912 64.7475C168.202 63.3075 170.402 61.6975 172.612 60.1375C174.632 58.7175 176.582 57.1875 178.652 55.8375C181.002 54.3075 183.432 52.8975 185.852 51.4975C187.382 50.6175 189.022 51.0075 189.222 51.9675C189.342 52.5275 189.272 53.0475 188.982 53.5875C188.482 54.5075 187.502 55.1975 187.122 55.4575C176.492 62.9075 169.902 66.8775 169.902 66.8775L169.912 66.9075Z" fill="#D9BA7D"/>
<path d="M163.501 54.1471C154.841 57.6971 150.561 59.5771 149.421 60.0371C147.241 60.9171 144.981 61.5871 142.761 62.3071C142.271 62.4671 141.621 62.5571 141.301 62.4471C140.861 62.2871 140.561 61.9471 140.411 61.5971C140.351 61.4571 140.821 61.0471 141.141 60.8071C141.841 60.2771 142.551 59.7071 143.351 59.2871C144.701 58.5671 146.161 57.9971 147.501 57.2871C148.821 56.5871 150.061 55.7671 151.351 55.0071C152.031 54.6071 152.701 54.1571 153.431 53.8671C155.641 52.9971 157.901 52.2771 160.071 51.3371C162.321 50.3671 164.491 49.2071 166.691 48.1071C168.691 47.1071 170.631 45.9871 172.671 45.0571C174.981 44.0071 177.351 43.0971 179.721 42.1871C181.211 41.6171 182.671 42.2971 182.751 43.2671C182.801 43.8271 182.681 44.3271 182.361 44.7871C181.801 45.5771 180.841 46.0671 180.461 46.2571C169.951 51.5071 163.511 54.1571 163.511 54.1571L163.501 54.1471Z" fill="#D9BA7D"/>
<path d="M161.314 38.6773C152.754 41.0073 148.504 42.2874 147.384 42.5874C145.224 43.1574 143.024 43.5173 140.844 43.9273C140.364 44.0173 139.734 44.0174 139.444 43.8674C139.044 43.6574 138.794 43.2774 138.694 42.9074C138.654 42.7674 139.144 42.4174 139.464 42.2274C140.184 41.7974 140.914 41.3374 141.714 41.0274C143.064 40.5074 144.504 40.1373 145.854 39.6073C147.174 39.0873 148.434 38.4473 149.734 37.8773C150.414 37.5773 151.104 37.2173 151.814 37.0373C153.994 36.4773 156.214 36.0774 158.364 35.4374C160.594 34.7774 162.774 33.9373 164.954 33.1473C166.954 32.4273 168.904 31.5874 170.924 30.9474C173.214 30.2274 175.564 29.6473 177.894 29.0673C179.364 28.6973 180.674 29.5774 180.654 30.5374C180.644 31.0974 180.484 31.5673 180.124 31.9873C179.514 32.6973 178.554 33.0473 178.174 33.1773C167.684 36.9373 161.314 38.6773 161.314 38.6773Z" fill="#D9BA7D"/>
<path d="M183.805 13.3574C183.825 13.6574 143.215 22.4674 143.215 22.4674L183.805 13.3574Z" fill="#F0D9A1"/>
<path d="M164.943 20.0574C156.653 21.6274 152.543 22.5174 151.453 22.7074C149.363 23.0874 147.253 23.2474 145.153 23.4574C144.693 23.5074 144.093 23.4574 143.823 23.2674C143.453 23.0174 143.243 22.6174 143.173 22.2474C143.143 22.0974 143.633 21.7974 143.953 21.6374C144.663 21.2774 145.393 20.8874 146.173 20.6474C147.493 20.2474 148.883 20.0174 150.193 19.6074C151.483 19.2074 152.723 18.6874 153.983 18.2374C154.653 17.9974 155.323 17.7074 156.013 17.5874C158.123 17.2174 160.253 17.0174 162.333 16.5774C164.493 16.1174 166.613 15.4674 168.743 14.8774C170.683 14.3274 172.593 13.6574 174.543 13.1974C176.753 12.6674 179.023 12.2874 181.243 11.8774C181.943 11.7474 182.583 11.9174 183.033 12.2374C183.253 12.3974 183.443 12.5874 183.523 12.8174C183.653 13.0274 183.793 13.2274 183.813 13.4774C183.813 14.0474 183.623 14.5174 183.263 14.9174C182.643 15.5974 181.693 15.8774 181.333 15.9774C176.223 17.4574 172.133 18.4474 169.313 19.1074C166.493 19.7574 164.953 20.0474 164.953 20.0474L164.943 20.0574Z" fill="#D9BA7D"/>
<path d="M161.634 33.5373C173.934 27.2073 196.354 20.9873 203.944 19.0173C210.374 16.5773 212.384 3.61725 200.974 1.36725C181.684 0.517251 157.214 3.69725 140.844 12.7373C153.754 6.11725 168.954 17.4573 161.634 33.5373Z" fill="#FFF0D1" stroke="#4F2A1A" stroke-width="2.47" stroke-linecap="round" stroke-linejoin="round"/>
<path d="M227.695 108.817C217.675 103.447 196.285 105.027 196.285 113.587C196.285 122.147 225.745 120.337 227.695 120.227C229.655 120.337 259.105 121.897 259.105 113.587C259.105 105.277 237.715 103.447 227.695 108.817Z" fill="#4F2A1A"/>
<path d="M342.995 265.107C360.395 246.887 342.825 220.077 337.985 194.337C332.005 162.567 303.045 112.457 227.495 112.457C151.945 112.457 122.985 162.567 117.005 194.337C112.165 220.067 95.0048 246.887 112.405 265.107L112.215 266.167C111.185 272.357 112.275 277.657 112.275 284.137C112.275 347.767 163.865 399.357 227.495 399.357C291.125 399.357 342.715 347.767 342.715 284.137C342.715 277.647 343.805 271.297 342.775 265.097H342.995V265.107Z" fill="#FFD2B9" stroke="#4F2A1A" stroke-width="2.45" stroke-linecap="round" stroke-linejoin="round"/>
<path d="M342.695 264.897C303.505 318.037 149.545 322.797 112.165 264.897C111.625 264.057 110.195 265.157 109.975 266.137C106.405 282.017 85.5152 400.057 227.425 400.057C369.335 400.057 348.445 282.007 344.875 266.137C344.655 265.157 343.285 264.097 342.685 264.897H342.695Z" fill="white" stroke="#4F2A1A" stroke-width="2.45" stroke-linecap="round" stroke-linejoin="round"/>
<path d="M291.735 360.847C291.035 360.887 290.475 360.277 290.565 359.587C294.705 330.237 294.755 314.237 294.755 313.847H287.125C287.125 314.237 287.075 329.857 282.995 358.787C282.795 360.187 281.635 361.237 280.225 361.297C263.485 362.017 246.625 362.397 227.435 362.397C208.245 362.397 191.385 362.017 174.645 361.297C173.235 361.237 172.075 360.667 171.875 359.277C167.795 330.347 167.745 314.717 167.745 314.337L160.115 313.847C160.115 314.237 160.165 330.237 164.305 359.587C164.405 360.277 163.835 360.887 163.135 360.847C148.875 360.107 136.575 359.117 124.055 357.897C139.015 379.497 166.145 397.017 214.285 399.707C214.515 399.717 214.735 399.727 214.965 399.747C216.625 399.837 218.315 399.897 220.025 399.947C220.455 399.957 220.885 399.977 221.325 399.987C223.335 400.037 225.365 400.067 227.435 400.067C229.505 400.067 231.545 400.037 233.555 399.987C233.995 399.977 234.415 399.957 234.855 399.947C236.565 399.897 238.255 399.827 239.915 399.747C240.145 399.737 240.365 399.727 240.595 399.707C288.735 397.027 315.875 379.497 330.825 357.897C318.305 359.117 306.005 360.107 291.745 360.847H291.735Z" fill="#41AAFF" stroke="#4F2A1A" stroke-width="2.45" stroke-linecap="round" stroke-linejoin="round"/>
<path d="M324.203 299.587C324.203 299.587 299.733 332.467 252.613 310.437L324.203 299.587Z" fill="white"/>
<path d="M324.203 299.587C324.203 299.587 299.733 332.467 252.613 310.437" stroke="#4F2A1A" stroke-width="2.45" stroke-linecap="round" stroke-linejoin="round"/>
<path d="M130.664 299.587C130.664 299.587 155.134 332.467 202.254 310.437L130.664 299.587Z" fill="white"/>
<path d="M130.664 299.587C130.664 299.587 155.134 332.467 202.254 310.437" stroke="#4F2A1A" stroke-width="2.45" stroke-linecap="round" stroke-linejoin="round"/>
<path d="M234.273 304.777C234.273 304.777 243.163 298.367 255.933 295.777C257.493 295.457 259.013 296.497 259.313 298.067C260.793 305.727 260.873 313.977 259.273 322.937C258.983 324.547 257.423 325.607 255.823 325.247C250.853 324.157 240.613 321.217 234.273 314.637V304.787V304.777Z" fill="#41AAFF" stroke="#4F2A1A" stroke-width="2.45" stroke-linecap="round" stroke-linejoin="round"/>
<path d="M220.605 304.777C220.605 304.777 211.715 298.367 198.945 295.777C197.385 295.457 195.865 296.497 195.565 298.067C194.085 305.727 194.005 313.977 195.605 322.937C195.895 324.547 197.455 325.607 199.055 325.247C204.025 324.157 214.265 321.217 220.605 314.637V304.787V304.777Z" fill="#41AAFF" stroke="#4F2A1A" stroke-width="2.45" stroke-linecap="round" stroke-linejoin="round"/>
<path d="M230.624 302.697H224.254C222.459 302.697 221.004 304.152 221.004 305.947V314.787C221.004 316.582 222.459 318.037 224.254 318.037H230.624C232.419 318.037 233.874 316.582 233.874 314.787V305.947C233.874 304.152 232.419 302.697 230.624 302.697Z" fill="#41AAFF" stroke="#4F2A1A" stroke-width="2.45" stroke-linecap="round" stroke-linejoin="round"/>
<path d="M279.755 128.667C279.825 123.497 298.485 118.567 315.915 137.137C331.815 154.077 337.015 170.587 334.905 172.857C330.615 177.467 307.305 167.847 290.785 146.787C279.565 132.477 279.725 130.737 279.745 128.667H279.755Z" fill="#FFAA8C" stroke="#512920" stroke-width="2.45" stroke-linecap="round" stroke-linejoin="round"/>
<path d="M174.644 128.667C174.574 123.497 155.914 118.567 138.484 137.137C122.584 154.077 117.384 170.587 119.494 172.857C123.784 177.467 147.094 167.847 163.614 146.787C174.834 132.477 174.674 130.737 174.654 128.667H174.644Z" fill="#FFAA8C" stroke="#512920" stroke-width="2.45" stroke-linecap="round" stroke-linejoin="round"/>
<path d="M180.724 250.287C191.477 250.287 200.194 241.57 200.194 230.817C200.194 220.064 191.477 211.347 180.724 211.347C169.971 211.347 161.254 220.064 161.254 230.817C161.254 241.57 169.971 250.287 180.724 250.287Z" fill="white" stroke="#4F2A1A" stroke-width="2.47" stroke-linecap="round" stroke-linejoin="round"/>
<path d="M181.573 219.307C177.553 219.307 174.143 221.877 172.883 225.467C173.133 225.437 173.383 225.427 173.643 225.427C176.213 225.427 178.303 226.897 178.303 228.707C178.303 230.517 176.213 231.987 173.643 231.987C173.433 231.987 173.233 231.977 173.033 231.957C174.393 235.347 177.703 237.737 181.583 237.737C186.673 237.737 190.793 233.617 190.793 228.527C190.793 223.437 186.673 219.317 181.583 219.317L181.573 219.307Z" fill="#4F2A1A"/>
<path d="M198.335 206.647C194.715 206.377 186.735 202.197 184.305 198.937" stroke="#512920" stroke-width="4.11" stroke-linecap="round" stroke-linejoin="round"/>
<path d="M273.693 250.287C284.446 250.287 293.163 241.57 293.163 230.817C293.163 220.064 284.446 211.347 273.693 211.347C262.94 211.347 254.223 220.064 254.223 230.817C254.223 241.57 262.94 250.287 273.693 250.287Z" fill="white" stroke="#4F2A1A" stroke-width="2.47" stroke-linecap="round" stroke-linejoin="round"/>
<path d="M273.432 219.307C269.412 219.307 266.002 221.877 264.742 225.467C264.992 225.437 265.242 225.427 265.502 225.427C268.072 225.427 270.162 226.897 270.162 228.707C270.162 230.517 268.072 231.987 265.502 231.987C265.292 231.987 265.092 231.977 264.892 231.957C266.252 235.347 269.562 237.737 273.442 237.737C278.532 237.737 282.652 233.617 282.652 228.527C282.652 223.437 278.532 219.317 273.442 219.317L273.432 219.307Z" fill="#4F2A1A"/>
<path d="M253.973 207.287C257.603 207.057 265.623 202.967 268.093 199.737" stroke="#512920" stroke-width="4.11" stroke-linecap="round" stroke-linejoin="round"/>
<path d="M257.074 243.317C262.044 240.697 287.234 237.717 293.634 241.127C300.034 244.527 288.114 256.627 274.644 255.637C261.174 254.637 257.074 243.327 257.074 243.327V243.317Z" fill="#FFD2B9"/>
<path d="M257.074 243.317C262.044 240.697 287.234 237.717 293.634 241.127L257.074 243.317Z" fill="#FFD2B9"/>
<path d="M257.074 243.317C262.044 240.697 287.234 237.717 293.634 241.127" stroke="#4F2A1A" stroke-width="2.45" stroke-linecap="round" stroke-linejoin="round"/>
<path d="M271.376 206.647C258.326 208.497 255.176 219.927 255.176 219.927C258.196 226.487 278.996 213.027 289.596 213.967C289.596 213.967 281.746 205.177 271.376 206.647Z" fill="#FFD2B9"/>
<path d="M255.176 219.937C258.196 226.497 278.996 213.037 289.596 213.977L255.176 219.937Z" fill="#FFD2B9"/>
<path d="M255.176 219.937C258.196 226.497 278.996 213.037 289.596 213.977" stroke="#4F2A1A" stroke-width="2.45" stroke-linecap="round" stroke-linejoin="round"/>
<path d="M198.304 243.317C193.334 240.697 168.144 237.717 161.744 241.127C155.344 244.527 167.264 256.627 180.734 255.637C194.204 254.647 198.304 243.327 198.304 243.327V243.317Z" fill="#FFD2B9"/>
<path d="M198.302 243.317C193.332 240.697 168.142 237.717 161.742 241.127L198.302 243.317Z" fill="#FFD2B9"/>
<path d="M198.302 243.317C193.332 240.697 168.142 237.717 161.742 241.127" stroke="#4F2A1A" stroke-width="2.45" stroke-linecap="round" stroke-linejoin="round"/>
<path d="M184.005 206.647C197.055 208.497 200.205 219.927 200.205 219.927C197.185 226.487 176.385 213.027 165.785 213.967C165.785 213.967 173.635 205.177 184.005 206.647Z" fill="#FFD2B9"/>
<path d="M200.205 219.937C197.185 226.497 176.385 213.037 165.785 213.977L200.205 219.937Z" fill="#FFD2B9"/>
<path d="M200.205 219.937C197.185 226.497 176.385 213.037 165.785 213.977" stroke="#4F2A1A" stroke-width="2.45" stroke-linecap="round" stroke-linejoin="round"/>
<path d="M227.273 258.427C240.804 258.427 251.773 250.843 251.773 241.487C251.773 232.132 240.804 224.547 227.273 224.547C213.742 224.547 202.773 232.132 202.773 241.487C202.773 250.843 213.742 258.427 227.273 258.427Z" fill="#FFAA8C" stroke="#512920" stroke-width="2.45" stroke-linecap="round" stroke-linejoin="round"/>
<path d="M218.992 237.038V246.418" stroke="#512920" stroke-width="2.45" stroke-linecap="round" stroke-linejoin="round"/>
<path d="M235.402 237.038V246.418" stroke="#512920" stroke-width="2.45" stroke-linecap="round" stroke-linejoin="round"/>
<path d="M395.685 305.667C391.235 301.937 380.935 298.927 380.935 298.927L380.855 316.157C380.855 316.157 391.995 312.707 395.665 309.547C397.275 308.167 397.315 307.027 395.685 305.667Z" fill="#FFFAF0"/>
<path d="M326.886 299.157L314.286 299.097C309.696 299.077 305.946 302.787 305.926 307.377C305.906 311.977 309.616 315.717 314.206 315.737L326.806 315.797C328.996 315.797 330.776 314.047 330.786 311.857L330.826 303.137C330.836 300.947 329.066 299.167 326.886 299.157Z" fill="#FFBF8F"/>
<path d="M380.935 298.927L320.725 298.827L320.645 316.057L380.855 316.157C380.855 316.157 380.975 298.917 380.935 298.927Z" fill="#78CDEF"/>
<path d="M395.686 305.667C394.866 304.987 393.856 304.327 392.746 303.697C392.176 304.937 391.846 306.427 391.836 308.037C391.836 309.327 392.036 310.537 392.406 311.617C393.716 310.937 394.876 310.237 395.676 309.557C397.286 308.177 397.326 307.037 395.696 305.677L395.686 305.667Z" fill="#C6C4C1"/>
<path d="M320.895 297.967C318.995 297.967 317.445 299.487 317.435 301.397L317.375 313.477C317.375 315.377 318.905 316.927 320.805 316.937C322.705 316.937 324.255 315.417 324.265 313.507L324.325 301.427C324.325 299.527 322.795 297.977 320.895 297.967Z" fill="#5FADED"/>
<path d="M395.665 309.557C391.995 312.707 380.855 316.168 380.855 316.168L380.935 298.938C380.935 298.938 391.235 301.948 395.685 305.678C397.315 307.048 397.275 308.177 395.665 309.557Z" fill="#FFFAF0" stroke="#FFE7BD" stroke-width="2.41" stroke-linecap="round" stroke-linejoin="round"/>
<path d="M326.886 299.157L314.286 299.097C309.696 299.077 305.946 302.787 305.926 307.377C305.906 311.977 309.616 315.717 314.206 315.737L326.806 315.797C328.996 315.797 330.776 314.047 330.786 311.857L330.826 303.137C330.836 300.947 329.066 299.167 326.886 299.157Z" fill="#FFBF8F"/>
<path d="M317.756 299.117H315.346C310.166 299.087 305.946 302.787 305.926 307.387C305.906 311.987 310.086 315.727 315.266 315.747H317.546" stroke="#F4904D" stroke-width="2.41" stroke-linecap="round" stroke-linejoin="round"/>
<path d="M320.645 316.058L380.855 316.158C380.855 316.158 380.975 298.908 380.935 298.928L320.725 298.828L320.645 316.058Z" fill="#78CDEF" stroke="#5EB2DB" stroke-width="2.41" stroke-linecap="round" stroke-linejoin="round"/>
<path d="M372.115 301.837H333.805C332.655 301.837 331.715 302.757 331.715 303.907C331.715 305.057 332.635 305.997 333.785 305.997H372.095C373.245 305.997 374.185 305.077 374.185 303.927C374.185 302.777 373.265 301.837 372.115 301.837Z" fill="#53BCE0"/>
<path d="M371.677 309.047H333.367C332.217 309.047 331.277 309.967 331.277 311.117C331.277 312.267 332.197 313.207 333.347 313.207H371.657C372.807 313.207 373.747 312.287 373.747 311.137C373.747 309.987 372.827 309.047 371.677 309.047Z" fill="#53BCE0"/>
<path d="M395.686 305.667C394.866 304.987 393.856 304.327 392.746 303.697C392.176 304.937 391.846 306.427 391.836 308.037C391.836 309.327 392.036 310.537 392.406 311.617C393.716 310.937 394.876 310.237 395.676 309.557C397.286 308.177 397.326 307.037 395.696 305.677L395.686 305.667Z" fill="#C6C4C1" stroke="#A5A29F" stroke-width="2.41" stroke-linecap="round" stroke-linejoin="round"/>
<path d="M317.459 301.397L317.4 313.487C317.39 315.387 318.923 316.934 320.823 316.944L320.833 316.944C322.733 316.953 324.28 315.42 324.29 313.52L324.349 301.431C324.358 299.531 322.825 297.983 320.925 297.974L320.915 297.974C319.016 297.965 317.468 299.497 317.459 301.397Z" fill="#5FADED" stroke="#4C9FD8" stroke-width="2.41" stroke-linecap="round" stroke-linejoin="round"/>
<path d="M380.856 316.157L323.746 316.077C323.296 316.597 322.576 316.937 321.766 316.927H319.866C318.916 316.927 318.096 316.447 317.676 315.747H315.266C314.456 315.747 313.676 315.647 312.926 315.477C312.486 315.367 312.046 315.237 311.626 315.077C311.346 314.977 311.076 314.857 310.806 314.727C310.406 314.537 310.026 314.317 309.666 314.077C308.946 313.597 308.306 313.017 307.766 312.377C306.606 310.977 305.926 309.257 305.926 307.387C305.926 307.097 305.946 306.817 305.976 306.537C305.996 306.397 306.016 306.257 306.036 306.117C306.086 305.847 306.146 305.577 306.226 305.307L306.206 305.317C306.596 303.987 307.356 302.787 308.366 301.807C308.976 301.217 309.676 300.707 310.456 300.297C310.716 300.157 310.986 300.037 311.256 299.917C312.486 299.397 313.866 299.107 315.326 299.127H317.736C318.156 298.437 318.986 297.977 319.936 297.987H321.836C322.646 297.987 323.366 298.337 323.816 298.867L380.926 298.947C381.046 298.977 387.826 300.977 392.726 303.717C392.976 303.857 393.226 303.997 393.466 304.147C393.506 304.167 393.546 304.197 393.586 304.217C393.836 304.367 394.076 304.517 394.306 304.667C394.316 304.677 394.326 304.677 394.326 304.677C394.546 304.817 394.746 304.967 394.946 305.107C394.996 305.147 395.046 305.177 395.096 305.217C395.296 305.367 395.496 305.527 395.676 305.677C395.786 305.757 395.876 305.847 395.966 305.927C396.416 306.347 396.696 306.747 396.816 307.137C397.066 307.927 396.666 308.697 395.666 309.557C395.566 309.647 395.446 309.747 395.326 309.837C395.286 309.867 395.236 309.897 395.196 309.927C395.116 309.997 395.036 310.057 394.946 310.117C394.896 310.157 394.836 310.187 394.786 310.227C394.706 310.287 394.626 310.337 394.536 310.397C394.466 310.437 394.406 310.477 394.346 310.517C394.256 310.567 394.176 310.627 394.086 310.677C394.016 310.717 393.956 310.757 393.886 310.797C393.796 310.847 393.706 310.907 393.616 310.957C393.546 310.997 393.476 311.037 393.406 311.077C393.306 311.137 393.196 311.187 393.096 311.247C393.026 311.287 392.966 311.317 392.896 311.357C392.736 311.437 392.566 311.527 392.396 311.617C387.666 314.047 380.856 316.157 380.856 316.157ZM380.856 316.157C380.856 316.157 380.856 316.087 380.856 315.967V316.157Z" stroke="#512921" stroke-width="2.41" stroke-linecap="round" stroke-linejoin="round"/>
<path d="M327.293 317.157C329.803 309.707 340.873 313.947 341.703 318.767C342.533 323.587 336.993 325.137 331.693 323.697C326.393 322.257 327.283 317.147 327.283 317.147L327.293 317.157Z" fill="#FFD2B9" stroke="#4F2A1A" stroke-width="2.37" stroke-linecap="round" stroke-linejoin="round"/>
<path d="M356.334 284.987C351.144 285.517 327.694 289.947 327.284 303.937C326.824 319.607 337.524 320.157 344.874 319.387C352.224 318.617 361.734 322.467 366.104 316.147C363.394 315.097 363.884 298.497 367.564 298.017" fill="#FFD2B9"/>
<path d="M356.334 284.987C351.144 285.517 327.694 289.947 327.284 303.937C326.824 319.607 337.524 320.157 344.874 319.387C352.224 318.617 361.734 322.467 366.104 316.147C363.394 315.097 363.884 298.497 367.564 298.017" stroke="#4F2A1A" stroke-width="2.32" stroke-linecap="round" stroke-linejoin="round"/>
</svg>
