<svg width="381" height="325" viewBox="0 0 381 325" fill="none" xmlns="http://www.w3.org/2000/svg">
<path d="M74.8635 168.643C58.8035 166.953 31.2135 172.163 21.1135 185.153C20.2935 186.203 19.8235 187.483 19.7435 188.823C19.1535 198.053 22.3235 206.013 32.9135 212.213C43.5635 218.443 50.7435 219.183 54.6035 217.513C58.3335 215.873 64.5036 214.133 68.1336 212.593" fill="white"/>
<path d="M74.8635 168.643C58.8035 166.953 31.2135 172.163 21.1135 185.153C20.2935 186.203 19.8235 187.483 19.7435 188.823C19.1535 198.053 22.3235 206.013 32.9135 212.213C43.5635 218.443 50.7435 219.183 54.6035 217.513C58.3335 215.873 64.5036 214.133 68.1336 212.593" stroke="#512920" stroke-width="2.5" stroke-linecap="round" stroke-linejoin="round"/>
<path d="M55.1446 210.023C49.6246 194.873 36.0446 186.173 25.2646 185.893C23.8446 185.853 22.5046 186.773 21.3746 187.643C5.9446 199.523 -2.8954 215.903 3.1946 235.743C8.9946 254.533 34.1246 253.703 39.6446 245.503C45.2346 247.233 49.7346 244.183 51.0346 240.873C52.4446 237.293 52.3846 232.083 49.2246 228.033C49.8046 225.683 51.0146 221.543 50.9846 217.753C52.2446 216.513 52.5146 215.583 53.8346 214.003C54.7546 212.893 55.6546 211.383 55.1546 210.013L55.1446 210.023Z" fill="#FFD2B9" stroke="#4F2A1A" stroke-width="2.5" stroke-linecap="round" stroke-linejoin="round"/>
<path d="M204.983 31.0731C227.133 35.5731 250.453 18.0631 225.703 1.40307C223.333 -0.346926 226.363 8.38306 216.003 13.2031C218.743 9.96306 217.863 2.51307 216.373 1.11307C215.363 0.163065 213.153 0.513052 213.883 2.19305C214.613 3.87305 216.463 9.92306 212.093 14.6031C210.503 14.5131 206.843 14.3631 202.593 19.0331C201.373 14.8431 197.843 15.3131 196.683 13.5831C192.853 7.81307 196.153 1.49307 196.923 0.373075C197.893 -1.04693 182.563 1.30306 185.953 12.3631C182.433 10.3931 180.333 4.96308 180.353 2.09308C180.363 0.0430763 168.883 4.29306 171.453 16.1031C174.033 27.9131 186.243 31.3931 204.983 31.0831V31.0731Z" fill="#4F2A1A"/>
<path d="M263.936 42.4429C260.116 34.0629 268.686 19.3229 289.216 17.6729C303.196 16.5529 315.636 21.7729 326.286 31.1429C330.146 28.6829 335.266 28.0529 338.286 30.6529C341.416 33.3629 341.046 38.0429 332.616 42.4829C323.316 64.1829 281.216 76.2229 263.936 42.4529V42.4429Z" fill="#FFAA8C" stroke="#512920" stroke-width="2.5" stroke-linecap="round" stroke-linejoin="round"/>
<path d="M315.485 39.283C302.845 44.493 286.295 47.6929 268.965 45.6029L315.485 39.283Z" fill="#FFAA8C"/>
<path d="M315.485 39.283C302.845 44.493 286.295 47.6929 268.965 45.6029" stroke="#512920" stroke-width="2.5" stroke-linecap="round" stroke-linejoin="round"/>
<path d="M137.055 37.073C141.395 29.043 134.625 13.643 115.455 10.283C102.405 8.00299 90.2351 12.163 79.3851 20.603C75.9651 17.833 71.2051 16.783 68.1451 19.123C64.9551 21.553 64.8951 26.253 72.4351 31.373C79.2751 53.773 117.815 69.263 137.055 37.073Z" fill="#FFAA8C" stroke="#512920" stroke-width="2.5" stroke-linecap="round" stroke-linejoin="round"/>
<path d="M87.8047 29.533C99.2447 35.773 114.525 40.343 131.015 39.713L87.8047 29.533Z" fill="#FFAA8C"/>
<path d="M87.8047 29.533C99.2447 35.773 114.525 40.343 131.015 39.713" stroke="#512920" stroke-width="2.5" stroke-linecap="round" stroke-linejoin="round"/>
<path d="M59.3946 170.083C53.8046 149.023 60.8646 132.973 71.4646 119.553C72.9046 117.883 85.4646 14.3429 198.975 20.9229C301.865 26.8829 309.725 121.473 310.215 131.213C310.215 132.863 322.165 154.923 312.905 180.863C260.775 166.083 150.705 150.793 59.4046 170.083H59.3946Z" fill="#FFD2B9" stroke="#4F2A1A" stroke-width="2.5" stroke-linecap="round" stroke-linejoin="round"/>
<path d="M203.375 101.153C203.375 110.613 192.285 118.273 178.615 118.273C164.935 118.273 153.855 110.603 153.855 101.153C153.855 91.7032 164.945 84.0332 178.615 84.0332C192.295 84.0332 203.375 91.7032 203.375 101.153Z" fill="#FFAA8C" stroke="#512920" stroke-width="2.5" stroke-linecap="round" stroke-linejoin="round"/>
<path d="M169.207 96.6533V106.133V96.6533Z" fill="white"/>
<path d="M169.207 96.6533V106.133" stroke="#512920" stroke-width="2.5" stroke-linecap="round" stroke-linejoin="round"/>
<path d="M185.797 96.6533C185.797 100.693 185.797 104.203 185.797 106.133V96.6533Z" fill="white"/>
<path d="M185.797 96.6533C185.797 100.693 185.797 104.203 185.797 106.133" stroke="#512920" stroke-width="2.5" stroke-linecap="round" stroke-linejoin="round"/>
<path d="M120.243 91.2933C121.873 101.593 131.373 108.593 141.463 106.933C151.553 105.273 158.423 95.5733 156.793 85.2733C156.323 82.2933 155.193 79.5833 153.573 77.2833C146.713 76.1133 141.433 73.9233 135.573 69.6333C125.483 71.2933 118.613 80.9933 120.243 91.2933Z" fill="white" stroke="#512920" stroke-width="2.5" stroke-linecap="round" stroke-linejoin="round"/>
<path d="M142.094 88.9632C142.494 91.9232 144.834 93.9332 147.314 93.4532C149.794 92.9732 151.484 90.1932 151.084 87.2332C150.684 84.2732 148.344 82.2632 145.864 82.7432C143.384 83.2232 141.694 86.0032 142.094 88.9632Z" fill="#4F2A1A"/>
<path d="M122.463 90.8033C112.503 86.3733 95.7734 90.3432 95.7734 97.4532C95.7734 104.563 106.443 108.143 120.853 102.843C124.903 101.483 127.803 98.9232 126.803 95.8532" fill="white"/>
<path d="M122.463 90.8033C112.503 86.3733 95.7734 90.3432 95.7734 97.4532C95.7734 104.563 106.443 108.143 120.853 102.843C124.903 101.483 127.803 98.9232 126.803 95.8532" stroke="#512920" stroke-width="2.5" stroke-linecap="round" stroke-linejoin="round"/>
<path d="M159.382 71.7732C163.132 80.2932 143.942 77.8432 132.512 67.0132" stroke="#512920" stroke-width="4.5" stroke-linecap="round" stroke-linejoin="round"/>
<path d="M167.844 68.9932C169.734 72.1332 169.034 78.6432 165.234 80.6232" stroke="#512920" stroke-width="2.5" stroke-linecap="round" stroke-linejoin="round"/>
<path d="M168.124 120.193C166.324 115.393 163.614 111.363 160.244 108.193C143.234 92.1531 107.544 99.7031 96.7539 118.903" fill="#FFD2B9"/>
<path d="M168.124 120.193C166.324 115.393 163.614 111.363 160.244 108.193C143.234 92.1531 107.544 99.7031 96.7539 118.903" stroke="#4F2A1A" stroke-width="2.5" stroke-linecap="round" stroke-linejoin="round"/>
<path d="M103.473 112.403C103.613 114.013 104.433 115.643 105.113 117.123C108.793 125.253 119.943 131.053 133.033 130.853C137.843 130.783 142.363 129.913 146.333 128.433C154.903 125.233 161.523 119.243 162.233 112.263C149.313 95.4033 119.283 98.2433 103.473 112.403Z" fill="#FF7873"/>
<path d="M166.902 125.273C161.932 128.103 157.612 144.023 168.922 148.273L166.902 125.273Z" fill="#FFD2B9"/>
<path d="M166.902 125.273C161.932 128.103 157.612 144.023 168.922 148.273" stroke="#4F2A1A" stroke-width="2.5" stroke-linecap="round" stroke-linejoin="round"/>
<path d="M188.642 118.733C183.622 115.473 162.432 113.733 161.602 120.243C161.262 122.913 163.402 124.443 166.892 125.273C173.652 124.543 177.832 124.973 183.252 125.933" fill="#FFD2B9"/>
<path d="M188.642 118.733C183.622 115.473 162.432 113.733 161.602 120.243C161.262 122.913 163.402 124.443 166.892 125.273C173.652 124.543 177.832 124.973 183.252 125.933" stroke="#4F2A1A" stroke-width="2.5" stroke-linecap="round" stroke-linejoin="round"/>
<path d="M238.153 91.2933C236.493 101.593 226.793 108.593 216.493 106.933C206.193 105.273 199.193 95.5733 200.853 85.2733C201.333 82.2933 202.493 79.5833 204.133 77.2833C211.133 76.1133 216.523 73.9233 222.503 69.6333C232.803 71.2933 239.803 80.9933 238.143 91.2933H238.153Z" fill="white" stroke="#512920" stroke-width="2.5" stroke-linecap="round" stroke-linejoin="round"/>
<path d="M215.861 88.9632C215.451 91.9232 213.071 93.9332 210.531 93.4532C207.991 92.9732 206.272 90.1932 206.682 87.2332C207.092 84.2732 209.472 82.2632 212.012 82.7432C214.542 83.2232 216.271 86.0032 215.861 88.9632Z" fill="#4F2A1A"/>
<path d="M235.892 90.8033C246.052 86.3733 263.132 90.3432 263.132 97.4532C263.132 104.563 252.252 108.143 237.542 102.843C233.402 101.483 230.442 98.9232 231.472 95.8532" fill="white"/>
<path d="M235.892 90.8033C246.052 86.3733 263.132 90.3432 263.132 97.4532C263.132 104.563 252.252 108.143 237.542 102.843C233.402 101.483 230.442 98.9232 231.472 95.8532" stroke="#512920" stroke-width="2.5" stroke-linecap="round" stroke-linejoin="round"/>
<path d="M198.211 71.7732C194.381 80.2932 213.971 77.8432 225.631 67.0132" stroke="#512920" stroke-width="4.5" stroke-linecap="round" stroke-linejoin="round"/>
<path d="M189.583 68.9932C187.663 72.1332 188.363 78.6432 192.253 80.6232" stroke="#512920" stroke-width="2.5" stroke-linecap="round" stroke-linejoin="round"/>
<path d="M186.922 130.963C188.102 120.563 191.952 113.173 197.342 108.193C214.702 92.1531 251.122 99.7031 262.122 118.903" fill="#FFD2B9"/>
<path d="M186.922 130.963C188.102 120.563 191.952 113.173 197.342 108.193C214.702 92.1531 251.122 99.7031 262.122 118.903" stroke="#4F2A1A" stroke-width="2.5" stroke-linecap="round" stroke-linejoin="round"/>
<path d="M254.503 112.453C254.363 114.063 253.523 115.693 252.833 117.173C249.083 125.303 237.703 131.103 224.343 130.903C219.443 130.833 214.823 129.963 210.773 128.483C202.033 125.283 195.273 119.293 194.543 112.313C207.733 95.4531 238.363 98.2931 254.503 112.453Z" fill="#FF7873"/>
<path d="M136.643 285.483C130.423 276.373 106.943 261.893 89.2429 264.423C73.1529 276.513 63.093 295.823 60.073 311.963C57.813 314.733 56.693 318.773 60.073 320.173C68.823 323.813 109.583 324.653 116.213 321.273C118.383 320.143 121.873 308.643 123.333 302.233C128.743 295.163 132.883 289.693 136.643 285.473V285.483Z" fill="#FFD2B9"/>
<mask id="mask0_16770_66720" style="mask-type:luminance" maskUnits="userSpaceOnUse" x="57" y="264" width="80" height="60">
<path d="M136.643 285.483C130.423 276.373 106.943 261.893 89.2429 264.423C73.1529 276.513 63.093 295.823 60.073 311.963C57.813 314.733 56.693 318.773 60.073 320.173C68.823 323.813 109.583 324.653 116.213 321.273C118.383 320.143 121.873 308.643 123.333 302.233C128.743 295.163 132.883 289.693 136.643 285.473V285.483Z" fill="white"/>
</mask>
<g mask="url(#mask0_16770_66720)">
<path d="M85.9447 326.033C86.4747 321.673 85.5347 314.813 80.0547 314.443C74.6247 314.073 71.1247 320.513 70.3047 326.493C75.0447 330.703 83.3147 328.273 85.9547 326.033H85.9447Z" fill="#FFAA8C" stroke="#512920" stroke-width="2.5" stroke-linecap="round" stroke-linejoin="round"/>
<path d="M66.9639 324.223C68.2039 320.143 68.2739 313.353 63.4939 312.213C58.7139 311.073 55.4139 316.803 53.7539 322.353C57.2839 327.033 64.2839 325.963 66.9539 324.223H66.9639Z" fill="#FFAA8C" stroke="#512920" stroke-width="2.5" stroke-linecap="round" stroke-linejoin="round"/>
</g>
<path d="M136.643 285.483C130.423 276.373 106.943 261.893 89.2429 264.423C73.1529 276.513 63.093 295.823 60.073 311.963C57.813 314.733 56.693 318.773 60.073 320.173C68.823 323.813 109.583 324.653 116.213 321.273C118.383 320.143 121.873 308.643 123.333 302.233C128.743 295.163 132.883 289.693 136.643 285.473V285.483Z" stroke="#4F2A1A" stroke-width="2.5" stroke-linecap="round" stroke-linejoin="round"/>
<path d="M295.255 262.613C274.285 284.583 235.805 296.323 173.325 293.673C119.465 291.393 88.0855 274.503 71.2955 252.083C51.9555 226.263 51.9655 193.123 59.2755 166.553C126.236 146.153 240.815 149.563 313.405 178.423C313.595 179.613 313.765 180.793 313.935 181.963C318.576 215.073 314.025 242.943 295.265 262.603L295.255 262.613Z" fill="white" stroke="#512920" stroke-width="2.5" stroke-linecap="round" stroke-linejoin="round"/>
<path d="M295.257 262.613C274.287 284.583 235.807 296.323 173.327 293.673C119.467 291.393 88.0869 274.503 71.2969 252.083C80.7669 248.503 92.3669 245.653 105.457 243.603C98.0769 214.443 98.2769 189.373 104.267 170.663C106.887 170.313 113.667 167.963 117.457 169.473C111.087 187.803 111.417 213.413 118.187 241.923C149.267 238.493 186.737 239.143 223.517 244.603C228.587 214.583 228.797 192.723 226.967 173.533C230.787 172.083 236.867 174.233 239.477 174.623C241.937 188.673 241.937 219.233 236.207 246.683C256.797 250.393 276.907 255.663 295.257 262.623V262.613Z" fill="#41AAFF" stroke="#4F2A1A" stroke-width="2.5" stroke-linecap="round" stroke-linejoin="round"/>
<path d="M79.8242 169.013C94.3442 176.973 127.134 184.503 147.134 160.853L79.8242 169.013Z" fill="white"/>
<path d="M79.8242 169.013C94.3442 176.973 127.134 184.503 147.134 160.853" stroke="#512920" stroke-width="2.5" stroke-linecap="round" stroke-linejoin="round"/>
<path d="M265.794 172.123C250.574 180.083 216.204 187.613 195.234 163.963L265.794 172.123Z" fill="white"/>
<path d="M265.794 172.123C250.574 180.083 216.204 187.613 195.234 163.963" stroke="#512920" stroke-width="2.5" stroke-linecap="round" stroke-linejoin="round"/>
<path d="M176.628 150.303C176.628 150.303 185.998 144.153 198.598 142.013C200.138 141.753 201.578 142.863 201.818 144.463C202.958 152.293 202.708 160.663 200.768 169.693C200.418 171.313 198.847 172.323 197.297 171.903C192.477 170.603 182.367 167.213 176.438 160.293L176.628 150.303Z" fill="#41AAFF" stroke="#4F2A1A" stroke-width="2.5" stroke-linecap="round" stroke-linejoin="round"/>
<path d="M166.166 149.853C166.166 149.853 157.726 143.003 145.336 139.873C143.826 139.493 142.296 140.483 141.936 142.063C140.176 149.773 139.766 158.143 140.966 167.293C141.186 168.943 142.666 170.073 144.246 169.773C149.146 168.853 159.286 166.273 165.756 159.843L166.156 149.853H166.166Z" fill="#41AAFF" stroke="#4F2A1A" stroke-width="2.5" stroke-linecap="round" stroke-linejoin="round"/>
<path d="M176.718 154.421C176.857 150.944 174.151 148.014 170.674 147.875C167.197 147.737 164.267 150.443 164.128 153.92L164.01 156.897C163.871 160.374 166.578 163.304 170.054 163.443C173.531 163.581 176.461 160.875 176.6 157.398L176.718 154.421Z" fill="#41AAFF" stroke="#4F2A1A" stroke-width="2.5" stroke-linecap="round" stroke-linejoin="round"/>
<path d="M227.356 291.363C233.576 282.253 259.566 273.733 277.266 276.273C289.876 281.743 299.006 294.043 298.226 311.963C300.486 314.733 301.606 318.773 298.226 320.173C289.476 323.813 245.396 324.443 238.766 321.063C236.596 319.933 235.326 310.443 236.616 304.933C232.866 302.013 228.936 296.433 227.336 291.363H227.356Z" fill="#FFD2B9"/>
<mask id="mask1_16770_66720" style="mask-type:luminance" maskUnits="userSpaceOnUse" x="227" y="275" width="74" height="49">
<path d="M227.356 291.363C233.576 282.253 259.566 273.733 277.266 276.273C289.876 281.743 299.006 294.043 298.226 311.963C300.486 314.733 301.606 318.773 298.226 320.173C289.476 323.813 245.396 324.443 238.766 321.063C236.596 319.933 235.326 310.443 236.616 304.933C232.866 302.013 228.936 296.433 227.336 291.363H227.356Z" fill="white"/>
</mask>
<g mask="url(#mask1_16770_66720)">
<path d="M272.367 326.033C271.837 321.673 272.777 314.813 278.257 314.443C283.687 314.073 287.187 320.513 288.007 326.493C283.267 330.703 274.997 328.273 272.357 326.033H272.367Z" fill="#FFAA8C" stroke="#512920" stroke-width="2.5" stroke-linecap="round" stroke-linejoin="round"/>
<path d="M291.558 324.223C290.318 320.143 290.248 313.353 295.028 312.213C299.758 311.083 303.108 316.803 304.768 322.353C301.238 327.033 294.238 325.963 291.568 324.223H291.558Z" fill="#FFAA8C" stroke="#512920" stroke-width="2.5" stroke-linecap="round" stroke-linejoin="round"/>
</g>
<path d="M227.356 291.363C233.576 282.253 259.566 273.733 277.266 276.273C289.876 281.743 299.006 294.043 298.226 311.963C300.486 314.733 301.606 318.773 298.226 320.173C289.476 323.813 245.396 324.443 238.766 321.063C236.596 319.933 235.326 310.443 236.616 304.933C232.866 302.013 228.936 296.433 227.336 291.363H227.356Z" stroke="#4F2A1A" stroke-width="2.5" stroke-linecap="round" stroke-linejoin="round"/>
<path d="M303.074 175.483C319.624 173.793 348.054 179.003 358.464 191.993C359.304 193.043 359.794 194.323 359.884 195.663C360.494 204.893 357.224 212.853 346.304 219.053C335.334 225.283 327.924 226.023 323.954 224.353C320.114 222.713 313.754 220.973 310.004 219.433" fill="white"/>
<path d="M303.074 175.483C319.624 173.793 348.054 179.003 358.464 191.993C359.304 193.043 359.794 194.323 359.884 195.663C360.494 204.893 357.224 212.853 346.304 219.053C335.334 225.283 327.924 226.023 323.954 224.353C320.114 222.713 313.754 220.973 310.004 219.433" stroke="#512920" stroke-width="2.5" stroke-linecap="round" stroke-linejoin="round"/>
<path d="M323.402 216.863C323.402 203.863 338.582 187.873 354.192 192.733C355.582 193.163 357.032 193.613 358.202 194.483C374.102 206.363 383.542 222.143 377.382 243.693C371.372 264.183 345.062 260.553 339.382 252.343C333.622 254.073 328.992 251.023 327.642 247.713C326.192 244.133 326.252 238.923 329.502 234.873C328.902 232.523 327.652 228.383 327.692 224.593C326.392 223.353 326.112 222.423 324.762 220.843C323.812 219.733 323.402 218.303 323.402 216.853V216.863Z" fill="#FFD2B9" stroke="#4F2A1A" stroke-width="2.5" stroke-linecap="round" stroke-linejoin="round"/>
</svg>
