<svg width="328" height="333" viewBox="0 0 328 333" fill="none" xmlns="http://www.w3.org/2000/svg">
<path d="M289.837 214.169C310.427 205.519 318.117 198.479 325.387 177.139C330.707 160.629 283.677 145.179 278.707 165.169C278.267 167.249 281.077 180.009 276.027 193.649" fill="white"/>
<path d="M289.837 214.169C310.427 205.519 318.117 198.479 325.387 177.139C330.707 160.629 283.677 145.179 278.707 165.169C278.267 167.249 281.077 180.009 276.027 193.649" stroke="#4F2A1A" stroke-width="2.5" stroke-linecap="round" stroke-linejoin="round"/>
<path d="M316.976 177.659C319.896 176.379 322.006 174.109 322.746 171.429C324.356 165.609 325.636 159.709 326.226 154.159C329.586 122.939 303.296 105.869 291.096 105.339C279.346 104.829 280.546 119.459 279.756 131.049C278.906 138.059 283.086 147.899 281.876 164.639C281.776 166.029 282.056 167.739 282.696 169.029C287.826 179.439 305.066 182.859 316.966 177.649L316.976 177.659Z" fill="#FFD2B9" stroke="#4F2A1A" stroke-width="2.5" stroke-linecap="round" stroke-linejoin="round"/>
<path d="M177.325 324.219C178.945 330.779 181.425 330.769 183.665 330.749L229.975 330.449C233.465 330.429 233.075 326.739 231.065 323.759C230.605 323.069 230.045 322.409 229.435 321.849C228.845 321.309 228.815 320.509 229.135 319.779C238.015 299.289 238.075 280.709 238.075 280.709L174.125 281.959C171.735 301.089 175.775 318.799 177.325 324.219Z" fill="#FFD2B9" stroke="#4F2A1A" stroke-width="2.5" stroke-linecap="round" stroke-linejoin="round"/>
<path d="M222.117 330.499L229.987 330.449C233.477 330.429 233.087 326.739 231.077 323.759C228.067 323.019 225.087 325.269 222.117 330.509V330.499Z" fill="#FEB498" stroke="#4F2A1A" stroke-width="2.5" stroke-linecap="round" stroke-linejoin="round"/>
<path d="M201.984 330.629C206.824 330.599 211.804 330.569 216.174 330.539C211.384 321.459 206.654 321.499 201.984 330.629Z" fill="#FFAA8C" stroke="#512920" stroke-width="2.5" stroke-linecap="round" stroke-linejoin="round"/>
<path d="M134.857 284.679C137.697 303.109 127.407 319.609 126.647 324.969C125.807 330.089 123.547 331.549 120.287 331.529C116.027 331.499 75.3965 331.259 73.0065 331.249C70.6765 331.239 70.0365 328.539 70.8865 325.109C71.3065 323.419 72.5965 321.399 72.4465 320.359C71.0765 311.239 75.7365 268.299 76.4465 268.569" fill="#FFD2B9"/>
<path d="M134.857 284.679C137.697 303.109 127.407 319.609 126.647 324.969C125.807 330.089 123.547 331.549 120.287 331.529C116.027 331.499 75.3965 331.259 73.0065 331.249C70.6765 331.239 70.0365 328.539 70.8865 325.109C71.3065 323.419 72.5965 321.399 72.4465 320.359C71.0765 311.239 75.7365 268.299 76.4465 268.569" stroke="#4F2A1A" stroke-width="2.5" stroke-linecap="round" stroke-linejoin="round"/>
<path d="M77.4154 331.279C79.6054 331.289 83.7754 331.319 88.7654 331.349C85.1054 322.899 80.4254 322.469 76.5554 329.839C76.2154 330.489 76.6754 331.279 77.4154 331.279ZM97.6254 331.399C102.465 331.429 107.445 331.459 111.815 331.479C107.145 322.349 102.415 322.329 97.6254 331.399Z" fill="#FFAA8C" stroke="#512920" stroke-width="2.5" stroke-linecap="round" stroke-linejoin="round"/>
<path d="M158.556 303.749C155.946 303.889 153.286 303.879 150.636 303.449C148.006 303.019 145.286 302.149 143.096 300.319C142.006 299.419 141.096 298.279 140.456 297.009C139.816 295.749 139.396 294.249 139.616 292.719C139.826 291.189 140.716 289.749 142.016 288.899C143.296 288.039 145.016 287.749 146.536 288.359C148.036 288.989 149.056 290.379 149.406 291.819C149.756 293.249 149.686 294.689 149.316 296.049C148.946 297.409 148.236 298.689 147.226 299.699C146.226 300.709 144.946 301.429 143.616 301.809C142.296 302.189 140.906 302.369 139.496 302.139C138.096 301.929 136.756 301.269 135.726 300.329C134.686 299.399 133.906 298.249 133.316 297.049C132.726 295.829 132.306 294.599 132.036 293.239C131.966 292.899 132.186 292.569 132.526 292.509C132.856 292.449 133.186 292.659 133.256 292.989V293.029C133.786 295.359 134.866 297.759 136.626 299.299C137.506 300.069 138.566 300.569 139.706 300.719C140.836 300.889 142.046 300.719 143.166 300.369C145.426 299.699 147.176 297.869 147.706 295.619C147.986 294.509 148.016 293.309 147.726 292.249C147.466 291.219 146.746 290.369 145.866 290.019C144.976 289.679 143.896 289.859 143.056 290.439C142.216 291.019 141.666 291.949 141.546 292.959C141.316 295.009 142.676 297.289 144.426 298.669C146.226 300.099 148.576 300.829 150.976 301.149C153.396 301.479 155.886 301.429 158.376 301.229C159.066 301.169 159.666 301.679 159.726 302.369C159.786 303.059 159.276 303.659 158.586 303.719C158.586 303.719 158.556 303.719 158.546 303.719L158.556 303.749Z" fill="black"/>
<path d="M282.227 262.549C266.737 290.679 235.727 312.989 164.107 309.339C139.867 308.109 120.127 304.219 104.107 298.459C14.0669 266.099 41.3169 174.679 47.2069 162.669C47.8369 161.389 48.2669 161.859 49.0669 162.139C124.077 187.809 241.347 205.019 292.927 177.939C293.507 177.629 293.667 178.109 293.817 178.759C295.587 186.379 299.177 231.769 282.227 262.559V262.549Z" fill="white"/>
<path d="M295.045 211.839C294.055 228.009 290.715 247.109 282.215 262.549C266.725 290.679 235.715 312.989 164.095 309.339C139.855 308.109 120.115 304.219 104.095 298.459C14.0552 266.099 41.3052 174.679 47.1952 162.669C47.8252 161.389 50.4052 154.609 51.2152 154.879C126.225 180.549 241.335 205.019 292.915 177.929" stroke="#4F2A1A" stroke-width="2.5" stroke-linecap="round" stroke-linejoin="round"/>
<path d="M282.224 262.549C266.114 290.329 235.724 312.989 164.104 309.339C139.864 308.109 120.124 304.219 104.104 298.459C102.324 297.759 100.584 297.069 98.8736 296.419C72.4736 285.669 57.0536 269.509 48.4336 252.039C66.6436 259.519 76.3436 261.729 96.1336 264.959C96.8236 265.069 97.3736 264.469 97.3336 263.769C95.9536 236.459 98.0536 209.039 99.1536 196.419L107.384 196.839C106.274 209.509 104.464 237.449 105.604 264.549C105.644 265.439 106.424 266.139 107.304 266.249C147.154 271.339 186.764 273.219 216.214 270.489C217.034 270.409 217.734 269.849 217.934 269.049C225.824 238.369 224.174 211.709 224.154 205.989L231.614 206.369C231.644 212.039 233.294 238.149 225.624 268.539C225.444 269.259 226.024 269.919 226.764 269.879C237.134 269.349 264.674 265.869 282.204 262.549H282.224Z" fill="#41AAFF" stroke="#4F2A1A" stroke-width="2.5" stroke-linecap="round" stroke-linejoin="round"/>
<path d="M271.739 196.329C271.739 196.329 245.389 229.999 196.219 203.519L271.739 196.329Z" fill="white"/>
<path d="M271.739 196.329C271.739 196.329 245.389 229.999 196.219 203.519" stroke="#4F2A1A" stroke-width="2.5" stroke-linecap="round" stroke-linejoin="round"/>
<path d="M70.0156 181.529C70.0156 181.529 96.6256 215.869 144.866 195.349L70.0156 181.529Z" fill="white"/>
<path d="M70.0156 181.529C70.0156 181.529 96.6256 215.869 144.866 195.349" stroke="#4F2A1A" stroke-width="2.5" stroke-linecap="round" stroke-linejoin="round"/>
<path d="M286.297 213.949C288.497 213.589 291.627 212.979 295.267 211.709" stroke="#4F2A1A" stroke-width="2.5" stroke-linecap="round" stroke-linejoin="round"/>
<path d="M48.4371 165.639C27.4671 174.539 17.8472 195.689 19.5272 203.619C21.2072 211.549 22.9472 219.259 43.3272 222.309C63.7072 225.359 71.4572 218.279 73.2572 212.269C74.7272 207.379 75.4172 195.379 68.3272 186.309" fill="white"/>
<path d="M48.4371 165.639C27.4671 174.539 17.8472 195.689 19.5272 203.619C21.2072 211.549 22.9472 219.259 43.3272 222.309C63.7072 225.359 71.4572 218.279 73.2572 212.269C74.7272 207.379 75.4172 195.379 68.3272 186.309" stroke="#4F2A1A" stroke-width="2.5" stroke-linecap="round" stroke-linejoin="round"/>
<path d="M23.5563 201.659C28.9263 193.929 53.3063 197.559 58.5363 200.259C68.3963 199.869 86.7263 204.739 95.9363 214.819C102.016 217.839 103.296 223.929 101.516 228.199C103.516 231.339 103.066 235.259 101.596 237.069C99.7063 239.379 96.2263 240.199 94.1063 240.199C90.9963 245.229 79.2263 251.739 59.7663 243.659C23.8263 244.519 16.7063 211.519 23.5663 201.649L23.5563 201.659Z" fill="#FFD2B9" stroke="#4F2A1A" stroke-width="2.5" stroke-linecap="round" stroke-linejoin="round"/>
<path d="M98.3789 225.849C99.9489 226.379 101.009 227.279 101.519 228.199L98.3789 225.849Z" fill="#FFD2B9"/>
<path d="M98.3789 225.849C99.9489 226.379 101.009 227.279 101.519 228.199" stroke="#4F2A1A" stroke-width="2.5" stroke-linecap="round" stroke-linejoin="round"/>
<path d="M90.7266 239.439C91.5066 239.749 92.9766 240.209 94.1066 240.209L90.7266 239.439Z" fill="#FFD2B9"/>
<path d="M90.7266 239.439C91.5066 239.749 92.9766 240.209 94.1066 240.209" stroke="#4F2A1A" stroke-width="2.5" stroke-linecap="round" stroke-linejoin="round"/>
<path d="M42.3867 202.909C46.8167 201.169 52.5867 200.269 58.5367 200.269L42.3867 202.909Z" fill="#FFD2B9"/>
<path d="M42.3867 202.909C46.8167 201.169 52.5867 200.269 58.5367 200.269" stroke="#4F2A1A" stroke-width="2.5" stroke-linecap="round" stroke-linejoin="round"/>
<path d="M242.876 34.0089C252.156 24.2389 277.006 21.3489 291.606 52.9189C292.326 54.4389 299.046 53.479 300.566 56.739C302.086 59.999 287.016 80.5689 262.706 70.1989C241.786 61.2789 241.076 42.2289 241.166 40.5289" fill="#FFAA8C"/>
<path d="M242.876 34.0089C252.156 24.2389 277.006 21.3489 291.606 52.9189C292.326 54.4389 299.046 53.479 300.566 56.739C302.086 59.999 287.016 80.5689 262.706 70.1989C241.786 61.2789 241.076 42.2289 241.166 40.5289" stroke="#512920" stroke-width="2.5" stroke-linecap="round" stroke-linejoin="round"/>
<path d="M289.815 179.488C289.815 179.488 305.925 158.718 294.715 128.418C290.375 116.688 295.515 94.9985 281.525 67.6485C265.385 36.0985 237.665 7.63849 181.635 7.50849C94.1052 7.30849 68.2052 51.1985 58.2352 108.938C56.1052 121.298 46.0252 137.668 50.5852 156.618C51.6452 161.018 54.4152 164.799 58.3052 167.099C79.6652 179.719 149.115 195.569 208.625 195.579C258.365 195.579 282.955 186.088 289.815 179.488Z" fill="#FFD2B9" stroke="#4F2A1A" stroke-width="2.5" stroke-linecap="round" stroke-linejoin="round"/>
<path d="M110.256 24.9887C100.446 14.2687 79.4664 9.08874 57.2964 33.1387C56.0064 34.5087 49.3864 30.8387 46.6364 33.7987C43.8864 36.7587 47.4964 66.3287 80.5964 62.4087C98.3664 60.2987 107.596 50.3287 111.586 44.1687" fill="#FFAA8C"/>
<path d="M110.256 24.9887C100.446 14.2687 79.4664 9.08874 57.2964 33.1387C56.0064 34.5087 49.3864 30.8387 46.6364 33.7987C43.8864 36.7587 47.4964 66.3287 80.5964 62.4087C98.3664 60.2987 107.596 50.3287 111.586 44.1687" stroke="#512920" stroke-width="2.5" stroke-linecap="round" stroke-linejoin="round"/>
<path d="M193.996 120.979C193.176 134.699 181.886 143.619 169.926 142.609C157.556 141.559 148.766 131.759 150.036 119.029C151.396 105.389 161.706 97.1588 174.106 97.8088C187.096 98.4788 194.766 108.209 193.996 120.979Z" fill="white" stroke="#512920" stroke-width="2.5" stroke-linecap="round" stroke-linejoin="round"/>
<path d="M182.326 124.949C182.056 129.359 178.436 132.229 174.586 131.899C170.606 131.559 167.786 128.409 168.196 124.319C168.636 119.929 171.946 117.289 175.936 117.499C179.926 117.709 182.576 120.839 182.326 124.949Z" fill="#4F2A1A"/>
<path d="M176.145 83.5487C182.845 85.4087 188.435 83.7387 192.035 79.1587" stroke="#512920" stroke-width="4.5" stroke-linecap="round" stroke-linejoin="round"/>
<path d="M283.454 123.399C285.554 136.449 278.824 146.639 269.604 147.589C260.074 148.569 251.504 140.729 249.944 128.539C248.264 115.479 254.405 106.099 263.875 104.739C273.795 103.309 281.504 111.249 283.454 123.399Z" fill="white" stroke="#512920" stroke-width="2.5" stroke-linecap="round" stroke-linejoin="round"/>
<path d="M275.445 128.989C276.115 133.179 273.955 136.459 270.995 136.769C267.935 137.079 265.175 134.569 264.675 130.649C264.135 126.449 266.105 123.439 269.155 122.999C272.345 122.539 274.825 125.089 275.445 128.999V128.989Z" fill="#4F2A1A"/>
<path d="M265.514 92.3688C260.694 92.0688 255.334 88.9488 254.844 84.0488" stroke="#512920" stroke-width="4.5" stroke-linecap="round" stroke-linejoin="round"/>
<path d="M211.685 144.389C200.485 148.269 190.395 156.609 190.545 160.709C190.705 164.809 195.175 167.489 205.715 168.339C214.245 169.029 223.555 168.479 225.985 164.999C228.415 161.509 229.385 150.869 230.905 147.749C223.205 147.029 214.295 143.959 211.685 144.399V144.389Z" fill="#F0503C"/>
<mask id="mask0_16770_66659" style="mask-type:luminance" maskUnits="userSpaceOnUse" x="190" y="144" width="41" height="25">
<path d="M211.685 144.389C200.485 148.269 190.395 156.609 190.545 160.709C190.705 164.809 195.175 167.489 205.715 168.339C214.245 169.029 223.555 168.479 225.985 164.999C228.415 161.509 229.385 150.869 230.905 147.749C223.205 147.029 214.295 143.959 211.685 144.399V144.389Z" fill="white"/>
</mask>
<g mask="url(#mask0_16770_66659)">
<path d="M193.605 148.809C209.025 148.139 217.935 158.679 218.835 171.739C176.875 174.169 183.835 154.839 193.605 148.809Z" fill="#FF7872" stroke="#512920" stroke-width="2.5" stroke-linecap="round" stroke-linejoin="round"/>
</g>
<path d="M211.685 144.389C200.485 148.269 190.395 156.609 190.545 160.709C190.705 164.809 195.175 167.489 205.715 168.339C214.245 169.029 223.555 168.479 225.985 164.999C228.415 161.509 229.385 150.869 230.905 147.749C223.205 147.029 214.295 143.959 211.685 144.399V144.389Z" stroke="#512920" stroke-width="2.5" stroke-linecap="round" stroke-linejoin="round"/>
<path d="M253.354 137.312C254.034 127.627 243.233 118.978 229.229 117.993C215.224 117.009 203.319 124.063 202.639 133.748C201.958 143.433 212.759 152.083 226.764 153.067C240.768 154.051 252.673 146.998 253.354 137.312Z" fill="#FFAA8C" stroke="#512920" stroke-width="2.5" stroke-linecap="round" stroke-linejoin="round"/>
<path d="M238.783 131.569C238.053 135.149 237.273 137.779 238.103 141.279L238.783 131.569Z" fill="white"/>
<path d="M238.783 131.569C238.053 135.149 237.273 137.779 238.103 141.279" stroke="#512920" stroke-width="2.5" stroke-linecap="round" stroke-linejoin="round"/>
<path d="M221.804 130.379C220.884 134.539 220.644 137.979 221.124 140.089L221.804 130.379Z" fill="white"/>
<path d="M221.804 130.379C220.884 134.539 220.644 137.979 221.124 140.089" stroke="#512920" stroke-width="2.5" stroke-linecap="round" stroke-linejoin="round"/>
<path d="M197.455 4.8088C207.865 0.178798 224.995 4.43881 225.685 13.3488C226.235 20.5088 203.785 17.2488 199.755 14.7488C192.645 16.7288 164.995 15.4088 165.815 6.7788C166.665 -2.1112 188.115 -1.7112 197.455 4.8088Z" fill="#4F2A1A"/>
<path d="M101.674 115.309C97.244 123.959 99.714 129.739 104.134 130.459C109.394 131.319 111.924 126.269 112.324 119.749" fill="white"/>
<path d="M101.674 115.309C97.244 123.959 99.714 129.739 104.134 130.459C109.394 131.319 111.924 126.269 112.324 119.749" stroke="#4F2A1A" stroke-width="2.5" stroke-linecap="round" stroke-linejoin="round"/>
<path d="M135.975 63.2488C131.545 71.8988 134.015 77.6788 138.435 78.3988C143.695 79.2588 146.225 74.2088 146.625 67.6888" fill="white"/>
<path d="M135.975 63.2488C131.545 71.8988 134.015 77.6788 138.435 78.3988C143.695 79.2588 146.225 74.2088 146.625 67.6888" stroke="#4F2A1A" stroke-width="2.5" stroke-linecap="round" stroke-linejoin="round"/>
<path d="M27.7049 76.4288C15.9049 70.3488 6.04489 73.9388 5.22489 79.2488C4.40489 84.5588 11.9949 87.3288 20.7949 83.7288" fill="white"/>
<path d="M27.7049 76.4288C15.9049 70.3488 6.04489 73.9388 5.22489 79.2488C4.40489 84.5588 11.9949 87.3288 20.7949 83.7288" stroke="#4F2A1A" stroke-width="2.5" stroke-linecap="round" stroke-linejoin="round"/>
<path d="M17.1257 109.819C4.54568 110.999 -0.344321 118.659 1.70568 123.629C3.75568 128.599 11.6857 127.039 17.3457 119.399" fill="white"/>
<path d="M17.1257 109.819C4.54568 110.999 -0.344321 118.659 1.70568 123.629C3.75568 128.599 11.6857 127.039 17.3457 119.399" stroke="#4F2A1A" stroke-width="2.5" stroke-linecap="round" stroke-linejoin="round"/>
<path d="M160.196 188.459C160.196 188.459 151.266 181.309 138.116 177.919C136.506 177.499 134.876 178.499 134.486 180.109C132.576 187.989 132.086 196.559 133.326 205.959C133.546 207.649 135.126 208.829 136.796 208.549C142.016 207.689 152.806 205.189 159.716 198.699L160.196 188.459Z" fill="#41AAFF" stroke="#4F2A1A" stroke-width="2.5" stroke-linecap="round" stroke-linejoin="round"/>
<path d="M172.197 189.089C172.197 189.089 181.747 182.919 195.147 180.919C196.787 180.679 198.317 181.839 198.547 183.479C199.717 191.519 199.397 200.099 197.297 209.319C196.917 210.979 195.247 211.989 193.597 211.539C188.487 210.129 177.977 206.509 171.707 199.329L172.187 189.089H172.197Z" fill="#41AAFF" stroke="#4F2A1A" stroke-width="2.5" stroke-linecap="round" stroke-linejoin="round"/>
<path d="M163.415 202.439L169.905 202.779C171.795 202.879 173.415 201.469 173.505 199.639L173.935 190.329C174.025 188.509 172.545 186.929 170.645 186.829L164.155 186.489C162.265 186.389 160.645 187.799 160.555 189.629L160.125 198.939C160.035 200.759 161.515 202.339 163.415 202.439Z" fill="#41AAFF" stroke="#4F2A1A" stroke-width="2.5" stroke-linecap="round" stroke-linejoin="round"/>
</svg>
