<svg width="318" height="410" viewBox="0 0 318 410" fill="none" xmlns="http://www.w3.org/2000/svg">
<path d="M188.857 269.34C181.887 267.55 177.547 274.07 176.187 279.31C170.997 299.3 166.247 342.84 204.507 364.68C245.457 388.06 280.697 364.06 301.327 328.3C302.897 325.58 304.377 322.84 305.757 320.11C301.147 312.72 293.127 306.36 283.677 306.1C283.197 307.13 282.637 308.13 282.147 309.17C271.137 332.59 247.067 364.69 211.517 343.49C190.707 331.08 192.627 302.15 195.767 284.04C196.227 281.4 197.387 271.53 188.857 269.33V269.34Z" fill="#FF73A2" stroke="#512921" stroke-width="2.5" stroke-linecap="round" stroke-linejoin="round"/>
<path d="M294.397 276.5C291.087 283.96 288.758 295.34 283.688 306.12C293.137 306.38 301.157 312.74 305.767 320.13C313.587 304.68 318.087 289.53 316.087 279.45C314.957 273.77 311.928 268.78 305.918 268.1C301.408 267.58 297.228 270.14 294.408 276.5H294.397Z" fill="#FFEBF0" stroke="#512921" stroke-width="2.5" stroke-linecap="round" stroke-linejoin="round"/>
<path d="M180.846 293.5C180.766 285.98 174.646 279.91 167.106 279.91C159.566 279.91 153.696 285.74 153.376 293.06H153.346L151.326 324.85L151.076 330.68C151.076 338.89 157.766 345.55 165.986 345.55C174.206 345.55 180.856 338.89 180.856 330.68V293.5H180.846Z" fill="#FF73A2" stroke="#512921" stroke-width="2.5" stroke-linecap="round" stroke-linejoin="round"/>
<path d="M179.467 330.91C179.427 322.7 173.967 317.19 165.757 317.23C157.547 317.27 152.688 323.76 152.318 330.72L152.257 331.19L149.738 362.07C149.708 362.5 149.688 362.93 149.688 363.37C149.727 371.97 180.877 371.83 180.837 363.23C180.837 362.99 180.838 362.76 180.818 362.53C180.818 362.53 180.827 362.53 180.837 362.53C180.787 352.07 179.517 341.04 179.477 330.93L179.467 330.91Z" fill="#FF73A2"/>
<path d="M151.098 329.91L149.738 362.07C149.708 362.5 149.688 362.93 149.688 363.37C149.727 371.97 180.877 371.83 180.837 363.23C180.837 362.99 180.838 362.76 180.818 362.53C180.818 362.53 180.827 362.53 180.837 362.53C180.787 352.07 180.887 339.07 180.837 328.96" stroke="#512921" stroke-width="2.5" stroke-linecap="round" stroke-linejoin="round"/>
<path d="M159.887 405.08C165.147 406 179.077 405.92 180.837 400.46C181.267 397.13 180.957 388.4 180.957 388.4L180.837 362.51C176.427 363.04 170.367 363.62 164.927 363.65C159.017 363.68 153.377 362.92 149.737 362.29L149.077 379.91C149.267 379.93 148.627 393.06 148.487 397.44C148.387 400.33 149.967 403.34 159.907 405.07L159.887 405.08Z" fill="#FFEBF0" stroke="#512921" stroke-width="2.5" stroke-linecap="round" stroke-linejoin="round"/>
<path d="M155.667 381.22C155.667 381.22 152.497 380.39 149.637 379.98C149.447 379.95 149.257 379.93 149.057 379.91C149.057 379.91 141.777 379.48 136.677 385.03C131.847 390.28 132.037 401.83 135.587 405.83C138.907 409.58 175.127 407.99 177.757 406.86C180.537 405.66 181.007 401.9 180.997 398.15L179.477 390.29C175.297 386.01 155.667 381.22 155.667 381.22Z" fill="#FFEBF0"/>
<path d="M155.667 381.22C155.667 381.22 152.497 380.39 149.637 379.98C149.447 379.95 149.257 379.93 149.057 379.91C149.057 379.91 141.777 379.48 136.677 385.03C131.847 390.28 132.037 401.83 135.587 405.83C138.907 409.58 175.127 407.99 177.757 406.86C180.537 405.66 181.007 401.9 180.997 398.15L180.967 391.45" stroke="#512921" stroke-width="2.5" stroke-linecap="round" stroke-linejoin="round"/>
<path d="M181.446 293.51C181.526 285.99 187.646 279.92 195.186 279.92C202.576 279.92 208.596 285.75 208.916 293.07H208.946L210.966 324.86L211.216 330.69C211.216 338.9 204.526 345.56 196.306 345.56C188.086 345.56 181.436 338.9 181.436 330.69C181.436 328.52 181.436 326.39 181.436 324.35C181.436 310.39 181.436 293.51 181.436 293.51H181.446Z" fill="#FF73A2" stroke="#512921" stroke-width="2.5" stroke-linecap="round" stroke-linejoin="round"/>
<path d="M182.796 330.91C182.836 322.7 188.296 317.19 196.506 317.23C204.716 317.27 209.576 323.76 209.946 330.72L210.006 331.19L212.526 362.07C212.556 362.5 212.576 362.93 212.576 363.37C212.536 371.97 181.386 371.83 181.426 363.23C181.426 362.99 181.426 362.76 181.446 362.53C181.446 362.53 181.436 362.53 181.426 362.53C181.476 352.07 182.746 341.04 182.786 330.93L182.796 330.91Z" fill="#FF73A2"/>
<path d="M211.176 329.91L212.536 362.07C212.566 362.5 212.586 362.93 212.586 363.37C212.546 371.97 181.396 371.83 181.436 363.23C181.436 362.99 181.436 362.76 181.456 362.53C181.456 362.53 181.446 362.53 181.436 362.53C181.486 352.07 181.386 339.07 181.436 328.96" stroke="#512921" stroke-width="2.5" stroke-linecap="round" stroke-linejoin="round"/>
<path d="M202.375 405.08C197.115 406 183.185 405.92 181.425 400.46C180.995 397.13 181.305 388.4 181.305 388.4L181.425 362.51C185.835 363.04 191.895 363.62 197.335 363.65C203.245 363.68 208.885 362.92 212.525 362.29L213.185 379.91C212.995 379.93 213.635 393.06 213.775 397.44C213.875 400.33 212.295 403.34 202.355 405.07L202.375 405.08Z" fill="#FFEBF0" stroke="#512921" stroke-width="2.5" stroke-linecap="round" stroke-linejoin="round"/>
<path d="M206.596 381.23C206.596 381.23 209.766 380.4 212.626 379.99C212.816 379.96 213.006 379.94 213.206 379.92C213.206 379.92 220.486 379.49 225.586 385.04C230.416 390.29 230.226 401.84 226.676 405.84C223.356 409.59 187.136 408 184.506 406.87C181.726 405.67 181.256 401.91 181.266 398.16L182.786 390.3C186.966 386.02 206.596 381.23 206.596 381.23Z" fill="#FFEBF0"/>
<path d="M206.596 381.23C206.596 381.23 209.766 380.4 212.626 379.99C212.816 379.96 213.006 379.94 213.206 379.92C213.206 379.92 220.486 379.49 225.586 385.04C230.416 390.29 230.226 401.84 226.676 405.84C223.356 409.59 187.136 408 184.506 406.87C181.726 405.67 181.256 401.91 181.266 398.16L181.296 391.46" stroke="#512921" stroke-width="2.5" stroke-linecap="round" stroke-linejoin="round"/>
<path d="M219.136 263.6C218.426 261.37 215.466 247.92 215.466 247.92C215.466 247.92 200.436 249.01 181.096 249.01C161.756 249.01 146.726 247.92 146.726 247.92C146.726 247.92 143.516 261.33 142.796 263.56C142.126 265.87 141.166 269 140.456 271.92C139.766 274.73 139.306 277.35 139.926 279.08C144.416 291.56 164.976 294.35 181.106 294.35C197.236 294.35 217.546 291.6 222.026 279.12C223.296 275.6 220.456 268.14 219.146 263.6H219.136Z" fill="#AAA0FF" stroke="#512921" stroke-width="2.5" stroke-linecap="round" stroke-linejoin="round"/>
<path d="M180.086 277.28C180.086 265.85 171.846 257.29 160.416 257.29C151.226 257.29 144.826 262.85 142.126 271.14C142.126 271.14 142.126 271.16 142.116 271.19C141.946 271.7 141.806 272.22 141.676 272.75C139.596 280.2 129.566 310.86 126.086 321.37C125.206 324.02 135.366 327.67 148.616 329.26C158.916 330.5 181.616 331.85 181.476 329.86L180.096 277.28H180.086Z" fill="#AAA0FF"/>
<path d="M139.997 274.2C139.997 274.2 130.047 309.4 126.077 321.37C125.197 324.02 135.357 327.67 148.607 329.26C158.907 330.5 181.607 331.85 181.467 329.86V284.56" stroke="#512921" stroke-width="2.5" stroke-linecap="round" stroke-linejoin="round"/>
<path d="M181.996 277.28C181.996 265.85 190.236 257.29 201.666 257.29C210.856 257.29 217.256 262.85 219.956 271.14C219.956 271.14 219.956 271.16 219.966 271.19C220.136 271.7 220.276 272.22 220.406 272.75C222.486 280.2 232.516 310.86 235.996 321.37C236.876 324.02 226.716 327.67 213.466 329.26C203.166 330.5 180.466 331.85 180.606 329.86L181.986 277.28H181.996Z" fill="#AAA0FF"/>
<path d="M222.086 274.2C222.086 274.2 232.036 309.4 236.006 321.37C236.886 324.02 226.726 327.67 213.476 329.26C203.176 330.5 180.476 331.85 180.616 329.86V284.56" stroke="#512921" stroke-width="2.5" stroke-linecap="round" stroke-linejoin="round"/>
<path d="M173.355 283.07C178.885 285.19 182.975 284.89 188.875 283.07" stroke="#512921" stroke-width="2.5" stroke-linecap="round" stroke-linejoin="round"/>
<path d="M152.207 258.38C152.207 258.38 165.127 260.29 180.697 260.29C194.797 260.29 210.037 258.38 210.037 258.38" stroke="#512921" stroke-width="2.5" stroke-linecap="round" stroke-linejoin="round"/>
<path d="M219.016 246.51C217.476 253.16 191.856 254.18 181.116 254.18C170.376 254.18 148.556 252.65 143.036 247.93C140.746 245.97 146.886 223.86 144.246 202.9C142.966 192.72 151.506 188.08 152.936 186.29C156.166 182.24 195.506 178.67 199.306 182.12C203.536 185.97 209.756 191.53 211.836 198.69C217.286 217.43 220.736 239.08 219.006 246.52L219.016 246.51Z" fill="white"/>
<path d="M210.646 196.32C217.666 218.17 219.996 243.17 219.016 246.51C217.126 252.89 191.856 254.18 181.116 254.18C170.376 254.18 146.476 252.39 143.036 247.93C141.046 245.34 148.776 220.58 143.076 202.5" stroke="#512921" stroke-width="2.5" stroke-linecap="round" stroke-linejoin="round"/>
<path d="M182.636 231.88C194.72 231.88 204.516 222.084 204.516 210C204.516 197.916 194.72 188.12 182.636 188.12C170.552 188.12 160.756 197.916 160.756 210C160.756 222.084 170.552 231.88 182.636 231.88Z" fill="#AAA0FF"/>
<path d="M199.925 208.42C199.605 208.45 199.285 208.36 199.015 208.15C198.965 208.11 193.315 203.88 182.175 204.9C172.175 205.81 166.115 210.99 166.055 211.04C165.515 211.51 164.705 211.45 164.235 210.92C163.765 210.38 163.815 209.57 164.355 209.1C164.625 208.86 171.065 203.32 181.945 202.33C194.175 201.21 200.355 205.92 200.605 206.12C201.165 206.56 201.265 207.37 200.825 207.93C200.595 208.22 200.265 208.39 199.925 208.42Z" fill="white"/>
<path d="M185.416 218.46L186.606 231.51C185.956 231.63 185.286 231.72 184.616 231.78C183.946 231.84 183.276 231.87 182.606 231.87L181.416 218.82C181.396 218.64 181.556 218.49 181.756 218.47L185.016 218.17C185.216 218.15 185.396 218.28 185.416 218.46Z" fill="white"/>
<path d="M183.668 220.901C187.116 220.586 189.668 217.66 189.367 214.366C189.066 211.071 186.026 208.656 182.578 208.971C179.13 209.286 176.578 212.212 176.879 215.507C177.18 218.801 180.219 221.216 183.668 220.901Z" fill="white"/>
<path d="M121.347 215.52C128.507 229.86 127.277 236.73 120.987 239.16C111.397 242.86 96.4768 233.61 89.3268 219.27C82.1668 204.93 81.9468 195.54 87.9868 192.52C94.0268 189.5 114.197 201.18 121.347 215.52Z" fill="white" stroke="#512921" stroke-width="2.5" stroke-linecap="round" stroke-linejoin="round"/>
<path d="M139.367 200.48C129.527 203.91 119.907 208.3 110.627 214.26C103.827 218.62 96.447 223.73 90.887 231.38C88.097 235.21 85.567 239.37 83.317 243.7C80.597 248.94 78.987 255.95 75.267 260.72C71.597 265.42 64.597 266.85 59.207 264.74C50.827 261.45 48.757 252.52 51.857 244.72C53.907 239.57 57.247 234.61 60.277 230C65.957 221.36 72.457 212.9 80.687 206.53C88.827 200.23 98.267 195.7 108.047 192.57C118.537 189.22 129.437 187.38 140.337 186.04C145.327 185.43 153.437 195.58 139.367 200.48Z" fill="#FF73A2" stroke="#512921" stroke-width="2.5" stroke-linecap="round" stroke-linejoin="round"/>
<path d="M63.5673 225.18C62.4373 226.77 61.3373 228.37 60.2773 229.99C57.2473 234.6 53.9073 239.56 51.8573 244.71C48.7473 252.52 50.8173 261.45 59.2073 264.73C64.6073 266.85 71.5973 265.41 75.2673 260.71C78.9873 255.94 80.5973 248.93 83.3173 243.69C84.0773 242.24 84.8673 240.81 85.6873 239.41C80.8773 229.82 72.0973 226.18 63.5673 225.19V225.18Z" fill="#FFEBF0" stroke="#512921" stroke-width="2.5" stroke-linecap="round" stroke-linejoin="round"/>
<path d="M56.6966 260.73C55.2466 263.7 52.3966 265.66 49.1966 265.54C44.6966 265.36 41.2066 261.11 41.4066 256.05C41.6066 250.98 46.2766 247.06 51.9166 247.2" fill="#FFEBF0"/>
<path d="M56.6966 260.73C55.2466 263.7 52.3966 265.66 49.1966 265.54C44.6966 265.36 41.2066 261.11 41.4066 256.05C41.6066 250.98 46.2766 247.06 51.9166 247.2" stroke="#512921" stroke-width="2.5" stroke-linecap="round" stroke-linejoin="round"/>
<path d="M65.8267 263.01C65.4467 265.58 63.9866 267.84 61.6666 269C57.6366 271.02 52.5366 268.98 50.2666 264.45C47.9966 259.92 49.4166 254.61 53.4466 252.59" fill="#FFEBF0"/>
<path d="M65.8267 263.01C65.4467 265.58 63.9866 267.84 61.6666 269C57.6366 271.02 52.5366 268.98 50.2666 264.45C47.9966 259.92 49.4166 254.61 53.4466 252.59" stroke="#512921" stroke-width="2.5" stroke-linecap="round" stroke-linejoin="round"/>
<path d="M81.287 262.96C85.1972 262.96 88.367 259.79 88.367 255.88C88.367 251.97 85.1972 248.8 81.287 248.8C77.3769 248.8 74.207 251.97 74.207 255.88C74.207 259.79 77.3769 262.96 81.287 262.96Z" fill="#FFEBF0"/>
<path d="M80.6777 248.83C84.5777 248.49 88.0077 251.37 88.3477 255.26C88.6877 259.16 85.8077 262.59 81.9177 262.93C79.5577 263.14 77.3677 262.16 75.9277 260.49" stroke="#512921" stroke-width="2.5" stroke-linecap="round" stroke-linejoin="round"/>
<path d="M76.9468 257.23C77.2968 258.02 77.5468 258.87 77.6868 259.77C78.4768 264.78 75.5068 269.41 71.0568 270.11C66.6068 270.81 62.4368 267.74 61.6568 262.73C61.1968 259.78 62.1668 257.25 63.9268 255.72" fill="#FFEBF0"/>
<path d="M76.9468 257.23C77.2968 258.02 77.5468 258.87 77.6868 259.77C78.4768 264.78 75.5068 269.41 71.0568 270.11C66.6068 270.81 62.4368 267.74 61.6568 262.73C61.1968 259.78 62.1668 257.25 63.9268 255.72" stroke="#512921" stroke-width="2.5" stroke-linecap="round" stroke-linejoin="round"/>
<path d="M150.406 215.65C139.096 226.51 124.886 236.92 120.606 238.12C121.986 237.02 115.796 238.23 116.566 236.63C128.336 234.63 123.126 214.12 106.226 199.78C94.4764 189.81 86.9064 196.75 85.6064 197.46C84.5264 197.19 90.0064 185.47 98.0064 188.4C112.816 184.74 138.576 181.43 146.016 181.6C146.016 181.6 151.496 179.39 155.286 182.57C159.076 185.75 152.846 203.39 152.846 203.39L150.416 215.66L150.406 215.65Z" fill="white"/>
<path d="M120.596 239.31C125.166 237.58 139.086 226.51 150.396 215.65" stroke="#512921" stroke-width="2.5" stroke-linecap="round" stroke-linejoin="round"/>
<path d="M146.016 181.59C138.576 181.42 112.816 184.73 98.0057 188.39C89.4757 189.62 84.0557 195.35 84.1657 197.65" stroke="#512921" stroke-width="2.5" stroke-linecap="round" stroke-linejoin="round"/>
<path d="M112.246 236.56C112.246 236.56 118.476 238.2 121.556 233.19C126.096 225.81 120.706 212.82 106.726 200.23C100.976 195.05 95.6665 194.06 91.6465 194.45" stroke="#512921" stroke-width="2.5" stroke-linecap="round" stroke-linejoin="round"/>
<path d="M187.567 169.29C189.257 174.98 184.727 181.34 176.767 183.71C168.807 186.08 160.417 183.57 158.727 177.88C157.037 172.19 162.117 165.66 170.077 163.29C178.037 160.92 185.867 163.61 187.567 169.3V169.29Z" fill="#FF73A2" stroke="#512921" stroke-width="2.5" stroke-linecap="round" stroke-linejoin="round"/>
<path d="M275.446 21.3298C249.716 20.5998 200.146 14.2298 184.156 13.5898C177.086 13.3098 171.396 13.3398 169.816 13.4398C163.686 13.8298 137.556 16.9498 122.836 33.4698C99.3761 59.7998 101.916 99.9098 128.016 123.63C156.466 149.47 228.536 104.57 258.116 72.7598C280.096 49.1298 287.386 21.6998 275.446 21.3298Z" fill="#FF73A2" stroke="#512921" stroke-width="2.5" stroke-linecap="round" stroke-linejoin="round"/>
<path d="M268.347 39.3796C268.347 39.3796 254.217 51.0196 229.767 48.2696C231.137 61.2196 227.697 72.9696 226.137 78.3796C235.377 76.4796 268.297 54.4496 268.347 39.3696V39.3796Z" fill="#FFEBF0"/>
<path d="M275.097 29.3696C262.417 56.1896 221.977 47.2396 221.977 47.2396" stroke="#512921" stroke-width="2.5" stroke-linecap="round" stroke-linejoin="round"/>
<path d="M268.347 39.3799C268.217 51.6799 246.847 71.4299 225.137 78.7299" stroke="#512921" stroke-width="2.5" stroke-linecap="round" stroke-linejoin="round"/>
<path d="M3.36616 112.85C23.4162 96.7199 59.0662 61.6799 71.4162 51.5099C76.8762 47.0099 81.4362 43.5999 82.7562 42.7199C87.8662 39.3299 110.576 26.0298 132.286 30.2898C166.896 37.0898 189.116 70.5799 182.646 105.25C175.596 143.03 91.0362 150.81 48.2562 143.35C16.4662 137.8 -5.91384 120.36 3.36616 112.85Z" fill="#FF73A2" stroke="#512921" stroke-width="2.5" stroke-linecap="round" stroke-linejoin="round"/>
<path d="M19.926 122.95C19.926 122.95 38.216 123.68 56.036 106.72C62.766 117.87 72.616 125.15 77.126 128.52C68.616 132.59 29.066 134.93 19.916 122.96L19.926 122.95Z" fill="#FFEBF0"/>
<path d="M8.49609 119.05C34.8061 132.75 61.6161 101.18 61.6161 101.18" stroke="#512921" stroke-width="2.5" stroke-linecap="round" stroke-linejoin="round"/>
<path d="M19.9258 122.95C27.4658 132.67 56.4258 135.49 78.1358 128.19" stroke="#512921" stroke-width="2.5" stroke-linecap="round" stroke-linejoin="round"/>
<path d="M137.147 18.1497C88.2166 29.6697 57.3166 66.7797 57.4366 123.56C57.4466 131.49 57.5166 148.08 53.7566 151.75C52.6366 152.83 52.3666 154.58 53.1466 155.99C73.6066 193.11 124.847 192.47 175.377 180.58C225.907 168.69 268.867 147.15 270.627 104.81C270.697 103.2 269.667 101.75 268.187 101.29C263.187 99.6898 259.027 84.0598 255.507 76.9498C230.287 26.0898 186.077 6.63975 137.147 18.1598V18.1497Z" fill="#FF73A2"/>
<path d="M58.9066 102.63C58.7966 104.98 57.4366 121.14 57.4366 123.55C57.4466 131.48 57.5166 148.07 53.7566 151.74C52.6366 152.82 52.3666 154.57 53.1466 155.98C73.6066 193.1 124.847 192.46 175.377 180.57C225.907 168.68 268.867 147.14 270.627 104.8C270.697 103.19 269.667 101.74 268.187 101.28C263.187 99.6799 259.027 84.0499 255.507 76.9399C254.437 74.7699 253.327 72.6599 252.187 70.6099" stroke="#512921" stroke-width="2.5" stroke-linecap="round" stroke-linejoin="round"/>
<path d="M242.586 55.7099C216.586 20.8299 178.556 8.39996 137.146 18.14C101.036 26.64 74.7461 49.0799 63.4961 83.0799" stroke="#512921" stroke-width="2.5" stroke-linecap="round" stroke-linejoin="round"/>
<path d="M232.867 100.6C228.677 121.37 217.327 130.32 217.337 132.1C217.337 133.89 228.067 155.16 229.747 156.93C214.337 167.69 195.547 175.82 175.387 180.57C155.287 185.3 138.337 186.94 123.797 186.8C120.177 182.21 113.297 171.82 116.177 156.99C116.257 156.6 96.8467 156.13 84.9767 136.62C78.2867 125.63 75.8567 110.61 76.3867 104.61C76.4867 103.47 82.0967 69.1801 131.157 49.2501C131.847 48.9801 132.537 48.7201 133.237 48.4401C133.787 46.1301 139.897 35.5401 139.897 35.5401C140.007 34.9101 140.437 34.4801 140.947 34.3101C141.507 34.2001 142.127 34.3801 142.527 34.9301C142.527 34.9301 153.727 41.4501 155.257 43.2601C156.207 43.1801 157.147 43.0901 158.077 43.0001C210.407 39.1701 228.497 66.2901 229.117 67.2501C231.217 70.4701 235.457 87.8401 232.887 100.59L232.867 100.6Z" fill="#FFEBF0"/>
<path d="M232.867 100.6C228.677 121.37 217.327 130.32 217.337 132.1C217.337 133.89 228.067 155.16 229.747 156.93C214.337 167.69 195.547 175.82 175.387 180.57C155.287 185.3 138.337 186.94 123.797 186.8C120.177 182.21 113.297 171.82 116.177 156.99C116.257 156.6 96.8467 156.13 84.9767 136.62C78.2867 125.63 75.8567 110.61 76.3867 104.61C76.4867 103.47 82.0967 69.1801 131.157 49.2501C131.847 48.9801 132.537 48.7201 133.237 48.4401C133.787 46.1301 139.897 35.5401 139.897 35.5401C140.007 34.9101 140.437 34.4801 140.947 34.3101C141.507 34.2001 142.127 34.3801 142.527 34.9301C142.527 34.9301 153.727 41.4501 155.257 43.2601C156.207 43.1801 157.147 43.0901 158.077 43.0001C210.407 39.1701 228.497 66.2901 229.117 67.2501C231.217 70.4701 235.457 87.8401 232.887 100.59L232.867 100.6Z" stroke="#512921" stroke-width="2.5" stroke-linecap="round" stroke-linejoin="round"/>
<path opacity="0.2" d="M221.515 74.4702C225.595 89.0802 205.195 91.2502 175.915 84.0902C170.035 81.5802 161.695 81.2502 154.595 88.8302C146.145 87.4102 138.625 89.6202 133.235 97.5102C111.335 117.53 89.9053 127.27 85.9053 112.94C82.3853 100.33 92.1053 78.4202 116.625 70.6002C121.105 69.1702 126.645 73.7002 132.165 73.9602C134.665 74.0802 139.285 74.5502 141.785 72.6402C145.265 69.9702 146.625 63.8902 150.115 62.9202C153.775 61.9002 156.955 63.6702 160.795 64.2102C164.455 64.7302 168.795 64.6702 171.515 62.9202C176.065 60.0102 177.695 53.5002 182.475 52.4302C206.085 47.1302 218.165 62.4702 221.515 74.4702Z" fill="#3B214F"/>
<path d="M127.347 80.8999L103.037 103.54" stroke="#C1A2F4" stroke-width="2.5" stroke-linecap="round" stroke-linejoin="round"/>
<path d="M150.118 69.8403L120.088 97.5103" stroke="#C1A2F4" stroke-width="2.5" stroke-linecap="round" stroke-linejoin="round"/>
<path d="M160.706 66.4399L139.656 89.6199" stroke="#C1A2F4" stroke-width="2.5" stroke-linecap="round" stroke-linejoin="round"/>
<path d="M181.026 61.6001L157.396 80.9001" stroke="#C1A2F4" stroke-width="2.5" stroke-linecap="round" stroke-linejoin="round"/>
<path d="M199.928 57.8701L173.168 78.9001" stroke="#C1A2F4" stroke-width="2.5" stroke-linecap="round" stroke-linejoin="round"/>
<path d="M138.757 64.2002C139.757 64.2102 140.597 64.5502 141.377 65.1202C142.137 65.7002 142.717 66.5102 143.057 67.3802C143.407 68.2602 143.517 69.1702 143.447 70.0402C143.387 70.4702 143.287 70.8902 143.147 71.2902C142.987 71.6802 142.777 72.0702 142.517 72.4202C142.357 72.6302 142.057 72.6802 141.837 72.5102C141.767 72.4602 141.707 72.3802 141.677 72.3002L141.657 72.2502C141.497 71.8502 141.397 71.4702 141.337 71.1102C141.237 70.7502 141.177 70.4102 141.127 70.0802C140.967 69.4402 140.937 68.8002 140.697 68.2602C140.497 67.7102 140.237 67.2102 139.857 66.7702C139.507 66.3102 138.977 65.9002 138.497 65.5602L138.337 65.4502C138.017 65.2302 137.947 64.8002 138.167 64.4802C138.307 64.2902 138.527 64.1802 138.747 64.1802L138.757 64.2002Z" fill="#C1A2F4"/>
<path d="M161.636 58.4C161.356 58.94 161.046 59.52 160.876 60.05C160.686 60.58 160.606 61.06 160.646 61.48C160.676 61.91 160.806 62.3 161.056 62.78C161.146 63.03 161.336 63.27 161.446 63.58C161.616 63.85 161.776 64.16 161.916 64.54L161.946 64.61C162.036 64.86 161.916 65.14 161.656 65.23C161.586 65.26 161.506 65.27 161.426 65.26C161.016 65.21 160.606 65.1 160.236 64.93C159.886 64.71 159.496 64.51 159.206 64.17C158.556 63.57 158.186 62.57 158.136 61.6C158.096 60.61 158.436 59.7 158.906 58.99C159.406 58.28 159.976 57.74 160.736 57.34C161.086 57.16 161.516 57.29 161.696 57.64C161.806 57.85 161.796 58.09 161.696 58.29L161.636 58.4Z" fill="#C1A2F4"/>
<path d="M139.997 109.66C139.047 112.29 135.437 126.36 139.997 128.22C144.557 130.08 152.667 115.29 160.897 113.31C170.967 110.88 183.717 118.51 186.337 115.2C189.897 110.7 181.437 101.15 175.427 97.6998C173.987 96.8698 168.267 99.0498 163.707 99.5098C159.947 99.8898 157.097 98.4998 157.097 98.4998C157.097 98.4998 154.507 101.56 150.417 103.6C146.547 105.52 141.207 106.31 139.987 109.67L139.997 109.66Z" fill="#EB5555" stroke="#512921" stroke-width="2.5" stroke-linecap="round" stroke-linejoin="round"/>
<path d="M170.936 120.4C171.366 121.71 167.436 121.47 164.046 122.58C160.656 123.69 157.556 126 157.126 124.68C156.696 123.36 159.096 118.94 162.486 117.82C165.876 116.71 170.506 119.08 170.936 120.4Z" fill="#FFAAB9"/>
<path d="M147.596 91.38C147.266 89.96 148.276 88.61 153.176 87.46C158.076 86.31 159.616 87.22 159.916 88.49C160.216 89.76 157.506 93.11 154.666 93.78C151.826 94.45 147.936 92.81 147.606 91.39L147.596 91.38Z" fill="#FF73A2" stroke="#512921" stroke-width="2.5" stroke-linecap="round" stroke-linejoin="round"/>
<path d="M136.886 71.3198C136.886 75.8698 128.586 73.6398 124.566 71.4298" stroke="#512921" stroke-width="2.5" stroke-linecap="round" stroke-linejoin="round"/>
<path d="M165.195 63.0501C169.405 66.7001 174.475 60.9701 176.575 56.3701" stroke="#512921" stroke-width="2.5" stroke-linecap="round" stroke-linejoin="round"/>
<path d="M215.296 202.16C205.056 206.18 199.846 195.8 198.286 190.64C196.996 186.4 192.286 185.23 193.856 179.43C194.776 176.04 199.976 170.51 203.806 162.93C207.976 154.69 210.906 144.26 214.996 137.23C216.556 127.3 221.366 126.73 222.296 126.04C234.856 116.79 248.166 121.07 255.136 132.31C264.356 147.19 261.946 166.83 259.866 173.49C255.436 187.63 228.606 196.92 215.296 202.14V202.16Z" fill="white"/>
<path d="M195.047 175.29C202.607 171.3 209.647 151.11 215.297 137C217.307 125.88 224.817 124.71 225.627 123.92C234.927 114.76 254.387 123.56 259.897 143.94C266.567 168.6 257.107 180.5 252.727 183.76C243.017 191.01 225.657 197.94 213.057 204.59" stroke="#512921" stroke-width="2.5" stroke-linecap="round" stroke-linejoin="round"/>
<path d="M206.237 176.16C207.097 174.53 208.087 172.95 209.037 171.41C227.947 140.68 232.797 103.75 225.507 68.7202C223.567 59.3802 229.567 50.2402 238.897 48.2902C248.237 46.3502 257.377 52.3502 259.327 61.6802C259.447 62.2502 259.537 62.8202 259.597 63.3802V63.5102C264.847 104.87 253.737 148.5 229.597 182.41C228.987 183.27 228.367 184.12 227.747 184.96C224.287 189.63 219.807 194.51 213.997 194.6C209.347 194.67 204.897 191.1 203.977 186.54C203.247 182.95 204.487 179.46 206.237 176.15V176.16Z" fill="#FF73A2"/>
<path d="M206.237 176.16C207.097 174.53 208.087 172.95 209.037 171.41C227.947 140.68 232.797 103.75 225.507 68.7202C223.567 59.3802 229.567 50.2402 238.897 48.2902C248.237 46.3502 257.377 52.3502 259.327 61.6802C259.447 62.2502 259.537 62.8202 259.597 63.3802V63.5102C264.847 104.87 253.737 148.5 229.597 182.41C228.987 183.27 228.367 184.12 227.747 184.96C224.287 189.63 219.807 194.51 213.997 194.6C209.347 194.67 204.897 191.1 203.977 186.54C203.247 182.95 204.487 179.46 206.237 176.15V176.16Z" stroke="#512921" stroke-width="2.5" stroke-linecap="round" stroke-linejoin="round"/>
<path d="M247.467 179.1C238.237 180.58 229.907 174.02 226.177 160.48C222.997 148.95 219.167 131.61 225.277 126.75L221.147 128.41L214.807 142.86L208.467 157.62L198.287 176.43L202.147 197.14L209.227 199.78C209.227 199.78 250.507 182.65 254.317 179.22C258.127 175.79 259.707 168.21 259.707 168.21C258.147 173.23 253.817 178.08 247.477 179.1H247.467Z" fill="white"/>
<path d="M254.497 173.56C246.887 182.54 234.877 179.32 226.667 161.52C222.387 152.24 221.577 132.73 226.117 127.29" stroke="#512921" stroke-width="2.5" stroke-linecap="round" stroke-linejoin="round"/>
<path d="M214.146 147.44L215.296 137" stroke="#512921" stroke-width="2.5" stroke-linecap="round" stroke-linejoin="round"/>
<path d="M238.896 48.2901C229.556 50.2301 223.556 59.3801 225.506 68.7201C227.246 77.1101 228.286 85.6001 228.616 94.0901C234.706 96.1801 249.046 99.7201 260.666 92.0301C261.136 82.5001 260.796 72.9501 259.606 63.5101V63.3801C259.536 62.8201 259.446 62.2501 259.326 61.6801C257.386 52.3401 248.236 46.3401 238.896 48.2901Z" fill="#FFEBF0" stroke="#512921" stroke-width="2.5" stroke-linecap="round" stroke-linejoin="round"/>
<path d="M267.267 50.31C268.217 44.66 265.737 39.36 261.147 38.37C258.997 37.91 256.817 38.49 254.987 39.82C254.437 35.38 251.517 31.86 247.647 31.46C243.297 31.01 238.667 35.9 237.657 41.01C235.937 37.82 233.277 35.45 230.007 35.76C225.337 36.19 222.237 40.27 222.767 45.98C223.017 48.68 224.447 54.61 223.967 55.61C219.307 54 214.417 55.39 212.507 59.12C210.357 63.29 212.757 68.8 217.857 71.42C219.617 72.33 221.467 72.76 223.227 72.78C226.457 81.33 234.727 86.23 244.357 85.83C260.847 85.14 265.127 77.35 266.137 65.04C266.357 62.37 266.817 53 267.267 50.31Z" fill="#FFEBF0"/>
<path d="M260.837 80.4202C264.347 76.5802 265.647 70.9702 266.137 65.0402C266.357 62.3702 266.817 53.0002 267.267 50.3102C268.217 44.6602 265.737 39.3602 261.147 38.3702C258.997 37.9102 255.677 38.7202 254.377 41.1202C255.127 35.7602 250.167 31.7202 246.277 31.8502C239.907 32.0602 238.667 35.9002 237.657 41.0102C235.937 37.8202 233.277 35.4502 230.007 35.7602C225.337 36.1902 222.237 40.2702 222.767 45.9802C223.017 48.6802 224.447 54.6102 223.967 55.6102C219.307 54.0002 214.417 55.3902 212.507 59.1202C210.357 63.2902 212.757 68.8002 217.857 71.4202C219.617 72.3302 221.467 72.7602 223.227 72.7802C224.167 75.2702 225.867 78.6002 228.047 80.5602" stroke="#512921" stroke-width="2.5" stroke-linecap="round" stroke-linejoin="round"/>
<path d="M230.097 61.58C231.377 61.27 232.627 61.2701 233.917 61.4401C235.197 61.6401 236.477 62.08 237.627 62.83C237.897 63.04 238.197 63.2201 238.447 63.4501L239.187 64.17C239.607 64.72 240.047 65.27 240.277 65.92C240.847 67.17 240.917 68.5401 240.677 69.7901C240.627 70.0301 240.397 70.1901 240.147 70.1501C240.007 70.1201 239.897 70.0401 239.837 69.9301L239.807 69.8801C239.217 68.8101 238.847 67.8201 238.227 67.0101C237.667 66.1901 237.057 65.4401 236.217 64.9101C235.407 64.3501 234.457 63.9301 233.437 63.6201C232.427 63.3101 231.307 63.1001 230.237 62.9601H230.167C229.777 62.9001 229.507 62.5501 229.557 62.1601C229.597 61.8601 229.817 61.6301 230.087 61.5701L230.097 61.58Z" fill="#FFAAB9"/>
<path d="M100.626 158.77C95.4663 158.77 91.3663 156.17 91.1963 156.06C90.9063 155.87 90.7063 155.57 90.6463 155.23C90.5863 154.89 90.6663 154.54 90.8763 154.26L95.6663 147.83C95.9163 147.5 96.2863 147.33 96.6663 147.33C96.9063 147.33 97.1563 147.4 97.3663 147.55C97.8863 147.9 98.3563 148.23 98.7863 148.53C100.636 149.81 101.746 150.58 102.506 150.58C102.716 150.58 103.026 150.53 103.616 150.16C106.076 148.63 106.596 143.92 106.586 142.23C106.586 141.8 106.806 141.39 107.176 141.16C107.376 141.03 107.606 140.97 107.836 140.97C108.026 140.97 108.216 141.01 108.396 141.1L114.736 144.26C115.166 144.47 115.436 144.92 115.426 145.4C115.426 145.69 115.236 152.54 107.556 156.95C105.456 158.16 103.116 158.77 100.616 158.77H100.626Z" fill="#DD2C46"/>
<path d="M107.847 142.22L114.187 145.38C114.187 145.38 114.097 151.76 106.947 155.86C104.817 157.08 102.647 157.51 100.627 157.51C95.7766 157.51 91.8766 155 91.8766 155L96.6666 148.57C99.7166 150.64 101.127 151.81 102.507 151.81C103.067 151.81 103.627 151.61 104.277 151.21C107.877 148.96 107.837 142.21 107.837 142.21M107.847 139.72C107.387 139.72 106.927 139.85 106.527 140.1C105.787 140.56 105.347 141.37 105.347 142.23C105.347 143.98 104.777 147.96 102.967 149.09C102.637 149.3 102.507 149.32 102.507 149.32C102.117 149.29 100.727 148.33 99.5066 147.49C99.0766 147.19 98.5966 146.86 98.0766 146.51C97.6466 146.22 97.1566 146.08 96.6766 146.08C95.9166 146.08 95.1566 146.43 94.6666 147.09L89.8766 153.52C89.4666 154.08 89.2966 154.78 89.4166 155.46C89.5366 156.14 89.9366 156.74 90.5266 157.12C90.7066 157.24 95.1066 160.03 100.637 160.03C103.357 160.03 105.897 159.36 108.197 158.05C116.487 153.29 116.687 145.76 116.697 145.44C116.707 144.48 116.177 143.6 115.317 143.17L108.977 140.01C108.627 139.83 108.247 139.75 107.857 139.75L107.847 139.72Z" fill="white"/>
<path d="M122.097 174.87C121.837 174.87 121.587 174.79 121.377 174.64C120.997 174.37 111.997 167.87 112.827 160.25C113.787 151.45 120.407 148.33 120.697 148.2C120.867 148.12 121.037 148.09 121.217 148.09C121.487 148.09 121.767 148.18 121.987 148.36L127.567 152.73C127.907 153 128.087 153.42 128.037 153.85C127.987 154.28 127.717 154.66 127.327 154.84C125.797 155.56 121.767 158.05 121.447 160.92C121.287 162.34 121.517 162.58 124.997 164.58C125.447 164.84 125.947 165.13 126.487 165.44C127.067 165.78 127.277 166.51 126.957 167.1L123.207 174.19C123.037 174.51 122.737 174.74 122.387 174.82C122.297 174.84 122.197 174.85 122.097 174.85V174.87Z" fill="#DD2C46"/>
<path d="M121.207 149.34L126.787 153.71C126.787 153.71 120.667 156.56 120.187 160.78C119.887 163.43 121.357 163.9 125.837 166.52L122.087 173.61C122.087 173.61 113.297 167.35 114.057 160.38C114.947 152.18 121.197 149.33 121.197 149.33M121.207 146.84C120.857 146.84 120.497 146.91 120.167 147.07C119.857 147.21 112.607 150.62 111.577 160.12C110.667 168.45 120.237 175.37 120.647 175.66C121.077 175.96 121.587 176.12 122.097 176.12C122.287 176.12 122.487 176.1 122.677 176.05C123.377 175.88 123.977 175.42 124.307 174.79L128.057 167.7C128.687 166.52 128.267 165.05 127.107 164.37C126.567 164.05 126.067 163.77 125.607 163.5C124.317 162.76 122.867 161.92 122.657 161.57C122.657 161.57 122.627 161.44 122.667 161.07C122.907 158.95 126.257 156.72 127.847 155.98C128.627 155.61 129.167 154.86 129.267 154C129.367 153.14 129.007 152.29 128.327 151.75L122.747 147.38C122.297 147.03 121.757 146.85 121.207 146.85V146.84Z" fill="white"/>
<path d="M107.085 180.12C106.815 180.12 106.545 180.03 106.315 179.86C105.945 179.58 105.775 179.11 105.845 178.66C106.145 176.92 106.415 172.06 104.085 170.48C103.675 170.2 103.315 170.08 102.915 170.08C101.725 170.08 99.9952 171.15 97.3952 172.78L96.8252 173.13C96.6152 173.26 96.3952 173.32 96.1652 173.32C95.7652 173.32 95.3752 173.13 95.1352 172.78L90.6052 166.16C90.4152 165.88 90.3452 165.54 90.4152 165.2C90.4852 164.87 90.6852 164.58 90.9652 164.4C91.1452 164.28 95.5352 161.53 100.815 161.53C103.395 161.53 105.755 162.19 107.825 163.49C115.365 168.23 114.815 175.75 114.795 176.07C114.755 176.52 114.475 176.92 114.065 177.1L107.595 180.01C107.435 180.08 107.255 180.12 107.085 180.12Z" fill="#DD2C46"/>
<path d="M100.816 162.78C102.886 162.78 105.076 163.24 107.156 164.55C114.136 168.94 113.546 175.96 113.546 175.96L107.076 178.87C107.076 178.87 108.306 171.84 104.786 169.45C104.166 169.03 103.556 168.83 102.916 168.83C101.266 168.83 99.3358 170.1 96.1658 172.07L91.6358 165.45C91.6358 165.45 95.8458 162.77 100.816 162.77M100.816 160.28C95.1858 160.28 90.4958 163.22 90.2958 163.35C89.7258 163.71 89.3258 164.29 89.1858 164.96C89.0458 165.62 89.1858 166.31 89.5758 166.87L94.1058 173.49C94.5858 174.2 95.3758 174.58 96.1658 174.58C96.6158 174.58 97.0758 174.46 97.4858 174.2L98.0558 173.85C100.216 172.5 102.076 171.34 102.916 171.34C102.986 171.34 103.116 171.34 103.386 171.52C105.016 172.63 104.916 176.74 104.616 178.45C104.456 179.36 104.816 180.29 105.546 180.85C105.996 181.2 106.536 181.38 107.076 181.38C107.426 181.38 107.776 181.31 108.096 181.16L114.566 178.25C115.396 177.88 115.956 177.09 116.036 176.18C116.066 175.83 116.666 167.57 108.486 162.44C106.216 161.01 103.626 160.29 100.816 160.29V160.28Z" fill="white"/>
<path d="M188.566 27.0101C188.446 27.0101 188.326 26.9901 188.216 26.9601C187.976 26.8901 182.246 25.1401 180.336 17.6701C178.386 10.0501 184.616 4.39007 184.876 4.15007C185.106 3.94007 185.406 3.83008 185.706 3.83008C185.746 3.83008 185.786 3.83008 185.816 3.83008C186.156 3.86008 186.476 4.03007 186.686 4.31007L190.906 9.75008C191.316 10.2801 191.236 11.0401 190.726 11.4701C190.316 11.8201 189.936 12.1301 189.596 12.4201C186.936 14.6401 186.886 14.8301 187.186 15.8601C187.866 18.1701 191.576 19.6401 192.946 20.0101C193.366 20.1201 193.696 20.4501 193.816 20.8601C193.936 21.2801 193.836 21.7301 193.546 22.0501L189.476 26.5801C189.236 26.8501 188.896 26.9901 188.546 26.9901L188.566 27.0101Z" fill="#DD2C46"/>
<path d="M185.716 5.09007L189.936 10.5301C186.536 13.4201 185.356 14.0301 186.006 16.2301C187.036 19.7301 192.636 21.2401 192.636 21.2401L188.566 25.7701C188.566 25.7701 183.306 24.2301 181.546 17.3701C179.756 10.4001 185.716 5.09007 185.716 5.09007ZM185.716 2.59007C185.106 2.59007 184.516 2.81008 184.056 3.22008C183.766 3.48008 176.996 9.63007 179.136 17.9901C181.226 26.1401 187.606 28.0901 187.876 28.1701C188.106 28.2401 188.346 28.2701 188.576 28.2701C189.276 28.2701 189.956 27.9801 190.436 27.4401L194.506 22.9101C195.086 22.2601 195.296 21.3601 195.046 20.5301C194.796 19.7001 194.136 19.0501 193.296 18.8201C191.586 18.3501 188.836 16.9701 188.416 15.5201C188.386 15.4001 188.366 15.3201 188.356 15.2701C188.606 14.9101 189.576 14.1001 190.426 13.3901C190.776 13.1001 191.156 12.7801 191.566 12.4301C192.586 11.5601 192.746 10.0501 191.926 8.99007L187.706 3.55008C187.286 3.00008 186.646 2.66007 185.956 2.59007C185.876 2.59007 185.806 2.58008 185.726 2.58008L185.716 2.59007Z" fill="white"/>
<path d="M178.775 35.5402C178.615 35.5402 178.455 35.5102 178.305 35.4502C177.905 35.2902 177.615 34.9302 177.535 34.5002C177.295 33.1002 176.185 29.2702 173.955 28.3702C173.635 28.2402 173.395 28.1802 173.195 28.1802C172.605 28.1802 171.885 28.8702 170.295 30.4402C169.975 30.7602 169.625 31.1002 169.245 31.4702C169.005 31.7102 168.685 31.8202 168.375 31.8202C168.065 31.8202 167.755 31.7102 167.515 31.4802L162.505 26.7502C162.245 26.5002 162.095 26.1502 162.115 25.7902C162.135 25.4302 162.295 25.0902 162.575 24.8702C162.795 24.6902 168.055 20.4702 173.385 20.4702C174.545 20.4702 175.625 20.6702 176.625 21.0602C183.785 23.9102 184.865 30.2102 184.905 30.4702C184.975 30.9302 184.785 31.3902 184.415 31.6702L179.515 35.2902C179.295 35.4502 179.035 35.5302 178.775 35.5302V35.5402Z" fill="#DD2C46"/>
<path d="M173.395 21.7202C174.335 21.7202 175.275 21.8702 176.165 22.2302C182.745 24.8502 183.675 30.6802 183.675 30.6802L178.775 34.3002C178.775 34.3002 177.815 28.5802 174.425 27.2202C173.965 27.0302 173.565 26.9402 173.195 26.9402C171.865 26.9402 170.875 28.1502 168.375 30.5802L163.365 25.8502C163.365 25.8502 168.445 21.7302 173.385 21.7302M173.395 19.2202C167.625 19.2202 162.035 23.7102 161.795 23.9002C161.235 24.3502 160.895 25.0302 160.875 25.7502C160.845 26.4702 161.135 27.1702 161.655 27.6602L166.665 32.3902C167.145 32.8402 167.765 33.0702 168.385 33.0702C169.005 33.0702 169.645 32.8302 170.125 32.3602C170.515 31.9802 170.865 31.6402 171.185 31.3202C171.975 30.5402 172.865 29.6602 173.255 29.4402C173.305 29.4502 173.385 29.4802 173.495 29.5202C174.905 30.0902 176.005 32.9502 176.315 34.7102C176.465 35.5602 177.045 36.2802 177.845 36.6102C178.145 36.7302 178.465 36.7902 178.775 36.7902C179.305 36.7902 179.825 36.6202 180.255 36.3002L185.155 32.6802C185.905 32.1302 186.285 31.2002 186.135 30.2802C186.085 29.9802 184.895 23.0102 177.085 19.9002C175.945 19.4502 174.705 19.2202 173.385 19.2202H173.395Z" fill="white"/>
<path d="M166.505 19.9398C164.445 19.9398 163.015 19.4198 162.955 19.3997C162.535 19.2397 162.225 18.8698 162.155 18.4198L161.235 12.3997C161.165 11.9397 161.355 11.4897 161.725 11.2097C161.945 11.0497 162.205 10.9597 162.475 10.9597C162.655 10.9597 162.835 10.9998 163.005 11.0798C163.025 11.0898 165.435 12.2097 167.665 12.2097C168.675 12.2097 169.455 11.9798 169.995 11.5198C170.955 10.7098 170.765 9.67976 169.575 5.63976L169.415 5.08975C169.225 4.44975 169.575 3.76976 170.205 3.54976L176.725 1.30975C176.855 1.25975 176.995 1.23975 177.135 1.23975C177.335 1.23975 177.525 1.28976 177.705 1.37976C178.005 1.52976 178.235 1.79976 178.335 2.12976C178.445 2.49976 181.005 11.1498 175.175 16.4798C172.045 19.3398 168.745 19.9398 166.525 19.9398H166.505Z" fill="#DD2C46"/>
<path d="M177.116 2.5C177.116 2.5 179.626 10.71 174.306 15.56C171.526 18.1 168.616 18.69 166.506 18.69C164.646 18.69 163.396 18.23 163.396 18.23L162.476 12.21C162.476 12.21 165.116 13.46 167.666 13.46C168.816 13.46 169.936 13.21 170.806 12.48C172.556 11 171.876 9.01999 170.606 4.73999L177.126 2.5M177.116 0C176.846 0 176.566 0.0399994 176.306 0.139999L169.786 2.38C168.516 2.81 167.826 4.17 168.196 5.45L168.356 6C169.226 8.93 169.556 10.24 169.166 10.58C168.786 10.9 168.126 10.97 167.646 10.97C166.036 10.97 164.126 10.24 163.526 9.95999C163.186 9.79999 162.826 9.72 162.466 9.72C161.936 9.72 161.406 9.89 160.966 10.22C160.226 10.77 159.856 11.69 159.996 12.6L160.916 18.62C161.056 19.52 161.666 20.27 162.516 20.58C162.686 20.64 164.246 21.2 166.496 21.2C168.936 21.2 172.556 20.54 175.986 17.41C182.396 11.56 179.616 2.17 179.496 1.77C179.296 1.12 178.846 0.580004 178.246 0.270004C177.886 0.0900043 177.506 0 177.106 0H177.116Z" fill="white"/>
</svg>
