<svg width="325" height="456" viewBox="0 0 325 456" fill="none" xmlns="http://www.w3.org/2000/svg">
<path d="M127.951 315.985C121.651 319.455 122.961 327.175 125.561 331.935C135.491 350.045 148.511 386.635 185.331 393.545C213.641 398.865 243.671 391.635 281.151 374.325C284.001 373.005 286.791 371.625 289.501 370.195C289.991 361.495 287.111 351.675 279.551 346.015C278.561 346.575 277.531 347.075 276.531 347.635C254.021 360.415 222.791 375.525 184.071 371.265C159.981 368.615 153.201 337.295 143.071 321.965C141.591 319.735 135.671 311.745 127.961 315.985H127.951Z" fill="#FF73A2" stroke="#512921" stroke-width="2.5" stroke-linecap="round" stroke-linejoin="round"/>
<path d="M305.381 328.005C298.371 332.195 289.911 340.145 279.541 346.015C287.111 351.685 289.991 361.505 289.491 370.195C304.791 362.085 317.211 352.305 321.381 342.925C323.731 337.635 324.141 331.815 319.621 327.785C316.231 324.755 311.341 324.435 305.371 328.005H305.381Z" fill="#FFEBF0" stroke="#512921" stroke-width="2.5" stroke-linecap="round" stroke-linejoin="round"/>
<path d="M126.69 244.166C126.57 233.166 120.05 227.296 114.67 227.776C110.25 228.176 105.87 228.826 101.08 232.456C93.8499 237.946 70.85 265.676 64.43 276.046C63.32 277.826 63.2601 280.046 63.2801 280.586C63.6401 292.456 94.4101 315.866 110.24 309.386C115.81 307.106 126.84 258.456 126.69 244.156V244.166Z" fill="white" stroke="#512921" stroke-width="2.5" stroke-linecap="round" stroke-linejoin="round"/>
<path d="M67.5212 287.026C83.9912 259.846 99.441 237.836 106.561 238.206C111.051 238.436 111.001 245.136 109.191 250.236C106.561 257.636 97.931 277.026 88.841 297.756C88.661 298.246 88.4611 298.706 88.2211 299.156C88.2011 299.196 88.1811 299.246 88.1611 299.286H88.1511C85.6011 304.096 80.0112 306.716 74.5112 305.286C68.0812 303.616 64.221 297.056 65.891 290.626C66.231 289.306 66.7912 288.096 67.5112 287.016L67.5212 287.026Z" fill="#FF73A2" stroke="#512921" stroke-width="2.5" stroke-linecap="round" stroke-linejoin="round"/>
<path d="M66.6606 282.095C66.6606 282.095 66.5606 278.305 72.6106 277.585C78.6606 276.865 96.7106 288.666 101.331 300.456L114.971 242.505L107.481 232.146C107.481 232.146 96.2005 240.045 84.8105 253.475C73.4305 266.915 66.5508 277.576 66.5508 277.576" fill="white"/>
<path d="M66.6603 282.096C66.6603 282.096 66.5602 278.306 72.6102 277.586C78.6602 276.866 96.7102 288.666 101.33 300.456" stroke="#512921" stroke-width="2.5" stroke-linecap="round" stroke-linejoin="round"/>
<path d="M133.75 242.035C132.01 231.175 137.45 224.285 142.83 223.855C147.25 223.505 151.68 223.405 157.01 226.185C164.99 230.345 189.08 252.085 197.12 261.285C198.59 262.975 200.21 265.495 200.35 266.055C203.89 279.905 177.66 307.275 160.96 303.555C155.09 302.245 136.01 256.155 133.75 242.035Z" fill="white" stroke="#512921" stroke-width="2.5" stroke-linecap="round" stroke-linejoin="round"/>
<path d="M197.581 270.546C174.721 248.456 154.171 231.126 147.381 233.296C143.101 234.666 144.851 241.126 147.901 245.606C152.331 252.096 165.611 268.636 179.701 286.366C179.991 286.796 180.321 287.186 180.651 287.566C180.681 287.606 180.711 287.646 180.741 287.676C184.431 291.666 190.501 292.786 195.461 289.996C201.251 286.746 203.311 279.416 200.051 273.626C199.381 272.436 198.531 271.406 197.561 270.546H197.581Z" fill="#FF73A2" stroke="#512921" stroke-width="2.5" stroke-linecap="round" stroke-linejoin="round"/>
<path d="M196.25 266.606C196.25 266.606 195.44 262.896 189.39 263.656C183.34 264.416 168.66 280.206 167.02 292.766L139.83 239.806L144.6 227.946C144.6 227.946 157.45 232.896 171.74 243.196C186.02 253.496 195.26 262.196 195.26 262.196" fill="white"/>
<path d="M196.25 266.606C196.25 266.606 195.439 262.896 189.389 263.656C183.339 264.416 168.66 280.206 167.02 292.766" stroke="#512921" stroke-width="2.5" stroke-linecap="round" stroke-linejoin="round"/>
<path d="M135.241 339.936C134.731 332.436 128.281 326.726 120.751 327.156C113.371 327.576 107.691 333.746 107.801 341.066H107.771L107.561 372.916L107.651 378.756C108.121 386.956 115.181 393.216 123.381 392.746C131.581 392.276 137.841 385.256 137.371 377.056L137.011 370.726C136.211 356.786 135.251 339.936 135.251 339.936H135.241Z" fill="#FF73A2" stroke="#512921" stroke-width="2.5" stroke-linecap="round" stroke-linejoin="round"/>
<path d="M135.992 377.365C135.482 369.165 129.722 363.985 121.522 364.495C113.322 365.005 108.842 371.755 108.872 378.725L108.842 379.195L108.082 410.165C108.082 410.595 108.082 411.025 108.102 411.465C108.632 420.055 139.722 418.135 139.192 409.545C139.182 409.305 139.152 409.075 139.132 408.845C139.132 408.845 139.142 408.845 139.152 408.845C138.512 398.405 136.612 387.465 135.992 377.375V377.365Z" fill="#FF73A2"/>
<path d="M107.611 377.985L108.091 410.165C108.091 410.595 108.091 411.025 108.111 411.465C108.641 420.055 139.731 418.135 139.201 409.545C139.191 409.305 139.161 409.075 139.141 408.845C139.141 408.845 139.151 408.845 139.161 408.845C138.521 398.405 137.871 385.425 137.251 375.335" stroke="#512921" stroke-width="2.5" stroke-linecap="round" stroke-linejoin="round"/>
<path d="M120.672 452.525C125.982 453.145 139.872 452.265 141.322 446.725C141.562 443.375 140.752 434.685 140.752 434.685L139.162 408.845C134.782 409.625 128.772 410.555 123.342 410.885C117.442 411.245 111.772 410.815 108.102 410.395L108.442 428.025C108.632 428.035 108.742 441.175 108.852 445.565C108.922 448.455 110.662 451.375 120.682 452.535L120.672 452.525Z" fill="#FFEBF0" stroke="#512921" stroke-width="2.5" stroke-linecap="round" stroke-linejoin="round"/>
<path d="M115.761 427.645C115.761 427.645 112.591 426.815 109.731 426.405C109.541 426.375 109.351 426.355 109.151 426.335C109.151 426.335 101.871 425.905 96.7709 431.455C91.9409 436.705 92.1308 448.255 95.6808 452.255C99.0008 456.005 135.221 454.415 137.851 453.285C140.631 452.085 141.101 448.325 141.091 444.575L139.571 436.715C135.391 432.435 115.761 427.645 115.761 427.645Z" fill="#FFEBF0"/>
<path d="M115.761 427.645C115.761 427.645 112.591 426.815 109.731 426.405C109.541 426.375 109.351 426.355 109.151 426.335C109.151 426.335 101.871 425.905 96.7709 431.455C91.9409 436.705 92.1308 448.255 95.6808 452.255C99.0008 456.005 135.221 454.415 137.851 453.285C140.631 452.085 141.101 448.325 141.091 444.575L141.061 437.875" stroke="#512921" stroke-width="2.5" stroke-linecap="round" stroke-linejoin="round"/>
<path d="M142.98 345.555C141.27 338.235 145.76 330.885 153.08 329.085C160.26 327.325 167.5 331.555 169.54 338.585H169.57L179.11 368.965L180.74 374.565C182.7 382.535 177.78 390.595 169.81 392.555C161.84 394.515 153.79 389.635 151.83 381.655C151.31 379.545 150.81 377.485 150.32 375.505C146.99 361.945 142.97 345.555 142.97 345.555H142.98Z" fill="#FF73A2" stroke="#512921" stroke-width="2.5" stroke-linecap="round" stroke-linejoin="round"/>
<path d="M153.201 381.556C151.281 373.576 155.271 366.926 163.261 365.006C171.241 363.086 177.511 368.236 179.531 374.906L179.701 375.346L189.511 404.736C189.641 405.146 189.771 405.556 189.871 405.986C191.881 414.346 161.591 421.636 159.581 413.266C159.521 413.036 159.481 412.806 159.431 412.576C159.431 412.576 159.421 412.576 159.411 412.576C156.971 402.406 155.571 391.386 153.201 381.556Z" fill="#FF73A2"/>
<path d="M180.521 373.825L189.5 404.735C189.63 405.145 189.76 405.555 189.86 405.985C191.87 414.345 161.58 421.635 159.57 413.265C159.51 413.035 159.47 412.805 159.42 412.575C159.42 412.575 159.41 412.575 159.4 412.575C156.96 402.405 153.76 389.805 151.4 379.975" stroke="#512921" stroke-width="2.5" stroke-linecap="round" stroke-linejoin="round"/>
<path d="M189.89 448.926C185 451.066 171.46 454.316 168.44 449.436C167.23 446.306 165.45 437.756 165.45 437.756L159.4 412.586C163.81 412.046 169.84 411.166 175.13 409.896C180.88 408.516 186.17 406.436 189.56 404.956L194.4 421.916C194.22 421.986 197.97 434.576 199.15 438.806C199.93 441.586 199.12 444.886 189.88 448.936L189.89 448.926Z" fill="#FFEBF0" stroke="#512921" stroke-width="2.5" stroke-linecap="round" stroke-linejoin="round"/>
<path d="M190.721 426.065C190.721 426.065 193.871 425.175 196.731 424.715C196.921 424.685 197.111 424.655 197.301 424.635C197.301 424.635 204.571 424.075 209.771 429.535C214.691 434.695 214.711 446.255 211.241 450.315C207.981 454.125 171.741 453.195 169.101 452.105C166.301 450.955 165.761 447.205 165.711 443.455L167.081 435.575C171.181 431.225 190.721 426.075 190.721 426.075V426.065Z" fill="#FFEBF0"/>
<path d="M190.721 426.065C190.721 426.065 193.871 425.175 196.731 424.715C196.921 424.685 197.111 424.655 197.301 424.635C197.301 424.635 204.571 424.075 209.771 429.535C214.691 434.695 214.711 446.255 211.241 450.315C207.981 454.125 171.741 453.195 169.101 452.105C166.301 450.955 165.761 447.205 165.711 443.455L165.541 438.355" stroke="#512921" stroke-width="2.5" stroke-linecap="round" stroke-linejoin="round"/>
<path d="M172.501 308.335C171.681 306.135 168.081 292.845 168.081 292.845C168.081 292.845 153.121 294.655 133.801 295.585C114.481 296.515 99.4107 296.135 99.4107 296.135C99.4107 296.135 96.8408 309.685 96.2408 311.945C95.6908 314.285 94.8708 317.455 94.3008 320.405C93.7508 323.245 93.4107 325.885 94.1107 327.585C99.1907 339.835 119.871 341.635 135.971 340.865C152.081 340.095 172.231 336.375 176.111 323.695C177.211 320.115 174.021 312.795 172.491 308.335H172.501Z" fill="#AAA0FF" stroke="#512921" stroke-width="2.5" stroke-linecap="round" stroke-linejoin="round"/>
<path d="M134.55 323.426C133.4 312.046 124.34 304.356 112.97 305.506C103.82 306.426 98.0199 312.606 96.1599 321.126C96.1599 321.126 95.3898 320.525 95.3798 320.555C95.2698 321.085 95.1798 321.616 95.0998 322.156C93.7798 329.776 87.6499 361.905 85.2499 372.715C84.6399 375.436 95.1199 378.056 108.46 378.306C118.84 378.506 141.55 377.566 141.21 375.596L134.55 323.426Z" fill="#AAA0FF"/>
<path d="M94.05 323.325C94.05 323.325 87.9899 360.405 85.2499 372.715C84.6399 375.435 95.1199 378.055 108.46 378.305C118.84 378.505 141.55 377.565 141.21 375.595L136.66 330.525" stroke="#512921" stroke-width="2.5" stroke-linecap="round" stroke-linejoin="round"/>
<path d="M135.28 326.096C133.69 314.776 141.48 304.816 152.8 303.226C161.9 301.946 169.01 306.556 172.84 314.396C172.84 314.396 172.84 314.416 172.86 314.446C173.1 314.926 173.31 315.426 173.51 315.936C176.61 323.026 190.81 351.986 195.72 361.906C196.96 364.406 187.4 369.436 174.51 372.856C164.48 375.516 141.56 377.896 141.42 375.896L135.57 332.046L133.42 328.866L135.27 326.096H135.28Z" fill="#AAA0FF"/>
<path d="M175.37 317.125C175.37 317.125 190.13 350.595 195.72 361.895C196.96 364.395 187.4 369.425 174.51 372.845C164.48 375.505 141.56 377.885 141.42 375.885L135.74 333.155" stroke="#512921" stroke-width="2.5" stroke-linecap="round" stroke-linejoin="round"/>
<path d="M127.92 329.986C130.97 332.056 133.04 332.416 135.49 332.256" stroke="#512921" stroke-width="2.5" stroke-linecap="round" stroke-linejoin="round"/>
<path d="M105.4 306.325C105.4 306.325 118.39 307.605 133.95 306.865C148.03 306.185 163.16 303.555 163.16 303.555" stroke="#512921" stroke-width="2.5" stroke-linecap="round" stroke-linejoin="round"/>
<path d="M174.39 290.775C173.15 297.485 144.8 300.225 134.08 300.735C123.36 301.245 98.5697 300.735 92.8297 296.275C89.1397 293.405 103.64 237.285 107.88 232.425C111.28 228.515 148.57 226.545 152.22 230.155C159.62 237.485 175.28 285.965 174.39 290.775Z" fill="white"/>
<path d="M160.209 244.916C167.439 262.016 175.219 287.406 174.389 290.786C172.809 297.246 144.799 300.236 134.079 300.746C123.359 301.256 96.4789 300.576 92.8289 296.286C90.7189 293.796 96.849 265.936 102.169 247.746" stroke="#512921" stroke-width="2.5" stroke-linecap="round" stroke-linejoin="round"/>
<path d="M132.14 282.155C144.224 282.155 154.02 272.359 154.02 260.275C154.02 248.191 144.224 238.396 132.14 238.396C120.056 238.396 110.26 248.191 110.26 260.275C110.26 272.359 120.056 282.155 132.14 282.155Z" fill="#AAA0FF"/>
<path d="M149.48 259.456C149.16 259.476 148.84 259.366 148.58 259.146C148.53 259.106 143.07 254.636 131.9 255.176C121.87 255.656 115.59 260.566 115.53 260.616C114.97 261.056 114.16 260.966 113.71 260.416C113.26 259.856 113.35 259.046 113.91 258.606C114.19 258.386 120.86 253.125 131.77 252.595C144.04 252.005 150.01 256.975 150.25 257.185C150.79 257.645 150.86 258.466 150.39 259.006C150.15 259.286 149.81 259.446 149.47 259.456H149.48Z" fill="white"/>
<path d="M134.561 268.855L135.191 281.945C134.531 282.035 133.871 282.105 133.191 282.135C132.511 282.165 131.841 282.165 131.181 282.135L130.551 269.045C130.551 268.865 130.701 268.715 130.901 268.705L134.171 268.545C134.371 268.545 134.551 268.675 134.561 268.845V268.855Z" fill="white"/>
<path d="M132.668 271.184C136.126 271.018 138.802 268.204 138.643 264.9C138.484 261.595 135.552 259.051 132.093 259.217C128.634 259.384 125.959 262.197 126.117 265.501C126.276 268.806 129.209 271.35 132.668 271.184Z" fill="white"/>
<path d="M130.839 233.196C139.142 232.797 145.641 227.667 145.356 221.736C145.071 215.806 138.11 211.322 129.808 211.721C121.506 212.12 115.006 217.25 115.291 223.18C115.576 229.111 122.537 233.595 130.839 233.196Z" fill="#FF73A2" stroke="#512921" stroke-width="2.5" stroke-linecap="round" stroke-linejoin="round"/>
<path d="M181.8 7.1755C159.12 36.8255 133.01 57.0355 125.12 63.6155C123.92 64.5155 122.74 65.4455 121.62 66.4255C121.56 66.4755 121.52 66.5055 121.52 66.5055H121.53C106.94 79.2755 98.7603 98.8555 101.44 119.525C105.7 152.475 135.85 175.725 168.8 171.465C193.92 168.215 213.39 149.905 219.33 126.775C232.08 84.4255 206.68 -25.3345 181.8 7.18551V7.1755Z" fill="#FF73A2" stroke="#512921" stroke-width="2.5" stroke-linecap="round" stroke-linejoin="round"/>
<path d="M192.76 24.2756C192.76 24.2756 182.01 72.5756 177.26 78.2756C187.33 85.2856 203.87 101.696 206.77 106.146C211.12 98.3956 207.33 36.5056 192.77 24.2656L192.76 24.2756Z" fill="#FFEBF0"/>
<path d="M193.751 14.6255C188.771 57.5555 169.391 100.046 169.391 100.046" stroke="#512921" stroke-width="2.5" stroke-linecap="round" stroke-linejoin="round"/>
<path d="M192.531 23.4956C198.871 25.8256 215.221 76.7256 205.421 111.886" stroke="#512921" stroke-width="2.5" stroke-linecap="round" stroke-linejoin="round"/>
<path d="M24.9706 27.4557C54.4406 50.3557 84.8406 63.2657 94.1506 67.6157C95.5406 68.1757 96.9107 68.7757 98.2507 69.4357C98.3207 69.4757 98.3705 69.4857 98.3705 69.4857H98.3605C115.721 78.1257 128.611 94.9857 131.281 115.646C135.541 148.596 112.301 178.756 79.3605 183.016C54.2405 186.266 30.7505 173.506 19.1205 152.656C-3.98946 114.946 -7.34935 2.33568 24.9806 27.4457L24.9706 27.4557Z" fill="#FF73A2" stroke="#512921" stroke-width="2.5" stroke-linecap="round" stroke-linejoin="round"/>
<path d="M18.7197 46.7856C18.7197 46.7856 41.3997 90.7656 47.4597 95.0656C39.5097 104.406 27.6797 124.486 26.0197 129.526C19.8397 123.136 8.11968 65.7456 18.7297 46.7856H18.7197Z" fill="#FFEBF0"/>
<path d="M15.3008 37.7158C31.0408 77.9658 60.6006 114.126 60.6006 114.126" stroke="#512921" stroke-width="2.5" stroke-linecap="round" stroke-linejoin="round"/>
<path d="M18.7416 45.9756C13.2116 49.8456 10.3417 103.226 28.7717 134.736" stroke="#512921" stroke-width="2.5" stroke-linecap="round" stroke-linejoin="round"/>
<path d="M108.99 60.6654C59.1402 67.1154 24.6101 100.875 18.9101 157.365C18.1101 165.255 16.6202 170.065 12.5002 173.325C11.2802 174.285 10.8201 175.995 11.4601 177.485C28.0101 216.505 78.9201 232.815 130.4 226.155C181.88 219.495 226.96 190.765 233.04 148.825C233.27 147.225 232.4 145.685 230.97 145.075C226.16 142.975 223.49 138.695 220.71 131.275C200.83 78.0954 158.84 54.2354 108.99 60.6854V60.6654Z" fill="#FF73A2"/>
<path d="M19.7902 150.275C19.4402 152.595 19.1501 154.966 18.9101 157.366C18.1101 165.256 16.6202 170.066 12.5002 173.326C11.2802 174.286 10.8201 175.996 11.4601 177.486C28.0101 216.506 78.9201 232.815 130.4 226.155C181.88 219.495 226.96 190.765 233.04 148.826C233.27 147.226 232.4 145.686 230.97 145.076C226.16 142.976 223.49 138.695 220.71 131.275C219.86 129.015 218.98 126.796 218.05 124.646" stroke="#512921" stroke-width="2.5" stroke-linecap="round" stroke-linejoin="round"/>
<path d="M210.031 108.825C187.741 71.4655 151.181 55.2155 108.991 60.6655C66.8012 66.1255 35.5813 91.1455 23.5312 132.945" stroke="#512921" stroke-width="2.5" stroke-linecap="round" stroke-linejoin="round"/>
<path d="M196.75 170.775C191.42 184.625 179.1 194.575 178.92 196.355C178.74 198.135 185.41 206.265 186.89 208.195C170.46 217.315 150.94 223.485 130.39 226.145C109.91 228.795 89.5298 227.815 71.3598 223.205C72.2898 221.005 73.7999 218.275 75.7299 210.755C75.8299 210.375 59.4499 203.215 50.9999 190.075C44.0399 179.255 41.13 166.445 42.27 160.535C42.49 159.405 51.8299 131.285 102.67 116.475C103.38 116.285 104.1 116.085 104.82 115.885C105.61 113.645 112.04 94.0754 112.04 94.0754C112.21 93.4554 112.68 93.0754 113.21 92.9654C113.78 92.9154 114.38 93.1554 114.72 93.7354C114.72 93.7354 125.92 111.025 127.25 112.985C128.2 113.005 129.15 113.005 130.08 113.015C182.52 114.555 197.49 137.985 198.01 139.005C199.77 142.425 201.4 158.635 196.73 170.775H196.75Z" fill="#FFEBF0" stroke="#512921" stroke-width="2.5" stroke-linecap="round" stroke-linejoin="round"/>
<path d="M105.341 175.956C105.281 168.946 92.6311 162.956 77.6412 163.626C64.6012 164.206 63.8513 175.096 66.5113 182.356C67.8413 185.986 72.3912 187.096 82.1812 185.996C94.3412 184.636 105.391 181.046 105.341 175.966V175.956Z" fill="white"/>
<mask id="mask0_16767_3907" style="mask-type:luminance" maskUnits="userSpaceOnUse" x="65" y="163" width="41" height="24">
<path d="M105.341 175.956C105.281 168.946 92.6311 162.956 77.6412 163.626C64.6012 164.206 63.8513 175.096 66.5113 182.356C67.8413 185.986 72.3912 187.096 82.1812 185.996C94.3412 184.636 105.391 181.046 105.341 175.966V175.956Z" fill="white"/>
</mask>
<g mask="url(#mask0_16767_3907)">
<path d="M95.3649 192.52C103.057 190.5 107.58 182.345 105.468 174.305C103.356 166.266 95.4085 161.388 87.7166 163.408C80.0247 165.429 75.5012 173.584 77.6132 181.623C79.7252 189.662 87.673 194.541 95.3649 192.52Z" fill="#512921"/>
<path d="M96.7109 181.796C99.1023 181.796 101.041 179.857 101.041 177.466C101.041 175.074 99.1023 173.136 96.7109 173.136C94.3195 173.136 92.3809 175.074 92.3809 177.466C92.3809 179.857 94.3195 181.796 96.7109 181.796Z" fill="white"/>
</g>
<path d="M105.341 175.956C105.281 168.946 92.6312 162.956 77.6412 163.626C64.6012 164.206 63.8513 175.096 66.5113 182.356C67.8413 185.986 72.3912 187.096 82.1812 185.996C94.3412 184.636 105.391 181.046 105.341 175.966V175.956Z" stroke="#512921" stroke-width="2.5" stroke-linecap="round" stroke-linejoin="round"/>
<path d="M64.7014 170.326C58.4914 169.736 55.9414 165.706 55.9414 165.706" stroke="#512921" stroke-width="2.5" stroke-linecap="round" stroke-linejoin="round"/>
<path d="M141.911 169.145C139.831 162.445 147.621 146.655 162.201 143.125C174.891 140.055 181.14 152.965 180.83 160.685C180.68 164.545 175.351 167.455 165.891 170.195C154.141 173.595 143.421 173.995 141.911 169.145Z" fill="white"/>
<mask id="mask1_16767_3907" style="mask-type:luminance" maskUnits="userSpaceOnUse" x="141" y="142" width="40" height="31">
<path d="M141.911 169.145C139.831 162.445 147.621 146.655 162.201 143.125C174.891 140.055 181.14 152.965 180.83 160.685C180.68 164.545 175.351 167.455 165.891 170.195C154.141 173.595 143.421 173.995 141.911 169.145Z" fill="white"/>
</mask>
<g mask="url(#mask1_16767_3907)">
<path d="M167.549 177.276C175.49 176.851 181.569 169.778 181.125 161.478C180.681 153.178 173.884 146.794 165.942 147.219C158.001 147.643 151.922 154.716 152.366 163.016C152.81 171.316 159.607 177.7 167.549 177.276Z" fill="#512921"/>
<path d="M173.27 165.825C175.661 165.825 177.599 163.886 177.599 161.495C177.599 159.104 175.661 157.165 173.27 157.165C170.878 157.165 168.939 159.104 168.939 161.495C168.939 163.886 170.878 165.825 173.27 165.825Z" fill="white"/>
</g>
<path d="M141.911 169.145C139.831 162.445 147.621 146.655 162.201 143.125C174.891 140.055 181.14 152.965 180.83 160.685C180.68 164.545 175.351 167.455 165.891 170.195C154.141 173.595 143.421 173.995 141.911 169.145Z" stroke="#512921" stroke-width="2.5" stroke-linecap="round" stroke-linejoin="round"/>
<path d="M176.951 147.075C183.021 147.095 182.821 140.735 182.821 140.735" stroke="#512921" stroke-width="2.5" stroke-linecap="round" stroke-linejoin="round"/>
<path d="M116.99 174.666C116.8 173.216 117.95 171.976 122.94 171.336C127.93 170.686 129.37 171.756 129.54 173.046C129.71 174.336 126.67 177.396 123.77 177.776C120.87 178.156 117.18 176.116 116.99 174.676V174.666Z" fill="#FF73A2" stroke="#512921" stroke-width="2.5" stroke-linecap="round" stroke-linejoin="round"/>
<path d="M80.541 150.936C80.541 150.936 84.1008 147.706 86.1108 147.936C88.1108 148.156 95.6109 156.066 100.711 154.066" stroke="#512921" stroke-width="2.5" stroke-linecap="round" stroke-linejoin="round"/>
<path d="M103.991 149.236C104.841 149.046 105.601 149.265 106.291 149.745C106.961 150.245 107.38 150.965 107.58 151.655C107.7 152.005 107.731 152.346 107.791 152.696C107.791 153.026 107.821 153.365 107.751 153.685C107.621 154.325 107.38 154.926 106.89 155.446C106.69 155.656 106.36 155.665 106.14 155.465C106.1 155.425 106.071 155.396 106.051 155.346L106.031 155.316C105.681 154.716 105.56 154.186 105.43 153.696C105.31 153.216 105.29 152.755 105.16 152.375C105.07 151.975 104.941 151.665 104.761 151.405C104.611 151.135 104.291 150.866 104.001 150.636L103.701 150.396C103.421 150.166 103.37 149.755 103.6 149.465C103.7 149.345 103.831 149.266 103.971 149.236H103.991Z" fill="#512921"/>
<path d="M140.262 135.116C143.262 130.706 146.652 120.716 153.702 125.046" stroke="#512921" stroke-width="2.5" stroke-linecap="round" stroke-linejoin="round"/>
<path d="M118.102 190.715C118.102 190.715 125.002 185.685 126.632 185.545C128.262 185.405 133.052 186.675 133.052 186.675" stroke="#512921" stroke-width="2.5" stroke-linecap="round" stroke-linejoin="round"/>
<path d="M106.672 274.979C110.418 272.336 111.894 267.984 109.971 265.258C108.048 262.533 103.453 262.466 99.7073 265.109C95.962 267.752 94.4849 272.104 96.4083 274.829C98.3316 277.555 102.927 277.622 106.672 274.979Z" fill="#FFEBF0" stroke="#512921" stroke-width="2.5" stroke-linecap="round" stroke-linejoin="round"/>
<path d="M98.0605 231.116L148.131 230.956L159.641 293.916L154.011 297.876L117.151 292.826L98.0605 231.116Z" fill="#7DCDF9" stroke="#5AB1F2" stroke-width="2.5" stroke-linecap="round" stroke-linejoin="round"/>
<path d="M99.7012 234.666L93.4512 242.336L138.381 242.566L145.851 233.776L99.7012 234.666Z" fill="#FFF6D2"/>
<path d="M91.2715 240.166L115.511 298.666L154.011 297.876L142.421 238.906L91.2715 240.166Z" fill="#7DCDF9" stroke="#5AB1F2" stroke-width="2.5" stroke-linecap="round" stroke-linejoin="round"/>
<path d="M142.422 238.906L148.132 230.956L159.642 293.916L154.012 297.876L142.422 238.906Z" fill="#5AB1F2" stroke="#5AB1F2" stroke-width="2.5" stroke-linecap="round" stroke-linejoin="round"/>
<path d="M98.0613 231.116L99.2415 235.226L95.3113 240.066L91.2715 240.166L115.511 298.666L154.011 297.876L159.641 293.916L148.131 230.956L98.0613 231.116Z" stroke="#4A83BC" stroke-width="2.5" stroke-linecap="round" stroke-linejoin="round"/>
<path d="M76.9216 283.535C76.9216 283.535 96.6116 272.765 100.102 272.565C100.102 272.565 118.252 274.515 113.742 290.105C109.232 305.695 76.5117 305.795 76.5117 305.795" fill="#FF73A2"/>
<path d="M76.9216 283.535C76.9216 283.535 96.6116 272.765 100.102 272.565C100.102 272.565 118.252 274.515 113.742 290.105C109.232 305.695 76.5117 305.795 76.5117 305.795" stroke="#512921" stroke-width="2.5" stroke-linecap="round" stroke-linejoin="round"/>
<path d="M95.7711 272.485C94.3211 273.695 92.8911 274.895 91.7411 276.045C91.7411 276.045 83.611 297.635 104.431 300.195C104.431 300.195 108.861 299.535 114.051 296.885C118.101 294.815 121.221 291.875 122.671 289.195C125.971 283.085 121.941 272.545 112.521 269.045C108.521 267.555 105.651 268.815 102.601 269.505" fill="#FFEBF0"/>
<path d="M95.7711 272.485C94.3211 273.695 92.8911 274.895 91.7411 276.045C91.7411 276.045 83.611 297.635 104.431 300.195C104.431 300.195 108.861 299.535 114.051 296.885C118.101 294.815 121.221 291.875 122.671 289.195C125.971 283.085 121.941 272.545 112.521 269.045C108.521 267.555 105.651 268.815 102.601 269.505" stroke="#512921" stroke-width="2.5" stroke-linecap="round" stroke-linejoin="round"/>
<path d="M165.81 260.505C165.81 260.505 165.861 260.515 165.881 260.525C175.481 262.935 180.401 265.345 189.591 267.895C194.771 269.155 197.871 272.855 197.971 278.435C198.091 285.075 194.071 289.235 187.431 289.355C186.471 289.375 188.371 290.305 187.481 290.105L187.031 290.035C177.301 288.655 169.221 288.655 160.011 287.465C159.961 287.465 159.911 287.455 159.861 287.445V287.405C153.311 286.445 148.21 280.845 148.08 273.995C147.94 266.365 154.011 260.075 161.641 259.935C163.091 259.905 164.49 260.105 165.81 260.495V260.505Z" fill="#FF73A2"/>
<path d="M186.981 291.205C177.251 289.825 169.221 288.665 160.011 287.475C159.961 287.475 159.911 287.465 159.861 287.455V287.415C153.311 286.455 148.21 280.855 148.08 274.005C147.94 266.375 154.011 260.085 161.641 259.945C163.091 259.915 164.49 260.115 165.81 260.505C165.83 260.505 165.861 260.515 165.881 260.525C175.481 262.935 183.721 265.265 192.911 267.825" stroke="#512921" stroke-width="2.5" stroke-linecap="round" stroke-linejoin="round"/>
<path d="M164.462 261.275C164.462 258.995 162.601 256.075 161.631 254.625C159.921 252.095 157.552 250.335 155.242 250.325C150.542 250.325 151.762 259.305 151.762 259.305" fill="#FFEBF0"/>
<path d="M164.462 261.275C164.462 258.995 162.601 256.075 161.631 254.625C159.921 252.095 157.552 250.335 155.242 250.325C150.542 250.325 151.762 259.305 151.762 259.305" stroke="#512921" stroke-width="2.5" stroke-linecap="round" stroke-linejoin="round"/>
<path d="M163.481 258.206C164.691 259.186 165.981 260.466 167.171 260.746C167.181 265.536 167.471 270.726 166.321 276.206C165.541 279.916 162.861 286.206 160.131 287.596C158.271 287.356 157.381 286.496 149.171 286.816C139.501 287.196 133.331 279.066 133.251 272.276C133.141 262.656 141.711 257.586 155.841 258.766" fill="#FFEBF0"/>
<path d="M163.481 258.206C164.691 259.186 165.981 260.466 167.171 260.746C167.181 265.536 167.471 270.726 166.321 276.206C165.541 279.916 162.861 286.206 160.131 287.596C158.271 287.356 157.381 286.496 149.171 286.816C139.501 287.196 133.331 279.066 133.251 272.276C133.141 262.656 141.711 257.586 155.841 258.766" stroke="#512921" stroke-width="2.5" stroke-linecap="round" stroke-linejoin="round"/>
</svg>
