<svg width="263" height="447" viewBox="0 0 263 447" fill="none" xmlns="http://www.w3.org/2000/svg">
<path d="M117.609 325.532C122.359 345.262 125.109 390.962 147.979 406.342C165.809 418.332 190.649 409.552 213.619 414.212C224.219 416.512 229.519 423.582 228.049 429.762C225.999 438.372 218.039 440.492 207.949 437.852C196.109 434.742 157.109 445.112 127.889 421.022C102.769 400.322 99.3891 365.422 98.3691 339.882C102.789 336.152 111.979 325.242 117.619 325.532H117.609Z" fill="#FF73A2"/>
<mask id="mask0_16767_4901" style="mask-type:luminance" maskUnits="userSpaceOnUse" x="98" y="325" width="131" height="114">
<path d="M117.609 325.532C122.359 345.262 125.109 390.962 147.979 406.342C165.809 418.332 190.649 409.552 213.619 414.212C224.219 416.512 229.519 423.582 228.049 429.762C225.999 438.372 218.039 440.492 207.949 437.852C196.109 434.742 157.109 445.112 127.889 421.022C102.769 400.322 99.3891 365.422 98.3691 339.882C102.789 336.152 111.979 325.242 117.619 325.532H117.609Z" fill="white"/>
</mask>
<g mask="url(#mask0_16767_4901)">
<path d="M172.979 406.342C190.349 410.032 189.168 442.482 177.098 443.922C230.098 449.192 238.048 440.772 237.758 426.872C237.468 412.972 204.189 392.632 172.979 406.342Z" fill="#FFEBF0" stroke="#50281E" stroke-width="2.5" stroke-linecap="round" stroke-linejoin="round"/>
</g>
<path d="M117.609 325.532C122.359 345.262 125.109 390.962 147.979 406.342C165.809 418.332 190.649 409.552 213.619 414.212C224.219 416.512 229.519 423.582 228.049 429.762C225.999 438.372 218.039 440.492 207.949 437.852C196.109 434.742 157.109 445.112 127.889 421.022C102.769 400.322 99.3891 365.422 98.3691 339.882C102.789 336.152 111.979 325.242 117.619 325.532H117.609Z" stroke="#50281E" stroke-width="2.5" stroke-linecap="round" stroke-linejoin="round"/>
<path d="M76.0889 239.732C55.6389 237.702 36.7488 233.572 29.7688 230.872C26.8088 229.732 25.1289 227.332 25.1289 223.422C25.1289 200.682 42.9888 188.302 46.5588 189.812C56.4488 194.002 92.3689 190.002 101.639 205.002C106.689 213.192 105.619 230.922 105.619 230.922" fill="white"/>
<path d="M76.0889 239.732C55.6389 237.702 36.7488 233.572 29.7688 230.872C26.8088 229.732 25.1289 227.332 25.1289 223.422C25.1289 200.682 42.9888 188.302 46.5588 189.812C56.4488 194.002 92.3689 190.002 101.639 205.002C106.689 213.192 105.619 230.922 105.619 230.922" stroke="#512921" stroke-width="2.5" stroke-linecap="round" stroke-linejoin="round"/>
<path d="M63.9074 308.522L64.8774 359.972L64.9275 362.792C65.8075 371.402 73.1675 378.032 81.9675 377.832C90.6075 377.642 97.5773 370.942 98.2973 362.512L98.2275 358.992L97.2673 307.892C97.0973 298.672 89.4873 291.342 80.2673 291.522C71.0473 291.692 63.7274 299.302 63.8974 308.522H63.9074Z" fill="#FF73A2" stroke="#50281E" stroke-width="2.5" stroke-linecap="round" stroke-linejoin="round"/>
<path d="M64.9277 362.792L65.0876 371.322V371.372L68.0376 425.782C68.2076 434.792 75.4877 442.002 84.4277 442.152C84.6277 442.152 84.8276 442.152 85.0376 442.152C94.2476 441.982 101.578 434.372 101.408 425.152L98.4578 370.592C98.4578 370.542 98.4578 370.482 98.4578 370.432L98.3076 362.512" fill="#FF73A2"/>
<path d="M64.9277 362.792L65.0876 371.322V371.372L68.0376 425.782C68.2076 434.792 75.4877 442.002 84.4277 442.152C84.6277 442.152 84.8276 442.152 85.0376 442.152C94.2476 441.982 101.578 434.372 101.408 425.152L98.4578 370.592C98.4578 370.542 98.4578 370.482 98.4578 370.432L98.3076 362.512" stroke="#50281E" stroke-width="2.5" stroke-linecap="round" stroke-linejoin="round"/>
<path d="M81.5984 361.852C82.0292 361.852 82.3784 361.502 82.3784 361.072C82.3784 360.641 82.0292 360.292 81.5984 360.292C81.1676 360.292 80.8184 360.641 80.8184 361.072C80.8184 361.502 81.1676 361.852 81.5984 361.852Z" fill="#50281E"/>
<path d="M80.5874 308.861C80.9464 308.861 81.2373 308.571 81.2373 308.212C81.2373 307.853 80.9464 307.562 80.5874 307.562C80.2284 307.562 79.9375 307.853 79.9375 308.212C79.9375 308.571 80.2284 308.861 80.5874 308.861Z" fill="#50281E"/>
<path d="M99.9082 397.092C99.9082 397.092 101.968 425.032 101.608 433.312C101.438 437.162 101.008 439.482 98.4383 441.012C96.9083 441.922 89.3082 443.022 82.1482 443.072C70.1482 443.162 62.2882 442.712 57.3882 441.032C51.4682 439.002 49.8882 423.602 56.8982 416.532C61.5682 411.822 67.1983 412.062 67.1983 412.062L66.5281 396.642C75.4681 397.832 93.2082 398.372 99.9182 397.072L99.9082 397.092Z" fill="#FFEBF0" stroke="#50281E" stroke-width="2.5" stroke-linecap="round" stroke-linejoin="round"/>
<path d="M76.2874 413.692C76.2874 413.692 72.2675 412.122 67.1875 412.122L76.2874 413.692Z" fill="#FF73A2"/>
<path d="M76.2874 413.692C76.2874 413.692 72.2675 412.122 67.1875 412.122" stroke="#50281E" stroke-width="2.5" stroke-linecap="round" stroke-linejoin="round"/>
<path d="M97.5178 353.402C99.7178 376.452 102.878 414.772 103.268 417.612C100.018 421.842 98.0078 428.582 99.0378 436.052C99.6078 440.162 102.988 442.932 107.058 443.732C116.138 445.512 128.188 445.772 137.388 443.132C141.568 441.932 144.968 438.892 145.148 434.552C145.408 428.462 143.798 421.892 138.338 416.712C137.148 404.932 131.968 354.272 130.798 351.702C126.008 352.632 101.128 350.552 97.5078 353.402H97.5178Z" fill="#FF73A2"/>
<mask id="mask1_16767_4901" style="mask-type:luminance" maskUnits="userSpaceOnUse" x="97" y="351" width="49" height="95">
<path d="M97.5178 353.402C99.7178 376.452 102.878 414.772 103.268 417.612C100.018 421.842 98.0078 428.582 99.0378 436.052C99.6078 440.162 102.988 442.932 107.058 443.732C116.138 445.512 128.188 445.772 137.388 443.132C141.568 441.932 144.968 438.892 145.148 434.552C145.408 428.462 143.798 421.892 138.338 416.712C137.148 404.932 131.968 354.272 130.798 351.702C126.008 352.632 101.128 350.552 97.5078 353.402H97.5178Z" fill="white"/>
</mask>
<g mask="url(#mask1_16767_4901)">
<path d="M97.518 397.472C113.598 399.572 132.468 398.392 141.528 395.442C146.968 412.232 170.968 445.642 121.348 450.952C71.7281 456.262 96.498 403.692 97.518 397.472Z" fill="#FFEBF0" stroke="#50281E" stroke-width="2.5" stroke-linecap="round" stroke-linejoin="round"/>
<path d="M107.908 416.042C107.908 416.042 117.458 409.372 130.698 414.342" stroke="#50281E" stroke-width="2.5" stroke-linecap="round" stroke-linejoin="round"/>
</g>
<path d="M97.5178 353.402C99.7178 376.452 102.878 414.772 103.268 417.612C100.018 421.842 98.0078 428.582 99.0378 436.052C99.6078 440.162 102.988 442.932 107.058 443.732C116.138 445.512 128.188 445.772 137.388 443.132C141.568 441.932 144.968 438.892 145.148 434.552C145.408 428.462 143.798 421.892 138.338 416.712C137.148 404.932 131.968 354.272 130.798 351.702C126.008 352.632 101.128 350.552 97.5078 353.402H97.5178Z" stroke="#50281E" stroke-width="2.5" stroke-linecap="round" stroke-linejoin="round"/>
<path d="M131.258 289.802C130.868 288.312 131.008 284.252 131.008 284.252C131.008 284.252 125.358 283.402 93.5282 279.692C73.6882 277.382 60.2782 278.812 60.2782 278.812C60.2782 278.812 59.7884 286.962 59.7284 289.672C55.7984 306.602 70.5583 323.022 91.9083 323.022C126.308 323.022 135.508 303.052 131.258 289.802Z" fill="#AAA0FF" stroke="#50281E" stroke-width="2.5" stroke-linecap="round" stroke-linejoin="round"/>
<path d="M59.7591 289.412C52.5791 312.982 49.8591 354.922 51.7791 358.412C54.2191 362.842 80.7792 366.042 107.409 359.942L96.5892 311.442" fill="#AAA0FF"/>
<path d="M59.7591 289.412C52.5791 312.982 49.8591 354.922 51.7791 358.412C54.2191 362.842 80.7792 366.042 107.409 359.942L96.5892 311.442" stroke="#50281E" stroke-width="2.5" stroke-linecap="round" stroke-linejoin="round"/>
<path d="M82.8398 315.062L89.9199 319.202L88.98 362.532C88.98 362.532 95.7299 364.132 112.69 363.372C139.62 362.162 148.21 356.592 151.29 354.062C153.77 352.032 131.09 289.622 131.09 289.622" fill="#AAA0FF"/>
<path d="M82.8398 315.062L89.9199 319.202L88.98 362.532C88.98 362.532 95.7299 364.132 112.69 363.372C139.62 362.162 148.21 356.592 151.29 354.062C153.77 352.032 131.09 289.622 131.09 289.622" stroke="#50281E" stroke-width="2.5" stroke-linecap="round" stroke-linejoin="round"/>
<path d="M67.1699 290.162C67.1699 290.162 80.4299 295.602 123.4 292.482" stroke="#50281E" stroke-width="2.5" stroke-linecap="round" stroke-linejoin="round"/>
<path d="M105.368 206.932C115.748 207.902 121.228 213.522 126.398 218.922C141.508 234.702 141.438 280.232 137.368 284.632C135.118 287.062 108.978 287.332 93.648 286.792C81.238 286.352 52.668 283.422 52.448 278.842C52.158 272.912 57.888 254.302 67.648 231.082" fill="white"/>
<path d="M105.368 206.932C115.748 207.902 121.228 213.522 126.398 218.922C141.508 234.702 141.438 280.232 137.368 284.632C135.118 287.062 108.978 287.332 93.648 286.792C81.238 286.352 52.668 283.422 52.448 278.842C52.158 272.912 57.888 254.302 67.648 231.082" stroke="#512921" stroke-width="2.5" stroke-linecap="round" stroke-linejoin="round"/>
<path d="M104.399 238.982C103.369 251.262 92.989 262.652 81.449 262.442C69.999 262.242 64.489 250.712 68.439 238.612C71.839 228.212 81.2888 220.822 90.0088 220.862C98.7688 220.902 105.279 228.442 104.399 238.982Z" fill="#AAA0FF"/>
<path d="M98.8992 240.892C98.5392 240.892 98.1793 240.732 97.9393 240.432C97.8993 240.382 93.2691 234.752 84.7791 234.752C84.7591 234.752 84.7493 234.752 84.7293 234.752C77.3493 234.772 72.8491 238.612 72.7991 238.652C72.2891 239.092 71.5092 239.042 71.0692 238.532C70.6192 238.022 70.6693 237.252 71.1793 236.802C71.3893 236.622 76.3793 232.312 84.7193 232.292C84.7393 232.292 84.7591 232.292 84.7691 232.292C94.4791 232.292 99.6292 238.622 99.8492 238.892C100.269 239.422 100.179 240.192 99.6492 240.622C99.4192 240.802 99.1492 240.892 98.8892 240.892H98.8992Z" fill="white"/>
<path d="M82.7986 247.552L81.7886 263.872C81.1586 263.942 80.5087 263.972 79.8687 263.962C79.2287 263.952 78.5888 263.892 77.9688 263.802L79.3086 247.512C79.3286 247.312 79.4887 247.152 79.6587 247.152L82.4985 247.192C82.6785 247.192 82.8086 247.362 82.7986 247.562V247.552Z" fill="white"/>
<path d="M86.9283 244.782C86.3483 248.142 83.3882 250.952 80.3282 250.902C77.2782 250.862 75.4882 248.002 76.2882 244.652C77.0582 241.442 79.9482 238.962 82.7782 238.992C85.6082 239.022 87.4783 241.562 86.9283 244.782Z" fill="white"/>
<path d="M111.699 211.702C111.009 215.902 97.8589 218.462 89.3489 215.772C87.0189 215.032 84.659 213.752 84.449 211.882C83.979 207.802 84.1589 201.442 84.6289 198.332C85.2889 193.942 94.729 190.672 106.949 195.612C113.039 198.082 112.099 209.332 111.709 211.702H111.699Z" fill="#FF73A2" stroke="#50281E" stroke-width="2.5" stroke-linecap="round" stroke-linejoin="round"/>
<path d="M140.839 279.072C143.829 294.632 148.449 319.732 150.099 324.022C155.809 321.902 158.959 326.792 158.959 331.112C158.959 334.862 157.729 337.832 154.469 341.242C149.599 345.712 137.099 346.982 131.629 344.202C124.619 340.632 119.969 339.202 117.719 281.782C121.119 279.332 136.699 278.042 140.839 279.082V279.072Z" fill="#FF73A2"/>
<mask id="mask2_16767_4901" style="mask-type:luminance" maskUnits="userSpaceOnUse" x="117" y="278" width="42" height="68">
<path d="M140.839 279.072C143.829 294.632 148.449 319.732 150.099 324.022C155.809 321.902 158.959 326.792 158.959 331.112C158.959 334.862 157.729 337.832 154.469 341.242C149.599 345.712 137.099 346.982 131.629 344.202C124.619 340.632 119.969 339.202 117.719 281.782C121.119 279.332 136.699 278.042 140.839 279.082V279.072Z" fill="white"/>
</mask>
<g mask="url(#mask2_16767_4901)">
<path d="M151.678 305.442C143.428 308.172 119.678 312.402 108.748 310.782C110.198 321.962 110.848 363.422 146.788 353.282C182.728 343.132 165.598 313.112 151.678 305.442Z" fill="#FFEBF0" stroke="#50281E" stroke-width="2.5" stroke-linecap="round" stroke-linejoin="round"/>
</g>
<path d="M140.839 279.072C143.829 294.632 148.449 319.732 150.099 324.022C155.809 321.902 158.959 326.792 158.959 331.112C158.959 334.862 157.729 337.832 154.469 341.242C149.599 345.712 137.099 346.982 131.629 344.202C124.619 340.632 119.969 339.202 117.719 281.782C121.119 279.332 136.699 278.042 140.839 279.082V279.072Z" stroke="#50281E" stroke-width="2.5" stroke-linecap="round" stroke-linejoin="round"/>
<path d="M110.039 241.872C108.369 251.702 107.499 274.922 109.519 283.512C109.759 284.532 110.649 285.262 111.699 285.322C125.999 286.822 140.779 284.662 148.689 279.822C149.709 279.202 150.269 278.052 150.129 276.862C148.889 266.362 140.749 234.602 131.849 222.592C126.949 215.982 120.209 211.942 116.589 210.052" fill="white"/>
<path d="M110.039 241.872C108.369 251.702 107.499 274.922 109.519 283.512C109.759 284.532 110.649 285.262 111.699 285.322C125.999 286.822 140.779 284.662 148.689 279.822C149.709 279.202 150.269 278.052 150.129 276.862C148.889 266.362 140.749 234.602 131.849 222.592C126.949 215.982 120.209 211.942 116.589 210.052" stroke="#512921" stroke-width="2.5" stroke-linecap="round" stroke-linejoin="round"/>
<path d="M152.929 329.132C152.929 327.062 151.839 324.892 150.289 324.212L152.929 329.132Z" fill="#FF73A2"/>
<path d="M152.929 329.132C152.929 327.062 151.839 324.892 150.289 324.212" stroke="#50281E" stroke-width="2.5" stroke-linecap="round" stroke-linejoin="round"/>
<path d="M247.188 45.7418C211.678 53.9618 179.468 52.8318 169.438 52.8518C167.978 52.7718 166.508 52.7418 165.058 52.7718C164.978 52.7718 164.928 52.7718 164.928 52.7718C146.008 53.2718 127.668 63.0018 116.798 80.4218C99.4782 108.192 107.638 144.972 135.048 162.572C155.948 175.992 181.988 174.362 200.858 160.522C236.818 136.352 286.118 36.7318 247.178 45.7418H247.188Z" fill="#FF73A2" stroke="#502823" stroke-width="2.5" stroke-linecap="round" stroke-linejoin="round"/>
<path d="M244.768 65.6919C244.768 65.6919 193.558 88.7019 186.428 90.0419C189.618 101.752 204.878 131.662 204.278 136.882C212.378 133.732 248.088 84.2218 244.768 65.7018V65.6919Z" fill="#FDEDF1"/>
<path d="M251.518 58.9819C218.568 83.6619 173.488 91.3919 173.488 91.3919" stroke="#502823" stroke-width="2.5" stroke-linecap="round" stroke-linejoin="round"/>
<path d="M245.079 64.9517C248.389 70.7317 228.959 119.832 199.699 140.392" stroke="#502823" stroke-width="2.5" stroke-linecap="round" stroke-linejoin="round"/>
<path d="M43.3291 6.49173C66.8991 34.0517 93.2192 52.2217 101.199 58.1617C102.409 58.9717 103.599 59.8017 104.739 60.6917C104.799 60.7417 104.839 60.7617 104.839 60.7617H104.829C119.629 72.3517 128.639 90.9617 127.279 111.272C125.109 143.652 97.449 168.122 65.489 165.932C41.119 164.262 21.2992 147.552 14.2292 125.362C-0.530787 84.8217 17.4791 -23.7283 43.3391 6.49173H43.3291Z" fill="#FF73A2" stroke="#502823" stroke-width="2.5" stroke-linecap="round" stroke-linejoin="round"/>
<path d="M33.7793 23.8218C33.7793 23.8218 46.9594 70.2918 51.8694 75.5718C42.5894 83.0118 27.6294 100.002 25.0994 104.512C20.4594 97.2117 20.1793 39.9817 33.7793 23.8317V23.8218Z" fill="#FDEDF1"/>
<path d="M32.2598 14.4817C39.5698 56.0517 60.72 96.3417 60.72 96.3417" stroke="#502823" stroke-width="2.5" stroke-linecap="round" stroke-linejoin="round"/>
<path d="M33.9596 23.0518C27.9996 25.7018 15.2394 76.3117 26.7394 110.022" stroke="#502823" stroke-width="2.5" stroke-linecap="round" stroke-linejoin="round"/>
<path d="M118.989 41.0216C68.4789 38.4916 28.199 66.1216 12.349 121.762C10.129 129.532 7.77901 134.092 3.11901 136.612C1.73901 137.352 0.97898 138.992 1.33898 140.592C10.669 182.722 58.1089 208.272 110.269 210.882C162.429 213.492 212.239 192.812 225.839 151.842C226.359 150.282 225.769 148.572 224.469 147.702C220.089 144.722 218.219 139.952 216.809 132.002C206.749 75.0717 169.499 43.5516 118.989 41.0216Z" fill="#FF73A2"/>
<mask id="mask3_16767_4901" style="mask-type:luminance" maskUnits="userSpaceOnUse" x="1" y="40" width="226" height="172">
<path d="M118.989 41.0216C68.4789 38.4916 28.199 66.1216 12.349 121.762C10.129 129.532 7.77901 134.092 3.11901 136.612C1.73901 137.352 0.97898 138.992 1.33898 140.592C10.669 182.722 58.1089 208.272 110.269 210.882C162.429 213.492 212.239 192.812 225.839 151.842C226.359 150.282 225.769 148.572 224.469 147.702C220.089 144.722 218.219 139.952 216.809 132.002C206.749 75.0717 169.499 43.5516 118.989 41.0216Z" fill="white"/>
</mask>
<g mask="url(#mask3_16767_4901)">
<path d="M120.379 88.2917C120.689 88.9217 121.199 89.4318 121.879 89.5618C176.349 99.7618 188.529 129.412 188.859 130.522C189.989 134.272 191.129 150.952 180.309 168.812C166.899 190.942 147.469 191.992 148.469 193.492C150.169 196.042 162.789 204.112 161.999 206.332C142.559 212.632 131.299 214.002 110.489 212.962C89.6785 211.922 61.5087 205.682 47.1987 195.312C47.1487 192.112 47.5886 188.392 53.7786 183.612C54.0986 183.372 41.0786 174.382 33.2586 157.972C25.3886 141.452 28.1787 123.032 30.3687 117.312C30.7787 116.232 40.8487 93.0117 90.9187 87.9517C91.8687 87.8517 92.8487 87.3417 93.1687 86.4217C96.0787 78.2317 104.559 68.8617 111.839 65.2017C113.639 64.3017 115.339 64.7718 115.439 66.0618C115.949 72.3418 117.739 82.8917 120.379 88.2817V88.2917Z" fill="#FDEDF1" stroke="#502823" stroke-width="2.5" stroke-linecap="round" stroke-linejoin="round"/>
<path d="M129.468 149.852C134.688 152.912 138.418 155.472 136.858 158.912C135.038 162.932 122.608 167.072 123.698 174.902C124.498 180.692 128.278 184.742 130.698 187.862C131.628 189.062 130.968 190.822 129.478 191.092C121.398 192.552 120.978 200.312 126.338 212.412C140.718 213.192 144.958 211.882 150.518 209.712C154.648 201.442 142.748 197.792 144.048 197.632C149.488 196.982 161.448 192.192 144.158 175.972C139.368 171.422 149.828 166.852 150.888 161.032C151.508 157.662 150.088 153.072 144.058 149.812C137.588 149.782 135.158 149.552 129.478 149.862L129.468 149.852Z" fill="white" stroke="#502823" stroke-width="2.5" stroke-linecap="round" stroke-linejoin="round"/>
<path d="M70.5497 154.052C64.5997 155.182 60.2297 156.332 60.5397 160.102C60.8997 164.502 71.2097 172.582 67.5497 179.592C64.8497 184.772 59.9297 187.322 56.5997 189.442C55.3197 190.252 55.3498 192.142 56.6598 192.892C63.7798 196.982 61.5698 204.432 52.4398 214.032C38.6398 209.922 35.0897 207.272 30.5897 203.352C29.4797 194.172 41.9196 194.742 40.7496 194.162C35.8496 191.722 26.1898 183.182 47.9398 173.732C53.9798 171.062 45.6698 163.232 46.6298 157.392C47.1798 154.012 50.0597 150.172 56.8397 149.122C62.9497 151.272 65.3097 151.872 70.5497 154.072V154.052Z" fill="white" stroke="#502823" stroke-width="2.5" stroke-linecap="round" stroke-linejoin="round"/>
</g>
<path d="M14.5089 114.802C13.7489 117.072 13.029 119.392 12.349 121.762C10.129 129.532 7.77901 134.092 3.11901 136.612C1.73901 137.352 0.97898 138.992 1.33898 140.592C10.669 182.722 58.0989 208.512 110.269 210.882C164.379 213.342 212.239 192.812 225.839 151.842C226.359 150.282 225.769 148.572 224.469 147.702C221.739 145.842 219.979 143.292 218.709 139.702" stroke="#502823" stroke-width="2.5" stroke-linecap="round" stroke-linejoin="round"/>
<path d="M21.3398 98.1017C40.8298 58.3417 76.2498 38.8817 119 41.0217C161.75 43.1617 194.99 66.0618 210.3 107.572C213.77 117.042 216.28 129.142 216.93 132.642" stroke="#502823" stroke-width="2.5" stroke-linecap="round" stroke-linejoin="round"/>
<path d="M155.679 154.262C154.399 153.882 152.879 153.482 151.449 153.192C150.719 153.032 149.989 152.882 149.259 152.772C148.529 152.632 147.789 152.522 147.049 152.422C144.089 152.012 141.109 151.762 138.109 151.672C136.609 151.662 135.109 151.602 133.599 151.672C132.849 151.692 132.089 151.672 131.339 151.732C130.589 151.792 129.829 151.832 129.079 151.862C128.319 151.882 127.569 151.962 126.819 152.032L124.549 152.222C123.029 152.372 121.529 152.592 119.989 152.702H119.879C118.959 152.772 118.159 152.082 118.089 151.162C118.029 150.372 118.529 149.682 119.249 149.452C120.769 148.972 122.309 148.522 123.869 148.132C125.439 147.832 126.999 147.432 128.599 147.252C131.779 146.752 135.019 146.632 138.249 146.662C141.479 146.792 144.719 147.132 147.899 147.862C149.489 148.212 151.059 148.662 152.599 149.202C154.159 149.772 155.609 150.362 157.169 151.272C157.959 151.742 158.229 152.762 157.759 153.552C157.359 154.222 156.559 154.522 155.849 154.302L155.689 154.252L155.679 154.262Z" fill="#502823"/>
<path d="M154.09 152.122C157.54 153.032 159.66 153.602 163.21 152.212" stroke="#502823" stroke-width="2.5" stroke-linecap="round" stroke-linejoin="round"/>
<path d="M48.299 133.432C49.939 133.062 51.4092 132.942 52.9692 132.892C53.7392 132.892 54.509 132.892 55.279 132.932C56.049 132.992 56.819 133.042 57.579 133.142C58.339 133.262 59.1091 133.352 59.8691 133.512L62.1291 134.032L64.339 134.742C65.079 134.972 65.779 135.312 66.509 135.592C66.859 135.752 67.229 135.892 67.579 136.062L68.6091 136.612C69.2891 136.992 69.9991 137.302 70.6391 137.752C71.9291 138.622 73.2391 139.452 74.3791 140.502C75.6091 141.452 76.6291 142.612 77.6791 143.722C78.2191 144.272 78.6491 144.912 79.1091 145.522C79.5591 146.132 79.9991 146.762 80.4291 147.382C80.9491 148.142 80.7589 149.182 79.999 149.702C79.359 150.142 78.5091 150.072 77.9491 149.582L77.819 149.462C77.289 148.992 76.779 148.532 76.279 148.052C75.769 147.592 75.319 147.072 74.749 146.672C73.679 145.812 72.669 144.902 71.529 144.162C69.349 142.562 66.979 141.262 64.519 140.192C62.069 139.082 59.479 138.292 56.819 137.722C55.489 137.442 54.149 137.212 52.789 137.052C51.459 136.882 50.019 136.792 48.779 136.752H48.6091C47.6891 136.712 46.969 135.942 46.999 135.022C47.029 134.252 47.579 133.622 48.299 133.462V133.432Z" fill="#502823"/>
<path d="M46.2696 139.142C49.2796 138.332 52.1998 138.052 55.2098 138.042C58.1998 138.032 61.1997 138.382 64.1397 139.012C65.6097 139.322 67.0596 139.772 68.4996 140.222C69.2096 140.482 69.9097 140.772 70.6097 141.052L71.6597 141.482L72.6697 142.002C75.4097 143.282 77.8897 145.102 80.1197 147.082C80.8097 147.692 80.8696 148.752 80.2596 149.442C79.7396 150.022 78.8996 150.162 78.2396 149.812L78.1197 149.752C75.6797 148.472 73.3296 147.152 70.7896 146.232C68.2896 145.252 65.7096 144.442 63.0696 143.902C60.4396 143.302 57.7496 142.912 55.0296 142.672C52.3296 142.442 49.5197 142.372 46.8797 142.432H46.7396C45.8196 142.452 45.0596 141.722 45.0396 140.802C45.0196 140.022 45.5496 139.352 46.2696 139.152V139.142Z" fill="#502823"/>
<path d="M50.8191 134.692C47.5691 134.872 45.5392 136.512 42.6992 134.422" stroke="#502823" stroke-width="2.5" stroke-linecap="round" stroke-linejoin="round"/>
<path d="M105.939 171.892C99.0892 167.982 97.5192 162.822 96.9192 156.392C94.9392 162.302 91.3191 167.462 86.2891 169.752" fill="#FDEDF1"/>
<path d="M105.939 171.892C99.0892 167.982 97.5192 162.822 96.9192 156.392C94.9392 162.302 91.3191 167.462 86.2891 169.752" stroke="#502823" stroke-width="2.5" stroke-linecap="round" stroke-linejoin="round"/>
<path d="M125.029 116.832C126.119 119.822 128.439 122.272 133.009 122.812" stroke="#502823" stroke-width="2.5" stroke-linecap="round" stroke-linejoin="round"/>
<path d="M80.2585 113.042C78.7385 115.832 76.0687 117.912 71.4688 117.762" stroke="#502823" stroke-width="2.5" stroke-linecap="round" stroke-linejoin="round"/>
<path d="M91.5781 146.062C91.7081 144.582 93.0982 143.592 98.1482 144.022C103.188 144.452 104.378 145.832 104.268 147.142C104.158 148.462 100.508 150.862 97.5781 150.612C94.6481 150.362 91.4581 147.542 91.5881 146.062H91.5781Z" fill="#FF73A2" stroke="#502823" stroke-width="2.5" stroke-linecap="round" stroke-linejoin="round"/>
<path d="M76.0885 127.662C84.1685 132.062 90.0587 140.312 85.2187 147.962C89.0187 151.972 88.2584 167.422 68.7584 164.562C56.8684 172.252 49.5485 180.472 45.0885 191.642C46.2185 197.652 45.9584 211.112 38.2384 220.052C27.9184 218.492 17.9185 211.082 14.5885 205.062C10.5985 197.882 9.60865 170.622 38.9687 139.622C50.4187 127.222 61.3185 119.822 76.0885 127.652V127.662Z" fill="#FF73A2"/>
<mask id="mask4_16767_4901" style="mask-type:luminance" maskUnits="userSpaceOnUse" x="12" y="124" width="76" height="97">
<path d="M76.0885 127.662C84.1685 132.062 90.0587 140.312 85.2187 147.962C89.0187 151.972 88.2584 167.422 68.7584 164.562C56.8684 172.252 49.5485 180.472 45.0885 191.642C46.2185 197.652 45.9584 211.112 38.2384 220.052C27.9184 218.492 17.9185 211.082 14.5885 205.062C10.5985 197.882 9.60865 170.622 38.9687 139.622C50.4187 127.222 61.3185 119.822 76.0885 127.652V127.662Z" fill="white"/>
</mask>
<g mask="url(#mask4_16767_4901)">
<path d="M25.1393 143.322C22.5793 161.752 32.5894 184.372 58.6894 178.262C95.4494 157.832 109.809 152.152 85.2294 124.432C60.6494 96.7118 33.9493 132.932 25.1393 143.312V143.322Z" fill="white" stroke="#512921" stroke-width="2.5" stroke-linecap="round" stroke-linejoin="round"/>
<path d="M56.8789 136.792C57.9289 142.502 72.4088 151.152 81.5588 143.322L56.8789 136.792Z" fill="white"/>
<path d="M56.8789 136.792C57.9289 142.502 72.4088 151.152 81.5588 143.322" stroke="#512921" stroke-width="2.5" stroke-linecap="round" stroke-linejoin="round"/>
<path d="M73.2204 156.872C67.1704 154.242 68.0403 147.572 72.1203 145.162C76.2003 142.752 81.5604 144.202 85.2204 147.942" fill="white"/>
<path d="M73.2204 156.872C67.1704 154.242 68.0403 147.572 72.1203 145.162C76.2003 142.752 81.5604 144.202 85.2204 147.942" stroke="#512921" stroke-width="2.5" stroke-linecap="round" stroke-linejoin="round"/>
<path d="M42.2383 199.752C42.7083 197.612 43.7184 195.112 45.0984 191.642L42.2383 199.752Z" fill="white"/>
<path d="M42.2383 199.752C42.7083 197.612 43.7184 195.112 45.0984 191.642" stroke="#512921" stroke-width="2.5" stroke-linecap="round" stroke-linejoin="round"/>
</g>
<path d="M76.0885 127.662C84.1685 132.062 90.0587 140.312 85.2187 147.962C89.0187 151.972 88.2584 167.422 68.7584 164.562C56.8684 172.252 49.5485 180.472 45.0885 191.642C46.2185 197.652 45.9584 211.112 38.2384 220.052C27.9184 218.492 17.9185 211.082 14.5885 205.062C10.5985 197.882 9.60865 170.622 38.9687 139.622C50.4187 127.222 61.3185 119.822 76.0885 127.652V127.662Z" stroke="#502823" stroke-width="2.5" stroke-linecap="round" stroke-linejoin="round"/>
<path d="M28.7793 225.702C31.1893 225.282 35.0893 223.292 38.0493 220.242L28.7793 225.702Z" fill="white"/>
<path d="M28.7793 225.702C31.1893 225.282 35.0893 223.292 38.0493 220.242" stroke="#512921" stroke-width="2.5" stroke-linecap="round" stroke-linejoin="round"/>
</svg>
