<svg width="228" height="440" viewBox="0 0 228 440" fill="none" xmlns="http://www.w3.org/2000/svg">
<path d="M97.1468 205.981C79.4868 215.201 67.9568 228.501 60.4068 243.291C51.2868 261.151 52.7168 273.241 60.3368 279.291C72.4968 288.961 94.7268 287.671 110.427 264.391C126.127 241.101 129.327 208.061 122.517 202.521C115.707 196.981 112.527 197.051 97.1568 205.991L97.1468 205.981Z" fill="white" stroke="#4F2A1A" stroke-width="2.5" stroke-linecap="round" stroke-linejoin="round"/>
<path d="M150.826 311.481C161.556 316.621 183.436 324.431 169.396 342.181C172.796 351.131 178.556 348.981 181.806 350.941C188.036 345.891 203.866 316.201 155.296 298.241C150.336 299.261 151.456 309.431 150.816 311.471L150.826 311.481Z" fill="#FF73A2" stroke="#502823" stroke-width="2.5" stroke-linecap="round" stroke-linejoin="round"/>
<path d="M118.207 351.391C120.417 376.981 120.847 428.391 120.847 430.911C120.847 433.721 121.237 435.281 123.967 436.361C126.627 437.421 141.947 440.441 160.257 437.131C163.017 436.631 165.227 434.541 165.807 431.791C167.227 425.101 165.657 415.241 157.137 412.351C155.347 394.341 153.687 368.191 150.897 350.831C142.887 346.641 123.387 347.621 118.207 351.391Z" fill="#FF73A2"/>
<mask id="mask0_16767_4998" style="mask-type:luminance" maskUnits="userSpaceOnUse" x="118" y="348" width="49" height="91">
<path d="M118.207 351.391C120.417 376.981 120.847 428.391 120.847 430.911C120.847 433.721 121.237 435.281 123.967 436.361C126.627 437.421 141.947 440.441 160.257 437.131C163.017 436.631 165.227 434.541 165.807 431.791C167.227 425.101 165.657 415.241 157.137 412.351C155.347 394.341 153.687 368.191 150.897 350.831C142.887 346.641 123.387 347.621 118.207 351.391Z" fill="white"/>
</mask>
<g mask="url(#mask0_16767_4998)">
<path d="M114.777 389.811C121.687 390.901 142.127 393.391 161.927 389.041C185.637 419.061 193.247 460.501 160.187 454.201C127.127 447.891 111.157 448.691 114.777 389.811Z" fill="#FDEDF1" stroke="#502823" stroke-width="2.5" stroke-linecap="round" stroke-linejoin="round"/>
<path d="M133.018 415.111C136.768 411.741 147.567 408.521 157.147 412.351L133.018 415.111Z" fill="#FDEDF1"/>
<path d="M133.018 415.111C136.768 411.741 147.567 408.521 157.147 412.351" stroke="#502823" stroke-width="2.5" stroke-linecap="round" stroke-linejoin="round"/>
</g>
<path d="M118.207 351.391C120.417 376.981 120.847 428.391 120.847 430.911C120.847 433.721 121.237 435.281 123.967 436.361C126.627 437.421 141.947 440.441 160.257 437.131C163.017 436.631 165.227 434.541 165.807 431.791C167.227 425.101 165.657 415.241 157.137 412.351C155.347 394.341 153.687 368.191 150.897 350.831C142.887 346.641 123.387 347.621 118.207 351.391Z" stroke="#502823" stroke-width="2.5" stroke-linecap="round" stroke-linejoin="round"/>
<path d="M106.677 355.521C105.887 364.951 108.777 421.601 109.467 430.461C109.707 433.881 109.707 435.701 104.777 436.671C97.9673 438.011 78.7774 438.941 67.3874 436.281C65.2474 435.781 63.6273 434.021 63.3173 431.851C62.2073 424.071 65.3474 415.361 71.7674 412.061C71.0874 399.071 73.2672 368.501 74.6472 351.951C86.3172 353.421 104.107 354.461 106.677 355.511V355.521Z" fill="#FF73A2"/>
<mask id="mask1_16767_4998" style="mask-type:luminance" maskUnits="userSpaceOnUse" x="63" y="351" width="47" height="87">
<path d="M106.677 355.521C105.887 364.951 108.777 421.601 109.467 430.461C109.707 433.881 109.707 435.701 104.777 436.671C97.9673 438.011 78.7774 438.941 67.3874 436.281C65.2474 435.781 63.6273 434.021 63.3173 431.851C62.2073 424.071 65.3474 415.361 71.7674 412.061C71.0874 399.071 73.2672 368.501 74.6472 351.951C86.3172 353.421 104.107 354.461 106.677 355.511V355.521Z" fill="white"/>
</mask>
<g mask="url(#mask1_16767_4998)">
<path d="M63.2879 387.851C77.9579 390.031 98.6879 390.681 111.058 389.371C114.728 408.081 150.028 445.711 111.058 445.271C72.0879 444.831 41.2479 454.191 63.2879 387.851Z" fill="#FDEDF1" stroke="#502823" stroke-width="2.5" stroke-linecap="round" stroke-linejoin="round"/>
<path d="M97.3175 413.961C93.5675 410.591 81.6576 407.111 71.7676 412.071L97.3175 413.961Z" fill="#FDEDF1"/>
<path d="M97.3175 413.961C93.5675 410.591 81.6576 407.111 71.7676 412.071" stroke="#502823" stroke-width="2.5" stroke-linecap="round" stroke-linejoin="round"/>
</g>
<path d="M106.677 355.521C105.887 364.951 108.777 421.601 109.467 430.461C109.707 433.881 109.707 435.701 104.777 436.671C97.9673 438.011 78.7774 438.941 67.3874 436.281C65.2474 435.781 63.6273 434.021 63.3173 431.851C62.2073 424.071 65.3474 415.361 71.7674 412.061C71.0874 399.071 73.2672 368.501 74.6472 351.951C86.3172 353.421 104.107 354.461 106.677 355.511V355.521Z" stroke="#502823" stroke-width="2.5" stroke-linecap="round" stroke-linejoin="round"/>
<path d="M81.7463 276.231C79.1563 275.651 80.9463 286.401 80.8763 288.231C74.9363 303.541 67.6962 328.081 64.6562 358.881C73.8062 361.811 90.4163 362.321 108.416 360.651C118.476 363.581 145.196 366.501 162.846 359.851C161.716 340.371 151.996 305.211 144.986 284.971C144.606 279.651 145.556 274.101 145.556 272.431C141.036 272.221 94.5463 271.841 81.7563 276.241L81.7463 276.231Z" fill="#AAA0FF" stroke="#50281E" stroke-width="2.5" stroke-linecap="round" stroke-linejoin="round"/>
<path d="M102.547 317.991C104.757 322.101 106.477 324.161 108.087 325.691C107.607 338.581 107.677 353.071 108.177 360.461" stroke="#502823" stroke-width="2.5" stroke-linecap="round" stroke-linejoin="round"/>
<path d="M86.3164 291.721C101.616 295.771 123.716 296.221 146.896 291.041" stroke="#502823" stroke-width="2.5" stroke-linecap="round" stroke-linejoin="round"/>
<path d="M85.5268 229.701C80.0368 243.281 74.0069 271.651 74.0669 278.521C74.1269 285.391 89.5668 287.141 113.047 287.241C133.147 287.321 146.147 284.691 151.357 282.441C152.187 275.541 140.757 208.661 123.177 197.861C105.597 187.061 92.8168 202.851 90.6668 208.741" fill="white"/>
<path d="M85.5268 229.701C80.0368 243.281 74.0069 271.651 74.0669 278.521C74.1269 285.391 89.5668 287.141 113.047 287.241C133.147 287.321 146.147 284.691 151.357 282.441C152.187 275.541 140.757 208.661 123.177 197.861C105.597 187.061 92.8168 202.851 90.6668 208.741" stroke="#4F2A1A" stroke-width="2.5" stroke-linecap="round" stroke-linejoin="round"/>
<path d="M123.867 241.451C124.817 253.401 115.267 264.531 102.447 264.391C89.7268 264.251 81.6469 253.061 83.9669 241.261C85.9569 231.121 95.1668 223.891 104.837 223.891C114.557 223.891 123.057 231.201 123.867 241.451Z" fill="#AAA0FF"/>
<path d="M118.096 243.341C117.696 243.341 117.276 243.191 116.956 242.891C116.896 242.841 110.816 237.391 101.416 237.431C101.396 237.431 101.386 237.431 101.366 237.431C93.1965 237.481 88.8664 241.241 88.8164 241.281C88.3264 241.711 87.4565 241.671 86.8765 241.171C86.2965 240.681 86.2165 239.921 86.7065 239.491C86.9065 239.311 91.6964 235.101 100.936 235.041C100.956 235.041 100.976 235.041 100.996 235.041C111.757 235.001 118.536 241.131 118.826 241.391C119.386 241.901 119.416 242.661 118.906 243.071C118.686 243.251 118.406 243.331 118.106 243.331L118.096 243.341Z" fill="white"/>
<path d="M101.388 249.891L103.048 265.771C102.358 265.841 101.648 265.881 100.938 265.871C100.228 265.861 99.5076 265.811 98.7976 265.721L97.5076 249.861C97.4876 249.671 97.6376 249.511 97.8376 249.511L100.988 249.541C101.188 249.541 101.358 249.701 101.378 249.901L101.388 249.891Z" fill="white"/>
<path d="M105.496 247.181C105.436 250.451 102.626 253.201 99.2261 253.171C95.8361 253.141 93.3661 250.371 93.6861 247.111C93.9961 243.981 96.7761 241.561 99.9061 241.571C103.046 241.581 105.556 244.041 105.496 247.181Z" fill="white"/>
<path d="M99.4873 298.531C95.0773 297.571 92.9074 302.201 94.5074 305.971C96.1074 309.741 102.057 309.451 102.457 305.881C102.857 302.321 102.017 299.571 99.4873 298.521V298.531Z" fill="#FDEDF1" stroke="#502823" stroke-width="2.5" stroke-linecap="round" stroke-linejoin="round"/>
<path d="M182.716 350.041C175.516 358.271 159.366 360.411 145.876 355.851C126.016 349.141 114.706 324.921 113.366 307.521C110.486 296.481 102.796 293.911 102.536 292.961C97.156 293.381 100.006 287.771 119.016 294.011C122.136 298.361 120.576 306.311 121.466 308.181C129.456 310.391 133.296 318.461 151.686 336.531C159.206 343.921 171.726 339.181 178.236 330.251" fill="#FF73A2"/>
<path d="M182.716 350.041C175.516 358.271 159.366 360.411 145.876 355.851C126.016 349.141 114.706 324.921 113.366 307.521C110.486 296.481 102.796 293.911 102.536 292.961C97.156 293.381 100.006 287.771 119.016 294.011C122.136 298.361 120.576 306.311 121.466 308.181C129.456 310.391 133.296 318.461 151.686 336.531C159.206 343.921 171.726 339.181 178.236 330.251" stroke="#502823" stroke-width="2.5" stroke-linecap="round" stroke-linejoin="round"/>
<path d="M76.5465 241.961C63.9165 235.051 38.8165 231.911 23.3065 244.001C13.7165 251.701 13.9165 260.271 16.9065 264.891C19.4665 268.841 27.4566 270.231 34.4966 266.601C45.3766 260.991 61.8966 256.681 69.9866 255.151C77.3566 250.911 77.9565 245.681 76.5565 241.951L76.5465 241.961Z" fill="#FDEDF1" stroke="#502823" stroke-width="2.5" stroke-linecap="round" stroke-linejoin="round"/>
<path d="M57.4355 283.811C64.0055 291.461 80.4356 288.601 86.1356 262.011C94.0256 258.211 95.6756 253.721 95.4656 248.761C95.4856 244.361 90.7156 239.011 86.3156 238.551C82.9856 233.691 74.8556 235.791 68.8856 240.501C57.4756 251.081 49.8055 274.931 57.4355 283.801V283.811Z" fill="#FF73A2"/>
<mask id="mask2_16767_4998" style="mask-type:luminance" maskUnits="userSpaceOnUse" x="54" y="235" width="42" height="53">
<path d="M57.4355 283.811C64.0055 291.461 80.4356 288.601 86.1356 262.011C94.0256 258.211 95.6756 253.721 95.4656 248.761C95.4856 244.361 90.7156 239.011 86.3156 238.551C82.9856 233.691 74.8556 235.791 68.8856 240.501C57.4756 251.081 49.8055 274.931 57.4355 283.801V283.811Z" fill="white"/>
</mask>
<g mask="url(#mask2_16767_4998)">
<path d="M58.4956 256.301C54.3656 268.701 67.8855 282.751 85.7955 273.111C106.266 238.341 115.166 247.721 94.5455 234.101C73.9355 220.491 63.0256 247.001 58.4956 256.301Z" fill="#FDEDF1" stroke="#502823" stroke-width="2.5" stroke-linecap="round" stroke-linejoin="round"/>
</g>
<path d="M57.4355 283.811C64.0055 291.461 80.4356 288.601 86.1356 262.011C94.0256 258.211 95.6756 253.721 95.4656 248.761C95.4856 244.361 90.7156 239.011 86.3156 238.551C82.9856 233.691 74.8556 235.791 68.8856 240.501C57.4756 251.081 49.8055 274.931 57.4355 283.801V283.811Z" stroke="#502823" stroke-width="2.5" stroke-linecap="round" stroke-linejoin="round"/>
<path d="M111.057 288.301C108.847 280.451 93.867 257.991 91.617 256.301C89.237 258.851 87.5969 260.201 85.0269 261.391C84.3869 278.991 91.047 289.451 99.577 295.101C105.337 291.911 108.147 288.771 111.057 288.301Z" fill="#FF73A2" stroke="#502823" stroke-width="2.5" stroke-linecap="round" stroke-linejoin="round"/>
<path d="M113.538 313.221C113.988 312.091 114.588 311.221 116.368 310.711C117.498 311.151 119.158 311.261 120.398 310.981C148.588 313.791 163.618 295.801 165.018 273.281C161.728 267.831 148.678 270.451 139.488 275.271C137.788 283.261 129.658 283.971 116.618 284.971C101.698 279.471 92.0081 293.891 98.7781 302.291C100.148 310.711 106.708 313.231 113.538 313.231V313.221Z" fill="#FF73A2"/>
<mask id="mask3_16767_4998" style="mask-type:luminance" maskUnits="userSpaceOnUse" x="96" y="270" width="70" height="44">
<path d="M113.538 313.221C113.988 312.091 114.588 311.221 116.368 310.711C117.498 311.151 119.158 311.261 120.398 310.981C148.588 313.791 163.618 295.801 165.018 273.281C161.728 267.831 148.678 270.451 139.488 275.271C137.788 283.261 129.658 283.971 116.618 284.971C101.698 279.471 92.0081 293.891 98.7781 302.291C100.148 310.711 106.708 313.231 113.538 313.231V313.221Z" fill="white"/>
</mask>
<g mask="url(#mask3_16767_4998)">
<path d="M120.418 285.031C130.718 285.091 139.958 293.751 134.628 311.771C100.448 318.891 72.9581 313.011 86.3481 294.311C99.7381 275.601 113.588 283.601 120.418 285.041V285.031Z" fill="#FDEDF1" stroke="#502823" stroke-width="2.5" stroke-linecap="round" stroke-linejoin="round"/>
</g>
<path d="M113.538 313.221C113.988 312.091 114.588 311.221 116.368 310.711C117.498 311.151 119.158 311.261 120.398 310.981C148.588 313.791 163.618 295.801 165.018 273.281C161.728 267.831 148.678 270.451 139.488 275.271C137.788 283.261 129.658 283.971 116.618 284.971C101.698 279.471 92.0081 293.891 98.7781 302.291C100.148 310.711 106.708 313.231 113.538 313.231V313.221Z" stroke="#502823" stroke-width="2.5" stroke-linecap="round" stroke-linejoin="round"/>
<path d="M114.777 309.891C115.087 310.121 115.967 310.621 116.367 310.701L114.777 309.891Z" fill="#FF73A2"/>
<path d="M114.777 309.891C115.087 310.121 115.967 310.621 116.367 310.701" stroke="#502823" stroke-width="2.5" stroke-linecap="round" stroke-linejoin="round"/>
<path d="M97.5684 199.711C130.978 198.651 143.468 208.561 149.438 215.401C156.758 223.791 173.388 251.541 176.288 268.611C168.008 280.481 140.218 281.921 131.848 277.801C128.708 270.071 128.738 239.181 132.178 230.261" fill="white"/>
<path d="M97.5684 199.711C130.978 198.651 143.468 208.561 149.438 215.401C156.758 223.791 173.388 251.541 176.288 268.611C168.008 280.481 140.218 281.921 131.848 277.801C128.708 270.071 128.738 239.181 132.178 230.261" stroke="#4F2A1A" stroke-width="2.5" stroke-linecap="round" stroke-linejoin="round"/>
<path d="M122.597 209.241C122.867 213.331 110.867 218.581 102.147 217.901C99.7574 217.711 97.2275 217.021 96.6075 215.311C95.2575 211.581 94.0274 205.571 93.7874 202.561C93.4474 198.301 101.738 193.181 114.498 195.181C120.858 196.171 122.447 206.941 122.597 209.241Z" fill="#FF73A2" stroke="#50281E" stroke-width="2.5" stroke-linecap="round" stroke-linejoin="round"/>
<path d="M210.927 1.97099C178.497 12.281 141.727 38.691 133.797 46.551C132.757 47.581 131.057 47.591 129.737 48.191C129.667 48.221 129.617 48.241 129.617 48.241H129.627C112.407 56.101 99.3371 72.231 96.1571 92.521C91.0871 124.861 112.987 155.511 145.097 160.971C169.577 165.141 192.907 153.451 204.857 133.331C228.497 97.021 235.587 -6.55901 210.927 1.97099Z" fill="#FF73A2" stroke="#502823" stroke-width="2.5" stroke-linecap="round" stroke-linejoin="round"/>
<path d="M212.858 14.4309C209.388 15.6009 203.668 19.8109 199.848 23.2709L212.858 14.4309Z" fill="#FF73A2"/>
<path d="M212.858 14.4309C209.388 15.6009 203.668 19.8109 199.848 23.2709" stroke="#502823" stroke-width="2.5" stroke-linecap="round" stroke-linejoin="round"/>
<path d="M163.117 70.811C176.987 42.911 203.577 16.321 209.287 18.451C214.997 20.571 220.217 42.591 205.047 110.461C192.647 100.671 166.877 75.221 163.117 70.821V70.811Z" fill="#FDEDF1" stroke="#502823" stroke-width="2.5" stroke-linecap="round" stroke-linejoin="round"/>
<path d="M34.2576 5.33103C61.2776 29.521 89.7775 44.021 98.4775 48.8511C99.7875 49.4911 101.068 50.161 102.318 50.891C102.388 50.931 102.427 50.951 102.427 50.951H102.417C118.627 60.471 130.028 77.721 131.378 98.031C133.528 130.411 109.367 158.341 77.3975 160.411C53.0175 161.991 31.1575 148.071 21.1975 127.011C1.18752 88.791 4.61758 -21.189 34.2576 5.33103Z" fill="#FF73A2" stroke="#502823" stroke-width="2.5" stroke-linecap="round" stroke-linejoin="round"/>
<path d="M27.0974 23.781C27.0974 23.781 46.3273 68.081 51.9073 72.661C43.6973 81.271 31.1274 100.091 29.2174 104.901C23.6474 98.281 15.7674 41.591 27.0974 23.781Z" fill="#FDEDF1"/>
<path d="M24.3477 14.7209C37.1177 54.9509 63.4376 92.0709 63.4376 92.0709" stroke="#502823" stroke-width="2.5" stroke-linecap="round" stroke-linejoin="round"/>
<path d="M27.1775 22.9812C21.6175 26.4012 15.6975 78.2612 31.5675 110.131" stroke="#502823" stroke-width="2.5" stroke-linecap="round" stroke-linejoin="round"/>
<path d="M104.467 43.0211C54.0667 47.2211 17.8167 75.7311 9.49669 132.971C8.33669 140.961 6.99665 145.021 2.70665 148.151C1.43665 149.071 0.896661 150.791 1.46666 152.331C16.3167 192.841 59.0367 217.961 118.377 212.531C170.387 207.771 217.047 181.081 225.077 138.651C225.387 137.041 224.577 135.421 223.177 134.731C218.437 132.361 215.947 127.881 213.497 120.191C195.957 65.1011 154.857 38.8111 104.457 43.0111L104.467 43.0211Z" fill="#FF73A2"/>
<mask id="mask4_16767_4998" style="mask-type:luminance" maskUnits="userSpaceOnUse" x="1" y="42" width="225" height="172">
<path d="M104.467 43.0211C54.0667 47.2211 17.8167 75.7311 9.49669 132.971C8.33669 140.961 6.99665 145.021 2.70665 148.151C1.43665 149.071 0.896661 150.791 1.46666 152.331C16.3167 192.841 59.0367 217.961 118.377 212.531C170.387 207.771 217.047 181.081 225.077 138.651C225.387 137.041 224.577 135.421 223.177 134.731C218.437 132.361 215.947 127.881 213.497 120.191C195.957 65.1011 154.857 38.8111 104.457 43.0111L104.467 43.0211Z" fill="white"/>
</mask>
<g mask="url(#mask4_16767_4998)">
<path d="M105.186 105.101C105.576 105.681 106.156 106.101 106.846 106.161C160.886 110.141 178.466 134.721 178.946 135.771C180.566 139.341 180.906 151.081 175.796 163.751C167.386 184.621 152.446 192.591 154.006 193.501C158.536 196.111 167.186 203.921 166.706 206.221C148.266 215.051 139.646 212.851 118.886 214.581C98.186 216.311 60.8659 216.061 45.3059 207.691C45.9859 203.771 48.1659 200.521 53.6559 194.971C53.9359 194.691 41.9859 189.821 33.2159 176.121C23.3559 160.701 24.446 142.371 25.866 136.401C26.136 135.271 35.5459 115.901 79.0259 107.531C79.9659 107.351 80.8559 106.661 81.0559 105.721C82.8559 97.2112 90.176 87.6212 96.736 84.5212C98.556 83.6612 100.146 83.6312 100.416 84.9012C101.756 91.0612 101.856 100.121 105.186 105.111V105.101Z" fill="#FDEDF1" stroke="#502823" stroke-width="2.5" stroke-linecap="round" stroke-linejoin="round"/>
</g>
<path d="M211.056 113.101C211.686 114.751 213.146 121.221 216.406 127.581C218.086 131.001 220.226 133.261 223.186 134.741C224.586 135.431 225.396 137.051 225.086 138.661C217.046 181.081 171.996 208.971 118.386 212.541C60.0065 216.431 16.3164 192.851 1.47643 152.341C0.906426 150.801 1.44642 149.071 2.71642 148.161C7.00642 145.041 8.34646 140.981 9.50646 132.981C11.0865 123.991 13.1765 115.841 14.8865 111.611C29.0665 69.6712 61.8264 46.5812 104.476 43.0212C120.226 41.7112 135.066 43.3712 148.566 47.9612" stroke="#502823" stroke-width="2.5" stroke-linecap="round" stroke-linejoin="round"/>
<path d="M207.637 104.931C206.447 102.181 205.147 99.4013 203.797 96.8513C195.047 80.3213 183.567 67.5112 169.997 58.5012C167.187 63.2112 166.266 65.0013 164.896 68.1813" stroke="#502823" stroke-width="2.5" stroke-linecap="round" stroke-linejoin="round"/>
<path d="M154.678 160.441C160.778 159.041 162.788 154.701 162.788 154.701" stroke="#502823" stroke-width="2.5" stroke-linecap="round" stroke-linejoin="round"/>
<path d="M116.047 171.751C115.237 170.751 114.657 168.561 116.237 165.661C119.327 160.001 124.847 153.521 136.887 152.191C150.477 150.691 157.457 161.971 156.137 168.101C155.537 170.871 148.357 172.941 138.087 173.541C127.877 174.131 117.797 173.911 116.047 171.751Z" fill="white" stroke="#502823" stroke-width="2.5" stroke-linecap="round" stroke-linejoin="round"/>
<path d="M128.568 153.911C140.748 153.151 146.948 164.411 146.238 172.401C139.168 173.921 115.618 175.501 115.678 170.011C115.728 164.521 123.178 155.601 128.568 153.911Z" fill="#502823"/>
<path d="M126.815 164.955C128.772 163.669 129.609 161.485 128.684 160.078C127.759 158.67 125.423 158.571 123.466 159.856C121.508 161.142 120.672 163.325 121.596 164.733C122.521 166.141 124.858 166.24 126.815 164.955Z" fill="white"/>
<path d="M39.4471 161.981C33.7471 160.581 31.8672 156.241 31.8672 156.241" stroke="#502823" stroke-width="2.5" stroke-linecap="round" stroke-linejoin="round"/>
<path d="M75.5268 173.291C76.2868 172.291 76.8268 170.101 75.3468 167.201C72.4668 161.541 67.3068 155.061 56.0668 153.731C43.3668 152.231 36.8568 163.511 38.0868 169.641C38.6468 172.411 45.3468 174.481 54.9468 175.081C64.4868 175.671 73.8868 175.451 75.5268 173.291Z" fill="white" stroke="#502823" stroke-width="2.5" stroke-linecap="round" stroke-linejoin="round"/>
<path d="M47.6975 174.111C46.6075 168.261 47.5675 158.461 54.9575 153.871C66.5975 155.591 74.2076 161.681 75.6176 170.171C77.0276 178.651 55.3075 175.611 47.6875 174.111H47.6975Z" fill="#502823"/>
<path d="M65.408 166.225C66.452 164.952 65.8966 162.771 64.1674 161.352C62.4382 159.933 60.1902 159.814 59.1462 161.087C58.1022 162.359 58.6576 164.541 60.3868 165.959C62.1159 167.378 64.3641 167.497 65.408 166.225Z" fill="white"/>
<path d="M86.0763 195.271C83.6163 193.601 87.4263 187.711 95.4263 187.441C103.426 187.171 111.216 191.171 112.166 193.741C113.116 196.321 109.526 198.081 106.946 195.771C104.366 193.471 101.346 188.171 95.4964 188.051C91.3564 187.971 90.3363 191.581 89.9563 192.761C89.2563 194.931 87.3663 196.141 86.0863 195.271H86.0763Z" fill="white" stroke="#502823" stroke-width="2.5" stroke-linecap="round" stroke-linejoin="round"/>
<path d="M90.1758 192.141C90.9958 190.131 91.5658 186.881 95.3158 186.881C99.1358 186.881 102.216 190.751 104.686 193.391" fill="#FDEDF1"/>
<path d="M90.1758 192.141C90.9958 190.131 91.5658 186.881 95.3158 186.881C99.1358 186.881 102.216 190.751 104.686 193.391" stroke="#502823" stroke-width="2.5" stroke-linecap="round" stroke-linejoin="round"/>
<path d="M108.178 135.761C109.018 139.241 114.678 140.871 120.168 139.941" stroke="#502823" stroke-width="2.5" stroke-linecap="round" stroke-linejoin="round"/>
<path d="M99.898 130.991C98.198 133.591 98.738 136.671 100.438 138.181" stroke="#502823" stroke-width="2.5" stroke-linecap="round" stroke-linejoin="round"/>
<path d="M82.0474 136.841C80.6674 140.581 75.9474 142.311 71.3574 142.001" stroke="#502823" stroke-width="2.5" stroke-linecap="round" stroke-linejoin="round"/>
<path d="M87.5867 175.221C87.5167 173.731 88.7667 172.571 93.8267 172.331C98.8867 172.091 100.247 173.291 100.307 174.611C100.367 175.931 97.0668 178.801 94.1368 178.941C91.2068 179.081 87.6567 176.711 87.5867 175.221Z" fill="#FF73A2" stroke="#502823" stroke-width="2.5" stroke-linecap="round" stroke-linejoin="round"/>
<path d="M183.827 92.311C187.677 100.481 185.217 105.761 181.097 106.301C176.187 106.941 173.987 102.171 173.807 96.1111" fill="white"/>
<path d="M183.827 92.311C187.677 100.481 185.217 105.761 181.097 106.301C176.187 106.941 173.987 102.171 173.807 96.1111" stroke="#4F2A1A" stroke-width="2.5" stroke-linecap="round" stroke-linejoin="round"/>
<path d="M206.716 130.111C210.666 138.181 207.916 144.411 203.756 144.531C198.806 144.681 197.096 139.721 197.516 133.661" fill="white"/>
<path d="M206.716 130.111C210.666 138.181 207.916 144.411 203.756 144.531C198.806 144.681 197.096 139.721 197.516 133.661" stroke="#4F2A1A" stroke-width="2.5" stroke-linecap="round" stroke-linejoin="round"/>
</svg>
