<svg width="270" height="431" viewBox="0 0 270 431" fill="none" xmlns="http://www.w3.org/2000/svg">
<path d="M140.855 309.466C139.665 301.946 144.735 295.676 152.225 295.416C159.575 295.166 166.555 300.786 168.095 308.086H168.125L176.455 345.416L177.685 351.236C179.075 359.446 173.535 366.326 165.365 366.606C157.195 366.886 149.455 360.456 148.065 352.256C147.695 350.086 147.335 347.966 146.995 345.926C144.635 331.966 140.835 309.476 140.835 309.476H140.845L140.855 309.466Z" fill="#FF73A2" stroke="#512921" stroke-width="2.5" stroke-linecap="round" stroke-linejoin="round"/>
<path d="M149.504 352.436C148.154 344.226 152.664 338.536 160.834 338.296C169.004 338.056 174.944 344.376 176.484 351.326L176.614 351.796L184.334 382.566C184.444 382.996 184.534 383.426 184.604 383.856C186.014 392.456 155.004 393.366 153.594 384.776C153.554 384.536 153.524 384.306 153.494 384.066C153.494 384.066 153.484 384.066 153.474 384.066C151.754 373.616 151.154 362.536 149.494 352.436H149.504Z" fill="#FF73A2"/>
<path d="M177.555 350.466L184.335 382.556C184.445 382.986 184.535 383.416 184.605 383.846C186.015 392.446 155.005 393.356 153.595 384.766C153.555 384.526 153.525 384.296 153.495 384.056C153.495 384.056 153.485 384.056 153.475 384.056C151.755 373.606 149.465 360.616 147.805 350.506" stroke="#512921" stroke-width="2.5" stroke-linecap="round" stroke-linejoin="round"/>
<path d="M181.495 425.896C176.415 426.996 162.545 427.386 159.875 421.996C158.885 418.676 157.725 409.946 157.725 409.946L153.475 384.066C157.955 384.446 164.085 384.826 169.495 384.666C175.385 384.496 180.855 383.546 184.375 382.786L188.005 400.376C187.815 400.406 190.675 413.506 191.555 417.876C192.135 420.756 191.085 423.826 181.485 425.896H181.495Z" fill="#FFEBF0" stroke="#512921" stroke-width="2.5" stroke-linecap="round" stroke-linejoin="round"/>
<path d="M185.695 402.156C185.695 402.156 188.865 401.326 191.725 400.916C191.915 400.886 192.105 400.866 192.305 400.846C192.305 400.846 199.585 400.416 204.685 405.966C209.515 411.216 209.325 422.766 205.775 426.766C202.455 430.516 166.235 428.926 163.605 427.796C160.825 426.596 160.355 422.836 160.365 419.086L161.885 411.226C166.065 406.946 185.695 402.156 185.695 402.156Z" fill="#FFEBF0"/>
<path d="M185.696 402.156C185.696 402.156 188.866 401.326 191.726 400.916C191.916 400.886 192.106 400.866 192.306 400.846C192.306 400.846 199.586 400.416 204.686 405.966C209.516 411.216 209.326 422.766 205.776 426.766C202.456 430.516 166.236 428.926 163.606 427.796C160.826 426.596 159.876 422.916 159.176 419.076" stroke="#512921" stroke-width="2.5" stroke-linecap="round" stroke-linejoin="round"/>
<path d="M153.006 306.866C170.696 362.576 210.006 386.816 240.896 372.926C255.076 365.916 253.486 343.976 234.096 347.676C211.306 358.986 188.816 343.406 173.406 298.426C169.896 288.186 162.856 273.196 139.996 280.226" fill="#FF73A2"/>
<path d="M153.006 306.866C170.696 362.576 210.006 386.816 240.896 372.926C255.076 365.916 253.486 343.976 234.096 347.676C211.306 358.986 188.816 343.406 173.406 298.426C169.896 288.186 162.856 273.196 139.996 280.226" stroke="#512921" stroke-width="2.5" stroke-linecap="round" stroke-linejoin="round"/>
<path d="M248.675 334.436C244.005 340.936 242.105 344.216 234.105 347.676C244.575 347.336 249.645 364.466 240.905 372.926C257.115 366.826 267.245 354.086 268.425 343.876C269.085 338.126 267.735 332.446 262.215 329.956C258.075 328.086 252.745 328.786 248.685 334.436H248.675Z" fill="#FFEBF0" stroke="#512921" stroke-width="2.5" stroke-linecap="round" stroke-linejoin="round"/>
<path d="M133.456 313.556C133.376 306.036 127.256 299.966 119.716 299.966C112.176 299.966 106.306 305.796 105.986 313.116H105.956L103.936 344.906L103.686 350.736C103.686 358.946 110.376 365.606 118.596 365.606C126.816 365.606 133.466 358.946 133.466 350.736V313.556H133.456Z" fill="#FF73A2" stroke="#512921" stroke-width="2.5" stroke-linecap="round" stroke-linejoin="round"/>
<path d="M132.067 350.966C132.027 342.756 126.567 337.246 118.357 337.286C110.147 337.326 105.287 343.816 104.917 350.776L104.857 351.246L102.337 382.126C102.307 382.556 102.287 382.986 102.287 383.426C102.327 392.026 133.477 391.886 133.437 383.286C133.437 383.046 133.437 382.816 133.417 382.586C133.417 382.586 133.427 382.586 133.437 382.586C133.387 372.126 132.117 361.096 132.077 350.986L132.067 350.966Z" fill="#FF73A2"/>
<path d="M103.697 349.966L102.337 382.126C102.307 382.556 102.287 382.986 102.287 383.426C102.327 392.026 133.477 391.886 133.437 383.286C133.437 383.046 133.437 382.816 133.417 382.586C133.417 382.586 133.427 382.586 133.437 382.586C133.387 372.126 133.487 359.126 133.437 349.016" stroke="#512921" stroke-width="2.5" stroke-linecap="round" stroke-linejoin="round"/>
<path d="M112.486 425.136C117.746 426.056 131.676 425.976 133.436 420.516C133.866 417.186 133.556 408.456 133.556 408.456L133.436 382.566C129.026 383.096 122.966 383.676 117.526 383.706C111.616 383.736 105.976 382.976 102.336 382.346L101.676 399.966C101.866 399.986 101.226 413.116 101.086 417.496C100.986 420.386 102.566 423.396 112.506 425.126L112.486 425.136Z" fill="#FFEBF0" stroke="#512921" stroke-width="2.5" stroke-linecap="round" stroke-linejoin="round"/>
<path d="M108.276 401.286C108.276 401.286 105.106 400.456 102.246 400.046C102.056 400.016 101.866 399.996 101.666 399.976C101.666 399.976 94.3865 399.546 89.2865 405.096C84.4565 410.346 84.6464 421.896 88.1964 425.896C91.5164 429.646 127.736 428.056 130.366 426.926C133.146 425.726 133.616 421.966 133.606 418.216L132.086 410.356C127.906 406.076 108.276 401.286 108.276 401.286Z" fill="#FFEBF0"/>
<path d="M108.276 401.286C108.276 401.286 105.106 400.456 102.246 400.046C102.056 400.016 101.866 399.996 101.666 399.976C101.666 399.976 94.3865 399.546 89.2865 405.096C84.4565 410.346 84.6464 421.896 88.1964 425.896C91.5164 429.646 127.736 428.056 130.366 426.926C133.146 425.726 133.616 421.966 133.606 418.216L133.576 411.516" stroke="#512921" stroke-width="2.5" stroke-linecap="round" stroke-linejoin="round"/>
<path d="M171.736 283.656C171.026 281.426 168.066 267.976 168.066 267.976C168.066 267.976 153.036 269.066 133.696 269.066C114.356 269.066 99.3259 267.976 99.3259 267.976C99.3259 267.976 96.1159 281.386 95.3959 283.616C94.7259 285.926 93.7659 289.056 93.0559 291.976C92.3659 294.786 91.9059 297.406 92.5259 299.136C97.0159 311.616 117.576 314.406 133.706 314.406C149.836 314.406 170.146 311.656 174.626 299.176C175.896 295.656 173.056 288.196 171.746 283.656H171.736Z" fill="#AAA0FF" stroke="#512921" stroke-width="2.5" stroke-linecap="round" stroke-linejoin="round"/>
<path d="M132.686 297.336C132.686 285.906 124.446 277.346 113.016 277.346C103.826 277.346 97.4259 282.906 94.7259 291.196C94.7259 291.196 94.7259 291.216 94.7159 291.246C94.5459 291.756 94.4059 292.276 94.2759 292.806C92.1959 300.256 82.1659 330.916 78.6859 341.426C77.8059 344.076 87.9659 347.726 101.216 349.316C111.516 350.556 134.216 351.906 134.076 349.916L132.696 297.336H132.686Z" fill="#AAA0FF"/>
<path d="M92.6059 294.256C92.6059 294.256 82.6559 329.456 78.6859 341.426C77.8059 344.076 87.9659 347.726 101.216 349.316C111.516 350.556 134.216 351.906 134.076 349.916V304.616" stroke="#512921" stroke-width="2.5" stroke-linecap="round" stroke-linejoin="round"/>
<path d="M134.596 297.336C134.596 285.906 142.836 277.346 154.266 277.346C163.456 277.346 169.856 282.906 172.556 291.196C172.556 291.196 172.556 291.216 172.566 291.246C172.736 291.756 172.876 292.276 173.006 292.806C175.086 300.256 185.116 330.916 188.596 341.426C189.476 344.076 179.316 347.726 166.066 349.316C155.766 350.556 133.066 351.906 133.206 349.916L134.586 297.336H134.596Z" fill="#AAA0FF"/>
<path d="M174.686 294.256C174.686 294.256 184.636 329.456 188.606 341.426C189.486 344.076 179.325 347.726 166.075 349.316C155.775 350.556 133.075 351.906 133.215 349.916V304.616" stroke="#512921" stroke-width="2.5" stroke-linecap="round" stroke-linejoin="round"/>
<path d="M125.965 303.126C131.495 305.246 135.585 304.946 141.485 303.126" stroke="#512921" stroke-width="2.5" stroke-linecap="round" stroke-linejoin="round"/>
<path d="M106.816 278.436C106.816 278.436 111.556 285.246 135.306 285.246C156.796 285.246 164.646 278.436 164.646 278.436" stroke="#512921" stroke-width="2.5" stroke-linecap="round" stroke-linejoin="round"/>
<path d="M174.465 266.216C172.905 272.856 158.835 280.346 133.725 280.346C108.615 280.346 98.2551 272.526 92.7451 267.806C89.1951 264.766 106.375 209.406 110.845 204.746C114.435 201.006 151.775 200.826 155.245 204.606C162.285 212.286 175.595 261.456 174.485 266.226L174.465 266.216Z" fill="white"/>
<path d="M162.506 219.716C168.906 237.136 175.456 262.876 174.476 266.206C172.586 272.586 158.846 280.336 133.736 280.336C108.626 280.336 96.1858 272.256 92.7558 267.796C90.7658 265.206 98.2258 237.676 104.416 219.766" stroke="#512921" stroke-width="2.5" stroke-linecap="round" stroke-linejoin="round"/>
<path d="M133.726 255.596C145.81 255.596 155.606 246.906 155.606 236.186C155.606 225.466 145.81 216.776 133.726 216.776C121.642 216.776 111.846 225.466 111.846 236.186C111.846 246.906 121.642 255.596 133.726 255.596Z" fill="#AAA0FF"/>
<path d="M151.085 236.186C150.765 236.186 150.445 236.086 150.195 235.876C150.145 235.836 144.905 231.646 133.725 231.646C123.685 231.646 117.175 235.736 117.115 235.776C116.535 236.146 115.725 236.036 115.315 235.516C114.895 235.006 115.025 234.286 115.605 233.916C115.895 233.726 122.815 229.346 133.735 229.346C146.015 229.346 151.735 234.006 151.975 234.196C152.495 234.626 152.525 235.356 152.035 235.816C151.785 236.056 151.435 236.176 151.095 236.176L151.085 236.186Z" fill="white"/>
<path d="M135.725 243.886V255.516C135.065 255.576 134.395 255.596 133.715 255.596C133.035 255.596 132.365 255.566 131.705 255.516V243.886C131.705 243.726 131.875 243.606 132.075 243.606H135.345C135.545 243.606 135.715 243.736 135.715 243.886H135.725Z" fill="white"/>
<path d="M133.725 245.906C137.188 245.906 139.995 243.529 139.995 240.596C139.995 237.663 137.188 235.286 133.725 235.286C130.262 235.286 127.455 237.663 127.455 240.596C127.455 243.529 130.262 245.906 133.725 245.906Z" fill="white"/>
<path d="M133.726 206.646C142.038 206.646 148.776 201.833 148.776 195.896C148.776 189.959 142.038 185.146 133.726 185.146C125.414 185.146 118.676 189.959 118.676 195.896C118.676 201.833 125.414 206.646 133.726 206.646Z" fill="#FF73A2" stroke="#512921" stroke-width="2.5" stroke-linecap="round" stroke-linejoin="round"/>
<path d="M192.666 263.306C187.936 231.176 175.496 204.926 168.056 202.166C163.336 200.396 162.196 206.286 162.946 211.606C164.126 219.276 168.286 240.426 168.726 263.326C168.706 263.846 168.726 264.366 168.756 264.876C168.756 264.926 168.756 264.976 168.756 265.026H168.766C169.276 270.526 173.246 275.446 178.836 276.656C185.356 278.066 191.726 273.886 192.746 267.316C192.956 265.966 192.906 264.616 192.656 263.316L192.666 263.306Z" fill="#FF73A2"/>
<path d="M192.666 263.306C187.936 231.176 175.496 204.926 168.056 202.166C163.336 200.396 162.196 206.286 162.946 211.606C164.126 219.276 168.286 240.426 168.726 263.326C168.706 263.846 168.726 264.366 168.756 264.876C168.756 264.926 168.756 264.976 168.756 265.026H168.766C169.276 270.526 173.246 275.446 178.836 276.656C185.356 278.066 191.726 273.886 192.746 267.316C192.956 265.966 192.906 264.616 192.656 263.316L192.666 263.306Z" stroke="#512921" stroke-width="2.5" stroke-linecap="round" stroke-linejoin="round"/>
<path d="M195.145 293.936C195.145 293.936 195.145 293.886 195.145 293.866C195.015 283.876 193.105 274.056 191.695 264.446C191.075 259.066 187.945 255.046 182.345 253.866C175.655 252.456 170.815 255.986 169.955 262.546C169.825 263.496 169.825 264.436 169.905 265.366C169.905 265.516 169.915 265.676 169.925 265.826C170.075 275.746 168.535 285.096 167.595 294.456C167.595 294.506 167.585 294.556 167.575 294.606C167.585 294.606 167.605 294.606 167.615 294.606C167.065 301.306 171.015 307.426 177.555 308.876C184.815 310.486 192.675 305.706 194.695 298.176C195.075 296.746 195.215 295.316 195.145 293.936Z" fill="#FF73A2"/>
<path d="M168.755 265.646C168.915 275.566 168.545 285.086 167.595 294.446C167.595 294.496 167.585 294.546 167.575 294.596C167.585 294.596 167.605 294.596 167.615 294.596C167.065 301.296 171.015 307.416 177.555 308.866C184.815 310.476 192.675 305.696 194.695 298.166C195.075 296.736 195.215 295.306 195.145 293.926C195.145 293.906 195.145 293.876 195.145 293.856C195.015 283.866 194.225 273.916 192.815 264.296" stroke="#512921" stroke-width="2.5" stroke-linecap="round" stroke-linejoin="round"/>
<path d="M167.505 294.296C167.315 296.186 167.105 298.116 166.875 300.066C164.455 319.266 168.745 325.266 177.805 326.086C187.075 326.936 193.675 319.926 194.815 302.536C194.985 299.586 195.065 296.626 195.065 293.696C186.405 297.166 176.725 297.236 167.505 294.286V294.296Z" fill="#FFEBF0" stroke="#512921" stroke-width="2.5" stroke-linecap="round" stroke-linejoin="round"/>
<path d="M152.377 209.776C158.147 202.626 163.917 200.886 169.677 202.616C182.257 206.386 202.067 259.556 202.357 263.236C203.277 275.066 161.637 281.556 161.997 274.456C162.357 267.356 157.437 235.696 152.227 221.876" fill="white"/>
<path d="M152.377 209.776C158.147 202.626 163.917 200.886 169.677 202.616C182.257 206.386 202.067 259.556 202.357 263.236C203.277 275.066 161.637 281.556 161.997 274.456C162.357 267.356 157.437 235.696 152.227 221.876" stroke="#512921" stroke-width="2.5" stroke-linecap="round" stroke-linejoin="round"/>
<path d="M91.5765 270.386C88.5165 238.056 94.3365 209.596 100.917 205.146C105.077 202.306 107.587 207.756 108.127 213.096C108.807 220.826 109.807 242.356 114.837 264.696C114.977 265.196 115.087 265.706 115.177 266.206C115.187 266.256 115.197 266.296 115.207 266.346H115.197C116.007 271.816 113.327 277.536 108.187 280.046C102.197 282.966 95.0065 280.426 92.4565 274.286C91.9265 273.026 91.6565 271.706 91.5965 270.386H91.5765Z" fill="#FF73A2"/>
<path d="M91.5765 270.386C88.5165 238.056 94.3365 209.596 100.917 205.146C105.077 202.306 107.587 207.756 108.127 213.096C108.807 220.826 109.807 242.356 114.837 264.696C114.977 265.196 115.087 265.706 115.177 266.206C115.187 266.256 115.197 266.296 115.207 266.346H115.197C116.007 271.816 113.327 277.536 108.187 280.046C102.197 282.966 95.0065 280.426 92.4565 274.286C91.9265 273.026 91.6565 271.706 91.5965 270.386H91.5765Z" stroke="#512921" stroke-width="2.5" stroke-linecap="round" stroke-linejoin="round"/>
<path d="M96.4652 300.726C96.4652 300.726 96.4552 300.686 96.4452 300.656C94.1952 290.916 93.7052 280.936 92.7852 271.256C92.1052 265.876 94.1852 261.236 99.3452 258.746C105.505 255.786 111.045 258.056 113.445 264.226C113.795 265.116 114.025 266.036 114.165 266.956C114.195 267.106 114.225 267.256 114.255 267.406C116.475 277.076 120.195 285.786 123.335 294.656C123.355 294.706 123.365 294.746 123.385 294.796C123.375 294.796 123.355 294.796 123.345 294.796C125.475 301.176 123.095 308.056 117.095 311.026C110.435 314.316 101.665 311.556 97.8952 304.726C97.1852 303.426 96.7052 302.076 96.4452 300.716L96.4652 300.726Z" fill="#FF73A2"/>
<path d="M115.356 266.966C117.566 276.636 120.196 285.796 123.346 294.666C123.366 294.716 123.376 294.756 123.396 294.806C123.386 294.806 123.366 294.806 123.356 294.806C125.486 301.186 123.106 308.066 117.106 311.036C110.446 314.326 101.676 311.566 97.906 304.736C97.196 303.436 96.716 302.086 96.456 300.726C96.456 300.706 96.446 300.686 96.436 300.656C94.186 290.916 92.576 281.066 91.666 271.396" stroke="#512921" stroke-width="2.5" stroke-linecap="round" stroke-linejoin="round"/>
<path d="M123.396 294.496C124.036 296.286 124.696 298.106 125.376 299.946C132.296 318.016 129.566 324.866 120.966 327.826C112.166 330.856 104.086 325.626 98.8363 309.006C97.9663 306.176 97.1863 303.326 96.4863 300.486C105.726 301.786 115.146 299.556 123.386 294.496H123.396Z" fill="#FFEBF0" stroke="#512921" stroke-width="2.5" stroke-linecap="round" stroke-linejoin="round"/>
<path d="M110.935 206.646C106.355 202.836 99.2153 202.396 94.3353 205.906C83.6753 213.576 82.3053 270.296 83.2353 273.866C86.2253 285.346 129.865 280.296 127.445 272.446C125.835 267.206 117.785 238.076 115.325 223.126" fill="white"/>
<path d="M110.935 206.646C106.355 202.836 99.2153 202.396 94.3353 205.906C83.6753 213.576 82.3053 270.296 83.2353 273.866C86.2253 285.346 129.865 280.296 127.445 272.446C125.835 267.206 117.785 238.076 115.325 223.126" stroke="#512921" stroke-width="2.5" stroke-linecap="round" stroke-linejoin="round"/>
<path d="M57.3457 142.426C57.3457 142.426 26.7157 110.486 8.97567 68.386C-8.77433 26.286 8.54568 29.126 16.4257 30.846C29.0857 33.616 81.1157 42.546 81.1157 42.546C92.7257 43.706 105.286 49.396 105.286 49.396" fill="#FF73A2"/>
<path d="M57.3457 142.426C57.3457 142.426 26.7157 110.486 8.97567 68.386C-8.77433 26.286 8.54568 29.126 16.4257 30.846C29.0857 33.616 81.1157 42.546 81.1157 42.546C92.7257 43.706 105.286 49.396 105.286 49.396" stroke="#50281E" stroke-width="2.5" stroke-linecap="round" stroke-linejoin="round"/>
<path d="M21.4766 56.5459C29.5866 86.8059 63.2966 114.446 63.2966 114.446L72.5865 79.9759" fill="#FDEDF1"/>
<path d="M21.4766 56.5459C29.5866 86.8059 63.2966 114.446 63.2966 114.446L72.5865 79.9759" stroke="#50281E" stroke-width="2.5" stroke-linecap="round" stroke-linejoin="round"/>
<path d="M18.625 54.5161C18.625 54.5161 50.345 76.8761 73.745 80.4761L18.625 54.5161Z" fill="#FF73A2"/>
<path d="M18.625 54.5161C18.625 54.5161 50.345 76.8761 73.745 80.4761" stroke="#50281E" stroke-width="2.5" stroke-linecap="round" stroke-linejoin="round"/>
<path d="M242.656 147.376C230.006 179.406 203.076 196.946 171.266 205.566C147.436 212.026 124.346 214.526 99.9857 211.896C90.4157 210.866 78.0058 207.386 68.5658 203.816C54.6558 198.546 35.3357 182.056 26.9057 161.566C25.8257 158.936 25.2257 156.126 24.8557 153.306C24.8357 153.126 25.9157 151.266 26.7657 149.166C28.9057 143.896 31.6658 127.436 32.9358 122.956C41.3358 93.1158 60.2158 47.3158 125.496 43.6058C187.416 40.1058 215.956 83.5558 223.436 103.226C226.746 111.936 233.886 128.606 239.566 137.406C242.086 141.306 243.066 140.846 243.536 142.346C243.916 143.556 243.256 145.826 242.646 147.376H242.656Z" fill="#FF73A2" stroke="#50281E" stroke-width="2.5" stroke-linecap="round" stroke-linejoin="round"/>
<path d="M189.856 149.126C164.486 120.446 111.706 120.636 111.706 120.636L103.866 102.986C97.4963 108.906 91.0663 121.306 91.0663 121.306C52.4863 133.106 46.4963 151.346 46.4963 151.346C44.0663 185.136 68.4663 198.036 68.4663 198.036C69.5363 201.666 72.5163 205.186 72.5463 205.236C81.3163 208.266 91.7163 210.996 99.9963 211.886C124.356 214.516 147.446 212.016 171.276 205.556C168.766 203.136 167.186 199.536 167.186 199.536C199.396 178.636 189.866 149.106 189.866 149.106L189.856 149.126Z" fill="#FDEDF1" stroke="#50281E" stroke-width="2.5" stroke-linecap="round" stroke-linejoin="round"/>
<path d="M224.965 124.996C242.825 91.286 243.925 48.026 242.335 29.006C240.635 8.75596 234.755 -6.32403 218.535 5.30597C196.095 21.406 168.695 36.766 154.065 42.136L144.625 45.596" fill="#FF73A2"/>
<path d="M224.965 124.996C242.825 91.286 243.925 48.026 242.335 29.006C240.635 8.75596 234.755 -6.32403 218.535 5.30597C196.095 21.406 168.695 36.766 154.065 42.136L144.625 45.596" stroke="#50281E" stroke-width="2.5" stroke-linecap="round" stroke-linejoin="round"/>
<path d="M218.694 34.0962C228.214 76.5962 214.594 109.336 213.284 106.946C195.464 74.4362 175.564 71.5962 175.564 71.5962" fill="#FDEDF1"/>
<path d="M218.694 34.0962C228.214 76.5962 214.594 109.336 213.284 106.946C195.464 74.4362 175.564 71.5962 175.564 71.5962" stroke="#50281E" stroke-width="2.5" stroke-linecap="round" stroke-linejoin="round"/>
<path d="M172.125 72.8861C184.965 65.2861 207.445 46.8462 221.915 28.5562L172.125 72.8861Z" fill="#FF73A2"/>
<path d="M172.125 72.8861C184.965 65.2861 207.445 46.8462 221.915 28.5562" stroke="#50281E" stroke-width="2.5" stroke-linecap="round" stroke-linejoin="round"/>
<path d="M98.7461 190.466C100.756 192.596 105.676 192.886 108.556 188.896C111.346 192.546 122.816 193.486 123.646 186.906" stroke="#50281E" stroke-width="2.5" stroke-linecap="round" stroke-linejoin="round"/>
<path d="M101.206 180.346C101.286 178.866 102.736 177.716 106.666 177.586C112.636 177.386 113.416 178.616 113.456 179.936C113.516 181.646 110.626 183.796 107.306 184.346C104.386 184.836 101.086 182.436 101.206 180.346Z" fill="#FF73A2" stroke="#50281E" stroke-width="2.5" stroke-linecap="round" stroke-linejoin="round"/>
<path d="M78.5352 154.656C80.7652 154.146 86.3651 151.636 85.9551 148.866" stroke="#50281E" stroke-width="2.5" stroke-linecap="round" stroke-linejoin="round"/>
<path d="M140.756 151.756C137.806 151.016 131.286 150.366 131.186 146.606" stroke="#50281E" stroke-width="2.5" stroke-linecap="round" stroke-linejoin="round"/>
<path d="M165.335 169.906C148.905 177.106 133.635 176.426 127.295 175.386" stroke="#512921" stroke-width="3.5" stroke-linecap="round" stroke-linejoin="round"/>
<path d="M127.115 175.416C132.725 178.396 151.655 179.676 164.615 172.546" stroke="#512921" stroke-width="3.5" stroke-linecap="round" stroke-linejoin="round"/>
<path d="M160.346 176.226C164.076 181.066 168.746 181.086 168.746 181.086" stroke="#512921" stroke-width="2.5" stroke-linecap="round" stroke-linejoin="round"/>
<path d="M61.8066 171.716C75.3166 178.106 87.3466 177.356 92.2866 176.356" stroke="#512921" stroke-width="3.5" stroke-linecap="round" stroke-linejoin="round"/>
<path d="M92.436 176.366C88.216 179.126 70.266 179.816 62.666 175.106" stroke="#512921" stroke-width="3.5" stroke-linecap="round" stroke-linejoin="round"/>
<path d="M66.206 177.416C63.606 181.856 59.916 181.906 59.916 181.906" stroke="#512921" stroke-width="2.5" stroke-linecap="round" stroke-linejoin="round"/>
<path d="M108.546 188.896C107.556 190.266 106.336 191.126 105.066 191.586C108.686 195.306 111.066 200.456 115.506 200.346C118.906 200.256 119.866 195.246 119.206 191.406C115.406 192.406 110.286 191.176 108.546 188.906V188.896Z" fill="#EB5555" stroke="#512921" stroke-width="2.5" stroke-linecap="round" stroke-linejoin="round"/>
<path d="M169.085 146.796C165.295 162.416 181.545 162.416 176.205 146.296L169.085 146.796Z" fill="white"/>
<path d="M169.085 146.796C165.295 162.416 181.545 162.416 176.205 146.296" stroke="#50281E" stroke-width="2.5" stroke-linecap="round" stroke-linejoin="round"/>
</svg>
