<svg width="303" height="419" viewBox="0 0 303 419" fill="none" xmlns="http://www.w3.org/2000/svg">
<path d="M124.685 329.131L126.415 404.651C126.545 410.181 122.155 414.771 116.625 414.901C111.455 415.021 107.105 411.151 106.455 406.131L97.0248 331.181C96.0648 323.571 101.455 316.631 109.065 315.671C116.675 314.711 123.615 320.101 124.575 327.711C124.635 328.181 124.665 328.661 124.675 329.121L124.685 329.131Z" fill="#FF73A2" stroke="#50281E" stroke-width="2.5" stroke-linecap="round" stroke-linejoin="round"/>
<path d="M125.845 379.491C107.885 388.951 103.105 379.491 103.105 379.491L106.455 406.131C107.105 411.151 111.455 415.021 116.625 414.901C122.155 414.771 126.546 410.181 126.416 404.651L125.835 379.491H125.845Z" fill="#FDEDF1" stroke="#50281E" stroke-width="2.5" stroke-linecap="round" stroke-linejoin="round"/>
<path d="M125.346 399.531C125.346 401.561 127.276 404.991 127.276 408.401C127.276 414.591 120.586 416.881 113.586 416.881C106.586 416.881 101.936 414.591 101.936 408.401C101.936 405.001 103.646 401.961 106.346 399.901" fill="#FDEDF1"/>
<path d="M125.346 399.531C125.346 401.561 127.276 404.991 127.276 408.401C127.276 414.591 120.586 416.881 113.586 416.881C106.586 416.881 101.936 414.591 101.936 408.401C101.936 405.001 103.646 401.961 106.346 399.901" stroke="#50281E" stroke-width="2.5" stroke-linecap="round" stroke-linejoin="round"/>
<path d="M124.785 329.511L125.115 405.051C125.135 410.591 129.645 415.051 135.185 415.031C140.355 415.011 144.605 411.021 145.115 405.991L152.485 330.811C153.235 323.181 147.655 316.381 140.025 315.641C132.395 314.891 125.595 320.471 124.855 328.101C124.805 328.571 124.785 329.051 124.785 329.521V329.511Z" fill="#FF73A2" stroke="#50281E" stroke-width="2.5" stroke-linecap="round" stroke-linejoin="round"/>
<path d="M125.006 379.881C143.216 388.841 147.736 379.261 147.736 379.261L145.116 405.981C144.606 411.011 140.356 415.001 135.186 415.021C129.646 415.041 125.146 410.582 125.116 405.042L125.006 379.871V379.881Z" fill="#FDEDF1" stroke="#50281E" stroke-width="2.5" stroke-linecap="round" stroke-linejoin="round"/>
<path d="M125.246 399.531C125.246 401.561 125.006 405.311 125.006 408.721C125.006 414.911 130.006 416.881 136.996 416.881C143.986 416.881 148.646 414.591 148.646 408.401C148.646 405.001 146.936 401.961 144.236 399.901" fill="#FDEDF1"/>
<path d="M125.246 399.531C125.246 401.561 125.006 405.311 125.006 408.721C125.006 414.911 130.006 416.881 136.996 416.881C143.986 416.881 148.646 414.591 148.646 408.401C148.646 405.001 146.936 401.961 144.236 399.901" stroke="#50281E" stroke-width="2.5" stroke-linecap="round" stroke-linejoin="round"/>
<path d="M177.706 286.181C155.146 267.871 137.136 251.121 138.366 244.721C139.136 240.681 145.196 241.561 149.596 243.841C155.966 247.141 172.446 257.381 190.096 268.211C190.516 268.431 190.916 268.681 191.296 268.941C191.336 268.961 191.366 268.991 191.406 269.011C195.446 271.931 197.126 277.321 195.146 282.121C192.836 287.731 186.406 290.411 180.786 288.091C179.626 287.611 178.606 286.961 177.716 286.171L177.706 286.181Z" fill="#FF73A2"/>
<path d="M177.706 286.181C155.146 267.871 137.136 251.121 138.366 244.721C139.136 240.681 145.196 241.561 149.596 243.841C155.966 247.141 172.446 257.381 190.096 268.211C190.516 268.431 190.916 268.681 191.296 268.941C191.336 268.961 191.366 268.991 191.406 269.011C195.446 271.931 197.126 277.321 195.146 282.121C192.836 287.731 186.406 290.411 180.786 288.091C179.626 287.611 178.606 286.961 177.716 286.171L177.706 286.181Z" stroke="#512921" stroke-width="2.5" stroke-linecap="round" stroke-linejoin="round"/>
<path d="M199.496 303.341C199.496 303.341 199.466 303.311 199.446 303.301C192.266 297.781 185.876 291.461 179.096 285.971C175.216 283.031 173.606 278.951 175.546 274.231C177.856 268.621 183.226 266.461 188.846 268.771C189.656 269.101 190.396 269.531 191.076 270.021L191.426 270.241C199.086 274.941 206.886 278.471 214.176 282.821C214.216 282.841 214.256 282.871 214.296 282.891L214.276 282.921C219.426 286.121 221.666 292.661 219.276 298.451C216.616 304.901 209.236 307.971 202.786 305.311C201.566 304.811 200.456 304.131 199.496 303.321V303.341Z" fill="#FF73A2"/>
<path d="M191.896 269.302C199.556 274.002 206.886 278.491 214.176 282.841C214.216 282.861 214.256 282.891 214.296 282.911L214.276 282.941C219.426 286.141 221.666 292.682 219.276 298.472C216.616 304.922 209.236 307.992 202.786 305.332C201.566 304.832 200.456 304.152 199.496 303.342C199.476 303.332 199.466 303.311 199.446 303.301C192.266 297.781 185.186 292.231 178.416 286.751" stroke="#512921" stroke-width="2.5" stroke-linecap="round" stroke-linejoin="round"/>
<path d="M219.096 313.831C231.976 317.181 237.256 313.771 238.956 311.731C241.296 308.911 238.426 304.711 234.826 303.811C246.796 298.701 245.796 292.471 242.076 290.551C238.796 288.861 234.446 291.611 234.446 291.611C238.016 286.511 236.826 281.851 233.006 281.141C229.186 280.431 226.456 284.521 226.456 284.521C226.156 278.181 217.126 276.941 217.786 285.621C221.546 291.421 221.726 301.101 219.116 313.841L219.096 313.831Z" fill="#FFEBF0" stroke="#512921" stroke-width="2.5" stroke-linecap="round" stroke-linejoin="round"/>
<path d="M225.645 315.101C216.455 314.231 212.625 311.841 205.845 307.861C203.535 306.501 201.495 304.741 199.375 303.151C213.335 313.201 228.065 292.731 214.105 282.681C215.575 283.561 222.475 288.041 224.685 289.221" fill="#FFEBF0"/>
<path d="M225.645 315.101C216.455 314.231 212.625 311.841 205.845 307.861C203.535 306.501 201.495 304.741 199.375 303.151C213.335 313.201 228.065 292.731 214.105 282.681C215.575 283.561 222.475 288.041 224.685 289.221" stroke="#512921" stroke-width="2.5" stroke-linecap="round" stroke-linejoin="round"/>
<path d="M134.505 251.572C131.495 242.902 134.955 236.451 139.315 235.311C142.895 234.371 146.515 233.652 151.305 235.152C159.785 237.812 183.525 255.832 185.715 258.012C197.785 270.012 183.745 293.662 163.645 290.902C158.675 290.222 138.415 262.832 134.505 251.572Z" fill="white" stroke="#512921" stroke-width="2.5" stroke-linecap="round" stroke-linejoin="round"/>
<path d="M149.976 296.521C150.686 298.431 151.136 300.481 151.596 302.481C154.486 314.991 158.656 327.431 166.256 337.491C173.856 347.551 185.346 354.981 197.736 355.001C209.256 355.011 219.986 348.831 229.746 342.271C239.506 335.711 249.236 328.431 260.516 325.751C269.066 323.721 278.096 324.511 286.296 327.481C291.996 329.541 297.636 332.951 300.326 338.571C303.016 344.191 301.516 352.321 295.996 355.051C291.566 357.251 286.326 355.421 282.156 352.861C277.986 350.301 274.086 346.981 269.326 345.961C261.756 344.341 254.276 348.931 247.566 353.131C238.636 358.731 229.446 364.021 219.596 367.491C209.746 370.961 199.146 372.541 189.006 370.601C174.136 367.751 161.376 357.461 152.586 344.741C143.626 331.771 137.156 315.391 134.026 299.711C132.326 291.181 142.716 285.861 147.916 292.661C148.806 293.821 149.456 295.131 149.966 296.521H149.976Z" fill="#FF73A2" stroke="#50281E" stroke-width="2.5" stroke-linecap="round" stroke-linejoin="round"/>
<path d="M286.295 327.481C278.085 324.511 269.065 323.721 260.515 325.751C260.355 325.791 260.205 325.831 260.045 325.871C263.015 328.981 265.475 334.931 262.085 346.111C264.475 345.571 266.895 345.441 269.325 345.961C274.085 346.981 277.985 350.311 282.155 352.861C286.325 355.421 291.565 357.241 295.995 355.051C301.515 352.321 303.015 344.191 300.325 338.571C297.635 332.951 291.995 329.541 286.295 327.481Z" fill="#FDEDF1" stroke="#50281E" stroke-width="2.5" stroke-linecap="round" stroke-linejoin="round"/>
<path d="M154.046 301.951C153.496 299.721 151.216 286.271 151.216 286.271C151.216 286.271 139.626 287.361 124.696 287.361C109.766 287.361 98.176 286.271 98.176 286.271C98.176 286.271 95.696 299.681 95.146 301.911C94.636 304.221 93.886 307.351 93.336 310.271C92.806 313.081 92.446 315.701 92.926 317.431C96.386 329.911 112.256 332.701 124.696 332.701C137.136 332.701 152.806 329.951 156.266 317.471C157.246 313.951 155.056 306.491 154.046 301.951Z" fill="#AAA0FF" stroke="#512921" stroke-width="2.5" stroke-linecap="round" stroke-linejoin="round"/>
<path d="M154.046 301.941C154.046 301.941 159.406 323.371 161.966 334.981C166.266 354.501 128.046 358.651 124.336 347.551L124.616 322.991" fill="#AAA0FF"/>
<path d="M154.046 301.941C154.046 301.941 159.406 323.371 161.966 334.981C166.266 354.501 128.046 358.651 124.336 347.551L124.616 322.991" stroke="#512921" stroke-width="2.5" stroke-linecap="round" stroke-linejoin="round"/>
<path d="M95.1456 301.911C95.1456 301.911 89.7855 323.341 87.2255 334.951C82.9255 354.471 121.146 358.621 124.856 347.521L124.576 323.001" fill="#AAA0FF"/>
<path d="M95.1456 301.911C95.1456 301.911 89.7855 323.341 87.2255 334.951C82.9255 354.471 121.146 358.621 124.856 347.521L124.576 323.001" stroke="#512921" stroke-width="2.5" stroke-linecap="round" stroke-linejoin="round"/>
<path d="M118.727 320.681C122.997 322.801 126.147 322.501 130.697 320.681" stroke="#512921" stroke-width="2.5" stroke-linecap="round" stroke-linejoin="round"/>
<path d="M100.486 306.231C113.666 313.941 136.956 313.941 148.726 306.231" stroke="#512921" stroke-width="2.5" stroke-linecap="round" stroke-linejoin="round"/>
<path d="M155.816 294.421C152.226 303.071 138.676 307.051 125.996 307.381C118.276 307.491 101.026 305.611 94.6159 295.951C92.2559 295.061 89.086 271.461 88.676 254.921C88.496 247.461 92.1459 232.681 126.276 232.461C158.166 232.261 161.246 247.291 161.256 253.851C161.286 270.541 157.336 292.841 155.816 294.431V294.421Z" fill="white"/>
<path d="M138.977 232.492C139.017 237.662 132.707 241.941 124.887 242.001C117.057 242.071 110.757 237.882 110.847 232.702C110.937 227.522 117.257 223.382 124.977 223.332C132.677 223.282 138.947 227.362 138.987 232.492H138.977Z" fill="#FF73A2" stroke="#512921" stroke-width="2.5" stroke-linecap="round" stroke-linejoin="round"/>
<path d="M160.856 260.501C160.256 277.271 156.606 292.361 155.816 294.421C152.186 310.901 102.356 311.681 94.6158 295.951C93.4558 293.921 90.0759 278.511 89.2559 261.281" stroke="#512921" stroke-width="2.5" stroke-linecap="round" stroke-linejoin="round"/>
<path d="M145.705 280.521C143.325 288.851 134.345 294.431 125.205 294.561C116.035 294.681 107.115 289.321 104.855 281.021C101.935 270.271 110.805 258.801 125.515 258.661C140.185 258.511 148.785 269.761 145.705 280.531V280.521Z" fill="#AAA0FF"/>
<path d="M141.495 280.582C141.195 280.582 140.925 280.502 140.735 280.322C140.695 280.292 136.385 276.452 125.355 276.582C115.435 276.702 109.765 280.572 109.715 280.612C109.235 280.942 108.465 280.852 107.965 280.402C107.465 279.952 107.435 279.302 107.915 278.952C108.155 278.772 114.265 274.402 125.385 274.272C137.855 274.132 142.575 278.622 142.755 278.802C143.155 279.192 143.015 279.842 142.455 280.262C142.165 280.472 141.825 280.581 141.505 280.591L141.495 280.582Z" fill="white"/>
<path d="M126.975 286.921L126.715 294.491C126.215 294.531 125.705 294.551 125.195 294.561C124.685 294.571 124.175 294.561 123.675 294.531L123.545 286.961C123.545 286.841 123.685 286.751 123.855 286.751L126.665 286.711C126.835 286.711 126.975 286.801 126.975 286.921Z" fill="white"/>
<path d="M130.845 284.371C130.645 286.611 128.145 288.361 125.245 288.391C122.345 288.431 119.875 286.751 119.715 284.501C119.545 282.111 122.045 280.011 125.325 279.971C128.605 279.931 131.055 281.971 130.845 284.361V284.371Z" fill="white"/>
<path d="M59.4351 262.111C46.2451 281.751 95.2752 295.081 98.5552 279.331C105.175 247.531 75.5751 238.081 59.4351 262.111Z" fill="white" stroke="#512921" stroke-width="2.5" stroke-linecap="round" stroke-linejoin="round"/>
<path d="M92.6046 286.841C103.175 256.701 87.6746 230.511 81.4646 249.171C78.2846 258.711 75.0646 269.771 70.9146 279.161C64.2846 294.171 87.1346 302.451 92.6146 286.841H92.6046Z" fill="#FF73A2" stroke="#50281E" stroke-width="2.5" stroke-linecap="round" stroke-linejoin="round"/>
<path d="M92.6056 286.841C86.1956 301.261 69.1456 300.391 54.5156 291.121L81.9355 266.511" fill="#FF73A2"/>
<path d="M92.6056 286.841C86.1956 301.261 69.1456 300.391 54.5156 291.121L81.9355 266.511" stroke="#50281E" stroke-width="2.5" stroke-linecap="round" stroke-linejoin="round"/>
<path d="M212.035 6.49139C183.005 35.7414 151.555 54.1814 141.975 60.2614C140.535 61.0714 139.115 61.9314 137.745 62.8414C137.675 62.8914 137.625 62.9114 137.625 62.9114H137.635C119.845 74.8314 108.125 95.1114 108.125 118.121C108.125 154.801 137.845 184.531 174.525 184.531C202.495 184.531 226.405 167.231 236.185 142.761C256.145 98.2014 243.875 -25.5786 212.035 6.49139Z" fill="#FF73A2" stroke="#512921" stroke-width="2.5" stroke-linecap="round" stroke-linejoin="round"/>
<path d="M221.614 26.7715C221.614 26.7715 203.004 78.1415 196.994 83.7115C207.024 92.8115 222.814 113.131 225.354 118.411C231.214 110.541 235.834 42.2315 221.624 26.7815L221.614 26.7715Z" fill="#FFEBF0"/>
<path d="M224.065 16.3516C212.535 62.6516 185.295 106.432 185.295 106.432" stroke="#512921" stroke-width="2.5" stroke-linecap="round" stroke-linejoin="round"/>
<path d="M221.465 25.8813C228.075 29.3313 238.765 87.3814 223.055 124.481" stroke="#512921" stroke-width="2.5" stroke-linecap="round" stroke-linejoin="round"/>
<path d="M37.4355 6.49139C66.4655 35.7414 97.9155 54.1814 107.496 60.2614C108.936 61.0714 110.356 61.9314 111.726 62.8414C111.796 62.8914 111.846 62.9114 111.846 62.9114H111.836C129.626 74.8314 141.346 95.1114 141.346 118.121C141.346 154.801 111.625 184.531 74.9455 184.531C46.9755 184.531 23.0656 167.231 13.2856 142.761C-6.67442 98.2014 5.59548 -25.5786 37.4355 6.49139Z" fill="#FF73A2" stroke="#512921" stroke-width="2.5" stroke-linecap="round" stroke-linejoin="round"/>
<path d="M27.8555 26.7715C27.8555 26.7715 46.4655 78.1415 52.4755 83.7115C42.4455 92.8115 26.6555 113.131 24.1155 118.411C18.2555 110.541 13.5555 46.0415 27.8455 26.7815L27.8555 26.7715Z" fill="#FFEBF0"/>
<path d="M25.4062 16.3516C36.9362 62.6516 64.1763 106.432 64.1763 106.432" stroke="#512921" stroke-width="2.5" stroke-linecap="round" stroke-linejoin="round"/>
<path d="M28.005 25.8813C21.395 29.3313 10.7051 87.3814 26.4151 124.481" stroke="#512921" stroke-width="2.5" stroke-linecap="round" stroke-linejoin="round"/>
<path d="M124.736 54.7515C69.2356 54.7515 26.6456 86.8315 12.4056 147.871C10.4156 156.391 8.09559 161.451 3.12559 164.441C1.65559 165.321 0.915612 167.131 1.39561 168.841C13.9956 213.911 67.4256 238.971 124.736 238.971C182.046 238.971 235.476 213.901 248.076 168.841C248.556 167.131 247.816 165.311 246.346 164.441C241.376 161.451 239.056 156.401 237.066 147.871C222.826 86.8315 180.236 54.7515 124.736 54.7515Z" fill="#FF73A2"/>
<path d="M14.3756 140.231C13.6656 142.721 13.0056 145.271 12.4056 147.871C10.4156 156.391 8.09559 161.451 3.12559 164.441C1.65559 165.321 0.915612 167.131 1.39561 168.841C13.9956 213.911 67.4256 238.971 124.736 238.971C182.046 238.971 235.476 213.901 248.076 168.841C248.556 167.131 247.816 165.311 246.346 164.441C241.376 161.451 239.056 156.401 237.066 147.871C236.456 145.271 235.806 142.721 235.096 140.231" stroke="#512921" stroke-width="2.5" stroke-linecap="round" stroke-linejoin="round"/>
<path d="M228.546 121.791C209.426 77.7215 171.706 54.7515 124.736 54.7515C77.7657 54.7515 40.0358 77.7315 20.9258 121.791" stroke="#512921" stroke-width="2.5" stroke-linecap="round" stroke-linejoin="round"/>
<path d="M205.226 187.751C197.436 202.161 182.525 211.311 182.085 213.231C181.635 215.151 187.786 225.001 189.136 227.321C169.856 234.981 147.606 238.971 124.736 238.971C101.866 238.971 79.7555 235.001 60.5155 227.391C61.8455 225.111 63.8855 222.331 67.0655 214.381C67.2255 213.981 50.3056 203.821 42.9156 188.231C36.8256 175.391 35.4556 160.961 37.5456 154.651C37.9456 153.451 52.1556 123.981 109.926 114.971C110.736 114.861 111.546 114.751 112.366 114.631C113.546 112.291 123.366 91.7814 123.366 91.7814C123.646 91.1314 124.216 90.7814 124.806 90.7314C125.436 90.7514 126.055 91.1014 126.345 91.7914C126.345 91.7914 136.165 112.301 137.345 114.641C138.385 114.791 139.415 114.931 140.435 115.071C197.635 124.191 210.706 151.961 211.136 153.151C212.586 157.141 212.066 175.121 205.236 187.751H205.226Z" fill="#FFEBF0" stroke="#512921" stroke-width="2.5" stroke-linecap="round" stroke-linejoin="round"/>
<path d="M103.685 244.552C102.825 233.612 89.6453 229.092 80.7153 236.832C73.7053 242.912 63.9253 258.482 56.9453 266.522C70.0653 257.202 90.8353 263.972 95.4653 276.632C96.2053 278.641 97.7753 277.581 97.8553 278.971C99.9853 268.841 100.905 260.861 103.185 251.191" fill="white"/>
<path d="M98.5547 279.331C99.6447 270.711 100.485 265.421 101.765 256.671" stroke="#512921" stroke-width="2.5" stroke-linecap="round" stroke-linejoin="round"/>
<path d="M59.9453 267.612C72.4453 255.392 93.0153 266.272 95.4653 276.632" stroke="#512921" stroke-width="2.5" stroke-linecap="round" stroke-linejoin="round"/>
<path d="M103.685 244.552C103.685 234.972 90.7253 228.712 80.7153 236.832C73.7053 242.912 63.9253 258.482 56.9453 266.522" stroke="#512921" stroke-width="2.5" stroke-linecap="round" stroke-linejoin="round"/>
<path d="M112.846 193.591C116.286 194.191 120.656 192.981 124.206 188.841C127.946 193.191 132.736 194.261 136.306 193.311" stroke="#512921" stroke-width="2.5" stroke-linecap="round" stroke-linejoin="round"/>
<path d="M104.506 177.411C105.836 169.781 96.0659 150.571 79.5959 148.581C65.2659 146.851 59.2659 165.241 60.6959 173.661C61.4159 177.871 67.1459 186.421 77.8859 188.251C91.2359 190.531 103.546 182.941 104.506 177.401V177.411Z" fill="white" stroke="#512921" stroke-width="2.5" stroke-linecap="round" stroke-linejoin="round"/>
<path d="M61.4965 163.181C54.8665 161.301 52.8965 156.421 52.8965 156.421" stroke="#512921" stroke-width="2.5" stroke-linecap="round" stroke-linejoin="round"/>
<path d="M84.6413 188.7C92.9131 188.076 99.0892 180.56 98.436 171.914C97.7829 163.267 90.5478 156.765 82.2761 157.39C74.0043 158.014 67.8283 165.53 68.4815 174.176C69.1346 182.823 76.3696 189.325 84.6413 188.7Z" fill="#512921"/>
<path d="M74.7563 173.311C77.2527 173.311 79.2764 171.288 79.2764 168.791C79.2764 166.295 77.2527 164.271 74.7563 164.271C72.26 164.271 70.2363 166.295 70.2363 168.791C70.2363 171.288 72.26 173.311 74.7563 173.311Z" fill="white"/>
<path d="M145.146 177.411C143.816 169.781 153.586 150.571 170.056 148.581C184.386 146.851 190.386 165.241 188.956 173.661C188.236 177.871 182.506 186.421 171.766 188.251C158.416 190.531 146.106 182.941 145.146 177.401V177.411Z" fill="white" stroke="#512921" stroke-width="2.5" stroke-linecap="round" stroke-linejoin="round"/>
<path d="M188.156 163.181C194.786 161.301 196.756 156.421 196.756 156.421" stroke="#512921" stroke-width="2.5" stroke-linecap="round" stroke-linejoin="round"/>
<path d="M180.643 174.287C181.296 165.641 175.12 158.125 166.848 157.5C158.577 156.875 151.342 163.378 150.688 172.024C150.035 180.67 156.211 188.186 164.483 188.811C172.755 189.436 179.99 182.933 180.643 174.287Z" fill="#512921"/>
<path d="M157.417 173.311C159.913 173.311 161.936 171.288 161.936 168.791C161.936 166.295 159.913 164.271 157.417 164.271C154.92 164.271 152.896 166.295 152.896 168.791C152.896 171.288 154.92 173.311 157.417 173.311Z" fill="white"/>
<path d="M142.766 150.451C150.006 150.451 147.526 139.741 155.326 138.651" stroke="#512921" stroke-width="2.5" stroke-linecap="round" stroke-linejoin="round"/>
<path d="M107.076 150.451C99.8356 150.451 102.316 139.741 94.5156 138.651" stroke="#512921" stroke-width="2.5" stroke-linecap="round" stroke-linejoin="round"/>
<path d="M117.227 177.081C117.227 175.471 118.657 174.271 124.217 174.271C129.777 174.271 131.207 175.641 131.207 177.081C131.207 178.521 127.447 181.441 124.217 181.441C120.987 181.441 117.227 178.691 117.227 177.081Z" fill="#FF73A2" stroke="#512921" stroke-width="2.5" stroke-linecap="round" stroke-linejoin="round"/>
<path d="M81.3647 287.542C75.4846 294.202 63.0046 296.132 53.5946 290.872C40.8646 283.762 54.0346 265.632 60.5846 260.372C81.7446 243.372 97.9047 259.792 87.3947 280.282" fill="#FFEBF0"/>
<path d="M81.3647 287.542C75.4847 294.202 63.0046 296.132 53.5946 290.872C40.8646 283.762 54.0346 265.632 60.5846 260.372C81.7446 243.372 97.9047 259.792 87.3947 280.282" stroke="#512921" stroke-width="2.5" stroke-linecap="round" stroke-linejoin="round"/>
<path d="M64.8653 260.471C55.1853 249.061 43.8754 240.661 44.9054 232.241C45.9454 223.821 65.8554 219.711 76.6554 255.831" fill="#FFEBF0"/>
<path d="M64.8653 260.471C55.1853 249.061 43.8754 240.661 44.9054 232.241C45.9454 223.821 65.8554 219.711 76.6554 255.831" stroke="#512921" stroke-width="2.5" stroke-linecap="round" stroke-linejoin="round"/>
<path d="M50.0453 267.751C39.6653 262.251 45.7053 248.331 58.6253 251.481C75.7553 255.661 71.6253 271.791 62.0053 271.651" fill="#FFEBF0"/>
<path d="M50.0453 267.751C39.6653 262.251 45.7053 248.331 58.6253 251.481C75.7553 255.661 71.6253 271.791 62.0053 271.651" stroke="#512921" stroke-width="2.5" stroke-linecap="round" stroke-linejoin="round"/>
<path d="M53.585 290.871C35.165 281.261 39.635 262.341 55.075 264.971C76.685 268.661 65.705 290.631 53.185 280.371" fill="#FFEBF0"/>
<path d="M53.585 290.871C35.165 281.261 39.635 262.341 55.075 264.971C76.685 268.661 65.705 290.631 53.185 280.371" stroke="#512921" stroke-width="2.5" stroke-linecap="round" stroke-linejoin="round"/>
<path d="M82.954 259.791C82.954 263.701 75.974 265.621 71.514 262.311C66.974 258.941 67.474 248.651 76.484 246.521C84.834 244.541 93.154 252.441 93.014 266.261C92.954 272.361 90.474 279.541 86.114 282.681" fill="#FFEBF0"/>
<path d="M82.954 259.791C82.954 263.701 75.974 265.621 71.514 262.311C66.974 258.941 67.474 248.651 76.484 246.521C84.834 244.541 93.154 252.441 93.014 266.261C92.954 272.361 90.474 279.541 86.114 282.681" stroke="#512921" stroke-width="2.5" stroke-linecap="round" stroke-linejoin="round"/>
<path d="M124.206 188.831C121.836 191.601 119.106 193.051 116.526 193.541C113.226 200.941 114.366 213.031 114.836 214.331C115.516 216.201 119.076 217.941 124.206 217.941C129.336 217.941 132.886 216.201 133.576 214.331C134.056 213.021 135.206 200.831 131.836 193.441C129.246 192.961 126.526 191.531 124.206 188.831Z" fill="#FF5640" stroke="#512921" stroke-width="2.5" stroke-linecap="round" stroke-linejoin="round"/>
<path d="M124.206 204.551C120.256 204.551 116.726 205.801 114.266 207.791C114.306 211.161 114.636 213.761 114.846 214.331C115.526 216.201 119.086 217.941 124.216 217.941C129.346 217.941 132.896 216.201 133.586 214.331C133.796 213.761 134.126 211.161 134.166 207.791C131.706 205.801 128.166 204.551 124.226 204.551H124.206Z" fill="#FF8C96" stroke="#512921" stroke-width="2.5" stroke-linecap="round" stroke-linejoin="round"/>
</svg>
