<svg width="252" height="429" viewBox="0 0 252 429" fill="none" xmlns="http://www.w3.org/2000/svg">
<path d="M52.5784 254.308C63.9684 240.618 75.0184 228.548 85.1984 223.328C90.6984 220.508 87.8785 234.828 78.2385 252.218C75.4385 257.038 72.3285 262.038 69.1285 267.058H69.1085C66.1585 271.248 60.4884 272.748 55.7884 270.338C50.6484 267.698 48.6284 261.398 51.2584 256.258C51.6284 255.538 52.0684 254.888 52.5684 254.298L52.5784 254.308Z" fill="#FF73A2" stroke="#512921" stroke-width="2.5" stroke-linecap="round" stroke-linejoin="round"/>
<path d="M66.2676 287.098C61.7776 280.798 58.4577 274.538 54.1177 268.358C51.1877 264.428 50.0677 258.808 53.4977 255.038C57.3877 250.768 63.2676 251.278 67.5376 255.168C67.8976 255.498 68.2276 255.858 68.5276 256.218H68.5476C73.7576 261.908 79.6777 266.948 84.6177 272.398C88.9477 276.838 89.1176 283.938 84.8876 288.578C80.4976 293.398 73.0277 293.748 68.2077 289.358C67.4477 288.668 66.8076 287.908 66.2676 287.088V287.098Z" fill="#FF73A2"/>
<path d="M69.2782 255.398C74.4882 261.108 79.6783 266.958 84.6183 272.408C88.9483 276.848 89.1182 283.948 84.8882 288.588C80.4982 293.408 73.0283 293.758 68.2083 289.368C67.4483 288.678 66.8082 287.918 66.2682 287.098C63.0782 282.628 54.8583 272.068 51.2383 265.818" stroke="#512921" stroke-width="2.5" stroke-linecap="round" stroke-linejoin="round"/>
<path d="M85.1085 272.948C97.1085 286.938 87.5885 304.518 71.8285 300.858C67.0385 299.748 63.7885 296.928 62.4685 292.888C60.8285 287.858 65.1785 285.358 66.3585 287.228C58.4185 276.798 77.1685 262.528 85.1085 272.948Z" fill="#FFEBF0" stroke="#512921" stroke-width="2.5" stroke-linecap="round" stroke-linejoin="round"/>
<path d="M99.8382 198.668C99.8382 198.668 92.9182 198.478 84.3582 205.528C69.5082 217.748 49.3682 238.488 48.4382 241.388C47.5082 244.288 54.1981 267.428 79.9181 274.128L101.498 233.088" fill="white"/>
<path d="M99.8382 198.668C99.8382 198.668 92.9182 198.478 84.3582 205.528C69.5082 217.748 49.3682 238.488 48.4382 241.388C47.5082 244.288 54.1981 267.428 79.9181 274.128L101.498 233.088" stroke="#512921" stroke-width="2.5" stroke-linecap="round" stroke-linejoin="round"/>
<path d="M122.688 285.398C115.668 286.988 114.798 294.778 115.988 300.058C120.518 320.208 136.198 361.098 180.218 363.028C227.328 365.088 247.688 327.628 249.678 286.398C249.827 283.258 249.898 280.148 249.878 277.088C242.398 272.628 232.358 270.638 223.828 274.728C223.868 275.868 223.828 277.008 223.868 278.158C224.788 304.028 218.068 343.578 176.748 340.978C152.568 339.458 141.047 312.848 135.547 295.318C134.747 292.758 131.268 283.448 122.678 285.398H122.688Z" fill="#FF73A2" stroke="#512921" stroke-width="2.5" stroke-linecap="round" stroke-linejoin="round"/>
<path d="M219.807 243.498C220.277 251.648 223.407 262.828 223.827 274.738C232.347 270.648 242.387 272.638 249.877 277.098C249.767 259.778 246.837 244.248 240.447 236.208C236.847 231.678 231.877 228.628 226.207 230.768C221.957 232.368 219.407 236.558 219.807 243.508V243.498Z" fill="#FFEBF0" stroke="#512921" stroke-width="2.5" stroke-linecap="round" stroke-linejoin="round"/>
<path d="M113.007 351.048C113.387 332.208 113.677 314.228 113.757 308.818C113.757 308.798 113.757 308.788 113.757 308.768C113.797 308.238 113.797 307.708 113.777 307.188C113.777 307.178 113.777 307.158 113.777 307.158C113.467 300.288 108.067 294.588 101.037 294.088C93.5474 293.548 87.0274 299.128 86.3774 306.588L85.1674 326.638L83.3574 350.988H83.4073C83.0673 358.968 89.1273 365.818 97.1473 366.398C105.307 366.978 112.397 360.838 112.987 352.678C113.027 352.128 113.037 351.588 113.017 351.048H113.007Z" fill="#FF73A2" stroke="#512921" stroke-width="2.5" stroke-linecap="round" stroke-linejoin="round"/>
<path d="M91.7473 421.508C98.6273 421.998 105.637 421.438 110.237 418.598C111.227 417.988 111.447 410.298 111.567 406.308L112.277 381.858C107.857 382.058 101.797 382.178 96.3673 381.798C90.4673 381.378 84.8772 380.178 81.2672 379.268L80.0072 396.988C80.0072 396.988 78.6073 416.378 78.6073 416.388C78.3873 419.408 84.5572 420.998 91.7572 421.518L91.7473 421.508Z" fill="#FFEBF0" stroke="#512921" stroke-width="2.5" stroke-linecap="round" stroke-linejoin="round"/>
<path d="M84.6578 350.868C84.6478 351.008 84.6279 351.308 84.6279 351.308L81.2578 379.268C84.8678 380.178 90.4679 381.378 96.3579 381.798C101.788 382.188 107.848 382.058 112.268 381.858C112.518 373.228 111.508 362.998 111.718 352.848C111.718 352.818 111.718 352.768 111.718 352.738C111.948 344.538 107.408 337.428 99.2479 336.838C91.0879 336.258 85.3678 341.058 84.7878 349.218L84.6478 350.868H84.6578Z" fill="#FF73A2"/>
<path d="M83.3878 350.548C83.3778 350.688 83.3579 350.848 83.3579 350.988L81.2578 379.268C84.8678 380.178 90.4679 381.378 96.3579 381.798C101.788 382.188 107.848 382.058 112.268 381.858C112.518 373.228 112.758 362.928 112.968 352.778C112.968 352.748 112.968 352.708 112.968 352.678" stroke="#512921" stroke-width="2.5" stroke-linecap="round" stroke-linejoin="round"/>
<path d="M111.157 405.168L78.797 398.098C77.567 398.058 71.1471 398.058 66.2471 401.938C58.8471 407.818 59.8771 420.308 63.5771 424.358C67.0471 428.148 103.747 425.468 108.497 422.898C111.687 421.178 111.797 420.418 111.637 416.638L111.147 405.168H111.157Z" fill="#FFEBF0"/>
<path d="M84.6873 399.388C84.6873 399.388 82.2873 398.728 81.4773 398.558C80.8073 398.418 78.7873 398.098 78.7873 398.098C77.5573 398.058 71.1373 398.058 66.2373 401.938C58.8373 407.818 59.8673 420.308 63.5673 424.358C67.0373 428.148 103.737 425.468 108.487 422.898C111.677 421.178 111.787 420.418 111.627 416.638L111.137 405.168" stroke="#512921" stroke-width="2.5" stroke-linecap="round" stroke-linejoin="round"/>
<path d="M89.8168 312.988C81.6368 310.008 78.4668 304.128 78.4668 296.438C79.3468 291.898 82.4168 280.098 84.9568 275.078C85.6168 273.778 87.1268 272.848 87.9268 271.608C91.0968 266.738 103.997 267.848 117.107 267.858C129.987 267.868 143.077 266.708 146.307 271.448C150.497 277.598 152.957 284.698 152.957 291.428C152.957 308.638 136.687 316.958 116.427 316.958C105.427 316.958 96.1368 315.288 89.8068 312.978L89.8168 312.988Z" fill="#AAA0FF" stroke="#512921" stroke-width="2.5" stroke-linecap="round" stroke-linejoin="round"/>
<path d="M150.487 278.738C150.107 277.298 150.297 265.348 150.297 265.348C150.297 265.348 144.817 266.448 114.347 266.448C95.0066 266.448 83.7266 265.348 83.7266 265.348C83.7266 265.348 85.0065 277.048 84.9365 279.678C85.5565 283.388 144.567 282.038 150.487 278.738Z" fill="#AAA0FF"/>
<path d="M150.487 278.738C150.107 277.298 150.297 265.348 150.297 265.348C150.297 265.348 144.817 266.448 114.347 266.448C95.007 266.448 83.7271 265.348 83.7271 265.348C83.7271 265.348 83.527 275.378 83.457 278.008" stroke="#512921" stroke-width="2.5" stroke-linecap="round" stroke-linejoin="round"/>
<path d="M119.597 296.678C119.597 296.518 119.617 296.368 119.627 296.208C119.927 286.158 112.447 277.888 100.757 277.018C92.3871 276.388 83.5472 282.558 81.2172 290.218C80.8272 291.378 65.6371 332.728 64.7571 338.788C63.9971 343.998 96.7272 354.358 122.687 349.218L119.597 296.678Z" fill="#AAA0FF"/>
<path d="M79.8972 289.928C79.8972 289.928 79.8972 289.938 79.8972 289.948C79.5072 291.108 65.6371 332.728 64.7571 338.788C63.9971 343.998 96.7272 354.358 122.687 349.218L120.267 296.598" stroke="#512921" stroke-width="2.5" stroke-linecap="round" stroke-linejoin="round"/>
<path d="M149.478 306.998C148.888 299.508 142.378 293.858 134.858 294.368C127.338 294.878 121.868 301.088 122.048 308.408H122.018L122.518 345.878L122.668 351.708C123.218 359.898 130.348 366.088 138.538 365.538C146.728 364.988 152.928 357.898 152.368 349.708C152.218 347.538 152.078 345.418 151.938 343.388C150.998 329.458 149.488 306.998 149.488 306.998H149.478Z" fill="#FF73A2" stroke="#512921" stroke-width="2.5" stroke-linecap="round" stroke-linejoin="round"/>
<path d="M150.998 350.028C150.408 341.838 144.588 336.718 136.398 337.308C128.208 337.898 123.788 344.708 123.888 351.668L123.868 352.138L123.428 383.118C123.428 383.548 123.428 383.978 123.468 384.418C124.088 392.998 155.158 390.758 154.538 382.178C154.518 381.938 154.498 381.708 154.468 381.478C154.468 381.478 154.478 381.478 154.488 381.478C153.738 371.048 151.728 360.118 150.998 350.038V350.028Z" fill="#FF73A2"/>
<path d="M122.617 350.938L123.427 383.118C123.427 383.548 123.427 383.978 123.467 384.418C124.087 392.998 155.157 390.758 154.537 382.178C154.517 381.938 154.497 381.708 154.467 381.478C154.467 381.478 154.477 381.478 154.487 381.478C153.737 371.048 152.957 358.068 152.227 347.988" stroke="#512921" stroke-width="2.5" stroke-linecap="round" stroke-linejoin="round"/>
<path d="M136.448 425.348C141.758 425.908 155.648 424.898 157.038 419.328C157.238 415.978 156.338 407.288 156.338 407.288L154.478 381.468C150.108 382.288 144.098 383.278 138.678 383.678C132.778 384.098 127.108 383.728 123.428 383.338L123.958 400.968C124.148 400.968 124.398 414.118 124.548 418.498C124.648 421.388 126.418 424.288 136.448 425.348Z" fill="#FFEBF0" stroke="#512921" stroke-width="2.5" stroke-linecap="round" stroke-linejoin="round"/>
<path d="M133.798 400.908C133.798 400.908 130.628 400.078 127.768 399.668C127.578 399.638 127.388 399.618 127.188 399.598C127.188 399.598 119.908 399.168 114.808 404.718C109.978 409.968 110.168 421.518 113.718 425.518C117.038 429.268 152.458 427.678 155.088 426.548C157.868 425.348 157.808 421.658 157.798 417.898L155.078 410.048C150.898 405.768 133.798 400.908 133.798 400.908Z" fill="#FFEBF0"/>
<path d="M133.798 400.908C133.798 400.908 130.628 400.078 127.768 399.668C127.578 399.638 127.388 399.618 127.188 399.598C127.188 399.598 119.908 399.168 114.808 404.718C109.978 409.968 110.168 421.518 113.718 425.518C117.038 429.268 152.348 427.358 155.088 426.548C159.238 425.308 156.408 409.488 156.408 409.488" stroke="#512921" stroke-width="2.5" stroke-linecap="round" stroke-linejoin="round"/>
<path d="M124.177 314.858C139.387 314.858 151.717 302.528 151.717 287.318C151.717 272.108 139.387 259.778 124.177 259.778C108.967 259.778 96.6367 272.108 96.6367 287.318C96.6367 302.528 108.967 314.858 124.177 314.858Z" fill="#AAA0FF"/>
<path d="M97.8965 302.818L104.756 306.828L104.227 347.748C104.227 347.748 116.167 350.818 132.607 350.488C157.317 349.988 166.796 343.408 169.776 340.958C172.176 338.988 150.217 278.558 150.217 278.558" fill="#AAA0FF"/>
<path d="M97.8965 302.818L104.756 306.828L104.227 347.748C104.227 347.748 116.167 350.818 132.607 350.488C157.317 349.988 166.796 343.408 169.776 340.958C172.176 338.988 150.217 278.558 150.217 278.558" stroke="#512921" stroke-width="2.5" stroke-linecap="round" stroke-linejoin="round"/>
<path d="M87.9062 280.808C87.9062 280.808 114.056 287.238 142.106 280.158" stroke="#512921" stroke-width="2.5" stroke-linecap="round" stroke-linejoin="round"/>
<path d="M78.2573 234.558C77.4273 251.148 78.0274 265.898 80.5974 271.588C83.0274 276.978 105.157 276.898 116.517 276.978C120.637 277.008 156.047 275.658 156.117 270.158C156.197 264.228 163.237 223.828 136.837 203.598C129.027 197.608 106.307 195.118 98.2474 198.568C87.8674 203.018 81.5074 211.468 79.4874 216.088L78.2573 234.568V234.558Z" fill="white"/>
<path d="M77.748 211.208C82.328 207.448 90.698 198.658 98.248 198.558C107.018 198.448 128.868 194.178 136.488 200.408C163.618 222.608 156.198 264.218 156.118 270.148C156.048 275.648 120.638 276.998 116.518 276.968C105.148 276.888 84.358 276.968 81.928 271.578C79.358 265.888 82.648 250.248 79.158 234.038" stroke="#512921" stroke-width="2.5" stroke-linecap="round" stroke-linejoin="round"/>
<path d="M122.679 236.548C125.659 249.408 118.239 264.818 105.029 266.108C93.4488 267.238 88.2388 257.098 86.9188 243.868C85.7888 232.488 90.7588 224.038 99.2788 221.648C110.799 218.418 120.129 225.508 122.689 236.538L122.679 236.548Z" fill="#AAA0FF"/>
<path d="M89.7385 242.018C90.1085 242.018 90.4884 241.868 90.7784 241.548C90.8284 241.488 96.2785 235.588 104.879 235.818C104.899 235.818 104.908 235.818 104.928 235.818C112.398 236.038 116.438 240.278 116.478 240.318C116.938 240.808 117.729 240.778 118.249 240.238C118.769 239.708 118.829 238.878 118.369 238.378C118.179 238.178 113.718 233.428 105.258 233.178C105.238 233.178 105.218 233.178 105.198 233.178C95.3585 232.918 89.2784 239.568 89.0284 239.848C88.5284 240.408 88.5085 241.238 88.9885 241.708C89.1885 241.908 89.4585 242.008 89.7285 242.018H89.7385Z" fill="white"/>
<path d="M103.939 250.108L104.609 267.658C103.969 267.738 103.329 267.758 102.669 267.748C102.009 267.738 101.369 267.668 100.719 267.568L100.389 250.048C100.389 249.828 100.529 249.658 100.709 249.668L103.589 249.718C103.769 249.718 103.919 249.898 103.929 250.118L103.939 250.108Z" fill="white"/>
<path d="M107.759 246.358C108.039 249.968 105.779 253.338 102.699 253.738C99.6294 254.138 97.0994 251.398 97.0494 247.768C97.0094 244.288 99.2694 241.268 102.119 240.888C104.969 240.508 107.489 242.898 107.759 246.358Z" fill="white"/>
<path d="M131.158 229.098C137.428 244.028 139.028 263.218 141.528 264.148C162.858 272.118 190.908 249.498 184.278 241.388C179.468 235.498 157.438 213.808 145.048 204.528C141.308 201.728 133.488 195.748 121.828 197.678" fill="white"/>
<path d="M131.158 229.098C137.428 244.028 139.028 263.218 141.528 264.148C162.858 272.118 190.908 249.498 184.278 241.388C179.468 235.498 157.438 213.808 145.048 204.528C141.308 201.728 133.488 195.748 121.828 197.678" stroke="#512921" stroke-width="2.5" stroke-linecap="round" stroke-linejoin="round"/>
<path d="M142.537 217.538C135.867 214.098 137.857 230.088 149.517 251.248C152.907 257.108 156.667 263.198 160.527 269.308C164.097 274.428 170.997 276.248 176.717 273.338C182.967 270.148 184.847 262.778 182.267 256.248C177.367 243.878 154.887 223.898 142.537 217.528V217.538Z" fill="#FF73A2" stroke="#512921" stroke-width="2.5" stroke-linecap="round" stroke-linejoin="round"/>
<path d="M130.129 228.718C133.759 241.098 139.589 271.168 142.089 272.108C145.389 260.708 163.399 238.628 180.649 244.658C181.649 245.008 183.269 240.938 184.279 241.408C179.469 235.518 157.439 213.828 145.049 204.548" fill="white"/>
<path d="M184.279 241.398C180.109 234.428 160.719 214.428 145.049 204.538" stroke="#512921" stroke-width="2.5" stroke-linecap="round" stroke-linejoin="round"/>
<path d="M130.129 228.718C133.759 241.098 139.589 271.168 142.089 272.108" stroke="#512921" stroke-width="2.5" stroke-linecap="round" stroke-linejoin="round"/>
<path d="M145.569 270.208C143.169 262.958 167.189 236.468 180.899 245.398" stroke="#512921" stroke-width="2.5" stroke-linecap="round" stroke-linejoin="round"/>
<path d="M160.957 253.668C151.867 258.938 142.307 268.148 137.997 275.738C129.017 291.528 153.127 309.728 159.697 292.708C163.047 284.048 169.167 279.928 177.767 272.668" fill="#FF73A2"/>
<path d="M160.957 253.668C151.867 258.938 142.307 268.148 137.997 275.738C129.017 291.528 153.127 309.728 159.697 292.708C163.047 284.048 169.167 279.928 177.767 272.668" stroke="#512921" stroke-width="2.5" stroke-linecap="round" stroke-linejoin="round"/>
<path d="M165.527 283.458C154.287 290.348 139.237 280.248 141.017 271.398C122.627 292.578 142.317 312.518 155.707 304.458C165.837 298.348 166.457 290.658 162.357 289.288C162.657 287.708 164.007 285.618 165.537 283.448L165.527 283.458Z" fill="#FFEBF0" stroke="#512921" stroke-width="2.5" stroke-linecap="round" stroke-linejoin="round"/>
<path d="M162.347 289.288L161.877 291.608" stroke="#512921" stroke-width="2.59" stroke-linecap="round" stroke-linejoin="round"/>
<path d="M124.317 192.938C123.827 198.518 109.517 205.528 100.997 204.488C90.9867 203.268 97.5066 192.068 97.5066 192.068C97.5066 192.068 101.007 185.568 113.677 187.098C119.997 187.858 124.517 190.628 124.317 192.938Z" fill="#FF73A2" stroke="#512921" stroke-width="2.5" stroke-linecap="round" stroke-linejoin="round"/>
<path d="M192.577 5.92826C164.257 32.7783 133.957 49.3183 124.717 54.7983C123.327 55.5283 121.956 56.2883 120.636 57.1183C120.566 57.1583 120.516 57.1883 120.516 57.1883H120.526C103.346 67.9583 91.6664 86.8183 91.0064 108.588C89.9464 143.308 117.216 172.298 151.937 173.358C178.407 174.168 201.536 158.488 211.506 135.598C231.686 93.9983 223.647 -23.5117 192.587 5.92826H192.577Z" fill="#FF73A2" stroke="#512921" stroke-width="2.5" stroke-linecap="round" stroke-linejoin="round"/>
<path d="M213.837 48.4282C213.837 48.4282 211.727 78.9182 194.197 102.678C195.967 115.998 198.827 112.938 201.077 118.018C206.847 110.738 218.027 79.3182 213.837 48.4282Z" fill="#FFEBF0"/>
<path d="M213.706 31.2083C217.786 85.7883 186.656 107.928 186.656 107.928" stroke="#512921" stroke-width="2.5" stroke-linecap="round" stroke-linejoin="round"/>
<path d="M214.077 41.1084C216.057 58.9884 217.137 84.5984 201.197 119.258" stroke="#512921" stroke-width="2.5" stroke-linecap="round" stroke-linejoin="round"/>
<path d="M29.9375 18.1084C58.8275 44.3484 89.4776 60.2385 98.8276 65.5185C100.228 66.2185 101.618 66.9484 102.958 67.7484C103.028 67.7884 103.078 67.8084 103.078 67.8084H103.068C120.478 78.2084 132.558 96.8084 133.678 118.568C135.478 153.248 108.828 182.828 74.1475 184.628C47.6975 185.998 24.2375 170.818 13.7875 148.148C-7.27248 106.988 -1.74245 -10.6715 29.9375 18.0985V18.1084Z" fill="#FF73A2" stroke="#512921" stroke-width="2.5" stroke-linecap="round" stroke-linejoin="round"/>
<path d="M9.58739 61.0483C9.58739 61.0483 10.2173 84.1183 25.8973 108.368C24.4073 121.718 24.9774 119.468 22.8374 124.588C16.9074 117.428 6.05739 92.0183 9.58739 61.0483Z" fill="#FFEBF0"/>
<path d="M9.28693 45.1284C6.93693 98.8284 38.0369 119.968 38.0369 119.968" stroke="#512921" stroke-width="2.5" stroke-linecap="round" stroke-linejoin="round"/>
<path d="M9.19652 53.7383C7.60652 71.6583 7.06657 97.2783 23.7466 131.598" stroke="#512921" stroke-width="2.5" stroke-linecap="round" stroke-linejoin="round"/>
<path d="M220.657 147.308C203.207 179.748 183.557 192.808 152.927 203.618C129.987 211.708 104.317 214.468 80.2074 212.968C70.7374 212.378 61.0075 210.198 51.7375 206.548C51.7375 206.548 15.2874 191.848 6.70742 172.498C5.56742 169.918 4.64742 167.238 4.07742 164.478C4.03742 164.298 4.96737 162.388 5.64737 160.248C7.35737 154.888 9.91742 136.388 10.8274 131.878C16.8674 101.778 32.0274 55.1383 95.9174 46.7883C156.517 38.8783 187.807 79.7983 196.617 98.6983C200.517 107.068 210.987 129.198 217.067 137.608C219.767 141.338 220.697 140.828 221.247 142.288C221.687 143.468 221.437 145.858 220.647 147.308H220.657Z" fill="#FF73A2"/>
<path d="M55.707 59.8483C66.347 53.5883 79.537 48.9282 95.927 46.7882C109.967 44.9582 122.437 45.7483 133.417 48.2683" stroke="#512921" stroke-width="2.5" stroke-linecap="round" stroke-linejoin="round"/>
<path d="M160.738 59.4282C180.208 71.3482 191.788 88.3282 196.618 98.6882C200.518 107.058 210.988 129.188 217.068 137.598C219.768 141.328 220.698 140.818 221.248 142.278C221.688 143.458 221.438 145.848 220.648 147.298C203.198 179.738 183.548 192.798 152.918 203.608C129.978 211.698 104.308 214.458 80.1977 212.958C70.7277 212.368 60.9977 210.188 51.7277 206.538C51.7277 206.538 15.2777 191.838 6.69766 172.488C5.55766 169.908 4.63765 167.228 4.06765 164.468C4.02765 164.288 4.9576 162.378 5.6376 160.238C7.3476 154.878 9.90765 136.378 10.8177 131.868C14.3277 114.398 22.0576 85.5382 42.5176 69.4182" stroke="#512921" stroke-width="2.5" stroke-linecap="round" stroke-linejoin="round"/>
<path d="M133.408 48.2683C136.538 48.9883 139.548 49.8483 142.438 50.8383" stroke="#512921" stroke-width="2.5" stroke-linecap="round" stroke-linejoin="round"/>
<path d="M150.088 200.148C150.088 200.148 151.958 203.068 152.938 203.618C129.998 211.708 104.328 214.468 80.218 212.968C70.748 212.378 61.018 210.198 51.748 206.548C49.728 205.068 22.008 196.518 23.308 153.458C23.308 153.458 33.5779 141.098 68.3979 135.188C68.3979 135.188 72.8679 125.548 79.0179 119.538L89.038 132.428C89.038 132.428 148.148 130.208 169.788 147.858C169.788 147.858 175.268 181.898 150.098 200.128L150.088 200.148Z" fill="#FFEBF0" stroke="#512921" stroke-width="2.5" stroke-linecap="round" stroke-linejoin="round"/>
<path d="M80.3066 188.568C80.3066 187.108 81.6666 185.898 85.5266 185.548C91.3966 185.018 92.2267 186.188 92.3367 187.488C92.4867 189.168 91.0767 191.318 87.8467 192.048C84.9967 192.688 80.3066 190.628 80.3066 188.568Z" fill="#FF73A2" stroke="#512921" stroke-width="2.5" stroke-linecap="round" stroke-linejoin="round"/>
<path d="M71.7677 162.428C69.3477 166.278 64.6277 160.828 61.6777 156.718" stroke="#512921" stroke-width="2.5" stroke-linecap="round" stroke-linejoin="round"/>
<path d="M76.9772 156.538C77.3772 157.338 77.5872 158.138 77.7272 158.978C77.8572 159.818 77.8771 160.688 77.7671 161.588C77.6171 162.468 77.4271 163.408 76.8271 164.208C76.2471 164.998 75.3472 165.638 74.3672 165.678C74.1072 165.688 73.8872 165.488 73.8672 165.228C73.8672 165.138 73.8871 165.048 73.9271 164.968L73.9672 164.908C74.3772 164.188 74.6071 163.658 74.8071 163.078C75.0071 162.518 75.1871 161.888 75.2871 161.218C75.5171 159.878 75.5172 158.368 75.6272 156.858V156.798C75.6572 156.398 76.0071 156.108 76.3971 156.138C76.6571 156.158 76.8772 156.318 76.9872 156.538H76.9772Z" fill="#FFAAB9"/>
<path d="M89.4674 154.828C90.2574 156.118 90.9674 157.458 91.7874 158.538C92.1874 159.088 92.6374 159.558 93.0674 159.968C93.5074 160.398 93.9573 160.748 94.6573 161.208L94.7174 161.248C94.9374 161.388 94.9974 161.688 94.8574 161.908C94.8074 161.988 94.7373 162.048 94.6573 162.078C93.7673 162.488 92.6774 162.348 91.7974 161.908C90.8874 161.468 90.2874 160.728 89.7474 160.018C89.2274 159.278 88.8474 158.498 88.5674 157.688C88.3074 156.868 88.1174 156.068 88.1074 155.178C88.1074 154.778 88.4174 154.458 88.8074 154.448C89.0674 154.448 89.2974 154.578 89.4274 154.788L89.4574 154.838L89.4674 154.828Z" fill="#FFAAB9"/>
<path d="M96.5469 158.878C99.9369 162.528 103.947 156.798 106.427 152.058" stroke="#512921" stroke-width="2.5" stroke-linecap="round" stroke-linejoin="round"/>
<path d="M152.606 119.288C152.436 119.288 152.256 119.248 152.096 119.178C151.726 119.008 143.116 114.988 141.756 102.698C140.366 90.1784 151.546 82.5684 152.026 82.2484C152.236 82.1084 152.476 82.0383 152.716 82.0383C152.816 82.0383 152.906 82.0484 153.006 82.0684C153.346 82.1484 153.636 82.3683 153.806 82.6683L159.506 92.6183C159.836 93.1983 159.656 93.9383 159.086 94.2983C158.336 94.7783 157.636 95.2084 157.006 95.5984C152.266 98.5384 151.496 99.0983 151.856 101.538C152.636 106.778 160.796 110.328 160.886 110.368C161.286 110.538 161.566 110.908 161.636 111.338C161.706 111.768 161.536 112.198 161.206 112.478L153.436 118.998C153.206 119.188 152.916 119.288 152.636 119.288H152.606Z" fill="#DD2C46"/>
<path d="M152.706 83.2883L158.406 93.2383C152.126 97.2083 150.046 97.9384 150.606 101.718C151.496 107.728 160.376 111.518 160.376 111.518L152.606 118.038C152.606 118.038 144.296 114.278 142.986 102.558C141.666 90.6483 152.706 83.2883 152.706 83.2883ZM152.706 80.7883C152.216 80.7883 151.736 80.9284 151.316 81.2084C150.816 81.5384 139.026 89.5684 140.496 102.838C141.936 115.828 151.176 120.138 151.566 120.318C151.896 120.468 152.246 120.538 152.596 120.538C153.176 120.538 153.746 120.338 154.206 119.958L161.976 113.438C162.646 112.878 162.966 112.018 162.846 111.158C162.716 110.298 162.156 109.568 161.356 109.228C159.246 108.318 153.636 105.138 153.076 101.368C152.846 99.8283 152.826 99.6683 157.656 96.6683C158.296 96.2683 158.986 95.8383 159.746 95.3583C160.876 94.6383 161.246 93.1684 160.576 92.0084L154.876 82.0583C154.536 81.4583 153.956 81.0283 153.276 80.8683C153.086 80.8283 152.896 80.7983 152.706 80.7983V80.7883Z" fill="white"/>
<path d="M134.497 131.068C134.277 131.068 134.067 131.008 133.867 130.898C133.487 130.678 133.257 130.288 133.247 129.848C133.247 129.758 132.937 120.858 128.357 118.208C127.617 117.788 127.056 117.598 126.536 117.598C125.276 117.598 123.737 118.738 120.937 120.818C120.337 121.268 119.687 121.748 118.967 122.278C118.747 122.438 118.487 122.518 118.227 122.518C117.857 122.518 117.497 122.358 117.247 122.048L110.087 113.088C109.867 112.808 109.767 112.438 109.837 112.088C109.897 111.738 110.116 111.428 110.426 111.238C110.756 111.038 118.496 106.438 126.256 106.438C129.056 106.438 131.527 107.038 133.627 108.238C144.367 114.368 144.666 124.538 144.676 124.968C144.676 125.438 144.436 125.868 144.016 126.088L135.097 130.918C134.907 131.018 134.706 131.068 134.506 131.068H134.497Z" fill="#DD2C46"/>
<path d="M126.247 107.688C128.597 107.688 130.917 108.138 132.997 109.318C143.237 115.158 143.416 124.988 143.416 124.988L134.497 129.818C134.497 129.818 134.237 120.168 128.977 117.128C128.067 116.598 127.296 116.348 126.526 116.348C124.516 116.348 122.567 118.098 118.217 121.268L111.056 112.308C111.056 112.308 118.737 107.688 126.247 107.688ZM126.256 105.188C118.146 105.188 110.116 109.968 109.776 110.168C109.156 110.538 108.737 111.158 108.607 111.868C108.477 112.578 108.667 113.308 109.117 113.868L116.276 122.828C116.766 123.448 117.497 123.768 118.227 123.768C118.737 123.768 119.256 123.608 119.696 123.288C120.416 122.758 121.076 122.268 121.676 121.818C123.996 120.088 125.676 118.848 126.526 118.848C126.816 118.848 127.207 118.998 127.727 119.298C131.027 121.198 131.927 127.588 131.997 129.888C132.027 130.758 132.497 131.548 133.247 131.978C133.637 132.198 134.067 132.308 134.497 132.308C134.907 132.308 135.316 132.208 135.686 132.008L144.607 127.178C145.427 126.738 145.936 125.868 145.916 124.938C145.916 124.478 145.587 113.618 134.237 107.138C131.957 105.838 129.266 105.178 126.256 105.178V105.188Z" fill="white"/>
<path d="M120.487 102.678C115.697 102.678 112.406 100.938 112.266 100.858C111.866 100.638 111.617 100.228 111.607 99.7784L111.477 89.6384C111.477 89.1784 111.717 88.7484 112.127 88.5284C112.317 88.4284 112.517 88.3784 112.727 88.3784C112.967 88.3784 113.207 88.4484 113.417 88.5884C113.467 88.6184 118.307 91.7684 122.567 91.7684C123.807 91.7684 124.867 91.4984 125.727 90.9484C128.017 89.4984 127.806 87.2484 126.776 80.3284L126.636 79.3884C126.536 78.7284 126.976 78.1083 127.636 77.9783L138.896 75.8083C138.976 75.7883 139.056 75.7883 139.136 75.7883C139.386 75.7883 139.647 75.8684 139.857 76.0184C140.137 76.2084 140.317 76.5084 140.377 76.8484C140.477 77.4584 142.607 91.8184 132.187 98.9484C128.547 101.438 124.607 102.698 120.497 102.698L120.487 102.678Z" fill="#DD2C46"/>
<path d="M139.136 77.0283C139.136 77.0283 141.366 91.1383 131.476 97.8983C127.486 100.628 123.636 101.428 120.486 101.428C115.956 101.428 112.866 99.7583 112.866 99.7583L112.736 89.6183C112.736 89.6183 117.866 92.9983 122.566 92.9983C123.926 92.9983 125.246 92.7183 126.396 91.9883C129.626 89.9483 128.956 86.5283 127.876 79.1883L139.136 77.0183M139.136 74.5283C138.976 74.5283 138.816 74.5483 138.666 74.5783L127.406 76.7483C126.096 76.9983 125.216 78.2483 125.406 79.5683L125.546 80.5083C126.546 87.2383 126.626 88.9083 125.066 89.8883C124.416 90.2983 123.576 90.5083 122.576 90.5083C119.356 90.5083 115.376 88.3583 114.116 87.5383C113.696 87.2683 113.226 87.1283 112.746 87.1283C112.336 87.1283 111.916 87.2283 111.546 87.4383C110.736 87.8783 110.236 88.7383 110.246 89.6583L110.376 99.7983C110.386 100.708 110.886 101.538 111.686 101.968C111.836 102.048 115.386 103.938 120.496 103.938C124.876 103.938 129.046 102.598 132.896 99.9683C137.526 96.8083 140.496 91.7383 141.496 85.3183C142.226 80.6083 141.646 76.8083 141.616 76.6483C141.506 75.9783 141.136 75.3783 140.586 74.9883C140.166 74.6883 139.656 74.5383 139.146 74.5383L139.136 74.5283Z" fill="white"/>
<path d="M82.4866 199.398C82.3866 198.228 83.2965 197.298 84.2865 197.488C86.3665 197.888 90.3465 197.998 96.7565 195.758C105.836 192.578 111.286 182.038 118.146 186.508C123.016 189.688 125.756 200.188 120.756 201.108C119.196 201.398 107.926 198.618 99.6365 203.248C88.7065 209.358 83.0766 206.558 82.4766 199.398H82.4866Z" fill="#EB5555"/>
<mask id="mask0_16767_2688" style="mask-type:luminance" maskUnits="userSpaceOnUse" x="82" y="185" width="42" height="22">
<path d="M82.4866 199.398C82.3866 198.228 83.2965 197.298 84.2865 197.488C86.3665 197.888 90.3465 197.998 96.7565 195.758C105.836 192.578 111.286 182.038 118.146 186.508C123.016 189.688 125.756 200.188 120.756 201.108C119.196 201.398 107.926 198.618 99.6365 203.248C88.7065 209.358 83.0766 206.558 82.4766 199.398H82.4866Z" fill="white"/>
</mask>
<g mask="url(#mask0_16767_2688)">
<path d="M116.926 180.088C116.926 180.088 116.996 188.698 113.416 190.808C109.836 192.918 102.826 183.168 102.826 183.168L110.756 178.318L116.926 180.088Z" fill="white" stroke="#512921" stroke-width="2.5" stroke-linecap="round" stroke-linejoin="round"/>
</g>
<path d="M82.4866 199.398C82.3866 198.228 83.2965 197.298 84.2865 197.488C86.3665 197.888 90.3465 197.998 96.7565 195.758C105.836 192.578 111.286 182.038 118.146 186.508C123.016 189.688 125.756 200.188 120.756 201.108C119.196 201.398 107.926 198.618 99.6365 203.248C88.7065 209.358 83.0766 206.558 82.4766 199.398H82.4866Z" stroke="#512921" stroke-width="2.5" stroke-linecap="round" stroke-linejoin="round"/>
<path d="M39.4277 172.488C53.3777 179.778 66.7777 180.118 72.3977 179.588" stroke="#512921" stroke-width="3.5" stroke-linecap="round" stroke-linejoin="round"/>
<path d="M72.5468 179.618C67.4568 181.888 50.8067 181.858 39.8867 174.838" stroke="#512921" stroke-width="3.5" stroke-linecap="round" stroke-linejoin="round"/>
<path d="M43.4174 178.318C39.8574 182.328 35.7773 182.058 35.7773 182.058" stroke="#512921" stroke-width="2.5" stroke-linecap="round" stroke-linejoin="round"/>
<path d="M137.807 164.448C123.117 174.678 108.037 176.978 101.637 177.178" stroke="#512921" stroke-width="3.5" stroke-linecap="round" stroke-linejoin="round"/>
<path d="M101.457 177.238C107.527 179.068 126.307 176.648 137.617 167.168" stroke="#512921" stroke-width="3.5" stroke-linecap="round" stroke-linejoin="round"/>
<path d="M134.137 171.598C138.727 175.618 143.297 174.728 143.297 174.728" stroke="#512921" stroke-width="2.5" stroke-linecap="round" stroke-linejoin="round"/>
</svg>
