<svg width="245" height="460" viewBox="0 0 245 460" fill="none" xmlns="http://www.w3.org/2000/svg">
<path d="M130.486 315.873C137.216 318.873 136.546 326.863 134.296 331.943C125.726 351.273 101.816 389.213 57.2256 382.363C9.50565 375.033 -3.47432 333.343 2.75568 291.533C3.22568 288.353 3.78571 285.213 4.41571 282.143C12.8157 279.153 23.3057 279.163 31.0457 284.973C30.7757 286.103 30.5857 287.263 30.3157 288.413C24.2257 314.213 23.0856 355.273 65.0956 360.913C89.6856 364.213 106.566 339.783 115.586 323.273C116.896 320.863 122.256 312.203 130.486 315.873Z" fill="#FF73A2" stroke="#512921" stroke-width="2.56" stroke-linecap="round" stroke-linejoin="round"/>
<path d="M41.3063 254.403C39.2063 262.493 33.8263 273.103 31.0363 284.973C23.2963 279.163 12.8062 279.163 4.40625 282.143C7.97625 264.773 14.0163 249.753 22.0363 242.953C26.5663 239.123 32.1563 237.043 37.4263 240.333C41.3763 242.793 43.0963 247.503 41.3063 254.403Z" fill="#FFEBF0" stroke="#512921" stroke-width="2.56" stroke-linecap="round" stroke-linejoin="round"/>
<path d="M83.9256 278.273C95.1056 287.953 102.126 298.793 99.1356 302.253C96.1356 305.713 84.2655 300.483 73.0855 290.803C61.9055 281.123 55.3455 269.903 58.3355 266.443C61.3355 262.983 72.7456 268.593 83.9256 278.283V278.273Z" fill="white" stroke="#502823" stroke-width="2.56" stroke-linecap="round" stroke-linejoin="round"/>
<path d="M77.9454 255.593C69.2954 262.663 48.3354 284.863 51.6854 295.423C55.7354 308.163 72.7253 323.883 72.7253 323.883L89.4954 305.203C89.4954 305.203 81.0554 295.093 79.1254 292.863C77.6654 291.183 88.5554 275.533 91.8154 267.173C95.0754 258.823 87.5954 247.693 77.9354 255.593H77.9454Z" fill="#FF73A2" stroke="#502823" stroke-width="2.56" stroke-linecap="round" stroke-linejoin="round"/>
<path d="M62.7449 313.263C62.4949 305.823 79.8849 293.973 84.6149 299.443C90.8549 306.643 99.6449 315.853 92.9449 326.153C87.5949 334.373 74.0648 336.563 69.2348 332.063C66.8548 329.843 62.9849 324.673 68.9049 321.033C68.9049 321.033 64.8749 316.563 62.7549 313.263H62.7449Z" fill="#FDEDF1" stroke="#502823" stroke-width="2.56" stroke-linecap="round" stroke-linejoin="round"/>
<path d="M71.8152 324.133C70.6952 322.533 69.9752 321.894 68.2852 320.344" stroke="#502823" stroke-width="2.56" stroke-linecap="round" stroke-linejoin="round"/>
<path d="M112.126 224.543C112.126 224.543 101.536 224.233 92.9063 231.633C81.2363 241.633 58.7263 263.353 58.3263 266.443C58.2563 267.013 86.3162 272.523 99.1262 302.263L113.596 260.283" fill="white"/>
<path d="M112.126 224.543C112.126 224.543 101.536 224.233 92.9063 231.633C81.2363 241.633 58.7263 263.353 58.3263 266.443C58.2563 267.013 86.3162 272.523 99.1262 302.263L113.596 260.283" stroke="#502823" stroke-width="2.56" stroke-linecap="round" stroke-linejoin="round"/>
<path d="M182.526 278.273C171.346 287.953 164.326 298.793 167.316 302.253C170.316 305.713 182.186 300.483 193.366 290.803C204.546 281.123 211.106 269.903 208.116 266.443C205.116 262.983 193.706 268.593 182.526 278.283V278.273Z" fill="white" stroke="#502823" stroke-width="2.56" stroke-linecap="round" stroke-linejoin="round"/>
<path d="M188.495 255.593C197.145 262.663 218.105 284.863 214.755 295.423C210.705 308.163 193.715 323.883 193.715 323.883L176.945 305.203C176.945 305.203 185.385 295.093 187.315 292.863C188.775 291.183 177.885 275.533 174.625 267.173C171.365 258.823 178.845 247.693 188.505 255.593H188.495Z" fill="#FF73A2" stroke="#502823" stroke-width="2.56" stroke-linecap="round" stroke-linejoin="round"/>
<path d="M203.695 313.263C203.945 305.823 186.555 293.973 181.825 299.443C175.585 306.643 166.795 315.853 173.495 326.153C178.845 334.373 192.375 336.563 197.205 332.063C199.585 329.843 203.455 324.673 197.535 321.033C197.535 321.033 201.565 316.563 203.685 313.263H203.695Z" fill="#FDEDF1" stroke="#502823" stroke-width="2.56" stroke-linecap="round" stroke-linejoin="round"/>
<path d="M194.625 324.133C195.745 322.533 196.465 321.894 198.155 320.344" stroke="#502823" stroke-width="2.56" stroke-linecap="round" stroke-linejoin="round"/>
<path d="M154.316 224.543C154.316 224.543 164.906 224.233 173.536 231.633C185.206 241.633 207.716 263.353 208.116 266.443C208.186 267.013 180.126 272.523 167.316 302.263L152.846 260.283" fill="white"/>
<path d="M154.316 224.543C154.316 224.543 164.906 224.233 173.536 231.633C185.206 241.633 207.716 263.353 208.116 266.443C208.186 267.013 180.126 272.523 167.316 302.263L152.846 260.283" stroke="#502823" stroke-width="2.56" stroke-linecap="round" stroke-linejoin="round"/>
<path d="M132.855 341.023C132.765 333.323 126.505 327.113 118.785 327.113C111.065 327.113 105.045 333.083 104.725 340.573H104.695L102.625 373.123L102.375 379.093C102.375 387.503 109.235 394.313 117.635 394.313C126.035 394.313 132.855 387.493 132.855 379.093V341.023Z" fill="#FF73A2"/>
<path d="M132.855 341.023C132.765 333.323 126.505 327.113 118.785 327.113C111.065 327.113 105.045 333.083 104.725 340.573H104.695L102.625 373.123L102.375 379.093C102.375 387.503 109.235 394.313 117.635 394.313C126.035 394.313 132.855 387.493 132.855 379.093V341.023ZM132.855 341.023H132.845" stroke="#512921" stroke-width="2.56" stroke-linecap="round" stroke-linejoin="round"/>
<path d="M131.436 379.333C131.396 370.923 125.806 365.283 117.396 365.323C108.986 365.363 104.006 372.013 103.626 379.133L103.566 379.613L100.985 411.233C100.955 411.673 100.926 412.113 100.936 412.563C100.976 421.373 132.875 421.223 132.835 412.413C132.835 412.173 132.836 411.933 132.816 411.693C132.816 411.693 132.825 411.693 132.835 411.693C132.785 400.983 131.486 389.683 131.436 379.333Z" fill="#FF73A2"/>
<path d="M102.385 378.303L100.995 411.233C100.965 411.673 100.935 412.113 100.945 412.563C100.985 421.373 132.885 421.223 132.845 412.413C132.845 412.173 132.845 411.933 132.825 411.693C132.825 411.693 132.835 411.693 132.845 411.693C132.795 400.983 132.895 387.673 132.845 377.323" stroke="#512921" stroke-width="2.56" stroke-linecap="round" stroke-linejoin="round"/>
<path d="M111.386 455.283C116.776 456.223 131.036 456.143 132.836 450.553C133.276 447.143 132.956 438.203 132.956 438.203L132.836 411.693C128.316 412.233 122.106 412.833 116.536 412.853C110.486 412.883 104.716 412.103 100.986 411.463L100.306 429.513C100.506 429.533 99.8456 442.983 99.6956 447.463C99.5956 450.423 101.206 453.503 111.386 455.283Z" fill="#FFEBF0" stroke="#512921" stroke-width="2.56" stroke-linecap="round" stroke-linejoin="round"/>
<path d="M107.076 430.853C107.076 430.853 103.836 430.003 100.906 429.583C100.716 429.553 100.516 429.533 100.316 429.513C100.316 429.513 92.8564 429.073 87.6364 434.753C82.6864 440.133 82.8864 451.963 86.5164 456.053C89.9164 459.893 127.006 458.273 129.696 457.103C132.546 455.873 133.026 452.033 133.006 448.183L131.456 440.133C127.176 435.753 107.076 430.843 107.076 430.843V430.853Z" fill="#FFEBF0"/>
<path d="M107.076 430.853C107.076 430.853 103.836 430.003 100.906 429.583C100.716 429.553 100.516 429.533 100.316 429.513C100.316 429.513 92.8564 429.073 87.6364 434.753C82.6864 440.133 82.8864 451.963 86.5164 456.053C89.9164 459.893 127.006 458.273 129.696 457.103C132.546 455.873 133.026 452.033 133.006 448.183L132.976 441.323" stroke="#512921" stroke-width="2.56" stroke-linecap="round" stroke-linejoin="round"/>
<path d="M133.477 341.034C133.567 333.334 139.827 327.124 147.547 327.124C155.117 327.124 161.287 333.093 161.607 340.583H161.637L163.707 373.134L163.957 379.104C163.957 387.514 157.097 394.324 148.697 394.324C140.287 394.324 133.477 387.504 133.477 379.104C133.477 376.874 133.477 374.704 133.477 372.614C133.477 358.314 133.477 341.034 133.477 341.034Z" fill="#FF73A2"/>
<path d="M133.477 341.034C133.567 333.334 139.827 327.124 147.547 327.124C155.117 327.124 161.287 333.093 161.607 340.583H161.637L163.707 373.134L163.957 379.104C163.957 387.514 157.097 394.324 148.697 394.324C140.287 394.324 133.477 387.504 133.477 379.104C133.477 376.874 133.477 374.704 133.477 372.614C133.477 358.314 133.477 341.034 133.477 341.034ZM133.477 341.034H133.487" stroke="#512921" stroke-width="2.56" stroke-linecap="round" stroke-linejoin="round"/>
<path d="M134.855 379.333C134.895 370.923 140.485 365.283 148.895 365.323C157.305 365.363 162.285 372.013 162.665 379.133L162.725 379.613L165.305 411.233C165.335 411.673 165.365 412.113 165.355 412.563C165.315 421.373 133.415 421.223 133.455 412.413C133.455 412.173 133.455 411.933 133.475 411.693C133.475 411.693 133.465 411.693 133.455 411.693C133.505 400.983 134.805 389.683 134.855 379.333Z" fill="#FF73A2"/>
<path d="M163.906 378.303L165.296 411.233C165.326 411.673 165.356 412.113 165.346 412.563C165.306 421.373 133.406 421.223 133.446 412.413C133.446 412.173 133.446 411.933 133.466 411.693C133.466 411.693 133.456 411.693 133.446 411.693C133.496 400.983 133.396 387.673 133.446 377.323" stroke="#512921" stroke-width="2.56" stroke-linecap="round" stroke-linejoin="round"/>
<path d="M154.905 455.283C149.515 456.223 135.255 456.143 133.455 450.553C133.015 447.143 133.335 438.203 133.335 438.203L133.455 411.693C137.975 412.233 144.185 412.833 149.755 412.853C155.805 412.883 161.575 412.103 165.305 411.463L165.985 429.513C165.785 429.533 166.445 442.983 166.595 447.463C166.695 450.423 165.085 453.503 154.905 455.283Z" fill="#FFEBF0" stroke="#512921" stroke-width="2.56" stroke-linecap="round" stroke-linejoin="round"/>
<path d="M159.225 430.853C159.225 430.853 162.465 430.003 165.395 429.583C165.585 429.553 165.785 429.533 165.985 429.513C165.985 429.513 173.446 429.073 178.666 434.753C183.616 440.133 183.416 451.963 179.785 456.053C176.385 459.893 139.295 458.273 136.605 457.103C133.755 455.873 133.276 452.033 133.296 448.183L134.845 440.133C139.125 435.753 159.225 430.843 159.225 430.843V430.853Z" fill="#FFEBF0"/>
<path d="M159.225 430.853C159.225 430.853 162.465 430.003 165.395 429.583C165.585 429.553 165.785 429.533 165.985 429.513C165.985 429.513 173.446 429.073 178.666 434.753C183.616 440.133 183.415 451.963 179.785 456.053C176.385 459.893 139.295 458.273 136.605 457.103C133.755 455.873 133.276 452.033 133.296 448.183L133.326 441.323" stroke="#512921" stroke-width="2.56" stroke-linecap="round" stroke-linejoin="round"/>
<path d="M172.055 310.403C171.325 308.113 168.295 294.343 168.295 294.343C168.295 294.343 152.905 295.463 133.095 295.463C113.285 295.463 97.8948 294.343 97.8948 294.343C97.8948 294.343 94.6048 308.073 93.8748 310.353C93.1948 312.723 92.2047 315.923 91.4747 318.913C90.7747 321.793 90.2948 324.473 90.9348 326.243C95.5248 339.023 116.585 341.873 133.105 341.873C149.625 341.873 170.415 339.063 175.005 326.283C176.305 322.673 173.395 315.033 172.065 310.393L172.055 310.403Z" fill="#AAA0FF" stroke="#512921" stroke-width="2.56" stroke-linecap="round" stroke-linejoin="round"/>
<path d="M132.075 324.403C132.075 312.693 123.635 303.933 111.925 303.933C102.515 303.933 95.965 309.623 93.195 318.113C93.195 318.113 93.195 318.133 93.185 318.163C93.015 318.683 92.8649 319.223 92.7349 319.763C90.6049 327.393 80.3349 358.783 76.7749 369.553C75.8749 372.263 86.2849 376.003 99.8449 377.633C110.395 378.903 133.635 380.283 133.485 378.243L132.075 324.403Z" fill="#AAA0FF"/>
<path d="M91.0249 321.253C91.0249 321.253 80.8349 357.293 76.7749 369.553C75.8749 372.263 86.2849 376.003 99.8449 377.633C110.395 378.903 133.635 380.283 133.485 378.243V331.853" stroke="#512921" stroke-width="2.56" stroke-linecap="round" stroke-linejoin="round"/>
<path d="M134.036 324.403C134.036 312.693 142.476 303.933 154.186 303.933C163.596 303.933 170.146 309.623 172.916 318.113C172.916 318.113 172.916 318.133 172.926 318.163C173.096 318.683 173.246 319.223 173.376 319.763C175.506 327.393 185.776 358.783 189.336 369.553C190.236 372.263 179.826 376.003 166.266 377.633C155.716 378.903 132.476 380.283 132.626 378.243L134.036 324.403Z" fill="#AAA0FF"/>
<path d="M175.086 321.253C175.086 321.253 185.276 357.293 189.336 369.553C190.236 372.263 179.826 376.003 166.266 377.633C155.716 378.903 132.476 380.283 132.626 378.243V331.853" stroke="#512921" stroke-width="2.56" stroke-linecap="round" stroke-linejoin="round"/>
<path d="M125.186 330.343C130.846 332.513 135.035 332.203 141.085 330.343" stroke="#512921" stroke-width="2.56" stroke-linecap="round" stroke-linejoin="round"/>
<path d="M103.525 305.053C103.525 305.053 116.755 307.003 132.695 307.003C147.135 307.003 162.735 305.053 162.735 305.053" stroke="#512921" stroke-width="2.56" stroke-linecap="round" stroke-linejoin="round"/>
<path d="M174.856 292.543C173.256 299.343 144.126 300.753 133.136 300.753C122.146 300.753 96.8158 299.003 91.1658 294.163C87.5358 291.053 105.276 231.513 109.856 226.743C113.526 222.913 150.886 220.973 154.436 224.853C161.636 232.713 175.996 287.653 174.856 292.543Z" fill="white"/>
<path d="M162.607 244.933C169.167 262.773 175.867 289.133 174.857 292.543C172.927 299.073 144.127 300.753 133.137 300.753C122.147 300.753 94.6867 298.733 91.1667 294.163C89.1267 291.513 96.7666 263.323 103.107 244.973" stroke="#512921" stroke-width="2.56" stroke-linecap="round" stroke-linejoin="round"/>
<path d="M133.136 281.663C145.508 281.663 155.536 271.634 155.536 259.263C155.536 246.892 145.508 236.863 133.136 236.863C120.765 236.863 110.736 246.892 110.736 259.263C110.736 271.634 120.765 281.663 133.136 281.663Z" fill="#AAA0FF"/>
<path d="M150.917 259.273C150.587 259.273 150.267 259.153 150.007 258.913C149.957 258.873 144.587 254.033 133.137 254.033C122.857 254.033 116.197 258.753 116.127 258.793C115.537 259.223 114.707 259.083 114.277 258.493C113.847 257.903 113.977 257.073 114.567 256.643C114.867 256.423 121.947 251.373 133.127 251.373C145.707 251.373 151.567 256.743 151.807 256.973C152.337 257.473 152.367 258.313 151.867 258.843C151.607 259.123 151.257 259.263 150.907 259.263L150.917 259.273Z" fill="white"/>
<path d="M135.186 268.153V281.573C134.506 281.633 133.826 281.663 133.136 281.663C132.446 281.663 131.756 281.633 131.076 281.573V268.153C131.076 267.973 131.246 267.823 131.456 267.823H134.806C135.016 267.823 135.186 267.973 135.186 268.153Z" fill="white"/>
<path d="M133.137 270.483C136.683 270.483 139.557 267.739 139.557 264.353C139.557 260.968 136.683 258.223 133.137 258.223C129.591 258.223 126.717 260.968 126.717 264.353C126.717 267.739 129.591 270.483 133.137 270.483Z" fill="white"/>
<path d="M133.137 231.543C141.647 231.543 148.547 226.614 148.547 220.533C148.547 214.453 141.647 209.523 133.137 209.523C124.626 209.523 117.727 214.453 117.727 220.533C117.727 226.614 124.626 231.543 133.137 231.543Z" fill="#FF73A2"/>
<path d="M133.137 231.543C141.647 231.543 148.547 226.614 148.547 220.533C148.547 214.453 141.647 209.523 133.137 209.523C124.626 209.523 117.727 214.453 117.727 220.533C117.727 226.614 124.626 231.543 133.137 231.543Z" stroke="#512921" stroke-width="2.56" stroke-linecap="round" stroke-linejoin="round"/>
<path opacity="0.2" d="M215.976 295.803C217.696 290.383 213.766 282.493 208.266 274.943C210.336 270.873 210.686 267.753 209.266 265.843C207.306 260.693 182.896 237.963 174.366 230.653C165.456 223.023 154.726 223.243 154.276 223.253C153.736 223.273 153.296 223.613 153.116 224.093C152.196 223.753 150.936 223.473 149.386 223.263C149.656 222.383 149.816 221.473 149.816 220.533C149.816 213.753 142.326 208.243 133.126 208.243C123.926 208.243 116.436 213.753 116.436 220.533C116.436 221.873 116.746 223.173 117.286 224.383C115.696 224.653 114.286 224.953 113.116 225.273C113.276 225.073 113.386 224.843 113.396 224.563C113.416 223.853 112.856 223.273 112.156 223.253C111.716 223.243 100.976 223.023 92.0658 230.653C83.5358 237.953 59.1257 260.693 57.1657 265.843C55.7457 267.753 56.0957 270.873 58.1657 274.943C52.6657 282.493 48.7258 290.383 50.4558 295.803C52.4158 301.963 57.2057 308.693 61.7657 314.123C63.3057 316.473 65.6757 319.293 66.9857 320.813C65.5057 322.033 64.6657 323.483 64.5057 325.133C64.1557 328.673 67.0757 331.813 68.3457 333.003C70.1957 334.723 73.0957 335.643 76.5357 335.643C77.3557 335.643 78.2058 335.593 79.0758 335.483C81.2758 335.213 83.7957 334.543 86.2257 333.393C84.0557 340.953 81.2457 350.633 78.8657 358.543C74.4257 359.893 69.8957 360.273 65.2657 359.643C52.2257 357.893 42.5057 352.493 36.3757 343.583C24.8657 326.863 28.4158 302.023 31.5557 288.703C31.6957 288.123 31.8057 287.533 31.9257 286.943C32.0357 286.383 32.1457 285.823 32.2757 285.263C33.8457 278.583 36.2858 272.213 38.4358 266.593C40.0758 262.313 41.6257 258.273 42.5457 254.723C44.3757 247.663 42.7957 242.173 38.1057 239.243C33.0257 236.073 27.0257 237.043 21.2157 241.973C13.5157 248.493 7.10573 262.673 3.15573 281.883C2.52573 284.943 1.96568 288.123 1.48568 291.343C-1.91432 314.173 0.545688 334.613 8.61569 350.453C18.0457 368.973 34.3357 380.133 57.0257 383.623C60.7057 384.193 64.2357 384.453 67.6257 384.453C77.9057 384.453 86.9257 382.023 94.7457 378.183C96.4057 378.463 98.0758 378.703 99.6858 378.903C99.7258 378.903 100.226 378.963 101.066 379.043L99.7058 411.123C99.7058 411.213 99.7058 411.303 99.6958 411.393L99.6757 411.793C99.6657 412.043 99.6457 412.293 99.6457 412.543C99.6457 412.543 99.6457 412.553 99.6457 412.563L99.0557 428.223C96.5557 428.353 90.9557 429.203 86.6657 433.863C81.2257 439.783 81.4157 452.243 85.5357 456.873C86.1657 457.583 88.0557 459.713 106.546 459.713C107.136 459.713 107.746 459.713 108.366 459.713C117.246 459.653 128.386 459.033 130.186 458.253C131.596 457.643 132.526 456.583 133.136 455.283C133.746 456.583 134.676 457.643 136.086 458.253C137.886 459.033 149.026 459.643 157.906 459.713C158.526 459.713 159.136 459.713 159.726 459.713C178.216 459.713 180.106 457.583 180.736 456.873C184.846 452.233 185.046 439.773 179.596 433.863C175.366 429.263 169.776 428.383 167.206 428.233L166.616 412.563C166.616 412.563 166.616 412.553 166.616 412.543C166.616 412.063 166.596 411.583 166.566 411.153L165.206 379.053C165.206 379.053 165.206 379.033 165.206 379.013V378.993C165.936 378.923 166.366 378.873 166.396 378.873C176.296 377.683 187.966 374.803 190.196 371.293C190.766 370.403 190.686 369.623 190.526 369.123C188.026 361.573 183.146 344.803 179.806 333.163C182.356 334.433 185.026 335.163 187.346 335.443C188.216 335.553 189.066 335.603 189.886 335.603C193.326 335.603 196.226 334.683 198.076 332.963C199.346 331.773 202.266 328.643 201.916 325.093C201.756 323.443 200.916 321.993 199.436 320.773C200.746 319.263 203.106 316.443 204.656 314.083C209.216 308.653 214.006 301.923 215.966 295.763L215.976 295.803ZM175.966 304.373C175.966 304.373 175.916 304.473 175.886 304.513C174.836 305.873 173.826 307.293 172.936 308.773C172.656 307.703 172.296 306.163 171.896 304.483C173.476 304.253 175.256 303.713 177.166 302.913C176.976 303.143 176.786 303.383 176.596 303.613C176.246 304.033 176.006 304.313 175.956 304.373H175.966ZM90.5658 304.513C90.5658 304.513 90.5257 304.413 90.4857 304.373C90.4357 304.313 90.1957 304.023 89.8457 303.613C89.6557 303.373 89.4657 303.143 89.2757 302.913C91.0157 303.643 92.6457 304.153 94.1257 304.413C93.7657 305.833 93.4357 307.163 93.1557 308.193C92.3557 306.923 91.4758 305.693 90.5658 304.513Z" fill="#3B214F"/>
<path d="M204.875 6.47339C178.935 34.5434 150.385 52.6634 141.715 58.6234C140.405 59.4234 139.115 60.2634 137.875 61.1534C137.805 61.2034 137.765 61.2234 137.765 61.2234H137.775C121.675 72.8534 111.485 92.0434 112.245 113.363C113.455 147.363 141.985 173.933 175.975 172.733C201.895 171.813 223.485 154.993 231.755 131.983C248.785 90.0234 233.335 -24.3066 204.885 6.47339H204.875Z" fill="#FF73A2"/>
<path d="M204.875 6.47339C178.935 34.5434 150.385 52.6634 141.715 58.6234C140.405 59.4234 139.115 60.2634 137.875 61.1534C137.805 61.2034 137.765 61.2234 137.765 61.2234H137.775C121.675 72.8534 111.485 92.0434 112.245 113.363C113.455 147.363 141.985 173.933 175.975 172.733C201.895 171.813 223.485 154.993 231.755 131.983C248.785 90.0234 233.335 -24.3066 204.885 6.47339H204.875Z" stroke="#512921" stroke-width="2.56" stroke-linecap="round" stroke-linejoin="round"/>
<path d="M214.425 24.9536C214.425 24.9536 198.875 73.1736 193.475 78.5436C203.065 86.6536 218.375 104.954 220.905 109.764C226.075 102.274 228.105 38.8136 214.425 24.9536Z" fill="#FFEBF0"/>
<path d="M216.345 15.2134C207.185 58.5034 183.375 99.9934 183.375 99.9934" stroke="#512921" stroke-width="2.56" stroke-linecap="round" stroke-linejoin="round"/>
<path d="M214.256 24.1333C220.496 27.1133 232.326 80.5633 218.986 115.473" stroke="#512921" stroke-width="2.56" stroke-linecap="round" stroke-linejoin="round"/>
<path d="M43.0365 12.2235C70.9065 38.3835 100.666 54.4335 109.746 59.7535C111.106 60.4635 112.456 61.2035 113.756 62.0035C113.826 62.0435 113.876 62.0635 113.876 62.0635H113.866C130.746 72.5235 142.277 90.9335 143.036 112.263C144.247 146.263 117.677 174.793 83.6865 176.003C57.7665 176.923 35.0365 161.683 25.1565 139.313C5.18649 98.6635 12.4765 -16.4665 43.0465 12.2135L43.0365 12.2235Z" fill="#FF73A2"/>
<path d="M43.0365 12.2235C70.9065 38.3835 100.666 54.4335 109.746 59.7535C111.106 60.4635 112.456 61.2035 113.756 62.0035C113.826 62.0435 113.876 62.0635 113.876 62.0635H113.866C130.746 72.5235 142.276 90.9335 143.036 112.263C144.246 146.263 117.677 174.793 83.6865 176.003C57.7665 176.923 35.0365 161.683 25.1565 139.313C5.18649 98.6635 12.4765 -16.4665 43.0465 12.2135L43.0365 12.2235Z" stroke="#512921" stroke-width="2.56" stroke-linecap="round" stroke-linejoin="round"/>
<path d="M34.8259 31.3332C34.8259 31.3332 53.7659 78.3332 59.5259 83.2932C50.5359 92.0632 36.5659 111.413 34.3859 116.383C28.6959 109.283 22.2159 49.6532 34.8259 31.3232V31.3332Z" fill="#FFEBF0"/>
<path d="M32.207 21.7637C44.427 64.2937 71.1169 103.984 71.1169 103.984" stroke="#512921" stroke-width="2.56" stroke-linecap="round" stroke-linejoin="round"/>
<path d="M34.937 30.5034C28.927 33.9234 20.927 88.0834 36.707 121.953" stroke="#512921" stroke-width="2.56" stroke-linecap="round" stroke-linejoin="round"/>
<path d="M125.547 54.0831C74.1066 55.9131 35.6866 87.0431 24.4966 144.093C22.9366 152.063 20.9467 156.823 16.4467 159.753C15.1067 160.613 14.4866 162.323 14.9866 163.893C28.1466 205.253 78.4966 226.723 131.617 224.833C184.737 222.943 233.437 197.943 243.627 155.763C244.017 154.153 243.267 152.503 241.877 151.733C237.177 149.133 234.857 144.513 232.727 136.683C217.517 80.5731 176.987 52.2431 125.547 54.0731V54.0831Z" fill="#FF73A2"/>
<path d="M26.0767 136.943C25.5067 139.283 24.9766 141.663 24.4966 144.093C22.9366 152.063 20.9467 156.823 16.4467 159.753C15.1067 160.613 14.4866 162.323 14.9866 163.893C28.1466 205.253 78.4966 226.723 131.617 224.833C184.737 222.943 233.437 197.943 243.627 155.763C244.017 154.153 243.267 152.503 241.877 151.733C237.177 149.133 234.857 144.513 232.727 136.683C232.077 134.293 231.387 131.953 230.647 129.663" stroke="#512921" stroke-width="2.56" stroke-linecap="round" stroke-linejoin="round"/>
<path d="M223.977 112.793C204.807 72.5832 169.077 52.5232 125.547 54.0732C82.0071 55.6232 47.7971 78.1632 31.5371 119.633" stroke="#512921" stroke-width="2.56" stroke-linecap="round" stroke-linejoin="round"/>
<path d="M204.535 174.703C197.785 188.313 184.275 197.293 183.925 199.083C183.575 200.883 189.595 209.803 190.925 211.913C173.305 219.653 152.815 224.083 131.615 224.833C110.485 225.583 89.7953 222.643 71.7053 216.213C72.8653 214.063 74.6652 211.413 77.3452 203.943C77.4852 203.563 61.4652 194.703 54.1052 180.503C48.0352 168.803 46.2952 155.473 48.0152 149.553C48.3452 148.423 60.5453 120.643 113.795 110.383C114.535 110.253 115.285 110.123 116.045 109.983C117.055 107.773 125.485 88.4433 125.485 88.4433C125.715 87.8333 126.235 87.4933 126.785 87.4233C127.365 87.4233 127.955 87.7233 128.255 88.3533C128.255 88.3533 138.035 107.043 139.205 109.173C140.175 109.283 141.135 109.383 142.085 109.473C195.405 116.033 208.435 141.353 208.875 142.433C210.345 146.083 210.465 162.773 204.545 174.693L204.535 174.703Z" fill="#FFEBF0" stroke="#512921" stroke-width="2.56" stroke-linecap="round" stroke-linejoin="round"/>
<path d="M108.336 158.523L124.186 169.663L115.366 157.263L136.376 167.663L127.556 156.633L145.406 168.923" stroke="#C1A2F4" stroke-width="2.56" stroke-linecap="round" stroke-linejoin="round"/>
<path opacity="0.2" d="M179.165 166.003C179.295 175.053 157.335 177.663 129.545 178.053C101.765 178.453 78.6853 176.483 78.5553 167.433C78.4253 158.383 100.395 149.053 128.175 148.653C155.955 148.253 179.025 156.943 179.155 165.993L179.165 166.003Z" fill="#3B214F"/>
<path d="M111.045 174.354C112.025 167.244 100.035 160.384 84.7048 159.254C71.3748 158.274 68.6948 164.574 70.3048 172.324C71.1048 176.204 76.6448 182.364 86.6648 183.544C99.1048 185.014 110.335 179.514 111.045 174.354Z" fill="white"/>
<mask id="mask0_16767_3283" style="mask-type:luminance" maskUnits="userSpaceOnUse" x="69" y="159" width="43" height="25">
<path d="M111.045 174.354C112.025 167.244 100.035 160.384 84.7048 159.254C71.3748 158.274 68.6948 164.574 70.3048 172.324C71.1048 176.204 76.6448 182.364 86.6648 183.544C99.1048 185.014 110.335 179.514 111.045 174.354Z" fill="white"/>
</mask>
<g mask="url(#mask0_16767_3283)">
<path d="M98.8649 183.982C106.956 183.082 112.751 175.495 111.81 167.036C110.869 158.578 103.547 152.451 95.4562 153.351C87.3655 154.252 81.5697 161.838 82.511 170.297C83.4523 178.755 90.7742 184.882 98.8649 183.982Z" fill="#512921"/>
<path d="M88.5044 169.074C90.9565 169.074 92.9445 167.086 92.9445 164.634C92.9445 162.182 90.9565 160.194 88.5044 160.194C86.0523 160.194 84.0645 162.182 84.0645 164.634C84.0645 167.086 86.0523 169.074 88.5044 169.074Z" fill="white"/>
</g>
<path d="M111.045 174.354C112.025 167.244 100.035 160.384 84.7048 159.254C71.3748 158.274 68.6948 164.574 70.3048 172.324C71.1048 176.204 76.6448 182.364 86.6648 183.544C99.1048 185.014 110.335 179.514 111.045 174.354Z" stroke="#512921" stroke-width="2.56" stroke-linecap="round" stroke-linejoin="round"/>
<path d="M71.325 163.054C68.765 167.104 64.0449 161.514 64.0449 161.514" stroke="#512921" stroke-width="2.56" stroke-linecap="round" stroke-linejoin="round"/>
<path d="M148.715 173.013C147.235 165.993 159.295 159.413 174.505 157.203C187.735 155.283 190.255 160.243 189.205 168.093C188.675 172.013 183.595 178.553 173.685 180.443C161.375 182.793 149.795 178.103 148.715 173.003V173.013Z" fill="white"/>
<mask id="mask1_16767_3283" style="mask-type:luminance" maskUnits="userSpaceOnUse" x="148" y="156" width="42" height="26">
<path d="M148.715 173.013C147.235 165.993 159.295 159.413 174.505 157.203C187.735 155.283 190.255 160.243 189.205 168.093C188.675 172.013 183.595 178.553 173.685 180.443C161.375 182.793 149.795 178.103 148.715 173.003V173.013Z" fill="white"/>
</mask>
<g mask="url(#mask1_16767_3283)">
<path d="M189.382 166.54C189.721 158.036 183.401 150.879 175.267 150.555C167.133 150.232 160.264 156.863 159.926 165.367C159.587 173.871 165.907 181.027 174.041 181.351C182.175 181.675 189.044 175.044 189.382 166.54Z" fill="#512921"/>
<path d="M166.485 166.433C168.937 166.433 170.925 164.445 170.925 161.993C170.925 159.541 168.937 157.553 166.485 157.553C164.033 157.553 162.045 159.541 162.045 161.993C162.045 164.445 164.033 166.433 166.485 166.433Z" fill="white"/>
</g>
<path d="M148.715 173.013C147.235 165.993 159.295 159.413 174.505 157.203C187.735 155.283 190.255 160.243 189.205 168.093C188.675 172.013 183.595 178.553 173.685 180.443C161.375 182.793 149.795 178.103 148.715 173.003V173.013Z" stroke="#512921" stroke-width="2.56" stroke-linecap="round" stroke-linejoin="round"/>
<path d="M187.074 158.643C191.724 160.333 194.924 155.493 194.924 155.493" stroke="#512921" stroke-width="2.56" stroke-linecap="round" stroke-linejoin="round"/>
<path d="M110.607 151.464C107.907 155.494 103.987 141.564 99.7266 140.934" stroke="#512921" stroke-width="2.56" stroke-linecap="round" stroke-linejoin="round"/>
<path d="M147.426 149.613C151.126 152.293 151.466 140.223 155.676 139.293" stroke="#512921" stroke-width="2.56" stroke-linecap="round" stroke-linejoin="round"/>
<path d="M122.935 176.743C122.885 175.253 124.175 174.093 129.315 173.913C134.465 173.733 135.835 174.953 135.885 176.283C135.935 177.613 132.545 180.453 129.555 180.553C126.565 180.653 122.985 178.233 122.935 176.743Z" fill="#FF73A2"/>
<path d="M122.935 176.743C122.885 175.253 124.175 174.093 129.315 173.913C134.465 173.733 135.835 174.953 135.885 176.283C135.935 177.613 132.545 180.453 129.555 180.553C126.565 180.653 122.985 178.233 122.935 176.743Z" stroke="#512921" stroke-width="2.56" stroke-linecap="round" stroke-linejoin="round"/>
<path d="M121.686 193.253C121.686 193.253 129.595 190.693 130.385 190.973C136.305 193.093 145.486 190.403 143.686 189.403" stroke="#512921" stroke-width="2.56" stroke-linecap="round" stroke-linejoin="round"/>
<path d="M214.645 102.764C214.465 102.764 214.275 102.734 214.095 102.684C213.715 102.574 204.675 99.8036 201.665 88.0236C198.585 75.9936 208.415 67.0636 208.835 66.6836C209.195 66.3636 209.665 66.1836 210.145 66.1836C210.205 66.1836 210.265 66.1836 210.325 66.1836C210.865 66.2336 211.365 66.5036 211.705 66.9436L218.375 75.5336C219.025 76.3636 218.895 77.5636 218.095 78.2436C217.445 78.7936 216.855 79.2936 216.305 79.7436C212.115 83.2436 212.025 83.5436 212.505 85.1736C213.585 88.8136 219.435 91.1436 221.595 91.7336C222.255 91.9136 222.775 92.4236 222.975 93.0836C223.165 93.7436 223.005 94.4536 222.555 94.9636L216.125 102.114C215.745 102.534 215.205 102.764 214.655 102.764H214.645Z" fill="#DD2C46"/>
<path d="M210.136 68.1634L216.806 76.7534C211.436 81.3134 209.576 82.2734 210.606 85.7434C212.236 91.2634 221.076 93.6434 221.076 93.6434L214.646 100.793C214.646 100.793 206.346 98.3633 203.566 87.5434C200.746 76.5434 210.136 68.1634 210.136 68.1634ZM210.136 64.2134C209.176 64.2134 208.236 64.5634 207.506 65.2134C207.046 65.6234 196.356 75.3334 199.736 88.5134C203.026 101.373 213.096 104.453 213.526 104.573C213.896 104.683 214.266 104.733 214.636 104.733C215.736 104.733 216.806 104.273 217.566 103.423L223.996 96.2734C224.916 95.2534 225.236 93.8334 224.846 92.5134C224.456 91.2034 223.416 90.1833 222.086 89.8233C219.386 89.0833 215.056 86.9034 214.376 84.6134C214.326 84.4334 214.296 84.3033 214.276 84.2233C214.676 83.6533 216.196 82.3834 217.546 81.2534C218.096 80.7934 218.696 80.2934 219.346 79.7434C220.956 78.3734 221.206 75.9834 219.906 74.3134L213.236 65.7234C212.566 64.8634 211.566 64.3134 210.476 64.2134C210.356 64.2034 210.236 64.1934 210.116 64.1934L210.136 64.2134Z" fill="white"/>
<path d="M199.196 116.223C198.946 116.223 198.696 116.173 198.456 116.083C197.826 115.823 197.365 115.263 197.245 114.583C196.865 112.373 195.115 106.323 191.595 104.903C191.095 104.703 190.705 104.603 190.395 104.603C189.465 104.603 188.326 105.693 185.826 108.163C185.316 108.663 184.766 109.213 184.156 109.803C183.776 110.173 183.276 110.363 182.786 110.363C182.296 110.363 181.816 110.183 181.436 109.823L173.525 102.363C173.115 101.973 172.886 101.423 172.906 100.853C172.926 100.283 173.195 99.7534 173.635 99.3934C173.985 99.1134 182.286 92.4434 190.696 92.4434C192.516 92.4434 194.236 92.7634 195.806 93.3834C207.106 97.8734 208.805 107.813 208.875 108.233C208.995 108.963 208.695 109.693 208.095 110.133L200.365 115.843C200.025 116.093 199.606 116.233 199.196 116.233V116.223Z" fill="#DD2C46"/>
<path d="M190.696 94.4134C192.186 94.4134 193.656 94.6534 195.076 95.2134C205.466 99.3434 206.926 108.543 206.926 108.543L199.196 114.253C199.196 114.253 197.676 105.233 192.336 103.073C191.606 102.783 190.986 102.633 190.396 102.633C188.296 102.633 186.736 104.543 182.786 108.383L174.876 100.923C174.876 100.923 182.886 94.4134 190.696 94.4134ZM190.706 90.4634C181.606 90.4634 172.776 97.5534 172.406 97.8534C171.526 98.5734 170.996 99.6334 170.946 100.773C170.906 101.913 171.356 103.013 172.176 103.793L180.086 111.253C180.846 111.973 181.816 112.333 182.796 112.333C183.776 112.333 184.776 111.963 185.546 111.223C186.156 110.633 186.716 110.083 187.226 109.573C188.476 108.333 189.886 106.943 190.496 106.603C190.566 106.623 190.696 106.663 190.876 106.733C193.096 107.623 194.836 112.143 195.326 114.923C195.556 116.273 196.476 117.403 197.746 117.913C198.226 118.103 198.726 118.193 199.226 118.193C200.056 118.193 200.876 117.933 201.566 117.423L209.296 111.713C210.486 110.833 211.076 109.373 210.846 107.923C210.776 107.453 208.886 96.4534 196.556 91.5434C194.756 90.8334 192.796 90.4634 190.716 90.4634H190.706Z" fill="white"/>
<path d="M179.827 91.6035C176.567 91.6035 174.327 90.7835 174.237 90.7535C173.567 90.5035 173.077 89.9135 172.977 89.2035L171.517 79.7035C171.407 78.9835 171.707 78.2535 172.287 77.8235C172.637 77.5635 173.047 77.4335 173.467 77.4335C173.757 77.4335 174.047 77.4935 174.307 77.6235C174.347 77.6435 178.137 79.4035 181.647 79.4035C183.237 79.4035 184.477 79.0335 185.317 78.3135C186.827 77.0335 186.537 75.4135 184.647 69.0335L184.387 68.1635C184.087 67.1535 184.637 66.0835 185.637 65.7435L195.917 62.2135C196.127 62.1435 196.337 62.1035 196.557 62.1035C196.867 62.1035 197.177 62.1735 197.457 62.3235C197.937 62.5635 198.287 62.9935 198.447 63.5035C198.627 64.0835 202.667 77.7435 193.457 86.1435C188.517 90.6535 183.307 91.6035 179.807 91.6035H179.827Z" fill="#DD2C46"/>
<path d="M196.577 64.0735C196.577 64.0735 200.537 77.0235 192.147 84.6835C187.757 88.6935 183.167 89.6236 179.837 89.6236C176.897 89.6236 174.927 88.8935 174.927 88.8935L173.467 79.3935C173.467 79.3935 177.627 81.3635 181.657 81.3635C183.467 81.3635 185.247 80.9635 186.607 79.8135C189.367 77.4735 188.287 74.3535 186.297 67.6035L196.577 64.0735ZM196.577 60.1335C196.147 60.1335 195.717 60.2035 195.297 60.3435L185.017 63.8735C183.017 64.5635 181.917 66.6935 182.517 68.7235L182.777 69.5935C183.597 72.3535 184.237 74.5235 184.327 75.8735C184.367 76.5535 184.317 76.6035 184.067 76.8135C183.467 77.3235 182.427 77.4335 181.667 77.4335C179.137 77.4335 176.107 76.2835 175.157 75.8335C174.627 75.5835 174.047 75.4635 173.487 75.4635C172.647 75.4635 171.817 75.7335 171.117 76.2535C169.947 77.1235 169.357 78.5635 169.577 80.0035L171.037 89.5036C171.257 90.9236 172.227 92.1035 173.567 92.6035C173.837 92.7035 176.297 93.5735 179.847 93.5735C183.697 93.5735 189.407 92.5336 194.817 87.5936C204.927 78.3636 200.547 63.5435 200.357 62.9135C200.047 61.8935 199.327 61.0435 198.377 60.5535C197.817 60.2635 197.197 60.1235 196.587 60.1235L196.577 60.1335Z" fill="white"/>
<path opacity="0.4" d="M232.725 136.693C232.345 135.283 231.945 133.903 231.525 132.533C231.595 132.353 231.665 132.163 231.735 131.983C248.765 90.0234 233.315 -24.3066 204.865 6.47339C182.785 30.3634 158.835 47.0434 146.835 55.1534C146.145 55.0534 145.455 54.9634 144.755 54.8734C144.245 54.8134 143.735 54.7634 143.225 54.7034C142.305 54.6034 141.385 54.5134 140.455 54.4334C139.905 54.3834 139.355 54.3434 138.805 54.3034C137.895 54.2434 136.975 54.1834 136.055 54.1434C135.505 54.1134 134.965 54.0934 134.415 54.0734C133.425 54.0434 132.425 54.0234 131.415 54.0134C130.945 54.0134 130.465 53.9934 129.995 53.9934C128.515 53.9934 127.035 54.0134 125.535 54.0734C124.035 54.1234 122.555 54.2134 121.085 54.3134C120.615 54.3434 120.145 54.3934 119.665 54.4334C118.665 54.5134 117.665 54.6034 116.675 54.7034C116.125 54.7634 115.585 54.8234 115.045 54.8934C114.125 55.0034 113.215 55.1234 112.305 55.2434C111.755 55.3234 111.205 55.4034 110.665 55.4834C109.745 55.6234 108.835 55.7834 107.925 55.9434C107.425 56.0334 106.915 56.1234 106.425 56.2134C105.735 56.3434 105.055 56.4934 104.365 56.6434C91.825 49.4034 66.745 34.4734 43.025 12.2134C12.455 -16.4666 5.16501 98.6634 25.135 139.313C25.215 139.493 25.305 139.663 25.385 139.843C25.075 141.243 24.765 142.653 24.485 144.083C23.165 150.823 21.535 155.273 18.335 158.253C41.735 195.403 82.8551 218.593 128.805 218.593C177.695 218.593 219.335 192.353 240.645 150.963C236.745 148.253 234.655 143.803 232.725 136.683V136.693Z" fill="url(#paint0_linear_16767_3283)"/>
<defs>
<linearGradient id="paint0_linear_16767_3283" x1="134.245" y1="243.403" x2="121.645" y2="-22.1066" gradientUnits="userSpaceOnUse">
<stop offset="0.04" stop-color="#3B214F" stop-opacity="0"/>
<stop offset="0.43" stop-color="#3B214F" stop-opacity="0.78"/>
<stop offset="0.82" stop-color="#3B214F" stop-opacity="0.8"/>
</linearGradient>
</defs>
</svg>
