<svg width="252" height="494" viewBox="0 0 252 494" fill="none" xmlns="http://www.w3.org/2000/svg">
<path d="M104.842 347.8C104.512 347.8 104.192 347.82 103.862 347.86C103.622 347.9 103.792 347.87 103.742 347.88C103.782 347.88 103.742 347.88 103.852 347.87L104.272 347.81L105.222 347.66C136.782 342.91 169.202 339.05 200.922 345.08C248.002 354.7 259.942 387.82 242.002 430.22C236.372 443.68 228.992 455.53 220.302 466.78C215.932 472.33 211.582 478.23 204.712 480.87C203.122 481.49 201.702 481.92 199.912 482.22C193.582 483.5 187.412 479.4 186.132 473.06C185.902 472.19 185.762 468.69 185.682 467.71C185.872 462.37 188.662 457.29 192.022 453.37C205.492 437.47 226.272 414.46 229.242 393.84C231.952 374.96 213.892 365.23 197.312 361.29C169.012 354.9 138.582 358.02 110.252 363.81C109.362 364.02 107.352 364.45 106.412 364.63C101.272 365.64 96.2921 361.54 96.3521 356.28C96.3521 351.59 100.152 347.78 104.842 347.78V347.8Z" fill="#FF73A2"/>
<mask id="mask0_16767_3614" style="mask-type:luminance" maskUnits="userSpaceOnUse" x="96" y="341" width="154" height="142">
<path d="M104.842 347.8C104.512 347.8 104.192 347.82 103.862 347.86C103.622 347.9 103.792 347.87 103.742 347.88C103.782 347.88 103.742 347.88 103.852 347.87L104.272 347.81L105.222 347.66C136.782 342.91 169.202 339.05 200.922 345.08C248.002 354.7 259.942 387.82 242.002 430.22C236.372 443.68 228.992 455.53 220.302 466.78C215.932 472.33 211.582 478.23 204.712 480.87C203.122 481.49 201.702 481.92 199.912 482.22C193.582 483.5 187.412 479.4 186.132 473.06C185.902 472.19 185.762 468.69 185.682 467.71C185.872 462.37 188.662 457.29 192.022 453.37C205.492 437.47 226.272 414.46 229.242 393.84C231.952 374.96 213.892 365.23 197.312 361.29C169.012 354.9 138.582 358.02 110.252 363.81C109.362 364.02 107.352 364.45 106.412 364.63C101.272 365.64 96.2921 361.54 96.3521 356.28C96.3521 351.59 100.152 347.78 104.842 347.78V347.8Z" fill="white"/>
</mask>
<g mask="url(#mask0_16767_3614)">
<path d="M194.282 431.52C194.282 431.52 244.203 434.55 233.993 467.87C223.783 501.19 182.183 496.27 182.183 496.27L168.562 471.28L179.153 443.26L194.282 431.52Z" fill="#FDEDF1" stroke="#502823" stroke-width="2.64" stroke-linecap="round" stroke-linejoin="round"/>
</g>
<path d="M104.842 347.8C104.512 347.8 104.192 347.82 103.862 347.86C103.622 347.9 103.792 347.87 103.742 347.88C103.782 347.88 103.742 347.88 103.852 347.87L104.272 347.81L105.222 347.66C136.782 342.91 169.202 339.05 200.922 345.08C248.002 354.7 259.942 387.82 242.002 430.22C236.372 443.68 228.992 455.53 220.302 466.78C215.932 472.33 211.582 478.23 204.712 480.87C203.122 481.49 201.702 481.92 199.912 482.22C193.582 483.5 187.412 479.4 186.132 473.06C185.902 472.19 185.762 468.69 185.682 467.71C185.872 462.37 188.662 457.29 192.022 453.37C205.492 437.47 226.272 414.46 229.242 393.84C231.952 374.96 213.892 365.23 197.312 361.29C169.012 354.9 138.582 358.02 110.252 363.81C109.362 364.02 107.352 364.45 106.412 364.63C101.272 365.64 96.2921 361.54 96.3521 356.28C96.3521 351.59 100.152 347.78 104.842 347.78V347.8Z" stroke="#502823" stroke-width="2.64" stroke-linecap="round" stroke-linejoin="round"/>
<path d="M61.1017 300.87C59.8317 302.15 34.0916 355.99 33.3216 355.99C32.5516 355.99 17.2616 358.03 19.5616 364.16C21.8516 370.28 51.1616 373.35 58.5516 368.5C65.9416 363.65 83.0118 309.81 82.2518 309.81" fill="#FF73A2"/>
<mask id="mask1_16767_3614" style="mask-type:luminance" maskUnits="userSpaceOnUse" x="19" y="300" width="64" height="71">
<path d="M61.1017 300.87C59.8317 302.15 34.0916 355.99 33.3216 355.99C32.5516 355.99 17.2616 358.03 19.5616 364.16C21.8516 370.28 51.1616 373.35 58.5516 368.5C65.9416 363.65 83.0118 309.81 82.2518 309.81" fill="white"/>
</mask>
<g mask="url(#mask1_16767_3614)">
<path d="M35.3616 338.12C35.3616 338.12 61.1016 351.9 74.6116 347.56C88.1216 343.22 59.0615 380.73 59.0615 380.73L20.3215 380.99L3.76172 370.02L13.7017 350.88L35.3616 338.12Z" fill="#FFEBF0" stroke="#512921" stroke-width="2.64" stroke-linecap="round" stroke-linejoin="round"/>
</g>
<path d="M61.1017 300.87C59.8317 302.15 34.0916 355.99 33.3216 355.99C32.5516 355.99 17.2616 358.03 19.5616 364.16C21.8516 370.28 51.1616 373.35 58.5516 368.5C65.9416 363.65 83.0118 309.81 82.2518 309.81" stroke="#512921" stroke-width="2.64" stroke-linecap="round" stroke-linejoin="round"/>
<path d="M160.172 336.59C159.382 334.13 156.132 319.31 156.132 319.31C156.132 319.31 139.592 320.52 118.292 320.52C96.9916 320.52 80.4517 319.31 80.4517 319.31C80.4517 319.31 76.9116 334.09 76.1316 336.55C75.4016 339.1 74.3416 342.54 73.5516 345.77C72.7916 348.87 72.2817 351.76 72.9717 353.66C77.9117 367.42 100.552 370.49 118.302 370.49C136.052 370.49 158.412 367.46 163.352 353.71C164.742 349.83 161.622 341.6 160.192 336.6L160.172 336.59Z" fill="#AAA0FF" stroke="#512921" stroke-width="2.64" stroke-linecap="round" stroke-linejoin="round"/>
<path d="M76.7219 335.39C74.0219 337.64 69.2318 342.35 68.3618 348.26C68.3618 348.26 51.9219 379.23 51.9219 386.64C51.9219 397.85 62.9319 400.19 86.1919 401.76C109.452 403.33 117.922 399.35 118.362 395.09C118.812 390.84 118.812 359.27 118.812 359.27" fill="#AAA0FF"/>
<path d="M76.7219 335.39C74.0219 337.64 69.2318 342.35 68.3618 348.26C68.3618 348.26 51.9219 379.23 51.9219 386.64C51.9219 397.85 62.9319 400.19 86.1919 401.76C109.452 403.33 117.922 399.35 118.362 395.09C118.812 390.84 118.812 359.27 118.812 359.27" stroke="#512921" stroke-width="2.64" stroke-linecap="round" stroke-linejoin="round"/>
<path d="M72.111 364.05C68.191 369.34 62.5409 377.78 66.0609 390.91C69.5809 404.04 93.5509 453.55 93.5509 453.55C93.5509 453.55 123.001 457.39 124.181 434.26C124.181 434.26 102.281 388.57 101.491 385.43C100.711 382.29 101.491 365.61 101.491 365.61" fill="#FF73A2"/>
<mask id="mask2_16767_3614" style="mask-type:luminance" maskUnits="userSpaceOnUse" x="64" y="364" width="61" height="90">
<path d="M72.111 364.05C68.191 369.34 62.5409 377.78 66.0609 390.91C69.5809 404.04 93.5509 453.55 93.5509 453.55C93.5509 453.55 123.001 457.39 124.181 434.26C124.181 434.26 102.281 388.57 101.491 385.43C100.711 382.29 101.491 365.61 101.491 365.61" fill="white"/>
</mask>
<g mask="url(#mask2_16767_3614)">
<path d="M74.7422 423.369C74.7422 423.369 104.422 425.709 109.092 404.259C113.752 382.819 131.782 441.839 131.782 441.839L125.002 457.969L105.282 464.549L85.1421 463.699L74.7522 423.369H74.7422Z" fill="#FFEBF0" stroke="#512921" stroke-width="2.64" stroke-linecap="round" stroke-linejoin="round"/>
</g>
<path d="M72.111 364.05C68.191 369.34 62.5409 377.78 66.0609 390.91C69.5809 404.04 93.5509 453.55 93.5509 453.55C93.5509 453.55 123.001 457.39 124.181 434.26C124.181 434.26 102.281 388.57 101.491 385.43C100.711 382.29 101.491 365.61 101.491 365.61" stroke="#512921" stroke-width="2.64" stroke-linecap="round" stroke-linejoin="round"/>
<path d="M119.781 426.669C119.781 426.669 127.781 428.069 129.571 437.079C131.371 446.089 133.371 482.909 124.371 489.719C115.381 496.519 94.991 489.319 91.791 449.289" fill="#FFEBF0"/>
<path d="M119.781 426.669C119.781 426.669 127.781 428.069 129.571 437.079C131.371 446.089 133.371 482.909 124.371 489.719C115.381 496.519 94.991 489.319 91.791 449.289" stroke="#512921" stroke-width="2.64" stroke-linecap="round" stroke-linejoin="round"/>
<path d="M86.2321 341.11C86.2321 341.11 72.722 345.62 69.392 350.72C67.412 353.75 59.1619 369.21 56.2919 378.94C54.3419 385.57 57.2021 388.01 57.2021 388.01C57.2021 388.01 61.1621 370.76 81.4621 375.05C105.542 380.15 110.512 391.1 110.512 391.1C110.512 391.1 116.582 375.22 116.582 359.93" fill="#AAA0FF"/>
<path d="M59.0131 391.48C55.3931 385.58 63.9231 376.71 69.2431 375.41C83.9131 371.83 101.743 380.43 110.513 391.1" stroke="#512921" stroke-width="2.64" stroke-linecap="round" stroke-linejoin="round"/>
<path d="M112.162 354.99L117.612 359.34C117.612 359.34 117.612 390.91 118.062 395.16C118.512 399.41 126.982 403.4 150.232 401.83C173.492 400.26 184.502 397.92 184.502 386.71C184.502 379.3 168.062 348.33 168.062 348.33C167.192 342.42 162.882 338.83 160.182 336.58" fill="#AAA0FF"/>
<path d="M112.162 354.99L117.612 359.34C117.612 359.34 117.612 390.91 118.062 395.16C118.512 399.41 126.982 403.4 150.232 401.83C173.492 400.26 184.502 397.92 184.502 386.71C184.502 379.3 168.062 348.33 168.062 348.33C167.192 342.42 162.882 338.83 160.182 336.58" stroke="#512921" stroke-width="2.64" stroke-linecap="round" stroke-linejoin="round"/>
<path d="M164.3 364.12C168.22 369.41 173.87 377.85 170.35 390.98C166.83 404.11 142.86 453.62 142.86 453.62C142.86 453.62 113.41 457.46 112.23 434.33C112.23 434.33 134.13 388.64 134.92 385.5C135.7 382.36 134.92 365.68 134.92 365.68" fill="#FF73A2"/>
<mask id="mask3_16767_3614" style="mask-type:luminance" maskUnits="userSpaceOnUse" x="112" y="364" width="60" height="90">
<path d="M164.3 364.12C168.22 369.41 173.87 377.85 170.35 390.98C166.83 404.11 142.86 453.62 142.86 453.62C142.86 453.62 113.41 457.46 112.23 434.33C112.23 434.33 134.13 388.64 134.92 385.5C135.7 382.36 134.92 365.68 134.92 365.68" fill="white"/>
</mask>
<g mask="url(#mask3_16767_3614)">
<path d="M161.671 423.44C161.671 423.44 131.991 425.78 127.321 404.33C122.651 382.88 104.631 441.91 104.631 441.91L111.411 458.04L131.131 464.62L151.271 463.77L161.661 423.44H161.671Z" fill="#FFEBF0" stroke="#512921" stroke-width="2.64" stroke-linecap="round" stroke-linejoin="round"/>
</g>
<path d="M164.3 364.12C168.22 369.41 173.87 377.85 170.35 390.98C166.83 404.11 142.86 453.62 142.86 453.62C142.86 453.62 113.41 457.46 112.23 434.33C112.23 434.33 134.13 388.64 134.92 385.5C135.7 382.36 134.92 365.68 134.92 365.68" stroke="#512921" stroke-width="2.64" stroke-linecap="round" stroke-linejoin="round"/>
<path d="M116.631 426.74C116.631 426.74 108.631 428.14 106.841 437.15C105.041 446.16 103.041 482.98 112.041 489.79C121.031 496.59 141.421 489.39 144.621 449.36" fill="#FFEBF0"/>
<path d="M116.631 426.74C116.631 426.74 108.631 428.14 106.841 437.15C105.041 446.16 103.041 482.98 112.041 489.79C121.031 496.59 141.421 489.39 144.621 449.36" stroke="#512921" stroke-width="2.64" stroke-linecap="round" stroke-linejoin="round"/>
<path d="M150.182 341.18C150.182 341.18 163.692 345.69 167.022 350.79C169.002 353.82 177.252 369.28 180.122 379.01C182.072 385.64 179.212 388.08 179.212 388.08C179.212 388.08 175.252 370.83 154.952 375.12C130.872 380.22 125.902 391.17 125.902 391.17C125.902 391.17 119.832 375.29 119.832 360" fill="#AAA0FF"/>
<path d="M177.402 391.55C181.022 385.65 172.492 376.78 167.172 375.48C152.502 371.9 134.672 380.5 125.902 391.17" stroke="#512921" stroke-width="2.64" stroke-linecap="round" stroke-linejoin="round"/>
<path d="M82.2109 334.14C82.2109 334.14 100.411 337.1 117.551 337.1C133.071 337.1 152.491 334.41 152.491 334.41" stroke="#512921" stroke-width="2.64" stroke-linecap="round" stroke-linejoin="round"/>
<path d="M94.5223 243.57C94.5223 243.57 75.9121 243.84 62.5421 268.53C49.1721 293.22 43.6922 300.4 43.6922 300.4C43.6922 300.4 36.7523 302.9 40.0223 308.35C44.3423 315.55 60.0323 330.79 81.2723 328.57L96.2623 267.44" fill="white"/>
<path d="M94.5223 243.57C94.5223 243.57 75.9121 243.84 62.5421 268.53C49.1721 293.22 43.6922 300.4 43.6922 300.4C43.6922 300.4 36.7523 302.9 40.0223 308.35C44.3423 315.55 60.0323 330.79 81.2723 328.57L96.2623 267.44" stroke="#512921" stroke-width="2.64" stroke-linecap="round" stroke-linejoin="round"/>
<path d="M162.43 320.01C161.17 327.96 130 331.4 118.2 332.08C106.41 332.77 79.1005 332.33 72.7205 327.1C68.6205 323.74 83.7003 257.26 88.2903 251.47C91.9703 246.82 133 244.22 137.07 248.47C145.33 257.09 163.33 314.31 162.43 320.01Z" fill="white"/>
<path d="M162.411 319.68C161.171 327.9 130.001 331.39 118.201 332.08C106.411 332.77 79.1013 332.26 72.7013 326.84C68.5913 323.35 83.5412 254.62 88.1212 248.64C91.8012 243.84 132.751 239.99 136.831 244.39C145.111 253.32 163.291 313.79 162.401 319.69L162.411 319.68Z" fill="white"/>
<path d="M138.651 244.59C130.071 236.68 97.6309 237.84 89.8809 247.12" stroke="#512921" stroke-width="2.64" stroke-linecap="round" stroke-linejoin="round"/>
<path d="M146.101 265.86C154.331 286.03 163.291 316.01 162.431 320.01C160.791 327.66 130.001 331.4 118.201 332.08C106.411 332.77 76.8015 332.15 72.7215 327.1C70.3615 324.17 76.6715 291.18 82.2515 269.63" stroke="#512921" stroke-width="2.64" stroke-linecap="round" stroke-linejoin="round"/>
<path d="M116.891 310.146C130.168 309.39 140.273 297.209 139.46 282.939C138.647 268.669 127.225 257.714 113.947 258.47C100.67 259.226 90.5652 271.407 91.378 285.677C92.1908 299.947 103.613 310.903 116.891 310.146Z" fill="#AAA0FF"/>
<path d="M134.511 283.13C134.161 283.15 133.801 283.03 133.511 282.77C133.451 282.72 127.371 277.48 115.081 278.19C104.041 278.83 97.2106 284.69 97.1406 284.75C96.5306 285.28 95.6406 285.18 95.1406 284.52C94.6406 283.86 94.7305 282.9 95.3305 282.37C95.6305 282.1 102.901 275.83 114.901 275.14C128.401 274.36 135.051 280.19 135.321 280.44C135.931 280.98 136.011 281.95 135.511 282.59C135.251 282.93 134.881 283.11 134.501 283.13H134.511Z" fill="white"/>
<path d="M118.231 294.36L119.131 309.84C118.411 309.96 117.681 310.03 116.931 310.08C116.181 310.13 115.451 310.13 114.721 310.1L113.821 294.62C113.811 294.41 113.981 294.23 114.211 294.22L117.811 294.01C118.031 294 118.231 294.16 118.241 294.37L118.231 294.36Z" fill="white"/>
<path d="M116.172 297.089C119.982 296.879 122.897 293.544 122.682 289.64C122.468 285.735 119.204 282.74 115.394 282.95C111.583 283.16 108.668 286.495 108.883 290.399C109.098 294.303 112.361 297.298 116.172 297.089Z" fill="white"/>
<path d="M113.585 251.711C122.715 251.178 129.807 245.449 129.426 238.916C129.045 232.382 121.334 227.518 112.204 228.051C103.074 228.584 95.981 234.312 96.3623 240.846C96.7436 247.379 104.454 252.243 113.585 251.711Z" fill="#FF73A2" stroke="#512921" stroke-width="2.64" stroke-linecap="round" stroke-linejoin="round"/>
<path d="M132.412 241.76C132.412 241.76 152.962 231.39 172.482 272.39C188.872 306.83 189.542 328.04 187.342 332.41C184.392 338.27 175.482 335.78 163.632 331.58C152.512 327.64 138.872 319.35 137.902 313.69C136.942 308.11 140.212 305.15 140.212 305.15C140.212 305.15 144.702 283.49 141.082 269.14" fill="white"/>
<path d="M132.412 241.76C132.412 241.76 152.962 231.39 172.482 272.39C188.872 306.83 189.542 328.04 187.342 332.41C184.392 338.27 175.482 335.78 163.632 331.58C152.512 327.64 138.872 319.35 137.902 313.69C136.942 308.11 140.212 305.15 140.212 305.15C140.212 305.15 144.702 283.49 141.082 269.14" stroke="#512921" stroke-width="2.64" stroke-linecap="round" stroke-linejoin="round"/>
<path d="M147.841 307.229C147.181 307.419 141.371 318.389 141.371 318.389C141.371 318.389 124.051 324.289 109.761 329.659C100.691 333.069 95.6314 342.739 97.4614 349.189C100.331 359.299 114.421 359.199 118.831 355.509C118.831 355.509 127.801 355.009 131.031 350.929C134.271 346.849 167.751 340.019 170.551 332.309C173.351 324.589 169.031 306.459 169.031 306.459L147.841 307.229Z" fill="#FF73A2"/>
<mask id="mask4_16767_3614" style="mask-type:luminance" maskUnits="userSpaceOnUse" x="97" y="306" width="75" height="52">
<path d="M147.841 307.229C147.181 307.419 141.371 318.389 141.371 318.389C141.371 318.389 124.051 324.289 109.761 329.659C100.691 333.069 95.6314 342.739 97.4614 349.189C100.331 359.299 114.421 359.199 118.831 355.509C118.831 355.509 127.801 355.009 131.031 350.929C134.271 346.849 167.751 340.019 170.551 332.309C173.351 324.589 169.031 306.459 169.031 306.459L147.841 307.229Z" fill="white"/>
</mask>
<g mask="url(#mask4_16767_3614)">
<path d="M117.221 323.099C117.221 323.099 143.771 340.529 129.521 356.459C115.271 372.389 89.291 356.509 89.291 356.509L89.6011 340.759L98.1912 328.479L117.231 323.109L117.221 323.099Z" fill="#FFEBF0" stroke="#512921" stroke-width="2.64" stroke-linecap="round" stroke-linejoin="round"/>
</g>
<path d="M147.841 307.229C147.181 307.419 141.371 318.389 141.371 318.389C141.371 318.389 124.051 324.289 109.761 329.659C100.691 333.069 95.6314 342.739 97.4614 349.189C100.331 359.299 114.421 359.199 118.831 355.509C118.831 355.509 127.801 355.009 131.031 350.929C134.271 346.849 167.751 340.019 170.551 332.309C173.351 324.589 169.031 306.459 169.031 306.459L147.841 307.229Z" stroke="#512921" stroke-width="2.64" stroke-linecap="round" stroke-linejoin="round"/>
<path d="M145.322 273.32C145.322 273.32 144.642 309.23 141.852 314.88C141.852 314.88 145.632 311.5 152.922 312.53C162.752 313.92 177.392 321.02 182.752 333.35C182.752 333.35 177.482 270.09 152.962 257.39" fill="white"/>
<path d="M142.422 315.13C142.422 315.13 145.972 308.79 159.142 314.29C172.322 319.79 182.412 326.82 181.372 332.14" stroke="#512921" stroke-width="2.64" stroke-linecap="round" stroke-linejoin="round"/>
<path d="M11.9327 148.67C11.9327 148.67 0.64268 97.2596 15.4227 50.2796C30.2027 3.29964 42.4327 17.7196 47.6927 24.6296C56.1527 35.7396 88.5228 68.3696 88.5228 68.3696" fill="#FF73A2"/>
<path d="M11.9327 148.67C11.9327 148.67 0.64268 97.2596 15.4227 50.2796C30.2027 3.29964 42.4327 17.7196 47.6927 24.6296C56.1527 35.7396 88.5228 68.3696 88.5228 68.3696" stroke="#50281E" stroke-width="2.64" stroke-linecap="round" stroke-linejoin="round"/>
<path d="M31.8628 37.1797C14.6728 59.1097 19.513 125.9 19.513 125.9C19.513 125.9 23.0328 112.77 41.1128 93.4697" fill="#FDEDF1"/>
<path d="M31.8628 37.1797C14.6728 59.1097 19.513 125.9 19.513 125.9C19.513 125.9 23.0328 112.77 41.1128 93.4697" stroke="#50281E" stroke-width="2.64" stroke-linecap="round" stroke-linejoin="round"/>
<path d="M31.3418 28.6597C31.3418 28.6597 32.5517 66.4997 42.2917 97.4597" stroke="#50281E" stroke-width="2.64" stroke-linecap="round" stroke-linejoin="round"/>
<path d="M237.692 164.98C226.502 200.56 198.642 223.16 165.332 235.43C140.382 244.62 112.382 248.02 86.0217 246.73C75.6717 246.23 65.0015 243.98 54.8215 240.13C33.3115 232 13.9815 216.73 4.31149 195.68C3.02149 192.88 1.9915 189.96 1.3215 186.94C1.2815 186.74 2.26165 184.64 2.98165 182.29C4.77165 176.4 8.10146 163.97 9.03146 159.03C15.1915 126.01 31.0717 74.7598 100.752 64.6898C166.852 55.1498 201.631 99.4398 211.541 120C215.931 129.1 226.882 145.31 233.652 154.42C236.652 158.46 237.661 157.89 238.291 159.48C238.791 160.76 238.252 163.26 237.712 164.99L237.692 164.98Z" fill="#FF73A2" stroke="#50281E" stroke-width="2.64" stroke-linecap="round" stroke-linejoin="round"/>
<path d="M148.561 211.08C148.561 211.08 157.631 228.4 165.331 235.43C140.381 244.62 112.381 248.02 86.021 246.73C75.671 246.23 65.0008 243.98 54.8208 240.13C53.8408 234.88 48.5308 221.21 48.5308 221.21C48.5308 221.21 24.0209 208.35 22.1309 164.65C22.1309 164.65 27.6308 141.15 70.8308 123.71C70.8308 123.71 78.4109 110.29 84.6809 103.3L92.9109 121.07C92.9109 121.07 152.391 115.8 181.431 148.12C181.431 148.12 180.631 185.25 148.551 211.1L148.561 211.08Z" fill="#FDEDF1" stroke="#50281E" stroke-width="2.64" stroke-linecap="round" stroke-linejoin="round"/>
<path d="M122.941 65.8296C122.941 65.8296 165.711 32.3996 188.081 8.41962C202.751 -7.31038 211.941 5.17962 219.921 25.5796C227.971 46.1696 237.551 103.34 220.931 143.65" fill="#FF73A2"/>
<path d="M122.941 65.8296C122.941 65.8296 165.711 32.3996 188.081 8.41962C202.751 -7.31038 211.941 5.17962 219.921 25.5796C227.971 46.1696 237.551 103.34 220.931 143.65" stroke="#50281E" stroke-width="2.64" stroke-linecap="round" stroke-linejoin="round"/>
<path d="M165.582 74.1498C165.582 74.1498 189.932 83.5499 208.572 114.49C210.092 117.01 221.222 59.4998 198.212 18.5898" fill="#FDEDF1"/>
<path d="M165.582 74.1498C165.582 74.1498 189.932 83.5499 208.572 114.49C210.092 117.01 221.222 59.4998 198.212 18.5898" stroke="#50281E" stroke-width="2.64" stroke-linecap="round" stroke-linejoin="round"/>
<path d="M158.031 86.8497C158.031 86.8497 195.211 16.8997 202.621 12.9697" stroke="#50281E" stroke-width="2.64" stroke-linecap="round" stroke-linejoin="round"/>
<path d="M72.6197 184.62C72.5897 176.99 63.0097 160.23 50.1397 160.03C38.9497 159.86 36.7198 174.89 40.1698 184.92C41.5398 188.9 45.1199 192.2 53.5099 191.01C63.9299 189.54 72.6397 188.37 72.6297 184.61L72.6197 184.62Z" fill="white"/>
<mask id="mask5_16767_3614" style="mask-type:luminance" maskUnits="userSpaceOnUse" x="38" y="160" width="35" height="32">
<path d="M72.6197 184.62C72.5897 176.99 63.0097 160.23 50.1397 160.03C38.9497 159.86 36.7198 174.89 40.1698 184.92C41.5398 188.9 45.1199 192.2 53.5099 191.01C63.9299 189.54 72.6397 188.37 72.6297 184.61L72.6197 184.62Z" fill="white"/>
</mask>
<g mask="url(#mask5_16767_3614)">
<path d="M40.6892 186.8C42.3392 195.73 49.0592 201.76 55.6992 200.28C62.3392 198.8 66.3792 190.35 64.7292 181.42C63.0792 172.49 56.3592 166.46 49.7192 167.94C43.0792 169.43 39.0392 177.87 40.6892 186.8Z" fill="#502823"/>
<path d="M47.0089 187.062C49.0369 186.811 50.42 184.501 50.0983 181.903C49.7765 179.305 47.8717 177.402 45.8438 177.654C43.8158 177.905 42.4327 180.214 42.7545 182.812C43.0762 185.41 44.981 187.313 47.0089 187.062Z" fill="white"/>
</g>
<path d="M72.6197 184.62C72.5897 176.99 63.0097 160.23 50.1397 160.03C38.9497 159.86 36.7198 174.89 40.1698 184.92C41.5398 188.9 45.1199 192.2 53.5099 191.01C63.9299 189.54 72.6397 188.37 72.6297 184.61L72.6197 184.62Z" stroke="#50281E" stroke-width="2.64" stroke-linecap="round" stroke-linejoin="round"/>
<path d="M38.5706 174.66C33.2506 173.45 31.1406 168.84 31.1406 168.84" stroke="#50281E" stroke-width="2.64" stroke-linecap="round" stroke-linejoin="round"/>
<path d="M80.1624 182.439C80.1124 180.839 81.5424 179.459 85.7424 178.939C92.1324 178.139 93.0824 179.389 93.2524 180.799C93.4824 182.639 90.6023 185.219 87.0923 186.139C84.0023 186.949 80.2323 184.689 80.1523 182.439H80.1624Z" fill="#FF73A2" stroke="#50281E" stroke-width="2.64" stroke-linecap="round" stroke-linejoin="round"/>
<path d="M108.802 180.11C106.612 172.76 110.842 152.789 126.792 148.999C140.672 145.699 150.812 162.72 150.432 171.17C150.242 175.4 143.082 178.009 132.582 180.469C119.562 183.529 110.032 184.23 108.802 180.1V180.11Z" fill="white"/>
<mask id="mask6_16767_3614" style="mask-type:luminance" maskUnits="userSpaceOnUse" x="108" y="148" width="43" height="35">
<path d="M108.802 180.11C106.612 172.76 110.842 152.789 126.792 148.999C140.672 145.699 150.812 162.72 150.432 171.17C150.242 175.4 143.082 178.009 132.582 180.469C119.562 183.529 110.032 184.23 108.802 180.1V180.11Z" fill="white"/>
</mask>
<g mask="url(#mask6_16767_3614)">
<path d="M124.052 192.853C132.73 192.443 139.416 184.748 138.986 175.668C138.556 166.588 131.173 159.559 122.496 159.97C113.818 160.381 107.132 168.075 107.561 177.155C107.991 186.236 115.374 193.264 124.052 192.853Z" fill="#502823"/>
<path d="M117.104 179.548C119.703 179.235 121.547 176.795 121.223 174.097C120.898 171.399 118.528 169.466 115.929 169.779C113.33 170.091 111.486 172.532 111.81 175.229C112.135 177.927 114.505 179.861 117.104 179.548Z" fill="white"/>
</g>
<path d="M108.802 180.11C106.612 172.76 110.842 152.789 126.792 148.999C140.672 145.699 150.812 162.72 150.432 171.17C150.242 175.4 143.082 178.009 132.582 180.469C119.562 183.529 110.032 184.23 108.802 180.1V180.11Z" stroke="#50281E" stroke-width="2.64" stroke-linecap="round" stroke-linejoin="round"/>
<path d="M146.182 158.139C152.932 156.949 153.522 150.189 153.522 150.189" stroke="#50281E" stroke-width="2.64" stroke-linecap="round" stroke-linejoin="round"/>
<path d="M66.0911 153.279C63.0911 156.499 60.1012 152.389 57.2012 148.399" stroke="#50281E" stroke-width="2.64" stroke-linecap="round" stroke-linejoin="round"/>
<path d="M106.762 141.819C108.792 137.509 114.732 130.239 119.342 134.719" stroke="#50281E" stroke-width="2.64" stroke-linecap="round" stroke-linejoin="round"/>
<path d="M99.9118 200.61C101.152 204.4 99.2519 204.01 96.7219 204.85C94.1919 205.69 91.9719 207.42 90.7319 203.63C89.4919 199.84 90.5417 196.09 93.0717 195.26C95.6017 194.43 98.6618 196.83 99.9118 200.62V200.61Z" fill="#EB5555" stroke="#502823" stroke-width="2.64" stroke-linecap="round" stroke-linejoin="round"/>
</svg>
