<svg width="407" height="358" viewBox="0 0 407 358" fill="none" xmlns="http://www.w3.org/2000/svg">
<path d="M180.486 266.133C178.016 264.823 176.066 262.554 175.246 259.653C173.646 254.023 176.916 248.153 182.546 246.553C196.406 242.613 205.876 238.023 213.486 234.323C216.246 232.983 218.856 231.713 221.426 230.593C226.796 228.253 233.046 230.703 235.386 236.063C237.726 241.433 235.276 247.683 229.916 250.023C227.746 250.973 225.426 252.093 222.756 253.393C214.406 257.453 204.006 262.493 188.346 266.943C185.606 267.723 182.816 267.353 180.486 266.113V266.133Z" fill="#FF73A2"/>
<path d="M180.486 266.133C178.016 264.823 176.066 262.553 175.246 259.653C173.646 254.023 176.916 248.153 182.546 246.553C196.406 242.613 205.876 238.023 213.486 234.323C216.246 232.983 218.856 231.713 221.426 230.593C226.796 228.253 233.046 230.703 235.386 236.063C237.726 241.433 235.276 247.683 229.916 250.023C227.746 250.973 225.426 252.093 222.756 253.393C214.406 257.453 204.006 262.493 188.346 266.943C185.606 267.723 182.816 267.353 180.486 266.113V266.133Z" stroke="#50281E" stroke-width="2.5" stroke-linecap="round" stroke-linejoin="round"/>
<path d="M244.216 242.753C251.506 234.983 250.876 226.493 246.796 223.233C243.436 220.553 239.936 218.063 234.146 217.403C223.896 216.223 190.156 237.703 187.756 240.363C192.546 240.353 201.926 266.013 208.686 281.563C216.396 275.493 234.736 252.853 244.216 242.753Z" fill="white" stroke="#50281E" stroke-width="2.5" stroke-linecap="round" stroke-linejoin="round"/>
<path d="M309.116 302.613C307.096 301.883 305.276 300.533 303.966 298.633C302.466 296.453 301.906 293.903 302.176 291.463C301.006 287.343 296.676 277.093 293.996 270.733C291.306 264.373 288.986 258.873 287.756 255.233C285.876 249.683 288.846 243.663 294.396 241.783C299.946 239.903 305.966 242.873 307.846 248.423C308.836 251.333 311.226 256.993 313.536 262.473C316.086 268.513 318.726 274.763 320.626 279.903C321.776 283.003 322.526 285.353 322.986 287.273C324.896 295.213 321.716 299.333 318.706 301.383C315.786 303.383 312.216 303.723 309.116 302.613ZM306.716 283.893H306.706C306.706 283.893 306.706 283.893 306.716 283.893Z" fill="#FF73A2"/>
<path d="M309.116 302.613C307.096 301.883 305.276 300.533 303.966 298.633C302.466 296.453 301.906 293.903 302.176 291.463C301.006 287.343 296.676 277.093 293.996 270.733C291.306 264.373 288.986 258.873 287.756 255.233C285.876 249.683 288.846 243.663 294.396 241.783C299.946 239.903 305.966 242.873 307.846 248.423C308.836 251.333 311.226 256.993 313.536 262.473C316.086 268.513 318.726 274.763 320.626 279.903C321.776 283.003 322.526 285.353 322.986 287.273C324.896 295.213 321.716 299.333 318.706 301.383C315.786 303.383 312.216 303.723 309.116 302.613ZM306.716 283.893H306.706C306.706 283.893 306.706 283.893 306.716 283.893Z" stroke="#50281E" stroke-width="2.5" stroke-linecap="round" stroke-linejoin="round"/>
<path d="M269.498 231.083C272.348 220.813 279.928 216.943 284.838 218.733C288.878 220.203 292.818 221.903 296.388 226.503C302.718 234.643 321.728 273.423 320.708 276.853C302.418 271.413 286.738 284.643 268.638 296.253C263.988 292.733 265.788 244.423 269.498 231.073V231.083Z" fill="white" stroke="#50281E" stroke-width="2.5" stroke-linecap="round" stroke-linejoin="round"/>
<path d="M295.036 298.253C294.346 296.093 291.476 283.063 291.476 283.063C291.476 283.063 276.916 284.123 258.166 284.123C239.416 284.123 224.856 283.063 224.856 283.063C224.856 283.063 221.746 296.054 221.046 298.214C220.396 300.454 219.466 303.483 218.776 306.313C218.106 309.033 217.656 311.573 218.266 313.253C222.616 325.343 242.546 328.043 258.166 328.043C273.786 328.043 293.476 325.383 297.816 313.283C299.046 309.863 296.296 302.643 295.026 298.243L295.036 298.253Z" fill="#AC9CFF" stroke="#50281E" stroke-width="2.5" stroke-linecap="round" stroke-linejoin="round"/>
<path d="M230.188 291.653C230.188 291.653 242.707 293.503 257.797 293.503C271.457 293.503 286.228 291.653 286.228 291.653" stroke="#50281E" stroke-width="2.5" stroke-linecap="round" stroke-linejoin="round"/>
<path d="M219.035 327.461C228.791 319.64 228.648 303.256 218.716 290.868C208.784 278.48 192.824 274.777 183.068 282.599C173.313 290.42 173.456 306.803 183.388 319.191C193.32 331.58 209.28 335.282 219.035 327.461Z" fill="#7F62BF" stroke="#50281E" stroke-width="2.5" stroke-linecap="round" stroke-linejoin="round"/>
<path d="M240.266 299.164C240.206 299.124 240.137 299.073 240.077 299.033C236.657 296.733 232.647 295.644 229.177 293.554C225.377 291.264 221.046 289.564 217.036 287.664C213.426 285.954 209.617 284.544 206.077 282.764C202.307 280.864 198.436 279.043 194.296 278.093C188.436 276.743 181.417 277.174 177.097 281.824C173.287 285.934 172.176 292.014 174.286 297.204C176.626 302.964 182.237 306.404 188.107 306.264C188.497 306.364 188.927 306.474 189.357 306.604C191.057 307.094 192.937 307.703 194.827 308.343C204.267 311.573 213.416 315.364 222.656 319.154C226.836 320.874 232.037 323.314 236.687 322.744C240.457 322.284 244.057 319.314 245.747 316.004C247.177 313.194 247.767 309.204 246.457 306.254C245.167 303.334 242.856 300.954 240.256 299.164H240.266Z" fill="#FF73A2" stroke="#50281E" stroke-width="2.5" stroke-linecap="round" stroke-linejoin="round"/>
<path d="M258.167 328.053L225.627 331.833C228.357 311.793 199.977 279.193 199.977 279.193C199.977 279.193 212.657 282.983 216.607 284.783C224.847 288.523 226.877 290.583 226.877 290.583C226.877 290.583 251.337 298.133 254.087 302.333C256.837 306.533 262.697 324.773 258.177 328.053H258.167Z" fill="#AC9CFF"/>
<path d="M235.527 292.583C235.527 292.583 224.847 288.523 216.597 284.783C212.657 282.993 199.387 278.503 199.387 278.503C199.387 278.503 228.357 311.783 225.627 331.823L258.167 328.043" stroke="#50281E" stroke-width="2.5" stroke-linecap="round" stroke-linejoin="round"/>
<path d="M271.126 298.393L274.756 298.553L278.276 298.763C280.616 298.913 282.956 299.093 285.296 299.313C289.986 299.743 294.686 300.283 299.456 301.013C304.236 301.763 309.066 302.673 314.176 304.093C316.726 304.803 319.356 305.653 322.196 306.873C323.616 307.483 325.086 308.183 326.666 309.093L327.246 309.423L327.866 309.823L329.106 310.653C329.496 310.903 329.976 311.293 330.416 311.633C330.866 311.993 331.306 312.353 331.736 312.723C337.586 318.223 337.866 327.433 332.366 333.283C326.866 339.133 317.656 339.413 311.806 333.913C311.806 333.913 311.826 333.913 311.846 333.913C311.846 333.913 311.916 333.913 311.846 333.853C311.796 333.813 311.756 333.763 311.716 333.713L311.646 333.633L311.506 333.533C311.176 333.263 310.666 332.923 310.056 332.573C308.846 331.873 307.256 331.143 305.546 330.483C302.126 329.133 298.216 327.953 294.206 326.923C290.186 325.883 286.036 324.983 281.846 324.173C279.746 323.773 277.636 323.393 275.516 323.043L272.346 322.543L269.276 322.093L268.846 322.033C262.356 321.083 257.856 315.053 258.806 308.553C259.696 302.473 265.096 298.153 271.096 298.403L271.126 298.393Z" fill="#FF73A2" stroke="#50281E" stroke-width="2.5" stroke-linecap="round" stroke-linejoin="round"/>
<path d="M256.657 325.933L283.917 331.033C291.377 302.493 323.107 305.453 323.107 305.453L292.627 293.513C291.147 293.573 267.257 294.103 262.227 296.453C257.197 298.803 251.087 305.533 250.397 312.433C249.747 318.983 256.657 325.943 256.657 325.943V325.933Z" fill="#AC9CFF"/>
<path d="M292.707 292.583L323.117 305.443C323.117 305.443 291.377 302.483 283.927 331.023L263.477 328.043" stroke="#50281E" stroke-width="2.5" stroke-linecap="round" stroke-linejoin="round"/>
<path d="M297.868 286.553C295.848 292.854 268.257 291.964 257.887 291.134C247.517 290.304 225.847 286.754 220.897 281.754C217.707 278.544 236.507 226.384 241.187 222.224C244.937 218.894 281.027 221.614 284.077 225.544C290.277 233.504 299.317 282.033 297.868 286.553Z" fill="white"/>
<path d="M290.768 246.393C295.598 263.723 299.088 283.413 297.878 286.553C295.558 292.563 268.268 291.963 257.898 291.133C247.528 290.303 223.878 286.333 220.908 281.753C219.188 279.093 226.438 253.063 233.808 236.243" stroke="#50281E" stroke-width="2.5" stroke-linecap="round" stroke-linejoin="round"/>
<path d="M274.705 262.019C276.272 250.416 268.406 239.776 257.137 238.254C245.868 236.732 235.462 244.905 233.895 256.508C232.329 268.111 240.194 278.751 251.463 280.273C262.733 281.794 273.138 273.622 274.705 262.019Z" fill="#B6ADF8"/>
<path d="M270.318 262.504C270.018 262.444 269.738 262.274 269.538 262.004C269.498 261.954 265.398 256.474 254.768 254.384C245.218 252.504 238.178 255.664 238.108 255.694C237.478 255.984 236.738 255.704 236.448 255.084C236.158 254.454 236.428 253.714 237.058 253.424C237.368 253.274 244.868 249.884 255.258 251.924C266.938 254.224 271.388 260.284 271.578 260.544C271.978 261.104 271.848 261.884 271.288 262.294C270.998 262.504 270.648 262.574 270.318 262.504Z" fill="white"/>
<path d="M254.098 267.874L251.638 280.334C250.998 280.274 250.358 280.174 249.718 280.044C249.078 279.914 248.448 279.764 247.828 279.584L250.288 267.124C250.318 266.954 250.508 266.854 250.698 266.884L253.808 267.494C253.998 267.534 254.138 267.704 254.098 267.864V267.874Z" fill="white"/>
<path d="M258.915 265.186C259.535 262.044 257.366 258.969 254.072 258.32C250.777 257.671 247.604 259.692 246.985 262.835C246.365 265.978 248.534 269.052 251.829 269.701C255.123 270.35 258.296 268.329 258.915 265.186Z" fill="white"/>
<path d="M281.116 221.043C280.656 226.773 270.436 230.753 262.406 230.113C254.376 229.473 251.586 224.443 252.046 218.713C252.506 212.983 259.386 208.853 267.416 209.503C275.446 210.153 281.576 215.323 281.116 221.053V221.043Z" fill="#FF73A2" stroke="#50281E" stroke-width="2.5" stroke-linecap="round" stroke-linejoin="round"/>
<path d="M385.348 46.9634C354.508 65.8534 323.847 75.0234 314.417 78.2134C313.017 78.6034 311.627 79.0334 310.277 79.5334C310.207 79.5634 310.157 79.5734 310.157 79.5734H310.167C292.517 86.0334 278.297 100.883 273.507 120.503C265.867 151.773 285.017 183.313 316.287 190.953C340.137 196.783 364.117 187.013 377.557 168.183C403.857 134.353 419.188 26.2634 385.358 46.9734L385.348 46.9634Z" fill="#FF73A2" stroke="#50281E" stroke-width="2.5" stroke-linecap="round" stroke-linejoin="round"/>
<path d="M389.297 66.2534C389.297 66.2534 362.737 106.173 356.447 109.663C363.097 119.513 372.337 140.123 373.397 145.153C380.027 139.663 398.197 82.3834 389.297 66.2534Z" fill="#FDEDF1"/>
<path d="M393.558 57.8833C374.078 94.9533 341.738 126.613 341.738 126.613" stroke="#50281E" stroke-width="2.5" stroke-linecap="round" stroke-linejoin="round"/>
<path d="M389.358 65.4634C394.278 69.7834 391.298 121.503 370.178 149.863" stroke="#50281E" stroke-width="2.5" stroke-linecap="round" stroke-linejoin="round"/>
<path d="M236.488 10.6036C255.148 41.5936 278.117 63.8636 285.017 71.0436C286.077 72.0336 287.107 73.0636 288.087 74.1236C288.137 74.1836 288.177 74.2136 288.177 74.2136H288.167C300.857 88.0736 306.617 107.814 301.827 127.424C294.187 158.694 262.657 177.854 231.387 170.214C207.537 164.384 190.757 144.664 187.517 121.754C179.777 79.6036 216.028 -23.3764 236.488 10.6036Z" fill="#FF73A2" stroke="#50281E" stroke-width="2.5" stroke-linecap="round" stroke-linejoin="round"/>
<path d="M224.097 25.8938C224.097 25.8938 229.267 73.5638 233.227 79.5638C222.777 85.2338 205.087 99.2638 201.817 103.234C198.457 95.3038 207.887 39.3338 224.087 25.8838L224.097 25.8938Z" fill="#FDEDF1"/>
<path d="M224.178 16.5034C224.368 58.3734 238.468 101.383 238.468 101.383" stroke="#50281E" stroke-width="2.5" stroke-linecap="round" stroke-linejoin="round"/>
<path d="M224.407 25.1636C218.057 26.7336 196.847 73.9936 202.507 108.904" stroke="#50281E" stroke-width="2.5" stroke-linecap="round" stroke-linejoin="round"/>
<path d="M300.866 69.9336C253.546 58.3736 210.556 76.8535 185.696 125.924C182.226 132.774 179.196 136.604 174.336 138.114C172.896 138.554 171.886 139.944 171.946 141.504C173.306 182.554 213.626 215.054 262.496 226.994C311.356 238.934 362.136 228.684 382.266 192.884C383.036 191.524 382.776 189.824 381.706 188.764C378.096 185.184 377.166 180.384 377.246 172.704C377.826 117.694 348.186 81.4736 300.876 69.9136L300.866 69.9336Z" fill="#FF73A2"/>
<path d="M188.966 119.823C187.846 121.803 186.756 123.833 185.696 125.923C182.226 132.773 179.196 136.603 174.336 138.113C172.896 138.553 171.886 139.943 171.946 141.503C173.306 182.553 213.626 215.053 262.496 226.993C311.356 238.933 362.136 228.683 382.266 192.883C383.036 191.523 382.776 189.823 381.706 188.763C378.096 185.183 377.166 180.383 377.246 172.703C377.266 170.363 377.246 168.053 377.156 165.773" stroke="#50281E" stroke-width="2.5" stroke-linecap="round" stroke-linejoin="round"/>
<path d="M375.406 148.714C368.286 107.164 340.907 79.7136 300.867 69.9336C260.817 60.1536 223.866 71.8836 198.396 105.464" stroke="#50281E" stroke-width="2.5" stroke-linecap="round" stroke-linejoin="round"/>
<path d="M341.787 200.093C332.137 210.753 317.528 215.453 316.748 217.003C315.968 218.553 319.157 228.223 319.827 230.493C301.787 233.013 281.988 231.773 262.488 227.013C243.048 222.263 224.967 214.263 210.147 203.763C211.757 202.103 214.077 200.153 218.437 194.033C218.657 193.723 206.347 181.533 203.297 166.713C200.777 154.503 202.617 141.913 205.707 136.963C206.297 136.023 224.557 113.853 275.677 118.203C276.387 118.273 277.107 118.353 277.827 118.413C279.317 116.663 291.967 101.223 291.967 101.223C292.338 100.723 292.897 100.543 293.417 100.623C293.947 100.773 294.407 101.203 294.517 101.853C294.517 101.853 298.617 121.393 299.137 123.623C299.997 123.973 300.847 124.303 301.687 124.633C348.557 144.323 353.917 170.723 354.037 171.823C354.437 175.533 350.257 190.753 341.797 200.093H341.787Z" fill="#FDEDF1" stroke="#50281E" stroke-width="2.5" stroke-linecap="round" stroke-linejoin="round"/>
<path d="M265.057 195.633C266.577 194.143 271.017 192.633 271.827 192.633C273.447 192.633 278.087 192.633 284.447 196.853" stroke="#50281E" stroke-width="2.5" stroke-linecap="round" stroke-linejoin="round"/>
<path d="M257.277 171.114C259.997 164.894 251.277 153.944 237.607 148.974C225.717 144.654 221.237 151.314 220.707 158.794C220.437 162.534 225.717 167.214 234.537 170.864C245.487 175.404 255.307 175.634 257.287 171.114H257.277Z" fill="white" stroke="#50281E" stroke-width="2.5" stroke-linecap="round" stroke-linejoin="round"/>
<path d="M223.807 150.604C220.887 153.234 215.787 148.954 215.787 148.954" stroke="#50281E" stroke-width="2.5" stroke-linecap="round" stroke-linejoin="round"/>
<path d="M241.663 162.154C243.901 156.858 241.331 150.712 235.924 148.427C230.516 146.141 224.318 148.582 222.08 153.877C219.842 159.173 222.411 165.319 227.819 167.604C233.227 169.89 239.425 167.449 241.663 162.154Z" fill="#502823"/>
<path d="M291.927 179.583C292.377 172.803 304.657 168.963 319.077 170.863C331.617 172.513 333.037 178.633 330.067 185.513C328.577 188.953 321.937 189.843 312.427 189.013C300.617 187.993 291.597 184.493 291.927 179.573V179.583Z" fill="white" stroke="#50281E" stroke-width="2.5" stroke-linecap="round" stroke-linejoin="round"/>
<path d="M307.627 170.483C298.077 171.093 292.637 174.363 291.977 179.223C292.117 180.493 292.547 181.693 293.187 182.773C295.137 184.933 300.647 186.653 305.947 187.783C311.117 187.043 313.627 183.063 313.627 178.253C313.627 175.063 310.457 171.333 307.627 170.483Z" fill="#502823"/>
<path d="M249.797 141.104C251.397 144.354 257.017 149.654 261.307 148.164" stroke="#50281E" stroke-width="2.5" stroke-linecap="round" stroke-linejoin="round"/>
<path d="M293.146 152.563C294.566 152.193 307.747 148.423 309.337 153.063" stroke="#50281E" stroke-width="2.5" stroke-linecap="round" stroke-linejoin="round"/>
<path d="M267.497 176.343C267.837 174.973 269.307 174.253 274.037 175.403C278.767 176.563 279.707 178.033 279.407 179.253C279.107 180.473 275.287 182.183 272.547 181.513C269.797 180.843 267.167 177.713 267.497 176.343Z" fill="#FF73A2" stroke="#50281E" stroke-width="2.5" stroke-linecap="round" stroke-linejoin="round"/>
<path d="M268.877 344.533C262.197 343.463 256.967 337.813 256.677 330.793C256.337 322.773 262.567 315.983 270.587 315.643C286.197 314.983 305.237 315.103 312.867 313.693C312.977 313.603 313.087 313.523 313.197 313.433C319.557 308.533 328.197 309.793 333.107 316.153C336.597 320.683 337.687 324.973 335.287 330.123C331.367 338.543 321.897 340.053 315.627 341.043C310.967 341.783 304.747 342.473 297.137 343.103C284.507 344.143 272.337 344.673 271.827 344.693C270.827 344.733 269.837 344.673 268.887 344.523L268.877 344.533Z" fill="#FF73A2"/>
<path d="M333.507 314.443C336.997 318.973 337.677 324.983 335.277 330.133C331.357 338.553 321.887 340.063 315.617 341.053C310.957 341.793 304.737 342.483 297.127 343.113C284.497 344.153 272.327 344.683 271.817 344.703C270.817 344.743 269.827 344.683 268.877 344.533C262.197 343.463 256.967 337.813 256.677 330.793C256.337 322.773 262.567 315.983 270.587 315.643C286.197 314.983 305.157 313.473 312.787 312.063" stroke="#50281E" stroke-width="2.5" stroke-linecap="round" stroke-linejoin="round"/>
<path d="M294.237 314.963C286.697 315.183 278.227 315.313 270.587 315.643C262.567 315.983 256.337 322.763 256.677 330.793C256.977 337.813 262.207 343.463 268.877 344.533C269.827 344.683 270.817 344.743 271.817 344.703C272.327 344.683 284.497 344.163 297.127 343.113C299.067 342.953 300.917 342.783 302.667 342.623C308.457 330.563 298.327 318.963 294.227 314.963H294.237Z" fill="#FDEDF1" stroke="#50281E" stroke-width="2.5" stroke-linecap="round" stroke-linejoin="round"/>
<path d="M278.067 342.823C277.897 343.444 277.347 345.163 277.117 345.753C272.537 357.463 259.297 357.693 254.097 355.293C247.217 352.113 248.957 336.703 251.797 325.783C254.637 314.863 264.087 312.943 271.087 315.853" fill="#FDEDF1"/>
<path d="M278.067 342.823C277.897 343.443 277.347 345.163 277.117 345.753C272.537 357.463 259.297 357.693 254.097 355.293C247.217 352.113 248.957 336.703 251.797 325.783C254.637 314.863 264.087 312.943 271.087 315.853" stroke="#50281E" stroke-width="2.5" stroke-linecap="round" stroke-linejoin="round"/>
<path d="M243.717 315.323L243.697 315.303C239.437 312.483 235.117 309.583 230.847 306.693C226.567 303.793 222.317 300.873 218.107 297.943C213.897 295.003 211.957 293.373 207.937 290.413C205.937 288.933 204.747 288.573 202.957 287.143C202.347 286.663 201.767 286.183 201.257 285.753C197.727 279.433 189.307 276.713 182.437 279.503C176.347 281.983 172.277 287.433 173.227 293.963C173.767 297.663 175.717 301.043 178.177 303.863C180.647 306.673 183.617 308.983 186.577 311.273C196.117 318.653 203.397 324.753 213.107 331.853C217.377 334.973 221.607 338.043 225.947 341.153C226.087 341.253 226.277 341.383 226.417 341.473C233.637 346.253 243.367 344.273 248.147 337.053C252.927 329.833 250.947 320.103 243.727 315.323H243.717Z" fill="#FF73A2"/>
<path d="M182.148 278.503C176.058 280.983 172.278 287.423 173.228 293.953C173.768 297.653 175.718 301.033 178.178 303.853C180.648 306.663 183.618 308.973 186.578 311.263C196.118 318.643 203.398 324.743 213.108 331.843C217.378 334.963 221.608 338.033 225.948 341.143C226.088 341.243 226.278 341.373 226.418 341.463C233.638 346.243 243.368 344.263 248.148 337.043C252.928 329.823 250.948 320.093 243.728 315.313L243.708 315.293C239.448 312.473 235.128 309.573 230.858 306.683C226.578 303.783 222.328 300.863 218.118 297.933C213.908 294.993 209.718 291.683 205.698 288.723" stroke="#50281E" stroke-width="2.5" stroke-linecap="round" stroke-linejoin="round"/>
<path d="M243.718 315.323L243.698 315.303C239.438 312.483 235.118 309.583 230.848 306.693C228.788 305.293 226.728 303.893 224.678 302.483C224.288 302.513 223.908 302.533 223.508 302.563C202.278 304.353 204.648 322.443 205.348 326.083C207.918 328.023 210.508 329.953 213.098 331.853C217.368 334.973 221.598 338.043 225.938 341.153C226.078 341.253 226.268 341.383 226.408 341.473C233.628 346.253 243.358 344.273 248.138 337.053C252.918 329.833 250.938 320.103 243.718 315.323Z" fill="#FDEDF1" stroke="#50281E" stroke-width="2.5" stroke-linecap="round" stroke-linejoin="round"/>
<path d="M237.158 312.193C246.338 312.123 253.068 320.373 251.098 331.773C249.128 343.173 247.538 355.023 238.388 356.073C229.248 357.133 219.538 347.733 219.608 336.173C219.608 335.483 219.648 334.793 219.708 334.093" fill="#FDEDF1"/>
<path d="M237.158 312.193C246.338 312.123 253.068 320.373 251.098 331.773C249.128 343.173 247.538 355.023 238.388 356.073C229.248 357.133 219.538 347.733 219.608 336.173C219.608 335.483 219.648 334.793 219.708 334.093" stroke="#50281E" stroke-width="2.5" stroke-linecap="round" stroke-linejoin="round"/>
<path d="M273.766 293.884C263.916 298.344 252.286 293.954 247.826 284.104L155.956 80.5236C154.796 77.9736 155.936 74.9636 158.486 73.8136C161.036 72.6536 164.046 73.7936 165.196 76.3436L257.066 279.924C259.216 284.674 264.826 286.784 269.576 284.644C274.326 282.494 276.436 276.884 274.296 272.134L271.216 265.324C270.056 262.774 271.196 259.764 273.746 258.614C276.296 257.454 279.306 258.594 280.456 261.144L283.536 267.954C287.996 277.804 283.606 289.434 273.756 293.894L273.766 293.884Z" fill="#FFEAB6"/>
<path d="M45.4068 170.023C61.1468 163.623 77.3469 162.843 90.4469 166.773C93.9869 167.833 98.1669 166.143 99.9569 162.903C106.607 150.943 118.747 140.203 134.487 133.803C150.227 127.403 166.427 126.623 179.527 130.553C183.067 131.613 187.247 129.923 189.037 126.683C195.687 114.723 207.827 103.983 223.567 97.5834C239.307 91.1834 255.507 90.4034 268.607 94.3334C272.147 95.3934 276.327 93.7034 278.117 90.4634C284.767 78.5034 296.907 67.7634 312.647 61.3634C322.627 57.3034 332.777 55.5034 342.217 55.7334C348.947 55.8934 353.197 48.3934 348.737 44.2734C300.367 -0.476582 217.777 -12.7366 139.697 19.0034C61.6169 50.7434 11.0169 117.163 7.5969 182.963C7.2769 189.023 15.5568 191.423 20.2668 186.613C26.8668 179.863 35.3969 174.063 45.3769 170.013L45.4068 170.023Z" fill="#FFF8E3" stroke="#FFEAB6" stroke-width="2.5" stroke-linecap="round" stroke-linejoin="round"/>
<path d="M95.8673 166.443C95.8673 166.443 62.7973 87.8734 139.737 19.0034" stroke="#FFEAB6" stroke-width="2.5" stroke-linecap="round" stroke-linejoin="round"/>
<path d="M184.958 130.223L139.738 19.0034" stroke="#FFEAB6" stroke-width="2.5" stroke-linecap="round" stroke-linejoin="round"/>
<path d="M274.048 94.0036C274.048 94.0036 238.258 3.57365 139.738 19.0036" stroke="#FFEAB6" stroke-width="2.5" stroke-linecap="round" stroke-linejoin="round"/>
<path d="M348.776 44.2732C343.396 39.3032 337.596 34.7332 331.436 30.5732C330.146 31.3032 328.616 31.8032 326.966 31.9132C318.126 32.4632 308.446 34.6432 298.776 38.5832C283.506 44.7932 271.276 54.1132 264.116 63.9732C262.176 66.6332 258.136 68.2832 254.886 67.7232C242.876 65.6632 227.616 67.5132 212.346 73.7232C197.076 79.9332 184.846 89.2532 177.686 99.1132C175.746 101.773 171.706 103.423 168.456 102.863C156.446 100.803 141.186 102.653 125.916 108.863C110.646 115.073 98.416 124.393 91.256 134.253C89.316 136.913 85.276 138.563 82.026 138.003C70.016 135.943 54.7561 137.793 39.4861 144.003C29.8061 147.933 21.356 153.123 14.636 158.903C13.386 159.983 11.936 160.693 10.506 161.063C8.98596 168.343 8.01596 175.663 7.63596 182.973C7.31596 189.033 15.596 191.433 20.306 186.623C26.906 179.873 35.436 174.073 45.416 170.023C61.156 163.623 77.356 162.843 90.456 166.773C93.996 167.833 98.176 166.143 99.966 162.903C106.616 150.943 118.756 140.203 134.496 133.803C150.236 127.403 166.436 126.623 179.536 130.553C183.076 131.613 187.256 129.923 189.046 126.683C195.696 114.723 207.836 103.983 223.576 97.5832C239.316 91.1832 255.516 90.4032 268.616 94.3332C272.156 95.3932 276.336 93.7032 278.126 90.4632C284.776 78.5032 296.916 67.7632 312.656 61.3632C322.636 57.3032 332.786 55.5032 342.226 55.7332C348.956 55.8932 353.206 48.3932 348.746 44.2732H348.776Z" fill="#FFA4D6" stroke="#FF8FD2" stroke-width="2.5" stroke-linecap="round" stroke-linejoin="round"/>
<path d="M140.837 20.7333L140.167 21.0033C137.467 22.1033 134.387 20.6833 133.477 17.9133L131.747 12.7133C130.907 10.1933 132.177 7.45335 134.637 6.44335C137.097 5.44335 139.917 6.52335 141.077 8.91335L143.467 13.8433C144.747 16.4733 143.527 19.6233 140.827 20.7233L140.837 20.7333Z" fill="#FFA4D6" stroke="#FF8FD2" stroke-width="2.5" stroke-linecap="round" stroke-linejoin="round"/>
<path d="M178.387 130.233L247.827 284.113C252.287 293.963 263.917 298.343 273.767 293.893C283.617 289.433 287.997 277.803 283.547 267.953L280.467 261.143C279.307 258.593 276.307 257.453 273.757 258.613C271.207 259.773 270.067 262.773 271.227 265.323L274.307 272.133C276.457 276.883 274.337 282.493 269.587 284.643C264.837 286.793 259.227 284.673 257.077 279.923L188.377 127.693C188.487 127.553 188.597 127.413 188.697 127.273" stroke="#F4CC71" stroke-width="2.5" stroke-linecap="round" stroke-linejoin="round"/>
<path d="M348.778 44.2732C348.068 43.6132 347.338 42.9632 346.608 42.3132C346.348 42.0832 346.078 41.8532 345.808 41.6232C345.338 41.2132 344.878 40.8132 344.398 40.4032C344.068 40.1232 343.728 39.8432 343.388 39.5632C342.978 39.2232 342.578 38.8832 342.168 38.5532C341.788 38.2432 341.408 37.9332 341.028 37.6332C340.658 37.3432 340.288 37.0432 339.918 36.7532C339.498 36.4232 339.078 36.1032 338.658 35.7832C338.318 35.5232 337.978 35.2732 337.638 35.0132C337.188 34.6732 336.728 34.3332 336.268 33.9932C335.968 33.7732 335.658 33.5532 335.358 33.3332C334.858 32.9732 334.358 32.6132 333.858 32.2632C333.618 32.0932 333.368 31.9232 333.118 31.7532C332.558 31.3632 331.988 30.9732 331.418 30.5832C283.048 -1.99678 211.958 -8.93677 143.788 17.4032C144.098 16.2632 144.018 15.0132 143.458 13.8632L141.068 8.93323C139.908 6.54323 137.088 5.46323 134.628 6.46323C132.168 7.46323 130.898 10.2032 131.738 12.7332L133.468 17.9332C133.868 19.1532 134.688 20.1032 135.708 20.7032C67.6977 49.7432 21.3277 105.273 10.0977 163.103C10.0377 163.393 9.98764 163.683 9.92764 163.973C9.81764 164.583 9.70768 165.183 9.59768 165.793C9.53768 166.163 9.46762 166.523 9.40762 166.893C9.31762 167.453 9.2276 168.023 9.1376 168.583C9.0676 169.003 9.00766 169.423 8.94766 169.843C8.86766 170.373 8.79769 170.893 8.72769 171.423C8.66769 171.893 8.60763 172.363 8.54763 172.833C8.48763 173.313 8.4277 173.803 8.3677 174.283C8.3077 174.813 8.24766 175.333 8.19766 175.863C8.14766 176.303 8.10765 176.733 8.06765 177.173C8.00765 177.793 7.95762 178.413 7.90762 179.033C7.87762 179.383 7.84765 179.723 7.81765 180.073C7.74765 181.043 7.6876 182.023 7.6376 182.993C7.5976 183.753 7.69761 184.453 7.89761 185.083C7.94761 185.243 8.00765 185.393 8.06765 185.553C8.84765 187.363 10.5677 188.583 12.5777 189.023C12.7477 189.063 12.9177 189.093 13.0877 189.113C13.4277 189.163 13.7776 189.193 14.1376 189.203C14.3176 189.203 14.4976 189.203 14.6676 189.203C15.7376 189.153 16.8377 188.893 17.8677 188.393C18.2177 188.223 18.5477 188.033 18.8777 187.823C19.3677 187.493 19.8476 187.113 20.2876 186.653C26.8876 179.903 35.4176 174.113 45.3976 170.053C58.1876 164.853 71.2776 163.363 82.7676 165.093C85.4176 165.493 87.9877 166.063 90.4477 166.803C90.8877 166.933 91.3476 167.023 91.7976 167.073C92.0276 167.093 92.2577 167.113 92.4877 167.113C93.1777 167.123 93.8676 167.053 94.5376 166.893C94.7576 166.843 94.9877 166.783 95.2077 166.713C96.0877 166.433 96.9276 166.013 97.6676 165.473C98.0376 165.203 98.3877 164.903 98.7177 164.573C99.1977 164.083 99.6177 163.533 99.9577 162.923C103.278 156.943 107.978 151.263 113.818 146.283C115.278 145.033 116.808 143.833 118.408 142.683C120.008 141.533 121.668 140.433 123.398 139.383C126.858 137.293 130.568 135.413 134.498 133.813C150.238 127.413 166.438 126.633 179.538 130.563C183.078 131.623 187.258 129.933 189.048 126.693C189.878 125.193 190.798 123.723 191.798 122.273C194.798 117.923 198.528 113.793 202.908 110.063C203.638 109.443 204.388 108.833 205.148 108.233C207.438 106.433 209.888 104.733 212.478 103.163C215.938 101.073 219.648 99.1932 223.578 97.5932C231.368 94.4232 239.258 92.6432 246.838 92.1132C248.838 91.9732 250.818 91.9232 252.758 91.9532C256.488 92.0232 260.108 92.4032 263.568 93.0832C265.298 93.4232 266.978 93.8432 268.618 94.3332C268.838 94.4032 269.068 94.4532 269.288 94.5032C269.738 94.5932 270.198 94.6432 270.658 94.6532C272.038 94.6832 273.418 94.3532 274.658 93.7332C275.068 93.5232 275.468 93.2833 275.838 93.0133C276.028 92.8833 276.208 92.7332 276.378 92.5832C276.728 92.2832 277.048 91.9532 277.348 91.6032C277.638 91.2532 277.898 90.8732 278.128 90.4632C284.778 78.5032 296.918 67.7632 312.658 61.3632C313.738 60.9232 314.818 60.5132 315.908 60.1332C320.448 58.5132 325.008 57.3432 329.508 56.6232C330.668 56.4332 331.828 56.2832 332.978 56.1532C333.668 56.0732 334.348 56.0032 335.038 55.9532C335.648 55.9032 336.258 55.8632 336.858 55.8232C338.068 55.7532 339.268 55.7232 340.458 55.7132C341.058 55.7132 341.648 55.7132 342.238 55.7332C348.968 55.8932 353.218 48.3932 348.758 44.2732H348.778Z" stroke="#E25088" stroke-width="2.5" stroke-linecap="round" stroke-linejoin="round"/>
<path d="M23.5059 119.824C23.5059 119.824 7.46603 142.744 4.47603 170.374C2.80603 185.864 4.74598 219.634 8.55598 226.854C12.376 234.084 20.586 220.154 15.926 207.914C11.266 195.674 7.27603 165.144 10.226 160.504C13.176 155.864 28.326 137.434 28.046 129.304C28.046 129.304 26.146 115.564 30.086 111.914" fill="#B8F7FF"/>
<path d="M23.5059 119.824C23.5059 119.824 7.46603 142.744 4.47603 170.374C2.80603 185.864 4.74598 219.634 8.55598 226.854C12.376 234.084 20.586 220.154 15.926 207.914C11.266 195.674 7.27603 165.144 10.226 160.504C13.176 155.864 28.326 137.434 28.046 129.304C28.046 129.304 26.146 115.564 30.086 111.914" stroke="#7BD0FF" stroke-width="2.5" stroke-linecap="round" stroke-linejoin="round"/>
<path d="M37.057 50.6337C37.057 50.6337 22.637 24.7837 17.667 28.6337C12.697 32.4837 34.8171 49.0137 34.8171 49.0137" fill="#B8F7FF"/>
<path d="M37.057 50.6337C37.057 50.6337 22.637 24.7837 17.667 28.6337C12.697 32.4837 34.8171 49.0137 34.8171 49.0137" stroke="#7BD0FF" stroke-width="2.5" stroke-linecap="round" stroke-linejoin="round"/>
<path d="M28.4759 57.9634C28.1059 57.9634 9.20586 66.9234 10.7059 70.9034C12.1959 74.8834 28.4759 61.1934 28.4759 61.1934" fill="#B8F7FF"/>
<path d="M28.4759 57.9634C28.1059 57.9634 9.20586 66.9234 10.7059 70.9034C12.1959 74.8834 28.4759 61.1934 28.4759 61.1934" stroke="#7BD0FF" stroke-width="2.5" stroke-linecap="round" stroke-linejoin="round"/>
<path d="M19.6373 242.613C19.6373 242.613 13.4573 272.423 19.6373 272.743C25.8173 273.063 21.2374 247.363 21.2374 247.363" fill="#B8F7FF"/>
<path d="M19.6373 242.613C19.6373 242.613 13.4573 272.423 19.6373 272.743C25.8173 273.063 21.2374 247.363 21.2374 247.363" stroke="#7BD0FF" stroke-width="2.5" stroke-linecap="round" stroke-linejoin="round"/>
<path d="M3.99667 303.053C3.99667 303.053 -2.18333 332.863 3.99667 333.183C10.1767 333.503 5.59664 307.803 5.59664 307.803" fill="#B8F7FF"/>
<path d="M3.99667 303.053C3.99667 303.053 -2.18333 332.863 3.99667 333.183C10.1767 333.503 5.59664 307.803 5.59664 307.803" stroke="#7BD0FF" stroke-width="2.5" stroke-linecap="round" stroke-linejoin="round"/>
<path d="M312.086 304.203C309.046 304.993 305.216 305.523 300.346 305.863C290.746 306.543 278.666 306.283 268.926 305.073C261.646 304.173 258.626 301.463 259.716 293.883C260.786 286.433 265.286 277.493 272.256 279.033C286.676 282.223 304.096 282.903 308.796 281.883C311.336 279.453 313.146 279.773 316.336 281.863C320.586 284.663 322.826 291.193 321.146 296.423C319.736 300.813 318.256 302.613 312.106 304.203H312.086Z" fill="#FF73A2"/>
<path d="M322.877 296.043C321.467 300.433 318.247 302.613 312.087 304.203C309.047 304.993 305.217 305.523 300.347 305.863C290.747 306.543 278.667 306.283 268.927 305.073C261.647 304.173 260.277 299.803 261.367 292.213C262.437 284.763 265.286 277.483 272.256 279.023C286.676 282.213 304.097 282.893 308.797 281.873" stroke="#50281E" stroke-width="2.5" stroke-linecap="round" stroke-linejoin="round"/>
<path d="M258.397 292.403C257.307 299.983 267.237 307.903 274.527 308.803C280.517 309.543 283.567 307.793 288.427 306.233C296.117 298.133 293.027 285.943 289.277 281.643C284.137 278.513 278.347 277.063 272.757 276.193C264.897 274.963 260.257 279.163 268.217 281.643C262.987 282.373 259.247 286.543 258.407 292.413L258.397 292.403Z" fill="#FDEDF1" stroke="#50281E" stroke-width="2.5" stroke-linecap="round" stroke-linejoin="round"/>
<path d="M177.166 262.163C175.376 260.363 174.266 259.333 174.036 256.663C173.676 252.413 179.226 244.893 193.556 231.723C196.606 228.923 204.776 219.873 213.316 215.603C219.286 212.623 225.526 215.403 228.496 221.603C231.436 227.733 229.956 234.613 223.936 237.213C217.316 240.073 199.856 252.823 195.406 258.133C195.346 258.463 195.266 258.793 195.176 259.123C193.566 264.753 188.136 267.113 182.506 265.503C180.606 264.963 178.486 263.483 177.176 262.153L177.166 262.163Z" fill="#FF73A2"/>
<path d="M186.496 267.313C181.566 267.953 178.256 264.503 178.256 264.503C175.326 262.073 174.266 259.343 174.036 256.663C173.676 252.413 179.226 244.893 193.556 231.723C196.606 228.923 204.776 219.873 213.316 215.603C219.286 212.623 224.926 217.073 227.906 223.273C230.846 229.403 229.966 234.613 223.946 237.213C217.326 240.073 199.866 252.823 195.416 258.133" stroke="#50281E" stroke-width="2.5" stroke-linecap="round" stroke-linejoin="round"/>
<path d="M229.956 221.943C226.986 215.743 220.106 212.423 214.136 215.413C209.926 209.423 200.356 221.243 197.416 227.953C198.756 234.563 201.806 242.803 208.766 247.193C213.556 244.143 218.956 241.573 222.866 239.883C230.956 241.113 232.896 228.073 229.956 221.943Z" fill="#FDEDF1" stroke="#50281E" stroke-width="2.5" stroke-linecap="round" stroke-linejoin="round"/>
<path d="M330.848 177.133C332.408 181.333 337.648 179.833 337.648 179.833" stroke="#50281E" stroke-width="2.5" stroke-linecap="round" stroke-linejoin="round"/>
</svg>
