<svg width="352" height="381" viewBox="0 0 352 381" fill="none" xmlns="http://www.w3.org/2000/svg">
<path d="M175.221 214.36C169.581 218.83 173.131 225.62 175.521 230.48C180.151 239.89 189.531 253.05 207.181 273.2C235.411 305.43 257.861 325.24 290.151 346.31C292.781 348.03 295.471 349.59 298.141 351.09C305.721 346.8 312.411 339.05 313.081 329.62C312.071 329.09 311.101 328.49 310.081 327.96C287.151 315.96 249.931 289.37 222.291 258.55C204.141 238.32 201.961 231.79 191.121 217.74C189.481 215.62 182.131 208.89 175.231 214.36H175.221Z" fill="#FF73A2" stroke="#512921" stroke-width="2.5" stroke-linecap="round" stroke-linejoin="round"/>
<path d="M342.211 341.58C334.891 337.95 323.631 335.15 313.081 329.61C312.421 339.04 305.721 346.78 298.141 351.08C313.241 359.55 328.191 364.7 338.341 363.12C344.061 362.23 349.171 359.42 350.111 353.44C350.821 348.95 348.441 344.67 342.211 341.58Z" fill="#FFEBF0" stroke="#512921" stroke-width="2.5" stroke-linecap="round" stroke-linejoin="round"/>
<path d="M115.482 225.99C122.862 206.49 130.482 188.92 139.752 179.26C144.762 174.04 147.112 190.96 143.082 213.88C141.822 220.28 140.292 227.01 138.672 233.78H138.642C136.982 239.55 131.282 243.38 125.162 242.5C118.472 241.54 113.822 235.35 114.782 228.66C114.912 227.73 115.162 226.84 115.482 225.99Z" fill="#FF73A2"/>
<path d="M115.482 225.99C122.862 206.49 130.482 188.92 139.752 179.26C144.762 174.04 147.112 190.96 143.082 213.88C141.822 220.28 140.292 227.01 138.672 233.78C137.012 239.56 131.292 243.38 125.172 242.5C118.482 241.54 113.832 235.35 114.792 228.66C114.922 227.73 115.172 226.84 115.492 225.99H115.482Z" stroke="#512921" stroke-width="2.5" stroke-linecap="round" stroke-linejoin="round"/>
<path d="M96.9419 211.81C105.772 213.81 113.552 216.69 122.162 218.7C127.792 219.85 133.142 223.89 133.082 229.85C133.012 236.61 130.022 241.27 123.262 241.2C122.692 241.2 119.592 240.62 119.032 240.53V240.56C110.032 239.63 100.932 239.85 92.3819 238.94C85.1419 238.44 79.4619 232.37 79.5319 225.02C79.6119 217.39 85.8519 211.26 93.4919 211.34C94.6919 211.35 95.8419 211.52 96.9519 211.81H96.9419Z" fill="#FF73A2"/>
<path d="M127.292 242.59L119.022 241.84C110.022 240.91 100.932 239.85 92.3721 238.94C85.1321 238.44 79.4521 232.37 79.5221 225.02C79.6021 217.39 85.8421 211.26 93.4821 211.34C94.6821 211.35 95.8321 211.52 96.9421 211.81C105.772 213.81 115.672 215.96 124.272 217.97" stroke="#512921" stroke-width="2.5" stroke-linecap="round" stroke-linejoin="round"/>
<path d="M91.5124 238.85C89.6424 238.65 87.7424 238.5 85.8224 238.23C78.0324 237.13 64.4925 235.34 66.6425 219.03C67.4525 212.89 69.9725 202.32 88.1725 210.06C90.8725 211.21 93.9224 211.17 96.7524 211.77C108.572 214.06 103.332 241.14 91.5124 238.85Z" fill="#FFEBF0" stroke="#512921" stroke-width="2.5" stroke-linecap="round" stroke-linejoin="round"/>
<path d="M80.6125 216.32C80.5025 216.58 81.8725 231.93 73.8125 230.21L80.6125 216.32Z" fill="#FFEBF0"/>
<path d="M80.6125 216.32C80.5025 216.58 81.8725 231.93 73.8125 230.21" stroke="#512921" stroke-width="2.5" stroke-linecap="round" stroke-linejoin="round"/>
<path d="M84.8919 220.34C83.9719 221.17 82.7719 221.69 81.4319 221.74C78.4319 221.84 75.9119 219.49 75.8019 216.49C75.7019 213.49 78.0519 210.97 81.0519 210.86" fill="#FFEBF0"/>
<path d="M84.8919 220.34C83.9719 221.17 82.7719 221.69 81.4319 221.74C78.4319 221.84 75.9119 219.49 75.8019 216.49C75.7019 213.49 78.0519 210.97 81.0519 210.86" stroke="#512921" stroke-width="2.5" stroke-linecap="round" stroke-linejoin="round"/>
<path d="M123.032 187.02C125.172 216.74 115.722 206.87 115.632 212.63C115.482 222.31 139.702 237.58 155.492 231.17L154.152 186.89C154.152 186.89 150.492 167.3 146.032 165.2C141.582 163.1 121.032 159.44 123.022 187.01L123.032 187.02Z" fill="white" stroke="#512921" stroke-width="2.5" stroke-linecap="round" stroke-linejoin="round"/>
<path d="M168.322 302.18C168.702 283.34 168.992 265.36 169.072 259.95C169.072 259.93 169.072 259.92 169.072 259.9C169.112 259.37 169.112 258.84 169.092 258.32C169.092 258.31 169.092 258.29 169.092 258.29C168.782 251.42 163.382 245.72 156.352 245.22C148.862 244.68 142.342 250.26 141.692 257.72L140.482 277.77L138.672 302.12H138.722C138.382 310.1 144.442 316.95 152.462 317.53C160.622 318.11 167.712 311.97 168.302 303.81C168.342 303.26 168.352 302.72 168.332 302.18H168.322Z" fill="#FF73A2" stroke="#512921" stroke-width="2.5" stroke-linecap="round" stroke-linejoin="round"/>
<path d="M147.062 372.65C153.942 373.14 160.952 372.58 165.552 369.74C166.542 369.13 166.762 361.44 166.882 357.45L167.592 333C163.172 333.2 157.112 333.32 151.682 332.94C145.782 332.52 140.192 331.32 136.582 330.41L135.322 348.13C135.322 348.13 133.922 367.52 133.922 367.53C133.702 370.55 139.872 372.14 147.072 372.66L147.062 372.65Z" fill="#FFEBF0" stroke="#512921" stroke-width="2.5" stroke-linecap="round" stroke-linejoin="round"/>
<path d="M139.972 302C139.962 302.14 139.942 302.44 139.942 302.44L136.572 330.4C140.182 331.31 145.782 332.51 151.672 332.93C157.102 333.32 163.162 333.19 167.582 332.99C167.832 324.36 166.822 314.13 167.032 303.98C167.032 303.95 167.032 303.9 167.032 303.87C167.262 295.67 162.722 288.56 154.562 287.97C146.402 287.39 140.682 292.19 140.102 300.35L139.962 302H139.972Z" fill="#FF73A2"/>
<path d="M138.702 301.68C138.692 301.82 138.672 301.98 138.672 302.12L136.572 330.4C140.182 331.31 145.782 332.51 151.672 332.93C157.102 333.32 163.162 333.19 167.582 332.99C167.832 324.36 168.072 314.06 168.282 303.91C168.282 303.88 168.282 303.84 168.282 303.81" stroke="#512921" stroke-width="2.5" stroke-linecap="round" stroke-linejoin="round"/>
<path d="M166.472 356.31L134.112 349.24C132.882 349.2 126.462 349.2 121.562 353.08C114.162 358.96 115.192 371.45 118.892 375.5C122.362 379.29 159.062 376.61 163.812 374.04C167.002 372.32 167.112 371.56 166.952 367.78L166.462 356.31H166.472Z" fill="#FFEBF0"/>
<path d="M140.002 350.53C140.002 350.53 137.602 349.87 136.792 349.7C136.122 349.56 134.102 349.24 134.102 349.24C132.872 349.2 126.452 349.2 121.552 353.08C114.152 358.96 115.182 371.45 118.882 375.5C122.352 379.29 159.052 376.61 163.802 374.04C166.992 372.32 167.102 371.56 166.942 367.78L166.452 356.31" stroke="#512921" stroke-width="2.5" stroke-linecap="round" stroke-linejoin="round"/>
<path d="M127.082 228.18C127.122 234.68 165.512 236.83 165.512 236.83L178.422 219.13L161.382 208.54L128.122 217.81L127.092 228.19L127.082 228.18Z" fill="white" stroke="#512921" stroke-width="2.5" stroke-linecap="round" stroke-linejoin="round"/>
<path d="M145.131 264.12C136.951 261.14 133.781 255.26 133.781 247.57C134.661 243.03 137.731 231.23 140.271 226.21C140.931 224.91 142.441 223.98 143.241 222.74C146.411 217.87 159.311 218.98 172.421 218.99C185.301 219 198.391 217.84 201.621 222.58C205.811 228.73 208.271 235.83 208.271 242.56C208.271 259.77 192.001 268.09 171.741 268.09C160.741 268.09 151.451 266.42 145.121 264.11L145.131 264.12Z" fill="#AAA0FF" stroke="#512921" stroke-width="2.5" stroke-linecap="round" stroke-linejoin="round"/>
<path d="M205.801 229.87C205.421 228.43 205.611 216.48 205.611 216.48C205.611 216.48 200.131 217.58 169.661 217.58C150.321 217.58 139.041 216.48 139.041 216.48C139.041 216.48 140.321 228.18 140.251 230.81C140.871 234.52 199.881 233.17 205.801 229.87Z" fill="#AAA0FF"/>
<path d="M205.802 229.87C205.422 228.43 205.612 216.48 205.612 216.48C205.612 216.48 200.131 217.58 169.661 217.58C150.321 217.58 139.042 216.48 139.042 216.48C139.042 216.48 138.841 226.51 138.771 229.14" stroke="#512921" stroke-width="2.5" stroke-linecap="round" stroke-linejoin="round"/>
<path d="M174.912 247.82C174.912 247.66 174.932 247.51 174.942 247.35C175.242 237.3 167.762 229.03 156.072 228.16C147.702 227.53 138.862 233.7 136.532 241.36C136.142 242.52 125.162 288.08 124.282 294.14C123.522 299.35 152.042 305.5 178.002 300.36L174.912 247.82Z" fill="#AAA0FF"/>
<path d="M135.212 241.07C135.212 241.07 135.212 241.08 135.212 241.09C134.822 242.25 125.162 288.08 124.282 294.13C123.522 299.34 152.042 305.49 178.002 300.35L175.582 247.73" stroke="#512921" stroke-width="2.5" stroke-linecap="round" stroke-linejoin="round"/>
<path d="M172.782 260.05C171.592 252.53 176.662 246.26 184.152 246C191.502 245.75 198.482 251.37 200.022 258.67H200.053L208.382 296L209.613 301.82C211.003 310.03 205.462 316.91 197.292 317.19C189.122 317.47 181.382 311.04 179.992 302.84L178.923 296.51C176.563 282.55 172.762 260.06 172.762 260.06H172.772L172.782 260.05Z" fill="#FF73A2" stroke="#512921" stroke-width="2.5" stroke-linecap="round" stroke-linejoin="round"/>
<path d="M181.422 303.02C180.072 294.81 184.582 289.12 192.752 288.88C200.922 288.64 206.862 294.96 208.402 301.91L208.532 302.38L216.252 333.15C216.362 333.58 216.452 334.01 216.522 334.44C217.932 343.04 186.922 343.95 185.512 335.36C185.472 335.12 185.442 334.89 185.412 334.65C185.412 334.65 185.402 334.65 185.392 334.65C183.672 324.2 183.072 313.12 181.412 303.02H181.422Z" fill="#FF73A2"/>
<path d="M209.482 301.05L216.262 333.14C216.372 333.57 216.462 334 216.532 334.43C217.942 343.03 186.932 343.94 185.522 335.35C185.482 335.11 185.452 334.88 185.422 334.64C185.422 334.64 185.412 334.64 185.402 334.64C183.682 324.19 181.392 311.2 179.732 301.09" stroke="#512921" stroke-width="2.5" stroke-linecap="round" stroke-linejoin="round"/>
<path d="M213.422 376.48C208.342 377.58 194.472 377.97 191.802 372.58C190.812 369.26 189.652 360.53 189.652 360.53L185.402 334.65C189.882 335.03 196.012 335.41 201.422 335.25C207.312 335.08 212.782 334.13 216.302 333.37L219.932 350.96C219.742 350.99 222.602 364.09 223.482 368.46C224.062 371.34 223.012 374.41 213.412 376.48H213.422Z" fill="#FFEBF0" stroke="#512921" stroke-width="2.5" stroke-linecap="round" stroke-linejoin="round"/>
<path d="M217.611 352.74C217.611 352.74 220.781 351.91 223.641 351.5C223.831 351.47 224.021 351.45 224.221 351.43C224.221 351.43 231.501 351 236.601 356.55C241.431 361.8 241.241 373.35 237.691 377.35C234.371 381.1 198.151 379.51 195.521 378.38C192.741 377.18 192.271 373.42 192.281 369.67L193.801 361.81C197.981 357.53 217.611 352.74 217.611 352.74Z" fill="#FFEBF0"/>
<path d="M217.612 352.74C217.612 352.74 220.782 351.91 223.642 351.5C223.832 351.47 224.022 351.45 224.222 351.43C224.222 351.43 231.502 351 236.602 356.55C241.432 361.8 241.242 373.35 237.692 377.35C234.372 381.1 198.152 379.51 195.522 378.38C192.742 377.18 191.792 373.5 191.092 369.66" stroke="#512921" stroke-width="2.5" stroke-linecap="round" stroke-linejoin="round"/>
<path d="M179.491 265.99C194.701 265.99 207.031 253.66 207.031 238.45C207.031 223.24 194.701 210.91 179.491 210.91C164.281 210.91 151.951 223.24 151.951 238.45C151.951 253.66 164.281 265.99 179.491 265.99Z" fill="#AAA0FF"/>
<path d="M153.211 253.96L160.071 257.97L159.541 298.89C159.541 298.89 171.481 301.96 187.921 301.63C212.631 301.13 222.111 294.55 225.091 292.1C227.491 290.13 205.531 229.7 205.531 229.7" fill="#AAA0FF"/>
<path d="M153.211 253.96L160.071 257.97L159.541 298.89C159.541 298.89 171.481 301.96 187.921 301.63C212.631 301.13 222.111 294.55 225.091 292.1C227.491 290.13 205.531 229.7 205.531 229.7" stroke="#512921" stroke-width="2.5" stroke-linecap="round" stroke-linejoin="round"/>
<path d="M143.281 230.9C143.281 230.9 169.161 238.33 197.461 232.33" stroke="#512921" stroke-width="2.5" stroke-linecap="round" stroke-linejoin="round"/>
<path d="M133.571 185.69C132.741 202.28 124.521 222.49 127.091 228.18C139.371 220.02 169.821 227.84 180.981 230.01C204.281 234.56 212.431 231.4 210.891 226.11C205.571 207.81 200.721 171.31 189.321 156.22C183.381 148.37 161.641 146.23 153.581 149.69C143.201 154.14 136.841 162.59 134.821 167.21L133.591 185.69H133.571Z" fill="white"/>
<path d="M127.082 228.18C124.512 222.49 135.602 203.87 132.202 185.47" stroke="#512921" stroke-width="2.5" stroke-linecap="round" stroke-linejoin="round"/>
<path d="M133.881 166.38C135.901 161.77 143.181 154.14 153.561 149.69C161.621 146.24 186.761 147.99 191.301 156.73C202.571 178.44 204.591 204.21 210.881 226.12C212.401 231.41 209.041 234.58 180.971 230.02C167.961 227.9 145.251 222.18 135.301 225.02C134.571 225.23 131.551 226.17 131.671 228.09" stroke="#512921" stroke-width="2.5" stroke-linecap="round" stroke-linejoin="round"/>
<path d="M174.241 191.18C176.771 203.62 168.811 218.16 155.551 218.95C143.941 219.64 139.091 209.74 138.241 196.99C137.511 186.03 142.781 178.09 151.381 176.09C163.001 173.38 172.081 180.5 174.241 191.18Z" fill="#AAA0FF"/>
<path d="M141.122 195.31C141.492 195.33 141.882 195.19 142.172 194.89C142.222 194.84 147.882 189.36 156.462 189.87C156.482 189.87 156.492 189.87 156.512 189.87C163.972 190.33 167.862 194.54 167.902 194.58C168.342 195.07 169.132 195.06 169.672 194.56C170.212 194.06 170.292 193.27 169.862 192.78C169.682 192.58 165.382 187.87 156.952 187.35C156.932 187.35 156.912 187.35 156.892 187.35C147.072 186.76 140.762 192.94 140.492 193.2C139.972 193.72 139.922 194.52 140.392 194.98C140.592 195.18 140.852 195.28 141.122 195.3V195.31Z" fill="white"/>
<path d="M155.031 203.56L155.081 220.42C154.441 220.47 153.791 220.48 153.141 220.44C152.491 220.4 151.841 220.32 151.201 220.2L151.491 203.38C151.491 203.17 151.641 203.01 151.821 203.02L154.701 203.17C154.881 203.17 155.031 203.36 155.031 203.56Z" fill="white"/>
<path d="M158.98 200.08C159.13 203.56 156.75 206.71 153.66 206.99C150.57 207.27 148.15 204.55 148.23 201.06C148.31 197.72 150.68 194.9 153.54 194.63C156.4 194.36 158.84 196.74 158.99 200.07L158.98 200.08Z" fill="white"/>
<path d="M175.382 158.41C175.312 164.02 161.572 172.08 153.002 171.69C142.932 171.23 148.582 159.56 148.582 159.56C148.582 159.56 151.582 152.81 164.332 153.38C170.692 153.66 175.412 156.08 175.382 158.4V158.41Z" fill="#FF73A2" stroke="#512921" stroke-width="2.5" stroke-linecap="round" stroke-linejoin="round"/>
<path d="M197.912 151.62C197.912 151.62 212.092 145.92 223.742 141.83C232.072 138.9 245.192 146.2 248.852 165.94C251.832 181.99 244.562 194.93 234.452 195.29C223.212 195.68 208.102 191.75 197.332 188.06" fill="white"/>
<path d="M197.912 151.62C197.912 151.62 212.092 145.92 223.742 141.83C232.072 138.9 245.192 146.2 248.852 165.94C251.832 181.99 244.562 194.93 234.452 195.29C223.212 195.68 208.102 191.75 197.332 188.06" stroke="#512921" stroke-width="2.5" stroke-linecap="round" stroke-linejoin="round"/>
<path d="M248.352 151.56C250.512 167.56 224.632 172.13 208.142 176.18C201.842 177.73 191.613 165.52 205.063 155.39C222.633 142.15 245.952 133.8 248.352 151.56Z" fill="#FF73A2" stroke="#512921" stroke-width="2.5" stroke-linecap="round" stroke-linejoin="round"/>
<path d="M191.432 151.57L225.572 141.59C213.402 146.29 216.242 198.16 238.202 188.51C238.202 188.51 224.512 199.42 193.592 174.04" fill="white"/>
<path d="M215.121 152.67C209.611 158.54 210.351 170.78 211.451 174.7" stroke="#512921" stroke-width="2.5" stroke-linecap="round" stroke-linejoin="round"/>
<path d="M225.562 141.58C213.392 146.28 215.952 193.86 238.502 190.42" stroke="#512921" stroke-width="2.5" stroke-linecap="round" stroke-linejoin="round"/>
<path d="M120.522 103.59C54.8418 124.1 -28.8382 79.8201 12.0618 67.1901C47.6718 51.2201 74.4618 24.6802 96.6218 18.6602" fill="#FF73A2"/>
<path d="M120.522 103.59C54.8418 124.1 -28.8382 79.8201 12.0618 67.1901C47.6718 51.2201 74.4618 24.6802 96.6218 18.6602" stroke="#512921" stroke-width="2.5" stroke-linecap="round" stroke-linejoin="round"/>
<path d="M25.6426 86.8402C39.0426 89.8602 52.0026 89.0002 56.5426 87.4002L55.7726 75.7402L25.6426 86.8402Z" fill="#FFEBF0" stroke="#512921" stroke-width="2.5" stroke-linecap="round" stroke-linejoin="round"/>
<path d="M266.522 105.97C250.702 139.24 230.012 144.63 199.952 156.94C177.442 166.16 151.932 170.19 127.782 169.89C118.292 169.77 65.3419 165.58 56.4219 146.38C55.2319 143.82 54.7319 143.23 54.1119 140.48C54.0719 140.3 56.8319 137.56 57.4819 135.42C59.1019 130.03 50.9019 113.72 54.4619 92.33C59.5119 62.05 71.8319 14.63 135.232 3.13C195.372 -7.77 228.642 31.54 238.382 49.98C242.692 58.15 255.962 88.36 262.452 96.45C265.332 100.04 266.242 99.49 266.862 100.92C267.362 102.08 267.222 104.48 266.512 105.97H266.522Z" fill="#FF73A2"/>
<path d="M262.461 96.4601C265.341 100.05 266.251 99.5002 266.871 100.93C267.371 102.09 267.141 104.45 266.521 105.98C255.421 133.52 230.011 144.64 199.951 156.95C177.441 166.17 151.931 170.2 127.781 169.9C118.291 169.78 72.4111 169.11 56.4211 146.39C54.8011 144.08 54.7311 143.24 54.1111 140.49C54.0711 140.31 56.8311 137.57 57.4811 135.43C59.1011 130.04 50.1611 111.08 54.4611 92.3401C58.4511 74.9801 62.3711 45.7802 82.0011 28.6602" stroke="#512921" stroke-width="2.5" stroke-linecap="round" stroke-linejoin="round"/>
<path d="M200.571 155.7C200.571 155.7 198.951 156.44 199.951 156.95C177.441 166.17 151.931 170.2 127.781 169.9C118.291 169.78 108.461 168.08 99.0212 164.9C96.9312 163.52 66.9812 156.52 68.7512 124.4C68.7512 124.4 78.4012 111.54 112.871 103.92C112.871 103.92 115.511 91.4699 121.351 85.1699L133.341 100.15C133.341 100.15 192.271 94.9999 214.761 111.56C214.761 111.56 224.791 136.25 200.561 155.71L200.571 155.7Z" fill="#FFEBF0" stroke="#512921" stroke-width="2.5" stroke-linecap="round" stroke-linejoin="round"/>
<path opacity="0.2" d="M198.742 130.24C201.012 148.74 167.922 154.63 132.752 149.21C98.9423 159.42 85.1023 153.61 81.7823 140.74C79.9423 133.6 81.8823 128.2 92.2623 125.51C99.4523 123.65 106.952 123.49 118.732 124.05C121.922 124.2 121.152 119.86 124.642 120.32C127.002 120.04 127.442 121.39 130.222 121.01C134.072 120.48 133.792 118.99 137.102 118.73C143.752 122.66 155.802 119.43 166.892 117.08C185.812 113.07 197.802 122.57 198.742 130.26V130.24Z" fill="#3B214F"/>
<path d="M132.581 155.76C132.581 155.76 135.631 156.88 143.481 155.1C150.431 153.52 154.671 148.51 159.861 150.56C163.541 152.02 165.551 156.96 161.731 157.43C160.541 157.58 151.971 156.36 145.621 158.61C136.321 161.91 132.091 159.98 132.581 155.76Z" fill="#EB5555" stroke="#512921" stroke-width="2.5" stroke-linecap="round" stroke-linejoin="round"/>
<path d="M157.322 161.67C157.392 162.5 157.222 163.22 156.882 163.95C156.532 164.66 155.952 165.33 155.222 165.77C154.492 166.19 153.662 166.48 152.862 166.41C152.462 166.41 152.092 166.28 151.732 166.17C151.382 166.03 151.052 165.82 150.762 165.56C150.552 165.38 150.532 165.07 150.712 164.86C150.752 164.81 150.802 164.77 150.862 164.74L150.932 164.71C151.272 164.54 151.582 164.44 151.862 164.36C152.142 164.24 152.412 164.2 152.652 164.1C153.142 163.95 153.552 163.82 153.932 163.61C154.312 163.41 154.662 163.12 154.982 162.75C155.322 162.4 155.632 161.9 155.932 161.47L156.032 161.32C156.252 161 156.692 160.92 157.012 161.14C157.192 161.26 157.292 161.46 157.312 161.66L157.322 161.67Z" fill="#FFAAB9"/>
<path d="M126.833 148.74C126.763 147.28 128.063 146 131.893 145.46C137.723 144.64 138.613 145.77 138.793 147.06C139.023 148.73 137.733 150.95 134.533 151.84C131.723 152.62 126.933 150.8 126.833 148.74Z" fill="#FF73A2" stroke="#512921" stroke-width="2.5" stroke-linecap="round" stroke-linejoin="round"/>
<path d="M118.872 133.54C116.402 137.36 111.752 131.85 108.852 127.7" stroke="#512921" stroke-width="2.5" stroke-linecap="round" stroke-linejoin="round"/>
<path d="M124.152 127.72C124.542 128.52 124.742 129.32 124.872 130.17C124.992 131.01 125.002 131.89 124.872 132.78C124.712 133.66 124.512 134.59 123.902 135.39C123.312 136.18 122.402 136.8 121.422 136.83C121.162 136.83 120.942 136.64 120.932 136.37C120.932 136.28 120.952 136.19 120.992 136.12L121.032 136.06C121.452 135.34 121.692 134.82 121.892 134.24C122.102 133.68 122.282 133.05 122.392 132.38C122.642 131.04 122.662 129.53 122.782 128.03V127.97C122.822 127.58 123.162 127.28 123.562 127.32C123.822 127.34 124.042 127.5 124.152 127.72Z" fill="#C1A2F4"/>
<path d="M136.661 126.17C137.441 127.47 138.121 128.82 138.931 129.91C139.321 130.46 139.761 130.94 140.201 131.36C140.641 131.79 141.081 132.16 141.771 132.62L141.831 132.66C142.051 132.81 142.111 133.1 141.961 133.32C141.911 133.4 141.841 133.45 141.761 133.49C140.871 133.89 139.781 133.73 138.901 133.28C138.001 132.83 137.401 132.08 136.881 131.36C136.371 130.62 136.001 129.83 135.731 129.02C135.481 128.2 135.301 127.39 135.301 126.5C135.301 126.1 135.621 125.78 136.011 125.78C136.271 125.78 136.501 125.92 136.631 126.13L136.661 126.18V126.17Z" fill="#C1A2F4"/>
<path d="M143.691 130.31C147.031 134 151.121 128.32 153.651 123.62" stroke="#512921" stroke-width="2.5" stroke-linecap="round" stroke-linejoin="round"/>
<path d="M236.572 57.04C238.152 84.45 187.242 138.38 180.722 107.59C168.942 91.39 151.842 80.11 141.512 33.72" fill="#FF73A2"/>
<path d="M236.572 57.04C238.152 84.45 187.242 138.38 180.722 107.59C168.942 91.39 151.842 80.11 141.512 33.72" stroke="#512921" stroke-width="2.5" stroke-linecap="round" stroke-linejoin="round"/>
<path d="M248.03 155.6C248.03 155.6 249.46 138.41 229.11 100.25L205.24 115.38C205.24 115.38 218.42 140.56 222.61 155.08" fill="#FF73A2"/>
<path d="M248.03 155.6C248.03 155.6 249.46 138.41 229.11 100.25L205.24 115.38C205.24 115.38 218.42 140.56 222.61 155.08" stroke="#512921" stroke-width="2.5" stroke-linecap="round" stroke-linejoin="round"/>
<path d="M230.151 102.55C231.321 104.15 233.121 107.81 233.871 109.38C241.671 125.67 215.191 135.09 210.061 124.61C209.321 122.91 208.131 120.6 208.131 120.6C205.911 120.05 197.831 115.57 195.031 111.3C190.201 105.66 191.691 98.9999 194.941 97.1899C195.671 96.7799 196.451 96.54 197.231 96.43C196.441 94.13 196.841 91.51 198.541 89.49C200.391 87.3 203.291 86.4 206.001 86.91C206.281 85.62 206.951 84.3999 208.011 83.4399C210.791 80.9099 215.251 81.7199 218.471 83.8899C225.931 79.3099 231.311 94.37 230.151 102.55Z" fill="#FFEBF0" stroke="#512921" stroke-width="2.5" stroke-linecap="round" stroke-linejoin="round"/>
<path d="M206.291 101.62C207.191 101.27 208.081 101.18 209.051 101.29C210.001 101.41 211.051 101.84 211.821 102.67C212.561 103.5 212.981 104.59 212.961 105.56C212.961 106.05 212.851 106.51 212.751 106.96C212.591 107.39 212.381 107.8 212.121 108.18C211.971 108.39 211.671 108.45 211.461 108.3C211.381 108.24 211.321 108.17 211.291 108.08L211.271 108.02C211.111 107.6 211.011 107.21 210.951 106.84C210.821 106.49 210.771 106.13 210.671 105.83C210.481 105.21 210.291 104.73 209.971 104.36C209.661 103.99 209.181 103.69 208.571 103.48C207.971 103.25 207.231 103.12 206.531 103L206.431 102.98C206.041 102.92 205.781 102.55 205.851 102.16C205.891 101.91 206.071 101.7 206.291 101.62Z" fill="#FFAAB9"/>
<path d="M210.12 96.7599C210.75 97.0799 211.43 97.4199 212.04 97.5899C212.66 97.7799 213.22 97.8299 213.69 97.7199C214.17 97.6199 214.61 97.3499 215.13 96.9599C215.39 96.7799 215.65 96.5199 215.96 96.3199C216.23 96.0599 216.54 95.8099 216.92 95.5699L216.97 95.5399C217.19 95.3999 217.48 95.4699 217.62 95.6899C217.67 95.7699 217.7 95.8699 217.69 95.9599C217.68 96.4199 217.59 96.8699 217.47 97.3099C217.29 97.7299 217.1 98.1699 216.8 98.5599C216.23 99.3599 215.25 99.9699 214.15 100.2C213.04 100.41 211.94 100.12 211.1 99.6499C210.25 99.1499 209.6 98.5499 209.08 97.7299C208.87 97.3999 208.97 96.9599 209.31 96.7499C209.53 96.6099 209.79 96.6099 210.01 96.7199L210.11 96.7699L210.12 96.7599Z" fill="#FFAAB9"/>
<path d="M215.942 107.98C215.432 107.16 215.192 106.3 215.112 105.32C215.062 104.36 215.292 103.25 215.972 102.34C216.662 101.46 217.642 100.85 218.612 100.69C219.092 100.6 219.562 100.63 220.022 100.65C220.472 100.73 220.922 100.86 221.332 101.05C221.572 101.16 221.672 101.44 221.562 101.68C221.522 101.77 221.452 101.84 221.382 101.89L221.332 101.92C220.942 102.16 220.592 102.33 220.232 102.45C219.912 102.64 219.572 102.75 219.292 102.91C218.712 103.2 218.272 103.48 217.972 103.87C217.662 104.24 217.452 104.76 217.352 105.4C217.232 106.03 217.232 106.79 217.242 107.49V107.6C217.242 107.99 216.942 108.31 216.542 108.32C216.282 108.32 216.052 108.19 215.932 107.98H215.942Z" fill="#FFAAB9"/>
<path d="M199.4 99.7C199.4 99.7 197.52 97.99 197.16 96.21L199.4 99.7Z" fill="#FFEBF0"/>
<path d="M199.4 99.7C199.4 99.7 197.52 97.99 197.16 96.21" stroke="#512921" stroke-width="2.5" stroke-linecap="round" stroke-linejoin="round"/>
<path d="M206.002 86.9199C206.002 86.9199 208.052 87.1199 210.232 89.0899L206.002 86.9199Z" fill="#FFEBF0"/>
<path d="M206.002 86.9199C206.002 86.9199 208.052 87.1199 210.232 89.0899" stroke="#512921" stroke-width="2.5" stroke-linecap="round" stroke-linejoin="round"/>
<path d="M54.4727 92.33C59.0127 61.97 71.8426 14.63 135.243 3.13C195.383 -7.77 228.653 31.54 238.393 49.98C242.703 58.15 255.973 88.36 262.463 96.45" stroke="#512921" stroke-width="2.5" stroke-linecap="round" stroke-linejoin="round"/>
<path d="M12.0723 67.1901C47.6823 51.2201 72.2223 26.8501 94.3823 20.8401L62.0123 77.6001C52.1823 82.7401 39.1223 86.7101 22.2223 86.7701" fill="#FF73A2"/>
<path d="M62.0127 77.5901C52.1827 82.7301 39.1227 86.7001 22.2227 86.7601" stroke="#512921" stroke-width="2.5" stroke-linecap="round" stroke-linejoin="round"/>
<path d="M12.0723 67.1901C47.6823 51.2201 74.4723 24.6802 96.6323 18.6602L12.0723 67.1901Z" fill="#FF73A2"/>
<path d="M12.0723 67.1901C47.6823 51.2201 74.4723 24.6802 96.6323 18.6602" stroke="#512921" stroke-width="2.5" stroke-linecap="round" stroke-linejoin="round"/>
<path d="M91.4023 146.29C102.522 147.67 112.512 147.81 117.352 147.32" stroke="#512921" stroke-width="3.5" stroke-linecap="round" stroke-linejoin="round"/>
<path d="M117.473 147.32C113.063 149.53 100.133 151.15 92.9727 149.74" stroke="#512921" stroke-width="3.5" stroke-linecap="round" stroke-linejoin="round"/>
<path d="M180.832 139.13C170.742 143.7 157.652 145.05 152.232 145.5" stroke="#512921" stroke-width="3.5" stroke-linecap="round" stroke-linejoin="round"/>
<path d="M152.092 145.53C157.272 146.87 174.082 145.67 180.692 143.14" stroke="#512921" stroke-width="3.5" stroke-linecap="round" stroke-linejoin="round"/>
<path d="M87.2227 141.24C88.4027 145.49 91.9326 145.85 91.9326 145.85" stroke="#512921" stroke-width="2.5" stroke-linecap="round" stroke-linejoin="round"/>
<path d="M183.092 134C182.972 136.66 180.732 138.82 178.812 139.63" stroke="#512921" stroke-width="2.5" stroke-linecap="round" stroke-linejoin="round"/>
</svg>
