<svg width="258" height="414" viewBox="0 0 258 414" fill="none" xmlns="http://www.w3.org/2000/svg">
<path d="M129.381 269.874C122.361 271.464 121.491 279.254 122.681 284.534C127.211 304.684 142.891 345.574 186.911 347.504C234.021 349.564 254.381 312.104 256.371 270.874C256.521 267.734 256.591 264.624 256.571 261.564C249.091 257.104 239.051 255.114 230.521 259.204C230.561 260.344 230.521 261.484 230.561 262.634C231.481 288.504 224.761 328.054 183.441 325.454C159.261 323.934 147.741 297.324 142.241 279.794C141.441 277.234 137.961 267.924 129.371 269.874H129.381Z" fill="#FF73A2" stroke="#512921" stroke-width="2.5" stroke-linecap="round" stroke-linejoin="round"/>
<path d="M226.5 227.974C226.97 236.124 230.1 247.304 230.52 259.214C239.04 255.124 249.08 257.114 256.57 261.574C256.46 244.254 253.53 228.724 247.14 220.684C243.54 216.154 238.57 213.104 232.9 215.244C228.65 216.844 226.1 221.034 226.5 227.984V227.974Z" fill="#FFEBF0" stroke="#512921" stroke-width="2.5" stroke-linecap="round" stroke-linejoin="round"/>
<path d="M69.3594 244.684C77.4094 225.454 85.6394 208.154 95.2394 198.824C100.429 193.784 102.189 210.774 97.3594 233.544C95.8694 239.894 94.1094 246.564 92.2594 253.274H92.2294C90.3694 258.984 84.5394 262.604 78.4594 261.524C71.8094 260.334 67.3794 253.984 68.5594 247.324C68.7294 246.394 68.9994 245.514 69.3594 244.684Z" fill="#FF73A2"/>
<path d="M69.3594 244.684C77.4094 225.454 85.6394 208.154 95.2394 198.824C100.429 193.784 102.189 210.774 97.3594 233.544C95.8694 239.894 94.1094 246.564 92.2594 253.274C90.3994 258.994 84.5494 262.604 78.4594 261.524C71.8094 260.334 67.3794 253.984 68.5594 247.324C68.7294 246.394 68.9994 245.514 69.3594 244.684Z" stroke="#512921" stroke-width="2.5" stroke-linecap="round" stroke-linejoin="round"/>
<path d="M62.2094 272.724C64.5194 263.974 67.6694 256.294 69.9694 247.764C71.3094 242.184 75.5394 236.974 81.4894 237.244C88.2394 237.544 92.1894 243.224 91.8894 249.974C91.8594 250.544 91.7894 251.104 91.6794 251.654H91.7094C90.4694 260.624 90.3794 269.714 89.1694 278.234C88.4194 285.454 82.1594 290.914 74.8094 290.594C67.1894 290.254 61.2794 283.794 61.6194 276.174C61.6694 274.984 61.8794 273.824 62.2094 272.734V272.724Z" fill="#FF73A2"/>
<path d="M92.9897 251.694C91.7497 260.654 90.3697 269.704 89.1597 278.224C88.4097 285.444 82.1497 290.904 74.7997 290.584C67.1797 290.244 61.2697 283.784 61.6097 276.164C61.6597 274.974 61.8697 273.814 62.1997 272.724C64.5097 263.974 66.9997 254.154 69.2997 245.624" stroke="#512921" stroke-width="2.5" stroke-linecap="round" stroke-linejoin="round"/>
<path d="M89.0398 279.074C88.7798 280.934 88.5598 282.834 88.2298 284.734C86.8598 292.484 84.5998 305.954 68.3698 303.234C62.2598 302.214 51.7898 299.324 60.1498 281.404C61.3898 278.754 61.4598 275.694 62.1598 272.884C69.8098 277.984 79.2898 280.024 89.0398 279.064V279.074Z" fill="#FFEBF0" stroke="#512921" stroke-width="2.5" stroke-linecap="round" stroke-linejoin="round"/>
<path d="M66.1406 289.194C66.4006 289.314 81.7806 288.474 79.7806 296.474L66.1406 289.194Z" fill="#FFEBF0"/>
<path d="M66.1406 289.194C66.4006 289.314 81.7806 288.474 79.7806 296.474" stroke="#512921" stroke-width="2.5" stroke-linecap="round" stroke-linejoin="round"/>
<path d="M70.309 285.054C71.109 286.004 71.589 287.224 71.589 288.554C71.589 291.564 69.149 293.994 66.149 293.994C63.149 293.994 60.709 291.554 60.709 288.554" fill="#FFEBF0"/>
<path d="M70.309 285.054C71.109 286.004 71.589 287.224 71.589 288.554C71.589 291.564 69.149 293.994 66.149 293.994C63.149 293.994 60.709 291.554 60.709 288.554" stroke="#512921" stroke-width="2.5" stroke-linecap="round" stroke-linejoin="round"/>
<path d="M87.0397 181.304C87.0397 181.304 80.2297 183.964 76.1797 194.284C69.9397 210.184 59.3197 239.304 59.7697 242.314C60.2197 245.324 76.4297 263.144 102.47 257.794L103.73 211.444C103.73 211.444 109.71 187.784 106.76 182.994C103.82 178.204 90.1897 177.494 87.0297 181.304H87.0397Z" fill="white" stroke="#512921" stroke-width="2.5" stroke-linecap="round" stroke-linejoin="round"/>
<path d="M119.701 335.524C120.081 316.684 120.371 298.704 120.451 293.294C120.451 293.274 120.451 293.264 120.451 293.244C120.491 292.714 120.491 292.184 120.471 291.664C120.471 291.654 120.471 291.634 120.471 291.634C120.161 284.764 114.761 279.064 107.731 278.564C100.241 278.024 93.7208 283.604 93.0708 291.064L91.8608 311.114L90.0508 335.464H90.1008C89.7608 343.444 95.8208 350.294 103.841 350.874C112.001 351.454 119.091 345.314 119.681 337.154C119.721 336.604 119.731 336.064 119.711 335.524H119.701Z" fill="#FF73A2" stroke="#512921" stroke-width="2.5" stroke-linecap="round" stroke-linejoin="round"/>
<path d="M98.4406 405.983C105.321 406.473 112.331 405.913 116.931 403.073C117.921 402.463 118.141 394.773 118.261 390.783L118.971 366.333C114.551 366.533 108.491 366.653 103.061 366.273C97.1606 365.853 91.5706 364.653 87.9606 363.743L86.7006 381.464C86.7006 381.464 85.3006 400.853 85.3006 400.863C85.0806 403.883 91.2506 405.473 98.4506 405.993L98.4406 405.983Z" fill="#FFEBF0" stroke="#512921" stroke-width="2.5" stroke-linecap="round" stroke-linejoin="round"/>
<path d="M91.3512 335.344C91.3412 335.484 91.3212 335.784 91.3212 335.784L87.9512 363.744C91.5612 364.654 97.1612 365.854 103.051 366.274C108.481 366.664 114.541 366.534 118.961 366.334C119.211 357.704 118.201 347.474 118.411 337.324C118.411 337.294 118.411 337.244 118.411 337.214C118.641 329.014 114.101 321.904 105.941 321.314C97.7812 320.734 92.0612 325.534 91.4812 333.694L91.3412 335.344H91.3512Z" fill="#FF73A2"/>
<path d="M90.0812 335.024C90.0712 335.164 90.0512 335.324 90.0512 335.464L87.9512 363.744C91.5612 364.654 97.1612 365.854 103.051 366.274C108.481 366.664 114.541 366.534 118.961 366.334C119.211 357.704 119.451 347.404 119.661 337.254C119.661 337.224 119.661 337.184 119.661 337.154" stroke="#512921" stroke-width="2.5" stroke-linecap="round" stroke-linejoin="round"/>
<path d="M117.841 389.644L85.4807 382.574C84.2507 382.534 77.8307 382.534 72.9307 386.414C65.5307 392.294 66.5607 404.784 70.2607 408.834C73.7307 412.624 110.431 409.944 115.181 407.374C118.371 405.654 118.481 404.894 118.321 401.114L117.831 389.644H117.841Z" fill="#FFEBF0"/>
<path d="M91.3807 383.864C91.3807 383.864 88.9807 383.204 88.1707 383.034C87.5007 382.894 85.4807 382.574 85.4807 382.574C84.2507 382.534 77.8307 382.534 72.9307 386.414C65.5307 392.294 66.5607 404.784 70.2607 408.834C73.7307 412.624 110.431 409.944 115.181 407.374C118.371 405.654 118.481 404.894 118.321 401.114L117.831 389.644" stroke="#512921" stroke-width="2.5" stroke-linecap="round" stroke-linejoin="round"/>
<path d="M96.5004 297.463C88.3204 294.483 85.1504 288.603 85.1504 280.913C86.0304 276.373 89.1004 264.573 91.6404 259.553C92.3004 258.253 93.8104 257.323 94.6104 256.083C97.7804 251.213 110.68 252.323 123.79 252.333C136.67 252.343 149.76 251.183 152.99 255.923C157.18 262.073 159.64 269.173 159.64 275.903C159.64 293.113 143.37 301.433 123.11 301.433C112.11 301.433 102.82 299.763 96.4904 297.453L96.5004 297.463Z" fill="#AAA0FF" stroke="#512921" stroke-width="2.5" stroke-linecap="round" stroke-linejoin="round"/>
<path d="M157.18 263.214C156.8 261.774 156.99 249.823 156.99 249.823C156.99 249.823 151.51 250.923 121.04 250.923C101.7 250.923 90.4199 249.823 90.4199 249.823C90.4199 249.823 91.6999 261.523 91.6299 264.153C92.2499 267.863 151.26 266.514 157.18 263.214Z" fill="#AAA0FF"/>
<path d="M157.18 263.214C156.8 261.774 156.99 249.823 156.99 249.823C156.99 249.823 151.51 250.923 121.04 250.923C101.7 250.923 90.4204 249.823 90.4204 249.823C90.4204 249.823 90.2204 259.853 90.1504 262.483" stroke="#512921" stroke-width="2.5" stroke-linecap="round" stroke-linejoin="round"/>
<path d="M126.281 281.154C126.281 280.994 126.301 280.844 126.311 280.684C126.611 270.634 119.131 262.364 107.441 261.494C99.0707 260.864 90.2307 267.034 87.9007 274.694C87.5107 275.854 72.3207 317.204 71.4407 323.264C70.6807 328.474 103.411 338.834 129.371 333.694L126.281 281.154Z" fill="#AAA0FF"/>
<path d="M86.5905 274.404C86.5905 274.404 86.5905 274.414 86.5905 274.424C86.2005 275.584 72.3305 317.204 71.4505 323.264C70.6905 328.474 103.42 338.834 129.38 333.694L126.96 281.074" stroke="#512921" stroke-width="2.5" stroke-linecap="round" stroke-linejoin="round"/>
<path d="M156.171 291.474C155.581 283.984 149.071 278.334 141.551 278.844C134.181 279.344 128.561 285.564 128.741 292.884H128.711L129.211 330.354L129.361 336.184C129.911 344.374 137.041 350.564 145.231 350.014C153.421 349.464 159.621 342.374 159.061 334.184C158.911 332.014 158.771 329.894 158.631 327.864C157.691 313.934 156.181 291.474 156.181 291.474H156.171Z" fill="#FF73A2" stroke="#512921" stroke-width="2.5" stroke-linecap="round" stroke-linejoin="round"/>
<path d="M157.681 334.504C157.091 326.314 151.271 321.194 143.081 321.784C134.891 322.374 130.471 329.184 130.571 336.144L130.551 336.614L130.111 367.594C130.111 368.024 130.111 368.454 130.151 368.894C130.771 377.474 161.841 375.234 161.221 366.654C161.201 366.414 161.181 366.184 161.151 365.954C161.151 365.954 161.161 365.954 161.171 365.954C160.421 355.524 158.411 344.594 157.681 334.514V334.504Z" fill="#FF73A2"/>
<path d="M129.301 335.414L130.111 367.594C130.111 368.024 130.111 368.454 130.151 368.894C130.771 377.474 161.841 375.234 161.221 366.654C161.201 366.414 161.181 366.184 161.151 365.954C161.151 365.954 161.161 365.954 161.171 365.954C160.421 355.524 159.641 342.544 158.911 332.464" stroke="#512921" stroke-width="2.5" stroke-linecap="round" stroke-linejoin="round"/>
<path d="M143.141 409.824C148.451 410.384 162.341 409.374 163.731 403.804C163.931 400.454 163.031 391.764 163.031 391.764L161.171 365.944C156.801 366.764 150.791 367.754 145.371 368.154C139.471 368.574 133.801 368.204 130.121 367.814L130.651 385.444C130.841 385.444 131.091 398.594 131.241 402.974C131.341 405.864 133.111 408.764 143.141 409.824Z" fill="#FFEBF0" stroke="#512921" stroke-width="2.5" stroke-linecap="round" stroke-linejoin="round"/>
<path d="M140.48 385.384C140.48 385.384 137.31 384.554 134.45 384.144C134.26 384.114 134.07 384.094 133.87 384.074C133.87 384.074 126.59 383.644 121.49 389.194C116.66 394.444 116.85 405.994 120.4 409.994C123.72 413.744 159.14 412.154 161.77 411.024C164.55 409.824 164.49 406.134 164.48 402.374L161.76 394.524C157.58 390.244 140.48 385.384 140.48 385.384Z" fill="#FFEBF0"/>
<path d="M140.48 385.384C140.48 385.384 137.31 384.554 134.45 384.144C134.26 384.114 134.07 384.094 133.87 384.074C133.87 384.074 126.59 383.644 121.49 389.194C116.66 394.444 116.85 405.994 120.4 409.994C123.72 413.744 159.03 411.834 161.77 411.024C165.92 409.784 163.09 393.964 163.09 393.964" stroke="#512921" stroke-width="2.5" stroke-linecap="round" stroke-linejoin="round"/>
<path d="M130.86 299.334C146.07 299.334 158.4 287.004 158.4 271.794C158.4 256.584 146.07 244.254 130.86 244.254C115.65 244.254 103.32 256.584 103.32 271.794C103.32 287.004 115.65 299.334 130.86 299.334Z" fill="#AAA0FF"/>
<path d="M104.59 287.294L111.45 291.304L110.92 332.224C110.92 332.224 122.86 335.294 139.3 334.964C164.01 334.464 173.49 327.884 176.47 325.434C178.87 323.464 156.91 263.034 156.91 263.034" fill="#AAA0FF"/>
<path d="M104.59 287.294L111.45 291.304L110.92 332.224C110.92 332.224 122.86 335.294 139.3 334.964C164.01 334.464 173.49 327.884 176.47 325.434C178.87 323.464 156.91 263.034 156.91 263.034" stroke="#512921" stroke-width="2.5" stroke-linecap="round" stroke-linejoin="round"/>
<path d="M94.6504 264.243C94.6504 264.243 120.53 271.673 148.83 265.673" stroke="#512921" stroke-width="2.5" stroke-linecap="round" stroke-linejoin="round"/>
<path d="M84.9409 219.034C84.1109 235.624 84.7109 250.374 87.2809 256.064C89.7109 261.454 111.841 261.374 123.201 261.454C127.321 261.484 162.731 260.133 162.801 254.633C162.881 248.703 169.921 208.304 143.521 188.074C135.711 182.084 112.991 179.594 104.931 183.044C94.5509 187.494 88.1909 195.944 86.1709 200.564L84.9409 219.044V219.034Z" fill="white"/>
<path d="M85.261 199.724C87.281 195.114 94.561 187.484 104.941 183.034C113.001 179.584 135.911 181.824 143.531 188.064C170.661 210.264 162.891 248.693 162.811 254.623C162.741 260.123 127.331 261.474 123.211 261.444C111.841 261.364 89.711 261.444 87.291 256.054C84.721 250.364 86.151 235.154 82.291 219.074" stroke="#512921" stroke-width="2.5" stroke-linecap="round" stroke-linejoin="round"/>
<path d="M129.37 221.023C132.35 233.883 124.93 249.293 111.72 250.583C100.14 251.713 94.9303 241.573 93.6103 228.343C92.4803 216.963 97.4503 208.513 105.97 206.123C117.49 202.893 126.82 209.983 129.38 221.013L129.37 221.023Z" fill="#AAA0FF"/>
<path d="M96.4299 226.493C96.7999 226.493 97.1799 226.343 97.4699 226.023C97.5199 225.963 102.97 220.063 111.57 220.293C111.59 220.293 111.6 220.293 111.62 220.293C119.09 220.513 123.13 224.753 123.17 224.793C123.63 225.283 124.42 225.253 124.94 224.713C125.46 224.183 125.52 223.353 125.06 222.853C124.87 222.653 120.41 217.903 111.95 217.653C111.93 217.653 111.91 217.653 111.89 217.653C102.05 217.393 95.9699 224.043 95.7199 224.323C95.2199 224.883 95.1999 225.713 95.6799 226.183C95.8799 226.383 96.1499 226.483 96.4199 226.493H96.4299Z" fill="white"/>
<path d="M110.63 234.583L111.3 252.133C110.66 252.213 110.02 252.234 109.36 252.224C108.7 252.214 108.06 252.144 107.41 252.044L107.08 234.523C107.08 234.303 107.22 234.133 107.4 234.143L110.28 234.194C110.46 234.194 110.61 234.373 110.62 234.593L110.63 234.583Z" fill="white"/>
<path d="M114.451 230.833C114.731 234.443 112.471 237.813 109.391 238.213C106.321 238.613 103.791 235.873 103.741 232.243C103.701 228.763 105.961 225.743 108.811 225.363C111.661 224.983 114.181 227.373 114.451 230.833Z" fill="white"/>
<path d="M183 240.244C180.55 260.784 169.59 266.894 161.35 266.644C148.67 266.254 140.74 249.184 140.59 236.804C140.41 222.714 151.54 216.774 164.22 216.774C176.9 216.774 184.67 226.254 183.01 240.244H183Z" fill="white" stroke="#512921" stroke-width="2.5" stroke-linecap="round" stroke-linejoin="round"/>
<path d="M174.921 228.954C170.371 208.604 165.961 197.504 158.151 186.634C153.931 180.764 148.571 189.804 149.321 213.074C149.671 219.584 150.231 226.464 150.871 233.394H150.901C151.721 239.344 156.821 243.934 163.011 243.934C169.771 243.934 175.251 238.454 175.251 231.694C175.251 230.754 175.131 229.834 174.931 228.954H174.921Z" fill="#FF73A2"/>
<path d="M174.921 228.954C170.371 208.604 165.231 197.984 157.421 187.114C153.201 181.244 148.561 189.804 149.311 213.064C149.661 219.574 150.221 226.454 150.861 233.384C151.681 239.344 156.811 243.924 163.001 243.924C169.761 243.924 175.241 238.444 175.241 231.684C175.241 230.744 175.121 229.824 174.921 228.944V228.954Z" stroke="#512921" stroke-width="2.5" stroke-linecap="round" stroke-linejoin="round"/>
<path d="M137.12 205.854C137.43 213.124 137.98 222.144 139.87 231.484C138.51 236.574 141.84 248.544 145.04 252.224C146.96 254.424 148.77 254.984 149.24 255.074C148.26 243.594 144.53 224.034 159.42 220.004C173.06 216.304 179.29 226.764 181.94 238.444C181.35 236.414 186.57 226.054 177 216.314C172.63 205.054 170.75 198.304 163.81 189.544C160.91 185.884 156.64 181.594 147.57 183.084C142.99 183.834 136.41 189.414 137.11 205.854H137.12Z" fill="white"/>
<path d="M183 240.244C183.65 232.744 183.84 221.794 176.71 215.034C172.04 203.994 170.67 198.204 163.81 189.554C160.91 185.894 156.64 181.604 147.57 183.094C144.71 183.564 140.09 182.864 137.93 188.584" stroke="#512921" stroke-width="2.5" stroke-linecap="round" stroke-linejoin="round"/>
<path d="M149.241 255.084C145.381 244.254 147.631 230.824 150.151 225.714C152.991 219.944 159.801 217.534 166.371 218.194C172.031 218.764 174.941 222.004 177.541 226.964" stroke="#512921" stroke-width="2.5" stroke-linecap="round" stroke-linejoin="round"/>
<path d="M137.371 211.354C139.071 247.144 145.241 254.643 146.361 256.513" stroke="#512921" stroke-width="2.5" stroke-linecap="round" stroke-linejoin="round"/>
<path d="M203.16 8.96341C172.56 33.1734 140.89 46.9435 131.21 51.5735C129.76 52.1735 128.33 52.8134 126.94 53.5134C126.86 53.5534 126.82 53.5735 126.82 53.5735H126.83C108.76 62.7635 95.4401 80.5035 92.8301 102.133C88.6701 136.613 113.25 167.933 147.73 172.093C174.02 175.263 198.46 161.713 210.43 139.803C234.24 100.173 236.74 -17.5866 203.17 8.96341H203.16Z" fill="#FF73A2" stroke="#512921" stroke-width="2.5" stroke-linecap="round" stroke-linejoin="round"/>
<path d="M220.55 53.1936C220.55 53.1936 215.72 83.3736 196.15 105.474C196.73 118.894 199.85 116.114 201.63 121.364C208.03 114.624 221.97 84.3336 220.55 53.1936Z" fill="#FFEBF0"/>
<path d="M221.95 36.0334C221.13 90.7634 188.15 110.033 188.15 110.033" stroke="#512921" stroke-width="2.5" stroke-linecap="round" stroke-linejoin="round"/>
<path d="M221.441 45.9236C221.811 63.9136 220.601 89.5136 201.631 122.614" stroke="#512921" stroke-width="2.5" stroke-linecap="round" stroke-linejoin="round"/>
<path d="M134.11 183.194C133.62 188.774 119.31 195.784 110.79 194.744C100.78 193.524 107.3 182.324 107.3 182.324C107.3 182.324 110.8 175.824 123.47 177.354C129.79 178.114 134.31 180.884 134.11 183.194Z" fill="#FF73A2" stroke="#512921" stroke-width="2.5" stroke-linecap="round" stroke-linejoin="round"/>
<path d="M40.0897 6.56359C66.5197 35.2736 95.6197 53.8436 104.47 59.9436C105.81 60.7636 107.12 61.6236 108.38 62.5336C108.45 62.5836 108.49 62.6036 108.49 62.6036H108.48C124.89 74.5136 135.26 94.1236 134.44 115.894C133.13 150.604 103.95 177.674 69.2497 176.374C42.7897 175.374 20.7797 158.154 12.3897 134.654C-4.9103 91.7735 11.1097 -24.9164 40.0897 6.5736V6.56359Z" fill="#FF73A2" stroke="#512921" stroke-width="2.5" stroke-linecap="round" stroke-linejoin="round"/>
<path d="M15.9898 47.5237C15.9898 47.5237 14.5598 70.5637 28.0098 96.1137C25.3398 109.284 26.0998 107.084 23.5098 111.994C18.2498 104.334 9.69977 78.0537 15.9898 47.5237Z" fill="#FFEBF0"/>
<path d="M17.1105 31.6335C9.97046 84.9135 39.0605 108.734 39.0605 108.734" stroke="#512921" stroke-width="2.5" stroke-linecap="round" stroke-linejoin="round"/>
<path d="M16.2506 40.2036C13.0606 57.9136 10.2406 83.3837 23.7806 119.054" stroke="#512921" stroke-width="2.5" stroke-linecap="round" stroke-linejoin="round"/>
<path d="M218.51 152.294C198.24 183.054 177.5 194.294 146.02 202.324C122.44 208.334 96.63 208.794 72.76 205.144C63.38 203.714 53.88 200.664 44.97 196.204C44.97 196.204 9.98004 178.304 3.16004 158.264C2.25004 155.594 1.58003 152.844 1.26003 150.034C1.24003 149.854 2.34004 148.034 3.20004 145.964C5.38004 140.774 9.58004 122.574 10.89 118.164C19.6 88.7236 38.86 43.6236 103.24 41.0136C164.31 38.5536 191.81 82.0936 198.9 101.714C202.04 110.404 210.49 133.384 215.79 142.294C218.14 146.254 219.12 145.834 219.53 147.334C219.87 148.554 219.4 150.904 218.49 152.284L218.51 152.294Z" fill="#FF73A2"/>
<path d="M62.0293 50.4437C73.1893 45.1637 86.7393 41.7036 103.249 41.0336C117.399 40.4636 129.749 42.3636 140.449 45.8636" stroke="#512921" stroke-width="2.5" stroke-linecap="round" stroke-linejoin="round"/>
<path d="M166.68 59.4137C185 73.0237 195.03 90.9737 198.91 101.724C202.05 110.414 210.5 133.394 215.8 142.304C218.15 146.264 219.13 145.844 219.54 147.344C219.88 148.564 219.41 150.914 218.5 152.294C198.23 183.054 177.49 194.294 146.01 202.324C122.43 208.334 96.6203 208.794 72.7503 205.144C63.3703 203.714 53.8703 200.664 44.9603 196.204C44.9603 196.204 9.97027 178.304 3.15027 158.264C2.24027 155.594 1.57027 152.844 1.25027 150.034C1.23027 149.854 2.33027 148.034 3.19027 145.964C5.37027 140.774 9.57027 122.574 10.8803 118.164C15.9303 101.074 26.2203 73.0237 48.0303 58.7937" stroke="#512921" stroke-width="2.5" stroke-linecap="round" stroke-linejoin="round"/>
<path d="M140.451 45.8535C143.501 46.8535 146.421 47.9735 149.211 49.2135" stroke="#512921" stroke-width="2.5" stroke-linecap="round" stroke-linejoin="round"/>
<path d="M143.491 198.614C143.491 198.614 145.091 201.684 146.021 202.324C122.441 208.334 96.6311 208.794 72.7611 205.144C63.3811 203.714 53.8811 200.664 44.9711 196.204C43.0911 194.544 16.2511 183.554 21.3911 140.794C21.3911 140.794 32.7211 129.394 67.9311 126.624C67.9311 126.624 73.2511 117.424 79.9011 111.994L88.7211 125.734C88.7211 125.734 147.791 128.804 167.771 148.324C167.771 148.324 170.191 182.714 143.491 198.624V198.614Z" fill="#FFEBF0" stroke="#512921" stroke-width="2.5" stroke-linecap="round" stroke-linejoin="round"/>
<path opacity="0.2" d="M150.24 167.874C150.31 186.514 115.1 191.824 80.8197 182.294C46.0397 188.454 32.9797 181.044 31.1997 167.874C30.2097 160.564 32.7797 155.434 43.4097 153.984C50.7697 152.984 58.2296 153.703 69.8596 155.653C73.0097 156.183 72.7497 151.783 76.1697 152.643C78.5397 152.643 78.8297 154.044 81.6297 153.984C85.5097 153.914 85.4097 152.393 88.7297 152.523C94.8697 157.203 111.4 152.093 119.92 151.773C135.97 151.173 150.2 160.124 150.23 167.874H150.24Z" fill="#3B214F"/>
<path d="M76.3002 196.064C76.3002 196.064 83.0402 194.144 84.6802 191.474C84.6802 191.474 96.9902 187.324 100.68 188.754C104.37 190.194 104.01 197.884 101.09 198.594C99.9202 198.884 92.3202 193.534 86.2202 196.394C82.7002 198.054 75.6802 200.254 76.3002 196.054V196.064Z" fill="#EB5555" stroke="#512921" stroke-width="2.5" stroke-linecap="round" stroke-linejoin="round"/>
<path d="M108.051 200.134C108.051 200.964 107.831 201.664 107.441 202.374C107.031 203.054 106.411 203.674 105.651 204.064C104.891 204.424 104.041 204.654 103.251 204.524C102.851 204.494 102.491 204.334 102.141 204.204C101.801 204.034 101.491 203.804 101.221 203.524C101.031 203.334 101.031 203.014 101.221 202.824C101.271 202.774 101.321 202.744 101.381 202.714L101.451 202.684C101.801 202.544 102.121 202.464 102.411 202.404C102.701 202.304 102.971 202.284 103.221 202.204C103.721 202.094 104.141 201.994 104.541 201.814C104.931 201.644 105.301 201.384 105.661 201.034C106.021 200.704 106.371 200.234 106.711 199.824L106.821 199.684C107.071 199.384 107.511 199.334 107.811 199.584C107.981 199.724 108.071 199.924 108.071 200.124L108.051 200.134Z" fill="#FFAAB9"/>
<path d="M74.7301 184.064C74.8601 182.614 76.3201 181.524 80.1901 181.524C86.0801 181.524 86.8001 182.764 86.8001 184.064C86.8001 185.754 85.2101 187.774 81.9201 188.204C79.0301 188.594 74.5401 186.114 74.7201 184.064H74.7301Z" fill="#FF73A2" stroke="#512921" stroke-width="2.5" stroke-linecap="round" stroke-linejoin="round"/>
<path d="M68.8603 154.044C66.1103 157.664 61.8903 151.814 59.3203 147.454" stroke="#512921" stroke-width="2.5" stroke-linecap="round" stroke-linejoin="round"/>
<path d="M74.5698 148.654C74.8898 149.484 75.0298 150.294 75.0998 151.154C75.1498 152.004 75.0998 152.874 74.8998 153.754C74.6798 154.614 74.3998 155.534 73.7298 156.284C73.0798 157.024 72.1298 157.574 71.1498 157.534C70.8898 157.524 70.6798 157.304 70.6898 157.044C70.6898 156.954 70.7198 156.864 70.7698 156.794L70.8098 156.734C71.2798 156.054 71.5598 155.554 71.8098 154.984C72.0598 154.444 72.2898 153.834 72.4498 153.174C72.7998 151.864 72.9298 150.354 73.1698 148.864V148.804C73.2398 148.414 73.6098 148.144 73.9998 148.214C74.2598 148.254 74.4598 148.434 74.5498 148.664L74.5698 148.654Z" fill="#C1A2F4"/>
<path d="M87.1699 148.064C87.8499 149.414 88.4199 150.814 89.1499 151.964C89.4999 152.544 89.8999 153.054 90.2999 153.504C90.6999 153.974 91.1199 154.364 91.7699 154.874L91.8199 154.914C92.0299 155.074 92.0599 155.374 91.8999 155.584C91.8399 155.654 91.7699 155.714 91.6899 155.734C90.7699 156.064 89.6899 155.824 88.8599 155.314C87.9999 154.794 87.4599 154.004 86.9899 153.244C86.5399 152.464 86.2299 151.654 86.0299 150.824C85.8399 149.984 85.7299 149.164 85.7899 148.274C85.8199 147.874 86.1599 147.584 86.5599 147.614C86.8199 147.634 87.0399 147.794 87.1499 148.004L87.1799 148.054L87.1699 148.064Z" fill="#C1A2F4"/>
<path d="M93.8594 152.724C96.9094 156.664 101.419 151.314 104.309 146.814" stroke="#512921" stroke-width="2.5" stroke-linecap="round" stroke-linejoin="round"/>
<path d="M153.341 118.304C153.131 118.304 152.921 118.254 152.731 118.144C152.381 117.944 144.161 113.164 143.901 100.804C143.631 88.2136 155.451 81.6236 155.951 81.3536C156.141 81.2536 156.341 81.2036 156.551 81.2036C156.681 81.2036 156.821 81.2236 156.941 81.2636C157.271 81.3736 157.541 81.6136 157.681 81.9236L162.471 92.3436C162.751 92.9536 162.501 93.6736 161.911 93.9736C161.121 94.3836 160.391 94.7436 159.721 95.0836C154.741 97.5836 153.911 98.0736 154.061 100.544C154.371 105.834 162.181 110.104 162.261 110.144C162.641 110.354 162.891 110.744 162.921 111.174C162.951 111.604 162.741 112.024 162.391 112.274L154.071 118.074C153.861 118.224 153.611 118.294 153.361 118.294L153.341 118.304Z" fill="#DD2C46"/>
<path d="M156.551 82.4536L161.341 92.8736C154.731 96.2636 152.591 96.8136 152.811 100.624C153.161 106.684 161.671 111.254 161.671 111.254L153.351 117.054C153.351 117.054 145.401 112.574 145.151 100.784C144.901 88.8036 156.551 82.4536 156.551 82.4536ZM156.551 79.9536C156.141 79.9536 155.731 80.0536 155.351 80.2536C154.821 80.5436 142.361 87.4836 142.641 100.834C142.921 113.894 151.731 119.024 152.111 119.234C152.491 119.454 152.921 119.554 153.341 119.554C153.841 119.554 154.341 119.404 154.771 119.104L163.091 113.304C163.801 112.804 164.211 111.974 164.161 111.104C164.111 110.234 163.611 109.454 162.851 109.044C160.831 107.954 155.531 104.274 155.311 100.474C155.221 98.9136 155.211 98.7536 160.291 96.2036C160.961 95.8636 161.691 95.4936 162.491 95.0936C163.681 94.4836 164.181 93.0436 163.621 91.8236L158.831 81.4036C158.541 80.7736 158.001 80.2936 157.351 80.0736C157.091 79.9936 156.831 79.9436 156.561 79.9436L156.551 79.9536Z" fill="white"/>
<path d="M134.25 128.424C134 128.424 133.74 128.344 133.53 128.194C133.17 127.944 132.97 127.524 133 127.094C133 127.004 133.5 118.114 129.17 115.064C128.4 114.524 127.79 114.284 127.21 114.284C125.98 114.284 124.31 115.304 121.55 117.004C120.91 117.394 120.22 117.824 119.45 118.284C119.25 118.404 119.03 118.464 118.81 118.464C118.4 118.464 118.01 118.264 117.77 117.904L111.44 108.344C111.24 108.044 111.18 107.674 111.28 107.324C111.37 106.974 111.62 106.684 111.94 106.534C112.23 106.394 119.12 103.084 126.25 103.084C129.85 103.084 132.9 103.934 135.31 105.614C145.46 112.674 144.85 122.834 144.82 123.264C144.79 123.734 144.5 124.134 144.07 124.324L134.76 128.334C134.6 128.404 134.43 128.434 134.27 128.434L134.25 128.424Z" fill="#DD2C46"/>
<path d="M126.241 104.324C129.181 104.324 132.141 104.924 134.591 106.634C144.271 113.374 143.561 123.174 143.561 123.174L134.251 127.184C134.251 127.184 134.861 117.554 129.891 114.054C128.911 113.364 128.081 113.044 127.211 113.044C125.301 113.044 123.181 114.594 118.811 117.214L112.481 107.654C112.481 107.654 119.321 104.324 126.251 104.324M126.241 101.824C118.821 101.824 111.681 105.254 111.381 105.404C110.731 105.724 110.251 106.294 110.061 106.994C109.871 107.694 109.991 108.434 110.391 109.034L116.721 118.594C117.201 119.314 117.991 119.714 118.811 119.714C119.251 119.714 119.691 119.594 120.101 119.354C120.871 118.894 121.571 118.464 122.211 118.074C124.611 116.604 126.341 115.544 127.221 115.544C127.341 115.544 127.671 115.544 128.461 116.104C131.581 118.304 131.901 124.894 131.771 127.034C131.721 127.904 132.121 128.734 132.831 129.234C133.261 129.534 133.761 129.694 134.271 129.694C134.601 129.694 134.941 129.624 135.261 129.494L144.571 125.484C145.431 125.114 146.011 124.294 146.071 123.364C146.101 122.904 146.751 112.054 136.031 104.594C133.401 102.764 130.111 101.844 126.251 101.844L126.241 101.824Z" fill="white"/>
<path d="M124.482 98.9736C118.732 98.9736 114.861 96.4536 114.701 96.3536C114.321 96.1036 114.112 95.6636 114.142 95.2136L114.922 85.1036C114.962 84.6436 115.242 84.2436 115.672 84.0536C115.832 83.9837 116.002 83.9536 116.172 83.9536C116.452 83.9536 116.721 84.0436 116.951 84.2236C117.001 84.2636 122.062 88.2336 126.482 88.2336C127.432 88.2336 128.272 88.0436 129.002 87.6736C131.412 86.4336 131.402 84.1737 130.992 77.1837L130.942 76.2336C130.902 75.5636 131.402 74.9836 132.062 74.9136L143.472 73.7537C143.472 73.7537 143.552 73.7537 143.602 73.7537C143.892 73.7537 144.182 73.8536 144.412 74.0436C144.672 74.2636 144.832 74.5736 144.852 74.9136C144.892 75.5236 145.742 90.0237 134.722 96.1937C131.442 98.0337 128.002 98.9636 124.492 98.9636L124.482 98.9736Z" fill="#DD2C46"/>
<path d="M143.592 75.0037C143.592 75.0037 144.552 89.2536 134.102 95.1136C130.592 97.0736 127.302 97.7236 124.492 97.7236C119.052 97.7236 115.402 95.3036 115.402 95.3036L116.182 85.1937C116.182 85.1937 121.572 89.4736 126.492 89.4736C127.562 89.4736 128.612 89.2736 129.582 88.7736C132.982 87.0336 132.622 83.5636 132.192 76.1536L143.602 74.9937M143.592 72.5037C143.512 72.5037 143.422 72.5036 143.342 72.5136L131.932 73.6736C130.602 73.8136 129.612 74.9636 129.692 76.3036L129.742 77.2537C130.142 84.0437 130.062 85.7136 128.432 86.5536C127.872 86.8436 127.242 86.9736 126.482 86.9736C123.192 86.9736 119.052 84.2736 117.732 83.2336C117.282 82.8736 116.732 82.6937 116.182 82.6937C115.842 82.6937 115.502 82.7636 115.182 82.9036C114.332 83.2736 113.762 84.0837 113.692 85.0037L112.912 95.1136C112.842 96.0236 113.272 96.8936 114.022 97.3936C114.192 97.5136 118.372 100.224 124.492 100.224C128.212 100.224 131.852 99.2336 135.332 97.2936C140.222 94.5536 143.642 89.7736 145.202 83.4636C146.352 78.8436 146.112 74.9936 146.102 74.8336C146.052 74.1536 145.742 73.5236 145.222 73.0936C144.772 72.7136 144.192 72.5037 143.612 72.5037H143.592Z" fill="white"/>
<path d="M151.889 234.703C147.279 219.853 148.299 200.623 148.299 200.623L177.969 193.533C181.159 227.143 172.969 235.983 172.969 235.983C172.969 235.983 169.619 240.243 164.949 240.673C160.279 241.093 152.529 236.763 151.889 234.713V234.703Z" fill="#FF73A2"/>
<path d="M173.13 238.553C173.13 238.553 181.16 227.143 177.96 193.523L148.29 200.613C148.29 200.613 146.88 226.493 152.07 237.213" stroke="#512921" stroke-width="2.5" stroke-linecap="round" stroke-linejoin="round"/>
<path d="M178.22 196.234C173.94 206.934 159.72 210.873 149.43 206.963C147.36 205.633 140.67 198.224 139.3 192.884C136.34 185.444 140.19 179.164 144.15 178.444C145.04 178.284 145.92 178.304 146.76 178.474C146.76 175.844 148.08 173.314 150.53 171.844C153.19 170.254 156.46 170.344 159.05 171.824C159.79 170.604 160.9 169.594 162.31 168.974C166.04 167.364 170.3 169.754 172.83 173.094C182.05 171.034 182.28 188.284 178.23 196.234H178.22Z" fill="#FFEBF0" stroke="#512921" stroke-width="2.5" stroke-linecap="round" stroke-linejoin="round"/>
<path d="M154.181 186.994C155.211 186.964 156.131 187.194 157.081 187.644C158.001 188.104 158.901 188.894 159.381 189.984C159.841 191.074 159.891 192.294 159.541 193.284C159.381 193.784 159.111 194.204 158.861 194.634C158.551 195.014 158.211 195.374 157.831 195.674C157.631 195.834 157.331 195.794 157.171 195.594C157.101 195.514 157.071 195.414 157.071 195.314V195.254C157.071 194.774 157.111 194.344 157.191 193.954C157.191 193.544 157.271 193.174 157.281 192.814C157.321 192.104 157.291 191.514 157.081 191.004C156.881 190.494 156.481 190.014 155.921 189.574C155.371 189.134 154.651 188.734 153.971 188.394L153.881 188.354C153.531 188.174 153.391 187.754 153.571 187.404C153.691 187.164 153.931 187.024 154.181 187.014V186.994Z" fill="#FFAAB9"/>
<path d="M159.751 183.344C160.271 183.904 160.841 184.504 161.411 184.904C161.981 185.334 162.551 185.593 163.101 185.643C163.651 185.713 164.221 185.584 164.901 185.354C165.241 185.254 165.581 185.074 165.971 184.964C166.331 184.784 166.731 184.624 167.191 184.504L167.251 184.484C167.501 184.414 167.761 184.564 167.821 184.814C167.851 184.914 167.841 185.024 167.801 185.114C167.611 185.564 167.361 185.994 167.081 186.384C166.741 186.744 166.401 187.114 165.961 187.404C165.111 188.004 163.911 188.284 162.741 188.134C161.561 187.964 160.551 187.304 159.871 186.544C159.191 185.754 158.721 184.914 158.471 183.924C158.381 183.544 158.611 183.164 158.991 183.064C159.251 183.004 159.511 183.084 159.681 183.274L159.751 183.344Z" fill="#FFAAB9"/>
<path d="M161.87 196.813C161.66 195.813 161.71 194.853 161.98 193.843C162.27 192.863 162.88 191.823 163.87 191.153C164.86 190.503 166.05 190.233 167.08 190.403C167.6 190.473 168.07 190.663 168.53 190.833C168.96 191.063 169.37 191.333 169.73 191.663C169.92 191.833 169.94 192.134 169.77 192.324C169.7 192.404 169.61 192.453 169.51 192.473H169.45C168.98 192.573 168.55 192.613 168.15 192.603C167.75 192.673 167.36 192.663 167.01 192.713C166.3 192.803 165.73 192.933 165.27 193.233C164.8 193.523 164.4 194.004 164.07 194.634C163.74 195.254 163.48 196.033 163.26 196.763L163.23 196.853C163.12 197.223 162.72 197.443 162.35 197.333C162.09 197.253 161.91 197.043 161.86 196.803L161.87 196.813Z" fill="#FFAAB9"/>
<path d="M147.83 182.564C147.83 182.564 146.5 180.164 146.76 178.214L147.83 182.564Z" fill="#FFEBF0"/>
<path d="M147.83 182.564C147.83 182.564 146.5 180.164 146.76 178.214" stroke="#512921" stroke-width="2.5" stroke-linecap="round" stroke-linejoin="round"/>
<path d="M159.039 171.823C159.039 171.823 161.059 172.743 162.599 175.523L159.039 171.823Z" fill="#FFEBF0"/>
<path d="M159.039 171.823C159.039 171.823 161.059 172.743 162.599 175.523" stroke="#512921" stroke-width="2.5" stroke-linecap="round" stroke-linejoin="round"/>
</svg>
