<svg width="244" height="431" viewBox="0 0 244 431" fill="none" xmlns="http://www.w3.org/2000/svg">
<path d="M127.413 289.919C133.983 292.849 133.323 300.659 131.133 305.609C122.763 324.489 99.4129 361.539 55.8629 354.849C9.26289 347.689 -3.41711 306.979 2.67289 266.149C3.13289 263.039 3.67292 259.979 4.29292 256.979C12.5029 254.059 22.7329 254.069 30.3029 259.739C30.0429 260.849 29.8529 261.979 29.5929 263.099C23.6529 288.289 22.5329 328.399 63.5629 333.899C87.5829 337.119 104.063 313.269 112.873 297.139C114.153 294.789 119.383 286.329 127.423 289.919H127.413Z" fill="#FF73A2" stroke="#512921" stroke-width="2.5" stroke-linecap="round" stroke-linejoin="round"/>
<path d="M40.3232 229.879C38.2732 237.779 33.0232 248.139 30.2932 259.739C22.7332 254.069 12.4932 254.059 4.2832 256.979C7.7732 240.019 13.6632 225.349 21.5032 218.709C25.9232 214.969 31.3932 212.939 36.5332 216.149C40.3932 218.549 42.0732 223.149 40.3232 229.889V229.879Z" fill="#FFEBF0" stroke="#512921" stroke-width="2.5" stroke-linecap="round" stroke-linejoin="round"/>
<path d="M129.723 314.469C129.643 306.949 123.523 300.879 115.983 300.879C108.443 300.879 102.573 306.709 102.253 314.029H102.223L100.203 345.819L99.9531 351.649C99.9531 359.859 106.643 366.519 114.863 366.519C123.083 366.519 129.733 359.859 129.733 351.649V314.469H129.723Z" fill="#FF73A2" stroke="#512921" stroke-width="2.5" stroke-linecap="round" stroke-linejoin="round"/>
<path d="M128.333 351.879C128.293 343.669 122.833 338.159 114.623 338.199C106.413 338.239 101.553 344.729 101.183 351.689L101.123 352.159L98.6028 383.039C98.5728 383.469 98.5527 383.899 98.5527 384.339C98.5927 392.939 129.743 392.799 129.703 384.199C129.703 383.959 129.703 383.729 129.683 383.499C129.683 383.499 129.693 383.499 129.703 383.499C129.653 373.039 128.383 362.009 128.343 351.899L128.333 351.879Z" fill="#FF73A2"/>
<path d="M99.9627 350.879L98.6028 383.039C98.5728 383.469 98.5527 383.899 98.5527 384.339C98.5927 392.939 129.743 392.799 129.703 384.199C129.703 383.959 129.703 383.729 129.683 383.499C129.683 383.499 129.693 383.499 129.703 383.499C129.653 373.039 129.753 360.039 129.703 349.929" stroke="#512921" stroke-width="2.5" stroke-linecap="round" stroke-linejoin="round"/>
<path d="M108.752 426.049C114.012 426.969 127.942 426.889 129.702 421.429C130.132 418.099 129.822 409.369 129.822 409.369L129.702 383.479C125.292 384.009 119.232 384.589 113.792 384.619C107.882 384.649 102.242 383.889 98.602 383.259L97.942 400.879C98.132 400.899 97.492 414.029 97.352 418.409C97.252 421.299 98.8319 424.309 108.772 426.039L108.752 426.049Z" fill="#FFEBF0" stroke="#512921" stroke-width="2.5" stroke-linecap="round" stroke-linejoin="round"/>
<path d="M104.542 402.189C104.542 402.189 101.372 401.359 98.5121 400.949C98.3221 400.919 98.1321 400.899 97.9321 400.879C97.9321 400.879 90.6521 400.449 85.5521 405.999C80.7221 411.249 80.9121 422.799 84.4621 426.799C87.7821 430.549 124.002 428.959 126.632 427.829C129.412 426.629 129.882 422.869 129.872 419.119L128.352 411.259C124.172 406.979 104.542 402.189 104.542 402.189Z" fill="#FFEBF0"/>
<path d="M104.542 402.189C104.542 402.189 101.372 401.359 98.5121 400.949C98.3221 400.919 98.1321 400.899 97.9321 400.879C97.9321 400.879 90.6521 400.449 85.5521 405.999C80.7221 411.249 80.9121 422.799 84.4621 426.799C87.7821 430.549 124.002 428.959 126.632 427.829C129.412 426.629 129.882 422.869 129.872 419.119L129.842 412.419" stroke="#512921" stroke-width="2.5" stroke-linecap="round" stroke-linejoin="round"/>
<path d="M130.323 314.479C130.403 306.959 136.523 300.889 144.062 300.889C151.452 300.889 157.472 306.719 157.792 314.039H157.823L159.842 345.829L160.092 351.659C160.092 359.869 153.402 366.529 145.182 366.529C136.972 366.529 130.312 359.869 130.312 351.659C130.312 349.489 130.312 347.359 130.312 345.319C130.312 331.359 130.312 314.479 130.312 314.479H130.323Z" fill="#FF73A2" stroke="#512921" stroke-width="2.5" stroke-linecap="round" stroke-linejoin="round"/>
<path d="M131.673 351.879C131.713 343.669 137.173 338.159 145.383 338.199C153.593 338.239 158.453 344.729 158.823 351.689L158.883 352.159L161.403 383.039C161.433 383.469 161.453 383.899 161.453 384.339C161.413 392.939 130.263 392.799 130.303 384.199C130.303 383.959 130.303 383.729 130.323 383.499C130.323 383.499 130.313 383.499 130.303 383.499C130.353 373.039 131.623 362.009 131.663 351.899L131.673 351.879Z" fill="#FF73A2"/>
<path d="M160.042 350.879L161.402 383.039C161.432 383.469 161.452 383.899 161.452 384.339C161.412 392.939 130.262 392.799 130.302 384.199C130.302 383.959 130.302 383.729 130.322 383.499C130.322 383.499 130.312 383.499 130.302 383.499C130.352 373.039 130.252 360.039 130.302 349.929" stroke="#512921" stroke-width="2.5" stroke-linecap="round" stroke-linejoin="round"/>
<path d="M151.252 426.049C145.992 426.969 132.062 426.889 130.302 421.429C129.872 418.099 130.182 409.369 130.182 409.369L130.302 383.479C134.712 384.009 140.772 384.589 146.212 384.619C152.122 384.649 157.762 383.889 161.402 383.259L162.062 400.879C161.872 400.899 162.512 414.029 162.652 418.409C162.752 421.299 161.172 424.309 151.232 426.039L151.252 426.049Z" fill="#FFEBF0" stroke="#512921" stroke-width="2.5" stroke-linecap="round" stroke-linejoin="round"/>
<path d="M155.473 402.199C155.473 402.199 158.643 401.369 161.503 400.959C161.693 400.929 161.883 400.909 162.083 400.889C162.083 400.889 169.363 400.459 174.463 406.009C179.293 411.259 179.103 422.809 175.553 426.809C172.233 430.559 136.013 428.969 133.383 427.839C130.603 426.639 130.133 422.879 130.143 419.129L131.663 411.269C135.843 406.989 155.473 402.199 155.473 402.199Z" fill="#FFEBF0"/>
<path d="M155.473 402.199C155.473 402.199 158.643 401.369 161.503 400.959C161.693 400.929 161.883 400.909 162.083 400.889C162.083 400.889 169.363 400.459 174.463 406.009C179.293 411.259 179.103 422.809 175.553 426.809C172.233 430.559 136.013 428.969 133.383 427.839C130.603 426.639 130.133 422.879 130.143 419.129L130.173 412.429" stroke="#512921" stroke-width="2.5" stroke-linecap="round" stroke-linejoin="round"/>
<path d="M168.003 284.569C167.293 282.339 164.333 268.889 164.333 268.889C164.333 268.889 149.303 269.979 129.963 269.979C110.623 269.979 95.5935 268.889 95.5935 268.889C95.5935 268.889 92.3835 282.299 91.6635 284.529C90.9935 286.839 90.0335 289.969 89.3235 292.889C88.6335 295.699 88.1735 298.319 88.7935 300.049C93.2835 312.529 113.843 315.319 129.973 315.319C146.103 315.319 166.413 312.569 170.893 300.089C172.163 296.569 169.323 289.109 168.013 284.569H168.003Z" fill="#AAA0FF" stroke="#512921" stroke-width="2.5" stroke-linecap="round" stroke-linejoin="round"/>
<path d="M128.963 298.249C128.963 286.819 120.723 278.259 109.293 278.259C100.103 278.259 93.7033 283.819 91.0033 292.109C91.0033 292.109 91.0033 292.129 90.9933 292.159C90.8233 292.669 90.6833 293.189 90.5533 293.719C88.4733 301.169 78.4433 331.829 74.9633 342.339C74.0833 344.989 84.2433 348.639 97.4933 350.229C107.793 351.469 130.493 352.819 130.353 350.829L128.973 298.249H128.963Z" fill="#AAA0FF"/>
<path d="M88.8735 295.169C88.8735 295.169 78.9235 330.369 74.9535 342.339C74.0735 344.989 84.2335 348.639 97.4835 350.229C107.784 351.469 130.483 352.819 130.343 350.829V305.529" stroke="#512921" stroke-width="2.5" stroke-linecap="round" stroke-linejoin="round"/>
<path d="M130.873 298.249C130.873 286.819 139.113 278.259 150.543 278.259C159.733 278.259 166.133 283.819 168.833 292.109C168.833 292.109 168.833 292.129 168.843 292.159C169.013 292.669 169.153 293.189 169.283 293.719C171.363 301.169 181.393 331.829 184.873 342.339C185.753 344.989 175.593 348.639 162.343 350.229C152.043 351.469 129.343 352.819 129.483 350.829L130.863 298.249H130.873Z" fill="#AAA0FF"/>
<path d="M170.953 295.169C170.953 295.169 180.903 330.369 184.873 342.339C185.753 344.989 175.593 348.639 162.343 350.229C152.043 351.469 129.343 352.819 129.483 350.829V305.529" stroke="#512921" stroke-width="2.5" stroke-linecap="round" stroke-linejoin="round"/>
<path d="M122.232 304.039C127.762 306.159 131.852 305.859 137.752 304.039" stroke="#512921" stroke-width="2.5" stroke-linecap="round" stroke-linejoin="round"/>
<path d="M101.082 279.349C101.082 279.349 114.002 281.259 129.572 281.259C143.672 281.259 158.912 279.349 158.912 279.349" stroke="#512921" stroke-width="2.5" stroke-linecap="round" stroke-linejoin="round"/>
<path d="M170.733 267.129C169.173 273.769 140.723 275.149 129.993 275.149C119.263 275.149 94.5227 273.439 89.0127 268.709C85.4627 265.669 102.643 210.309 107.113 205.649C110.703 201.909 148.043 201.729 151.513 205.509C158.553 213.189 171.863 262.359 170.753 267.129H170.733Z" fill="white"/>
<path d="M158.773 220.629C165.173 238.049 171.723 263.789 170.743 267.119C168.853 273.499 140.733 275.139 130.003 275.139C119.273 275.139 92.4534 273.169 89.0234 268.699C87.0334 266.109 94.4934 238.579 100.683 220.669" stroke="#512921" stroke-width="2.5" stroke-linecap="round" stroke-linejoin="round"/>
<path d="M129.993 256.509C142.077 256.509 151.873 247.819 151.873 237.099C151.873 226.379 142.077 217.689 129.993 217.689C117.909 217.689 108.113 226.379 108.113 237.099C108.113 247.819 117.909 256.509 129.993 256.509Z" fill="#AAA0FF"/>
<path d="M147.352 237.099C147.032 237.099 146.712 236.999 146.462 236.789C146.412 236.749 141.172 232.559 129.992 232.559C119.952 232.559 113.442 236.649 113.382 236.689C112.802 237.059 111.992 236.949 111.582 236.429C111.162 235.919 111.292 235.199 111.872 234.829C112.162 234.639 119.082 230.259 130.002 230.259C142.282 230.259 148.002 234.919 148.242 235.109C148.762 235.539 148.792 236.269 148.302 236.729C148.052 236.969 147.702 237.089 147.362 237.089L147.352 237.099Z" fill="white"/>
<path d="M132.002 244.799V256.429C131.342 256.489 130.672 256.509 129.992 256.509C129.312 256.509 128.642 256.479 127.982 256.429V244.799C127.982 244.639 128.152 244.519 128.352 244.519H131.622C131.822 244.519 131.992 244.649 131.992 244.799H132.002Z" fill="white"/>
<path d="M129.993 246.819C133.455 246.819 136.263 244.442 136.263 241.509C136.263 238.576 133.455 236.199 129.993 236.199C126.53 236.199 123.723 238.576 123.723 241.509C123.723 244.442 126.53 246.819 129.993 246.819Z" fill="white"/>
<path d="M129.993 207.559C138.305 207.559 145.043 202.746 145.043 196.809C145.043 190.872 138.305 186.059 129.993 186.059C121.681 186.059 114.943 190.872 114.943 196.809C114.943 202.746 121.681 207.559 129.993 207.559Z" fill="#FF73A2" stroke="#512921" stroke-width="2.5" stroke-linecap="round" stroke-linejoin="round"/>
<path d="M171.844 272.079C170.584 240.319 167.714 213.579 161.304 210.459C157.264 208.489 154.064 214.369 153.174 219.719C151.894 227.469 150.064 248.609 147.994 271.149C147.914 271.659 147.864 272.169 147.854 272.679C147.854 272.729 147.854 272.779 147.844 272.819H147.854C147.754 278.259 151.374 283.269 156.884 284.679C163.314 286.329 169.874 282.449 171.524 276.019C171.864 274.699 171.954 273.369 171.854 272.079H171.844Z" fill="#FF73A2"/>
<path d="M171.844 272.079C170.584 240.319 167.714 213.579 161.304 210.459C157.264 208.489 154.064 214.369 153.174 219.719C151.894 227.469 150.064 248.609 147.994 271.149C147.914 271.659 147.864 272.169 147.854 272.679C147.854 272.729 147.854 272.779 147.844 272.819H147.854C147.754 278.259 151.374 283.269 156.884 284.679C163.314 286.329 169.874 282.449 171.524 276.019C171.864 274.699 171.954 273.369 171.854 272.079H171.844Z" stroke="#512921" stroke-width="2.5" stroke-linecap="round" stroke-linejoin="round"/>
<path d="M172.603 302.399C172.603 302.399 172.603 302.349 172.603 302.329C172.473 292.429 171.123 282.679 170.753 273.159C170.713 267.829 168.203 263.749 162.793 262.359C156.363 260.709 150.953 263.999 149.303 270.429C149.063 271.359 148.953 272.289 148.933 273.209L148.903 273.659C148.003 283.439 145.983 292.589 145.023 301.819C145.023 301.869 145.013 301.919 145.003 301.969H145.043C144.463 308.579 148.733 314.829 155.373 316.529C162.763 318.419 170.283 313.969 172.183 306.579C172.543 305.179 172.673 303.769 172.593 302.389L172.603 302.399Z" fill="#FF73A2"/>
<path d="M147.753 273.439C146.853 283.219 145.983 292.589 145.023 301.819C145.023 301.869 145.013 301.919 145.003 301.969H145.043C144.463 308.579 148.733 314.829 155.373 316.529C162.763 318.419 170.283 313.969 172.183 306.579C172.543 305.179 172.673 303.769 172.593 302.389C172.593 302.369 172.593 302.339 172.593 302.319C172.463 292.419 172.243 282.579 171.873 273.059" stroke="#512921" stroke-width="2.5" stroke-linecap="round" stroke-linejoin="round"/>
<path d="M144.932 301.669C144.732 303.539 144.542 305.429 144.352 307.359C142.472 326.319 148.052 332.589 157.112 333.769C166.652 335.009 171.952 328.169 172.392 310.929C172.462 307.999 172.502 305.079 172.502 302.179C163.842 305.269 154.152 304.959 144.922 301.669H144.932Z" fill="#FFEBF0" stroke="#512921" stroke-width="2.5" stroke-linecap="round" stroke-linejoin="round"/>
<path d="M151.583 200.659C155.963 201.379 159.413 203.639 164.793 206.329C176.543 212.199 186.963 267.969 186.623 271.639C185.503 283.449 149.673 282.939 143.713 279.089C139.653 276.459 145.573 232.159 146.593 222.209" fill="white"/>
<path d="M151.583 200.659C155.963 201.379 159.413 203.639 164.793 206.329C176.543 212.199 186.963 267.969 186.623 271.639C185.503 283.449 149.673 282.939 143.713 279.089C139.653 276.459 145.573 232.159 146.593 222.209" stroke="#512921" stroke-width="2.5" stroke-linecap="round" stroke-linejoin="round"/>
<path d="M88.3725 272.059C89.7825 240.309 92.7825 213.579 99.2125 210.489C103.262 208.539 106.432 214.439 107.292 219.789C108.542 227.539 110.262 248.689 112.232 271.249C112.312 271.759 112.352 272.269 112.362 272.779C112.362 272.829 112.362 272.879 112.372 272.919H112.362C112.432 278.359 108.792 283.349 103.282 284.739C96.8425 286.359 90.3125 282.449 88.6925 276.009C88.3625 274.679 88.2725 273.359 88.3825 272.069L88.3725 272.059Z" fill="#FF73A2"/>
<path d="M88.3725 272.059C89.7825 240.309 92.7825 213.579 99.2125 210.489C103.262 208.539 106.432 214.439 107.292 219.789C108.542 227.539 110.262 248.689 112.232 271.249C112.312 271.759 112.352 272.269 112.362 272.779C112.362 272.829 112.362 272.879 112.372 272.919H112.362C112.432 278.359 108.792 283.349 103.282 284.739C96.8425 286.359 90.3125 282.449 88.6925 276.009C88.3625 274.679 88.2725 273.359 88.3825 272.069L88.3725 272.059Z" stroke="#512921" stroke-width="2.5" stroke-linecap="round" stroke-linejoin="round"/>
<path d="M87.4729 302.379C87.4729 302.379 87.4729 302.329 87.4729 302.309C87.6529 292.409 89.0429 282.669 89.4629 273.149C89.5229 267.819 92.0629 263.749 97.4729 262.389C103.913 260.769 109.303 264.079 110.923 270.519C111.153 271.449 111.263 272.379 111.273 273.299L111.303 273.749C112.153 283.539 114.133 292.699 115.053 301.929C115.053 301.979 115.053 302.029 115.063 302.079H115.023C115.563 308.689 111.273 314.919 104.623 316.589C97.2229 318.449 89.7229 313.959 87.8629 306.559C87.5129 305.149 87.3829 303.749 87.4729 302.369V302.379Z" fill="#FF73A2"/>
<path d="M112.453 273.539C113.303 283.329 114.133 292.699 115.053 301.939C115.053 301.989 115.053 302.039 115.063 302.089H115.023C115.563 308.699 111.273 314.929 104.623 316.599C97.2229 318.459 89.7229 313.969 87.8629 306.569C87.5129 305.159 87.3829 303.759 87.4729 302.379C87.4729 302.359 87.4729 302.329 87.4729 302.309C87.6529 292.409 87.9229 282.569 88.3329 273.049" stroke="#512921" stroke-width="2.5" stroke-linecap="round" stroke-linejoin="round"/>
<path d="M115.143 301.779C115.333 303.649 115.513 305.549 115.693 307.469C117.483 326.429 111.873 332.679 102.803 333.809C93.263 335.009 87.993 328.139 87.633 310.899C87.573 307.969 87.553 305.049 87.563 302.149C96.203 305.279 105.893 305.019 115.143 301.779Z" fill="#FFEBF0" stroke="#512921" stroke-width="2.5" stroke-linecap="round" stroke-linejoin="round"/>
<path d="M109.372 200.659C104.992 201.379 101.542 203.639 96.1623 206.329C84.4123 212.199 73.9923 267.969 74.3323 271.639C75.4523 283.449 111.282 282.939 117.242 279.089C121.302 276.459 115.382 232.159 114.362 222.209" fill="white"/>
<path d="M109.372 200.659C104.992 201.379 101.542 203.639 96.1623 206.329C84.4123 212.199 73.9923 267.969 74.3323 271.639C75.4523 283.449 111.282 282.939 117.242 279.089C121.302 276.459 115.382 232.159 114.362 222.209" stroke="#512921" stroke-width="2.5" stroke-linecap="round" stroke-linejoin="round"/>
<path d="M129.992 49.6792C79.7219 49.6792 41.1519 78.7292 28.2519 134.019C26.4519 141.739 24.3519 146.319 19.8519 149.029C18.5219 149.819 17.8419 151.469 18.2819 153.019C29.6919 193.839 78.0819 216.539 129.992 216.539C181.902 216.539 230.292 193.829 241.702 153.019C242.142 151.469 241.472 149.819 240.132 149.029C235.632 146.329 233.532 141.739 231.732 134.019C218.842 78.7292 180.262 49.6792 129.992 49.6792Z" fill="#FF73A2"/>
<path d="M30.0321 127.099C29.3921 129.359 28.7921 131.669 28.2421 134.019C26.4421 141.739 24.3421 146.319 19.8421 149.029C18.5121 149.819 17.8321 151.469 18.2721 153.019C29.6821 193.839 78.0721 216.539 129.982 216.539C181.892 216.539 230.282 193.829 241.692 153.019C242.132 151.469 241.462 149.819 240.122 149.029C235.622 146.329 233.522 141.739 231.722 134.019C231.172 131.669 230.582 129.359 229.932 127.099" stroke="#512921" stroke-width="2.5" stroke-linecap="round" stroke-linejoin="round"/>
<path d="M224.011 110.399C206.701 70.4892 172.531 49.6792 129.981 49.6792C87.4312 49.6792 53.2712 70.4892 35.9512 110.399" stroke="#512921" stroke-width="2.5" stroke-linecap="round" stroke-linejoin="round"/>
<path d="M202.892 189.839C196.622 199.499 192.422 202.709 188.322 205.829C172.242 212.849 150.702 216.529 129.992 216.529C109.282 216.529 86.6619 213.019 71.8219 205.869C68.4619 204.339 62.5719 200.459 55.8819 190.159C50.3719 181.669 49.1319 172.119 51.0119 167.949C51.3719 167.149 64.2419 140.469 116.562 134.519C117.292 134.449 118.032 134.369 118.772 134.289C119.842 132.739 128.732 115.229 128.732 115.229C128.982 114.799 129.502 114.569 130.042 114.529C130.612 114.539 131.172 114.779 131.442 115.229C131.442 115.229 140.332 132.749 141.402 134.289C142.342 134.389 143.282 134.489 144.202 134.579C196.012 140.609 207.852 166.169 208.242 166.949C209.552 169.589 208.552 181.109 202.902 189.829L202.892 189.839Z" fill="#FFEBF0" stroke="#512921" stroke-width="2.5" stroke-linecap="round" stroke-linejoin="round"/>
<path d="M110.392 161.189C106.862 161.639 100.472 163.489 96.2617 165.289" stroke="#512921" stroke-width="2.5" stroke-linecap="round" stroke-linejoin="round"/>
<path d="M148.562 160.849C153.293 161.429 159.062 163.299 162.922 165.419" stroke="#512921" stroke-width="2.5" stroke-linecap="round" stroke-linejoin="round"/>
<path d="M123.191 201.219C123.191 199.899 124.491 198.929 129.521 198.929C134.551 198.929 135.851 200.049 135.851 201.219C135.851 202.389 132.441 204.779 129.521 204.779C126.601 204.779 123.191 202.529 123.191 201.219Z" fill="#FF73A2" stroke="#512921" stroke-width="2.5" stroke-linecap="round" stroke-linejoin="round"/>
<path d="M229.892 129.999C251.442 90.1691 237.902 -23.0909 209.062 5.95907C182.772 32.4491 154.282 49.1491 145.612 54.6591C144.302 55.3991 143.022 56.1691 141.782 56.9991C141.712 57.0391 141.672 57.0691 141.672 57.0691H141.682" fill="#FF73A2"/>
<path d="M229.892 129.999C251.442 90.1691 237.902 -23.0909 209.062 5.95907C182.772 32.4491 154.282 49.1491 145.612 54.6591C144.302 55.3991 143.022 56.1691 141.782 56.9991C141.712 57.0391 141.672 57.0691 141.672 57.0691H141.682" stroke="#512921" stroke-width="2.5" stroke-linecap="round" stroke-linejoin="round"/>
<path d="M217.741 24.3289C217.741 24.3289 194.561 83.8689 189.111 88.9089C201.321 90.1589 218.831 102.539 221.131 107.319C226.441 100.189 230.621 38.3188 217.751 24.3188L217.741 24.3289Z" fill="#FFEBF0"/>
<path d="M189.102 88.9189C201.312 90.1689 218.822 102.549 221.122 107.329" stroke="#512921" stroke-width="2.5" stroke-linecap="round" stroke-linejoin="round"/>
<path d="M219.962 14.8989C209.512 56.8289 184.842 96.4889 184.842 96.4889" stroke="#512921" stroke-width="2.5" stroke-linecap="round" stroke-linejoin="round"/>
<path d="M217.611 23.5293C223.601 26.6593 233.281 79.2293 219.051 112.839" stroke="#512921" stroke-width="2.5" stroke-linecap="round" stroke-linejoin="round"/>
<path d="M30.0916 129.999C8.54159 90.1691 22.0816 -23.0909 50.9216 5.95907C77.2116 32.4491 105.702 49.1491 114.372 54.6591C115.682 55.3991 116.962 56.1691 118.202 56.9991C118.272 57.0391 118.312 57.0691 118.312 57.0691H118.302" fill="#FF73A2"/>
<path d="M30.0916 129.999C8.54159 90.1691 22.0816 -23.0909 50.9216 5.95907C77.2116 32.4491 105.702 49.1491 114.372 54.6591C115.682 55.3991 116.962 56.1691 118.202 56.9991C118.272 57.0391 118.312 57.0691 118.312 57.0691H118.302" stroke="#512921" stroke-width="2.5" stroke-linecap="round" stroke-linejoin="round"/>
<path d="M42.2415 24.3289C42.2415 24.3289 65.4215 83.8689 70.8715 88.9089C58.6615 90.1589 41.1515 102.539 38.8515 107.319C33.5415 100.189 29.3615 38.3188 42.2315 24.3188L42.2415 24.3289Z" fill="#FFEBF0"/>
<path d="M70.8716 88.9189C58.6616 90.1689 41.1516 102.549 38.8516 107.329" stroke="#512921" stroke-width="2.5" stroke-linecap="round" stroke-linejoin="round"/>
<path d="M40.0215 14.8989C50.4715 56.8289 75.1415 96.4889 75.1415 96.4889" stroke="#512921" stroke-width="2.5" stroke-linecap="round" stroke-linejoin="round"/>
<path d="M42.3717 23.5293C36.3817 26.6593 26.7017 79.2293 40.9317 112.839" stroke="#512921" stroke-width="2.5" stroke-linecap="round" stroke-linejoin="round"/>
<path d="M189.051 186.779C172.331 194.899 156.491 194.829 149.881 193.999" stroke="#512921" stroke-width="3.5" stroke-linecap="round" stroke-linejoin="round"/>
<path d="M149.691 194.039C155.621 196.889 175.281 197.449 188.421 189.549" stroke="#512921" stroke-width="3.5" stroke-linecap="round" stroke-linejoin="round"/>
<path d="M184.141 193.529C188.201 198.389 193.031 198.219 193.031 198.219" stroke="#512921" stroke-width="2.5" stroke-linecap="round" stroke-linejoin="round"/>
<path d="M69.7734 186.779C86.4934 194.899 102.333 194.829 108.943 193.999" stroke="#512921" stroke-width="3.5" stroke-linecap="round" stroke-linejoin="round"/>
<path d="M109.132 194.039C103.202 196.889 83.5423 197.449 70.4023 189.549" stroke="#512921" stroke-width="3.5" stroke-linecap="round" stroke-linejoin="round"/>
<path d="M74.683 193.529C70.623 198.389 65.793 198.219 65.793 198.219" stroke="#512921" stroke-width="2.5" stroke-linecap="round" stroke-linejoin="round"/>
</svg>
