<svg width="327" height="500" viewBox="0 0 327 500" fill="none" xmlns="http://www.w3.org/2000/svg">
<path d="M87.8662 322.556C84.9062 336.306 82.8263 356.176 81.6863 364.476C73.7363 362.716 66.9462 367.456 66.6362 374.676C66.5862 375.946 67.0861 379.156 68.2461 380.676C67.4761 385.626 70.1562 387.616 74.3862 383.186C75.3362 383.356 75.9161 383.546 76.7961 382.786C76.8361 384.006 77.3363 385.266 78.1863 386.406C76.7663 392.136 80.356 394.636 84.946 390.236C89.296 390.506 92.3763 388.426 93.4263 385.706C95.7962 386.236 103.286 386.016 104.816 380.356C106.346 374.696 110.666 342.786 111.956 327.966C102.376 327.466 92.5862 325.226 87.8762 322.546L87.8662 322.556Z" fill="#FF73A2"/>
<mask id="mask0_16767_4416" style="mask-type:luminance" maskUnits="userSpaceOnUse" x="66" y="322" width="46" height="71">
<path d="M87.8662 322.556C84.9062 336.306 82.8263 356.176 81.6863 364.476C73.7363 362.716 66.9462 367.456 66.6362 374.676C66.5862 375.946 67.0861 379.156 68.2461 380.676C67.4761 385.626 70.1562 387.616 74.3862 383.186C75.3362 383.356 75.9161 383.546 76.7961 382.786C76.8361 384.006 77.3363 385.266 78.1863 386.406C76.7663 392.136 80.356 394.636 84.946 390.236C89.296 390.506 92.3763 388.426 93.4263 385.706C95.7962 386.236 103.286 386.016 104.816 380.356C106.346 374.696 110.666 342.786 111.956 327.966C102.376 327.466 92.5862 325.226 87.8762 322.546L87.8662 322.556Z" fill="white"/>
</mask>
<g mask="url(#mask0_16767_4416)">
<path d="M77.4868 344.496C87.0268 355.106 104.037 352.966 112.877 351.476C116.187 382.246 103.927 437.896 72.4269 420.326C40.9169 402.756 48.8268 365.256 77.4968 344.496H77.4868Z" fill="#FFEBF0" stroke="#50281E" stroke-width="2.5" stroke-linecap="round" stroke-linejoin="round"/>
</g>
<path d="M87.8662 322.556C84.9062 336.306 82.8263 356.176 81.6863 364.476C73.7363 362.716 66.9462 367.456 66.6362 374.676C66.5862 375.946 67.0861 379.156 68.2461 380.676C67.4761 385.626 70.1562 387.616 74.3862 383.186C75.3362 383.356 75.9161 383.546 76.7961 382.786C76.8361 384.006 77.3363 385.266 78.1863 386.406C76.7663 392.136 80.356 394.636 84.946 390.236C89.296 390.506 92.3763 388.426 93.4263 385.706C95.7963 386.236 103.286 386.016 104.816 380.356C106.346 374.696 110.666 342.786 111.956 327.966C102.376 327.466 92.5862 325.226 87.8762 322.546L87.8662 322.556Z" stroke="#50281E" stroke-width="2.5" stroke-linecap="round" stroke-linejoin="round"/>
<path d="M85.0451 374.656C80.8751 374.046 76.4351 377.786 76.7851 382.786L85.0451 374.656Z" fill="#FFEBF0"/>
<path d="M85.0451 374.656C80.8751 374.046 76.4351 377.786 76.7851 382.786" stroke="#50281E" stroke-width="2.5" stroke-linecap="round" stroke-linejoin="round"/>
<path d="M119.027 248.666C110.737 248.666 101.697 256.456 98.8367 260.876C93.4567 269.196 83.2266 299.056 80.5566 323.936C80.5566 325.336 86.2667 328.776 93.8367 330.646C102.887 332.886 112.947 333.396 113.497 332.266C122.287 314.276 135.437 273.246 119.027 248.656V248.666Z" fill="white" stroke="#502823" stroke-width="2.5" stroke-linecap="round" stroke-linejoin="round"/>
<path d="M166.465 376.156C173.845 380.516 191.625 364.966 227.235 323.166C242.645 313.906 248.405 306.736 248.375 305.786C248.115 305.386 243.155 305.656 240.135 306.556C242.985 303.376 249.805 295.426 258.515 284.726C279.865 273.586 290.875 264.686 290.875 263.086C290.875 262.326 286.255 261.566 282.355 261.996C309.455 239.946 315.925 228.526 315.765 226.396C315.715 225.706 310.985 226.026 307.225 227.186C322.155 199.306 325.515 187.496 324.975 180.426C324.905 179.476 319.985 181.536 317.605 183.206C318.125 175.406 317.515 162.776 316.375 162.796C308.755 165.836 293.915 175.836 279.565 196.156C278.395 191.696 276.195 184.846 274.745 186.066C270.225 189.866 261.565 211.036 260.685 221.006C259.365 213.996 258.095 209.156 256.475 212.016C252.745 218.636 248.715 232.036 245.945 244.376C243.555 248.476 230.955 266.826 225.025 276.806C225.405 271.166 224.465 265.416 223.115 265.396C221.425 265.376 214.525 274.536 206.485 300.706C188.045 325.296 157.385 367.866 166.475 376.156H166.465Z" fill="#FF73A2"/>
<mask id="mask1_16767_4416" style="mask-type:luminance" maskUnits="userSpaceOnUse" x="164" y="162" width="162" height="215">
<path d="M166.465 376.156C173.845 380.516 191.625 364.966 227.235 323.166C242.645 313.906 248.405 306.736 248.375 305.786C248.115 305.386 243.155 305.656 240.135 306.556C242.985 303.376 249.805 295.426 258.515 284.726C279.865 273.586 290.875 264.686 290.875 263.086C290.875 262.326 286.255 261.566 282.355 261.996C309.455 239.946 315.925 228.526 315.765 226.396C315.715 225.706 310.985 226.026 307.225 227.186C322.155 199.306 325.515 187.496 324.975 180.426C324.905 179.476 319.985 181.536 317.605 183.206C318.125 175.406 317.515 162.776 316.375 162.796C308.755 165.836 293.915 175.836 279.565 196.156C278.395 191.696 276.195 184.846 274.745 186.066C270.225 189.866 261.565 211.036 260.685 221.006C259.365 213.996 258.095 209.156 256.475 212.016C252.745 218.636 248.715 232.036 245.945 244.376C243.555 248.476 230.955 266.826 225.025 276.806C225.405 271.166 224.465 265.416 223.115 265.396C221.425 265.376 214.525 274.536 206.485 300.706C188.045 325.296 157.385 367.866 166.475 376.156H166.465Z" fill="white"/>
</mask>
<g mask="url(#mask1_16767_4416)">
<path d="M229.254 246.536C242.954 241.646 261.554 243.926 268.734 246.536C276.714 238.426 286.434 232.156 287.594 232.566C288.284 232.806 287.214 239.116 279.824 252.946C282.164 255.076 283.354 258.556 282.624 261.626C326.484 255.346 424.524 178.566 350.384 151.056C278.124 124.236 243.454 187.766 229.254 246.546V246.536Z" fill="#FFEBF0" stroke="#50281E" stroke-width="2.5" stroke-linecap="round" stroke-linejoin="round"/>
<path d="M270.785 264.146C275.965 262.856 278.905 262.346 282.355 261.996L270.785 264.146Z" fill="#FFEBF0"/>
<path d="M270.785 264.146C275.965 262.856 278.905 262.346 282.355 261.996" stroke="#50281E" stroke-width="2.5" stroke-linecap="round" stroke-linejoin="round"/>
<path d="M264.545 251.356C266.055 249.206 267.225 248.086 268.465 246.906L264.545 251.356Z" fill="#FFEBF0"/>
<path d="M264.545 251.356C266.055 249.206 267.225 248.086 268.465 246.906" stroke="#50281E" stroke-width="2.5" stroke-linecap="round" stroke-linejoin="round"/>
<path d="M225.014 276.806C224.604 280.846 224.354 281.986 224.064 283.156L225.014 276.806Z" fill="#FFEBF0"/>
<path d="M225.014 276.806C224.604 280.846 224.354 281.986 224.064 283.156" stroke="#50281E" stroke-width="2.5" stroke-linecap="round" stroke-linejoin="round"/>
<path d="M277.324 256.456C278.284 255.296 278.814 254.636 279.554 253.316L277.324 256.456Z" fill="#FFEBF0"/>
<path d="M277.324 256.456C278.284 255.296 278.814 254.636 279.554 253.316" stroke="#50281E" stroke-width="2.5" stroke-linecap="round" stroke-linejoin="round"/>
<path d="M280.365 202.386C280.345 200.656 279.875 197.266 279.555 196.146L280.365 202.386Z" fill="#FFEBF0"/>
<path d="M280.365 202.386C280.345 200.656 279.875 197.266 279.555 196.146" stroke="#50281E" stroke-width="2.5" stroke-linecap="round" stroke-linejoin="round"/>
<path d="M317.604 183.196C316.064 184.686 314.694 186.266 313.934 187.496L317.604 183.196Z" fill="#FFEBF0"/>
<path d="M317.604 183.196C316.064 184.686 314.694 186.266 313.934 187.496" stroke="#50281E" stroke-width="2.5" stroke-linecap="round" stroke-linejoin="round"/>
</g>
<path d="M166.465 376.156C173.845 380.516 191.625 364.966 227.235 323.166C242.645 313.906 248.405 306.736 248.375 305.786C248.115 305.386 243.155 305.656 240.135 306.556C242.985 303.376 249.805 295.426 258.515 284.726C279.865 273.586 290.875 264.686 290.875 263.086C290.875 262.326 286.255 261.566 282.355 261.996C309.455 239.946 315.925 228.526 315.765 226.396C315.715 225.706 310.985 226.026 307.225 227.186C322.155 199.306 325.515 187.496 324.975 180.426C324.905 179.476 319.985 181.536 317.605 183.206C318.125 175.406 317.515 162.776 316.375 162.796C308.755 165.836 293.915 175.836 279.565 196.156C278.395 191.696 276.195 184.846 274.745 186.066C270.225 189.866 261.565 211.036 260.685 221.006C259.365 213.996 258.095 209.156 256.475 212.016C252.745 218.636 248.715 232.036 245.945 244.376C243.555 248.476 230.955 266.826 225.025 276.806C225.405 271.166 224.465 265.416 223.115 265.396C221.425 265.376 214.525 274.536 206.485 300.706C188.045 325.296 157.385 367.866 166.475 376.156H166.465Z" stroke="#50281E" stroke-width="2.5" stroke-linecap="round" stroke-linejoin="round"/>
<path d="M117.865 392.616C121.455 425.046 124.665 443.626 127.875 462.966C110.585 464.916 108.645 480.206 112.245 491.686C112.965 493.976 114.915 495.466 117.205 496.186C127.025 499.246 156.685 498.076 169.865 494.286C171.885 493.706 172.945 491.766 172.955 489.666C172.985 476.206 164.425 428.306 149.545 388.846C146.605 380.686 120.145 375.856 117.865 392.626V392.616Z" fill="#FF73A2"/>
<mask id="mask2_16767_4416" style="mask-type:luminance" maskUnits="userSpaceOnUse" x="110" y="381" width="63" height="117">
<path d="M117.865 392.616C121.455 425.046 124.665 443.626 127.875 462.966C110.585 464.916 108.645 480.206 112.245 491.686C112.965 493.976 114.915 495.466 117.205 496.186C127.025 499.246 156.685 498.076 169.865 494.286C171.885 493.706 172.945 491.766 172.955 489.666C172.985 476.206 164.425 428.306 149.545 388.846C146.605 380.686 120.145 375.856 117.865 392.626V392.616Z" fill="white"/>
</mask>
<g mask="url(#mask2_16767_4416)">
<path d="M108.564 431.536C122.294 439.146 140.024 440.126 158.244 435.356C168.074 462.456 200.614 507.086 159.554 516.746C103.694 529.886 88.8043 500.706 108.564 431.536Z" fill="#FFEBF0" stroke="#50281E" stroke-width="2.5" stroke-linecap="round" stroke-linejoin="round"/>
<path d="M139.255 463.406C136.185 462.726 130.635 462.616 127.885 462.956" stroke="#50281E" stroke-width="2.5" stroke-linecap="round" stroke-linejoin="round"/>
</g>
<path d="M117.865 392.616C121.455 425.046 124.665 443.626 127.875 462.966C110.585 464.916 108.645 480.206 112.245 491.686C112.965 493.976 114.915 495.466 117.205 496.186C127.025 499.246 156.685 498.076 169.865 494.286C171.885 493.706 172.945 491.766 172.955 489.666C172.985 476.206 164.425 428.306 149.545 388.846C146.605 380.686 120.145 375.856 117.865 392.626V392.616Z" stroke="#50281E" stroke-width="2.5" stroke-linecap="round" stroke-linejoin="round"/>
<path d="M148.686 392.616C152.276 425.046 155.676 446.136 158.896 465.466C151.356 469.556 149.105 481.356 152.705 492.836C153.425 495.126 155.316 496.846 157.666 497.336C169.606 499.796 187.515 499.036 200.695 495.246C202.715 494.666 203.775 492.726 203.785 490.626C203.815 477.166 195.255 428.306 180.375 388.836C177.435 380.676 150.975 375.846 148.695 392.616H148.686Z" fill="#FF73A2"/>
<mask id="mask3_16767_4416" style="mask-type:luminance" maskUnits="userSpaceOnUse" x="148" y="381" width="56" height="118">
<path d="M148.686 392.616C152.276 425.046 155.676 446.136 158.896 465.466C151.356 469.556 149.105 481.356 152.705 492.836C153.425 495.126 155.316 496.846 157.666 497.336C169.606 499.796 187.515 499.036 200.695 495.246C202.715 494.666 203.775 492.726 203.785 490.626C203.815 477.166 195.255 428.306 180.375 388.836C177.435 380.676 150.975 375.846 148.695 392.616H148.686Z" fill="white"/>
</mask>
<g mask="url(#mask3_16767_4416)">
<path d="M150.255 435.076C156.875 438.336 182.645 437.726 199.935 430.036C209.765 457.136 242.305 505.996 201.245 515.666C156.875 526.106 129.285 508.486 150.255 435.076Z" fill="#FFEBF0" stroke="#50281E" stroke-width="2.5" stroke-linecap="round" stroke-linejoin="round"/>
<path d="M190.484 465.746C185.754 461.346 168.625 459.766 158.895 465.476" stroke="#50281E" stroke-width="2.5" stroke-linecap="round" stroke-linejoin="round"/>
</g>
<path d="M148.686 392.616C152.276 425.046 155.676 446.136 158.896 465.466C151.356 469.556 149.105 481.356 152.705 492.836C153.425 495.126 155.316 496.846 157.666 497.336C169.606 499.796 187.515 499.036 200.695 495.246C202.715 494.666 203.775 492.726 203.785 490.626C203.815 477.166 195.255 428.306 180.375 388.836C177.435 380.676 150.975 375.846 148.695 392.616H148.686Z" stroke="#50281E" stroke-width="2.5" stroke-linecap="round" stroke-linejoin="round"/>
<path d="M107.226 316.706C107.906 323.176 107.586 327.476 108.116 330.166C105.686 339.576 100.076 377.396 101.976 402.376C104.506 408.216 126.626 410.736 143.966 403.666C164.486 409.866 194.956 401.906 199.306 390.976C194.306 365.096 179.576 332.276 173.206 321.526C172.986 315.436 172.116 312.626 171.896 311.206C166.026 312.606 114.566 318.426 107.226 316.716V316.706Z" fill="#AAA0FF" stroke="#50281E" stroke-width="2.5" stroke-linecap="round" stroke-linejoin="round"/>
<path d="M112.215 330.866C124.615 333.916 153.185 331.446 167.825 323.976L112.215 330.866Z" fill="#AAA0FF"/>
<path d="M112.215 330.866C124.615 333.916 153.185 331.446 167.825 323.976" stroke="#50281E" stroke-width="2.5" stroke-linecap="round" stroke-linejoin="round"/>
<path d="M132.455 350.066C133.595 352.726 136.535 356.486 139.335 358.136C139.975 370.236 142.345 394.696 143.955 403.666" fill="#AAA0FF"/>
<path d="M132.455 350.066C133.595 352.726 136.535 356.486 139.335 358.136C139.975 370.236 142.345 394.696 143.955 403.666" stroke="#50281E" stroke-width="2.5" stroke-linecap="round" stroke-linejoin="round"/>
<path d="M231.866 371.496C235.076 367.416 235.476 362.616 231.966 358.016C228.186 353.066 220.346 351.006 212.076 352.366C207.006 339.206 194.997 305.296 192.437 300.776C184.217 303.326 171.446 304.126 166.146 311.216C170.426 330.176 174.996 347.536 181.536 363.356C174.856 367.626 172.656 380.826 184.146 383.206C185.646 386.076 188.046 387.436 189.326 387.176C190.536 386.946 192.067 385.426 192.177 381.756C194.107 380.086 194.647 377.896 194.177 375.746C195.427 375.016 198.446 374.366 198.766 377.066C198.756 381.496 200.816 383.846 203.046 384.516C205.056 390.806 207.616 391.286 210.816 384.896C213.756 383.596 214.716 381.576 215.296 379.716C215.706 379.926 215.967 380.136 216.187 380.176C217.777 385.306 220.166 386.006 223.046 379.506C224.796 378.186 226.166 376.716 226.376 373.266C227.306 376.606 229.916 376.606 231.866 371.496Z" fill="#FF73A2"/>
<mask id="mask4_16767_4416" style="mask-type:luminance" maskUnits="userSpaceOnUse" x="166" y="300" width="69" height="90">
<path d="M231.866 371.496C235.076 367.416 235.476 362.616 231.966 358.016C228.186 353.066 220.346 351.006 212.076 352.366C207.006 339.206 194.997 305.296 192.437 300.776C184.217 303.326 171.446 304.126 166.146 311.216C170.426 330.176 174.996 347.536 181.536 363.356C174.856 367.626 172.656 380.826 184.146 383.206C185.646 386.076 188.046 387.436 189.326 387.176C190.536 386.946 192.067 385.426 192.177 381.756C194.107 380.086 194.647 377.896 194.177 375.746C195.427 375.016 198.446 374.366 198.766 377.066C198.756 381.496 200.816 383.846 203.046 384.516C205.056 390.806 207.616 391.286 210.816 384.896C213.756 383.596 214.716 381.576 215.296 379.716C215.706 379.926 215.967 380.136 216.187 380.176C217.777 385.306 220.166 386.006 223.046 379.506C224.796 378.186 226.166 376.716 226.376 373.266C227.306 376.606 229.916 376.606 231.866 371.496Z" fill="white"/>
</mask>
<g mask="url(#mask4_16767_4416)">
<path d="M169.986 347.856C182.326 349.036 198.436 345.356 210.816 335.946C235.126 338.906 280.265 392.596 233.945 401.036C186.505 409.686 142.196 394.976 169.976 347.856H169.986Z" fill="#FFEBF0" stroke="#50281E" stroke-width="2.5" stroke-linecap="round" stroke-linejoin="round"/>
<path d="M207.406 364.666C216.056 368.066 216.696 375.466 215.306 379.716L207.406 364.666Z" fill="#FFEBF0"/>
<path d="M207.406 364.666C216.056 368.066 216.696 375.466 215.306 379.716" stroke="#50281E" stroke-width="2.5" stroke-linecap="round" stroke-linejoin="round"/>
<path d="M181.525 363.346C182.425 362.736 183.425 362.386 183.885 362.246L181.525 363.346Z" fill="#FFEBF0"/>
<path d="M181.525 363.346C182.425 362.736 183.425 362.386 183.885 362.246" stroke="#50281E" stroke-width="2.5" stroke-linecap="round" stroke-linejoin="round"/>
<path d="M214.326 359.916C220.906 359.866 226.966 366.786 226.366 373.266L214.326 359.916Z" fill="#FFEBF0"/>
<path d="M214.326 359.916C220.906 359.866 226.966 366.786 226.366 373.266" stroke="#50281E" stroke-width="2.5" stroke-linecap="round" stroke-linejoin="round"/>
</g>
<path d="M231.866 371.496C235.076 367.416 235.476 362.616 231.966 358.016C228.186 353.066 220.346 351.006 212.076 352.366C207.006 339.206 194.997 305.296 192.437 300.776C184.217 303.326 171.446 304.126 166.146 311.216C170.426 330.176 174.996 347.536 181.536 363.356C174.856 367.626 172.656 380.826 184.146 383.206C185.646 386.076 188.046 387.436 189.326 387.176C190.536 386.946 192.067 385.426 192.177 381.756C194.107 380.086 194.647 377.896 194.177 375.746C195.427 375.016 198.446 374.366 198.766 377.066C198.756 381.496 200.816 383.846 203.046 384.516C205.056 390.806 207.616 391.286 210.816 384.896C213.756 383.596 214.716 381.576 215.296 379.716C215.706 379.926 215.967 380.136 216.187 380.176C217.777 385.306 220.166 386.006 223.046 379.506C224.796 378.186 226.166 376.716 226.376 373.266C227.306 376.606 229.916 376.606 231.866 371.496Z" stroke="#50281E" stroke-width="2.5" stroke-linecap="round" stroke-linejoin="round"/>
<path d="M105.277 275.096C100.637 290.286 97.6367 320.316 99.7167 321.826C108.547 328.256 146.757 326.196 161.567 319.516C162.367 321.966 163.217 326.226 164.417 328.186C174.717 330.166 197.557 323.236 203.077 315.086C195.577 286.536 178.777 264.526 169.667 255.946C161.407 248.166 138.807 244.096 128.167 244.336" fill="white"/>
<path d="M105.277 275.096C100.637 290.286 97.6367 320.316 99.7167 321.826C108.547 328.256 146.757 326.196 161.567 319.516C162.367 321.966 163.217 326.226 164.417 328.186C174.717 330.166 197.557 323.236 203.077 315.086C195.577 286.536 178.777 264.526 169.667 255.946C161.407 248.166 138.807 244.096 128.167 244.336" stroke="#502823" stroke-width="2.5" stroke-linecap="round" stroke-linejoin="round"/>
<path d="M154.377 277.796C155.897 293.456 157.897 306.706 161.567 319.516L154.377 277.796Z" fill="white"/>
<path d="M154.377 277.796C155.897 293.456 157.897 306.706 161.567 319.516" stroke="#502823" stroke-width="2.5" stroke-linecap="round" stroke-linejoin="round"/>
<path d="M136.326 253.496C135.776 259.086 129.036 262.496 122.186 262.496C115.336 262.496 110.056 257.866 112.096 253.496C114.356 248.656 117.726 244.906 123.926 244.496C130.766 244.046 136.816 248.546 136.336 253.496H136.326Z" fill="#FF73A2" stroke="#50281E" stroke-width="2.5" stroke-linecap="round" stroke-linejoin="round"/>
<path d="M126.047 307.245C135.96 306.882 143.674 297.836 143.279 287.04C142.883 276.245 134.526 267.788 124.614 268.152C114.702 268.515 106.987 277.561 107.383 288.357C107.779 299.152 116.135 307.609 126.047 307.245Z" fill="#AAA0FF"/>
<path d="M139.515 287.336C139.255 287.336 138.985 287.256 138.775 287.046C138.735 287.006 134.275 282.946 125.105 283.276C116.865 283.576 111.685 287.886 111.635 287.926C111.175 288.316 110.505 288.226 110.145 287.726C109.785 287.226 109.865 286.496 110.325 286.106C110.555 285.906 116.065 281.296 125.025 280.966C135.105 280.596 139.965 285.116 140.165 285.306C140.605 285.726 140.655 286.456 140.275 286.936C140.075 287.186 139.795 287.316 139.515 287.326V287.336Z" fill="white"/>
<path d="M127.206 295.546L127.636 307.256C127.096 307.336 126.546 307.376 125.996 307.396C125.446 307.416 124.886 307.406 124.346 307.376L123.916 295.666C123.916 295.506 124.046 295.376 124.206 295.366L126.886 295.266C127.056 295.266 127.196 295.386 127.196 295.546H127.206Z" fill="white"/>
<path d="M125.689 297.486C128.532 297.382 130.748 294.904 130.64 291.951C130.531 288.998 128.139 286.689 125.297 286.793C122.455 286.898 120.238 289.376 120.346 292.329C120.455 295.281 122.847 297.591 125.689 297.486Z" fill="white"/>
<path d="M221.187 146.806C239.617 110.896 238.357 76.4861 223.287 46.7661C223.077 40.3961 222.627 28.5961 218.057 17.4961C217.247 15.5261 215.247 23.5861 213.857 29.7161C208.857 14.9261 198.047 -2.2939 197.137 1.8861C195.597 8.9361 194.247 17.7461 192.537 24.2361C189.937 22.3161 187.487 19.2761 184.007 15.5861C183.137 27.8761 180.947 42.7761 178.737 45.8561C162.497 68.4261 145.137 82.0061 139.387 87.3061C150.417 115.736 181.637 150.176 221.177 146.806H221.187Z" fill="#FF73A2" stroke="#502823" stroke-width="2.5" stroke-linecap="round" stroke-linejoin="round"/>
<path d="M206.877 37.0662C206.187 41.7062 205.167 44.5762 204.307 47.5962L206.877 37.0662Z" fill="#FDEDF1"/>
<path d="M206.877 37.0662C206.187 41.7062 205.167 44.5762 204.307 47.5962" stroke="#502823" stroke-width="2.5" stroke-linecap="round" stroke-linejoin="round"/>
<path d="M204.307 47.5962C208.587 52.9262 227.347 83.9862 211.917 135.326C197.237 111.956 187.727 93.4362 180.127 89.7962C189.117 76.8262 198.097 63.3362 204.307 47.5962Z" fill="#FDEDF1" stroke="#502823" stroke-width="2.5" stroke-linecap="round" stroke-linejoin="round"/>
<path d="M20.9252 157.306C3.34515 125.056 12.3251 84.4062 24.3751 56.5762C24.3151 50.7262 24.245 39.8762 27.815 29.5262C28.455 27.6862 30.515 35.0062 31.985 40.5762C35.795 26.8162 44.605 10.6162 45.565 14.4162C47.195 20.8262 48.725 28.8562 50.475 34.7462C52.685 32.8862 54.7051 30.0162 57.6151 26.4862C58.8651 37.7262 58.8652 52.0862 60.9252 54.8262C76.0652 74.9262 87.975 86.7262 93.225 91.3762C84.655 117.876 55.7551 158.906 20.9151 157.286L20.9252 157.306Z" fill="#FF73A2" stroke="#502823" stroke-width="2.5" stroke-linecap="round" stroke-linejoin="round"/>
<path d="M42.1758 50.0562C42.1758 52.9162 42.4357 56.0362 43.0757 58.9662L42.1758 50.0562Z" fill="#FDEDF1"/>
<path d="M42.1758 50.0562C42.1758 52.9162 42.4357 56.0362 43.0757 58.9662" stroke="#502823" stroke-width="2.5" stroke-linecap="round" stroke-linejoin="round"/>
<path d="M42.9451 58.3062C38.5651 66.1262 16.3652 95.8862 28.3252 140.706C36.8752 120.716 47.9653 104.816 54.1153 100.676C45.5553 86.7461 45.7454 71.7662 42.9354 58.3062H42.9451Z" fill="#FDEDF1" stroke="#502823" stroke-width="2.5" stroke-linecap="round" stroke-linejoin="round"/>
<path d="M243.616 172.666C237.556 203.316 213.146 227.516 180.836 241.166C165.646 247.586 148.706 251.666 131.106 252.996C108.216 254.716 85.1358 252.046 64.8258 245.176C36.2958 235.536 13.2358 217.636 3.83581 192.056C3.23581 190.416 0.375739 180.886 1.51574 178.716C2.07574 177.736 6.17578 184.276 8.30578 186.136C7.33578 183.256 6.09572 178.246 6.99572 174.576C7.27572 173.456 9.78569 178.746 11.4657 179.646C16.9957 170.906 16.8257 162.626 22.5157 145.696C37.3157 101.176 70.7557 77.2361 114.736 75.7661C141.646 74.4361 162.346 78.8561 179.206 88.9161C178.236 90.7161 179.736 89.616 181.086 90.306C196.346 98.146 206.526 112.366 216.296 129.086C218.406 132.686 222.886 140.966 232.706 160.846C235.026 158.866 237.396 155.506 238.146 156.236C238.896 156.976 238.846 159.746 238.436 164.936C241.216 161.236 242.636 158.496 244.476 156.676C246.846 154.446 243.956 170.936 243.606 172.646L243.616 172.666Z" fill="#FF73A2"/>
<path d="M214.625 125.986C205.785 110.876 193.945 97.0962 180.125 89.8062C178.615 91.9862 174.105 98.4862 174.105 98.4862" stroke="#502823" stroke-width="2.5" stroke-linecap="round" stroke-linejoin="round"/>
<path d="M68.5859 87.626C82.0459 80.336 97.5958 76.3461 114.746 75.7761C133.016 74.8761 148.416 76.6161 161.706 80.9861" stroke="#502823" stroke-width="2.5" stroke-linecap="round" stroke-linejoin="round"/>
<path d="M219.746 148.406C221.376 146.036 222.246 144.626 223.576 141.826C225.036 144.826 230.216 157.896 232.716 160.866C235.036 158.886 237.406 155.526 238.156 156.256C238.906 156.996 238.856 159.766 238.446 164.956C241.226 161.256 242.646 158.516 244.486 156.696C246.856 154.466 243.966 170.956 243.616 172.666C237.556 203.316 213.146 227.516 180.836 241.166C165.646 247.586 148.706 251.666 131.106 252.996C108.216 254.716 85.1358 252.046 64.8258 245.176C36.2958 235.536 13.2358 217.636 3.83581 192.056C3.23581 190.416 0.375739 180.886 1.51574 178.716C2.07574 177.736 6.17578 184.276 8.30578 186.136C7.33578 183.256 6.09572 178.246 6.99572 174.576C7.27572 173.456 9.78569 178.746 11.4657 179.646C16.9957 170.906 16.8257 162.626 22.5157 145.696C29.8757 123.546 38.2459 110.076 52.6459 98.146" stroke="#502823" stroke-width="2.5" stroke-linecap="round" stroke-linejoin="round"/>
<path d="M180.836 241.166C165.646 247.586 148.706 251.666 131.106 252.996C108.216 254.716 78.716 252.136 57.036 242.286C54.116 238.586 53.406 231.616 55.316 227.516C39.446 219.696 21.3159 200.326 24.7059 163.906C24.8159 162.706 25.196 161.546 25.806 160.506C30.926 151.816 47.4559 139.756 72.7059 132.966C77.6959 115.856 91.2959 99.7561 94.4459 98.9961C96.8359 98.2361 100.646 116.726 102.056 128.156C126.426 126.516 155.616 129.986 188.316 142.776C189.956 143.416 191.166 144.826 191.556 146.536C199.226 179.846 190.186 210.316 167.736 224.696C175.236 228.496 181.596 234.806 180.816 241.156L180.836 241.166Z" fill="#FDEDF1" stroke="#502823" stroke-width="2.5" stroke-linecap="round" stroke-linejoin="round"/>
<path d="M44.6958 174.036C39.3358 174.146 36.5859 170.136 36.5859 170.136" stroke="#502823" stroke-width="2.5" stroke-linecap="round" stroke-linejoin="round"/>
<path d="M81.7466 174.176C75.4266 172.176 54.9468 166.086 47.6168 163.996C44.1668 163.016 43.3067 175.816 47.5467 185.336C51.2967 193.736 58.5168 198.496 66.1668 197.316C83.7168 194.616 83.1566 175.376 81.7466 174.176Z" fill="white" stroke="#502823" stroke-width="2.5" stroke-linecap="round" stroke-linejoin="round"/>
<path d="M82.0754 167.826C79.4854 166.736 75.2355 164.126 72.8555 160.416" stroke="#502823" stroke-width="2.5" stroke-linecap="round" stroke-linejoin="round"/>
<path d="M146.955 159.276C152.915 157.746 154.865 153.046 154.865 153.046" stroke="#502823" stroke-width="2.5" stroke-linecap="round" stroke-linejoin="round"/>
<path d="M106.036 170.766C112.486 166.906 133.466 154.796 140.996 150.546C144.536 148.546 148.976 160.556 146.866 170.976C145.006 180.176 138.316 186.946 129.536 188.166C109.406 190.956 104.806 172.336 106.036 170.766Z" fill="white" stroke="#502823" stroke-width="2.5" stroke-linecap="round" stroke-linejoin="round"/>
<path d="M102.275 166.276C104.695 164.776 108.165 161.176 110.735 157.006" stroke="#502823" stroke-width="2.5" stroke-linecap="round" stroke-linejoin="round"/>
<path d="M64.9766 244.076C67.8566 249.336 75.2267 253.306 81.6467 253.316C87.3767 253.316 91.3967 248.276 93.8467 243.246" fill="#FDEDF1"/>
<path d="M64.9766 244.076C67.8566 249.336 75.2267 253.306 81.6467 253.316C87.3767 253.316 91.3967 248.276 93.8467 243.246" stroke="#502823" stroke-width="2.5" stroke-linecap="round" stroke-linejoin="round"/>
<path d="M123.695 245.156C123.695 245.156 132.255 257.876 146.505 254.586C161.335 251.176 159.995 231.886 159.995 231.886" fill="#FDEDF1"/>
<path d="M123.695 245.156C123.695 245.156 132.255 257.876 146.505 254.586C161.335 251.176 159.995 231.886 159.995 231.886" stroke="#502823" stroke-width="2.5" stroke-linecap="round" stroke-linejoin="round"/>
<path d="M84.5561 201.326C95.4761 205.726 102.796 204.426 109.726 199.626C119.136 193.116 126.856 189.036 136.316 195.406C145.446 201.556 149.586 210.796 150.256 223.426C151.156 240.366 146.916 244.866 140.886 244.866C131.586 244.866 119.786 227.616 108.126 224.256C98.8262 221.576 93.456 227.986 88.966 233.796C84.636 239.406 82.2462 245.526 76.8262 244.856C71.0362 244.136 62.6962 234.066 62.9062 219.166C63.0962 205.456 71.8261 196.196 84.5561 201.326Z" fill="#EA5457"/>
<mask id="mask5_16767_4416" style="mask-type:luminance" maskUnits="userSpaceOnUse" x="62" y="192" width="89" height="53">
<path d="M84.5561 201.326C95.4761 205.726 102.796 204.426 109.726 199.626C119.136 193.116 126.856 189.036 136.316 195.406C145.446 201.556 149.586 210.796 150.256 223.426C151.156 240.366 146.916 244.866 140.886 244.866C131.586 244.866 119.786 227.616 108.126 224.256C98.8262 221.576 93.456 227.986 88.966 233.796C84.636 239.406 82.2462 245.526 76.8262 244.856C71.0362 244.136 62.6962 234.066 62.9062 219.166C63.0962 205.456 71.8261 196.196 84.5561 201.326Z" fill="white"/>
</mask>
<g mask="url(#mask5_16767_4416)">
<path d="M71.4258 198.906C71.4258 198.906 72.7157 207.526 76.3857 209.036C80.0557 210.546 85.0757 200.276 85.0757 200.276L76.9158 196.106L71.4358 198.906H71.4258Z" fill="white" stroke="#502823" stroke-width="2.5" stroke-linecap="round" stroke-linejoin="round"/>
<path d="M136.605 194.596C136.605 194.596 134.065 199.946 130.855 202.306C127.645 204.666 119.705 193.736 119.705 193.736L128.605 185.926L136.605 194.586V194.596Z" fill="white" stroke="#502823" stroke-width="2.5" stroke-linecap="round" stroke-linejoin="round"/>
<path d="M117.235 257.236C138.671 255.247 155.098 243.4 153.927 230.773C152.756 218.147 134.429 209.524 112.993 211.512C91.557 213.501 75.1292 225.348 76.3005 237.975C77.4718 250.601 95.7987 259.224 117.235 257.236Z" fill="#FF8F95" stroke="#502823" stroke-width="2.5" stroke-linecap="round" stroke-linejoin="round"/>
<path d="M131.977 242.226C131.977 242.226 134.657 236.946 137.917 234.666C141.177 232.386 148.477 242.736 148.477 242.736L139.747 251.096L131.977 242.236V242.226Z" fill="white" stroke="#502823" stroke-width="2.5" stroke-linecap="round" stroke-linejoin="round"/>
</g>
<path d="M84.5561 201.326C95.4761 205.726 102.796 204.426 109.726 199.626C119.136 193.116 126.856 189.036 136.316 195.406C145.446 201.556 149.586 210.796 150.256 223.426C151.156 240.366 146.916 244.866 140.886 244.866C131.586 244.866 119.786 227.616 108.126 224.256C98.8262 221.576 93.456 227.986 88.966 233.796C84.636 239.406 82.2462 245.526 76.8262 244.856C71.0362 244.136 62.6962 234.066 62.9062 219.166C63.0962 205.456 71.8261 196.196 84.5561 201.326Z" stroke="#502823" stroke-width="2.5" stroke-linecap="round" stroke-linejoin="round"/>
<path d="M88.3855 187.036C88.2755 185.456 89.5055 184.186 94.5855 183.776C99.6655 183.376 101.066 184.616 101.166 186.016C101.266 187.416 98.0154 190.556 95.0654 190.796C92.1154 191.026 88.4855 188.606 88.3855 187.026V187.036Z" fill="#FF73A2" stroke="#502823" stroke-width="2.5" stroke-linecap="round" stroke-linejoin="round"/>
<path d="M157.345 143.516C153.615 143.516 149.785 142.976 145.625 141.866L145.405 141.806C141.805 140.696 139.595 137.186 140.155 133.456C140.715 129.726 143.845 127.016 147.595 127.016C147.715 127.016 147.845 127.016 147.965 127.016C148.465 127.036 149.015 127.056 149.595 127.086C151.055 127.146 152.715 127.226 154.345 127.226C156.435 127.226 157.865 127.106 158.845 126.956C158.605 125.726 158.045 123.726 156.825 120.496L156.685 120.116C155.385 116.886 156.485 113.126 159.335 111.106C160.605 110.206 162.105 109.726 163.665 109.726C166.155 109.726 168.475 110.956 169.875 113.016C170.395 113.776 170.865 114.546 171.395 115.496C172.945 118.326 173.985 120.876 174.675 123.546C176.405 130.166 174.765 134.516 173.085 136.996C171.445 139.416 168.145 142.456 161.715 143.256C160.255 143.426 158.805 143.516 157.345 143.516Z" fill="#E62318"/>
<path d="M163.665 115.726C164.145 115.726 164.625 115.956 164.915 116.396C165.385 117.086 165.765 117.726 166.155 118.416C167.315 120.526 168.245 122.656 168.865 125.046C170.665 131.926 168.055 136.426 160.975 137.306C159.755 137.446 158.545 137.516 157.345 137.516C153.905 137.516 150.525 136.966 147.165 136.076C145.445 135.546 145.855 133.026 147.595 133.026C147.635 133.026 147.665 133.026 147.705 133.026C149.515 133.086 151.905 133.236 154.355 133.236C157.835 133.236 161.425 132.946 163.645 131.706C166.935 129.766 163.355 120.816 162.275 117.926C161.985 117.256 162.185 116.446 162.805 116.016C163.075 115.826 163.375 115.736 163.675 115.736M163.665 103.726C160.855 103.726 158.155 104.586 155.855 106.216C151.105 109.576 149.075 115.646 150.695 121.136C150.415 121.126 150.135 121.116 149.865 121.096C149.275 121.066 148.725 121.046 148.215 121.026C148.005 121.026 147.805 121.016 147.595 121.016C140.845 121.016 135.225 125.866 134.215 132.566C133.205 139.256 137.175 145.556 143.635 147.546L143.855 147.616L144.075 147.676C148.745 148.916 153.085 149.526 157.335 149.526C159.025 149.526 160.725 149.426 162.375 149.236H162.415H162.455C171.115 148.156 175.715 143.826 178.055 140.386C180.435 136.876 182.785 130.846 180.485 122.036C179.675 118.896 178.465 115.916 176.685 112.666L176.665 112.626L176.645 112.586C176.035 111.486 175.465 110.566 174.855 109.666C172.335 105.966 168.155 103.746 163.685 103.746L163.665 103.726Z" fill="white"/>
<path d="M174.646 157.416C171.676 157.416 168.976 155.656 167.766 152.926L167.406 152.116C167.066 151.356 166.686 150.506 166.296 149.726C165.276 150.366 164.226 151.126 163.196 151.876L162.266 152.546C160.966 153.516 159.376 154.046 157.756 154.046C156.116 154.046 154.546 153.526 153.236 152.526C149.966 150.066 149.266 145.346 151.676 142.026C153.876 139.086 156.416 136.686 159.256 134.816C162.066 132.966 164.916 132.016 167.716 132.016C170.676 132.016 176.186 133.126 179.746 140.556C180.666 142.486 181.346 144.536 181.796 146.836L181.886 147.326C183.016 153.326 179.806 155.786 177.786 156.716C176.786 157.176 175.726 157.406 174.636 157.406L174.646 157.416Z" fill="#E62318"/>
<path d="M167.726 138.026C170.436 138.026 172.726 139.766 174.356 143.156C175.116 144.736 175.596 146.326 175.936 148.006C176.116 149.106 176.616 150.656 175.286 151.276C175.076 151.366 174.866 151.416 174.656 151.416C174.076 151.416 173.516 151.076 173.266 150.496L173.226 150.406C172.136 147.996 170.986 145.136 169.136 143.326C168.636 142.846 168.196 142.656 167.696 142.656C167.196 142.656 166.646 142.846 165.936 143.126C163.396 144.226 160.986 146.086 158.716 147.716C158.446 147.926 158.106 148.046 157.776 148.046C157.456 148.046 157.146 147.946 156.866 147.736C156.186 147.226 156.046 146.246 156.546 145.546C158.236 143.286 160.216 141.376 162.566 139.836C164.406 138.616 166.146 138.016 167.736 138.016M167.726 126.026C163.726 126.026 159.756 127.306 155.936 129.826C152.536 132.056 149.496 134.926 146.936 138.356L146.876 138.436L146.816 138.516C142.496 144.466 143.756 152.906 149.626 157.326C151.946 159.076 154.836 160.046 157.756 160.046C159.996 160.046 162.206 159.486 164.166 158.426C166.696 161.536 170.526 163.416 174.646 163.416C176.616 163.416 178.516 162.996 180.306 162.166C184.606 160.176 187.496 156.176 188.056 151.456C188.336 149.116 187.966 147.146 187.786 146.206L187.756 146.046L187.726 145.836L187.686 145.656C187.126 142.866 186.306 140.346 185.166 137.966C181.516 130.366 175.156 126.016 167.716 126.016L167.726 126.026Z" fill="white"/>
<path d="M180.094 148.896C178.954 148.896 177.814 148.626 176.784 148.126C176.474 147.976 176.224 147.836 175.964 147.696L175.714 147.556C173.574 146.306 171.754 144.846 170.154 143.106C167.654 140.366 166.084 137.096 165.744 133.906C165.194 128.206 168.014 121.976 173.284 117.176L173.424 117.046C174.794 115.876 176.534 115.226 178.304 115.226C181.024 115.226 183.544 116.716 184.894 119.116C186.214 121.476 186.184 124.256 184.834 126.606L184.684 126.876C183.704 128.666 182.694 130.516 182.264 132.096C182.634 132.856 183.654 134.026 184.434 134.906L184.744 135.256C184.844 135.366 185.614 136.186 185.614 136.186C187.724 138.466 188.224 141.766 186.894 144.576C185.644 147.196 182.974 148.896 180.084 148.896H180.094Z" fill="#E62318"/>
<path d="M178.314 121.226C179.394 121.226 180.334 122.476 179.614 123.646C178.374 125.916 177.024 128.326 176.404 130.816C176.264 131.516 176.144 132.246 176.274 132.956C176.774 135.406 178.644 137.386 180.264 139.236C180.314 139.286 181.194 140.246 181.214 140.266C181.634 140.726 181.764 141.416 181.474 142.016C181.204 142.576 180.664 142.906 180.094 142.906C179.874 142.906 179.644 142.856 179.434 142.756C179.174 142.626 178.964 142.516 178.744 142.386C177.204 141.486 175.824 140.416 174.594 139.066C173.184 137.526 171.954 135.466 171.724 133.276C171.294 128.836 174.264 124.416 177.344 121.616C177.654 121.346 177.994 121.236 178.324 121.236M178.314 109.226C175.114 109.226 171.994 110.386 169.534 112.486L169.384 112.606L169.244 112.736C166.044 115.646 158.724 123.596 159.764 134.416V134.476L159.774 134.536C160.374 140.246 163.344 144.556 165.714 147.156C167.724 149.356 170.004 151.186 172.674 152.746L172.844 152.846L173.014 152.936L173.114 152.986C173.434 153.156 173.744 153.326 174.124 153.516C175.974 154.426 178.034 154.906 180.084 154.906C185.284 154.906 190.084 151.866 192.314 147.156C194.694 142.126 193.804 136.226 190.034 132.136L189.314 131.356L189.294 131.336C189.294 131.336 189.224 131.256 189.184 131.226L189.164 131.206C189.424 130.716 189.694 130.216 189.944 129.756L190.064 129.536C192.414 125.406 192.444 120.326 190.124 116.186C187.714 111.896 183.184 109.236 178.304 109.236L178.314 109.226Z" fill="white"/>
<path d="M157.345 143.516C153.615 143.516 149.785 142.976 145.625 141.866L145.405 141.806C141.805 140.696 139.595 137.186 140.155 133.456C140.715 129.726 143.845 127.016 147.595 127.016C147.715 127.016 147.845 127.016 147.965 127.016C148.465 127.036 149.015 127.056 149.595 127.086C151.055 127.146 152.715 127.226 154.345 127.226C156.435 127.226 157.865 127.106 158.845 126.956C158.605 125.726 158.045 123.726 156.825 120.496L156.685 120.116C155.385 116.886 156.485 113.126 159.335 111.106C160.605 110.206 162.105 109.726 163.665 109.726C166.155 109.726 168.475 110.956 169.875 113.016C170.395 113.776 170.865 114.546 171.395 115.496C172.945 118.326 173.985 120.876 174.675 123.546C176.405 130.166 174.765 134.516 173.085 136.996C171.445 139.416 168.145 142.456 161.715 143.256C160.255 143.426 158.805 143.516 157.345 143.516Z" fill="#E62318"/>
<path d="M163.665 115.726C164.145 115.726 164.625 115.956 164.915 116.396C165.385 117.086 165.765 117.726 166.155 118.416C167.315 120.526 168.245 122.656 168.865 125.046C170.665 131.926 168.055 136.426 160.975 137.306C159.755 137.446 158.545 137.516 157.345 137.516C153.905 137.516 150.525 136.966 147.165 136.076C145.445 135.546 145.855 133.026 147.595 133.026C147.635 133.026 147.665 133.026 147.705 133.026C149.515 133.086 151.905 133.236 154.355 133.236C157.835 133.236 161.425 132.946 163.645 131.706C166.935 129.766 163.355 120.816 162.275 117.926C161.985 117.256 162.185 116.446 162.805 116.016C163.075 115.826 163.375 115.736 163.675 115.736M163.665 103.726C160.855 103.726 158.155 104.586 155.855 106.216C151.105 109.576 149.075 115.646 150.695 121.136C150.415 121.126 150.135 121.116 149.865 121.096C149.275 121.066 148.725 121.046 148.215 121.026C148.005 121.026 147.805 121.016 147.595 121.016C140.845 121.016 135.225 125.866 134.215 132.566C133.205 139.256 137.175 145.556 143.635 147.546L143.855 147.616L144.075 147.676C148.745 148.916 153.085 149.526 157.335 149.526C159.025 149.526 160.725 149.426 162.375 149.236H162.415H162.455C171.115 148.156 175.715 143.826 178.055 140.386C180.435 136.876 182.785 130.846 180.485 122.036C179.675 118.896 178.465 115.916 176.685 112.666L176.665 112.626L176.645 112.586C176.035 111.486 175.465 110.566 174.855 109.666C172.335 105.966 168.155 103.746 163.685 103.746L163.665 103.726Z" fill="white"/>
<path d="M174.646 157.416C171.676 157.416 168.976 155.656 167.766 152.926L167.406 152.116C167.066 151.356 166.686 150.506 166.296 149.726C165.276 150.366 164.226 151.126 163.196 151.876L162.266 152.546C160.966 153.516 159.376 154.046 157.756 154.046C156.116 154.046 154.546 153.526 153.236 152.526C149.966 150.066 149.266 145.346 151.676 142.026C153.876 139.086 156.416 136.686 159.256 134.816C162.066 132.966 164.916 132.016 167.716 132.016C170.676 132.016 176.186 133.126 179.746 140.556C180.666 142.486 181.346 144.536 181.796 146.836L181.886 147.326C183.016 153.326 179.806 155.786 177.786 156.716C176.786 157.176 175.726 157.406 174.636 157.406L174.646 157.416Z" fill="#E62318"/>
<path d="M167.726 138.026C170.436 138.026 172.726 139.766 174.356 143.156C175.116 144.736 175.596 146.326 175.936 148.006C176.116 149.106 176.616 150.656 175.286 151.276C175.076 151.366 174.866 151.416 174.656 151.416C174.076 151.416 173.516 151.076 173.266 150.496L173.226 150.406C172.136 147.996 170.986 145.136 169.136 143.326C168.636 142.846 168.196 142.656 167.696 142.656C167.196 142.656 166.646 142.846 165.936 143.126C163.396 144.226 160.986 146.086 158.716 147.716C158.446 147.926 158.106 148.046 157.776 148.046C157.456 148.046 157.146 147.946 156.866 147.736C156.186 147.226 156.046 146.246 156.546 145.546C158.236 143.286 160.216 141.376 162.566 139.836C164.406 138.616 166.146 138.016 167.736 138.016M167.726 126.026C163.726 126.026 159.756 127.306 155.936 129.826C152.536 132.056 149.496 134.926 146.936 138.356L146.876 138.436L146.816 138.516C142.496 144.466 143.756 152.906 149.626 157.326C151.946 159.076 154.836 160.046 157.756 160.046C159.996 160.046 162.206 159.486 164.166 158.426C166.696 161.536 170.526 163.416 174.646 163.416C176.616 163.416 178.516 162.996 180.306 162.166C184.606 160.176 187.496 156.176 188.056 151.456C188.336 149.116 187.966 147.146 187.786 146.206L187.756 146.046L187.726 145.836L187.686 145.656C187.126 142.866 186.306 140.346 185.166 137.966C181.516 130.366 175.156 126.016 167.716 126.016L167.726 126.026Z" fill="white"/>
<path d="M180.094 148.896C178.954 148.896 177.814 148.626 176.784 148.126C176.474 147.976 176.224 147.836 175.964 147.696L175.714 147.556C173.574 146.306 171.754 144.846 170.154 143.106C167.654 140.366 166.084 137.096 165.744 133.906C165.194 128.206 168.014 121.976 173.284 117.176L173.424 117.046C174.794 115.876 176.534 115.226 178.304 115.226C181.024 115.226 183.544 116.716 184.894 119.116C186.214 121.476 186.184 124.256 184.834 126.606L184.684 126.876C183.704 128.666 182.694 130.516 182.264 132.096C182.634 132.856 183.654 134.026 184.434 134.906L184.744 135.256C184.844 135.366 185.614 136.186 185.614 136.186C187.724 138.466 188.224 141.766 186.894 144.576C185.644 147.196 182.974 148.896 180.084 148.896H180.094Z" fill="#E62318"/>
<path d="M178.314 121.226C179.394 121.226 180.334 122.476 179.614 123.646C178.374 125.916 177.024 128.326 176.404 130.816C176.264 131.516 176.144 132.246 176.274 132.956C176.774 135.406 178.644 137.386 180.264 139.236C180.314 139.286 181.194 140.246 181.214 140.266C181.634 140.726 181.764 141.416 181.474 142.016C181.204 142.576 180.664 142.906 180.094 142.906C179.874 142.906 179.644 142.856 179.434 142.756C179.174 142.626 178.964 142.516 178.744 142.386C177.204 141.486 175.824 140.416 174.594 139.066C173.184 137.526 171.954 135.466 171.724 133.276C171.294 128.836 174.264 124.416 177.344 121.616C177.654 121.346 177.994 121.236 178.324 121.236M178.314 109.226C175.114 109.226 171.994 110.386 169.534 112.486L169.384 112.606L169.244 112.736C166.044 115.646 158.724 123.596 159.764 134.416V134.476L159.774 134.536C160.374 140.246 163.344 144.556 165.714 147.156C167.724 149.356 170.004 151.186 172.674 152.746L172.844 152.846L173.014 152.936L173.114 152.986C173.434 153.156 173.744 153.326 174.124 153.516C175.974 154.426 178.034 154.906 180.084 154.906C185.284 154.906 190.084 151.866 192.314 147.156C194.694 142.126 193.804 136.226 190.034 132.136L189.314 131.356L189.294 131.336C189.294 131.336 189.224 131.256 189.184 131.226L189.164 131.206C189.424 130.716 189.694 130.216 189.944 129.756L190.064 129.536C192.414 125.406 192.444 120.326 190.124 116.186C187.714 111.896 183.184 109.236 178.304 109.236L178.314 109.226Z" fill="white"/>
<path d="M72.1348 130.316C71.8248 130.316 71.5048 130.296 71.1748 130.256L71.0547 130.236C66.8047 129.586 56.5847 127.246 53.5947 119.706C52.6747 117.386 51.7747 112.676 56.1047 107.126C57.8947 104.856 60.0047 102.936 62.5747 101.256C63.7847 100.486 65.0948 100.106 66.4348 100.106C68.8848 100.106 71.2046 101.406 72.4846 103.506C74.1946 106.306 73.7446 109.946 71.4446 112.246L71.1147 112.586C70.4648 113.266 69.9146 113.866 69.4646 114.386C69.4646 114.386 69.4846 114.386 69.4946 114.396C71.1046 115.176 72.8847 115.876 74.5747 116.516C77.7947 117.706 79.6947 120.996 79.1147 124.386C78.5247 127.816 75.5948 130.306 72.1448 130.306L72.1348 130.316Z" fill="#E62318"/>
<path d="M66.4344 106.106C66.7944 106.106 67.1543 106.296 67.3543 106.626C67.6343 107.086 67.5443 107.686 67.1643 108.036C65.5943 109.706 60.8043 114.396 62.3943 116.676C63.3443 118.016 65.2743 119.006 66.8243 119.786C68.6243 120.656 70.5642 121.426 72.4642 122.146C73.6542 122.566 73.3043 124.316 72.1343 124.316C72.0843 124.316 72.0242 124.316 71.9642 124.306C65.2942 123.286 54.2543 119.246 60.8343 110.806C62.2743 108.976 63.9243 107.536 65.8543 106.276C66.0343 106.166 66.2344 106.106 66.4344 106.106ZM66.4344 94.1062C63.9444 94.1062 61.5244 94.8162 59.4244 96.1462L59.3543 96.1862L59.2842 96.2262C56.1642 98.2662 53.5743 100.616 51.3943 103.386C45.1943 111.336 46.6142 118.406 48.0042 121.916C49.3842 125.386 54.3043 133.736 70.1343 136.166L70.2442 136.186L70.3543 136.206C70.9343 136.286 71.5343 136.326 72.1143 136.326C78.4943 136.326 83.9142 131.746 84.9942 125.426C85.9342 119.926 83.3243 114.556 78.6443 111.856C80.0243 108.166 79.7343 103.916 77.5743 100.386C75.2143 96.5162 70.9343 94.1161 66.4043 94.1161L66.4344 94.1062Z" fill="white"/>
<path d="M61.334 134.456C58.804 134.456 56.4639 133.086 55.2039 130.876C55.2039 130.876 54.5439 129.766 54.4539 129.616L54.2539 129.806C52.9439 131.066 51.164 131.786 49.344 131.786C47.324 131.786 45.404 130.926 44.054 129.416C42.064 127.186 41.684 123.906 43.114 121.266C43.784 120.056 44.4739 119.116 45.0139 118.436L45.094 118.336C46.294 116.866 48.2439 114.766 51.2739 113.446L51.4141 113.386C52.7541 112.846 54.1339 112.566 55.5039 112.566C61.3439 112.566 66.2239 117.576 68.2439 125.636L68.2739 125.786C68.7539 127.926 68.2541 130.116 66.9041 131.796C65.5641 133.476 63.484 134.476 61.334 134.476V134.456Z" fill="#E62318"/>
<path d="M55.5047 118.546C59.2947 118.546 61.5749 123.696 62.4249 127.066C62.6049 127.886 61.9748 128.446 61.3348 128.446C60.9748 128.446 60.6149 128.266 60.3949 127.866C59.3349 126.116 58.3147 124.236 56.9447 122.766C56.5347 122.326 56.0948 121.996 55.8048 121.896C55.7248 121.856 55.6147 121.836 55.4847 121.836C55.2947 121.836 55.0648 121.876 54.7848 121.976C53.0448 122.646 51.5448 124.136 50.1148 125.436C49.8948 125.656 49.6148 125.776 49.3248 125.776C49.0348 125.776 48.7347 125.656 48.5247 125.416C48.1947 125.056 48.1548 124.526 48.3748 124.116C48.7748 123.376 49.2247 122.756 49.7247 122.126C50.8147 120.796 52.0049 119.656 53.6649 118.936C54.3149 118.676 54.9247 118.556 55.5047 118.556M55.5047 106.546C53.3547 106.546 51.2249 106.966 49.1649 107.806L49.0247 107.866L48.8849 107.926C44.6749 109.766 42.0647 112.566 40.4647 114.506L40.3748 114.616L40.2948 114.726C39.6148 115.596 38.7248 116.796 37.8648 118.366C35.2048 123.246 35.9048 129.296 39.5948 133.426C42.0448 136.186 45.6048 137.786 49.3448 137.786C50.5348 137.786 51.7148 137.616 52.8448 137.306C55.1748 139.306 58.1748 140.466 61.3448 140.466C65.3548 140.466 69.0948 138.676 71.5948 135.546C74.0948 132.436 75.0149 128.396 74.1449 124.476L74.1148 124.326L74.0748 124.176C71.3548 113.316 64.2447 106.566 55.5147 106.566L55.5047 106.546Z" fill="white"/>
<path d="M48.8946 125.356C45.0646 125.356 41.9545 122.346 41.8045 118.516C41.6845 115.496 43.4645 112.756 46.2645 111.626C47.0345 111.296 47.8146 110.946 48.4146 110.616C48.4346 109.816 48.3345 108.826 48.2445 107.856L48.1847 107.246C47.9947 105.296 48.6545 103.306 49.9845 101.826C51.3345 100.336 53.2645 99.4861 55.2845 99.4861C58.0345 99.4861 60.4846 101.036 61.6646 103.536L61.7245 103.666C63.7845 108.306 64.0846 112.966 62.5646 116.806C61.2945 120.006 58.8545 122.436 55.5145 123.846C53.5045 124.726 51.4645 125.216 49.2845 125.346H49.1146L48.8946 125.356Z" fill="#E62318"/>
<path d="M55.2949 105.496C55.6749 105.496 56.0448 105.686 56.2548 106.116C58.2448 110.586 58.395 116.156 53.155 118.346C51.785 118.946 50.4448 119.276 48.9448 119.366C48.9248 119.366 48.915 119.366 48.895 119.366C48.315 119.366 47.8249 118.896 47.8049 118.296C47.7849 117.786 48.1049 117.346 48.5549 117.186C49.6549 116.716 50.8149 116.196 51.7949 115.596C53.1249 114.796 54.1549 113.836 54.3049 112.216C54.5749 110.446 54.345 108.536 54.175 106.716C54.105 105.966 54.7049 105.496 55.2949 105.496ZM55.2949 93.4961C51.5949 93.4961 48.0449 95.0661 45.5549 97.8061C43.2849 100.306 42.075 103.616 42.175 106.986C38.105 109.416 35.6249 113.886 35.8149 118.766C36.0849 125.826 41.825 131.366 48.895 131.366H49.4548L49.5449 131.346H49.6349C52.5249 131.176 55.2249 130.526 57.8849 129.366C62.6549 127.336 66.295 123.666 68.145 119.026C70.265 113.676 69.9348 107.356 67.2148 101.236L67.155 101.106L67.0949 100.976C64.9149 96.3561 60.3849 93.4961 55.2949 93.4961Z" fill="white"/>
<path d="M67.1638 108.036C65.5938 109.706 60.8037 114.396 62.3937 116.676C63.3437 118.016 65.2737 119.006 66.8237 119.786C68.6237 120.656 70.5636 121.426 72.4636 122.146C73.7136 122.586 73.2636 124.476 71.9636 124.306C65.2936 123.286 54.2537 119.246 60.8337 110.806C62.2737 108.976 63.9237 107.526 65.8537 106.276C66.3637 105.956 67.0337 106.106 67.3537 106.636C67.6337 107.096 67.5438 107.696 67.1638 108.046V108.036Z" fill="#E62318"/>
<path d="M60.3938 127.866C59.3338 126.116 58.3136 124.236 56.9436 122.766C56.5336 122.326 56.0937 121.996 55.8037 121.896C55.6237 121.796 55.2637 121.796 54.7837 121.976C53.0437 122.646 51.5438 124.136 50.1138 125.436C49.6738 125.896 48.9437 125.886 48.5237 125.406C48.1937 125.046 48.1538 124.516 48.3738 124.106C48.7738 123.366 49.2236 122.746 49.7236 122.116C50.8136 120.786 52.0038 119.646 53.6638 118.916C58.5638 116.926 61.4438 123.166 62.4138 127.056C62.6938 128.326 60.9938 128.986 60.3838 127.846L60.3938 127.866Z" fill="#E62318"/>
<path d="M56.2438 106.106C58.2338 110.576 58.384 116.146 53.144 118.336C51.774 118.946 50.434 119.266 48.934 119.356C48.334 119.386 47.8239 118.906 47.7939 118.286C47.7739 117.776 48.0939 117.336 48.5439 117.176C49.6439 116.706 50.8038 116.186 51.7838 115.586C53.1138 114.786 54.1439 113.826 54.2939 112.206C54.5639 110.436 54.334 108.526 54.164 106.706C54.044 105.476 55.7238 105.006 56.2438 106.106Z" fill="#E62318"/>
</svg>
