<svg width="283" height="434" viewBox="0 0 283 434" fill="none" xmlns="http://www.w3.org/2000/svg">
<path d="M188.139 418.092C195.809 412.232 201.879 403.862 202.449 391.902C203.869 362.002 174.059 340.472 156.449 331.502C133.609 330.902 133.469 332.422 130.389 336.772C151.409 350.072 178.179 369.272 178.929 385.562C179.189 391.282 176.739 395.162 172.999 397.912" fill="#FF73A2"/>
<path d="M188.139 418.092C195.809 412.232 201.879 403.862 202.449 391.902C203.869 362.002 174.059 340.472 156.449 331.502C133.609 330.902 133.469 332.422 130.389 336.772C151.409 350.072 178.179 369.272 178.929 385.562C179.189 391.282 176.739 395.162 172.999 397.912" stroke="#50281E" stroke-width="2.5" stroke-linecap="round" stroke-linejoin="round"/>
<path d="M92.129 260.762C89.159 276.322 85.179 296.622 85.129 301.212C89.219 304.002 92.8391 310.552 89.4691 317.202C87.3291 321.422 83.0691 322.732 81.0991 322.502C76.4691 325.892 65.969 326.032 61.629 321.602C55.009 314.842 50.519 308.892 69.659 254.712C73.719 253.692 88.669 258.252 92.139 260.752L92.129 260.762Z" fill="#FF73A2"/>
<mask id="mask0_16767_4778" style="mask-type:luminance" maskUnits="userSpaceOnUse" x="55" y="254" width="38" height="71">
<path d="M92.129 260.762C89.159 276.322 85.179 296.622 85.129 301.212C89.219 304.002 92.8391 310.552 89.4691 317.202C87.3291 321.422 83.0691 322.732 81.0991 322.502C76.4691 325.892 65.969 326.032 61.629 321.602C55.009 314.842 50.519 308.892 69.659 254.712C73.719 253.692 88.669 258.252 92.139 260.752L92.129 260.762Z" fill="white"/>
</mask>
<g mask="url(#mask0_16767_4778)">
<path d="M92.1083 290.972C83.4383 290.452 59.7982 285.612 50.2482 280.062C47.4582 290.982 33.0683 328.052 70.2183 331.912C107.358 335.772 102.208 303.252 92.1083 290.972Z" fill="#FFEBF0" stroke="#50281E" stroke-width="2.5" stroke-linecap="round" stroke-linejoin="round"/>
<path d="M65.9688 303.922C66.8087 304.032 68.1988 304.412 68.7188 305.122C69.6988 308.142 73.0288 320.252 81.7388 314.642" fill="#FFEBF0"/>
<path d="M65.9688 303.922C66.8087 304.032 68.1988 304.412 68.7188 305.122C69.6988 308.142 73.0288 320.252 81.7388 314.642" stroke="#50281E" stroke-width="2.5" stroke-linecap="round" stroke-linejoin="round"/>
</g>
<path d="M92.129 260.762C89.159 276.322 85.179 296.622 85.129 301.212C89.219 304.002 92.8391 310.552 89.4691 317.202C87.3291 321.422 83.0691 322.732 81.0991 322.502C76.4691 325.892 65.969 326.032 61.629 321.602C55.009 314.842 50.519 308.892 69.659 254.712C73.719 253.692 88.669 258.252 92.139 260.752L92.129 260.762Z" stroke="#50281E" stroke-width="2.5" stroke-linecap="round" stroke-linejoin="round"/>
<path d="M102.449 226.112L104.589 269.222C82.5187 269.422 63.1387 266.292 63.1387 262.182C63.1587 251.442 71.6888 218.952 81.7388 204.462C89.4588 193.332 101.339 191.022 101.339 191.022C119.539 186.602 125.799 211.162 102.439 226.102L102.449 226.112Z" fill="white" stroke="#512921" stroke-width="2.5" stroke-linecap="round" stroke-linejoin="round"/>
<path d="M78.1487 335.852C77.6687 340.012 77.1687 349.512 75.9487 355.642C70.2087 377.522 67.5987 402.772 69.4987 418.442C69.8187 421.052 71.8287 423.182 74.5087 423.792C82.9487 425.702 98.2587 426.842 110.539 424.832C112.709 424.482 115.059 422.932 115.599 420.912C119.419 406.622 114.849 397.152 103.679 396.152C105.899 372.822 108.469 355.642 108.469 337.822C98.8387 334.562 84.9087 333.902 78.1487 335.852Z" fill="#FF73A2"/>
<mask id="mask1_16767_4778" style="mask-type:luminance" maskUnits="userSpaceOnUse" x="68" y="334" width="49" height="92">
<path d="M78.1487 335.852C77.6687 340.012 77.1687 349.512 75.9487 355.642C70.2087 377.522 67.5987 402.772 69.4987 418.442C69.8187 421.052 71.8287 423.182 74.5087 423.792C82.9487 425.702 98.2587 426.842 110.539 424.832C112.709 424.482 115.059 422.932 115.599 420.912C119.419 406.622 114.849 397.152 103.679 396.152C105.899 372.822 108.469 355.642 108.469 337.822C98.8387 334.562 84.9087 333.902 78.1487 335.852Z" fill="white"/>
</mask>
<g mask="url(#mask1_16767_4778)">
<path d="M67.4887 377.862C74.8687 378.022 102.009 379.612 111.279 382.162C113.539 385.002 125.209 425.072 121.759 431.952C118.329 438.802 73.2186 447.462 64.8086 425.882C56.3986 404.302 58.9087 394.992 67.4887 377.862Z" fill="#FFEBF0" stroke="#50281E" stroke-width="2.5" stroke-linecap="round" stroke-linejoin="round"/>
<path d="M86.4277 399.692C89.5877 397.342 95.5977 395.632 103.678 396.152L86.4277 399.692Z" fill="#FFEBF0"/>
<path d="M86.4277 399.692C89.5877 397.342 95.5977 395.632 103.678 396.152" stroke="#50281E" stroke-width="2.5" stroke-linecap="round" stroke-linejoin="round"/>
</g>
<path d="M78.1487 335.852C77.6687 340.012 77.1687 349.512 75.9487 355.642C70.2087 377.522 67.5987 402.772 69.4987 418.442C69.8187 421.052 71.8287 423.182 74.5087 423.792C82.9487 425.702 98.2587 426.842 110.539 424.832C112.709 424.482 115.059 422.932 115.599 420.912C119.419 406.622 114.849 397.152 103.679 396.152C105.899 372.822 108.469 355.642 108.469 337.822C98.8387 334.562 84.9087 333.902 78.1487 335.852Z" stroke="#50281E" stroke-width="2.5" stroke-linecap="round" stroke-linejoin="round"/>
<path d="M150.08 336.042C150.56 340.202 151.06 349.702 152.28 355.832C158.02 377.712 160.63 402.962 158.73 418.632C158.41 421.242 156.4 423.372 153.72 423.982C145.28 425.892 128.05 427.032 115.77 425.022C113.6 424.672 111.26 423.122 110.71 421.102C107.46 409.292 111.69 397.542 124.56 396.342C122.34 373.012 119.77 355.832 119.77 338.012C129.4 334.752 143.33 334.092 150.09 336.042H150.08Z" fill="#FF73A2"/>
<mask id="mask2_16767_4778" style="mask-type:luminance" maskUnits="userSpaceOnUse" x="109" y="334" width="51" height="93">
<path d="M150.08 336.042C150.56 340.202 151.06 349.702 152.28 355.832C158.02 377.712 160.63 402.962 158.73 418.632C158.41 421.242 156.4 423.372 153.72 423.982C145.28 425.892 128.05 427.032 115.77 425.022C113.6 424.672 111.26 423.122 110.71 421.102C107.46 409.292 111.69 397.542 124.56 396.342C122.34 373.012 119.77 355.832 119.77 338.012C129.4 334.752 143.33 334.092 150.09 336.042H150.08Z" fill="white"/>
</mask>
<g mask="url(#mask2_16767_4778)">
<path d="M160.739 378.052C153.359 378.212 126.219 379.802 116.949 382.352C114.689 385.192 103.019 425.262 106.469 432.142C109.899 438.992 155.009 447.652 163.419 426.072C171.839 404.492 169.319 395.182 160.739 378.052Z" fill="#FFEBF0" stroke="#50281E" stroke-width="2.5" stroke-linecap="round" stroke-linejoin="round"/>
<path d="M141.799 399.882C138.639 397.532 132.629 395.822 124.549 396.342L141.799 399.882Z" fill="#FFEBF0"/>
<path d="M141.799 399.882C138.639 397.532 132.629 395.822 124.549 396.342" stroke="#50281E" stroke-width="2.5" stroke-linecap="round" stroke-linejoin="round"/>
</g>
<path d="M150.08 336.042C150.56 340.202 151.06 349.702 152.28 355.832C158.02 377.712 160.63 402.962 158.73 418.632C158.41 421.242 156.4 423.372 153.72 423.982C145.28 425.892 128.05 427.032 115.77 425.022C113.6 424.672 111.26 423.122 110.71 421.102C107.46 409.292 111.69 397.542 124.56 396.342C122.34 373.012 119.77 355.832 119.77 338.012C129.4 334.752 143.33 334.092 150.09 336.042H150.08Z" stroke="#50281E" stroke-width="2.5" stroke-linecap="round" stroke-linejoin="round"/>
<path d="M188.139 418.092C175.879 427.462 159.53 430.442 154.98 431.512C147.58 433.252 135.969 430.792 134.319 424.152C132.179 415.562 137.969 408.472 148.049 405.862C154.609 404.162 166.029 403.012 172.999 397.902C186.479 395.932 193.219 409.202 188.139 418.092Z" fill="#FFEBF0" stroke="#50281E" stroke-width="2.5" stroke-linecap="round" stroke-linejoin="round"/>
<path d="M151.709 273.052C151.319 271.562 151.509 259.222 151.509 259.222C151.509 259.222 145.849 260.352 114.389 260.352C94.4086 260.352 84.6887 259.222 84.6887 259.222C84.6887 259.222 84.4786 269.052 84.4086 271.772C80.4786 288.702 90.9987 306.282 112.349 306.282C146.749 306.282 155.949 286.312 151.699 273.062L151.709 273.052Z" fill="#AAA0FF" stroke="#50281E" stroke-width="2.5" stroke-linecap="round" stroke-linejoin="round"/>
<path d="M89.8887 273.062C89.8887 273.062 111.529 278.142 144.409 274.842" stroke="#50281E" stroke-width="2.5" stroke-linecap="round" stroke-linejoin="round"/>
<path d="M84.2491 272.482C84.2491 272.482 77.1091 294.002 71.4091 312.122C70.5791 311.042 69.3891 307.282 68.7091 305.112C67.2491 306.402 63.9291 311.532 67.3291 318.492C67.3991 318.642 65.0691 321.552 66.6291 325.882C65.1091 330.872 64.3591 334.262 64.5091 336.082C65.3191 345.422 101.209 349.292 127.849 343.202L117.029 294.702" fill="#AAA0FF"/>
<path d="M84.2491 272.482C84.2491 272.482 77.1091 294.002 71.4091 312.122C70.5791 311.042 69.3891 307.282 68.7091 305.112C67.2491 306.402 63.9291 311.532 67.3291 318.492C67.3991 318.642 65.0691 321.552 66.6291 325.882C65.1091 330.872 64.3591 334.262 64.5091 336.082C65.3191 345.422 101.209 349.292 127.849 343.202L117.029 294.702" stroke="#50281E" stroke-width="2.5" stroke-linecap="round" stroke-linejoin="round"/>
<path d="M103.859 295.432L110.169 302.072L109.419 345.402C109.419 345.402 116.169 347.392 133.129 346.632C160.059 345.422 168.649 339.852 171.729 337.322C174.209 335.292 151.529 272.882 151.529 272.882" fill="#AAA0FF"/>
<path d="M103.859 295.432L110.169 302.072L109.419 345.402C109.419 345.402 116.169 347.392 133.129 346.632C160.059 345.422 168.649 339.852 171.729 337.322C174.209 335.292 151.529 272.882 151.529 272.882" stroke="#50281E" stroke-width="2.5" stroke-linecap="round" stroke-linejoin="round"/>
<path d="M148.039 307.112C146.949 319.872 142.459 328.212 136.869 334.522L148.039 307.112Z" fill="#AAA0FF"/>
<path d="M148.039 307.112C146.949 319.872 142.459 328.212 136.869 334.522" stroke="#50281E" stroke-width="2.5" stroke-linecap="round" stroke-linejoin="round"/>
<path d="M126 321.592C130.68 315.662 137.37 309.842 142.93 307.282L126 321.592Z" fill="#AAA0FF"/>
<path d="M126 321.592C130.68 315.662 137.37 309.842 142.93 307.282" stroke="#50281E" stroke-width="2.5" stroke-linecap="round" stroke-linejoin="round"/>
<path d="M120.51 312.242C125.08 309.962 136.39 307.492 138.78 307.282L120.51 312.242Z" fill="#AAA0FF"/>
<path d="M120.51 312.242C125.08 309.962 136.39 307.492 138.78 307.282" stroke="#50281E" stroke-width="2.5" stroke-linecap="round" stroke-linejoin="round"/>
<path d="M125.369 317.152C127.649 315.762 131.539 313.562 135.399 312.122L125.369 317.152Z" fill="#AAA0FF"/>
<path d="M125.369 317.152C127.649 315.762 131.539 313.562 135.399 312.122" stroke="#50281E" stroke-width="2.5" stroke-linecap="round" stroke-linejoin="round"/>
<path d="M149.539 331.492C150.629 326.272 151.349 320.982 151.209 316.842L149.539 331.492Z" fill="#AAA0FF"/>
<path d="M149.539 331.492C150.629 326.272 151.349 320.982 151.209 316.842" stroke="#50281E" stroke-width="2.5" stroke-linecap="round" stroke-linejoin="round"/>
<path d="M160.009 332.992C159.859 328.862 159.569 322.402 158.199 318.782L160.009 332.992Z" fill="#AAA0FF"/>
<path d="M160.009 332.992C159.859 328.862 159.569 322.402 158.199 318.782" stroke="#50281E" stroke-width="2.5" stroke-linecap="round" stroke-linejoin="round"/>
<path d="M76.4598 327.572C71.8398 325.452 68.7098 320.942 67.3398 318.492L76.4598 327.572Z" fill="#AAA0FF"/>
<path d="M76.4598 327.572C71.8398 325.452 68.7098 320.942 67.3398 318.492" stroke="#50281E" stroke-width="2.5" stroke-linecap="round" stroke-linejoin="round"/>
<path d="M83.5994 312.452C79.6694 312.122 75.6193 313.052 74.0293 313.892L83.5994 312.452Z" fill="#AAA0FF"/>
<path d="M83.5994 312.452C79.6694 312.122 75.6193 313.052 74.0293 313.892" stroke="#50281E" stroke-width="2.5" stroke-linecap="round" stroke-linejoin="round"/>
<path d="M72.7087 332.382C68.7887 329.912 67.8387 328.472 66.6387 325.892L72.7087 332.382Z" fill="#AAA0FF"/>
<path d="M72.7087 332.382C68.7887 329.912 67.8387 328.472 66.6387 325.892" stroke="#50281E" stroke-width="2.5" stroke-linecap="round" stroke-linejoin="round"/>
<path d="M83.4182 317.912C79.3782 317.912 74.5882 317.152 71.4082 312.122" stroke="#50281E" stroke-width="2.5" stroke-linecap="round" stroke-linejoin="round"/>
<path d="M127.739 186.332C138.119 187.302 143.409 192.922 148.579 198.322C165.269 215.762 159.009 256.502 154.949 263.292C152.669 267.112 129.119 267.982 113.779 267.442C101.369 267.002 83.4089 266.872 81.5689 261.182C79.6289 255.172 81.7588 232.452 87.5088 214.902" fill="white"/>
<path d="M127.739 186.332C138.119 187.302 143.409 192.922 148.579 198.322C165.269 215.762 159.009 256.502 154.949 263.292C152.669 267.112 129.119 267.982 113.779 267.442C101.369 267.002 83.4089 266.872 81.5689 261.182C79.6289 255.172 81.7588 232.452 87.5088 214.902" stroke="#512921" stroke-width="2.5" stroke-linecap="round" stroke-linejoin="round"/>
<path d="M127.749 222.242C127.669 234.362 117.289 245.612 104.659 245.442C92.1186 245.272 85.1086 233.912 88.3986 221.962C91.2286 211.692 100.929 204.382 110.469 204.402C120.049 204.422 127.819 211.842 127.749 222.242Z" fill="#AAA0FF"/>
<path d="M121.898 224.142C121.498 224.142 121.098 223.992 120.808 223.682C120.758 223.632 115.218 218.092 105.938 218.112C105.918 218.112 105.908 218.112 105.888 218.112C97.8182 218.142 93.2282 221.942 93.1782 221.982C92.6582 222.422 91.8082 222.372 91.2782 221.872C90.7482 221.372 90.7382 220.612 91.2482 220.162C91.4582 219.982 96.5482 215.722 105.668 215.682C105.688 215.682 105.708 215.682 105.728 215.682C116.348 215.662 122.518 221.892 122.778 222.162C123.288 222.682 123.258 223.452 122.708 223.862C122.478 224.042 122.188 224.122 121.898 224.132V224.142Z" fill="white"/>
<path d="M104.859 230.752L105.139 246.852C104.449 246.922 103.749 246.952 103.049 246.942C102.349 246.932 101.639 246.882 100.959 246.782L101.039 230.712C101.039 230.512 101.199 230.352 101.389 230.352L104.499 230.382C104.689 230.382 104.859 230.552 104.859 230.742V230.752Z" fill="white"/>
<path d="M109.148 228.012C108.808 231.332 105.798 234.102 102.448 234.072C99.108 234.042 96.908 231.222 97.498 227.912C98.088 224.602 101.018 222.292 104.108 222.312C107.208 222.332 109.468 224.832 109.138 228.012H109.148Z" fill="white"/>
<path d="M130.299 190.952C130.569 195.192 118.329 200.652 109.439 199.942C106.999 199.752 104.419 199.032 103.789 197.252C102.409 193.382 101.159 187.142 100.909 184.002C100.559 179.572 109.019 174.262 122.039 176.332C128.529 177.362 130.149 188.542 130.299 190.942V190.952Z" fill="#FF73A2" stroke="#50281E" stroke-width="2.5" stroke-linecap="round" stroke-linejoin="round"/>
<path d="M144.02 259.453C143.58 275.293 143.09 292.112 142.15 296.612C137.96 296.632 132.85 300.803 134.71 308.023C138.56 306.693 143.51 306.642 145.79 308.482C147.42 310.442 147.37 311.963 146.99 314.413C147.81 316.973 146.96 320.663 146 323.673C147.7 326.503 154.82 328.273 158.95 323.773C171.92 322.573 174.3 315.423 167.27 258.393C163.53 256.523 147.94 257.753 144.01 259.453H144.02Z" fill="#FF73A2"/>
<mask id="mask3_16767_4778" style="mask-type:luminance" maskUnits="userSpaceOnUse" x="134" y="257" width="38" height="70">
<path d="M144.02 259.453C143.58 275.293 143.09 292.112 142.15 296.612C137.96 296.632 132.85 300.803 134.71 308.023C138.56 306.693 143.51 306.642 145.79 308.482C147.42 310.442 147.37 311.963 146.99 314.413C147.81 316.973 146.96 320.663 146 323.673C147.7 326.503 154.82 328.273 158.95 323.773C171.92 322.573 174.3 315.423 167.27 258.393C163.53 256.523 147.94 257.753 144.01 259.453H144.02Z" fill="white"/>
</mask>
<g mask="url(#mask3_16767_4778)">
<path d="M137.569 286.653C149.539 291.463 168.409 290.213 178.639 285.433C179.009 296.703 187.209 337.293 150.099 333.073C112.989 328.853 125.059 296.463 137.569 286.653Z" fill="#FFEBF0" stroke="#50281E" stroke-width="2.5" stroke-linecap="round" stroke-linejoin="round"/>
</g>
<path d="M144.02 259.453C143.58 275.293 143.09 292.112 142.15 296.612C137.96 296.632 132.85 300.803 134.71 308.023C138.56 306.693 143.51 306.642 145.79 308.482C147.42 310.442 147.37 311.963 146.99 314.413C147.81 316.973 146.96 320.663 146 323.673C147.7 326.503 154.82 328.273 158.95 323.773C171.92 322.573 174.3 315.423 167.27 258.393C163.53 256.523 147.94 257.753 144.01 259.453H144.02Z" stroke="#50281E" stroke-width="2.5" stroke-linecap="round" stroke-linejoin="round"/>
<path d="M131.45 225.132C130.82 238.812 131.03 258.182 133.05 266.772C133.29 267.792 134.18 268.522 135.23 268.582C149.53 270.082 164.69 268.122 172.6 263.272C173.62 262.652 174.18 261.502 174.04 260.312C172.8 249.812 163.12 214.002 154.22 201.992C149.32 195.382 141.62 191.342 138 189.452" fill="white"/>
<path d="M131.45 225.132C130.82 238.812 131.03 258.182 133.05 266.772C133.29 267.792 134.18 268.522 135.23 268.582C149.53 270.082 164.69 268.122 172.6 263.272C173.62 262.652 174.18 261.502 174.04 260.312C172.8 249.812 163.12 214.002 154.22 201.992C149.32 195.382 141.62 191.342 138 189.452" stroke="#512921" stroke-width="2.5" stroke-linecap="round" stroke-linejoin="round"/>
<path d="M160.84 26.9722C204.6 43.6822 222.22 48.6622 255.05 55.5222C266.05 57.5822 280.69 59.4322 280.69 70.1522C280.69 81.7222 258.87 104.902 225.49 114.682C182.42 83.6822 163.51 53.3822 160.85 26.9722H160.84Z" fill="#FF73A2" stroke="#502823" stroke-width="2.5" stroke-linecap="round" stroke-linejoin="round"/>
<path d="M197.03 63.3022C223.53 72.4422 239 73.2823 263.53 72.5823C252.6 85.9623 244.079 94.7723 214.5 103.142C200.359 86.8323 196.38 65.6922 197.03 63.2922V63.3022Z" fill="#FDEDF1" stroke="#502823" stroke-width="2.5" stroke-linecap="round" stroke-linejoin="round"/>
<path d="M269.95 73.4021C268.78 72.6121 267.56 72.2021 263.52 72.5821L269.95 73.4021Z" fill="#FDEDF1"/>
<path d="M269.95 73.4021C268.78 72.6121 267.56 72.2021 263.52 72.5821" stroke="#502823" stroke-width="2.5" stroke-linecap="round" stroke-linejoin="round"/>
<path d="M126.04 13.0421C128.58 51.0421 141.3 82.9822 144.3 93.0322C144.81 94.4722 145.29 95.9322 145.69 97.4022C145.71 97.4822 145.73 97.5322 145.73 97.5322C150.93 116.632 146.82 137.872 132.87 153.892C110.63 179.432 71.8501 182.072 46.2301 159.802C26.6901 142.812 20.4801 116.252 28.4901 93.2621C41.5701 50.1121 123.26 -28.6179 126.05 13.0521L126.04 13.0421Z" fill="#FF73A2" stroke="#502823" stroke-width="2.5" stroke-linecap="round" stroke-linejoin="round"/>
<path d="M126.368 21.6421C69.4184 20.3921 35.5283 51.1921 22.2683 107.532C20.4183 115.402 19.7483 120.422 15.1483 123.172C13.7883 123.982 13.0984 125.652 13.5384 127.242C24.4284 166.282 69.4983 193.232 126.128 191.732C179.158 190.322 228.288 168.612 240.008 127.012C240.458 125.432 239.768 123.752 238.408 122.942C233.808 120.182 232.058 116.712 230.218 108.842C217.118 52.4721 177.738 21.6721 126.358 21.6321L126.368 21.6421Z" fill="#FF73A2"/>
<mask id="mask4_16767_4778" style="mask-type:luminance" maskUnits="userSpaceOnUse" x="13" y="21" width="228" height="171">
<path d="M126.368 21.6421C69.4184 20.3921 35.5283 51.1921 22.2683 107.532C20.4183 115.402 19.7483 120.422 15.1483 123.172C13.7883 123.982 13.0984 125.652 13.5384 127.242C24.4284 166.282 69.4983 193.232 126.128 191.732C179.158 190.322 228.288 168.612 240.008 127.012C240.458 125.432 239.768 123.752 238.408 122.942C233.808 120.182 232.058 116.712 230.218 108.842C217.118 52.4721 177.738 21.6721 126.358 21.6321L126.368 21.6421Z" fill="white"/>
</mask>
<g mask="url(#mask4_16767_4778)">
<path d="M158.288 161.882C157.048 160.592 175.658 161.342 191.438 133.372C199.048 119.882 199.628 106.382 197.418 97.4822C193.178 88.6722 174.468 67.4621 123.688 59.9721C123.018 59.8721 122.388 59.4022 122.188 58.7322C120.408 52.6522 120.218 47.9622 120.788 42.2422C121.108 39.1122 118.128 38.7222 115.328 40.0022C108.498 43.1122 101.228 49.0422 96.7682 58.2822C96.3482 59.1522 95.5083 59.7422 94.5783 59.8522C53.1083 64.6522 36.2282 87.8422 34.7682 91.0422C33.0282 95.7622 30.4882 116.982 37.0182 132.782C44.6382 151.222 60.0183 158.772 59.8583 159.132C49.6583 186.472 80.8982 193.252 105.148 195.152C129.658 197.072 170.598 206.552 158.278 161.872L158.288 161.882Z" fill="#FDEDF1" stroke="#502823" stroke-width="2.5" stroke-linecap="round" stroke-linejoin="round"/>
</g>
<path d="M230.579 109.512C232.619 116.642 233.959 119.202 238.409 122.952C239.769 123.762 240.459 125.432 240.009 127.022C228.289 168.622 177.299 191.742 122.279 191.742C64.5193 191.742 24.4294 166.312 13.5394 127.252C13.0994 125.672 13.7793 123.992 15.1493 123.182C22.6393 117.302 22.8894 99.542 30.1894 83.472C47.9394 42.802 74.4894 20.6721 126.369 21.6521C139.699 21.6621 152.209 23.652 163.639 27.552C169.439 29.532 174.969 31.992 180.169 34.942" stroke="#502823" stroke-width="2.5" stroke-linecap="round" stroke-linejoin="round"/>
<path d="M228.02 100.722C225.51 90.652 218.76 77.9621 212.9 68.1421C207.25 66.7721 203.11 65.3421 198.26 63.6021" stroke="#502823" stroke-width="2.5" stroke-linecap="round" stroke-linejoin="round"/>
<path d="M67.7383 116.162C68.1783 113.842 79.5882 99.8622 85.6782 96.2222" stroke="#FF7873" stroke-width="12" stroke-linecap="round" stroke-linejoin="round"/>
<path d="M72.4082 119.892C76.6982 112.482 90.5983 96.5722 95.4683 93.4722" stroke="#FF7873" stroke-width="12" stroke-linecap="round" stroke-linejoin="round"/>
<path d="M80.1191 122.362C85.1391 113.572 97.649 97.2822 107.019 90.5222" stroke="#FF7873" stroke-width="12" stroke-linecap="round" stroke-linejoin="round"/>
<path d="M94.6992 112.652C101.219 103.422 106.239 98.2722 116.069 90.5122" stroke="#FF7873" stroke-width="12" stroke-linecap="round" stroke-linejoin="round"/>
<path d="M101.049 117.642C107.569 108.412 112.589 103.262 122.419 95.5022" stroke="#FF7873" stroke-width="12" stroke-linecap="round" stroke-linejoin="round"/>
<path d="M111.449 115.152C117.969 105.922 124.509 100.732 135.819 93.4822" stroke="#FF7873" stroke-width="12" stroke-linecap="round" stroke-linejoin="round"/>
<path d="M121.078 117.642C127.988 108.622 130.798 105.922 141.038 98.2722" stroke="#FF7873" stroke-width="12" stroke-linecap="round" stroke-linejoin="round"/>
<path d="M126.857 122.632C133.377 113.402 135.837 110.622 146.817 103.262" stroke="#FF7873" stroke-width="12" stroke-linecap="round" stroke-linejoin="round"/>
<path d="M138.408 117.642C144.928 108.412 147.348 106.192 155.318 100.352" stroke="#FF7873" stroke-width="12" stroke-linecap="round" stroke-linejoin="round"/>
<path d="M93.5098 102.102C93.5098 100.612 94.8399 99.5123 99.9799 99.5323C105.12 99.5423 106.44 100.822 106.44 102.142C106.44 103.462 102.95 106.162 99.9599 106.152C96.9799 106.152 93.4998 103.602 93.5098 102.112V102.102Z" fill="#FF73A2" stroke="#502823" stroke-width="2.5" stroke-linecap="round" stroke-linejoin="round"/>
<path d="M93.0391 124.102C95.6491 120.312 98.5491 116.032 99.7191 113.082C101.569 116.662 102.819 119.322 106.769 124.052" fill="#FDEDF1"/>
<path d="M93.0391 124.102C95.6491 120.312 98.5491 116.032 99.7191 113.082C101.569 116.662 102.819 119.322 106.769 124.052" stroke="#502823" stroke-width="2.5" stroke-linecap="round" stroke-linejoin="round"/>
<path d="M103.579 139.692C101.739 145.832 105.359 146.772 106.689 150.412L103.579 139.692Z" fill="#FDEDF1"/>
<path d="M103.579 139.692C101.739 145.832 105.359 146.772 106.689 150.412" stroke="#502823" stroke-width="2.5" stroke-linecap="round" stroke-linejoin="round"/>
<path d="M94.3994 138.922C91.7394 143.972 93.0694 144.572 92.8194 149.872L94.3994 138.922Z" fill="#FDEDF1"/>
<path d="M94.3994 138.922C91.7394 143.972 93.0694 144.572 92.8194 149.872" stroke="#502823" stroke-width="2.5" stroke-linecap="round" stroke-linejoin="round"/>
<path d="M172.699 100.162C170.569 102.962 166.329 103.482 162.619 102.642" stroke="#502823" stroke-width="2.5" stroke-linecap="round" stroke-linejoin="round"/>
<path d="M122.92 101.192C123.07 92.022 134.22 85.122 148.07 93.982C171.49 92.342 167.91 118.942 155.74 122.392C146.21 118.872 137.84 116.192 125.91 117.562C120.14 114.522 116.83 106.472 122.92 101.182V101.192Z" fill="white" stroke="#502823" stroke-width="2.5" stroke-linecap="round" stroke-linejoin="round"/>
<path d="M121.1 118.572C129.62 115.622 150.36 117.972 159.5 124.002" stroke="#502823" stroke-width="2.5" stroke-linecap="round" stroke-linejoin="round"/>
<path d="M128.879 113.902C122.949 109.732 126.069 104.842 128.419 102.842C128.569 101.442 129.219 96.3421 134.829 95.1021C139.279 94.1221 144.469 95.6421 146.509 97.6721C148.669 97.5421 151.459 96.8421 155.449 99.1221C160.099 101.762 158.379 106.802 158.169 107.942C159.879 114.212 154.879 117.982 150.419 117.582C148.989 118.192 146.459 118.462 142.869 118.402C136.859 118.302 130.779 117.582 128.889 113.902H128.879Z" fill="#4F2A1A"/>
<path d="M134.6 99.0421C136.85 97.3421 140.78 97.6921 141.75 100.302C142.83 103.222 139.41 103.522 138.7 103.412C137.42 105.572 133.53 105.182 132.96 103.292C132.5 101.762 133.23 99.9321 134.59 99.0321L134.6 99.0421Z" fill="white"/>
<path d="M146.309 106.702C145.229 103.662 148.389 102.252 150.519 104.412C152.649 106.572 152.469 108.922 151.139 109.882C150.329 110.462 148.159 110.222 147.429 108.922C148.479 111.742 147.21 115.462 144.72 115.452C142.52 115.452 141.02 112.992 140.58 111.042C139.88 107.922 142.179 104.042 146.309 106.702Z" fill="white"/>
<path d="M145.938 115.922C146.818 113.432 150.068 112.472 152.298 113.292C154.758 114.192 155.928 115.672 157.598 116.082C160.118 116.692 161.018 115.442 164.078 116.302C166.878 117.092 168.848 119.812 167.628 122.622C166.418 125.412 163.048 126.322 156.888 123.712C153.908 122.422 151.558 122.322 148.948 121.302C146.038 120.152 145.288 117.762 145.938 115.932V115.922Z" fill="white" stroke="#512920" stroke-width="2.5" stroke-linecap="round" stroke-linejoin="round"/>
<path d="M118.489 79.8621C118.049 84.9621 125.469 93.4721 142.479 89.8521L118.489 79.8621Z" fill="#FDEDF1"/>
<path d="M118.489 79.8621C118.049 84.9621 125.469 93.4721 142.479 89.8521" stroke="#502823" stroke-width="2.5" stroke-linecap="round" stroke-linejoin="round"/>
<path d="M46.8187 99.1622C44.6887 101.962 39.5687 101.582 37.4688 98.0723" stroke="#502823" stroke-width="2.5" stroke-linecap="round" stroke-linejoin="round"/>
<path d="M83.7181 100.722C83.0681 88.0722 69.8282 86.0822 60.1182 92.6022C37.0582 92.6022 40.6381 117.162 51.9081 121.022C60.9581 117.822 69.4181 115.452 80.0181 117.202C85.5281 114.352 88.6081 106.732 83.7181 100.722Z" fill="white" stroke="#502823" stroke-width="2.5" stroke-linecap="round" stroke-linejoin="round"/>
<path d="M84.4978 118.362C76.6278 115.122 57.1179 116.782 48.3379 122.502" stroke="#502823" stroke-width="2.5" stroke-linecap="round" stroke-linejoin="round"/>
<path d="M77.3688 113.432C83.0688 109.462 80.7187 103.922 78.5887 101.842C77.8387 101.162 77.8487 96.0323 72.4687 94.4423C68.3587 93.2223 63.4187 94.6523 61.4387 96.6223C59.4187 96.4223 56.8386 95.6323 53.0086 97.7723C48.5586 100.262 49.9887 105.352 50.1487 106.492C48.3187 112.702 52.8687 116.632 57.0587 116.392C58.3787 117.052 60.7387 117.402 64.0987 117.462C69.7387 117.562 75.4487 117.052 77.3587 113.442L77.3688 113.432Z" fill="#4F2A1A"/>
<path d="M72.5481 98.3923C70.4981 96.6123 66.8081 96.8323 65.7981 99.4123C64.6781 102.292 67.8781 102.702 68.5481 102.622C69.6681 104.822 73.3281 104.562 73.9281 102.692C74.4081 101.182 73.7981 99.3223 72.5481 98.3823V98.3923Z" fill="white"/>
<path d="M61.3086 105.652C62.4286 102.652 59.5186 101.132 57.4486 103.222C55.3786 105.312 55.4586 107.672 56.6686 108.672C57.4086 109.282 59.4486 109.112 60.1786 107.842C59.0886 110.622 60.1487 114.382 62.4887 114.452C64.5487 114.522 66.0386 112.112 66.5186 110.182C67.2886 107.082 65.2686 103.132 61.3086 105.652Z" fill="white"/>
<path d="M61.3281 114.882C60.5981 112.362 57.5782 111.292 55.4682 112.032C53.1382 112.852 51.9781 114.292 50.3981 114.642C48.0081 115.172 47.2181 113.892 44.3181 114.642C41.6681 115.332 39.7281 117.992 40.7681 120.842C41.7981 123.662 44.9281 124.692 50.7881 122.292C53.6181 121.102 55.8281 121.082 58.3081 120.142C61.0781 119.092 61.8581 116.732 61.3181 114.872L61.3281 114.882Z" fill="white" stroke="#512920" stroke-width="2.5" stroke-linecap="round" stroke-linejoin="round"/>
<path d="M89.9093 79.4722C86.1693 89.8722 73.2193 91.1822 65.5293 88.0722L89.9093 79.4722Z" fill="#FDEDF1"/>
<path d="M89.9093 79.4722C86.1693 89.8722 73.2193 91.1822 65.5293 88.0722" stroke="#502823" stroke-width="2.5" stroke-linecap="round" stroke-linejoin="round"/>
<path d="M184.501 297.832C185.271 301.362 185.811 304.682 184.401 309.762C183.441 313.202 186.031 317.912 178.961 320.442" stroke="#502823" stroke-width="2.5" stroke-linecap="round" stroke-linejoin="round"/>
<path d="M181.961 280.212C183.661 286.182 180.751 284.892 183.171 291.192" stroke="#502823" stroke-width="2.5" stroke-linecap="round" stroke-linejoin="round"/>
<path d="M57.0494 251.702C55.8994 259.222 53.8394 254.332 54.3194 263.092C54.7094 270.122 50.8794 268.762 51.9694 276.952" stroke="#502823" stroke-width="2.5" stroke-linecap="round" stroke-linejoin="round"/>
<path d="M59.5092 238.992C58.1992 241.132 57.6992 243.302 57.6992 245.442" stroke="#502823" stroke-width="2.5" stroke-linecap="round" stroke-linejoin="round"/>
<path d="M9.91987 106.722C9.20987 109.372 8.13993 110.712 6.47993 111.802C3.84993 113.522 1.94994 113.982 1.36994 117.302C0.779945 120.672 2.58994 123.062 1.98994 127.252" stroke="#502823" stroke-width="2.5" stroke-linecap="round" stroke-linejoin="round"/>
<path d="M3.75977 138.922C4.40977 141.432 7.67983 143.232 9.19983 145.052" stroke="#502823" stroke-width="2.5" stroke-linecap="round" stroke-linejoin="round"/>
<path d="M281.2 88.0322C277.5 92.0222 278.59 98.1922 271.74 100.482C261.49 103.912 264.35 111.732 255.02 112.932" fill="white"/>
<path d="M281.2 88.0322C277.5 92.0222 278.59 98.1922 271.74 100.482C261.49 103.912 264.35 111.732 255.02 112.932" stroke="#502823" stroke-width="2.5" stroke-linecap="round" stroke-linejoin="round"/>
</svg>
