<svg width="269" height="459" viewBox="0 0 269 459" fill="none" xmlns="http://www.w3.org/2000/svg">
<path d="M258.361 389.953C266.951 357.363 242.411 316.173 195.171 318.083C196.481 324.503 195.101 333.283 195.071 340.563C213.011 341.163 241.501 355.363 233.141 381.273C219.881 417.613 196.881 333.073 148.541 330.723C114.981 329.093 87.3515 352.903 101.761 389.673C106.501 400.003 118.891 404.423 125.971 397.973C132.601 391.933 129.111 381.473 124.981 377.793C123.891 372.803 124.981 353.363 143.881 355.413C169.951 358.233 188.152 413.773 220.552 415.733C242.652 417.073 254.411 404.413 258.371 389.953H258.361Z" fill="#FF73A2"/>
<mask id="mask0_16767_4559" style="mask-type:luminance" maskUnits="userSpaceOnUse" x="97" y="318" width="164" height="98">
<path d="M258.361 389.953C266.951 357.363 242.411 316.173 195.171 318.083C196.481 324.503 195.101 333.283 195.071 340.563C213.011 341.163 241.501 355.363 233.141 381.273C219.881 417.613 196.881 333.073 148.541 330.723C114.981 329.093 87.3515 352.903 101.761 389.673C106.501 400.003 118.891 404.423 125.971 397.973C132.601 391.933 129.111 381.473 124.981 377.793C123.891 372.803 124.981 353.363 143.881 355.413C169.951 358.233 188.152 413.773 220.552 415.733C242.652 417.073 254.411 404.413 258.371 389.953H258.361Z" fill="white"/>
</mask>
<g mask="url(#mask0_16767_4559)">
<path d="M134.661 359.323C142.991 366.173 173.62 412.703 130.32 412.603C54.3505 406.543 87.1006 353.443 110.191 336.733C106.711 353.263 117.481 364.553 134.661 359.333V359.323Z" fill="#FDEDF1" stroke="#502823" stroke-width="2.5" stroke-linecap="round" stroke-linejoin="round"/>
</g>
<path d="M258.361 389.953C266.951 357.363 242.411 316.173 195.171 318.083C196.481 324.503 195.101 333.283 195.071 340.563C213.011 341.163 241.501 355.363 233.141 381.273C219.881 417.613 196.881 333.073 148.541 330.723C114.981 329.093 87.3515 352.903 101.761 389.673C106.501 400.003 118.891 404.423 125.971 397.973C132.601 391.933 129.111 381.473 124.981 377.793C123.891 372.803 124.981 353.363 143.881 355.413C169.951 358.233 188.152 413.773 220.552 415.733C242.652 417.073 254.411 404.413 258.371 389.953H258.361Z" stroke="#50281E" stroke-width="2.5" stroke-linecap="round" stroke-linejoin="round"/>
<path d="M166.411 301.833C172.991 300.423 213.831 304.423 230.061 312.173C230.111 316.063 229.751 319.223 229.751 320.633C233.151 335.383 237.271 355.393 241.381 386.683C241.681 388.993 240.461 391.253 238.341 392.213C227.071 397.353 198.341 397.863 180.611 389.313C163.881 391.143 143.821 388.983 134.241 380.813C133.161 379.893 132.731 378.403 133.141 377.033C137.721 361.613 151.371 332.873 166.721 314.593C167.481 310.593 165.941 305.223 166.421 301.813L166.411 301.833Z" fill="#AAA0FF" stroke="#50281E" stroke-width="2.5" stroke-linecap="round" stroke-linejoin="round"/>
<path d="M164.512 311.333C173.952 309.203 216.192 312.173 229.842 318.583L164.512 311.333Z" fill="#AAA0FF"/>
<path d="M164.512 311.333C173.952 309.203 216.192 312.173 229.842 318.583" stroke="#50281E" stroke-width="2.5" stroke-linecap="round" stroke-linejoin="round"/>
<path d="M180.612 389.333C180.682 380.933 184.702 352.873 186.112 346.623C183.582 344.623 180.472 341.203 178.592 336.733" stroke="#502823" stroke-width="2.5" stroke-linecap="round" stroke-linejoin="round"/>
<path d="M184.271 387.063C185.901 385.213 188.152 383.903 192.042 382.813L184.271 387.063Z" fill="#AAA0FF"/>
<path d="M184.271 387.063C185.901 385.213 188.152 383.903 192.042 382.813" stroke="#50281E" stroke-width="2.5" stroke-linecap="round" stroke-linejoin="round"/>
<path d="M235.641 388.633C233.391 387.403 227.221 385.583 222.961 384.433L235.641 388.633Z" fill="#AAA0FF"/>
<path d="M235.641 388.633C233.391 387.403 227.221 385.583 222.961 384.433" stroke="#50281E" stroke-width="2.5" stroke-linecap="round" stroke-linejoin="round"/>
<path d="M137.531 377.803C142.131 376.083 147.461 375.093 156.161 375.093L137.531 377.803Z" fill="#AAA0FF"/>
<path d="M137.531 377.803C142.131 376.083 147.461 375.093 156.161 375.093" stroke="#50281E" stroke-width="2.5" stroke-linecap="round" stroke-linejoin="round"/>
<path d="M179.362 387.543C178.592 385.573 177.912 383.983 175.652 381.893L179.362 387.543Z" fill="#AAA0FF"/>
<path d="M179.362 387.543C178.592 385.573 177.912 383.983 175.652 381.893" stroke="#50281E" stroke-width="2.5" stroke-linecap="round" stroke-linejoin="round"/>
<path d="M140.211 315.233C142.351 313.733 145.531 312.523 147.561 311.853L140.211 315.233Z" fill="#FDEDF1"/>
<path d="M140.211 315.233C142.351 313.733 145.531 312.523 147.561 311.853" stroke="#502823" stroke-width="2.5" stroke-linecap="round" stroke-linejoin="round"/>
<path d="M217.602 307.363C219.862 308.103 221.162 308.523 222.162 308.983L217.602 307.363Z" fill="#FDEDF1"/>
<path d="M217.602 307.363C219.862 308.103 221.162 308.523 222.162 308.983" stroke="#502823" stroke-width="2.5" stroke-linecap="round" stroke-linejoin="round"/>
<path d="M189.591 239.303C189.551 245.673 182.531 251.703 172.761 252.633C164.331 253.433 158.881 249.343 159.261 243.663C159.641 237.983 164.581 232.453 172.961 231.243C181.341 230.043 189.631 233.603 189.591 239.303Z" fill="#FF73A2" stroke="#50281E" stroke-width="2.5" stroke-linecap="round" stroke-linejoin="round"/>
<path d="M173.581 292.993C183.45 292.993 191.451 284.992 191.451 275.123C191.451 265.254 183.45 257.253 173.581 257.253C163.711 257.253 155.711 265.254 155.711 275.123C155.711 284.992 163.711 292.993 173.581 292.993Z" fill="#AAA0FF"/>
<path d="M187.72 274.053C187.46 274.073 187.2 273.993 186.98 273.823C186.94 273.793 182.38 270.263 173.27 270.953C165.09 271.573 160.08 275.723 160.03 275.763C159.58 276.143 158.92 276.083 158.54 275.643C158.16 275.203 158.22 274.533 158.66 274.153C158.88 273.963 164.21 269.513 173.11 268.843C183.11 268.083 188.1 272.003 188.31 272.173C188.76 272.543 188.83 273.203 188.47 273.653C188.28 273.893 188.01 274.023 187.73 274.043L187.72 274.053Z" fill="white"/>
<path d="M175.751 282.063L176.561 292.743C176.031 292.833 175.481 292.903 174.931 292.943C174.381 292.983 173.831 293.003 173.291 292.993L172.481 282.313C172.471 282.173 172.601 282.043 172.761 282.033L175.431 281.833C175.591 281.823 175.741 281.923 175.751 282.073V282.063Z" fill="white"/>
<path d="M174.25 284.073C177.07 283.859 179.19 281.503 178.986 278.81C178.782 276.117 176.331 274.107 173.512 274.321C170.692 274.534 168.572 276.89 168.775 279.583C168.979 282.276 171.43 284.286 174.25 284.073Z" fill="white"/>
<path d="M173.612 231.573C157.042 234.403 146.212 246.583 142.552 253.043C137.582 261.833 130.922 286.123 132.612 311.513C132.952 315.773 153.802 323.873 191.842 317.563C227.672 311.613 244.022 300.993 246.192 295.903C244.782 280.133 227.232 249.053 219.032 241.153C210.832 233.253 194.522 226.813 173.602 231.573H173.612Z" fill="white" stroke="#502823" stroke-width="2.5" stroke-linecap="round" stroke-linejoin="round"/>
<path d="M177.622 292.613C187.491 292.613 195.492 284.612 195.492 274.743C195.492 264.873 187.491 256.873 177.622 256.873C167.752 256.873 159.752 264.873 159.752 274.743C159.752 284.612 167.752 292.613 177.622 292.613Z" fill="#AAA0FF"/>
<path d="M191.541 272.033C191.291 272.083 191.011 272.033 190.781 271.893C190.741 271.863 185.791 268.903 176.831 270.643C168.781 272.213 164.291 276.923 164.241 276.973C163.841 277.393 163.171 277.423 162.751 277.023C162.321 276.623 162.301 275.963 162.701 275.533C162.901 275.323 167.671 270.283 176.431 268.573C186.281 266.653 191.691 269.963 191.911 270.103C192.401 270.413 192.551 271.063 192.241 271.563C192.081 271.823 191.821 271.983 191.551 272.033H191.541Z" fill="white"/>
<path d="M180.592 281.393L182.642 291.903C182.122 292.053 181.592 292.183 181.052 292.293C180.512 292.403 179.972 292.483 179.432 292.533L177.382 282.023C177.352 281.883 177.462 281.743 177.632 281.703L180.252 281.193C180.412 281.163 180.572 281.253 180.602 281.393H180.592Z" fill="white"/>
<path d="M179.37 283.308C182.145 282.766 183.976 280.178 183.458 277.528C182.94 274.877 180.271 273.168 177.496 273.71C174.72 274.252 172.89 276.84 173.408 279.49C173.926 282.141 176.595 283.85 179.37 283.308Z" fill="white"/>
<path d="M202.362 251.273C200.732 263.513 200.672 278.083 203.502 300.923L202.362 251.273Z" fill="#FDEDF1"/>
<path d="M202.362 251.273C200.732 263.513 200.672 278.083 203.502 300.923" stroke="#502823" stroke-width="2.5" stroke-linecap="round" stroke-linejoin="round"/>
<path d="M152.812 260.733C155.112 273.563 158.142 286.023 161.762 301.353L152.812 260.733Z" fill="#FDEDF1"/>
<path d="M152.812 260.733C155.112 273.563 158.142 286.023 161.762 301.353" stroke="#502823" stroke-width="2.5" stroke-linecap="round" stroke-linejoin="round"/>
<path d="M139.262 307.133C142.742 303.013 156.032 291.643 182.622 292.183C209.212 292.723 215.252 300.113 213.132 308.433C211.012 316.753 179.362 326.553 152.572 326.153C138.542 324.463 138.112 310.563 139.262 307.133Z" fill="#FF73A2"/>
<mask id="mask1_16767_4559" style="mask-type:luminance" maskUnits="userSpaceOnUse" x="138" y="292" width="76" height="35">
<path d="M139.262 307.133C142.742 303.013 156.032 291.643 182.622 292.183C209.212 292.723 215.252 300.113 213.132 308.433C211.012 316.753 179.362 326.553 152.572 326.153C138.542 324.463 138.112 310.563 139.262 307.133Z" fill="white"/>
</mask>
<g mask="url(#mask1_16767_4559)">
<path d="M185.221 287.203C177.401 292.233 175.081 316.103 186.571 324.333C213.941 319.733 224.601 313.093 223.511 300.313C222.421 287.543 194.771 287.083 185.211 287.203H185.221Z" fill="#FDEDF1" stroke="#502823" stroke-width="2.5" stroke-linecap="round" stroke-linejoin="round"/>
</g>
<path d="M139.262 307.133C142.742 303.013 156.032 291.643 182.622 292.183C209.212 292.723 215.252 300.113 213.132 308.433C211.012 316.753 179.362 326.553 152.572 326.153C138.542 324.463 138.112 310.563 139.262 307.133Z" stroke="#502823" stroke-width="2.5" stroke-linecap="round" stroke-linejoin="round"/>
<path d="M239.902 294.123C243.152 312.363 237.661 332.843 177.071 330.983C172.741 336.423 158.082 329.893 159.802 315.763C161.622 303.033 175.622 297.523 207.312 296.743C207.672 295.273 208.121 293.623 208.321 292.963C216.491 290.073 229.832 290.093 239.902 294.133V294.123Z" fill="#FF73A2"/>
<mask id="mask2_16767_4559" style="mask-type:luminance" maskUnits="userSpaceOnUse" x="159" y="290" width="82" height="43">
<path d="M239.902 294.123C243.152 312.363 237.661 332.843 177.071 330.983C172.741 336.423 158.082 329.893 159.802 315.763C161.622 303.033 175.622 297.523 207.312 296.743C207.672 295.273 208.121 293.623 208.321 292.963C216.491 290.073 229.832 290.093 239.902 294.133V294.123Z" fill="white"/>
</mask>
<g mask="url(#mask2_16767_4559)">
<path d="M191.982 294.923C184.372 301.903 187.632 325.613 198.942 335.623C189.282 341.063 160.872 347.803 154.352 338.233C147.832 328.663 145.412 296.233 191.982 294.923Z" fill="#FDEDF1" stroke="#502823" stroke-width="2.5" stroke-linecap="round" stroke-linejoin="round"/>
</g>
<path d="M239.902 294.123C243.152 312.363 237.661 332.843 177.071 330.983C172.741 336.423 158.082 329.893 159.802 315.763C161.622 303.033 175.622 297.523 207.312 296.743C207.672 295.273 208.121 293.623 208.321 292.963C216.491 290.073 229.832 290.093 239.902 294.133V294.123Z" stroke="#502823" stroke-width="2.5" stroke-linecap="round" stroke-linejoin="round"/>
<path d="M211.662 296.983C210.822 296.823 208.283 296.703 207.312 296.733L211.662 296.983Z" fill="#FDEDF1"/>
<path d="M211.662 296.983C210.822 296.823 208.283 296.703 207.312 296.733" stroke="#502823" stroke-width="2.5" stroke-linecap="round" stroke-linejoin="round"/>
<path d="M155.871 240.833C159.101 248.993 164.671 252.583 171.771 251.273C178.871 249.963 183.301 241.643 184.021 233.323C171.361 229.403 159.941 236.263 155.871 240.823V240.833Z" fill="#FF73A2" stroke="#502823" stroke-width="2.5" stroke-linecap="round" stroke-linejoin="round"/>
<path d="M177.381 10.0029C163.391 45.4529 143.392 72.6229 137.472 81.2829C136.542 82.5029 135.652 83.7429 134.812 85.0229C134.772 85.0929 134.732 85.1329 134.732 85.1329H134.742C123.972 101.753 121.421 122.483 129.821 141.993C143.211 173.093 179.332 187.413 210.502 173.963C234.272 163.703 248.281 141.043 247.651 116.703C248.341 71.5929 192.721 -28.8671 177.371 10.0129L177.381 10.0029Z" fill="#FF73A2" stroke="#502823" stroke-width="2.5" stroke-linecap="round" stroke-linejoin="round"/>
<path d="M192.932 23.6929C192.932 23.6929 182.242 81.3028 179.162 88.2328C191.012 92.2729 225.482 96.4828 229.562 100.033C231.662 91.2128 210.652 31.5929 192.922 23.7029L192.932 23.6929Z" fill="#FDEDF1"/>
<path d="M191.212 13.9529C192.732 56.7529 172.672 100.183 172.672 100.183" stroke="#502823" stroke-width="2.5" stroke-linecap="round" stroke-linejoin="round"/>
<path d="M192.48 22.9929C199.36 23.4929 229.65 68.8029 229.84 106.023" stroke="#502823" stroke-width="2.5" stroke-linecap="round" stroke-linejoin="round"/>
<path d="M14.8121 93.683C52.6921 97.643 86.002 92.443 96.422 91.193C97.932 90.933 99.442 90.713 100.962 90.563C101.042 90.563 101.092 90.543 101.092 90.543C120.802 88.673 141.032 97.113 154.452 113.583C175.832 139.843 171.842 177.743 145.532 199.193C125.472 215.553 98.232 217.153 76.942 205.353C36.642 185.133 -26.7181 89.333 14.8219 93.673L14.8121 93.683Z" fill="#FF73A2" stroke="#502823" stroke-width="2.5" stroke-linecap="round" stroke-linejoin="round"/>
<path d="M19.7617 113.803C19.7617 113.803 63.0516 139.693 70.6216 140.163C68.7316 152.543 69.2417 176.323 70.5017 181.593C61.7117 179.383 20.7317 135.963 19.7617 113.803Z" fill="#FDEDF1"/>
<path d="M11.9219 107.783C47.1819 134.183 92.262 149.593 92.262 149.593" stroke="#502823" stroke-width="2.5" stroke-linecap="round" stroke-linejoin="round"/>
<path d="M19.3423 113.083C16.6123 119.423 42.7824 167.233 75.6824 184.603" stroke="#502823" stroke-width="2.5" stroke-linecap="round" stroke-linejoin="round"/>
<path d="M124.483 76.2629C63.1025 99.4029 48.4125 134.043 54.4225 191.613C55.2625 199.653 55.5324 204.773 52.0924 208.883C51.0724 210.093 50.9724 211.903 51.9124 213.253C75.0324 246.543 132.632 253.493 180.202 236.963C230.312 219.553 269.452 181.453 266.842 138.313C266.742 136.673 265.553 135.313 263.993 134.993C258.743 133.903 255.182 130.193 250.872 123.363C221.032 76.1229 171.953 59.7629 124.493 76.2529L124.483 76.2629Z" fill="#FF73A2"/>
<mask id="mask3_16767_4559" style="mask-type:luminance" maskUnits="userSpaceOnUse" x="51" y="70" width="216" height="176">
<path d="M124.483 76.2629C63.1025 99.4029 48.4125 134.043 54.4225 191.613C55.2625 199.653 55.5324 204.773 52.0924 208.883C51.0724 210.093 50.9724 211.903 51.9124 213.253C75.0324 246.543 132.632 253.493 180.202 236.963C230.312 219.553 269.452 181.453 266.842 138.313C266.742 136.673 265.553 135.313 263.993 134.993C258.743 133.903 255.182 130.193 250.872 123.363C221.032 76.1229 171.953 59.7629 124.493 76.2529L124.483 76.2629Z" fill="white"/>
</mask>
<g mask="url(#mask3_16767_4559)">
<path d="M135.853 127.983C136.383 128.433 137.003 128.783 137.673 128.663C189.733 119.323 215.993 137.443 216.683 138.373C219.013 141.513 225.463 157.633 222.423 175.123C217.953 200.853 201.933 210.043 203.583 210.723C205.433 211.483 220.613 216.393 220.823 219.063C205.033 231.573 191.853 237.673 172.283 243.753C152.773 249.813 133.083 251.053 114.543 249.453C113.393 246.463 110.633 240.303 114.703 233.723C114.913 233.383 95.0529 230.603 82.2329 217.803C73.0129 208.603 67.253 195.843 67.313 189.723C67.323 188.563 68.6827 158.173 108.833 138.973C109.683 138.563 110.403 137.743 110.383 136.773C110.253 128.093 113.753 115.493 118.053 109.303C118.773 108.263 119.983 107.583 120.763 108.613C124.493 113.543 131.213 123.963 135.853 127.973V127.983Z" fill="#FDEDF1" stroke="#502823" stroke-width="2.5" stroke-linecap="round" stroke-linejoin="round"/>
</g>
<path d="M53.8324 184.353C53.9724 186.743 54.1625 189.163 54.4225 191.613C55.2625 199.653 55.5324 204.773 52.0924 208.883C51.0724 210.093 50.9724 211.903 51.9124 213.253C75.0424 246.553 132.712 253.703 180.202 236.963C232.092 218.673 269.452 181.453 266.842 138.313C266.742 136.673 265.553 135.313 263.993 134.993C255.723 131.843 253.353 127.453 243.233 113.143" stroke="#502823" stroke-width="2.5" stroke-linecap="round" stroke-linejoin="round"/>
<path d="M53.3633 172.093C55.6533 123.963 69.4934 94.1329 124.483 76.2629C164.513 61.0829 205.493 71.3429 235.533 103.983" stroke="#502823" stroke-width="2.5" stroke-linecap="round" stroke-linejoin="round"/>
<path d="M186.821 160.973C184.031 161.843 181.111 163.013 178.411 164.363C175.691 165.723 173.101 167.293 170.701 169.113C168.281 170.893 166.031 172.913 164.021 175.163C161.931 177.353 160.231 179.863 158.451 182.393L158.381 182.493C157.851 183.243 156.811 183.423 156.061 182.893C155.411 182.433 155.191 181.593 155.481 180.883C156.761 177.813 158.341 174.793 160.481 172.163C161.461 170.773 162.691 169.603 163.841 168.363C164.441 167.763 165.101 167.233 165.741 166.673C166.061 166.403 166.371 166.113 166.701 165.843L167.721 165.083C170.441 163.063 173.391 161.373 176.511 160.123C177.291 159.813 178.081 159.523 178.871 159.243C179.671 158.993 180.471 158.743 181.291 158.533C182.941 158.123 184.531 157.793 186.331 157.663C187.251 157.593 188.051 158.283 188.121 159.203C188.181 159.993 187.681 160.693 186.961 160.913L186.831 160.953L186.821 160.973Z" fill="#502823"/>
<path d="M190.242 165.933C187.362 166.693 184.362 167.623 181.502 168.663C178.632 169.733 175.821 170.933 173.121 172.333C170.391 173.673 167.801 175.263 165.321 176.993C162.791 178.673 160.551 180.713 158.221 182.733L158.131 182.813C157.431 183.413 156.382 183.343 155.782 182.643C155.262 182.043 155.241 181.173 155.701 180.563C157.661 177.903 159.892 175.373 162.512 173.313L163.471 172.503L164.481 171.773C165.161 171.293 165.832 170.793 166.532 170.343C167.952 169.473 169.371 168.613 170.851 167.873C173.811 166.383 176.891 165.143 180.071 164.253C183.261 163.363 186.451 162.743 189.861 162.613C190.781 162.573 191.561 163.293 191.591 164.213C191.621 165.013 191.091 165.693 190.351 165.893L190.231 165.923L190.242 165.933Z" fill="#502823"/>
<path d="M184.021 159.643C187.551 158.823 190.131 159.803 192.671 156.903" stroke="#502823" stroke-width="2.5" stroke-linecap="round" stroke-linejoin="round"/>
<path d="M143.531 149.573C145.031 152.843 149.941 154.363 153.681 152.243" stroke="#502823" stroke-width="2.5" stroke-linecap="round" stroke-linejoin="round"/>
<path d="M86.8125 190.653C88.2025 189.693 89.5424 189.023 90.9824 188.383C91.7024 188.083 92.4324 187.813 93.1624 187.543C93.9024 187.303 94.6424 187.063 95.4024 186.863C96.1624 186.683 96.9124 186.473 97.6824 186.333L100.002 185.953C101.562 185.813 103.122 185.693 104.702 185.733L105.882 185.763L107.053 185.873C107.833 185.973 108.622 185.983 109.392 186.153C110.932 186.463 112.482 186.733 113.952 187.273C115.462 187.683 116.872 188.373 118.292 189.003C119.012 189.303 119.662 189.733 120.322 190.123C120.982 190.523 121.642 190.933 122.282 191.353C123.052 191.853 123.272 192.883 122.772 193.653C122.342 194.313 121.542 194.563 120.832 194.323L120.662 194.263C119.992 194.033 119.322 193.793 118.672 193.543C118.012 193.303 117.392 192.993 116.702 192.833C115.372 192.433 114.072 191.983 112.712 191.733C110.042 191.083 107.322 190.783 104.592 190.723C101.862 190.633 99.1224 190.883 96.4124 191.363C95.0624 191.613 93.7023 191.903 92.3723 192.273C91.0523 192.623 89.6724 193.083 88.4824 193.513L88.3323 193.573C87.4623 193.883 86.5124 193.443 86.1924 192.573C85.9324 191.843 86.2025 191.053 86.8125 190.633V190.653Z" fill="#502823"/>
<path d="M87.0519 196.713C89.5819 194.823 92.2219 193.453 95.0419 192.293C97.8519 191.143 100.792 190.333 103.802 189.803C105.302 189.523 106.832 189.403 108.352 189.273C109.112 189.243 109.882 189.253 110.652 189.233H111.802L112.952 189.323C116.012 189.463 119.032 190.203 121.902 191.203C122.772 191.503 123.232 192.453 122.932 193.323C122.672 194.063 121.952 194.503 121.202 194.433H121.072C118.282 194.163 115.572 193.833 112.822 193.943C110.092 193.993 107.362 194.213 104.662 194.723C101.952 195.173 99.2718 195.833 96.6218 196.643C93.9918 197.463 91.3118 198.463 88.8518 199.513L88.7319 199.563C87.8819 199.923 86.9019 199.533 86.5419 198.683C86.2319 197.963 86.4717 197.143 87.0717 196.693L87.0519 196.713Z" fill="#502823"/>
<path d="M89.6523 190.873C86.6623 192.273 85.3623 194.573 81.9023 193.713" stroke="#502823" stroke-width="2.5" stroke-linecap="round" stroke-linejoin="round"/>
<path d="M113.323 159.483C113.773 162.903 111.943 167.103 107.203 167.833" stroke="#502823" stroke-width="2.5" stroke-linecap="round" stroke-linejoin="round"/>
<path d="M165.473 213.513C168.333 225.793 166.313 235.573 159.123 237.673C152.243 239.683 145.123 234.643 138.693 224.633C135.743 220.033 132.933 214.393 130.373 207.893C133.813 207.743 140.803 205.533 142.783 199.413C149.383 203.823 156.763 199.663 159.573 197.603C162.333 203.083 164.313 208.503 165.473 213.513Z" fill="#EA5457" stroke="#502823" stroke-width="2.5" stroke-linecap="round" stroke-linejoin="round"/>
<path d="M165.473 213.513C168.333 225.793 166.313 235.573 159.123 237.673C152.243 239.683 145.123 234.643 138.693 224.633C141.953 218.263 147.493 214.563 153.153 213.173C157.293 212.153 161.503 212.083 165.463 213.523L165.473 213.513Z" fill="#FF8F95" stroke="#502823" stroke-width="2.5" stroke-linecap="round" stroke-linejoin="round"/>
<path d="M162.823 193.653C157.303 202.853 146.723 202.543 142.783 199.413C141.293 204.613 132.483 210.773 126.543 206.473" fill="#FDEDF1"/>
<path d="M162.823 193.653C157.303 202.853 146.723 202.543 142.783 199.413C141.293 204.613 132.483 210.773 126.543 206.473" stroke="#502823" stroke-width="2.5" stroke-linecap="round" stroke-linejoin="round"/>
<path d="M132.171 191.453C131.681 190.043 132.571 188.573 137.431 186.883C142.291 185.193 143.951 185.963 144.391 187.213C144.821 188.463 142.421 192.163 139.601 193.143C136.781 194.123 132.661 192.863 132.171 191.463V191.453Z" fill="#FF73A2" stroke="#502823" stroke-width="2.5" stroke-linecap="round" stroke-linejoin="round"/>
<path d="M243.242 295.713C241.932 295.043 240.782 294.463 239.902 294.123L243.242 295.713Z" fill="#FDEDF1"/>
<path d="M243.242 295.713C241.932 295.043 240.782 294.463 239.902 294.123" stroke="#502823" stroke-width="2.5" stroke-linecap="round" stroke-linejoin="round"/>
<path d="M205.793 293.993C206.333 293.663 207.313 293.193 208.323 292.953L205.793 293.993Z" fill="#FDEDF1"/>
<path d="M205.793 293.993C206.333 293.663 207.313 293.193 208.323 292.953" stroke="#502823" stroke-width="2.5" stroke-linecap="round" stroke-linejoin="round"/>
<path d="M136.182 310.653C136.912 309.633 138.382 308.043 139.262 307.133L136.182 310.653Z" fill="#FDEDF1"/>
<path d="M136.182 310.653C136.912 309.633 138.382 308.043 139.262 307.133" stroke="#502823" stroke-width="2.5" stroke-linecap="round" stroke-linejoin="round"/>
<path d="M192.032 382.813C201.762 380.313 216.072 382.273 222.952 384.433C222.732 390.453 221.942 398.223 221.772 399.963C226.862 410.323 235.662 431.463 235.632 450.703C235.632 451.883 234.992 452.963 233.972 453.553C224.832 458.863 202.092 458.113 191.472 455.643C189.482 455.183 187.892 453.673 187.342 451.703C185.452 445.053 186.092 434.133 195.702 429.203C193.522 421.803 190.402 410.543 190.272 401.893C190.192 396.453 190.752 388.153 192.032 382.823V382.813Z" fill="#FF73A2"/>
<mask id="mask4_16767_4559" style="mask-type:luminance" maskUnits="userSpaceOnUse" x="186" y="381" width="50" height="77">
<path d="M192.032 382.813C201.762 380.313 216.072 382.273 222.952 384.433C222.732 390.453 221.942 398.223 221.772 399.963C226.862 410.323 235.662 431.463 235.632 450.703C235.632 451.883 234.992 452.963 233.972 453.553C224.832 458.863 202.092 458.113 191.472 455.643C189.482 455.183 187.892 453.673 187.342 451.703C185.452 445.053 186.092 434.133 195.702 429.203C193.522 421.803 190.402 410.543 190.272 401.893C190.192 396.453 190.752 388.153 192.032 382.823V382.813Z" fill="white"/>
</mask>
<g mask="url(#mask4_16767_4559)">
<path d="M184.851 410.143C198.871 415.653 221.171 412.413 227.971 406.573C237.421 422.013 243.661 452.483 239.551 457.453C235.441 462.423 185.511 466.203 181.801 457.763C178.081 449.323 175.751 419.653 184.861 410.153L184.851 410.143Z" fill="#FDEDF1" stroke="#502823" stroke-width="2.5" stroke-linecap="round" stroke-linejoin="round"/>
<path d="M210.871 427.453C206.381 426.483 199.531 427.003 195.701 429.203L210.871 427.453Z" fill="#FDEDF1"/>
<path d="M210.871 427.453C206.381 426.483 199.531 427.003 195.701 429.203" stroke="#502823" stroke-width="2.5" stroke-linecap="round" stroke-linejoin="round"/>
</g>
<path d="M192.032 382.813C201.762 380.313 216.072 382.273 222.952 384.433C222.732 390.453 221.942 398.223 221.772 399.963C226.862 410.323 235.662 431.463 235.632 450.703C235.632 451.883 234.992 452.963 233.972 453.553C224.832 458.863 202.092 458.113 191.472 455.643C189.482 455.183 187.892 453.673 187.342 451.703C185.452 445.053 186.092 434.133 195.702 429.203C193.522 421.803 190.402 410.543 190.272 401.893C190.192 396.453 190.752 388.153 192.032 382.823V382.813Z" stroke="#50281E" stroke-width="2.5" stroke-linecap="round" stroke-linejoin="round"/>
<path d="M176.563 383.013C171.673 375.953 154.503 373.033 148.263 376.653C147.433 382.783 142.823 395.503 140.653 399.973C135.563 410.333 126.763 431.473 126.793 450.713C126.793 451.893 127.433 452.973 128.453 453.563C137.593 458.873 160.333 458.123 170.953 455.653C172.943 455.193 174.533 453.683 175.083 451.713C176.973 445.063 176.333 434.143 166.723 429.213C168.903 421.813 172.353 410.313 173.883 401.903C174.793 396.903 175.853 389.533 176.553 383.023L176.563 383.013Z" fill="#FF73A2"/>
<mask id="mask5_16767_4559" style="mask-type:luminance" maskUnits="userSpaceOnUse" x="126" y="375" width="51" height="83">
<path d="M176.563 383.013C171.673 375.953 154.503 373.033 148.263 376.653C147.433 382.783 142.823 395.503 140.653 399.973C135.563 410.333 126.763 431.473 126.793 450.713C126.793 451.893 127.433 452.973 128.453 453.563C137.593 458.873 160.333 458.123 170.953 455.653C172.943 455.193 174.533 453.683 175.083 451.713C176.973 445.063 176.333 434.143 166.723 429.213C168.903 421.813 172.353 410.313 173.883 401.903C174.793 396.903 175.853 389.533 176.553 383.023L176.563 383.013Z" fill="white"/>
</mask>
<g mask="url(#mask5_16767_4559)">
<path d="M177.383 410.143C163.363 415.653 141.063 412.413 134.263 406.573C124.813 422.013 118.573 452.483 122.683 457.453C126.793 462.423 176.723 466.203 180.433 457.763C184.153 449.323 186.483 419.653 177.373 410.153L177.383 410.143Z" fill="#FDEDF1" stroke="#502823" stroke-width="2.5" stroke-linecap="round" stroke-linejoin="round"/>
<path d="M151.553 427.453C156.043 426.483 162.893 427.003 166.723 429.203L151.553 427.453Z" fill="#FDEDF1"/>
<path d="M151.553 427.453C156.043 426.483 162.893 427.003 166.723 429.203" stroke="#502823" stroke-width="2.5" stroke-linecap="round" stroke-linejoin="round"/>
</g>
<path d="M176.563 383.013C171.673 375.953 154.503 373.033 148.263 376.653C147.433 382.783 142.823 395.503 140.653 399.973C135.563 410.333 126.763 431.473 126.793 450.713C126.793 451.893 127.433 452.973 128.453 453.563C137.593 458.873 160.333 458.123 170.953 455.653C172.943 455.193 174.533 453.683 175.083 451.713C176.973 445.063 176.333 434.143 166.723 429.213C168.903 421.813 172.353 410.313 173.883 401.903C174.793 396.903 175.853 389.533 176.553 383.023L176.563 383.013Z" stroke="#50281E" stroke-width="2.5" stroke-linecap="round" stroke-linejoin="round"/>
</svg>
