<svg width="323" height="462" viewBox="0 0 323 462" fill="none" xmlns="http://www.w3.org/2000/svg">
<path d="M195.306 318.608C188.736 321.538 189.396 329.348 191.586 334.298C199.956 353.178 223.306 390.228 266.856 383.538C313.456 376.378 326.136 335.668 320.046 294.838C319.586 291.728 319.046 288.668 318.426 285.668C310.216 282.748 299.986 282.758 292.416 288.428C292.676 289.538 292.866 290.668 293.126 291.788C299.066 316.978 300.186 357.088 259.156 362.588C235.136 365.808 218.656 341.958 209.846 325.828C208.566 323.478 203.336 315.018 195.296 318.608H195.306Z" fill="#FF73A2" stroke="#512921" stroke-width="2.5" stroke-linecap="round" stroke-linejoin="round"/>
<path d="M282.385 258.578C284.435 266.478 289.685 276.838 292.415 288.438C299.975 282.768 310.215 282.758 318.425 285.678C314.935 268.718 309.045 254.048 301.205 247.408C296.785 243.668 291.315 241.638 286.175 244.848C282.315 247.248 280.635 251.848 282.385 258.588V258.578Z" fill="#FFEBF0" stroke="#512921" stroke-width="2.5" stroke-linecap="round" stroke-linejoin="round"/>
<path d="M138.396 302.088C142.846 281.718 147.816 263.218 155.576 252.308C159.766 246.418 164.566 262.808 163.926 286.078C163.616 292.598 163.086 299.468 162.476 306.408H162.446C161.646 312.368 156.576 316.978 150.386 317.008C143.626 317.038 138.126 311.588 138.086 304.828C138.086 303.888 138.196 302.968 138.396 302.088Z" fill="#FF73A2"/>
<path d="M138.396 302.088C142.846 281.718 147.816 263.218 155.576 252.308C159.766 246.418 164.566 262.808 163.926 286.078C163.616 292.598 163.086 299.468 162.476 306.408C161.676 312.368 156.576 316.978 150.396 317.008C143.636 317.038 138.136 311.588 138.096 304.828C138.096 303.888 138.206 302.968 138.406 302.088H138.396Z" stroke="#512921" stroke-width="2.5" stroke-linecap="round" stroke-linejoin="round"/>
<path d="M121.828 315.578C128.688 309.668 135.638 305.128 142.358 299.398C146.628 295.558 153.058 293.658 157.808 297.248C163.198 301.318 163.238 308.228 159.168 313.628C158.818 314.088 158.438 314.498 158.048 314.898L158.068 314.918C151.978 321.608 146.738 329.048 140.918 335.378C136.208 340.898 127.958 341.858 122.088 337.428C115.998 332.828 114.788 324.168 119.388 318.068C120.108 317.118 120.928 316.278 121.828 315.568V315.578Z" fill="#FF73A2"/>
<path d="M159.108 315.678C153.018 322.368 146.748 329.038 140.928 335.378C136.218 340.898 127.968 341.858 122.098 337.428C116.008 332.828 114.798 324.168 119.398 318.068C120.118 317.118 120.938 316.278 121.838 315.568C128.698 309.658 136.308 302.978 143.038 297.258" stroke="#512921" stroke-width="2.5" stroke-linecap="round" stroke-linejoin="round"/>
<path d="M140.338 336.008C139.068 337.388 137.818 338.838 136.458 340.218C130.938 345.828 126.757 349.678 122.737 351.058C117.297 352.928 112.258 350.978 108.828 347.388C104.548 342.908 102.598 334.638 115.198 321.578C117.228 319.468 119.507 317.618 121.677 315.698C125.097 324.228 131.748 331.288 140.328 336.018L140.338 336.008Z" fill="#FFEBF0" stroke="#512921" stroke-width="2.5" stroke-linecap="round" stroke-linejoin="round"/>
<path d="M165.227 236.938C165.227 236.938 158.347 239.418 154.027 249.628C147.367 265.358 135.977 294.188 136.357 297.208C136.737 300.228 152.457 318.468 178.637 313.818L181.127 267.518" fill="white"/>
<path d="M165.227 236.938C165.227 236.938 158.347 239.418 154.027 249.628C147.367 265.358 135.977 294.188 136.357 297.208C136.737 300.228 152.457 318.468 178.637 313.818L181.127 267.518" stroke="#512921" stroke-width="2.5" stroke-linecap="round" stroke-linejoin="round"/>
<path d="M175.197 383.218C178.257 364.368 181.097 346.398 181.947 340.978C181.947 340.958 181.947 340.948 181.957 340.928C182.067 340.398 182.147 339.868 182.197 339.348C182.197 339.338 182.197 339.318 182.197 339.318C182.867 332.458 178.247 326.898 171.267 326.578C163.817 326.228 156.487 331.978 154.777 339.448L150.717 359.518L145.447 383.908H145.497C144.017 391.898 149.137 398.588 157.097 398.958C165.207 399.338 173.197 393.018 174.947 384.838C175.067 384.288 175.147 383.748 175.207 383.208L175.197 383.218Z" fill="#FF73A2" stroke="#512921" stroke-width="2.5" stroke-linecap="round" stroke-linejoin="round"/>
<path d="M143.846 454.198C150.686 454.518 157.796 453.778 162.816 450.818C163.896 450.188 165.206 442.488 165.896 438.498L170.086 414.038C165.616 414.348 159.516 414.628 154.126 414.378C148.266 414.108 142.816 413.058 139.326 412.238L135.546 429.978C135.546 429.978 131.386 449.398 131.386 449.408C130.736 452.438 136.706 453.868 143.856 454.198H143.846Z" fill="#FFEBF0" stroke="#512921" stroke-width="2.5" stroke-linecap="round" stroke-linejoin="round"/>
<path d="M146.766 383.758C146.736 383.898 146.666 384.198 146.666 384.198L139.316 412.228C142.816 413.048 148.256 414.098 154.116 414.368C159.506 414.618 165.616 414.338 170.076 414.028C171.556 405.398 171.996 395.198 173.646 385.048C173.646 385.018 173.666 384.968 173.666 384.938C175.056 376.738 171.516 369.738 163.406 369.358C155.296 368.978 148.876 373.928 147.126 382.098L146.746 383.748L146.766 383.758Z" fill="#FF73A2"/>
<path d="M145.536 383.468C145.506 383.608 145.466 383.768 145.436 383.908L139.316 412.228C142.816 413.048 148.256 414.098 154.116 414.368C159.506 414.618 165.616 414.338 170.076 414.028C171.556 405.398 173.256 395.098 174.906 384.938C174.906 384.908 174.926 384.868 174.926 384.838" stroke="#512921" stroke-width="2.5" stroke-linecap="round" stroke-linejoin="round"/>
<path d="M165.626 439.528L134.596 429.958C133.366 429.858 126.956 429.568 121.886 433.218C114.216 438.748 114.676 451.278 118.186 455.488C121.476 459.438 154.926 458.448 159.786 456.108C163.056 454.538 163.196 453.778 163.216 449.998L165.626 439.538V439.528Z" fill="#FFEBF0"/>
<path d="M140.426 431.518C140.426 431.518 138.066 430.748 137.266 430.538C136.606 430.368 134.596 429.958 134.596 429.958C133.366 429.858 126.956 429.568 121.886 433.218C114.216 438.748 114.676 451.278 118.186 455.488C121.476 459.438 154.926 458.448 159.786 456.108C163.056 454.538 163.236 452.848 163.716 450.488C164.266 447.728 165.906 438.508 165.906 438.508" stroke="#512921" stroke-width="2.5" stroke-linecap="round" stroke-linejoin="round"/>
<path d="M163.436 345.228C155.256 342.248 152.086 336.368 152.086 328.678C152.966 324.138 156.036 312.338 158.576 307.318C159.236 306.018 160.746 305.088 161.546 303.848C164.716 298.978 177.616 300.088 190.726 300.098C203.606 300.108 216.696 298.948 219.926 303.688C224.116 309.838 226.576 316.938 226.576 323.668C226.576 340.878 210.306 349.198 190.046 349.198C179.046 349.198 169.756 347.528 163.426 345.218L163.436 345.228Z" fill="#AAA0FF" stroke="#512921" stroke-width="2.5" stroke-linecap="round" stroke-linejoin="round"/>
<path d="M224.106 310.978C223.726 309.538 223.916 297.588 223.916 297.588C223.916 297.588 218.436 298.688 187.966 298.688C168.626 298.688 157.346 297.588 157.346 297.588C157.346 297.588 158.626 309.288 158.556 311.918C159.176 315.628 218.186 314.278 224.106 310.978Z" fill="#AAA0FF"/>
<path d="M224.106 310.978C223.726 309.538 223.916 297.588 223.916 297.588C223.916 297.588 218.436 298.688 187.966 298.688C168.626 298.688 157.346 297.588 157.346 297.588C157.346 297.588 157.146 307.618 157.076 310.248" stroke="#512921" stroke-width="2.5" stroke-linecap="round" stroke-linejoin="round"/>
<path d="M193.216 328.918C193.216 328.758 193.236 328.608 193.246 328.448C193.546 318.398 186.066 310.128 174.376 309.258C166.006 308.628 157.166 314.798 154.836 322.458C154.446 323.618 139.256 364.968 138.376 371.028C137.616 376.238 170.346 386.598 196.306 381.458L193.216 328.918Z" fill="#AAA0FF"/>
<path d="M153.516 322.168C153.516 322.168 153.516 322.178 153.516 322.188C153.126 323.348 139.256 364.968 138.376 371.028C137.616 376.238 170.346 386.598 196.306 381.458L193.886 328.838" stroke="#512921" stroke-width="2.5" stroke-linecap="round" stroke-linejoin="round"/>
<path d="M194.237 340.458C194.067 332.938 199.967 326.668 207.507 326.408C215.047 326.148 221.117 331.778 221.677 339.078H221.707L224.997 376.408L225.437 382.228C225.717 390.438 219.247 397.318 211.047 397.598C202.837 397.878 195.967 391.448 195.687 383.248C195.617 381.078 195.537 378.958 195.467 376.918C194.987 362.958 194.227 340.468 194.227 340.468H194.237V340.458Z" fill="#FF73A2" stroke="#512921" stroke-width="2.5" stroke-linecap="round" stroke-linejoin="round"/>
<path d="M197.086 383.428C196.846 375.218 202.116 369.528 210.326 369.288C218.536 369.048 223.616 375.368 224.216 382.318L224.286 382.788L227.856 413.558C227.906 413.988 227.936 414.418 227.956 414.848C228.206 423.448 197.076 424.358 196.816 415.768C196.816 415.528 196.816 415.298 196.816 415.058C196.816 415.058 196.806 415.058 196.796 415.058C196.486 404.608 197.386 393.528 197.086 383.428Z" fill="#FF73A2"/>
<path d="M225.406 381.458L227.856 413.548C227.906 413.978 227.936 414.408 227.956 414.838C228.206 423.438 197.076 424.348 196.816 415.758C196.816 415.518 196.816 415.288 196.816 415.048C196.816 415.048 196.806 415.048 196.796 415.048C196.486 404.598 195.946 391.608 195.646 381.498" stroke="#512921" stroke-width="2.5" stroke-linecap="round" stroke-linejoin="round"/>
<path d="M219.177 456.888C213.947 457.988 200.027 458.378 198.087 452.988C197.547 449.668 197.557 440.938 197.557 440.938L196.797 415.058C201.227 415.438 207.307 415.818 212.737 415.658C218.647 415.488 224.257 414.538 227.867 413.778L229.127 431.368C228.937 431.398 230.027 444.498 230.317 448.868C230.507 451.748 229.047 454.818 219.167 456.888H219.177Z" fill="#FFEBF0" stroke="#512921" stroke-width="2.5" stroke-linecap="round" stroke-linejoin="round"/>
<path d="M223.275 433.148C223.275 433.148 226.445 432.318 229.305 431.908C229.495 431.878 229.685 431.858 229.885 431.838C229.885 431.838 237.165 431.408 242.265 436.958C247.095 442.208 246.905 453.758 243.355 457.758C240.035 461.508 203.815 459.918 201.185 458.788C198.405 457.588 197.935 453.828 197.945 450.078L199.465 442.218C203.645 437.938 223.275 433.148 223.275 433.148Z" fill="#FFEBF0"/>
<path d="M223.276 433.148C223.276 433.148 226.446 432.318 229.306 431.908C229.496 431.878 229.686 431.858 229.886 431.838C229.886 431.838 237.166 431.408 242.266 436.958C247.096 442.208 246.906 453.758 243.356 457.758C240.036 461.508 203.816 459.918 201.186 458.788C198.406 457.588 197.936 453.828 197.946 450.078L197.566 443.358" stroke="#512921" stroke-width="2.5" stroke-linecap="round" stroke-linejoin="round"/>
<path d="M197.897 347.098C213.107 347.098 225.437 334.768 225.437 319.558C225.437 304.348 213.107 292.018 197.897 292.018C182.688 292.018 170.357 304.348 170.357 319.558C170.357 334.768 182.688 347.098 197.897 347.098Z" fill="#AAA0FF"/>
<path d="M171.627 335.058L178.487 339.068L177.957 379.988C177.957 379.988 189.897 383.058 206.337 382.728C231.047 382.228 240.527 375.648 243.507 373.198C245.907 371.228 223.947 310.798 223.947 310.798" fill="#AAA0FF"/>
<path d="M171.627 335.058L178.487 339.068L177.957 379.988C177.957 379.988 189.897 383.058 206.337 382.728C231.047 382.228 240.527 375.648 243.507 373.198C245.907 371.228 223.947 310.798 223.947 310.798" stroke="#512921" stroke-width="2.5" stroke-linecap="round" stroke-linejoin="round"/>
<path d="M161.566 311.418C161.566 311.418 183.076 313.908 213.326 311.688" stroke="#512921" stroke-width="2.5" stroke-linecap="round" stroke-linejoin="round"/>
<path d="M156.007 257.988C150.757 273.748 148.967 299.148 151.627 304.798C154.147 310.148 175.207 307.618 186.507 306.358C190.607 305.898 230.697 301.078 230.677 295.568C230.657 289.638 229.017 247.048 212.137 233.888C204.377 227.838 193.627 227.518 184.937 228.688C173.737 230.188 165.347 236.628 162.157 240.528L156.007 257.998V257.988Z" fill="white"/>
<path d="M161.497 239.468C164.677 235.568 173.737 230.178 184.937 228.678C193.637 227.518 204.377 227.828 212.137 233.878C229.017 247.038 230.657 289.628 230.677 295.558C230.697 301.058 190.607 305.888 186.507 306.348C175.207 307.618 154.147 310.138 151.627 304.788C148.967 299.138 150.757 273.738 156.007 257.978" stroke="#512921" stroke-width="2.5" stroke-linecap="round" stroke-linejoin="round"/>
<path d="M194.227 262.158C194.867 275.108 185.627 288.428 173.567 289.828C161.597 291.208 154.237 279.958 156.677 266.788C158.767 255.468 167.597 246.438 176.697 245.268C185.847 244.088 193.687 251.048 194.227 262.158Z" fill="#AAA0FF"/>
<path d="M188.758 264.908C188.378 264.958 187.988 264.838 187.688 264.558C187.638 264.508 182.028 259.288 173.178 260.478C173.158 260.478 173.148 260.478 173.128 260.478C165.438 261.528 161.278 266.158 161.238 266.208C160.768 266.738 159.948 266.798 159.418 266.328C158.878 265.858 158.828 265.048 159.298 264.508C159.488 264.288 164.088 259.108 172.788 257.918C172.808 257.918 172.828 257.918 172.848 257.918C182.978 256.568 189.228 262.448 189.488 262.698C189.998 263.188 190.018 264.008 189.528 264.528C189.318 264.748 189.048 264.878 188.768 264.918L188.758 264.908Z" fill="white"/>
<path d="M172.887 274.098L174.107 291.248C173.457 291.408 172.787 291.528 172.117 291.608C171.447 291.688 170.777 291.718 170.107 291.708L169.237 274.528C169.227 274.318 169.367 274.128 169.557 274.108L172.527 273.758C172.707 273.738 172.877 273.888 172.887 274.098Z" fill="white"/>
<path d="M176.818 270.638C176.688 274.228 173.978 277.558 170.788 277.948C167.598 278.328 165.328 275.598 165.708 271.998C166.068 268.548 168.738 265.558 171.688 265.188C174.638 264.818 176.948 267.208 176.828 270.648L176.818 270.638Z" fill="white"/>
<path d="M197.857 284.188C201.687 295.198 235.087 310.328 238.707 297.558C242.327 284.788 228.267 274.618 217.517 275.538C206.767 276.448 195.757 278.168 197.847 284.188H197.857Z" fill="white" stroke="#512921" stroke-width="2.5" stroke-linecap="round" stroke-linejoin="round"/>
<path d="M228.767 288.938C225.227 268.388 221.087 249.688 213.817 238.448C209.887 232.368 204.367 248.538 203.977 271.808C203.997 278.328 204.227 285.228 204.527 292.178H204.557C205.087 298.168 209.957 302.998 216.127 303.308C222.877 303.638 228.617 298.438 228.957 291.688C229.007 290.748 228.927 289.828 228.777 288.938H228.767Z" fill="#FF73A2"/>
<path d="M228.767 288.938C225.227 268.388 221.087 249.688 213.817 238.448C209.887 232.368 204.367 248.538 203.977 271.808C203.997 278.328 204.227 285.228 204.527 292.178C205.057 298.168 209.947 302.998 216.127 303.308C222.877 303.638 228.617 298.438 228.957 291.688C229.007 290.748 228.927 289.828 228.777 288.938H228.767Z" stroke="#512921" stroke-width="2.5" stroke-linecap="round" stroke-linejoin="round"/>
<path d="M196.796 315.888C204.726 311.528 211.416 306.608 219.126 302.298C224.216 299.638 228.246 294.278 226.546 288.568C224.616 282.088 218.156 279.638 211.676 281.568C211.126 281.728 210.606 281.948 210.096 282.178V282.158C201.686 285.528 192.886 287.838 184.916 291.078C178.096 293.558 174.316 300.958 176.416 308.008C178.516 315.058 186.296 319.488 193.606 317.298C194.756 316.958 195.816 316.478 196.796 315.888Z" fill="#FF73A2"/>
<path d="M205.006 283.338C200.426 285.168 192.876 287.828 184.906 291.068C178.086 293.548 174.306 300.948 176.406 307.998C178.506 315.048 186.286 319.478 193.596 317.288C194.746 316.948 195.806 316.468 196.786 315.878C204.716 311.518 218.046 304.628 224.036 300.948" stroke="#512921" stroke-width="2.5" stroke-linecap="round" stroke-linejoin="round"/>
<path d="M184.116 291.398C182.376 292.098 180.586 292.768 178.816 293.558C171.626 296.768 166.566 299.338 163.866 302.628C160.216 307.078 160.286 312.468 162.446 316.938C165.146 322.518 172.216 327.238 188.856 319.988C191.546 318.818 194.076 317.338 196.636 315.968C189.836 309.778 185.556 301.088 184.116 291.388V291.398Z" fill="#FFEBF0" stroke="#512921" stroke-width="2.5" stroke-linecap="round" stroke-linejoin="round"/>
<path d="M195.547 256.258C198.647 266.078 200.217 274.528 199.777 278.928C196.237 280.118 197.007 285.118 198.897 284.338C216.787 277.018 234.407 289.568 238.717 297.548C244.487 289.718 233.467 259.238 217.677 239.048C214.387 234.838 209.977 231.658 206.907 230.778" fill="white"/>
<path d="M237.696 299.458C243.466 291.628 233.456 259.248 217.666 239.058C214.376 234.848 209.966 231.668 206.896 230.788" stroke="#512921" stroke-width="2.5" stroke-linecap="round" stroke-linejoin="round"/>
<path d="M201.367 283.108C214.597 277.378 234.697 287.278 235.317 296.968" stroke="#512921" stroke-width="2.5" stroke-linecap="round" stroke-linejoin="round"/>
<path d="M195.547 256.258C198.647 266.078 200.217 274.528 199.777 278.928C196.237 280.118 197.027 284.468 198.597 285.578" stroke="#512921" stroke-width="2.5" stroke-linecap="round" stroke-linejoin="round"/>
<path d="M196.176 225.418C196.426 231.018 183.166 239.858 174.596 239.958C164.516 240.078 169.496 228.108 169.496 228.108C169.496 228.108 172.096 221.198 184.866 221.038C191.236 220.958 196.076 223.098 196.186 225.418H196.176Z" fill="#FF73A2" stroke="#512921" stroke-width="2.5" stroke-linecap="round" stroke-linejoin="round"/>
<path d="M181.926 9.47782C167.016 43.6978 146.506 69.5778 140.416 77.8578C139.466 79.0178 138.546 80.2078 137.686 81.4178C137.636 81.4878 137.606 81.5179 137.606 81.5179H137.616C126.506 97.4079 123.266 118.378 130.816 137.808C142.846 168.768 177.696 184.128 208.656 172.088C232.266 162.908 246.776 140.468 247.006 116.598C249.236 72.4278 198.276 -28.0422 181.916 9.47782H181.926Z" fill="#FF73A2" stroke="#512921" stroke-width="2.5" stroke-linecap="round" stroke-linejoin="round"/>
<path d="M196.667 23.448C196.667 23.448 197.807 72.918 194.557 79.598C206.007 83.998 226.007 95.958 229.877 99.588C232.237 91.018 213.727 31.838 196.667 23.458V23.448Z" fill="#FFEBF0"/>
<path d="M195.326 13.8479C200.776 56.7179 192.146 102.618 192.146 102.618" stroke="#512921" stroke-width="2.5" stroke-linecap="round" stroke-linejoin="round"/>
<path d="M196.256 22.7478C202.966 23.4978 231.046 68.9878 229.946 105.468" stroke="#512921" stroke-width="2.5" stroke-linecap="round" stroke-linejoin="round"/>
<path d="M14.7567 89.3979C51.7767 94.1479 84.5166 89.8179 94.7467 88.8379C96.2267 88.6179 97.7167 88.4379 99.2067 88.3279C99.2867 88.3279 99.3367 88.3079 99.3367 88.3079C118.677 86.9279 138.347 94.8979 151.147 111.348C171.557 137.558 166.867 175.348 140.657 195.758C120.667 211.318 93.9566 212.268 73.3466 200.218C34.2866 179.488 -25.8333 84.1979 14.7667 89.4079L14.7567 89.3979Z" fill="#FF73A2" stroke="#512921" stroke-width="2.5" stroke-linecap="round" stroke-linejoin="round"/>
<path d="M19.1975 109.228C19.1975 109.228 61.0775 135.578 68.4775 136.208C66.3775 148.298 66.3975 171.598 67.5175 176.788C58.9475 174.428 19.6975 130.948 19.1875 109.228H19.1975Z" fill="#FFEBF0"/>
<path d="M11.6465 103.148C45.6565 129.818 89.4865 145.948 89.4865 145.948" stroke="#512921" stroke-width="2.5" stroke-linecap="round" stroke-linejoin="round"/>
<path d="M18.8067 108.508C16.0067 114.648 40.6667 162.088 72.5467 179.858" stroke="#512921" stroke-width="2.5" stroke-linecap="round" stroke-linejoin="round"/>
<path d="M124.056 78.8578C77.2065 97.0678 51.7665 138.118 59.7765 194.318C60.8965 202.168 60.5965 207.198 57.3765 211.348C56.4165 212.568 56.3864 214.348 57.3564 215.638C82.7764 249.548 136.106 253.188 184.486 234.388C232.866 215.588 269.756 176.898 265.606 134.718C265.456 133.108 264.226 131.828 262.696 131.568C257.526 130.678 253.906 127.168 249.426 120.628C217.386 73.7678 170.896 60.6578 124.046 78.8678L124.056 78.8578Z" fill="#FF73A2"/>
<path d="M58.9365 187.228C59.1565 189.568 59.4365 191.928 59.7765 194.328C60.8965 202.178 60.5965 207.208 57.3765 211.358C56.4165 212.578 56.3864 214.358 57.3564 215.648C82.7764 249.558 136.106 253.198 184.486 234.398C232.866 215.598 269.756 176.908 265.606 134.728C265.456 133.118 264.226 131.838 262.696 131.578C257.526 130.688 253.906 127.178 249.426 120.638C248.066 118.638 246.666 116.708 245.256 114.838" stroke="#512921" stroke-width="2.5" stroke-linecap="round" stroke-linejoin="round"/>
<path d="M233.696 101.398C203.106 70.4679 163.716 63.4479 124.066 78.8579C84.416 94.2679 60.096 126.038 58.416 169.508" stroke="#512921" stroke-width="2.5" stroke-linecap="round" stroke-linejoin="round"/>
<path d="M231.267 158.358C229.417 173.078 219.837 185.698 220.087 187.468C220.337 189.238 233.137 201.908 235.047 203.428C221.277 216.228 203.807 226.888 184.497 234.388C165.247 241.868 145.217 245.798 126.477 245.678C126.847 243.318 124.647 233.508 123.357 226.168C123.287 225.778 105.737 222.748 94.3968 212.018C85.0468 203.178 79.1568 191.438 78.8468 185.428C78.7868 184.278 81.1168 154.738 126.927 128.188C127.567 127.828 128.217 127.468 128.877 127.098C129.107 124.738 130.667 104.198 130.667 104.198C130.687 103.558 131.057 103.078 131.537 102.838C132.077 102.648 132.717 102.738 133.187 103.228C133.187 103.228 148.207 117.328 149.967 118.918C150.897 118.708 151.817 118.488 152.717 118.268C203.997 107.198 224.147 126.358 224.897 127.218C227.427 130.118 232.887 145.458 231.267 158.368V158.358Z" fill="#FFEBF0" stroke="#512921" stroke-width="2.5" stroke-linecap="round" stroke-linejoin="round"/>
<path d="M142.668 179.288C141.288 172.418 127.288 160.818 112.788 164.708C100.178 168.088 100.468 183.858 104.448 190.498C106.438 193.818 113.518 197.718 123.138 195.598C135.088 192.958 143.668 184.278 142.668 179.298V179.288Z" fill="white" stroke="#512921" stroke-width="2.5" stroke-linecap="round" stroke-linejoin="round"/>
<path d="M142.668 179.288C141.288 172.418 127.288 160.818 112.788 164.708C100.178 168.088 100.468 183.858 104.448 190.498C106.438 193.818 113.518 197.718 123.138 195.598C135.088 192.958 143.668 184.278 142.668 179.298V179.288Z" fill="white"/>
<mask id="mask0_16767_2215" style="mask-type:luminance" maskUnits="userSpaceOnUse" x="102" y="163" width="41" height="34">
<path d="M142.668 179.288C141.288 172.418 127.288 160.818 112.788 164.708C100.178 168.088 100.468 183.858 104.448 190.498C106.438 193.818 113.518 197.718 123.138 195.598C135.088 192.958 143.668 184.278 142.668 179.298V179.288Z" fill="white"/>
</mask>
<g mask="url(#mask0_16767_2215)">
<path d="M131.198 195.778C138.306 195.778 144.068 189.017 144.068 180.678C144.068 172.338 138.306 165.578 131.198 165.578C124.09 165.578 118.328 172.338 118.328 180.678C118.328 189.017 124.09 195.778 131.198 195.778Z" fill="#512921"/>
</g>
<path d="M142.668 179.288C141.288 172.418 127.288 160.818 112.788 164.708C100.178 168.088 100.468 183.858 104.448 190.498C106.438 193.818 113.518 197.718 123.138 195.598C135.088 192.958 143.668 184.278 142.668 179.298V179.288Z" stroke="#512921" stroke-width="2.5" stroke-linecap="round" stroke-linejoin="round"/>
<path d="M101.687 181.388C95.477 181.978 92.207 178.498 92.207 178.498" stroke="#512921" stroke-width="2.5" stroke-linecap="round" stroke-linejoin="round"/>
<path d="M124.797 183.068C127.188 183.068 129.127 181.129 129.127 178.738C129.127 176.347 127.188 174.408 124.797 174.408C122.405 174.408 120.467 176.347 120.467 178.738C120.467 181.129 122.405 183.068 124.797 183.068Z" fill="white"/>
<path d="M134.607 151.148C130.887 152.738 126.287 151.058 123.037 149.068" stroke="#512921" stroke-width="2.5" stroke-linecap="round" stroke-linejoin="round"/>
<path d="M168.867 144.118C174.117 142.838 177.167 139.528 177.207 134.888" stroke="#512921" stroke-width="2.5" stroke-linecap="round" stroke-linejoin="round"/>
<path d="M154.087 174.878C153.497 173.548 154.237 172.028 158.827 169.978C163.417 167.928 165.107 168.538 165.637 169.718C166.167 170.908 164.137 174.708 161.467 175.898C158.797 177.088 154.677 176.198 154.077 174.868L154.087 174.878Z" fill="#FF73A2" stroke="#512921" stroke-width="2.5" stroke-linecap="round" stroke-linejoin="round"/>
<path d="M210.607 142.798C192.157 144.378 181.567 154.098 176.557 158.308" stroke="#512921" stroke-width="3.5" stroke-linecap="round" stroke-linejoin="round"/>
<path d="M176.557 158.318C179.867 152.658 193.167 140.568 208.517 140.688" stroke="#512921" stroke-width="3.5" stroke-linecap="round" stroke-linejoin="round"/>
<path d="M205.096 139.918C209.906 135.968 209.666 130.978 209.666 130.978" stroke="#512921" stroke-width="2.5" stroke-linecap="round" stroke-linejoin="round"/>
<path d="M161.197 189.498C162.417 182.508 169.157 177.838 172.657 177.198" stroke="#512921" stroke-width="2.5" stroke-linecap="round" stroke-linejoin="round"/>
<path d="M176.037 167.638C173.477 171.898 171.597 181.408 176.877 190.498" stroke="#512921" stroke-width="2.5" stroke-linecap="round" stroke-linejoin="round"/>
<path d="M167.437 149.298C166.847 149.588 166.167 149.748 165.447 149.708C164.737 149.688 163.977 149.438 163.347 149.038C162.707 148.628 162.207 148.038 161.867 147.418C161.537 146.778 161.367 146.148 161.357 145.388C161.357 144.928 161.717 144.548 162.177 144.548C162.437 144.548 162.677 144.668 162.837 144.858L162.997 145.048C163.257 145.378 163.567 145.788 163.857 146.088C164.147 146.408 164.457 146.638 164.767 146.818C165.087 146.998 165.397 147.188 165.807 147.288C165.997 147.368 166.227 147.388 166.447 147.478C166.677 147.528 166.917 147.568 167.177 147.658L167.347 147.718C167.797 147.868 168.037 148.358 167.877 148.808C167.797 149.028 167.637 149.208 167.437 149.298Z" fill="#FFAAB9"/>
</svg>
