<svg width="134" height="37" viewBox="0 0 134 37" fill="none" xmlns="http://www.w3.org/2000/svg">
<path d="M131.065 20.6335C130.938 18.4878 130.335 16.4497 129.354 14.6191C129.506 14.5513 129.633 14.4715 129.737 14.3838C130.802 13.4824 130.993 10.1322 128.385 7.94257C125.777 5.75296 122.406 6.82583 121.844 7.75113C121.844 7.75113 121.844 7.75113 121.844 7.75512C121.621 7.65541 121.397 7.56368 121.17 7.47194C121.282 7.09704 121.258 6.67826 121.082 6.23954C120.265 4.22542 115.359 5.19459 114.661 5.34216C113.963 5.19459 109.057 4.22542 108.24 6.23954C108.06 6.67826 108.04 7.10103 108.152 7.47194C107.925 7.55969 107.701 7.65541 107.478 7.75512C107.478 7.75512 107.478 7.75512 107.478 7.75113C106.916 6.82982 103.55 5.75296 100.937 7.94257C98.3287 10.1322 98.5202 13.4824 99.5851 14.3838C99.6928 14.4755 99.8324 14.5593 99.9919 14.631C99.0147 16.4577 98.4085 18.4878 98.2569 20.6335C97.7026 28.4467 101.488 34.9677 114.665 35.0036C127.843 35.0355 131.556 28.6541 131.073 20.6335H131.065Z" fill="white" stroke="white" stroke-width="3.98836" stroke-linecap="round" stroke-linejoin="round"/>
<path d="M131.065 20.6335C131.544 28.6541 127.835 35.0355 114.657 35.0036C101.48 34.9717 97.6948 28.4507 98.2491 20.6335C98.8155 12.6728 105.596 6.26347 114.657 6.26347C123.719 6.26347 130.591 12.7087 131.065 20.6335Z" fill="#FFD2B9" stroke="#D77355" stroke-width="0.797672" stroke-linecap="round" stroke-linejoin="round"/>
<path d="M107.525 23.5809C108.331 23.5809 108.985 22.5417 108.985 21.2597C108.985 19.9777 108.331 18.9385 107.525 18.9385C106.719 18.9385 106.065 19.9777 106.065 21.2597C106.065 22.5417 106.719 23.5809 107.525 23.5809Z" fill="#5F415A"/>
<path d="M121.785 23.5809C122.591 23.5809 123.245 22.5417 123.245 21.2597C123.245 19.9777 122.591 18.9385 121.785 18.9385C120.979 18.9385 120.325 19.9777 120.325 21.2597C120.325 22.5417 120.979 23.5809 121.785 23.5809Z" fill="#5F415A"/>
<path d="M114.656 27.7448C117.266 27.7448 119.382 26.1002 119.382 24.0715C119.382 22.0428 117.266 20.3982 114.656 20.3982C112.046 20.3982 109.93 22.0428 109.93 24.0715C109.93 26.1002 112.046 27.7448 114.656 27.7448Z" fill="#FFAA8C"/>
<path d="M113.476 23.0186C113.476 22.5912 113.13 22.2448 112.702 22.2448C112.275 22.2448 111.929 22.5912 111.929 23.0186V25.1204C111.929 25.5478 112.275 25.8942 112.702 25.8942C113.13 25.8942 113.476 25.5478 113.476 25.1204V23.0186Z" fill="#D77355"/>
<path d="M117.384 23.0186C117.384 22.5912 117.038 22.2448 116.611 22.2448C116.183 22.2448 115.837 22.5912 115.837 23.0186V25.1204C115.837 25.5478 116.183 25.8942 116.611 25.8942C117.038 25.8942 117.384 25.5478 117.384 25.1204V23.0186Z" fill="#D77355"/>
<path d="M121.074 6.23954C120.257 4.22542 115.351 5.19459 114.653 5.34216C113.955 5.19459 109.049 4.22542 108.232 6.23954C107.362 8.38528 110.15 10.1282 114.653 7.82292C119.156 10.1282 121.944 8.38528 121.074 6.23954Z" fill="#5F415A" stroke="#51354E" stroke-width="0.797672" stroke-linecap="round" stroke-linejoin="round"/>
<path d="M121.844 7.74714C122.407 6.82583 125.773 5.74897 128.385 7.93858C130.993 10.1282 130.802 13.4784 129.737 14.3798C128.892 15.0977 126.259 15.3131 123.715 12.7047C121.744 10.6826 121.393 8.48499 121.848 7.74315L121.844 7.74714Z" fill="#FFAA8C" stroke="#D77355" stroke-width="0.797672" stroke-linecap="round" stroke-linejoin="round"/>
<path d="M107.47 7.74714C106.907 6.82583 103.541 5.74897 100.929 7.93858C98.3204 10.1282 98.5118 13.4784 99.5767 14.3798C100.422 15.0977 103.055 15.3131 105.599 12.7047C107.569 10.6826 107.92 8.48499 107.466 7.74315L107.47 7.74714Z" fill="#FFAA8C" stroke="#D77355" stroke-width="0.797672" stroke-linecap="round" stroke-linejoin="round"/>
<path d="M51.5724 3.81877C55.3342 2.39211 62.0892 7.21073 63.1202 7.97111C64.7507 7.63011 65.99 7.59514 66.4249 7.59514H66.6163C67.0505 7.59408 68.2904 7.62814 69.922 7.96916C70.96 7.20386 77.7086 2.39326 81.4679 3.81877C85.5479 5.36621 84.5834 16.1661 83.3351 21.2992C83.311 21.3984 83.2794 21.4878 83.2472 21.5697C83.418 22.2999 83.5656 23.068 83.6828 23.8764C83.6971 23.9485 85.8771 35.0909 66.5206 34.9994C47.1658 35.0908 49.3439 23.9503 49.3585 23.8764C49.4757 23.0685 49.6224 22.3005 49.7931 21.5707C49.7608 21.4886 49.7294 21.3987 49.7052 21.2992C48.4569 16.166 47.4924 5.36621 51.5724 3.81877Z" fill="white" stroke="white" stroke-width="3.98836" stroke-linecap="round" stroke-linejoin="round"/>
<path d="M69.7872 8.07021C69.7872 8.07021 77.389 2.27114 81.4691 3.81862C85.5492 5.3661 84.584 16.1666 83.3357 21.2996C82.0873 26.4326 69.7832 8.07021 69.7832 8.07021H69.7872Z" fill="#FF73A2" stroke="#BE1E5A" stroke-width="0.797672" stroke-linecap="round" stroke-linejoin="round"/>
<path d="M63.255 8.07021C63.255 8.07021 55.6532 2.27114 51.5731 3.81862C47.493 5.3661 48.4582 16.1666 49.7065 21.2996C50.9549 26.4326 63.259 8.07021 63.259 8.07021H63.255Z" fill="#FF73A2" stroke="#BE1E5A" stroke-width="0.797672" stroke-linecap="round" stroke-linejoin="round"/>
<path d="M73.7598 9.27468C74.039 9.18694 78.6774 6.78196 80.5041 7.34033C82.3307 7.8987 81.214 14.9661 80.6317 16.1905C80.0494 17.4149 73.7598 9.36243 73.7598 9.36243" fill="#FFEBF0"/>
<path d="M73.7598 9.27468C74.039 9.18694 78.6774 6.78196 80.5041 7.34033C82.3307 7.8987 81.214 14.9661 80.6317 16.1905C80.0494 17.4149 73.7598 9.36243 73.7598 9.36243" stroke="#BE1E5A" stroke-width="0.797672" stroke-linecap="round" stroke-linejoin="round"/>
<path d="M59.2826 9.27468C59.0034 9.18694 54.3649 6.78196 52.5383 7.34033C50.7116 7.8987 51.8283 14.9661 52.4106 16.1905C52.989 17.4149 59.2826 9.36243 59.2826 9.36243" fill="#FFEBF0"/>
<path d="M59.2826 9.27468C59.0034 9.18694 54.3649 6.78196 52.5383 7.34033C50.7116 7.8987 51.8283 14.9661 52.4106 16.1905C52.989 17.4149 59.2826 9.36243 59.2826 9.36243" stroke="#BE1E5A" stroke-width="0.797672" stroke-linecap="round" stroke-linejoin="round"/>
<path d="M83.6834 23.8761C81.3901 8.05425 68.2565 7.5916 66.6173 7.59559H66.5973C66.5694 7.59559 66.5415 7.59559 66.5215 7.59559C66.5016 7.59559 66.4777 7.59559 66.4457 7.59559H66.4258C64.7826 7.59559 51.6529 8.05824 49.3596 23.8761C49.3596 23.8761 47.1022 35.0913 66.5215 34.9996C85.9408 35.0913 83.6834 23.8761 83.6834 23.8761Z" fill="#FFEBF0" stroke="#BE1E5A" stroke-width="0.797672" stroke-linecap="round" stroke-linejoin="round"/>
<path d="M83.7319 24.239C83.708 24.0077 83.6841 23.8761 83.6841 23.8761C81.3908 8.05425 68.2571 7.5916 66.6179 7.59559H66.5979C66.57 7.59559 66.5421 7.59559 66.5222 7.59559C66.5022 7.59559 66.4783 7.59559 66.4464 7.59559H66.4264C64.7832 7.59559 51.6536 8.05824 49.3603 23.8761C49.3603 23.8761 49.3363 24.0077 49.3124 24.239C49.1648 25.7466 49.1768 31.5577 57.5444 33.9586C57.5324 33.9387 57.5164 33.9227 57.5005 33.9068C54.2859 31.0073 53.1731 23.7564 55.1793 21.6346C57.4008 19.2815 64.6516 18.8308 64.6516 18.8308C64.6516 18.8308 65.1781 16.1785 66.5222 16.1067C67.8662 16.1825 68.3927 18.8308 68.3927 18.8308C68.3927 18.8308 75.6396 19.2815 77.8651 21.6346C79.8712 23.7564 78.7624 31.0112 75.5438 33.9068C75.5279 33.9188 75.5159 33.9387 75.5 33.9586C83.8675 31.5577 83.8755 25.7466 83.7319 24.239Z" fill="#FF73A2" stroke="#BE1E5A" stroke-width="0.797672" stroke-linecap="round" stroke-linejoin="round"/>
<path d="M72.1852 27.6171C72.9869 27.6171 73.6369 26.5011 73.6369 25.1244C73.6369 23.7477 72.9869 22.6317 72.1852 22.6317C71.3834 22.6317 70.7334 23.7477 70.7334 25.1244C70.7334 26.5011 71.3834 27.6171 72.1852 27.6171Z" fill="#5A2D64"/>
<path d="M60.857 27.6171C61.6588 27.6171 62.3088 26.5011 62.3088 25.1244C62.3088 23.7477 61.6588 22.6317 60.857 22.6317C60.0552 22.6317 59.4053 23.7477 59.4053 25.1244C59.4053 26.5011 60.0552 27.6171 60.857 27.6171Z" fill="#5A2D64"/>
<path d="M66.521 26.3648C65.6355 26.3648 65.4082 26.5562 65.4082 26.8115C65.4082 27.0668 66.0065 27.5055 66.521 27.5055C67.0355 27.5055 67.6337 27.0668 67.6337 26.8115C67.6337 26.5562 67.4064 26.3648 66.521 26.3648Z" fill="#FF73A2"/>
<path d="M32.2837 29.1527C32.2837 29.1527 32.3116 29.1168 32.3275 29.1008C32.3913 29.025 32.4552 28.9453 32.519 28.8695C32.5429 28.8376 32.5668 28.8097 32.5908 28.7778C32.6426 28.71 32.6945 28.6422 32.7463 28.5744C32.7702 28.5424 32.7942 28.5105 32.8181 28.4746C32.87 28.4029 32.9178 28.3311 32.9697 28.2593C32.9896 28.2314 33.0095 28.2034 33.0295 28.1715C33.0973 28.0718 33.1611 27.9681 33.2249 27.8644C34.6169 25.5592 35.0316 22.6995 34.7166 19.4889C34.3217 15.4925 32.7742 12.2301 30.3732 9.853C31.2188 9.37838 31.5897 8.46505 31.5458 7.78304C31.4022 5.60938 29.2405 5.53361 28.8337 5.62933C28.8337 5.62933 29.3722 3.70694 27.9164 2.57424C27.4219 2.19136 26.8116 1.972 25.9581 1.99593C23.4335 2.06373 21.4074 4.08184 20.3186 5.45384C19.7243 5.398 19.1141 5.36609 18.4959 5.36211C18.468 5.36211 18.4361 5.36211 18.4082 5.36211C18.3802 5.36211 18.3483 5.36211 18.3204 5.36211C9.44233 5.4339 2.96524 10.6746 2.09577 19.4889C1.77671 22.6995 2.1915 25.5592 3.58742 27.8644C3.65123 27.9681 3.71505 28.0718 3.78285 28.1715C3.80279 28.1994 3.82273 28.2274 3.84268 28.2593C3.89054 28.3311 3.94238 28.4029 3.99423 28.4746C4.01816 28.5066 4.04209 28.5385 4.06602 28.5744C4.11787 28.6422 4.16972 28.71 4.22157 28.7817C4.2455 28.8137 4.26943 28.8416 4.29336 28.8735C4.35717 28.9533 4.42099 29.029 4.4848 29.1048C4.50075 29.1208 4.51272 29.1407 4.52867 29.1567C4.60844 29.2524 4.6922 29.3441 4.77994 29.4358C4.79589 29.4518 4.81583 29.4717 4.83179 29.4877C4.89959 29.5595 4.97138 29.6313 5.04317 29.7031C5.07109 29.731 5.09901 29.7589 5.13092 29.7868C5.19473 29.8466 5.25854 29.9105 5.32236 29.9703C5.35426 29.9982 5.38617 30.0301 5.41808 30.058C5.48588 30.1179 5.55368 30.1817 5.62547 30.2415C5.65339 30.2654 5.68131 30.2894 5.70923 30.3133C5.90865 30.4808 6.11604 30.6403 6.33141 30.7959C6.36332 30.8158 6.39124 30.8397 6.42314 30.8597C6.50291 30.9155 6.58268 30.9714 6.66245 31.0232C6.70233 31.0471 6.73822 31.0751 6.77811 31.099C6.85788 31.1508 6.93365 31.1987 7.01342 31.2505C7.0533 31.2745 7.09319 31.2984 7.13307 31.3223C7.2248 31.3782 7.31255 31.43 7.40827 31.4819C7.43619 31.4978 7.46809 31.5178 7.49601 31.5337C7.61965 31.6015 7.74728 31.6693 7.87491 31.7371C7.89485 31.7491 7.91878 31.7571 7.93872 31.769C8.04641 31.8249 8.15409 31.8767 8.26577 31.9286C8.30964 31.9485 8.35351 31.9685 8.39738 31.9884C8.48911 32.0323 8.58085 32.0721 8.67657 32.112C8.72443 32.132 8.77229 32.1559 8.82015 32.1758C8.91587 32.2157 9.01159 32.2556 9.1113 32.2955C9.15517 32.3154 9.20303 32.3314 9.2469 32.3513C9.37054 32.3992 9.49817 32.4471 9.6258 32.4949C9.64574 32.5029 9.66568 32.5109 9.68562 32.5149C9.83319 32.5667 9.98475 32.6186 10.1403 32.6704C10.1842 32.6824 10.2241 32.6983 10.2679 32.7103C10.3796 32.7462 10.4953 32.7821 10.6069 32.814C10.6628 32.8299 10.7186 32.8459 10.7744 32.8618C10.8821 32.8937 10.9898 32.9217 11.0975 32.9536C11.1533 32.9695 11.2132 32.9855 11.269 33.0014C11.3887 33.0333 11.5083 33.0613 11.628 33.0892C11.6758 33.1011 11.7237 33.1131 11.7755 33.1251C11.8992 33.153 12.0228 33.1809 12.1464 33.2088C12.5692 34.2418 13.5105 34.9717 14.6232 34.9956C15.5485 35.0195 16.3781 34.5489 16.9046 33.8071C16.9484 33.8071 16.9923 33.8111 17.0362 33.8151C17.427 34.1102 17.9096 34.2857 18.4401 34.2857C18.9705 34.2857 19.4531 34.1102 19.844 33.8151C19.8719 33.8151 19.9038 33.8151 19.9317 33.8111C20.4263 34.517 21.2 34.9797 22.0814 34.9996C23.2341 35.0275 24.2431 34.2897 24.6938 33.2128C24.8214 33.1849 24.9491 33.157 25.0727 33.1291C25.1206 33.1171 25.1684 33.1051 25.2203 33.0932C25.3399 33.0653 25.4596 33.0333 25.5792 33.0054C25.6391 32.9895 25.6949 32.9735 25.7507 32.9576C25.8584 32.9296 25.9661 32.8977 26.0738 32.8658C26.1296 32.8499 26.1855 32.8339 26.2413 32.818C26.357 32.7821 26.4686 32.7502 26.5803 32.7143C26.6242 32.7023 26.6681 32.6864 26.7079 32.6744C26.8595 32.6225 27.0111 32.5707 27.1626 32.5188C27.1826 32.5109 27.2025 32.5029 27.2224 32.4949C27.3501 32.4471 27.4777 32.4032 27.6013 32.3513C27.6492 32.3314 27.6931 32.3154 27.7369 32.2955C27.8327 32.2556 27.9324 32.2157 28.0281 32.1758C28.0759 32.1559 28.1238 32.136 28.1717 32.112C28.2674 32.0721 28.3591 32.0283 28.4508 31.9884C28.4947 31.9685 28.5386 31.9485 28.5825 31.9286C28.6941 31.8767 28.8018 31.8249 28.9055 31.769C28.9255 31.7571 28.9494 31.7491 28.9693 31.7371C29.097 31.6693 29.2246 31.6015 29.3482 31.5337C29.3801 31.5178 29.4081 31.4978 29.436 31.4819C29.5277 31.43 29.6194 31.3782 29.7112 31.3223C29.7511 31.2984 29.7909 31.2745 29.8308 31.2505C29.9106 31.2027 29.9904 31.1508 30.0661 31.099C30.106 31.0751 30.1419 31.0471 30.1818 31.0232C30.2616 30.9674 30.3413 30.9155 30.4211 30.8597C30.453 30.8397 30.4849 30.8158 30.5128 30.7959C30.7282 30.6403 30.9356 30.4768 31.135 30.3133C31.1629 30.2894 31.1909 30.2654 31.2228 30.2415C31.2946 30.1817 31.3624 30.1218 31.4302 30.062C31.4621 30.0341 31.494 30.0022 31.5259 29.9743C31.5897 29.9144 31.6535 29.8546 31.7173 29.7908C31.7452 29.7629 31.7771 29.735 31.8051 29.7071C31.8769 29.6353 31.9447 29.5635 32.0164 29.4917C32.0324 29.4717 32.0523 29.4558 32.0683 29.4398C32.152 29.3481 32.2358 29.2524 32.3196 29.1606L32.2837 29.1527Z" fill="white" stroke="white" stroke-width="3.98836" stroke-miterlimit="10" stroke-linejoin="round"/>
<path fill-rule="evenodd" clip-rule="evenodd" d="M19.4268 6.70618C19.4268 6.70618 22.1069 2.09564 25.9477 1.99593C26.8012 1.972 27.4115 2.19136 27.906 2.57424C29.3657 3.70694 28.8233 5.62933 28.8233 5.62933C29.2301 5.5336 31.3958 5.60938 31.5354 7.78304C31.5952 8.69637 30.9092 10.0285 29.3378 10.1561C26.554 10.3834 21.5685 8.68441 19.4268 6.70618Z" fill="#FFDA39" stroke="#FF8E3E" stroke-width="0.797672" stroke-linecap="round" stroke-linejoin="round"/>
<path d="M34.7095 19.4849C33.8361 10.6706 27.363 5.42991 18.4849 5.36211C18.4569 5.36211 18.425 5.36211 18.3971 5.36211C18.3692 5.36211 18.3373 5.36211 18.3094 5.36211C9.43129 5.4339 2.9542 10.6746 2.08473 19.4889C1.2751 27.6969 5.25149 33.6156 18.1299 33.8589H18.6683C31.5467 33.6196 35.5231 27.6969 34.7135 19.4889L34.7095 19.4849Z" fill="#FFDA39" stroke="#FF8E3E" stroke-width="0.797672" stroke-linecap="round" stroke-linejoin="round"/>
<path d="M3.56942 27.8604C5.73909 31.4539 10.2818 33.7074 18.1229 33.8549H18.6614C26.5065 33.7074 31.0452 31.4539 33.2149 27.8604C28.9434 29.7429 23.8542 30.8357 18.3902 30.8357C12.9261 30.8357 7.83696 29.7429 3.56543 27.8604H3.56942Z" fill="#F0503C" stroke="#C4321E" stroke-width="0.797672" stroke-linecap="round" stroke-linejoin="round"/>
<path d="M11.5144 23.1063C12.3712 23.1063 13.0658 22.0349 13.0658 20.7133C13.0658 19.3917 12.3712 18.3203 11.5144 18.3203C10.6575 18.3203 9.96289 19.3917 9.96289 20.7133C9.96289 22.0349 10.6575 23.1063 11.5144 23.1063Z" fill="#843A2C"/>
<path d="M25.07 23.1063C25.9269 23.1063 26.6215 22.0349 26.6215 20.7133C26.6215 19.3917 25.9269 18.3203 25.07 18.3203C24.2132 18.3203 23.5186 19.3917 23.5186 20.7133C23.5186 22.0349 24.2132 23.1063 25.07 23.1063Z" fill="#843A2C"/>
<path d="M17.4545 32.0343C17.4952 30.3585 16.2786 28.9697 14.7371 28.9323C13.1957 28.8949 11.9131 30.2231 11.8725 31.8989C11.8318 33.5746 13.0484 34.9634 14.5899 35.0008C16.1313 35.0382 17.4139 33.7101 17.4545 32.0343Z" fill="#F0503C" stroke="#C4321E" stroke-width="0.797672" stroke-linecap="round" stroke-linejoin="round"/>
<path d="M24.9155 32.0365C24.9561 30.3607 23.7395 28.9719 22.198 28.9345C20.6566 28.8971 19.3741 30.2253 19.3334 31.9011C19.2927 33.5768 20.5094 34.9656 22.0508 35.003C23.5922 35.0404 24.8748 33.7123 24.9155 32.0365Z" fill="#F0503C" stroke="#C4321E" stroke-width="0.797672" stroke-linecap="round" stroke-linejoin="round"/>
<path d="M18.4091 34.2897C19.6911 34.2897 20.7303 33.2505 20.7303 31.9685C20.7303 30.6865 19.6911 29.6472 18.4091 29.6472C17.1271 29.6472 16.0879 30.6865 16.0879 31.9685C16.0879 33.2505 17.1271 34.2897 18.4091 34.2897Z" fill="#F0503C" stroke="#C4321E" stroke-width="0.797672" stroke-linecap="round" stroke-linejoin="round"/>
<path d="M19.8482 21.9018C19.8482 22.7633 19.3018 23.3137 18.2928 23.3137C17.3475 23.3137 16.7373 22.7673 16.7373 21.9018C16.7373 21.0364 17.543 20.135 18.2928 20.135C19.0426 20.135 19.8482 21.0284 19.8482 21.9018Z" fill="#FF8E12"/>
</svg>
