<?xml version="1.0" encoding="UTF-8"?>
<!-- Generated by Pixelmator Pro 3.8 -->
<svg width="932" height="513" viewBox="0 0 932 513" xmlns="http://www.w3.org/2000/svg">
    <g id="g1">
        <g id="g2">
            <path id="path34" fill="none" stroke="#ffffff" stroke-width="19.580267" stroke-linecap="round" stroke-linejoin="round" d="M 732.912598 216.314453 C 732.477051 204.376953 718.608887 188.987061 699.431152 188.987061 C 681.369629 188.987061 673.540039 196.860596 673.540039 206.996338 C 673.540039 210.552734 674.810547 213.592285 677.049316 215.998047 C 628.52002 235.723633 630.30957 307.968994 635.182617 326.666016 C 639.78418 344.320557 652.437988 372.263428 704.286133 372.491211 C 704.286133 372.492188 704.912598 372.492188 704.912598 372.491211 C 756.76123 372.263428 769.414551 344.320557 774.015625 326.666016 C 778.863281 308.067627 780.659668 236.483643 732.912598 216.314453 Z"/>
            <path id="path35" fill="#ff8dae" stroke="none" d="M 704.679688 210.991211 C 704.679688 210.990234 704.679688 210.989258 704.679688 210.988037 C 704.652344 210.988037 704.546387 210.988037 704.519043 210.988037 C 704.519043 210.989258 704.519043 210.990234 704.519043 210.991211 C 628.016113 211.124512 629.526855 304.966064 635.182617 326.666016 C 639.78418 344.320557 652.4375 372.263428 704.286133 372.491211 C 704.286133 372.492188 704.912598 372.492188 704.912598 372.491211 C 756.76123 372.263428 769.414551 344.320557 774.015625 326.666016 C 779.671875 304.966064 781.182617 211.124512 704.679688 210.991211 Z"/>
            <path id="path36" fill="#fffee9" stroke="none" d="M 736.382813 277.026123 C 736.382813 295.041748 721.779297 309.645264 703.764648 309.645264 C 685.75 309.645264 671.146484 295.041748 671.146484 277.026123 C 671.146484 259.011719 685.75 244.407959 703.764648 244.407959 C 721.779297 244.407959 736.382813 259.011719 736.382813 277.026123 Z"/>
            <path id="path37" fill="none" stroke="#b83956" stroke-width="9.790133" stroke-linecap="round" stroke-linejoin="round" d="M 681.632324 238.725586 C 685.504395 232.774658 694.308594 228.324219 703.764648 228.324219 C 713.088867 228.324219 720.558594 232.624023 725.425293 238.731689"/>
            <path id="path38" fill="#b83956" stroke="none" d="M 720.247559 277.026123 C 720.247559 286.129639 712.867676 293.508789 703.764648 293.508789 C 694.661621 293.508789 687.282227 286.129639 687.282227 277.026123 C 687.282227 267.923828 694.661621 260.543701 703.764648 260.543701 C 712.867676 260.543701 720.247559 267.923828 720.247559 277.026123 Z"/>
            <path id="path39" fill="#d55d6f" stroke="none" d="M 724.414063 327.331299 C 724.414063 335.625977 715.168945 340.684814 703.764648 340.684814 C 692.360352 340.684814 683.115234 335.625977 683.115234 327.331299 C 683.115234 319.037598 692.360352 311.202881 703.764648 311.202881 C 715.168945 311.202881 724.414063 319.037598 724.414063 327.331299 Z"/>
            <path id="path40" fill="none" stroke="#b83956" stroke-width="7.832107" stroke-linecap="round" stroke-linejoin="round" d="M 699.526367 325.771973 L 708.279785 325.771973"/>
            <path id="path41" fill="#ffcd40" stroke="none" d="M 732.953613 216.895264 C 732.953613 204.883545 718.91748 188.987061 699.431152 188.987061 C 681.369629 188.987061 673.539551 196.860596 673.539551 206.996338 C 673.539551 216.307373 682.196777 222.111816 694.359375 222.111816 C 706.522461 222.111816 713.621582 217.230957 714.082031 212.536377 C 717.952637 212.536377 727.396973 214.19043 732.953613 216.895264 Z"/>
            <path id="path42" fill="#b83956" fill-rule="evenodd" stroke="none" d="M 777.014648 271.252441 C 771.17041 244.199463 758.044922 223.661621 736.593262 213.664551 C 734.405273 198.960693 718.011719 185.071045 699.431152 185.071045 C 680.613281 185.071045 669.624023 193.505859 669.624023 206.996338 C 669.624023 209.62207 670.173828 212.090088 671.228516 214.325439 C 650.698242 224.492188 638.02832 244.57373 632.264648 270.879639 C 627.816895 291.180176 628.047363 314.817139 631.393066 327.653809 C 634.675293 340.246094 640.014648 350.558594 649.393555 359.020996 C 661.730957 370.153076 679.679688 376.299316 704.269043 376.407227 L 704.269043 376.397461 C 704.48877 376.411621 704.709961 376.411621 704.929688 376.397461 L 704.929688 376.407227 C 729.519043 376.299316 747.467773 370.153076 759.805176 359.020996 C 769.184082 350.558594 774.523438 340.246094 777.805176 327.653564 C 781.126465 314.910156 781.379883 291.456055 777.014648 271.252441 Z M 699.431152 188.987061 C 718.608887 188.987061 732.477051 204.376953 732.912598 216.314453 C 780.659668 236.483643 778.863281 308.067627 774.015625 326.666016 C 769.513672 343.940918 757.30127 371.066895 708.20166 372.438477 C 707.123047 372.46875 706.026855 372.486328 704.912598 372.491211 C 704.912598 372.492188 704.286133 372.492188 704.286133 372.491211 C 703.171875 372.486328 702.075684 372.46875 700.99707 372.438477 C 651.897949 371.066895 639.685059 343.940918 635.182617 326.666016 C 630.30957 307.968994 628.52002 235.723633 677.049316 215.998047 C 674.810547 213.592285 673.540039 210.552734 673.540039 206.996338 C 673.540039 196.860596 681.369629 188.987061 699.431152 188.987061 Z"/>
        </g>
        <g id="g3">
            <path id="path43" fill="none" stroke="#ffffff" stroke-width="15.664214" d="M 481.998535 367.328613 L 431.81543 367.328613 C 411.248535 367.328613 389.105957 364.342041 380.089355 347.980469 C 373.322754 335.703369 377.684082 320.252197 384.593262 313.144775 C 386.041016 311.654541 386.809082 309.640381 386.809082 307.562988 L 386.809082 287.88623 C 386.809082 246.735352 420.477539 213.066406 461.628418 213.066406 L 461.628418 213.066406 C 502.779297 213.066406 536.447754 246.735352 536.447754 287.88623 L 536.447754 312.878174 C 536.447754 342.826172 511.945313 367.328613 481.998535 367.328613 Z"/>
            <path id="path44" fill="#92e460" stroke="#2d703b" stroke-width="3.916054" d="M 481.998535 367.328613 L 431.81543 367.328613 C 411.248535 367.328613 389.105957 364.342041 380.089355 347.980469 C 373.322754 335.703369 377.684082 320.252197 384.593262 313.144775 C 386.041016 311.654541 386.809082 309.640381 386.809082 307.562988 L 386.809082 287.88623 C 386.809082 246.735352 420.477539 213.066406 461.628418 213.066406 L 461.628418 213.066406 C 502.779297 213.066406 536.447754 246.735352 536.447754 287.88623 L 536.447754 312.878174 C 536.447754 342.826172 511.945313 367.328613 481.998535 367.328613 Z"/>
            <path id="path45" fill="#fffee9" stroke="none" d="M 500.847168 287.085693 C 500.847168 309.952637 482.310059 328.48999 459.443359 328.48999 C 436.577148 328.48999 418.040039 309.952637 418.040039 287.085693 C 418.040039 264.218994 436.577148 245.682617 459.443359 245.682617 C 482.310059 245.682617 500.847168 264.218994 500.847168 287.085693 Z"/>
            <path id="path46" fill="#2d703b" stroke="none" d="M 487.162598 287.085693 C 487.162598 302.394287 474.752441 314.804932 459.443359 314.804932 C 444.134766 314.804932 431.724609 302.394287 431.724609 287.085693 C 431.724609 271.7771 444.134766 259.366699 459.443359 259.366699 C 474.752441 259.366699 487.162598 271.7771 487.162598 287.085693 Z"/>
            <path id="path47" fill="none" stroke="#2d703b" stroke-width="9.790133" stroke-linecap="round" stroke-linejoin="round" d="M 436.458496 235.807129 C 440.259277 229.183838 449.875488 223.840088 459.443359 223.840088 C 468.703613 223.840088 478.129883 228.49292 481.937012 235.962646"/>
            <path id="path48" fill="none" stroke="#2d703b" stroke-width="7.832107" stroke-linecap="round" stroke-linejoin="round" d="M 481.268066 337.748047 C 494.117188 335.401123 501.857422 328.351563 506.070801 318.400879"/>
        </g>
        <g id="g4">
            <path id="path49" fill="none" stroke="#ffffff" stroke-width="15.664214" stroke-linecap="round" stroke-linejoin="round" d="M 306.588379 237.525146 C 302.62207 235.737793 302.865723 230.820557 300.553223 220.049805 C 297.687012 206.700439 287.083496 192.712158 269.414063 189.167969 C 249.438477 185.161133 227.259766 197.22876 222.51123 218.885986 C 219.705078 218.572754 216.857422 218.397705 213.968262 218.397705 C 171.876953 218.397705 137.755371 252.518555 137.755371 294.610352 C 137.755371 336.701172 171.876953 370.822998 213.968262 370.822998 C 256.059082 370.822998 290.180176 336.701172 290.180176 294.610352 C 290.180176 283.928223 287.974121 273.763916 284.006348 264.5354 C 288.492188 262.825195 292.672363 260.688965 296.233398 258.244629 C 305.522461 251.866455 311.911621 239.923828 306.588379 237.525146 Z"/>
            <path id="path50" fill="#e25029" stroke="#b2401d" stroke-width="3.916054" stroke-linecap="round" stroke-linejoin="round" d="M 306.588379 237.525146 C 311.911621 239.923828 305.522461 251.866455 296.23291 258.244629 C 284.190918 266.511719 265.164063 271.377441 250.628418 267.454834 C 226.158691 260.848877 218.49707 240.618652 222.185059 220.255371 C 226.266113 197.722168 249.013672 185.075684 269.414063 189.167969 C 287.083496 192.712158 297.687012 206.700439 300.553223 220.049805 C 302.865723 230.820557 302.62207 235.737793 306.588379 237.525146 Z"/>
            <path id="path51" fill="#ffb64d" stroke="none" d="M 289.590332 296.417969 C 289.590332 338.508789 255.46875 372.630615 213.37793 372.630615 C 171.287109 372.630615 137.165527 338.508789 137.165527 296.417969 C 137.165527 254.327148 171.287109 220.205566 213.37793 220.205566 C 255.46875 220.205566 289.590332 254.327148 289.590332 296.417969 Z"/>
            <path id="path52" fill="#e25029" stroke="none" d="M 289.458496 293.593018 C 282.624023 283.756348 267.897461 276.852295 248.888184 273.161621 C 248.311523 273.049805 247.881836 272.570557 247.825684 271.985596 C 246.86377 261.979004 242.491211 253.333252 237.415527 248.937744 C 237.048828 248.620361 236.512207 248.991699 236.675781 249.44751 C 238.709961 255.111572 239.846191 261.995117 240.033203 270.150635 C 240.051758 270.962402 239.347168 271.606201 238.541016 271.504395 C 230.550781 270.499512 221.987793 269.979736 213.095703 269.979736 C 204.02832 269.979736 195.307617 270.500488 187.179688 271.557373 C 186.373535 271.662109 185.666016 271.02124 185.681641 270.208496 C 185.841797 262.031738 187.005371 255.114502 189.04541 249.444336 C 189.209473 248.988525 188.67334 248.617432 188.306152 248.934814 C 183.199219 253.345459 178.837891 262.013428 177.893555 272.043701 C 177.838379 272.629639 177.408691 273.109619 176.831543 273.222656 C 158.699219 276.770752 144.516113 283.264893 137.457031 292.574951 C 140.648438 251.04541 173.445313 218.405029 213.408691 218.405029 C 253.724609 218.405029 286.736816 251.59375 289.458496 293.593018 Z"/>
            <path id="path53" fill="none" stroke="#b2401d" stroke-width="3.916054" stroke-linecap="round" stroke-linejoin="round" d="M 221.69873 328.085205 C 220.662598 332.499023 216.446777 334.020752 213.968262 334.020752 C 211.333008 334.020752 207.394043 332.429688 206.236816 328.085205"/>
            <path id="path54" fill="#fffee9" stroke="none" d="M 213.577148 304.010742 C 213.577148 321.198242 199.643555 335.132568 182.455566 335.132568 C 165.267578 335.132568 151.333984 321.198242 151.333984 304.010742 C 151.333984 286.823242 165.267578 272.888916 182.455566 272.888916 C 199.643555 272.888916 213.577148 286.823242 213.577148 304.010742 Z"/>
            <path id="path55" fill="#b2401d" stroke="none" d="M 205.31543 305.795166 C 205.31543 315.629883 197.342773 323.602051 187.507324 323.602051 C 177.672852 323.602051 169.699707 315.629883 169.699707 305.795166 C 169.699707 295.959229 177.672852 287.987061 187.507324 287.987061 C 197.342773 287.987061 205.31543 295.959229 205.31543 305.795166 Z"/>
            <path id="path56" fill="#f7741e" stroke="none" d="M 213.577148 304.010742 C 213.577148 286.823242 199.643555 272.888916 182.455566 272.888916 C 168.943359 272.888916 157.442871 281.5 153.141113 293.53418 L 213.577148 304.010742 Z"/>
            <path id="path57" fill="#fffee9" stroke="none" d="M 213.504883 304.010742 C 213.504883 321.198242 227.438477 335.132568 244.626465 335.132568 C 261.814453 335.132568 275.748047 321.198242 275.748047 304.010742 C 275.748047 286.823242 261.814453 272.888916 244.626465 272.888916 C 227.438477 272.888916 213.504883 286.823242 213.504883 304.010742 Z"/>
            <path id="path58" fill="#b2401d" stroke="none" d="M 221.766602 305.795166 C 221.766602 315.629883 229.739258 323.602051 239.574219 323.602051 C 249.40918 323.602051 257.382324 315.629883 257.382324 305.795166 C 257.382324 295.959229 249.40918 287.987061 239.574219 287.987061 C 229.739258 287.987061 221.766602 295.959229 221.766602 305.795166 Z"/>
            <path id="path59" fill="#f7741e" stroke="none" d="M 213.504883 304.010742 C 213.504883 286.823242 227.438477 272.888916 244.626465 272.888916 C 258.138672 272.888916 269.63916 281.5 273.940918 293.53418 L 213.504883 304.010742 Z"/>
            <path id="path60" fill="none" stroke="#b2401d" stroke-width="3.916054" stroke-linecap="round" stroke-linejoin="round" d="M 290.180176 294.610352 C 290.180176 336.701172 256.059082 370.822998 213.968262 370.822998 C 171.876953 370.822998 137.755371 336.701172 137.755371 294.610352 C 137.755371 252.519531 171.876953 218.397705 213.968262 218.397705 C 256.059082 218.397705 290.180176 252.519531 290.180176 294.610352 Z"/>
        </g>
    </g>
</svg>
