<svg width="180" height="180" viewBox="0 0 180 180" fill="none" xmlns="http://www.w3.org/2000/svg">
<g clip-path="url(#clip0_13882_10681)">
<path d="M142.287 14.2333H41.8398C32.4898 14.2333 24.8398 21.8833 24.8398 31.23V145.583C24.8398 154.93 32.4898 162.58 41.8398 162.58H78.9265C123.123 162.58 159.283 126.42 159.283 82.2233V31.23C159.283 21.8833 151.633 14.2333 142.283 14.2333H142.287Z" fill="#FAE9D2"/>
<path d="M36.9366 81.0367C36.0633 81.0367 35.2599 80.8833 34.5699 80.5267C33.5566 80 32.3399 78.84 32.2933 76.2933C32.1566 68.75 30.6299 64.2933 30.6133 64.2467L33.7599 63.15C33.8299 63.35 35.4766 68.16 35.6233 76.2333C35.6366 76.96 35.7966 77.41 36.1033 77.57C37.6233 78.36 42.5866 76.27 46.5899 73.7067C46.6299 71.79 46.6266 66.99 45.7133 63.6833L48.9266 62.7967C50.2266 67.5133 49.9099 74.4133 49.8933 74.7067L49.8533 75.54L49.1633 76.0067C47.7466 76.9633 41.4399 81.04 36.9333 81.04L36.9366 81.0367Z" fill="#E0BF94"/>
<path d="M25.7441 127.81C25.7441 127.81 24.0407 117.44 18.0874 93.58C14.7341 80.14 25.6207 67.9867 57.5907 71.6667C86.8474 75.0333 61.8807 123.13 61.8807 123.13L25.7441 127.81Z" fill="#E0BF94"/>
<path d="M55.4727 86.8256C55.5284 86.8295 55.5739 86.8352 55.6074 86.8392L95.9463 102.342L106.003 123.753C105.523 123.794 104.89 123.847 104.122 123.909C102.24 124.06 99.5489 124.267 96.3145 124.491C89.8447 124.938 81.2035 125.451 72.5107 125.717C63.8118 125.983 55.085 126.001 48.4355 125.461C45.1053 125.191 42.3356 124.782 40.3613 124.211C39.3722 123.925 38.6236 123.609 38.1123 123.276C37.6607 122.981 37.4583 122.717 37.3818 122.504L37.3564 122.416L37.3047 122.142C37.0765 120.746 37.3463 118.984 38.0029 116.989C38.6977 114.878 39.7955 112.592 41.0537 110.352C43.5694 105.873 46.6782 101.659 48.3262 99.5248L48.3271 99.5258C49.0776 98.5559 49.5354 97.3858 49.6211 96.1576L49.6338 95.9115C49.7847 90.5394 51.4572 88.3814 52.8633 87.4965C53.5863 87.0415 54.3009 86.8803 54.8369 86.8334C55.1044 86.81 55.3244 86.8151 55.4727 86.8256Z" fill="#E0BF94" stroke="#FAE9D2" stroke-width="1.5"/>
<path d="M157.314 99.8867C94.8004 94.62 49.7104 110.647 24.8438 123.277V145.587C24.8438 154.933 32.4938 162.583 41.8438 162.583H78.9304C117.067 162.583 149.214 135.66 157.317 99.8867H157.314Z" fill="white"/>
<path d="M91.5208 46.2733C81.4742 34.7067 63.9375 38.0733 67.5742 49.37C60.3975 51.24 59.7008 60.5567 68.3342 62.13L91.5208 46.2733Z" fill="white"/>
<path d="M136.1 94C136.1 94 170.793 85.3834 178.67 105.223C179.646 107.683 177.693 109.207 177.693 109.207C178.453 112.11 174.69 113.767 171.43 111.38C170.85 113.48 166.58 113.77 165.24 109.1L138.706 108.013L136.1 94.0033V94Z" fill="white" stroke="#FAE9D2" stroke-width="1.33333" stroke-linecap="round" stroke-linejoin="round"/>
<path d="M54.6498 87.92C55.1931 72.1733 71.8331 39.49 107.32 43.3967C142.83 47.3067 149.24 78.8 148.26 92.0467C152.06 94.11 160.64 114.853 111.77 113.223C56.7198 111.387 54.6465 87.92 54.6465 87.92H54.6498Z" fill="white"/>
<path d="M45.0952 123.837C45.0952 123.837 42.5618 123.66 40.2318 124.377C39.6385 124.56 39.2285 125.107 39.2285 125.73V127.297C39.2285 127.95 39.5918 128.55 40.1718 128.853C45.2985 131.517 70.3118 144.573 90.4418 156.127C93.1485 157.68 96.5185 157.463 99.0085 155.583C106.099 150.23 121.162 140.293 138.469 136.88C140.405 136.497 142.202 135.593 143.649 134.247C147.675 130.497 157.349 123.433 171.459 119.75C172.165 119.567 172.719 119.02 172.925 118.32L173.182 117.45C173.375 116.8 172.999 116.12 172.345 115.937C168.362 114.823 154.389 110.5 131.825 108.02L45.0918 123.84L45.0952 123.837Z" fill="#C09660"/>
<path d="M42.2344 116.977V124.15C42.2344 125.07 42.7477 125.91 43.5677 126.33L92.4577 151.44C93.551 152.003 94.861 151.927 95.8877 151.25C101.208 147.73 118.894 136.827 139.721 132.73C140.164 132.643 140.578 132.447 140.921 132.153C143.621 129.843 156.594 119.23 169.801 116.737C170.558 116.593 171.168 116.03 171.364 115.287L173.061 108.87C173.344 107.8 172.841 106.677 171.851 106.183C166.914 103.717 151.128 96.9566 124.664 95.8966C124.664 95.8966 115.868 95.0566 100.014 102.533C100.014 102.533 69.4777 102.113 44.5544 113.377C43.141 114.017 42.2377 115.43 42.2377 116.983L42.2344 116.977Z" fill="white"/>
<path d="M140.914 132.153C143.608 129.85 156.588 119.23 169.798 116.733C170.554 116.59 171.164 116.027 171.361 115.283L173.058 108.867C173.201 108.32 173.138 107.76 172.911 107.273C156.774 108.837 142.491 124.957 139.201 128.93C138.761 129.46 138.078 129.733 137.394 129.637C121.004 127.303 101.238 137.167 96.2177 139.863C95.4477 140.277 94.531 140.297 93.741 139.92L42.5177 115.51C42.3344 115.97 42.2344 116.467 42.2344 116.977V124.15C42.2344 125.07 42.7477 125.91 43.5677 126.33L92.4577 151.44C93.551 152.003 94.861 151.927 95.8877 151.25C101.208 147.73 118.898 136.827 139.724 132.73C140.164 132.643 140.574 132.447 140.918 132.157L140.914 132.153Z" fill="#FAE9D2"/>
<path d="M95.0624 140.177C94.6124 140.2 94.1591 140.117 93.7391 139.917L42.5158 115.507C42.3324 115.967 42.2324 116.463 42.2324 116.973V124.147C42.2324 125.067 42.7458 125.907 43.5658 126.327L92.4558 151.437C92.9058 151.667 93.3891 151.783 93.8791 151.803L95.0624 140.177Z" fill="#E0BF94"/>
<path d="M42.2344 116.977V124.15C42.2344 125.07 42.7477 125.91 43.5677 126.33L92.4577 151.44C93.551 152.003 94.861 151.927 95.8877 151.25C101.208 147.73 118.894 136.827 139.721 132.73C140.164 132.643 140.578 132.447 140.921 132.153C143.621 129.843 156.594 119.23 169.801 116.737C170.558 116.593 171.168 116.03 171.364 115.287L173.061 108.87C173.344 107.8 172.841 106.677 171.851 106.183C166.914 103.717 151.128 96.9566 124.664 95.8966C124.664 95.8966 115.868 95.0566 100.014 102.533C100.014 102.533 69.4777 102.113 44.5544 113.377C43.141 114.017 42.2377 115.43 42.2377 116.983L42.2344 116.977Z" stroke="#FAE9D2" stroke-width="1.33333" stroke-miterlimit="10" stroke-linecap="round"/>
<path d="M131.248 123.51C131.248 123.51 114.278 112.13 95.5547 105.337" stroke="#FAE9D2" stroke-width="1.33333" stroke-miterlimit="10" stroke-linecap="round"/>
<path d="M148.264 92.0467C152.064 94.11 160.644 114.853 111.774 113.223C56.7237 111.387 54.6504 87.92 54.6504 87.92C55.0271 77.0167 63.1204 57.9967 79.8404 48.62" fill="white"/>
<path d="M148.58 91.46C150.857 92.9467 151.897 96.0133 152.01 98.5933C152.11 101.113 151.12 103.607 149.49 105.507C139.03 117.623 101.38 114.247 86.6499 111.033C76.8632 108.833 66.8232 105.34 59.5899 98.0667C56.9399 95.26 54.5999 91.87 53.9766 87.98C54.1266 83.8233 55.1699 79.7767 56.5666 75.89C59.3899 68.2167 63.8732 61.14 69.7366 55.43C72.6832 52.59 75.9999 50.1333 79.5932 48.1833C80.1799 47.9 80.6332 48.7033 80.0866 49.0533C76.6432 51.0833 73.4666 53.5367 70.6266 56.3433C62.4232 64.56 56.0632 76.23 55.3232 87.9433C55.8699 91.09 58.1266 94.6467 60.5632 97.12C66.6599 103.283 75.0466 106.62 83.3166 108.823C98.3699 112.763 127.877 114.913 142.173 108.897C144.36 107.937 146.527 106.71 148.147 104.94C151.11 101.993 151.477 97.0933 149.05 93.7367C148.717 93.2733 148.317 92.8333 147.917 92.6167C147.147 92.16 147.807 91.0333 148.573 91.4567L148.58 91.46Z" fill="#FAE9D2"/>
<path d="M106.75 108.337C114.867 107.143 117.12 117.433 111.61 115.75L106.75 108.337Z" fill="white" stroke="#FAE9D2" stroke-width="1.33333" stroke-miterlimit="10" stroke-linecap="round"/>
<path d="M106.671 115.83C111.068 119.767 106.834 122.577 99.3209 121.633C91.7176 123.61 86.8909 120.427 86.8909 120.427C76.4776 122.28 56.7942 114.82 62.0242 105.73C66.8676 97.3133 95.1576 98.1267 105.981 107.23C114.561 110.87 114.888 119.517 108.434 118.543" fill="white"/>
<path d="M106.671 115.83C111.068 119.767 106.834 122.577 99.3209 121.633C91.7176 123.61 86.8909 120.427 86.8909 120.427C76.4776 122.28 56.7942 114.82 62.0242 105.73C66.8676 97.3133 95.1576 98.1267 105.981 107.23C114.561 110.87 114.888 119.517 108.434 118.543" stroke="#FAE9D2" stroke-width="1.33333" stroke-miterlimit="10" stroke-linecap="round"/>
<path d="M114.046 34.41C113.866 34.41 113.682 34.39 113.506 34.35C108.422 33.23 103.339 32.6634 98.3956 32.6634C97.1722 32.6634 95.9522 32.7 94.7689 32.77C93.9322 32.82 93.1022 32.8867 92.3056 32.97C92.2489 32.9767 92.1922 32.98 92.1389 32.98C91.6489 32.98 91.1956 32.7567 90.8956 32.3667C90.5956 31.98 90.4956 31.4867 90.6189 31.0134C90.8389 30.17 91.1356 29.0467 91.4689 27.83C91.6889 27.0234 92.1856 26.3134 92.8689 25.83C94.9789 24.3434 100.186 20.8034 105.492 18.17C100.012 17.2767 95.6789 17.1067 93.4822 17.0867C92.3056 17.0767 91.3056 16.19 91.1556 15.0234L90.5389 10.27C90.4522 9.59336 90.6589 8.91003 91.1089 8.39669C91.5589 7.88336 92.2056 7.59003 92.8822 7.59003C92.9256 7.59003 92.9689 7.59003 93.0122 7.59336C105.069 8.24669 114.386 11.29 120.076 13.73C120.596 13.9534 120.982 14.3934 121.136 14.94C121.289 15.4867 121.189 16.0667 120.859 16.5334L118.592 19.7234C118.566 19.7634 118.532 19.7967 118.492 19.8267L116.636 21.28C116.599 21.31 116.556 21.3334 116.509 21.3534C113.242 22.63 110.076 24.0367 107.072 25.5367C111.826 26.0834 115.576 27.2267 117.499 27.9067C117.922 28.0567 118.246 28.3834 118.389 28.8067C118.532 29.2334 118.476 29.6934 118.232 30.07L116.162 33.26C115.696 33.98 114.906 34.41 114.046 34.41Z" fill="#E0BF94"/>
<path d="M92.8798 8.09C92.9131 8.09 92.9498 8.09 92.9831 8.09C104.88 8.73333 114.086 11.7067 119.876 14.1867C120.68 14.53 120.956 15.5267 120.45 16.24L118.183 19.43C117.55 19.9233 116.96 20.3867 116.326 20.8833C112.96 22.2 109.193 23.85 105.32 25.8667C110.896 26.3033 115.346 27.6733 117.333 28.3733C117.916 28.58 118.15 29.2767 117.813 29.7933L115.743 32.9833C115.366 33.5667 114.723 33.9033 114.046 33.9033C113.903 33.9033 113.756 33.8867 113.613 33.8567C107.73 32.56 102.556 32.1567 98.3931 32.1567C97.0698 32.1567 95.8464 32.1967 94.7364 32.2633C93.8298 32.3167 92.9998 32.3867 92.2531 32.4633C92.2131 32.4667 92.1764 32.47 92.1364 32.47C91.4464 32.47 90.9198 31.82 91.0998 31.13C91.3198 30.2867 91.6164 29.1667 91.9464 27.95C92.1364 27.2533 92.5631 26.6433 93.1531 26.23C95.3798 24.66 101.343 20.6 107.12 17.9367C100.883 16.8067 95.9131 16.6 93.4831 16.58C92.5498 16.5733 91.7664 15.8767 91.6464 14.95L91.0298 10.1967C90.8831 9.07333 91.7631 8.08333 92.8798 8.08333M92.8798 7.09C92.0598 7.09 91.2764 7.44666 90.7298 8.06666C90.1831 8.68666 89.9331 9.51333 90.0398 10.3333L90.6564 15.0867C90.8398 16.5 92.0531 17.5733 93.4764 17.5867C95.4498 17.6033 99.1598 17.7467 103.883 18.43C99.0431 20.97 94.5131 24.0567 92.5764 25.42C91.7998 25.9667 91.2331 26.7767 90.9798 27.6967C90.6998 28.7167 90.4131 29.79 90.1298 30.8867C89.9664 31.51 90.0998 32.16 90.4931 32.67C90.8898 33.1833 91.4864 33.4767 92.1331 33.4767C92.2064 33.4767 92.2798 33.4733 92.3531 33.4667C93.1431 33.3833 93.9631 33.3167 94.7931 33.27C95.9664 33.2 97.1798 33.1633 98.3931 33.1633C103.3 33.1633 108.346 33.7267 113.396 34.84C113.61 34.8867 113.826 34.91 114.046 34.91C115.073 34.91 116.023 34.3967 116.58 33.5333L118.65 30.3433C118.98 29.8367 119.056 29.2167 118.86 28.6467C118.666 28.0767 118.23 27.6367 117.663 27.4367C115.95 26.83 112.793 25.86 108.776 25.26C111.32 24.0367 113.97 22.8833 116.69 21.82C116.78 21.7833 116.866 21.7367 116.943 21.6767L118.8 20.2233C118.876 20.1633 118.943 20.0933 119 20.0167L121.266 16.8267C121.683 16.2367 121.813 15.5033 121.616 14.8067C121.423 14.1167 120.933 13.5567 120.273 13.2733C114.546 10.82 105.173 7.75333 93.0398 7.09666C92.9864 7.09666 92.9331 7.09333 92.8831 7.09333L92.8798 7.09Z" fill="white"/>
<path d="M136.452 44.04C136.025 44.04 135.622 43.9067 135.278 43.6534C130.525 40.13 126.165 38.1167 123.345 37.0467C122.778 36.83 122.208 36.63 121.658 36.4467C121.258 36.3167 120.948 35.9967 120.828 35.5934C120.708 35.1934 120.795 34.7567 121.055 34.43C121.452 33.9334 121.985 33.2767 122.568 32.5667C122.975 32.0734 123.545 31.7334 124.172 31.61C125.958 31.2634 130.242 30.5 134.425 30.2967C131.218 28.2134 128.545 26.8867 127.148 26.2467C126.308 25.8634 125.878 24.9067 126.145 24.02L127.148 20.6834C127.385 19.9034 128.118 19.3567 128.932 19.3567C129.228 19.3567 129.512 19.4267 129.778 19.5634C137.605 23.5934 142.895 28.3967 145.952 31.7167C146.258 32.05 146.398 32.5 146.332 32.9467C146.265 33.3967 146.002 33.7867 145.608 34.02L143.155 35.4634C143.115 35.4867 143.068 35.5067 143.022 35.5167L141.358 35.93C141.318 35.94 141.278 35.9434 141.238 35.9434C141.232 35.9434 141.222 35.9434 141.215 35.9434C139.835 35.8767 138.448 35.8434 137.095 35.8434C136.115 35.8434 135.138 35.86 134.175 35.8967C136.975 37.6067 138.995 39.3734 140.025 40.3534C140.292 40.6067 140.425 40.9634 140.388 41.3267C140.355 41.6934 140.155 42.02 139.845 42.22L137.522 43.7234C137.202 43.93 136.832 44.04 136.452 44.04Z" fill="#E0BF94"/>
<path d="M128.934 19.86C129.141 19.86 129.351 19.9067 129.551 20.01C137.254 23.9767 142.481 28.6867 145.588 32.0567C146.018 32.5234 145.904 33.2667 145.358 33.59L142.904 35.0334C142.338 35.1734 141.808 35.3034 141.241 35.4467C139.941 35.3834 138.551 35.3467 137.098 35.3467C135.644 35.3467 134.058 35.3867 132.454 35.48C136.024 37.43 138.571 39.66 139.681 40.7167C140.008 41.0267 139.954 41.5567 139.578 41.8034L137.254 43.3067C137.011 43.4634 136.734 43.5434 136.458 43.5434C136.148 43.5434 135.841 43.4467 135.584 43.2534C130.944 39.8134 126.664 37.7667 123.531 36.58C122.914 36.3467 122.341 36.1434 121.821 35.9734C121.304 35.8034 121.111 35.17 121.451 34.7467C121.848 34.2534 122.378 33.5967 122.958 32.89C123.291 32.4834 123.754 32.2067 124.271 32.1067C126.218 31.7267 131.381 30.8067 136.008 30.7567C132.204 28.15 128.968 26.5367 127.361 25.8C126.744 25.5167 126.431 24.8234 126.628 24.1734L127.631 20.8367C127.811 20.24 128.358 19.8667 128.938 19.8667M128.934 18.86C127.901 18.86 126.968 19.5534 126.671 20.5434L125.668 23.88C125.331 25.0034 125.878 26.2167 126.941 26.7034C128.131 27.25 130.258 28.2967 132.858 29.8967C129.171 30.1834 125.654 30.8134 124.078 31.12C123.338 31.2634 122.664 31.6667 122.184 32.25C121.694 32.8467 121.184 33.4734 120.668 34.1167C120.304 34.57 120.184 35.1767 120.351 35.7334C120.518 36.2934 120.948 36.7367 121.504 36.92C122.051 37.1 122.611 37.2967 123.168 37.51C125.961 38.5667 130.274 40.56 134.981 44.05C135.408 44.3667 135.918 44.5367 136.451 44.5367C136.928 44.5367 137.391 44.4 137.791 44.14L140.114 42.6367C140.554 42.3534 140.834 41.89 140.884 41.37C140.934 40.85 140.744 40.3467 140.368 39.9867C139.501 39.16 137.941 37.7867 135.811 36.35C136.238 36.3434 136.664 36.34 137.094 36.34C138.441 36.34 139.821 36.3734 141.191 36.44C141.208 36.44 141.224 36.44 141.238 36.44C141.318 36.44 141.398 36.43 141.478 36.41L143.141 35.9967C143.234 35.9734 143.324 35.9367 143.408 35.8867L145.861 34.4434C146.384 34.1334 146.738 33.6134 146.824 33.0134C146.914 32.4134 146.728 31.8167 146.318 31.37C143.231 28.02 137.894 23.1767 130.004 19.1134C129.671 18.9434 129.301 18.8534 128.928 18.8534L128.934 18.86Z" fill="white"/>
<path d="M147.176 57.92C146.559 57.92 145.999 57.5334 145.776 56.96C144.332 53.22 142.569 50.49 141.342 48.8567C141.096 48.5267 140.842 48.2067 140.596 47.9034C140.379 47.6434 140.306 47.29 140.399 46.9667C140.489 46.6434 140.736 46.3834 141.056 46.2734C141.466 46.1334 142.009 45.9467 142.606 45.7534C142.812 45.6867 143.026 45.65 143.246 45.65C143.499 45.65 143.749 45.6967 143.986 45.79C145.076 46.2167 147.579 47.24 149.946 48.5367C148.939 46.4067 147.989 44.8434 147.459 44.0267C147.072 43.4334 147.186 42.6367 147.722 42.1734L149.516 40.62C149.776 40.3967 150.106 40.27 150.449 40.27C150.952 40.27 151.426 40.54 151.679 40.9734C154.722 46.16 156.019 50.8634 156.569 53.9C156.632 54.2434 156.539 54.5934 156.316 54.8634C156.092 55.1334 155.759 55.2867 155.409 55.2867C155.402 55.2867 153.436 55.22 153.436 55.22C153.386 55.22 153.339 55.21 153.292 55.1934L152.186 54.8234C152.139 54.8067 152.096 54.7867 152.056 54.7567C150.879 53.93 149.682 53.1534 148.489 52.44C149.336 54.2567 149.796 55.8167 150.012 56.6867C150.086 56.9767 150.022 57.28 149.839 57.5167C149.656 57.7534 149.379 57.89 149.079 57.8934C149.079 57.8934 147.186 57.91 147.182 57.91L147.176 57.92Z" fill="#E0BF94"/>
<path d="M150.443 40.7734C150.756 40.7734 151.066 40.9334 151.239 41.23C154.223 46.3134 155.513 50.9267 156.069 53.9934C156.146 54.41 155.823 54.79 155.403 54.79C155.396 54.79 155.386 54.79 155.38 54.79L153.443 54.7267C153.066 54.6 152.713 54.4834 152.336 54.3567C150.873 53.3267 149.163 52.2234 147.273 51.1767C148.616 53.5967 149.266 55.8067 149.519 56.82C149.593 57.1167 149.37 57.4034 149.063 57.4067L147.18 57.4234C147.18 57.4234 147.173 57.4234 147.17 57.4234C146.756 57.4234 146.386 57.17 146.236 56.7834C144.823 53.1167 143.106 50.3834 141.736 48.56C141.466 48.2 141.213 47.8767 140.976 47.59C140.739 47.3034 140.86 46.87 141.213 46.75C141.62 46.61 142.163 46.4267 142.756 46.23C142.913 46.18 143.076 46.1534 143.239 46.1534C143.429 46.1534 143.62 46.19 143.796 46.26C145.053 46.75 148.356 48.1 151.033 49.7567C149.796 46.8734 148.523 44.7667 147.869 43.76C147.616 43.3734 147.689 42.86 148.039 42.5567L149.833 41.0034C150.009 40.85 150.226 40.7767 150.44 40.7767M150.443 39.7734C149.979 39.7734 149.533 39.94 149.183 40.2434L147.39 41.7967C146.666 42.4234 146.516 43.5 147.036 44.3C147.439 44.92 148.086 45.9734 148.816 47.3834C146.883 46.4167 145.056 45.6734 144.166 45.3234C143.873 45.2067 143.563 45.15 143.246 45.15C142.976 45.15 142.709 45.1934 142.453 45.2767C141.856 45.4734 141.31 45.66 140.9 45.8C140.426 45.9634 140.059 46.3467 139.923 46.83C139.786 47.3134 139.896 47.8334 140.216 48.2234C140.463 48.52 140.706 48.8367 140.95 49.1567C142.156 50.7667 143.896 53.4534 145.316 57.14C145.613 57.9067 146.363 58.42 147.183 58.42C147.183 58.42 147.199 58.42 147.203 58.42L149.083 58.4034C149.536 58.4 149.956 58.19 150.236 57.83C150.513 57.47 150.609 57.0134 150.499 56.5734C150.339 55.93 150.049 54.9167 149.573 53.7C150.309 54.17 151.043 54.66 151.769 55.1734C151.849 55.23 151.936 55.2734 152.029 55.3034L152.359 55.4134L153.136 55.6734C153.226 55.7034 153.323 55.72 153.42 55.7234L155.356 55.7867C155.376 55.7867 155.393 55.7867 155.413 55.7867C155.913 55.7867 156.383 55.5667 156.703 55.1834C157.023 54.8 157.153 54.3 157.066 53.81C156.506 50.7367 155.193 45.97 152.113 40.72C151.769 40.1334 151.133 39.77 150.453 39.77L150.443 39.7734Z" fill="white"/>
<path d="M131.567 101.257C133.851 96.06 138.754 92.16 144.464 91.6433C144.737 91.6067 144.987 91.7967 145.024 92.07C145.064 92.3567 144.851 92.61 144.567 92.6367C143.277 92.84 141.987 93.09 140.797 93.6233C138.081 94.7167 135.801 96.7633 134.181 99.19C133.657 99.9933 133.141 100.897 132.801 101.763C132.451 102.57 131.247 102.083 131.567 101.257Z" fill="#FAE9D2"/>
<path d="M108.994 56.2C108.994 56.2 113.901 55.5333 115.494 59.6133" stroke="#E0BF94" stroke-miterlimit="10" stroke-linecap="round"/>
<path d="M138.25 63.52C139.25 61.8467 141.85 60.46 142.853 62.4733" stroke="#E0BF94" stroke-miterlimit="10" stroke-linecap="round"/>
<path d="M104.248 81.95C106.495 83.4767 109.285 84.15 111.985 84.1367L112.815 84.12L113.645 84.04C113.885 84.02 114.238 83.98 114.472 83.93C115.298 83.81 116.182 83.5733 116.988 83.3633C117.345 83.2767 117.705 83.4933 117.792 83.8533C117.878 84.2033 117.668 84.5567 117.322 84.6533C116.745 84.81 116.175 84.9967 115.588 85.13C115.258 85.1867 114.578 85.3433 114.262 85.3933C113.985 85.4267 113.205 85.52 112.915 85.5567C112.388 85.5733 111.622 85.6333 111.102 85.5967C108.352 85.5267 105.555 84.8133 103.242 83.28C102.342 82.6 103.342 81.2667 104.248 81.95Z" fill="#C09660"/>
<path d="M104.135 83.5733C106.875 85.2333 110.272 85.8867 113.432 85.31C114.475 85.1533 115.565 84.7667 116.542 84.3733C117.368 84.0033 117.925 85.21 117.095 85.5867L116.268 85.9267C114.338 86.7233 112.205 87.08 110.118 86.9733C108.015 86.8867 105.938 86.3367 104.048 85.4133C103.422 85.1067 102.458 84.6933 102.942 83.81C103.192 83.3967 103.745 83.29 104.138 83.5667L104.135 83.5733Z" fill="#C09660"/>
<path d="M135.917 86.4533C137.687 88.5067 141.137 89.33 143.374 87.5933C144.071 87.0633 144.881 88.0867 144.201 88.64C141.404 90.7033 137.234 89.7 135.151 87.0933C134.754 86.5833 135.491 85.9667 135.921 86.4533H135.917Z" fill="#C09660"/>
<path d="M135.802 85.8467C137.806 87.5133 140.992 88.2433 143.226 86.6967C143.932 86.1667 144.736 87.2167 144.032 87.7567C141.269 89.5967 137.476 88.6967 135.146 86.6C134.666 86.1633 135.296 85.4333 135.799 85.8433L135.802 85.8467Z" fill="#C09660"/>
<path d="M125.528 90.56L125.484 91.0067C125.211 93.7834 124.734 100.333 126.188 101.22C126.311 101.297 126.451 101.34 126.591 101.347C126.724 101.353 126.858 101.333 126.988 101.28C128.708 100.577 129.424 93.59 129.604 91.4634L129.638 91.0567L125.528 90.5567V90.56Z" fill="#C09660"/>
<path d="M125.254 93.9734C125.094 96.97 125.134 100.58 126.187 101.22C126.31 101.297 126.45 101.34 126.59 101.347C126.724 101.353 126.857 101.333 126.987 101.28C127.844 100.93 128.45 99.0267 128.867 96.9367C127.854 95.78 126.41 94.7667 125.254 93.9734Z" fill="#E0BF94"/>
<path d="M125.523 90.5567C126.96 91.7567 131.217 93.4867 133.89 91.6234C136.767 89.6167 136.17 84.8367 132.677 84.59C130.5 84.4367 129.64 86.55 127.387 86.95C126.333 87.1667 125.563 88.55 125.523 90.5567Z" fill="#E0BF94"/>
<path d="M31.4472 68.46C36.4039 67.7833 43.5406 67.07 50.8039 67.23C54.0939 67.3 56.7572 65.0567 56.8139 62.1467L56.9372 55.6733C56.9972 52.5367 54.3706 49.77 50.8506 49.2733C45.5806 48.53 37.2039 47.8833 26.7372 48.91C23.1406 49.2633 20.7439 52.2467 21.4839 55.4233L23.3472 63.4133C24.1206 66.7233 27.7272 68.97 31.4506 68.4633L31.4472 68.46Z" fill="#E0BF94"/>
</g>
<defs>
<clipPath id="clip0_13882_10681">
<rect width="180" height="180" fill="white"/>
</clipPath>
</defs>
</svg>
