<svg width="180" height="180" viewBox="0 0 180 180" fill="none" xmlns="http://www.w3.org/2000/svg">
<g clip-path="url(#clip0_13882_10676)">
<path d="M39.7051 164.457C30.0551 164.457 22.2051 156.607 22.2051 146.96V32.6066C22.2051 22.96 30.0551 15.11 39.7051 15.11H140.148C149.798 15.11 157.648 22.96 157.648 32.6066V83.6033C157.648 105.113 149.215 125.393 133.898 140.707C118.582 156.023 98.3018 164.457 76.7917 164.457H39.7051Z" fill="#FAE9D2"/>
<path d="M140.148 15.61C149.498 15.61 157.148 23.26 157.148 32.6066V83.6033C157.148 127.8 120.988 163.96 76.7917 163.96H39.7051C30.3551 163.96 22.7051 156.31 22.7051 146.963V32.6066C22.7051 23.26 30.3551 15.61 39.7051 15.61H140.148ZM140.148 14.61H39.7051C29.7817 14.61 21.7051 22.6833 21.7051 32.6066V146.96C21.7051 156.883 29.7784 164.957 39.7051 164.957H76.7917C87.7284 164.957 98.3551 162.797 108.385 158.537C118.065 154.423 126.768 148.543 134.252 141.06C141.738 133.573 147.618 124.873 151.728 115.193C155.988 105.167 158.148 94.5366 158.148 83.6033V32.6066C158.148 22.6833 150.075 14.61 140.148 14.61Z" fill="white"/>
<path d="M132.614 60.74C112.974 69.98 101.664 59.74 85.947 68.7633C70.7637 77.48 70.1504 96.09 71.9704 96.9967C74.227 98.1233 80.3504 77.5133 101.177 84.2067C114.76 88.5733 128.56 93.8 142.234 91.8567C147.497 91.1067 152.36 89.23 157.06 87.28C157.117 86.06 157.147 84.8333 157.147 83.6V47.19C150.4 50.71 142.877 55.91 132.61 60.74H132.614ZM22.707 71.3667V106.377C31.457 113.237 50.5704 115.023 59.1837 104.743C61.4304 102.06 45.2104 106.263 34.377 95.71C29.4004 90.8633 25.6637 87.4233 22.707 71.3667ZM123.98 47.2933C128.694 46.37 146.357 42.7367 155.594 25.5333C152.897 19.6933 146.98 15.61 140.15 15.61H133.557C135.37 29.9033 127.054 39.6333 118.987 44.9067C113.697 48.3633 118.987 48.2733 123.984 47.2967L123.98 47.2933ZM99.2804 42.7667C106.46 35.86 112.337 25.3167 112.757 15.61H72.507C73.7404 44.9833 52.137 41.9634 44.567 56.9033C32.827 80.07 55.9704 99.4767 60.237 98.1333C64.2604 96.8667 49.4704 78.97 60.2637 65.11C69.5437 53.1967 88.417 53.2167 99.2804 42.7667Z" fill="#E0BF94"/>
<path d="M22.707 116.35V146.96C22.707 156.307 30.357 163.957 39.707 163.957H76.7937C109.344 163.957 137.534 144.34 150.13 116.35H22.707Z" fill="#C09660"/>
<path d="M66.6092 60.7033C66.7992 60.1833 66.9092 59.6233 66.9092 59.04C66.9092 56.3733 64.7458 54.21 62.0792 54.21C59.8792 54.21 58.0225 55.6833 57.4425 57.6966C56.1025 56.71 54.4492 56.12 52.6558 56.12C48.1858 56.12 44.5625 59.7433 44.5625 64.2133C44.5625 68.6833 48.1858 72.3066 52.6558 72.3066C54.4525 72.3066 56.1058 71.7133 57.4492 70.7233C58.4325 71.25 59.5558 71.55 60.7492 71.55C64.6192 71.55 67.7558 68.4133 67.7558 64.5433C67.7558 63.1266 67.3325 61.81 66.6092 60.7066V60.7033Z" fill="white"/>
<path d="M55.8248 66.3932C66.5171 66.3932 75.1848 57.7255 75.1848 47.0333C75.1848 36.341 66.5171 27.6732 55.8248 27.6732C45.1326 27.6732 36.4648 36.341 36.4648 47.0333C36.4648 57.7255 45.1326 66.3932 55.8248 66.3932Z" fill="white"/>
<path d="M66.4277 50.12C74.9881 50.12 81.9277 43.1804 81.9277 34.62C81.9277 26.0596 74.9881 19.12 66.4277 19.12C57.8673 19.12 50.9277 26.0596 50.9277 34.62C50.9277 43.1804 57.8673 50.12 66.4277 50.12Z" fill="white"/>
<path d="M23.9012 54.59C30.4255 54.59 35.7146 49.3009 35.7146 42.7766C35.7146 36.2523 30.4255 30.9633 23.9012 30.9633C17.3769 30.9633 12.0879 36.2523 12.0879 42.7766C12.0879 49.3009 17.3769 54.59 23.9012 54.59Z" fill="white"/>
<path d="M36.5341 67.6633C46.9116 67.6633 55.3241 59.2508 55.3241 48.8733C55.3241 38.4959 46.9116 30.0833 36.5341 30.0833C26.1567 30.0833 17.7441 38.4959 17.7441 48.8733C17.7441 59.2508 26.1567 67.6633 36.5341 67.6633Z" fill="white"/>
<path d="M36.1805 51.6066C46.847 51.6066 55.4939 42.9598 55.4939 32.2933C55.4939 21.6269 46.847 12.98 36.1805 12.98C25.5141 12.98 16.8672 21.6269 16.8672 32.2933C16.8672 42.9598 25.5141 51.6066 36.1805 51.6066Z" fill="white"/>
<path d="M54.2421 45.4833C64.2587 45.4833 72.3788 37.3632 72.3788 27.3466C72.3788 17.33 64.2587 9.20996 54.2421 9.20996C44.2255 9.20996 36.1055 17.33 36.1055 27.3466C36.1055 37.3632 44.2255 45.4833 54.2421 45.4833Z" fill="white"/>
<path d="M66.9225 79.6C69.682 79.6 71.9191 77.8733 71.9191 75.7433C71.9191 73.6133 69.682 71.8866 66.9225 71.8866C64.1629 71.8866 61.9258 73.6133 61.9258 75.7433C61.9258 77.8733 64.1629 79.6 66.9225 79.6Z" fill="white"/>
<path d="M58.5344 30.8027L55.3807 27.649C54.9407 27.209 54.2273 27.209 53.7873 27.649L33.3708 48.0655C32.9308 48.5055 32.9308 49.2189 33.3708 49.6588L36.5245 52.8125C36.9645 53.2525 37.6778 53.2525 38.1178 52.8125L58.5344 32.396C58.9743 31.956 58.9743 31.2427 58.5344 30.8027Z" fill="#C09660"/>
<path d="M36.5246 27.6479L33.3709 30.8016C32.9309 31.2416 32.9309 31.9549 33.3709 32.3949L53.7874 52.8114C54.2274 53.2514 54.9408 53.2514 55.3808 52.8114L58.5345 49.6577C58.9745 49.2178 58.9745 48.5044 58.5345 48.0644L38.1179 27.6479C37.6779 27.2079 36.9646 27.2079 36.5246 27.6479Z" fill="#C09660"/>
<path d="M127.854 56.38C137.267 43.6733 156.704 48.3067 150.84 59.3833C156.127 61.99 155.11 70.48 147.584 69.59L127.854 56.3767V56.38Z" fill="white"/>
<path d="M152.027 68.7267C149.281 64.49 145.631 60.84 141.247 58.3C140.631 57.97 140.141 58.8834 140.731 59.2234C142.287 60.1134 143.777 61.2701 145.117 62.4801C147.327 64.4767 149.264 66.7834 150.864 69.2967C151.291 69.1467 151.681 68.9567 152.027 68.7234V68.7267Z" fill="#FAE9D2"/>
<path d="M132.723 55.1833C111.583 46.4966 68.6731 58.44 66.9865 113.68C66.0165 145.44 76.5031 158.32 85.0331 163.543C122.683 159.723 152.866 129.633 156.833 92.0266C156.496 73.4266 149.166 61.94 132.723 55.1833Z" fill="white"/>
<path d="M76.3297 87.25C74.9463 87.46 73.923 88.63 73.7363 90.06C74.803 91.0867 76.643 91.92 79.8097 91.7833C79.9663 91.28 80.0163 90.7267 79.9297 90.1567C79.6497 88.2933 78.0363 86.9933 76.3297 87.25Z" fill="#C09660"/>
<path d="M109.974 87.3833C108.344 87.3833 106.964 88.4733 106.461 89.99C107.881 91.25 110.091 92.2733 113.534 92.3933C113.641 92.0333 113.698 91.6533 113.698 91.2566C113.698 89.1166 112.031 87.3833 109.974 87.3833Z" fill="#C09660"/>
<path d="M130.854 72.5008C130.854 72.5008 138.382 76.5767 133.014 84.4778" stroke="#FAE9D2" stroke-width="2.57154" stroke-miterlimit="10" stroke-linecap="round"/>
<path d="M138.105 86.9365C138.105 86.9365 138.819 78.4054 148.212 80.154" stroke="#FAE9D2" stroke-width="2.57154" stroke-miterlimit="10" stroke-linecap="round"/>
<path d="M146.631 73.5779C146.631 73.5779 139.173 77.7824 135.342 69.0263" stroke="#FAE9D2" stroke-width="2.57154" stroke-miterlimit="10" stroke-linecap="round"/>
<path d="M96.6203 91.62C96.5903 92.0133 96.3303 92.33 95.9837 92.52C94.2903 93.4533 91.197 93.76 89.187 91.8233C86.987 89.7033 88.207 85.4933 91.3203 85.48C93.807 85.47 93.7203 87.6967 95.647 88.3767C96.4436 88.6833 96.7336 90.0267 96.6203 91.62Z" fill="#E0BF94"/>
<path d="M122.407 84.4333L103.197 85.0967" stroke="#C09660" stroke-miterlimit="10" stroke-linecap="round"/>
<path d="M72.5059 85.08L86.8925 85.48" stroke="#C09660" stroke-miterlimit="10" stroke-linecap="round"/>
<path opacity="0.7" d="M71.8262 88.62C73.9162 92.3666 81.8728 93.0166 85.7262 88.62" stroke="#E0BF94" stroke-miterlimit="10" stroke-linecap="round"/>
<path opacity="0.7" d="M104 88.2033C107.383 93.6467 117.383 93.23 121.51 87.9367" stroke="#E0BF94" stroke-miterlimit="10" stroke-linecap="round"/>
<path d="M105.482 74.8033C107.242 76.6033 112.106 75.8566 114.896 72.2333" stroke="#C09660" stroke-miterlimit="10" stroke-linecap="round"/>
<path d="M101.716 75.3467C101.716 75.3467 101.516 77.1567 103.643 77.3733" stroke="#FAE9D2" stroke-miterlimit="10" stroke-linecap="round"/>
<path d="M80.6875 67.31C80.6875 67.31 84.2908 66.6233 85.7275 70.35" stroke="#C09660" stroke-miterlimit="10" stroke-linecap="round"/>
<path d="M152.683 109.94C114.913 121.447 71.5426 115.263 67.046 109.83L67.1926 107.917C64.326 107.127 62.9726 114.677 65.9593 117.91C73.3726 125.93 89.996 118.533 89.996 118.533C99.6726 126.137 110.726 128.85 130.493 127.763C134.866 127.523 137.009 129.283 140.126 132.903C145.486 126.043 149.756 118.3 152.679 109.937L152.683 109.94Z" fill="#E0BF94"/>
<path d="M94.5803 118.551C94.8162 115.499 92.8693 112.859 90.2317 112.655C87.5942 112.451 85.2647 114.76 85.0288 117.813C84.7928 120.865 86.7397 123.505 89.3773 123.709C92.0149 123.913 94.3443 121.604 94.5803 118.551Z" fill="#E0BF94" stroke="white" stroke-miterlimit="10"/>
<path d="M103.15 119.217C103.432 115.568 101.135 112.414 98.0206 112.174C94.9058 111.933 92.1521 114.696 91.8701 118.345C91.588 121.994 93.8844 125.147 96.9992 125.388C100.114 125.628 102.868 122.866 103.15 119.217Z" fill="#E0BF94" stroke="white" stroke-miterlimit="10"/>
<path d="M88.0755 118.049C88.3576 114.4 86.0612 111.247 82.9464 111.006C79.8316 110.765 77.0779 113.528 76.7959 117.177C76.5138 120.826 78.8102 123.979 81.925 124.22C85.0398 124.461 87.7935 121.698 88.0755 118.049Z" fill="#E0BF94" stroke="white" stroke-miterlimit="10"/>
<path d="M123.874 128.74C123.874 128.74 108.301 127.347 99.6574 123.02C96.3974 121.387 94.3307 120.873 93.2307 121.373C91.8474 122.007 91.8007 123.98 92.6874 124.957C91.6007 124.397 89.0941 123.853 87.5474 124.793C86.4874 125.437 86.1641 126.84 86.8407 128.523C86.8407 128.523 83.7541 138.437 94.6607 143.62C107.694 149.81 125.501 140.417 125.501 140.417" fill="white"/>
<path d="M123.828 129.24C117.068 128.647 110.321 127.58 103.858 125.453C102.425 124.99 100.971 124.397 99.608 123.753C97.8114 122.957 95.6747 121.697 93.7114 121.937C92.6347 122.157 92.5247 123.813 93.1814 124.513L95.378 126.977L92.3814 125.553C90.0114 124.447 85.978 124.597 87.4614 128.277L87.5447 128.49L87.478 128.723C85.308 137.92 92.798 143.717 101.175 144.82C107.318 145.613 113.645 144.313 119.465 142.253C121.425 141.55 123.381 140.743 125.215 139.817C125.545 139.65 125.945 139.783 126.111 140.11C126.278 140.44 126.145 140.84 125.818 141.007C123.881 141.983 121.928 142.787 119.918 143.51C111.955 146.3 102.775 147.913 94.7547 144.387C88.218 141.58 84.418 135.437 86.2114 128.327L86.228 128.773C85.7114 127.56 85.568 125.803 86.608 124.717C88.2814 123.093 91.068 123.49 92.998 124.367L92.198 125.407C90.428 123.287 91.828 120.077 94.7347 120.533C97.4514 120.883 99.728 122.453 102.225 123.41C103.531 123.94 105.055 124.453 106.415 124.843C112.121 126.49 118.041 127.52 123.935 128.247C124.551 128.33 124.501 129.277 123.835 129.24H123.828Z" fill="#FAE9D2"/>
<path d="M43.5107 116.713C38.4307 119.523 43.564 137.673 58.634 137.917C73.7007 138.16 49.0773 116.117 49.3773 116.117C49.6773 116.117 47.0507 114.76 43.514 116.713H43.5107Z" fill="white" stroke="#FAE9D2" stroke-width="1.33333" stroke-miterlimit="10" stroke-linecap="round"/>
<path d="M76.6155 149.803C74.0522 149.803 70.3422 148.413 66.4122 146.94C64.1188 146.08 61.7455 145.19 59.5922 144.587C58.8022 144.363 58.1655 143.773 57.8822 143.007C57.1122 140.9 54.9088 135.077 51.0888 126.56C44.2322 111.27 39.9955 104.317 38.0788 101.53C37.7488 101.05 37.7122 100.433 37.9822 99.9166C38.2522 99.4032 38.7788 99.0832 39.3555 99.0832C39.3888 99.0832 39.4222 99.0832 39.4555 99.0832C48.7622 99.6532 53.7322 101.513 56.6988 102.623C58.1122 103.15 59.1322 103.533 59.9455 103.533C60.1055 103.533 60.2555 103.52 60.4022 103.49C66.3822 102.273 79.5755 101.057 83.4755 100.713C83.5455 100.707 83.6155 100.703 83.6855 100.703C84.5888 100.703 85.3988 101.207 85.8022 102.017C87.6422 105.71 94.0989 119.89 99.9922 147.287C100.089 147.737 99.9788 148.197 99.6922 148.553C99.4055 148.91 98.9755 149.113 98.5155 149.113C97.2822 149.087 95.3722 149.06 93.0922 149.06C88.4988 149.06 82.0388 149.18 77.3422 149.76C77.1155 149.787 76.8722 149.803 76.6155 149.803Z" fill="#FAE9D2"/>
<path d="M39.3552 99.5832C39.3785 99.5832 39.4018 99.5832 39.4252 99.5832C53.1718 100.427 57.1985 104.033 59.9452 104.033C60.1352 104.033 60.3218 104.017 60.5018 103.98C66.4352 102.773 79.4352 101.57 83.5185 101.21C83.5752 101.207 83.6285 101.203 83.6818 101.203C84.3852 101.203 85.0318 101.6 85.3518 102.24C92.7118 117.023 98.2518 141.597 99.4985 147.393C99.6352 148.023 99.1518 148.617 98.5118 148.617C98.5052 148.617 98.4985 148.617 98.4918 148.617C97.3085 148.593 95.3852 148.563 93.0885 148.563C88.3185 148.563 81.9452 148.693 77.2785 149.267C77.0685 149.293 76.8452 149.303 76.6118 149.303C72.6485 149.303 65.5018 145.73 59.7218 144.103C59.0852 143.923 58.5752 143.453 58.3485 142.833C57.5385 140.617 55.3385 134.823 51.5418 126.353C44.7085 111.12 40.4685 104.127 38.4885 101.247C38.0018 100.537 38.5152 99.5832 39.3552 99.5832ZM39.3552 98.5832C38.5918 98.5832 37.8952 99.0066 37.5385 99.6832C37.1818 100.363 37.2285 101.18 37.6652 101.81C39.5718 104.58 43.7918 111.507 50.6318 126.76C54.4418 135.257 56.6418 141.07 57.4118 143.177C57.7485 144.093 58.5118 144.8 59.4552 145.067C61.5885 145.667 63.9518 146.553 66.2352 147.41C70.2085 148.9 73.9618 150.307 76.6152 150.307C76.8918 150.307 77.1552 150.29 77.4018 150.26C82.0718 149.683 88.5118 149.563 93.0885 149.563C95.3618 149.563 97.2685 149.593 98.4718 149.617H98.5152C99.1252 149.617 99.6952 149.343 100.078 148.87C100.462 148.397 100.608 147.78 100.478 147.183C98.9852 140.243 93.5485 116.453 86.2485 101.793C85.7585 100.813 84.7785 100.203 83.6852 100.203C83.6018 100.203 83.5185 100.207 83.4318 100.213C79.5252 100.557 66.3052 101.777 60.3018 103C60.1885 103.023 60.0718 103.033 59.9452 103.033C59.2218 103.033 58.2385 102.663 56.8752 102.153C53.8785 101.033 48.8685 99.1566 39.4852 98.5832C39.4418 98.5832 39.3985 98.5799 39.3552 98.5799V98.5832Z" fill="white"/>
<path d="M50.3925 120.957L34.6825 109.59C33.3891 108.55 33.5125 106.567 34.4025 105.553C35.2925 104.54 36.9491 104.493 38.0858 105.607L52.5658 119.797L50.3925 120.957Z" fill="white" stroke="#FAE9D2" stroke-width="1.33333" stroke-miterlimit="10" stroke-linecap="round"/>
<path d="M94.8754 125.183C93.3288 124.883 89.1188 123.553 87.5455 124.793C86.5721 125.56 86.1621 126.84 86.8388 128.523C86.8388 128.523 83.7521 138.437 94.6588 143.62C107.692 149.81 125.499 140.417 125.499 140.417" fill="white"/>
<path d="M94.7484 125.84C92.8784 125.523 88.3751 123.88 87.3851 126.007C87.0051 126.7 87.1851 127.677 87.5384 128.497L87.4751 128.723C86.1851 133.72 88.2951 138.913 92.6418 141.683C101.578 147.477 113.105 144.823 122.408 141.21C123.378 140.827 124.355 140.417 125.278 139.97C125.528 139.85 125.825 139.953 125.945 140.203C126.062 140.443 125.965 140.733 125.732 140.86C124.778 141.377 123.825 141.827 122.852 142.267C114.152 145.973 103.788 148.3 94.7385 144.403C88.1618 141.577 84.3951 135.473 86.2018 128.327L86.2185 128.773C86.0185 128.27 85.8718 127.727 85.8418 127.147C85.7851 126.277 86.0951 125.317 86.7118 124.66C88.6618 122.597 92.6518 124.1 95.0018 124.53C95.8785 124.713 95.6251 125.997 94.7484 125.84Z" fill="#FAE9D2"/>
<path d="M51.9276 133.683C57.3042 135.477 58.3609 129.177 51.3042 121.357C53.2309 118.94 47.6742 113.937 42.8242 117.717" fill="white"/>
<path d="M52.0844 133.207C55.5477 134.06 56.131 131.677 55.201 128.857C54.3177 126.233 52.6277 123.893 50.8077 121.803L50.471 121.423L50.781 120.94C51.2544 120.33 50.9644 119.517 50.5144 118.913C49.4544 117.49 47.4577 116.767 45.7044 117.093C44.801 117.26 43.9644 117.68 43.2344 118.24C42.941 118.48 42.501 118.427 42.2777 118.12C42.0577 117.823 42.121 117.407 42.4177 117.19C42.8644 116.857 43.3344 116.547 43.8477 116.307C46.451 115.033 49.831 115.777 51.591 118.123C52.371 119.097 52.7144 120.713 51.8277 121.77L51.801 120.907C54.2544 123.667 56.6844 126.9 56.961 130.737C57.1244 133.92 54.6244 135.433 51.7744 134.153C51.2177 133.9 51.5077 133.073 52.091 133.203L52.0844 133.207Z" fill="#FAE9D2"/>
<path d="M94.3191 94.95C92.4525 95.0733 94.4691 96.96 95.5258 96.43C96.4825 95.9533 96.1858 94.8266 94.3191 94.95Z" fill="#FAE9D2"/>
</g>
<defs>
<clipPath id="clip0_13882_10676">
<rect width="180" height="180" fill="white"/>
</clipPath>
</defs>
</svg>
