<svg width="180" height="180" viewBox="0 0 180 180" fill="none" xmlns="http://www.w3.org/2000/svg">
<g clip-path="url(#clip0_13882_10679)">
<path d="M140.224 15.8267H39.7773C30.4273 15.8267 22.7773 23.4767 22.7773 32.8233V147.177C22.7773 156.523 30.4273 164.173 39.7773 164.173H76.864C121.061 164.173 157.221 128.013 157.221 83.8167V32.8233C157.221 23.4767 149.571 15.8267 140.221 15.8267H140.224Z" fill="#FAE9D2"/>
<path d="M72.6673 26.4267L37.264 46.2633L34.384 26.4267L22.7773 45.9333V111.883L87.6507 135.493L108.507 48.87L65.644 56.4467L72.6673 26.4267Z" fill="#E0BF94"/>
<path d="M22.7773 119.263L77.004 164.173C103.404 164.127 126.921 151.177 141.561 131.33L22.7773 94.9066V119.267V119.263Z" fill="white"/>
<path d="M44.9451 152.41C42.8184 144.59 34.5884 145 35.9384 150.523C30.7751 145.587 28.4018 149.31 30.1451 152.193" stroke="#E0BF94" stroke-width="1.33333" stroke-linecap="round" stroke-linejoin="round"/>
<path d="M50.3193 158.1C50.2026 154.683 53.626 153.717 56.1293 158.727" stroke="#E0BF94" stroke-width="1.33333" stroke-linecap="round" stroke-linejoin="round"/>
<path d="M92.6571 134.76C92.1438 134.543 91.5704 134.5 91.0304 134.637L87.6504 135.493C87.2771 135.587 87.2104 136.09 87.5438 136.28L117.394 153.12C119.934 151.623 122.387 149.99 124.74 148.233L92.6571 134.76Z" fill="#FAE9D2"/>
<path d="M153.398 80.0967C153.398 80.0967 163.511 82.7267 169.718 85.3867C170.471 85.71 170.561 86.75 169.861 87.1767C168.628 87.9233 167.471 89.5733 168.048 93.2067C168.761 97.6967 167.621 101.567 166.728 103.74C166.491 104.317 165.655 104.24 165.525 103.63C164.745 99.93 161.991 92.3934 152.525 93.0334C141.155 93.8067 153.395 80.0967 153.395 80.0967H153.398Z" fill="#C09660"/>
<path d="M103.339 31.0833C96.3228 26.8233 90.6161 26.2267 87.0595 26.4767C82.7628 26.7767 79.1561 28.5133 77.4161 31.12C75.6628 33.7467 76.1095 36.6533 78.5395 38.91C74.9695 40.84 73.8161 44.02 74.5761 46.3633C75.1428 48.11 76.9595 49.8133 80.3195 49.8133C81.1661 49.8133 82.1128 49.7033 83.1595 49.46C83.2695 49.4333 83.3728 49.3833 83.4595 49.31L103.433 32.2267C103.606 32.08 103.696 31.86 103.676 31.6333C103.656 31.4067 103.533 31.2033 103.339 31.0867V31.0833Z" fill="white"/>
<path d="M58.5385 80.0967C49.8385 88.7033 38.0619 88.2033 35.0252 95.07C31.6819 102.62 41.5752 116.96 60.3552 115.383C79.1352 113.807 74.7152 107.953 98.2319 117.027C121.745 126.1 160.962 111.423 160.489 80.65L58.5419 80.0967H58.5385Z" fill="#E0BF94"/>
<path d="M38.0961 95.5834C39.7461 92.1567 46.8561 92.6134 50.0961 92.2567C52.1394 92.08 54.1328 91.6567 55.9261 90.75C57.7261 89.8634 59.3461 88.6167 60.7994 87.19C61.4394 86.5867 62.3661 87.5267 61.7161 88.1567C58.5428 91.19 54.5861 93.1167 50.1694 93.2534C48.0561 93.3834 45.9728 93.33 43.9361 93.5434C42.2261 93.77 39.6728 94.1667 38.7361 95.76C38.5828 96.1767 37.9861 96.0234 38.0928 95.5834H38.0961Z" fill="white"/>
<path d="M168.217 57.0667C173.493 52.6667 173.567 59.3034 172.233 64.1367C170.62 69.98 168.217 57.0667 168.217 57.0667Z" fill="white"/>
<path d="M168.217 57.0667C173.493 52.6667 173.567 59.3034 172.233 64.1367C170.62 69.98 168.217 57.0667 168.217 57.0667Z" stroke="#FAE9D2" stroke-width="1.33333" stroke-miterlimit="10"/>
<path d="M147.34 78.2934C147.34 78.2934 156.017 69.89 161.02 60.84C163.593 56.1834 163.803 54.2667 165.087 52.52C166.52 50.57 169.903 51.0867 169.803 55.8867C169.653 63.09 171.703 60.7367 174.47 60.7967C177.58 60.86 177.4 65.1034 173.803 68.33C173.203 68.8667 172.76 69.5734 172.497 70.3467C171.077 74.5267 165.443 87.5267 151.38 87.6034L147.34 78.2934Z" fill="white"/>
<path d="M147.34 78.2934C147.34 78.2934 156.017 69.89 161.02 60.84C163.593 56.1834 163.803 54.2667 165.087 52.52C166.52 50.57 169.903 51.0867 169.803 55.8867C169.653 63.09 171.703 60.7367 174.47 60.7967C177.58 60.86 177.4 65.1034 173.803 68.33C173.203 68.8667 172.76 69.5734 172.497 70.3467C171.077 74.5267 165.443 87.5267 151.38 87.6034L147.34 78.2934Z" stroke="#FAE9D2" stroke-width="1.33333" stroke-miterlimit="10"/>
<path d="M161.04 112.573C158.82 110.827 155.807 110.527 153.18 111.79C150.854 112.907 149.14 115.033 148.237 117.793C138.384 116.653 127.71 119.737 127.254 119.87L127.157 119.897L119.434 124.783L122.037 124.693C132.64 124.32 140.45 127.217 146.157 129.33C149.18 130.45 151.537 131.323 153.37 131.323C153.84 131.323 154.274 131.267 154.677 131.143C158.004 130.12 159.74 127.24 161.514 123.867C164.13 118.883 163.964 114.873 161.04 112.577V112.573Z" fill="#C09660"/>
<path d="M86.9144 115.533L86.8611 115.567C85.6144 116.45 81.9911 118.78 80.2378 118.977C78.5778 119.163 75.4411 117.003 74.3911 116.173C74.3077 116.1 72.2778 114.397 69.3644 114.713C67.1811 114.947 63.4444 116.55 62.9478 124.653C62.7178 128.437 64.1544 131.31 66.8944 132.537C67.7211 132.907 68.6078 133.083 69.4844 133.083C71.0844 133.083 72.6511 132.49 73.7544 131.377C75.6278 129.487 75.6911 127.183 75.2544 125.473C76.4711 125.977 77.8311 126.39 79.2678 126.573C84.4244 127.23 91.6511 121.847 91.9644 121.61C93.3944 120.51 93.6811 119.003 92.7278 117.583C91.5744 115.863 88.6078 114.553 86.9144 115.537V115.533Z" fill="#C09660"/>
<path d="M98.0481 30.2867C129.311 17.8433 161.505 45.04 152.258 88.2167C145.158 121.37 118.621 132.977 89.8348 121.053C64.7681 110.67 67.0148 86.6833 68.0648 83.8267C68.5981 82.3767 69.4948 82.6033 70.4681 82.7233C71.2881 82.8233 72.0381 82.2567 72.1215 81.4333C73.3815 68.9733 73.4281 40.0867 98.0481 30.2867Z" fill="white" stroke="white" stroke-width="1.33333" stroke-miterlimit="10"/>
<path d="M140.621 115.467C125.955 128.787 105.828 128.943 88.4248 121.153C76.8548 116.13 68.8582 106.427 67.1515 93.8133C66.8148 91.49 66.1915 83.1733 68.5848 82.1667C69.2615 81.8333 69.9315 81.9867 70.5615 82.06C71.4382 82.1933 71.2648 83.47 70.4015 83.3833C69.8515 83.3067 69.3548 83.25 69.1748 83.37C68.9048 83.52 68.7282 83.9133 68.6382 84.2533C68.3882 85.21 68.2848 86.2933 68.2248 87.3033C67.9182 93.6267 69.3882 100.073 72.5115 105.58C75.3582 110.653 79.7115 114.83 84.7248 117.75C94.0848 123.077 106.241 126.123 116.985 124.93C125.481 124.043 133.558 120.35 139.962 114.713C140.168 114.53 140.485 114.553 140.668 114.76C140.848 114.967 140.828 115.28 140.625 115.463L140.621 115.467Z" fill="#FAE9D2"/>
<path d="M156.768 79.2867C155.872 77.72 154.662 77.0234 153.528 77.42L153.392 77.4667L153.285 77.5634C146.428 83.8267 131.582 86.3667 113.565 84.35C96.5651 82.45 81.0985 76.9067 74.1618 70.23C73.6485 69.7367 72.9351 69.4534 72.2051 69.4534H72.1785C71.0251 69.4667 70.3118 69.8367 70.0618 70.5634C69.8418 71.1967 69.1785 73.1234 79.2318 81.1834C80.0885 81.87 80.8951 82.7 81.6318 83.65C90.9885 95.7234 102.905 98.7467 116.105 92.4L132.298 92.09C133.498 92.7167 140.322 96.1334 146.462 96.1334C148.962 96.1334 151.352 95.5667 153.202 94.0134C159.095 89.0634 158.515 82.3534 156.765 79.2867H156.768Z" fill="#E0BF94"/>
<path d="M130.909 82.46C133.676 82.41 135.936 85.0967 135.989 88.4567C136.046 91.8167 133.879 94.6533 131.112 94.7933C128.306 94.9367 125.952 92.2567 125.896 88.8033C125.839 85.35 128.099 82.51 130.909 82.46Z" fill="#E0BF94" stroke="white" stroke-miterlimit="10"/>
<path d="M118.319 82.3966C121.606 82.34 124.276 85.1066 124.336 88.5733C124.396 92.04 121.822 94.98 118.539 95.1433C115.199 95.31 112.399 92.5533 112.339 88.9766C112.276 85.4 114.979 82.4533 118.322 82.3966H118.319Z" fill="#E0BF94" stroke="white" stroke-miterlimit="10"/>
<path d="M120.703 88.7499C120.683 91.4266 122.697 93.5533 125.173 93.4966C127.617 93.4399 129.59 91.2766 129.61 88.66C129.63 86.0433 127.687 83.92 125.243 83.9133C122.77 83.9066 120.723 86.0733 120.703 88.7499Z" fill="#E0BF94" stroke="white" stroke-miterlimit="10"/>
<path d="M75.979 96.1933C75.979 96.1933 61.7757 93.7467 49.159 84.0433C38.809 76.08 44.0557 65.0933 49.4957 61.84C50.9523 58.51 57.9023 53.5033 63.5123 62.03C69.2723 70.79 81.109 83.0833 81.109 83.0833" fill="white"/>
<path d="M153.199 128.477C150.979 124.217 155.716 113.683 159.936 115.25" stroke="#E0BF94" stroke-miterlimit="10" stroke-linecap="round"/>
<path d="M58.1388 76.6867L55.6955 36.18L55.6855 36.1034C55.3988 34.3967 53.3488 33.52 50.4721 33.87C47.8621 34.1867 45.1288 35.54 45.2921 37.7734L49.1421 77.9034C49.2688 78.8234 49.9388 79.5267 51.0255 79.8867C51.5688 80.0667 52.2121 80.1567 52.8955 80.1567C53.2621 80.1567 53.6421 80.13 54.0288 80.0767C56.1821 79.7767 58.3821 78.59 58.1421 76.6867H58.1388Z" fill="white"/>
<path d="M58.1385 76.6867L56.7818 54.2167L56.4485 54.0267C54.0052 52.6467 48.9118 53.5733 47.2118 55.7067L47.0352 55.93L49.1452 77.9034C49.2718 78.8234 49.9418 79.5267 51.0285 79.8867C51.5718 80.0667 52.2152 80.1567 52.8985 80.1567C53.2652 80.1567 53.6452 80.13 54.0318 80.0767C55.1318 79.9234 56.1385 79.57 56.8685 79.0767C57.8052 78.4433 58.2585 77.5934 58.1452 76.6867H58.1385Z" fill="#E0BF94"/>
<path d="M47.3391 82.46C39.3091 76.2833 37.9424 64.2367 45.7424 59.1867C50.9657 55.8033 55.1357 61.07 51.7191 62.93C51.7191 62.93 56.6991 71.1733 49.8391 76.25C47.7591 77.79 48.2424 79.4533 48.2424 79.4533" fill="white"/>
<path d="M57.4489 57.4C53.5089 56.4834 47.1322 62.3067 49.4989 66.0367C51.1589 68.6534 54.8689 66.7634 54.8689 66.7634C54.8689 66.7634 57.4489 69.48 61.9322 68.22" fill="white"/>
<path d="M15.9727 87.31L32.4893 137.717C33.156 137.217 34.266 137.41 35.646 138.03C36.466 137.493 37.406 137.463 38.486 138.03L22.2327 85.0067L15.976 87.31H15.9727Z" fill="white" stroke="#FAE9D2" stroke-width="1.33333" stroke-miterlimit="10"/>
<path d="M19.4213 103.307C19.4213 103.307 25.428 101.97 26.9846 98.15L26.6313 96.9933C26.6313 96.9933 28.308 96.38 29.2146 99.22C30.1213 102.06 31.2646 106.48 31.5413 107.9C31.818 109.32 29.1746 111.807 27.6346 112.517L19.418 103.307H19.4213Z" fill="#FAE9D2"/>
<path d="M19.6315 100.767C20.6448 103.863 22.4715 106.633 24.9248 108.78C29.2082 112.53 36.6382 117.827 45.3982 118.953C57.6715 120.533 59.2348 112.823 71.4682 116.043C81.9048 118.79 90.3382 121.773 101.592 115.747C101.992 115.533 102.395 116.02 102.112 116.373C100.372 118.527 97.9649 121.917 99.3949 122.62C101.452 123.637 99.7048 127.397 95.2682 131.18C94.9382 131.463 94.5248 131.63 94.0948 131.673C91.5482 131.94 82.2648 132.43 72.4682 126.917C59.3315 119.527 58.3448 128.167 45.8948 126.097C38.9515 124.94 30.6315 120.72 22.6515 112.483C21.1048 110.887 19.9015 108.987 19.1348 106.9L18.0448 103.933C17.7315 103.08 17.6115 102.157 17.7615 101.257C17.8982 100.447 18.2448 99.5633 19.0548 99.0133L19.6315 100.77V100.767Z" fill="#E0BF94"/>
<path d="M12.5153 85.3434C12.8986 86.67 13.8653 88.14 14.5753 88.8334C15.7953 90.0267 24.132 87.6634 24.312 85.7867C24.4286 84.57 24.3086 82.93 23.9853 81.82C23.2153 79.1734 11.7486 82.6934 12.5153 85.34V85.3434Z" fill="white" stroke="#FAE9D2" stroke-width="1.33333" stroke-miterlimit="10"/>
<path d="M23.342 75.7367C24.0287 78.12 23.412 80.5733 21.9087 82.3267C20.0053 83.7867 16.6887 84.6767 14.652 84.5567C12.342 83.9267 10.4053 82.14 9.69201 79.67C8.60535 75.9 10.7787 71.9667 14.5487 70.88C18.3187 69.7933 22.252 71.9667 23.3387 75.7367H23.342Z" fill="#E0BF94" stroke="#FEF7E5" stroke-width="1.33333" stroke-miterlimit="10"/>
<path d="M88.5745 35.43C83.7778 38.6934 80.2045 43.8634 77.7545 49.06C77.1845 50.2467 76.6512 51.6067 76.1712 52.8234C76.0478 53.1834 75.6445 53.3767 75.2878 53.23C74.9445 53.09 74.7778 52.6967 74.9245 52.3534C75.2878 51.4934 75.6278 50.6267 76.0078 49.7734C77.1612 47.2434 78.5512 44.75 80.1512 42.48C81.6478 40.3934 83.3345 38.4267 85.2478 36.7067C86.1478 35.93 87.0311 35.1934 88.0778 34.5567C88.3145 34.4134 88.6211 34.4867 88.7645 34.7234C88.9145 34.9667 88.8245 35.2867 88.5778 35.4234L88.5745 35.43Z" fill="#E0BF94"/>
<path d="M54.1056 57.8833C50.8023 59.3467 47.7423 63.27 49.4989 66.0367C51.1589 68.6533 54.8689 66.7633 54.8689 66.7633C54.8689 66.7633 56.4256 68.4034 59.2223 68.5434" stroke="#FAE9D2" stroke-miterlimit="10" stroke-linecap="round"/>
<path d="M124.875 61.33L124.861 61.8834C124.778 65.3067 124.765 73.38 126.378 74.3567C126.518 74.44 126.668 74.4834 126.818 74.4834C126.958 74.4834 127.101 74.4467 127.235 74.3734C129.015 73.3834 129.251 64.7567 129.281 62.1367L129.288 61.6367L124.875 61.3334V61.33Z" fill="#C09660"/>
<path d="M124.875 61.33L124.861 61.8834C124.778 65.3067 124.765 73.38 126.378 74.3567C126.518 74.44 126.668 74.4834 126.818 74.4834C126.958 74.4834 127.101 74.4467 127.235 74.3734C129.015 73.3834 129.251 64.7567 129.281 62.1367L129.288 61.6367L124.875 61.3334V61.33Z" fill="#C09660"/>
<path d="M125.392 61.8934C126.675 62.8367 130.382 64.0867 132.558 62.3634C134.898 60.5067 134.142 56.4767 131.162 56.45C129.305 56.4334 128.685 58.2734 126.788 58.7334C125.905 58.9734 125.322 60.1867 125.395 61.8967L125.392 61.8934Z" fill="#E0BF94" stroke="#E0BF94" stroke-miterlimit="10"/>
<path d="M124.842 65.5367C124.895 69.2267 125.208 73.6467 126.378 74.3534C126.518 74.4367 126.668 74.48 126.818 74.48C126.958 74.48 127.102 74.4434 127.235 74.37C128.122 73.8767 128.625 71.4934 128.908 68.9C127.742 67.5567 126.132 66.4234 124.842 65.5367Z" fill="#E0BF94"/>
<path d="M109.422 34.81C109.422 34.81 112.322 34.04 114.719 37.0034" stroke="#E0BF94" stroke-miterlimit="10" stroke-linecap="round"/>
<path d="M140.132 36.51C140.132 36.51 138.252 35.3567 135.818 38.4933" stroke="#E0BF94" stroke-miterlimit="10" stroke-linecap="round"/>
<path d="M115.513 56.85C113.053 55.0567 110.017 54.1033 106.973 54.0833C105.893 54.1467 105.687 55.34 106.257 55.9067C105.733 56.0733 105.193 56.5 105.373 57.0867C105.567 57.7133 106.543 57.6367 108.517 57.64C111.15 57.6433 113.993 58.3467 116.723 59.8333C116.98 60.08 117.39 60.11 117.673 59.87C117.97 59.62 118.007 59.1733 117.757 58.8767C117.067 58.0733 116.347 57.4567 115.51 56.8467L115.513 56.85Z" fill="#C09660"/>
<path d="M144.364 56.5233C144.434 56.38 144.471 56.2166 144.451 56.0466C144.397 55.56 143.964 55.21 143.477 55.2633C142.741 55.3433 142.004 55.45 141.294 55.6666C139.161 56.2866 137.237 57.54 135.874 59.3C135.404 59.96 136.364 60.6766 136.864 60.0366C136.884 60.0166 136.904 59.9966 136.921 59.9766C138.637 58.8733 140.627 58.1533 142.484 58.0366C143.931 57.9466 144.784 57.9566 144.897 57.49C145.004 57.0533 144.747 56.6833 144.364 56.5233Z" fill="#C09660"/>
<path d="M99.2719 61.5333L98.0586 63.42" stroke="#E0BF94" stroke-width="1.33333" stroke-linecap="round" stroke-linejoin="round"/>
<path d="M102.512 61.92L101.545 63.42" stroke="#E0BF94" stroke-width="1.33333" stroke-linecap="round" stroke-linejoin="round"/>
<path d="M149.62 60.86L148.406 62.8633" stroke="#E0BF94" stroke-width="1.33333" stroke-linecap="round" stroke-linejoin="round"/>
<path d="M152.859 60.93L151.893 62.5266" stroke="#E0BF94" stroke-width="1.33333" stroke-linecap="round" stroke-linejoin="round"/>
</g>
<defs>
<clipPath id="clip0_13882_10679">
<rect width="180" height="180" fill="white"/>
</clipPath>
</defs>
</svg>
