<svg width="180" height="180" viewBox="0 0 180 180" fill="none" xmlns="http://www.w3.org/2000/svg">
<g clip-path="url(#clip0_13882_10677)">
<path d="M140.654 15.8233H40.207C30.857 15.8233 23.207 23.4733 23.207 32.82V147.173C23.207 156.52 30.857 164.17 40.207 164.17H77.2937C121.49 164.17 157.65 128.01 157.65 83.8133V32.82C157.65 23.4733 150 15.8233 140.65 15.8233H140.654Z" fill="white"/>
<path d="M156.25 98.7233C157.167 93.89 157.654 88.9067 157.654 83.8167V32.82C157.654 23.4733 150.004 15.8233 140.654 15.8233H40.207C30.857 15.8233 23.207 23.4733 23.207 32.82V122.19L156.247 98.7233H156.25Z" fill="#FAE9D2"/>
<path d="M30.9237 18.6067C31.1037 18.5967 31.2804 18.59 31.4637 18.59C36.3737 18.59 40.3504 22.57 40.3504 27.4767C40.3504 32.3833 36.3704 36.3633 31.4637 36.3633C27.8104 36.3633 24.6737 34.1567 23.307 31.0067C23.2437 31.6033 23.207 32.2067 23.207 32.82V45.7067C24.117 46.12 25.0637 46.4767 26.0404 46.75L24.957 50.5967C24.7937 51.1833 25.1504 51.7867 25.7437 51.9267C27.5804 52.3567 29.4937 52.5867 31.4604 52.5867C33.427 52.5867 35.3404 52.3567 37.177 51.9267C37.7704 51.7867 38.1304 51.1833 37.9637 50.5967L36.8804 46.75C40.147 45.8333 43.0737 44.11 45.437 41.8067L48.227 44.6667C48.6537 45.1033 49.357 45.0933 49.7737 44.65C52.3837 41.87 54.367 38.4967 55.497 34.7533C55.6737 34.17 55.3304 33.5533 54.7404 33.4033L50.8637 32.4167C51.2637 30.8367 51.4804 29.18 51.4804 27.4733C51.4804 25.7667 51.267 24.1133 50.8637 22.53L54.7404 21.5433C55.3304 21.3933 55.6737 20.7767 55.497 20.1933C55.037 18.6667 54.427 17.2067 53.697 15.82H40.2037C36.7837 15.82 33.5937 16.8467 30.9204 18.6033L30.9237 18.6067Z" fill="white"/>
<path d="M37.4733 71.2301C31.0633 83.4434 35.7667 98.5401 47.9833 104.953C60.1967 111.363 75.2933 106.66 81.7067 94.4434C88.1167 82.2301 83.4133 67.1334 71.1967 60.7234C58.9833 54.3134 43.8867 59.0167 37.4767 71.2334L37.4733 71.2301ZM69.4033 87.9901C66.5567 93.4101 59.8567 95.5001 54.4333 92.6534C49.0133 89.8067 46.9233 83.1067 49.77 77.6834C52.6167 72.2634 59.3167 70.1734 64.74 73.0201C70.16 75.8667 72.25 82.5667 69.4033 87.9867V87.9901Z" fill="#E0BF94"/>
<path d="M42.6347 79.2401C42.9581 77.7234 43.4847 76.2235 44.2414 74.7835C44.9981 73.3435 45.9314 72.0568 46.9981 70.9301L37.8214 62.2534C37.2681 61.7301 36.3947 61.7768 35.8981 62.3534C34.3581 64.1334 32.9947 66.1101 31.8547 68.2868C30.7147 70.4601 29.8614 72.7068 29.2714 74.9834C29.0814 75.7201 29.5414 76.4668 30.2814 76.6234L42.6347 79.2434V79.2401Z" fill="#E0BF94"/>
<path d="M39.5443 105.113L47.9943 95.7201C45.5843 93.5568 43.881 90.7901 42.981 87.7834L30.881 91.3901C30.1543 91.6068 29.7543 92.3901 30.0043 93.1068C31.5643 97.6001 34.1376 101.747 37.6143 105.167C38.1576 105.7 39.0343 105.677 39.5443 105.113Z" fill="#E0BF94"/>
<path d="M63.608 65.9734L66.538 53.6835C66.7147 52.9435 66.2347 52.2101 65.488 52.0668C60.698 51.1468 55.8213 51.3835 51.2413 52.6535C50.508 52.8568 50.0913 53.6268 50.3247 54.3501L54.2313 66.3568C57.218 65.3868 60.4613 65.2201 63.6113 65.9734H63.608Z" fill="#E0BF94"/>
<path d="M79.6355 60.5601L71.1855 69.9535C73.5955 72.1168 75.2989 74.8835 76.1989 77.8901L88.3022 74.2835C89.0289 74.0668 89.4289 73.2835 89.1789 72.5668C87.6189 68.0735 85.0455 63.9268 81.5689 60.5068C81.0255 59.9735 80.1489 59.9968 79.6389 60.5601H79.6355Z" fill="#E0BF94"/>
<path d="M76.5411 86.4335C76.2177 87.9501 75.6911 89.4501 74.9344 90.8901C74.1777 92.3301 73.2444 93.6168 72.1777 94.7435L81.3544 103.42C81.9077 103.943 82.7811 103.897 83.2777 103.32C84.8177 101.54 86.1811 99.5601 87.3211 97.3901C88.4611 95.2168 89.3144 92.9701 89.9044 90.6935C90.0944 89.9568 89.6344 89.2101 88.8944 89.0535L76.5411 86.4335Z" fill="#E0BF94"/>
<path d="M55.5721 99.7001L52.6421 111.99C52.4655 112.73 52.9455 113.463 53.6921 113.607C58.4821 114.527 63.3588 114.29 67.9388 113.02C68.6721 112.817 69.0888 112.047 68.8555 111.323L64.9488 99.3168C61.9621 100.287 58.7188 100.453 55.5688 99.7001H55.5721Z" fill="#E0BF94"/>
<path d="M62.643 87.3166C62.643 87.3166 51.523 93.8166 47.7363 101.44C45.353 106.237 45.3897 108.353 49.513 116.55C60.1797 137.747 71.8397 112.72 71.8397 112.72L62.643 87.3133V87.3166Z" fill="white" stroke="#FAE9D2" stroke-width="1.33333" stroke-miterlimit="10" stroke-linecap="round"/>
<path d="M107.566 139.527C72.1459 135.833 64.7459 106.447 61.6926 90C57.7893 68.9633 63.7926 25.1966 104.673 24.3833C145.553 23.57 148.593 65.4 148.593 65.4L152.403 87.32" fill="white"/>
<path d="M107.566 139.527C72.1459 135.833 64.7459 106.447 61.6926 90C57.7893 68.9633 63.7926 25.1966 104.673 24.3833C145.553 23.57 148.593 65.4 148.593 65.4L152.403 87.32" stroke="#FAE9D2" stroke-width="1.33333" stroke-miterlimit="10" stroke-linecap="round"/>
<path d="M106.88 84.0266C106.24 86.1066 103.47 87.42 100.696 86.96C97.9196 86.5 96.1863 84.4366 96.8263 82.3566C97.4663 80.2766 100.236 78.9633 103.01 79.4233C105.786 79.8833 107.52 81.9466 106.88 84.0266Z" fill="#986C31"/>
<path d="M100.044 80.0533C100.858 80.35 100.984 81.3233 100.328 82.2266C99.671 83.13 98.4843 83.62 97.6743 83.3233C96.861 83.0266 96.7343 82.0533 97.391 81.15C98.0443 80.2466 99.2343 79.7566 100.044 80.0533Z" fill="white"/>
<path d="M78.4165 80.04C78.2832 81.8466 76.3565 83.09 74.1165 82.82C71.8765 82.55 70.1698 80.8666 70.3065 79.0633C70.4398 77.2566 72.3665 76.0133 74.6065 76.2833C76.8465 76.5533 78.5532 78.2366 78.4165 80.04Z" fill="#986C31"/>
<path d="M73.967 76.7033C74.467 77.2133 74.2237 78.0633 73.4237 78.6033C72.6237 79.1433 71.5704 79.17 71.0704 78.6633C70.5704 78.1533 70.8137 77.3033 71.6137 76.7633C72.4137 76.2233 73.467 76.1966 73.967 76.7033Z" fill="white"/>
<path d="M110.717 76.64C110.717 76.64 101.91 78.5066 93.8438 80.0433" stroke="#C09660" stroke-miterlimit="10" stroke-linecap="round"/>
<path d="M80.6504 78.5466C80.6504 78.5466 74.6838 75.12 68.3438 71.4366" stroke="#C09660" stroke-miterlimit="10" stroke-linecap="round"/>
<path d="M110.753 80.0433C109.637 88.1466 98.6133 89.7366 94.6133 83.1933" stroke="#FAE9D2" stroke-miterlimit="10" stroke-linecap="round"/>
<path d="M79.0867 81.06C75.8734 84.4733 67.18 83.49 67.4967 74.5533" stroke="#FAE9D2" stroke-miterlimit="10" stroke-linecap="round"/>
<path d="M157.649 70.8333C156.726 70.5133 155.826 70.0966 155.009 69.6599C153.076 68.6299 151.779 66.7633 151.346 64.6166C151.006 62.94 150.009 62.26 149.029 62.3333C148.572 62.37 148.216 62.7433 148.149 63.1966C141.846 105.983 71.0024 108.667 60.7657 80.6233C60.7057 80.4599 60.6757 80.2866 60.6757 80.1133C60.6757 79.7166 60.2157 79.4866 59.9057 79.7333C59.2457 80.2566 58.4491 81.4966 58.7391 84.4099C61.5424 112.443 89.9891 103.63 89.9891 103.63C127.252 120.417 139.406 89.17 146.002 89.0666C150.716 88.9933 153.099 99.8433 154.209 106.987C156.439 99.6399 157.642 91.86 157.642 83.8133V70.83L157.649 70.8333Z" fill="#E0BF94"/>
<path d="M137.423 103.703C137.423 103.703 138.349 106.223 137.866 107.28C137.479 108.13 134.753 109.27 133.866 108.973C132.029 108.357 128.346 107.82 126.476 112.427C125.809 114.067 124.739 115.497 123.436 116.693C122.616 117.447 121.823 118.627 121.549 120.433C120.909 124.657 127.763 133.617 135.529 132.017C152.399 128.54 167.129 109.343 147.643 89.5833" fill="white"/>
<path d="M137.893 103.53C138.283 104.79 138.783 106.093 138.363 107.443C138.147 107.943 137.7 108.25 137.297 108.51C136.23 109.11 135.157 109.637 133.887 109.53C133.38 109.393 132.867 109.227 132.343 109.173C130.337 108.857 128.47 109.827 127.52 111.617C127.007 112.55 126.66 113.633 126.053 114.517C125.443 115.47 124.707 116.33 123.887 117.093C123.163 117.753 122.657 118.593 122.373 119.537C121.167 123.15 124.997 127.68 127.807 129.6C131.87 132.377 135.157 131.803 139.5 130.203C151.837 125.66 160.15 113.187 154.473 100.32C152.823 96.4433 150.243 92.9866 147.29 89.9333C147.097 89.7333 147.103 89.42 147.303 89.2266C147.5 89.0366 147.813 89.04 148.007 89.2333C152.59 93.8133 156.51 99.6066 157.363 106.2C159.02 117.617 150.267 127.78 139.957 131.427C135.18 133.187 131.493 133.65 127.103 130.637C123.833 128.367 119.82 123.393 121.227 119.187C121.56 118.07 122.207 117.007 123.08 116.223C123.837 115.523 124.51 114.74 125.067 113.883C125.477 113.257 125.833 112.497 126.12 111.803C126.727 110.477 127.657 109.263 129.027 108.587C130.597 107.807 132.37 107.913 133.963 108.44C134.373 108.58 134.953 108.383 135.397 108.25C136.103 107.977 136.967 107.667 137.413 107.05C137.587 106.537 137.477 105.957 137.373 105.363C137.27 104.863 137.127 104.347 136.96 103.87C136.753 103.257 137.673 102.92 137.903 103.537L137.893 103.53Z" fill="#FAE9D2"/>
<path d="M121.332 111.283C123.422 114.607 125.019 117.26 125.532 118.103C126.535 119.817 129.842 116.84 128.912 115.19C128.709 114.857 128.125 113.877 127.869 113.46C126.982 112.027 125.845 110.217 125.052 108.947C123.429 106.363 119.995 105.567 117.399 107.17L108.435 112.707C107.405 113.343 107.085 114.697 107.722 115.727C108.359 116.757 109.712 117.077 110.742 116.44L119.705 110.903C120.259 110.56 120.989 110.73 121.335 111.28L121.332 111.283Z" fill="#C09660"/>
<path d="M88.1292 101.97C88.1292 105.203 85.6825 107.567 82.6858 107.253C79.7092 106.94 77.3125 104.103 77.3125 100.91C77.3125 97.7166 79.7092 95.3499 82.6858 95.6199C85.6825 95.8933 88.1292 98.7366 88.1292 101.97Z" fill="#E0BF94" stroke="white" stroke-linejoin="round"/>
<path d="M101.928 103.323C101.928 106.61 99.405 109.007 96.3084 108.683C93.235 108.36 90.7617 105.473 90.7617 102.23C90.7617 98.9866 93.235 96.5833 96.3084 96.8633C99.4017 97.1466 101.928 100.04 101.928 103.323Z" fill="#E0BF94" stroke="white" stroke-linejoin="round"/>
<path d="M93.6249 102.78C93.6249 105.303 91.7016 107.153 89.3416 106.907C86.9949 106.663 85.1016 104.44 85.1016 101.94C85.1016 99.44 86.9949 97.5899 89.3416 97.8099C91.6882 98.0299 93.6249 100.257 93.6249 102.78Z" fill="#E0BF94" stroke="white" stroke-linejoin="round"/>
<path d="M86.2326 117.303L80.4492 102.36L91.1759 108.21L96.3459 92.3466L102.983 108.363L111.806 100.823L109.516 115.663L116.316 117.303L114.266 122.773L125.303 126.557L117.206 129.337L127.256 137.337L108.193 135.56L86.2326 117.303Z" fill="white" stroke="#FAE9D2" stroke-width="1.33333" stroke-linecap="round" stroke-linejoin="round"/>
<path d="M58.397 110.768C60.9637 110.683 62.986 108.843 62.9138 106.657C62.8417 104.471 60.7025 102.768 58.1358 102.853C55.569 102.937 53.5468 104.778 53.6189 106.964C53.691 109.15 55.8302 110.853 58.397 110.768Z" fill="white" stroke="#FAE9D2" stroke-width="1.33333" stroke-miterlimit="10" stroke-linecap="round"/>
<path d="M39.1389 112.613C34.0589 111.353 36.5155 102.653 46.7022 100.2C57.9055 97.4999 62.2389 106.993 57.8922 109.147C53.5455 111.3 39.1389 112.617 39.1389 112.617V112.613Z" fill="white" stroke="#FAE9D2" stroke-width="1.33333" stroke-miterlimit="10" stroke-linecap="round"/>
<path d="M51.646 104.337C52.7827 104.987 53.4294 106.213 53.5627 107.483C53.5827 108.127 53.8227 109.373 52.8627 109.373C52.4927 109.353 52.2094 109.037 52.2294 108.67C52.2527 108.453 52.316 108.243 52.3527 108.03C52.546 106.903 52.2094 105.603 51.2827 104.89C50.966 104.643 51.3027 104.14 51.6494 104.34L51.646 104.337Z" fill="#FAE9D2"/>
<path d="M95.5996 27.6733C99.5229 9.44662 120.17 9.10329 118.37 20.1633C125.863 16.9666 130.273 25.02 124.216 29.2333" fill="white"/>
<path d="M95.5996 27.6733C99.5229 9.44662 120.17 9.10329 118.37 20.1633C125.863 16.9666 130.273 25.02 124.216 29.2333" stroke="#FAE9D2" stroke-width="1.33333" stroke-linecap="round" stroke-linejoin="round"/>
<path d="M76.166 60.0733C76.166 60.0733 77.0527 63.1 79.706 64.96" stroke="#E0BF94" stroke-miterlimit="10" stroke-linecap="round"/>
<path d="M97.0957 66.4833C97.0957 66.4833 100.636 65.4566 103.082 62.33" stroke="#E0BF94" stroke-miterlimit="10" stroke-linecap="round"/>
<path d="M144.84 48.9599C144.84 48.9599 141.313 63.6632 122.566 71.2466C123.15 71.4499 123.593 71.9932 123.61 72.6766C123.633 73.6932 123.573 74.9032 123.36 76.2099C127.55 74.5166 142.62 67.5032 146.58 52.8466C147.23 50.9432 145.503 47.7066 144.836 48.9599H144.84Z" fill="#E0BF94"/>
<g opacity="0.6">
<path d="M121.605 71.23C122.589 70.9233 123.589 71.6433 123.612 72.6733C123.742 78.1166 121.389 89.14 107.042 90.0633C96.9986 90.71 91.642 86.4333 89.812 83.01C88.952 81.4033 87.3686 80.3466 85.6053 80.1966C85.0886 80.1533 84.592 80.39 84.302 80.8266C82.982 82.8133 78.7586 87.6066 70.4453 85.43C63.0386 83.49 59.832 75.63 61.0453 66.26C61.152 65.4266 62.1153 65.02 62.7886 65.5266C78.5886 77.47 94.8253 79.59 121.605 71.23Z" fill="#E0BF94"/>
</g>
<path opacity="0.5" d="M96.916 76.1832L90.1326 83.5566C90.9026 84.7799 92.1093 86.0666 93.806 87.1766L104.703 75.3366C101.996 75.7666 99.4026 76.0499 96.9193 76.1832H96.916ZM61.7793 76.7566C62.5326 79.0832 63.7193 81.0799 65.3293 82.6066L74.616 72.5166C72.5526 71.6366 70.5326 70.5999 68.5393 69.4132L61.7826 76.7566H61.7793Z" fill="white"/>
<path d="M123.613 72.6766C123.59 71.6466 122.59 70.9266 121.606 71.2332C121.26 71.3432 120.916 71.4432 120.573 71.5466C120.69 78.4732 119.713 87.6999 107.043 90.0666C121.39 89.1432 123.743 78.1199 123.613 72.6766Z" fill="#E0BF94"/>
<path d="M84.604 87.02C81.744 87.02 80.274 84.85 80.1173 82.8333C79.954 80.73 81.074 79.07 82.8407 78.7933C83.014 78.7666 83.1873 78.7533 83.354 78.7533C84.6673 78.7533 85.524 79.5933 86.2807 80.3333L86.514 80.56C86.884 80.9166 87.2207 81.13 87.544 81.3366C88.1707 81.7366 88.7607 82.1133 89.034 83.2533C89.1907 83.91 89.0207 84.6533 88.564 85.2966C87.894 86.24 86.6973 86.84 85.2007 86.99C85.0007 87.01 84.8007 87.02 84.6073 87.02H84.604Z" fill="#E0BF94"/>
<path d="M83.3532 79.2533C84.5799 79.2533 85.3366 80.1233 86.1632 80.92C87.3099 82.0266 88.1932 81.9066 88.5466 83.3733C88.8099 84.4633 87.8799 86.2233 85.1499 86.4933C84.9632 86.5133 84.7799 86.52 84.6066 86.52C79.8099 86.52 79.4266 79.8333 82.9199 79.2866C83.0732 79.2633 83.2166 79.25 83.3566 79.25M83.3532 78.2533C83.1599 78.2533 82.9599 78.27 82.7632 78.3C80.7599 78.6133 79.4399 80.5366 79.6199 82.8733C79.7932 85.11 81.4266 87.52 84.6032 87.52C84.8132 87.52 85.0299 87.51 85.2466 87.4866C86.8932 87.3233 88.2132 86.65 88.9699 85.5866C89.5099 84.8266 89.7099 83.9333 89.5199 83.1366C89.1999 81.7966 88.4599 81.33 87.8099 80.9133C87.5066 80.72 87.1932 80.52 86.8566 80.1966C86.7799 80.1233 86.7032 80.0466 86.6266 79.9733C85.8432 79.2066 84.8699 78.25 83.3499 78.25L83.3532 78.2533Z" fill="white"/>
<path d="M117.842 153.11C115.206 132.643 88.5023 107.55 60.5556 107.28C41.6457 107.097 29.3923 113.81 23.209 118.437V147.173C23.209 156.52 30.859 164.17 40.209 164.17H77.2957C92.059 164.17 105.922 160.13 117.846 153.11H117.842Z" fill="#E0BF94"/>
<path d="M117.843 153.11C115.833 137.51 99.8465 119.227 79.9798 111.293C69.8465 118.213 64.5431 131.69 62.9764 136.28C62.6664 137.183 63.0465 138.18 63.8798 138.65L101.933 160.28C107.526 158.463 112.856 156.05 117.846 153.113L117.843 153.11Z" fill="#FAE9D2"/>
<path d="M73.5997 134.62C73.5997 135.893 72.5663 136.927 71.293 136.927C70.0197 136.927 68.9863 135.893 68.9863 134.62C68.9863 133.347 70.0197 132.313 71.293 132.313C72.5663 132.313 73.5997 133.347 73.5997 134.62Z" fill="#E0BF94"/>
<path d="M77.5729 126.363C77.5729 127.567 76.5962 128.543 75.3929 128.543C74.1896 128.543 73.2129 127.567 73.2129 126.363C73.2129 125.16 74.1896 124.183 75.3929 124.183C76.5962 124.183 77.5729 125.16 77.5729 126.363Z" fill="#E0BF94"/>
<path d="M82.4724 118.927C82.4724 120.043 81.5658 120.95 80.4491 120.95C79.3325 120.95 78.4258 120.043 78.4258 118.927C78.4258 117.81 79.3325 116.903 80.4491 116.903C81.5658 116.903 82.4724 117.81 82.4724 118.927Z" fill="#E0BF94"/>
<path d="M95.9102 115.757L96.5435 118.3L98.0868 119.513L98.1568 115.443L95.9102 115.757Z" fill="#E0BF94" stroke="#E0BF94" stroke-linecap="round" stroke-linejoin="round"/>
<path d="M100.357 119.207L100.487 121.003L102.137 120.573L101.544 119.07L100.357 119.207Z" fill="#E0BF94" stroke="#E0BF94" stroke-linecap="round" stroke-linejoin="round"/>
<path d="M102.277 123.6L105.147 121.88L108.074 123.37C108.074 123.37 105.987 124.467 106.061 124.447C106.134 124.427 102.277 123.6 102.277 123.6Z" fill="#E0BF94" stroke="#E0BF94" stroke-linecap="round" stroke-linejoin="round"/>
<path d="M106.098 127.277H107.278L108.168 129.02L106.541 128.43L106.098 127.277Z" fill="#E0BF94" stroke="#E0BF94" stroke-linecap="round" stroke-linejoin="round"/>
</g>
<defs>
<clipPath id="clip0_13882_10677">
<rect width="180" height="180" fill="white"/>
</clipPath>
</defs>
</svg>
