<svg width="180" height="180" viewBox="0 0 180 180" fill="none" xmlns="http://www.w3.org/2000/svg">
<g clip-path="url(#clip0_13882_10678)">
<path d="M140.224 15.32H39.7773C30.4273 15.32 22.7773 22.97 22.7773 32.3166V146.67C22.7773 156.017 30.4273 163.667 39.7773 163.667H76.864C121.061 163.667 157.221 127.507 157.221 83.31V32.3166C157.221 22.97 149.571 15.32 140.221 15.32H140.224Z" fill="#FAE9D2"/>
<path d="M16.4043 37.3166V39.8733L115.971 32.8766L20.5876 26.19C17.9876 29.1766 16.4076 33.07 16.4076 37.3166H16.4043ZM157.225 52.8633L115.975 32.8766L157.225 65.44V52.8633ZM22.7779 105.62L23.3646 105.983L115.975 32.8766L22.7779 78.0333V105.62ZM150.233 13.909H141.889L115.975 32.8766L151.749 13.9823C151.249 13.939 150.743 13.9123 150.233 13.9123V13.909ZM80.4883 13.909L115.975 32.8766L90.495 13.909H80.4883ZM163.117 29.9066L115.975 32.8766L164.771 35.97C164.601 33.8133 164.024 31.7666 163.117 29.9066ZM113.508 20.32L115.975 32.8766L118.441 20.32H113.511H113.508Z" fill="white"/>
<path d="M115.974 50.6267C115.674 50.6267 115.414 50.4267 115.331 50.1401L111.431 36.2601L103.764 33.5001C103.501 33.4034 103.324 33.1534 103.324 32.8734C103.324 32.5934 103.501 32.3401 103.764 32.2467L111.431 29.4867L115.331 15.6067C115.411 15.3201 115.674 15.1201 115.974 15.1201C116.274 15.1201 116.534 15.3201 116.618 15.6067L120.518 29.4867L128.184 32.2467C128.448 32.3434 128.624 32.5934 128.624 32.8734C128.624 33.1534 128.448 33.4067 128.184 33.5001L120.518 36.2601L116.618 50.1401C116.538 50.4267 116.274 50.6267 115.974 50.6267Z" fill="#FAE9D2"/>
<path d="M115.974 10.8251L121.128 29.1649L131.435 32.8777L121.123 36.5904L115.969 54.9302L110.815 36.5904L100.503 32.8777L110.811 29.1649L115.965 10.8251M115.974 9.10425C115.204 9.10425 114.524 9.6162 114.317 10.3605L109.404 27.8442L99.9268 31.2558C99.2427 31.501 98.791 32.1506 98.791 32.8734C98.791 33.5961 99.247 34.2457 99.9268 34.491L109.404 37.9025L114.317 55.3863C114.524 56.1305 115.204 56.6425 115.974 56.6425C116.744 56.6425 117.423 56.1305 117.63 55.3863L122.543 37.9025L132.02 34.491C132.704 34.2457 133.156 33.5961 133.156 32.8734C133.156 32.1506 132.7 31.501 132.02 31.2558L122.543 27.8442L117.63 10.3605C117.423 9.6162 116.744 9.10425 115.974 9.10425Z" fill="#FAE9D2"/>
<path d="M121.128 36.5904L131.436 32.8777L121.128 29.165L115.974 10.8251L110.82 29.1607L100.508 32.8777L110.82 36.5904L115.974 54.926L121.128 36.5904Z" fill="white"/>
<path d="M112.559 148.593C108.639 121.083 101.709 81.5568 93.8426 77.9734C81.6726 72.4334 64.186 57.6901 48.3793 58.2468C40.876 58.5101 31.4926 64.0334 22.7793 70.7434V146.67C22.7793 156.017 29.5926 163.667 37.9226 163.667H70.956C86.4426 163.667 100.816 158.07 112.563 148.593H112.559Z" fill="#C09660"/>
<path d="M93.8421 77.9734C86.5954 74.6734 77.4687 68.1168 67.9287 63.4634C49.5987 75.3234 31.7654 90.7934 22.7754 100.223V146.667C22.7754 156.013 29.5887 163.663 37.9187 163.663H70.9521C86.4387 163.663 100.812 158.067 112.559 148.59C108.639 121.08 101.709 81.5534 93.8421 77.9701V77.9734Z" fill="#986C31"/>
<path d="M157.223 83.3134V71.7167C140.663 62.81 132.409 48.9434 116.669 48.9434C87.2293 48.9434 30.976 94.9534 22.7793 106.17V146.67C22.7793 156.017 30.4293 163.667 39.7793 163.667H76.866C121.063 163.667 157.223 127.507 157.223 83.31V83.3134Z" fill="#C09660"/>
<path d="M155.767 98.4967C153.467 93.8733 149.157 88.4667 139.503 83.7533C122.39 75.3967 99.5733 70.92 102.76 62.7867C105.233 56.47 115.797 51.2334 120.39 49.21C119.197 49.0367 117.96 48.94 116.673 48.94C115.727 48.94 114.75 48.99 113.75 49.0833C105.903 51.4933 88.8666 59.4567 91.87 68.53C95.0566 78.1567 116.317 82.6333 123.873 97.8533C130.807 111.817 99.01 151.227 33.8066 162.573C35.6666 163.277 37.68 163.667 39.78 163.667H76.8666C115.877 163.667 148.617 135.497 155.77 98.4967H155.767Z" fill="#FAE9D2"/>
<path d="M102.578 159.973C116.631 142.623 108.381 115.323 108.381 115.323L27.4043 136.503" fill="white"/>
<path d="M102.027 159.603C102.787 159.35 103.544 159.09 104.291 158.813C110.614 149.937 111.681 138.967 111.414 131.12C111.357 129.467 111.241 127.883 111.091 126.4C110.684 126.807 110.267 127.217 109.841 127.623C110.637 136.973 109.874 149.907 102.061 159.557C102.047 159.573 102.041 159.59 102.027 159.607V159.603Z" fill="#FAE9D2"/>
<path d="M109.185 112.407C111.358 112.175 112.858 109.538 112.536 106.518C112.214 103.497 110.191 101.237 108.018 101.469C105.845 101.701 104.345 104.337 104.667 107.357C104.99 110.378 107.012 112.638 109.185 112.407Z" fill="#E0BF94"/>
<path d="M106.194 107.955C107.86 107.777 109.035 105.994 108.82 103.971C108.604 101.948 107.079 100.452 105.413 100.63C103.747 100.808 102.571 102.592 102.787 104.614C103.003 106.637 104.528 108.133 106.194 107.955Z" fill="#E0BF94"/>
<path d="M93.9927 87.3733C95.5094 87.4833 99.1427 86.6067 100.023 84.1033C100.969 81.41 98.306 78.54 95.8827 80.0367C94.3727 80.9667 94.8094 82.7733 93.5094 84.1067C92.916 84.75 93.066 86.03 93.9927 87.3733Z" fill="#E0BF94"/>
<path d="M24.3896 125.017C4.83962 67.0133 84.1863 36.87 105.53 104.58L101.946 115.08L63.4263 137.727L44.433 135.933L24.7196 128.44L24.393 125.02L24.3896 125.017Z" fill="white" stroke="#FAE9D2" stroke-miterlimit="10"/>
<path d="M106.182 116.3C106.182 116.3 113.785 107.813 118.112 96.8999C118.825 95.1032 117.242 91.0132 119.358 89.8232C121.355 88.7032 122.775 90.7332 122.775 90.7332C122.775 90.7332 124.745 85.7066 127.602 85.3566C130.348 85.0199 130.228 88.4732 129.312 90.3066C129.312 90.3066 139.562 93.0399 138.035 103.857C136.508 114.67 123.862 128.927 108.525 133.233C107.505 133.52 106.598 133.71 105.795 133.817" fill="white"/>
<path d="M105.686 115.857C110.526 110.167 114.612 103.703 117.442 96.7733C117.532 96.5766 117.579 96.3933 117.606 96.1633C117.792 94.4233 117.199 92.4666 117.826 90.6966C118.036 90.0799 118.566 89.4333 119.192 89.1666L119.492 89.0266L119.816 88.9266C121.156 88.5466 122.532 89.28 123.319 90.3566L122.152 90.4966C123.149 88.2733 124.476 85.7299 126.909 84.8366C127.982 84.4833 129.379 84.7 130.019 85.73C130.926 87.2266 130.592 89.1033 129.909 90.6099C129.909 90.6166 129.482 89.67 129.482 89.67C132.192 90.51 134.619 92.0733 136.399 94.2933C140.092 98.85 139.136 105.25 136.826 110.193C132.186 119.993 123.562 127.767 113.686 132.08C111.169 133.12 108.589 134 105.859 134.32C105.232 134.36 105.089 133.463 105.722 133.33C110.866 132.29 115.706 129.963 120.079 127.103C128.042 121.75 136.852 112.153 137.476 102.18C137.799 96.8166 134.099 92.4966 129.139 90.9566L128.396 90.7366L128.716 90.0133C129.282 88.87 129.779 86.0466 127.966 86.0133C127.232 86.0033 126.636 86.3633 126.066 86.8666C124.576 88.2366 123.686 90.2166 122.942 92.0699L122.226 91.1233C121.716 90.4466 120.812 89.9266 119.969 90.2766C119.232 90.5499 118.976 91.1466 118.896 92.0399C118.706 93.8033 119.389 95.7833 118.576 97.5233C116.809 101.86 114.512 105.98 111.906 109.863C110.286 112.25 108.586 114.553 106.679 116.753C106.439 117.03 106.016 117.06 105.739 116.82C105.456 116.573 105.432 116.14 105.686 115.863V115.857Z" fill="#FAE9D2"/>
<path d="M23.6469 122.667C23.6469 122.667 30.1936 135.037 59.4002 131.19C88.2102 127.393 104.31 109.073 105.49 102.053C105.52 101.88 105.69 101.767 105.857 101.827C106.487 102.063 107.884 103.223 108.74 108.79C109.874 116.167 105.534 121.4 96.0869 127.69C86.4236 134.127 89.6936 150.197 84.4802 160.95C79.2669 171.703 53.0669 176.587 31.6436 172.513C9.16357 168.24 3.88357 153.477 11.3602 145.717C15.6369 141.28 21.3002 139.223 22.4102 133.48C22.8269 131.313 22.5736 129.253 21.9536 127.707C21.2202 125.88 21.6069 122.697 23.6536 122.667H23.6469Z" fill="#E0BF94"/>
<path d="M27.8739 105.467C19.4439 112.157 14.0639 101.77 20.5406 96.18C9.9706 91.9733 15.1939 76.81 34.2273 78.6433" fill="white"/>
<path d="M27.8739 105.467C19.4439 112.157 14.0639 101.77 20.5406 96.18C9.97061 91.9733 15.1939 76.81 34.2273 78.6433" stroke="#FAE9D2" stroke-width="1.33333" stroke-miterlimit="10" stroke-linecap="round"/>
<path opacity="0.7" d="M94.4488 93.8339C96.018 92.5951 95.1114 88.8311 92.4238 85.4269C89.7363 82.0226 86.2855 80.2672 84.7163 81.506C83.1471 82.7448 84.0537 86.5088 86.7413 89.9131C89.4288 93.3173 92.8796 95.0728 94.4488 93.8339Z" stroke="#E0BF94" stroke-miterlimit="10"/>
<path d="M93.1359 90.1557C94.1098 89.3869 93.4946 86.9843 91.7619 84.7895C90.0291 82.5946 87.8349 81.4386 86.861 82.2075C85.8871 82.9763 86.5023 85.3789 88.2351 87.5737C89.9679 89.7686 92.162 90.9246 93.1359 90.1557Z" fill="#C09660"/>
<path d="M91.8477 90.3638C92.4633 89.8779 92.4527 88.8385 91.8242 88.0424C91.1956 87.2462 90.1871 86.9948 89.5716 87.4807C88.956 87.9667 88.9666 89.006 89.5951 89.8022C90.2236 90.5983 91.2322 90.8498 91.8477 90.3638Z" fill="white"/>
<path d="M76.541 75.1933C76.541 75.1933 76.8777 72.0167 80.911 73.4833" stroke="#E0BF94" stroke-miterlimit="10" stroke-linecap="round"/>
</g>
<defs>
<clipPath id="clip0_13882_10678">
<rect width="180" height="180" fill="white"/>
</clipPath>
</defs>
</svg>
