<svg width="180" height="180" viewBox="0 0 180 180" fill="none" xmlns="http://www.w3.org/2000/svg">
<g clip-path="url(#clip0_13882_10680)">
<path d="M140.224 15.8267H39.7773C30.4273 15.8267 22.7773 23.4767 22.7773 32.8233V147.177C22.7773 156.523 30.4273 164.173 39.7773 164.173H76.864C121.061 164.173 157.221 128.013 157.221 83.8167V32.8233C157.221 23.4767 149.571 15.8267 140.221 15.8267H140.224Z" fill="#FAE9D2"/>
<path d="M140.224 15.8267H39.7773C30.4273 15.8267 22.7773 23.4767 22.7773 32.8233V147.177C22.7773 156.523 30.4273 164.173 39.7773 164.173H76.864C121.061 164.173 157.221 128.013 157.221 83.8167V32.8233C157.221 23.4767 149.571 15.8267 140.221 15.8267H140.224Z" fill="white"/>
<path d="M22.7773 32.8233V147.177C22.7773 147.547 22.794 147.91 22.8173 148.277C29.514 149.91 36.5107 150.783 43.7107 150.783C92.2307 150.783 131.564 111.45 131.564 62.93C131.564 45.5967 126.541 29.44 117.877 15.8267H39.7773C30.4273 15.8267 22.7773 23.4767 22.7773 32.8233Z" fill="#FAE9D2"/>
<path d="M93.384 15.8267H39.7773C30.4273 15.8267 22.7773 23.4767 22.7773 32.8233V128.123C29.374 130.24 36.4073 131.387 43.7107 131.387C81.5173 131.387 112.167 100.737 112.167 62.93C112.167 44.68 105.024 28.0967 93.384 15.8267Z" fill="white"/>
<path d="M22.7773 32.8233V105.897C29.0973 108.983 36.2007 110.717 43.7107 110.717C70.1007 110.717 91.494 89.3233 91.494 62.9333C91.494 39.29 74.3207 19.66 51.7707 15.83H39.7773C30.4273 15.83 22.7773 23.48 22.7773 32.8267V32.8233Z" fill="#FAE9D2"/>
<path d="M22.7773 136.31V147.177C22.7773 156.523 30.4273 164.173 39.7773 164.173H76.864C101.044 164.173 122.817 153.35 137.581 136.31H22.7773Z" fill="#FAE9D2"/>
<path d="M25.8679 94.6367C22.4646 94.6367 19.6646 92.0767 19.3579 88.6801L16.8279 60.7167C16.5013 57.1234 19.1613 53.9367 22.7546 53.6101L24.1179 53.4867L23.6879 48.7367C22.6779 37.5867 30.9313 27.6934 42.0813 26.6867C42.6946 26.6301 43.3146 26.6034 43.9246 26.6034C48.9646 26.6034 53.8079 28.4801 57.5613 31.8934C61.3379 35.3234 63.6713 40.0101 64.1313 45.0801L64.5613 49.8301L65.9246 49.7067C66.1213 49.6901 66.3246 49.68 66.5213 49.68C69.9246 49.68 72.7246 52.24 73.0313 55.6334L75.5613 83.5967C75.7179 85.3367 75.1879 87.0367 74.0679 88.3767C72.9479 89.7201 71.3713 90.5434 69.6313 90.7034L26.4613 94.6067C26.2646 94.6234 26.0646 94.6334 25.8646 94.6334L25.8679 94.6367ZM43.9213 35.9034C43.5879 35.9034 43.2513 35.9201 42.9213 35.9501C36.8779 36.4967 32.4046 41.8567 32.9513 47.9001L33.3813 52.6501L55.3013 50.6667L54.8713 45.9167C54.3646 40.3001 49.5513 35.9034 43.9213 35.9034Z" fill="white"/>
<path d="M43.9286 27.2701C53.9653 27.2701 62.552 34.9534 63.472 45.1401L63.962 50.5534L65.9886 50.3701C66.1686 50.3534 66.3486 50.3467 66.5253 50.3467C69.532 50.3467 72.0953 52.6434 72.3719 55.6967L74.902 83.6567C75.1953 86.8901 72.812 89.7467 69.5786 90.0401L26.4086 93.9434C26.2286 93.9601 26.0486 93.9667 25.8719 93.9667C22.8653 93.9667 20.3019 91.6701 20.0253 88.6167L17.4953 60.6567C17.2019 57.4234 19.5853 54.5667 22.8186 54.2734L24.8453 54.0901L24.3553 48.6767C23.3786 37.8934 31.3586 28.3267 42.1453 27.3501C42.7453 27.2967 43.3386 27.2701 43.9286 27.2701ZM32.7786 53.3734L56.0253 51.2701L55.5353 45.8567C54.9886 39.8034 49.8853 35.2367 43.9186 35.2367C43.5686 35.2367 43.2153 35.2534 42.8586 35.2834C36.4486 35.8634 31.7053 41.5501 32.2853 47.9601L32.7753 53.3734M43.9286 25.9367C43.2986 25.9367 42.6586 25.9667 42.0253 26.0234C30.5086 27.0667 21.9886 37.2834 23.0286 48.7967L23.3986 52.8834L22.6986 52.9467C20.7819 53.1201 19.0453 54.0301 17.8119 55.5101C16.5786 56.9901 15.9953 58.8601 16.1686 60.7801L18.6986 88.7401C19.0386 92.4801 22.1219 95.3034 25.8719 95.3034C26.0886 95.3034 26.3119 95.2934 26.5286 95.2734L69.6986 91.3701C73.6586 91.0134 76.5886 87.5001 76.2319 83.5401L73.702 55.5801C73.3653 51.8401 70.2786 49.0167 66.5286 49.0167C66.312 49.0167 66.0886 49.0267 65.8719 49.0467L65.172 49.1101L64.802 45.0234C64.3286 39.7834 61.9186 34.9467 58.0153 31.4034C54.1386 27.8801 49.1353 25.9434 43.9286 25.9401V25.9367ZM33.9886 51.9267L33.6186 47.8401C33.1053 42.1634 37.3053 37.1267 42.9853 36.6134C43.2953 36.5867 43.6119 36.5701 43.9253 36.5701C46.4886 36.5701 48.9553 37.5267 50.8686 39.2634C52.792 41.0101 53.9786 43.3934 54.2119 45.9767L54.5819 50.0634L33.9886 51.9267Z" fill="white"/>
<path d="M31.6649 68.5367C30.2549 68.5367 28.9016 68.0467 27.8049 67.1334C26.5649 66.1 25.8016 64.6434 25.6582 63.0367L24.3582 48.6767C23.3816 37.8934 31.3616 28.3267 42.1482 27.35C52.9316 26.3734 62.4982 34.3534 63.4749 45.14L64.7749 59.5C64.9216 61.1067 64.4316 62.6767 63.3982 63.9167C62.3649 65.1567 60.9082 65.92 59.3016 66.0634L32.2249 68.5134C32.0382 68.53 31.8549 68.54 31.6682 68.54L31.6649 68.5367ZM43.9249 35.2367C43.5749 35.2367 43.2216 35.2534 42.8649 35.2834C36.4549 35.8634 31.7116 41.55 32.2916 47.96L33.4182 60.4034L56.6649 58.3L55.5382 45.8567C54.9916 39.8034 49.8882 35.2367 43.9216 35.2367H43.9249Z" fill="#C09660"/>
<path d="M66.3185 50.3386L22.4942 54.3037C19.4415 54.58 17.1907 57.2786 17.4669 60.3313L20.0558 88.9444C20.332 91.9971 23.0306 94.2479 26.0833 93.9717L69.9077 90.0065C72.9604 89.7303 75.2112 87.0317 74.935 83.979L72.3461 55.3659C72.0699 52.3132 69.3712 50.0624 66.3185 50.3386Z" fill="#E0BF94"/>
<path d="M45.9084 75.94C49.78 75.94 52.9184 72.8016 52.9184 68.93C52.9184 65.0585 49.78 61.92 45.9084 61.92C42.0369 61.92 38.8984 65.0585 38.8984 68.93C38.8984 72.8016 42.0369 75.94 45.9084 75.94Z" fill="white"/>
<path d="M43.2207 70.0102L48.7548 69.5095L49.8436 81.5436C49.974 82.9844 48.9081 84.2623 47.4673 84.3927L47.1586 84.4206C45.7178 84.551 44.4399 83.4851 44.3095 82.0444L43.2207 70.0102Z" fill="white"/>
<path d="M145.009 126.263L144.283 124.237L55.4494 114.463C55.4494 114.463 46.2228 138.573 56.9661 164.173H76.8661C105.509 164.173 130.773 148.983 145.013 126.26L145.009 126.263Z" fill="#E0BF94"/>
<path d="M78.3438 72.9633C78.3438 72.9633 84.7138 68.2933 88.9504 75.4067C93.1871 82.52 80.4804 75.4067 80.4804 75.4067L78.3438 72.9633Z" fill="white"/>
<path d="M66.6347 128.69C46.7613 122.717 45.7247 91.5967 63.318 75.7433C63.318 75.7433 68.0113 70.62 72.9313 71.46C72.9313 71.46 80.098 69.54 84.3047 75.29C89.7847 82.78 66.6313 128.69 66.6313 128.69H66.6347Z" fill="white" stroke="#FAE9D2" stroke-width="1.33333" stroke-miterlimit="10" stroke-linecap="round"/>
<path d="M73.072 70.8067C74.382 71.0967 75.132 72.2567 75.4654 73.4167C76.1954 75.7967 74.9954 78.6733 72.1554 78.55C71.2387 78.5233 70.3954 78.0733 69.7954 77.4167C69.4987 77.0833 68.8654 76.41 69.462 76.0333C69.9787 75.7567 70.202 76.3767 70.5587 76.6433C71.2887 77.3333 72.4287 77.4967 73.2854 77C74.902 76.09 74.442 72.6533 72.7987 72.1133C71.9454 71.91 72.2087 70.6533 73.072 70.81V70.8067Z" fill="#FAE9D2"/>
<path d="M77.4916 77.4133C77.3583 77.9333 77.6816 78.4333 78.1416 78.6733L78.375 78.79C78.7316 78.94 78.8983 79.36 78.725 79.71C78.5616 80.04 78.1583 80.1767 77.8283 80.0133C77.7783 79.99 77.4716 79.78 77.4183 79.7467C76.715 79.24 76.245 78.34 76.435 77.4633C76.495 77.08 76.715 76.5733 77.2116 76.77C77.4783 76.88 77.535 77.17 77.4883 77.42L77.4916 77.4133Z" fill="#FAE9D2"/>
<path d="M138.996 70.6633C159.049 70.0133 165.639 84.13 156.589 88.4C164.446 93.83 160.753 101.72 154.846 100.857L141.459 81.3033L138.999 70.66L138.996 70.6633Z" fill="white" stroke="#FAE9D2" stroke-width="1.33333" stroke-linecap="round" stroke-linejoin="round"/>
<path d="M146.016 78.48C130.159 57.34 85.0561 54.8767 66.6661 97.16C51.6994 131.573 63.0128 156.2 67.7428 164.173H76.8594C114.389 164.173 146.119 138.1 154.839 103.173C154.279 95.41 152.079 86.5667 146.013 78.48H146.016Z" fill="white"/>
<path d="M68.3762 163.853L68.3529 163.813C63.1662 155.067 52.6796 131.09 67.3162 97.44C75.4762 78.68 90.2962 66.7333 107.983 64.6633C122.943 62.91 137.65 68.5 145.453 78.9033C150.54 85.6866 153.463 93.87 154.14 103.227L154.296 105.247C154.686 103.85 155.036 102.433 155.35 101.007C154.386 92.2533 151.446 84.54 146.58 78.0533C138.48 67.2566 123.263 61.4466 107.816 63.2566C99.3929 64.2433 91.3129 67.4933 84.4462 72.6533C76.6662 78.5 70.4662 86.6466 66.0196 96.8733C59.5296 111.797 57.2062 126.53 59.1196 140.67C60.6496 151.98 64.5762 160.123 66.9262 164.17H68.5362L68.3729 163.85L68.3762 163.853Z" fill="#FAE9D2"/>
<path d="M147.613 121.797C103.463 105.357 64.4227 110.927 61.0927 111.367C57.7094 111.817 58.4461 118.13 59.7894 119.747C67.7894 129.377 78.0694 118.913 78.0694 118.913L88.3494 115.003L99.4261 119.563C113.539 136.12 131.483 134.933 140.259 133.04C143.009 129.513 145.469 125.753 147.609 121.797H147.613Z" fill="#E0BF94"/>
<path d="M88.1229 114.829C88.646 110.18 86.2849 106.099 82.8493 105.712C79.4137 105.325 76.2045 108.78 75.6815 113.429C75.1584 118.077 77.5195 122.159 80.9551 122.546C84.3907 122.932 87.5999 119.477 88.1229 114.829Z" fill="#E0BF94" stroke="white" stroke-miterlimit="10"/>
<path d="M104.01 116.231C104.911 111.466 102.634 107.035 98.926 106.335C95.2177 105.634 91.4816 108.929 90.5813 113.693C89.681 118.458 91.9574 122.889 95.6657 123.589C99.374 124.29 103.11 120.995 104.01 116.231Z" fill="#E0BF94" stroke="white" stroke-miterlimit="10"/>
<path d="M115.024 86.87C114.961 85.5866 114.307 84.4366 113.264 83.56C108.444 83.83 104.667 86.41 104.811 89.36C104.871 90.5833 105.597 91.68 106.767 92.5266C107.231 92.5766 107.711 92.59 108.201 92.5666C112.111 92.3766 115.164 89.8266 115.021 86.8666L115.024 86.87Z" fill="#C09660"/>
<path d="M84.0941 85.11C79.7807 85.3167 76.3974 87.8433 76.5374 90.7467C76.5841 91.72 77.0207 92.61 77.7407 93.36C78.6841 93.8067 79.7774 94.0433 80.9374 93.9867C84.2707 93.8267 86.8607 91.35 86.7207 88.4567C86.6574 87.1467 86.0407 85.98 85.0807 85.1033C84.7541 85.09 84.4274 85.09 84.0907 85.1067L84.0941 85.11Z" fill="#C09660"/>
<path d="M113.906 94.3048C118.78 94.0689 122.615 91.4688 122.472 88.4973C122.328 85.5258 118.26 83.3082 113.385 83.544C108.51 83.7799 104.675 86.3799 104.819 89.3514C104.963 92.3229 109.031 94.5406 113.906 94.3048Z" stroke="#FAE9D2" stroke-miterlimit="10"/>
<path d="M107.796 93.15C106.029 92.25 104.886 90.9067 104.812 89.3567C104.669 86.3867 108.506 83.7867 113.379 83.55C116.542 83.3967 119.366 84.2767 120.999 85.7267" stroke="#C09660" stroke-miterlimit="10" stroke-linecap="round"/>
<path d="M84.609 95.622C88.9228 95.4133 92.3059 92.8889 92.1653 89.9836C92.0247 87.0783 88.4137 84.8923 84.0999 85.101C79.7861 85.3097 76.403 87.8341 76.5436 90.7394C76.6842 93.6447 80.2951 95.8307 84.609 95.622Z" stroke="#FAE9D2" stroke-miterlimit="10"/>
<path d="M78.8607 94.2667C77.4841 93.3867 76.6041 92.15 76.5374 90.7467C76.3974 87.84 79.7807 85.3167 84.0941 85.11C86.8274 84.9767 89.2774 85.8067 90.7407 87.1734" stroke="#C09660" stroke-miterlimit="10" stroke-linecap="round"/>
<path d="M159.815 39.3733C161.705 25.9333 151.369 13.3699 136.725 11.3133C122.085 9.25661 108.685 18.4833 106.795 31.9233C104.905 45.3633 115.242 57.9266 129.885 59.9833C131.989 60.2799 134.065 60.3333 136.085 60.1866C136.049 61.8099 135.815 63.8199 134.979 64.9633C134.979 64.9633 141.689 64.4233 145.585 57.7733C153.099 54.3499 158.649 47.6666 159.812 39.3766L159.815 39.3733Z" fill="white" stroke="#E0BF94" stroke-width="1.33333" stroke-linecap="round" stroke-linejoin="round"/>
<path d="M135.674 38.4433L135.468 40.58C135.294 42.36 134.148 43.1466 132.028 42.9433C129.908 42.7366 128.934 41.7433 129.108 39.9633L129.314 37.8266C129.708 35.23 131.231 33.52 133.878 32.7C136.241 31.85 137.558 30.0633 137.821 27.3333C138.121 24.2466 136.924 22.5733 134.241 22.3133C131.978 22.0933 130.334 23.6133 129.304 26.8666C128.741 28.25 127.541 28.8533 125.704 28.6733C123.878 28.3766 122.961 27.51 122.961 26.07C123.984 19.94 127.904 17.0266 134.724 17.3266C141.484 18.2233 144.638 21.7633 144.181 27.95C143.708 32.8166 141.271 35.8766 136.871 37.1233C136.271 37.4233 135.871 37.8666 135.674 38.4433ZM126.901 49.4533C127.258 47.2133 128.858 46.17 131.698 46.3233C134.371 46.7033 135.668 48.03 135.591 50.2966C135.241 52.42 133.718 53.41 131.021 53.2666C128.204 52.8733 126.828 51.6033 126.898 49.4533H126.901Z" fill="#E0BF94"/>
<path d="M103.584 81.91C103.584 81.91 106.707 82.75 108.904 79.1133L103.584 81.91Z" fill="#986C31"/>
<path d="M103.584 81.91C103.584 81.91 106.707 82.75 108.904 79.1133" stroke="#E0BF94" stroke-miterlimit="10" stroke-linecap="round"/>
<path d="M87.3203 74.5266C87.3203 74.5266 90.2803 74.58 91.2837 77.92L87.3203 74.5266Z" fill="#986C31"/>
<path d="M87.3203 74.5266C87.3203 74.5266 90.2803 74.58 91.2837 77.92" stroke="#E0BF94" stroke-miterlimit="10" stroke-linecap="round"/>
<path d="M99.4043 83.1067C99.4043 83.1067 99.5143 84.41 101.794 84.1667" stroke="#FAE9D2" stroke-miterlimit="10" stroke-linecap="round"/>
<path d="M138.814 92.9233C138.561 99.74 145.041 96.19 140.407 90" stroke="#FAE9D2" stroke-miterlimit="10" stroke-linecap="round"/>
<path d="M146.524 96.21C150.031 100.457 145.231 103.74 144.824 98.6833" stroke="#FAE9D2" stroke-miterlimit="10" stroke-linecap="round"/>
<path d="M93.2587 114.703C93.5835 111.816 91.8477 109.251 89.3817 108.973C86.9156 108.696 84.6532 110.811 84.3284 113.698C84.0036 116.585 85.7393 119.15 88.2054 119.427C90.6714 119.705 92.9339 117.59 93.2587 114.703Z" fill="#E0BF94" stroke="white" stroke-miterlimit="10"/>
<path d="M84.4383 93.405C85.7257 92.8297 86.4254 91.5934 86.001 90.6438C85.5766 89.6942 84.1889 89.3908 82.9014 89.9662C81.614 90.5415 80.9143 91.7778 81.3387 92.7274C81.7631 93.677 83.1508 93.9804 84.4383 93.405Z" fill="white"/>
<path d="M112.712 91.7285C113.999 91.1531 114.699 89.9169 114.274 88.9672C113.85 88.0176 112.462 87.7142 111.175 88.2896C109.887 88.865 109.188 90.1012 109.612 91.0508C110.037 92.0004 111.424 92.3038 112.712 91.7285Z" fill="white"/>
<path d="M98.3205 93.9433C96.3472 94.48 91.3305 94.26 89.5272 91.1866C87.5838 87.88 90.6305 83.4 94.2572 84.61C96.9872 85.52 96.2805 88.18 98.1172 89.51C99.0638 90.2066 99.2005 91.93 98.3205 93.9433Z" fill="#E0BF94"/>
<path d="M99.9462 89.9033C99.9462 89.9033 94.7862 90.8 93.4562 97.5333C92.1262 104.267 101.44 97.5333 101.44 97.5333L99.9462 89.9033Z" fill="white"/>
<path d="M93.4551 97.53C93.4551 97.53 94.1784 91.7267 99.5551 90L93.4551 97.53Z" fill="white"/>
<path d="M92.9588 97.47C93.3688 94.8067 94.7188 92.2234 96.9254 90.6267C97.6521 90.0634 98.5021 89.6934 99.3521 89.3634C99.6954 89.23 100.082 89.4034 100.212 89.7467C100.355 90.1167 100.139 90.53 99.7588 90.6334C96.6454 91.5367 94.5088 94.4867 93.9488 97.5934C93.8621 98.25 92.8788 98.1334 92.9554 97.47H92.9588Z" fill="#FAE9D2"/>
</g>
<defs>
<clipPath id="clip0_13882_10680">
<rect width="180" height="180" fill="white"/>
</clipPath>
</defs>
</svg>
