<svg width="180" height="180" viewBox="0 0 180 180" fill="none" xmlns="http://www.w3.org/2000/svg">
<g clip-path="url(#clip0_1208_22233)">
<path d="M81.952 78.2371C78.9791 82.2009 68.8217 87.4035 57.4257 83.4396C46.0296 79.4758 46.2773 71.0526 46.7728 68.0797C36.12 63.3727 40.3316 49.4992 46.5251 49.0037C43.3044 34.387 62.876 23.7342 73.5288 30.9186C82.1997 25.7161 98.0551 32.1573 95.0822 47.5173C104.249 49.4992 104.001 66.0978 95.5777 66.841C97.3119 75.0165 90.8706 80.219 81.952 78.2371Z" fill="white" stroke="#97AA7E" stroke-width="1.48644" stroke-linecap="round" stroke-linejoin="round"/>
<path d="M67.583 54.2067C65.3534 51.4816 60.1508 47.27 57.9211 46.0313C59.6553 45.2881 61.885 42.8107 62.6282 41.572C65.3534 45.5358 68.3262 48.7564 71.2991 50.2429C73.7765 48.5087 77.9881 43.3061 78.9791 41.3242C79.9701 42.5629 82.4475 45.2881 83.9339 46.0313C79.2268 48.7564 76.7494 51.7293 75.263 53.7112C76.9972 56.1887 80.7133 60.1525 84.4294 61.8867C82.6952 63.1254 80.2178 65.3551 79.2268 66.5938C78.4836 64.8596 73.5288 58.6661 71.5469 57.1796C69.0695 59.4093 64.3624 64.6118 62.876 67.8325C61.1418 65.8505 60.1508 64.8596 57.9211 63.3731C61.1418 61.8867 65.8488 56.4364 67.583 54.2067Z" fill="#BDCE9F"/>
<path d="M62.3806 103.557C66.5922 104.741 72.7857 103.851 75.2631 103.262C75.7586 106.222 75.7586 109.478 75.7586 111.251C73.0335 112.73 67.3354 113.915 63.8671 113.322C62.3806 108.588 62.3806 105.628 62.3806 103.557Z" fill="#97AA7E"/>
<path d="M39.8362 92.8539C42.8091 88.6423 42.0658 84.4307 40.3317 81.4578C46.2774 82.9443 57.9212 82.9443 62.3806 79.7236C61.1419 84.9262 66.3444 88.1468 65.3535 95.579C64.3625 103.011 58.4167 104.25 54.4529 104.002C50.489 103.754 40.3317 96.57 39.8362 92.8539Z" fill="white" stroke="#97AA7E" stroke-width="1.48644" stroke-linecap="round" stroke-linejoin="round"/>
<path d="M36.3678 92.1111C34.8814 91.1202 35.1291 88.395 37.3588 87.8995C38.3497 87.4041 46.763 87.4313 48.0116 87.8995C49.9936 88.6428 49.9936 90.6247 48.5071 92.1111C46.5252 92.8544 38.102 92.8544 36.3678 92.1111Z" fill="white" stroke="#97AA7E" stroke-width="1.48644" stroke-linecap="round" stroke-linejoin="round"/>
<path d="M28.6878 95.3317C28.3211 92.77 29.1833 91.1201 31.4129 90.8723C33.6426 90.6246 55.196 90.6246 56.9302 90.8723C58.6644 91.1201 59.9031 92.111 60.8941 94.5884C61.885 97.0658 67.8308 116.142 68.3263 118.619C68.8218 121.097 67.0876 122.583 65.1057 123.079C63.1237 123.574 44.0477 123.326 41.5703 123.079C39.0929 122.831 38.5974 122.335 37.6065 120.849C36.6155 119.362 28.9355 97.0658 28.6878 95.3317Z" fill="#E9F4D7" stroke="#97AA7E" stroke-width="1.48644" stroke-linecap="round" stroke-linejoin="round"/>
<path d="M30.7738 113.479C30.0702 111.856 32.0546 110.238 34.0291 110.303C35.9763 110.365 37.0193 111.333 36.9524 113.015C36.8781 114.891 32.0769 116.484 30.7738 113.481V113.479Z" fill="#BDCE9F" stroke="#97AA7E" stroke-width="1.48644" stroke-linecap="round" stroke-linejoin="round"/>
<path d="M28.1677 109.805C27.2634 107.855 29.8523 105.89 32.4164 105.955C34.9434 106.017 36.2911 107.176 36.192 109.2C36.0805 111.459 29.8399 113.412 28.1677 109.805Z" fill="#BDCE9F" stroke="#97AA7E" stroke-width="1.48644" stroke-linecap="round" stroke-linejoin="round"/>
<path d="M27.4466 105.335C26.6043 103.41 28.9801 101.49 31.3436 101.565C33.6723 101.636 34.9185 102.786 34.8367 104.78C34.745 107.005 29.0049 108.898 27.4466 105.338V105.335Z" fill="#BDCE9F" stroke="#97AA7E" stroke-width="1.48644" stroke-linecap="round" stroke-linejoin="round"/>
<path d="M31.6606 94.3408H55.196C55.9392 94.3408 57.4257 95.084 57.9211 96.5705C58.4166 98.0569 64.8579 118.372 65.3534 119.858" stroke="#BFD3A5" stroke-width="1.48644" stroke-linecap="round" stroke-linejoin="round"/>
<path d="M127.041 135.961C124.316 140.668 123.077 146.862 123.51 148.972C123.652 149.661 124.157 150.258 124.846 150.387C128.527 151.073 135.216 151.073 137.845 150.201C138.657 149.931 139.237 149.21 139.428 148.378C141.169 140.829 133.727 141.164 132.003 141.614C135.214 137.2 135.214 134.97 134.223 132.988C133.232 131.006 127.534 128.281 124.065 127.29C123.074 127.786 120.597 129.024 119.111 129.52C122.827 131.502 125.552 133.979 127.038 135.961H127.041Z" fill="#BDCE9F" stroke="#97AA7E" stroke-width="1.48644" stroke-linecap="round" stroke-linejoin="round"/>
<path d="M129.518 142.402C130.014 142.155 131.21 141.793 131.748 141.659L129.518 142.402Z" fill="#BDCE9F"/>
<path d="M129.518 142.402C130.014 142.155 131.21 141.793 131.748 141.659" stroke="#97AA7E" stroke-width="1.48644" stroke-linecap="round" stroke-linejoin="round"/>
<path d="M87.4618 128.346C81.454 132.988 76.747 136.952 74.6982 139.001C68.9605 136.952 63.0246 139.786 64.7415 146.495C65.0165 147.573 65.9455 148.358 67.0504 148.475C69.9217 148.777 75.0029 149.146 78.5134 148.485C79.269 148.331 80.0518 147.679 80.2971 147.238C81.952 145.128 89.632 134.97 93.0656 129.693" fill="#BDCE9F"/>
<path d="M87.4618 128.346C81.454 132.988 76.747 136.952 74.6982 139.001C68.9605 136.952 63.0246 139.786 64.7415 146.495C65.0165 147.573 65.9455 148.358 67.0504 148.475C69.9217 148.777 75.0029 149.146 78.5134 148.485C79.269 148.331 80.0518 147.679 80.2971 147.238C81.952 145.128 89.632 134.97 93.0656 129.693" stroke="#97AA7E" stroke-width="1.48644" stroke-linecap="round" stroke-linejoin="round"/>
<path d="M76.9353 140.48C76.4373 139.987 75.6941 139.491 74.7007 138.998L76.9353 140.48Z" fill="#BDCE9F"/>
<path d="M76.9353 140.48C76.4373 139.987 75.6941 139.491 74.7007 138.998" stroke="#97AA7E" stroke-width="1.48644" stroke-linecap="round" stroke-linejoin="round"/>
<path d="M88.3315 132.143C80.4211 131.286 73.8039 125.737 71.5743 118.099C66.9391 102.219 65.8416 79.3893 78.568 65.3771C89.8674 53.1486 119.524 46.8734 133.945 67.0865C139.165 74.6699 140.667 88.147 140.498 95.4008C145.446 96.2283 151.79 103.093 150.683 111.878C149.573 120.66 143.161 125.407 129.181 128.814C118.447 131.43 101.576 133.578 88.3315 132.141V132.143Z" fill="#D8EAC1"/>
<mask id="mask0_1208_22233" style="mask-type:luminance" maskUnits="userSpaceOnUse" x="68" y="54" width="83" height="79">
<path d="M88.3315 132.143C80.4211 131.286 73.8039 125.737 71.5743 118.099C66.9391 102.219 65.8416 79.3893 78.568 65.3771C89.8674 53.1486 119.524 46.8734 133.945 67.0865C139.165 74.6699 140.667 88.147 140.498 95.4008C145.446 96.2283 151.79 103.093 150.683 111.878C149.573 120.66 143.161 125.407 129.181 128.814C118.447 131.43 101.576 133.578 88.3315 132.141V132.143Z" fill="white"/>
</mask>
<g mask="url(#mask0_1208_22233)">
<path d="M84.1816 59.7184C101.523 56.2501 135.712 50.0566 135.216 98.366C141.657 99.6047 153.301 109.762 142.319 124.163C156.851 115.921 155.779 102.082 150.081 92.9157C155.779 62.9391 107.717 37.9173 84.1816 59.7184Z" fill="white"/>
</g>
<path d="M88.3315 132.143C80.4211 131.286 73.8039 125.737 71.5743 118.099C66.9391 102.219 65.8416 79.3893 78.568 65.3771C89.8674 53.1486 119.524 46.8734 133.945 67.0865C139.165 74.6699 140.667 88.147 140.498 95.4008C145.446 96.2283 151.79 103.093 150.683 111.878C149.573 120.66 143.161 125.407 129.181 128.814C118.447 131.43 101.576 133.578 88.3315 132.141V132.143Z" stroke="#97AA7E" stroke-width="1.48644" stroke-linecap="round" stroke-linejoin="round"/>
<path d="M116.2 107.357C125.703 104.025 130.668 93.5104 127.288 83.8717C123.909 74.233 113.466 69.1202 103.963 72.4519C94.4599 75.7835 89.4955 86.2981 92.8747 95.9367C96.2539 105.575 106.697 110.688 116.2 107.357Z" fill="white"/>
<mask id="mask1_1208_22233" style="mask-type:luminance" maskUnits="userSpaceOnUse" x="91" y="71" width="38" height="38">
<path d="M116.2 107.357C125.703 104.025 130.668 93.5104 127.288 83.8717C123.909 74.233 113.466 69.1202 103.963 72.4519C94.4599 75.7835 89.4955 86.2981 92.8747 95.9367C96.2539 105.575 106.697 110.688 116.2 107.357Z" fill="white"/>
</mask>
<g mask="url(#mask1_1208_22233)">
<path d="M110.676 99.5455C116.345 97.5578 119.307 91.2855 117.292 85.5358C115.276 79.7862 109.046 76.7365 103.376 78.7242C97.7065 80.7119 94.7444 86.9842 96.7602 92.7339C98.7759 98.4835 105.006 101.533 110.676 99.5455Z" fill="#97AA7E"/>
<path d="M114.633 90.8671C116.822 90.0999 117.965 87.6786 117.187 85.459C116.409 83.2395 114.004 82.0622 111.816 82.8295C109.627 83.5967 108.484 86.018 109.262 88.2376C110.04 90.4571 112.445 91.6344 114.633 90.8671Z" fill="white"/>
<path d="M90.1274 97.5613C101.524 91.8633 121.095 94.093 127.536 102.764C126.793 108.957 114.901 113.169 107.222 112.673C99.5416 112.178 91.3661 104.746 90.1274 97.5613Z" fill="#BDCE9F"/>
</g>
<path d="M118.142 44.7705C119.856 58.1733 110.194 61.1462 98.5234 59.5408" stroke="#97AA7E" stroke-width="2.47741" stroke-linecap="round" stroke-linejoin="round"/>
<path d="M111.245 118.508C110.442 116.145 107.717 106.235 96.0732 116.64" stroke="#97AA7E" stroke-width="1.48644" stroke-linecap="round" stroke-linejoin="round"/>
<path d="M102.762 117.628C102.515 118.371 102.019 119.61 101.524 120.105" stroke="#BFD3A5" stroke-width="1.48644" stroke-linecap="round" stroke-linejoin="round"/>
<path d="M105.983 118.124C105.983 118.62 105.983 120.106 106.231 120.849" stroke="#BFD3A5" stroke-width="1.48644" stroke-linecap="round" stroke-linejoin="round"/>
<path d="M79.7224 81.1162C76.254 82.9445 74.0243 88.3948 75.8427 89.7574C77.1607 90.7459 79.2269 88.6426 79.8091 86.2395" fill="white"/>
<path d="M79.7224 81.1162C76.254 82.9445 74.0243 88.3948 75.8427 89.7574C77.1607 90.7459 79.2269 88.6426 79.8091 86.2395" stroke="#97AA7E" stroke-width="1.48644" stroke-linecap="round" stroke-linejoin="round"/>
<path d="M126.793 128.838C130.014 125.618 136.207 117.195 137.942 112.735C135.96 120.415 134.473 124.379 131.733 128.222C130.524 128.464 127.784 128.838 126.793 128.838Z" fill="#97AA7E"/>
<path d="M125.802 134.536C126.05 132.059 127.053 130.362 129.531 130.114C129.283 129.866 128.485 128.932 127.769 128.781C125.842 129.22 125.175 130.084 124.38 129.975C123.037 130.996 122.961 131.244 122.53 131.794C123.402 133.141 125.307 134.041 125.802 134.536Z" fill="#97AA7E"/>
<path d="M82.6506 132.487C83.7308 132.371 87.8978 134.784 88.1455 136.27C89.3842 134.784 90.2067 132.993 90.4148 132.279C88.6014 132.336 84.7688 131.811 83.9785 131.439C83.1436 131.687 83.3493 131.68 82.6506 132.49V132.487Z" fill="#97AA7E"/>
<path d="M86.3828 92.1769L83.2688 91.7098C81.0362 91.375 78.9549 92.9134 78.62 95.146C78.2851 97.3786 79.8236 99.46 82.0562 99.7948L85.1701 100.262C87.4027 100.597 89.4841 99.0583 89.819 96.8257C90.1538 94.5931 88.6154 92.5117 86.3828 92.1769Z" fill="white"/>
<path d="M137.169 97.1329L134.055 96.6659C131.822 96.331 129.741 97.8695 129.406 100.102C129.071 102.335 130.609 104.416 132.842 104.751L135.956 105.218C138.189 105.553 140.27 104.014 140.605 101.782C140.94 99.5492 139.401 97.4678 137.169 97.1329Z" fill="white"/>
<path d="M133.234 109.453C128.28 118.867 114.654 131.006 97.312 123.078C96.8166 115.398 96.3211 104.25 89.8798 105.737C88.6411 103.507 84.4295 103.259 82.9431 106.232C78.9792 105.984 76.5018 108.462 78.9792 114.407C76.7496 116.637 76.5018 121.096 78.7315 124.565C80.9612 128.033 84.925 129.52 87.6502 129.024C91.1185 133.236 123.077 148.348 138.189 111.187" fill="#BDCE9F"/>
<path d="M133.234 109.453C128.28 118.867 114.654 131.006 97.312 123.078C96.8166 115.398 96.3211 104.25 89.8798 105.737C88.6411 103.507 84.4295 103.259 82.9431 106.232C78.9792 105.984 76.5018 108.462 78.9792 114.407C76.7496 116.637 76.5018 121.096 78.7315 124.565C80.9612 128.033 84.925 129.52 87.6502 129.024C91.1185 133.236 123.077 148.348 138.189 111.187" stroke="#97AA7E" stroke-width="1.48644" stroke-linecap="round" stroke-linejoin="round"/>
<path d="M83.6861 121.097C87.1545 115.151 83.6861 110.94 79.2268 114.16" stroke="#97AA7E" stroke-width="1.48644" stroke-linecap="round" stroke-linejoin="round"/>
<path d="M89.1365 115.15C87.1546 111.187 87.1546 106.727 89.8797 105.736" stroke="#97AA7E" stroke-width="1.48644" stroke-linecap="round" stroke-linejoin="round"/>
<path d="M83.4385 113.169C82.066 110.077 82.1998 107.471 83.2156 105.841" stroke="#97AA7E" stroke-width="1.48644" stroke-linecap="round" stroke-linejoin="round"/>
<path d="M131.252 53.7112C133.482 49.0041 139.428 48.5087 140.419 49.9951C141.219 51.1966 140.171 52.968 137.198 53.7112" fill="white"/>
<path d="M131.252 53.7112C133.482 49.0041 139.428 48.5087 140.419 49.9951C141.219 51.1966 140.171 52.968 137.198 53.7112" stroke="#97AA7E" stroke-width="1.48644" stroke-linecap="round" stroke-linejoin="round"/>
<path d="M141.41 65.0057C145.703 63.5044 151.505 64.6044 150.886 68.0108C150.457 70.3718 146.345 69.5122 145.059 68.8705" fill="white"/>
<path d="M141.41 65.0057C145.703 63.5044 151.505 64.6044 150.886 68.0108C150.457 70.3718 146.345 69.5122 145.059 68.8705" stroke="#97AA7E" stroke-width="1.48644" stroke-linecap="round" stroke-linejoin="round"/>
</g>
<defs>
<clipPath id="clip0_1208_22233">
<rect width="127.47" height="123.746" fill="white" transform="translate(26.53 27.877)"/>
</clipPath>
</defs>
</svg>
