<svg width="180" height="180" viewBox="0 0 180 180" fill="none" xmlns="http://www.w3.org/2000/svg">
<g clip-path="url(#clip0_1208_22236)">
<path d="M51.8308 102.489C50.7348 102.794 43.4993 104.886 42.6414 105.397C41.6693 104.348 38.3442 102.94 33.866 104.187C27.9075 105.846 27.8951 111.383 31.8749 113.781C36.0902 115.765 58.6745 107.364 61.0252 105.849C57.3157 104.105 54.4989 102.295 51.8283 102.491L51.8308 102.489Z" fill="#BDCE9F" stroke="#97AA7E" stroke-width="1.48777" stroke-linecap="round" stroke-linejoin="round"/>
<path d="M44.6474 105.919C42.8448 102.693 38.0095 102.479 36.8267 105.767C36.0829 107.835 37.8037 109.948 40.2511 109.77" fill="#BDCE9F"/>
<path d="M44.6474 105.919C42.8448 102.693 38.0095 102.479 36.8267 105.767C36.0829 107.835 37.8037 109.948 40.2511 109.77" stroke="#97AA7E" stroke-width="1.48777" stroke-linecap="round" stroke-linejoin="round"/>
<path d="M128.086 95.6776C134.285 96.6694 140.732 102.125 141.972 112.539C145.195 111.795 149.411 112.787 151.395 112.043C148.667 97.4133 142.964 90.4704 129.574 86.751C129.078 91.2143 128.334 92.95 128.086 95.6776Z" fill="#A8B28D" stroke="#97AA7E" stroke-width="1.48777" stroke-linecap="round" stroke-linejoin="round"/>
<path d="M74.5266 113.778C69.5673 119.729 69.8153 129.152 84.693 129.152C96.0992 129.152 101.554 125.928 105.026 123.945C108.249 127.168 120.647 129.152 121.639 121.713C122.135 116.258 115.192 116.01 109.985 117.25C108.745 114.77 84.693 111.547 74.5266 113.778Z" fill="#BDCE9F" stroke="#97AA7E" stroke-width="1.48777" stroke-linecap="round" stroke-linejoin="round"/>
<path d="M52.9962 81.9284C52.0143 64.8166 52.1383 27.2579 92.856 27.7489C133.574 28.2399 134.9 73.7234 130.139 97.1631C126.951 112.862 104.875 125.862 71.0255 116.787C46.4501 110.198 45.2698 98.636 45.5153 92.2585C45.7136 87.1058 48.9495 83.1831 52.9962 81.9284Z" fill="white"/>
<mask id="mask0_1208_22236" style="mask-type:luminance" maskUnits="userSpaceOnUse" x="45" y="27" width="88" height="93">
<path d="M52.9962 81.9284C52.0143 64.8166 52.1383 27.2579 92.856 27.7489C133.574 28.2399 134.9 73.7234 130.139 97.1631C126.951 112.862 104.875 125.862 71.0255 116.787C46.4501 110.198 45.2698 98.636 45.5153 92.2585C45.7136 87.1058 48.9495 83.1831 52.9962 81.9284Z" fill="white"/>
</mask>
<g mask="url(#mask0_1208_22236)">
<path d="M56.7158 83.4157C55.7338 66.3039 55.8553 28.7477 96.573 29.2362C137.291 29.7271 138.617 75.2106 133.856 98.6504C130.668 114.349 108.592 127.349 74.7425 118.274C50.1671 111.686 48.9868 100.123 49.2323 93.7457C49.4307 88.5931 52.6666 84.6704 56.7133 83.4157H56.7158Z" fill="#D8EAC1"/>
</g>
<path d="M52.9962 81.9284C52.0143 64.8166 52.1383 27.2579 92.856 27.7489C133.574 28.2399 134.9 73.7234 130.139 97.1631C126.951 112.862 104.875 125.862 71.0255 116.787C46.4501 110.198 45.2698 98.636 45.5153 92.2585C45.7136 87.1058 48.9495 83.1831 52.9962 81.9284Z" stroke="#97AA7E" stroke-width="1.48777" stroke-linecap="round" stroke-linejoin="round"/>
<path d="M62.0417 40.3471C62.7137 39.1767 63.5543 38.1501 64.7024 37.4062C64.5164 39.3899 69.5277 43.2209 78.9923 44.1012C89.6547 45.093 98.3829 43.2482 101.805 42.6134C108.5 41.3736 110.982 46.5312 110.731 51.54C110.235 61.4585 109.74 75.5923 109.492 78.8158C116.434 77.8239 127.216 73.5491 131.496 69.6114C131.873 71.4067 131.56 71.8728 131.56 72.3688C128.833 75.5923 122.138 81.5433 109.244 82.2872C109.492 93.1975 109.74 101.628 109.987 105.348C110.201 108.564 108.996 111.547 103.293 113.53C97.5894 115.514 74.0331 118.242 55.1881 104.108C53.4524 101.876 51.4687 98.1567 51.2207 96.173C68.0821 103.612 93.87 106.587 96.5976 102.62C99.3252 98.6526 101.309 61.7064 97.0935 57.987C92.8782 54.2676 67.906 43.7838 62.0417 40.3471Z" fill="#97AA7E"/>
<path d="M58.4092 54.5163C54.9377 61.9551 54.6898 73.8572 59.1531 84.5196C56.9214 87.2471 57.1694 89.4788 57.6653 90.9665C58.9051 94.438 71.5511 102.621 94.6115 99.3972C95.6033 100.885 96.5952 103.117 95.1074 103.861C93.6196 104.604 57.6653 105.348 53.202 94.9339C51.7142 85.7594 50.7224 53.7724 53.202 51.5407C55.6816 49.3091 56.1775 51.2928 58.4092 54.5163Z" fill="#97AA7E"/>
<path d="M103.786 70.1377C117.672 70.3857 127.59 65.6744 129.326 57.4917C129.326 55.756 129.326 54.7641 128.83 53.2764C134.037 56.0039 134.533 62.9469 132.55 67.4102C129.616 74.0084 119.16 80.3041 103.786 79.3123V70.1377Z" fill="#E9F4D7" stroke="#97AA7E" stroke-width="1.48777" stroke-linecap="round" stroke-linejoin="round"/>
<path d="M65.3521 47.3253C66.8398 39.8864 72.5429 35.919 77.2542 36.6629C81.9654 37.4068 86.6767 41.1262 87.1726 51.7886" stroke="#97AA7E" stroke-width="2.47961" stroke-linecap="round" stroke-linejoin="round"/>
<path d="M89.6102 75.9916C88.849 85.9447 80.6092 91.6875 72.0472 90.1923C63.2495 88.6574 57.8712 83.0163 57.3108 73.3012C56.7628 63.8241 63.7677 54.9149 73.4506 56.11C82.5805 57.2383 90.555 63.6208 89.6102 75.9916Z" fill="white"/>
<mask id="mask1_1208_22236" style="mask-type:luminance" maskUnits="userSpaceOnUse" x="57" y="56" width="33" height="35">
<path d="M89.6102 75.9916C88.849 85.9447 80.6092 91.6875 72.0472 90.1923C63.2495 88.6574 57.8712 83.0163 57.3108 73.3012C56.7628 63.8241 63.7677 54.9149 73.4506 56.11C82.5805 57.2383 90.555 63.6208 89.6102 75.9916Z" fill="white"/>
</mask>
<g mask="url(#mask1_1208_22236)">
<path d="M81.6804 80.6528C81.0233 86.8443 76.2253 90.0802 70.8594 89.1429C65.3447 88.1809 61.9749 84.6449 61.6228 78.555C61.2806 72.6163 65.9696 67.0298 72.0397 67.7786C77.7626 68.4853 82.516 72.7899 81.6804 80.6503V80.6528Z" fill="#97AA7E"/>
<path d="M77.7652 75.8895C77.6387 77.0822 76.7138 77.707 75.6798 77.526C74.6458 77.345 73.9689 76.6606 73.8995 75.4853C73.8325 74.3397 74.7376 73.2636 75.9055 73.4099C77.0089 73.5463 77.9239 74.3744 77.7627 75.8895H77.7652Z" fill="white"/>
<path d="M65.7217 78.6621C67.5839 80.3036 70.3114 81.2955 73.897 80.7549" stroke="white" stroke-width="1.48777" stroke-linecap="round" stroke-linejoin="round"/>
<path d="M69.6768 73.9561C68.5758 76.5844 68.8238 80.7998 69.9892 84.5465" stroke="white" stroke-width="1.48777" stroke-linecap="round" stroke-linejoin="round"/>
</g>
<path d="M106.573 102.605C105.864 87.6033 105.839 61.1409 106.514 50.7959C107.01 44.101 102.05 43.6051 98.0829 44.5969C78.246 47.3245 64.6082 42.3653 58.9051 39.1418C57.6653 34.1825 49.9785 34.9264 49.4825 39.8856C47.422 55.9188 48.7436 85.0691 49.9363 95.481C50.1024 96.944 50.8538 98.273 52.0192 99.1756C64.6057 108.943 88.167 111.792 102.021 109.119C105.261 108.494 106.764 106.585 106.576 102.602L106.573 102.605ZM92.5534 101.943C82.2308 102.637 62.2253 98.6028 56.3858 93.1502C56.2494 93.0212 56.1626 92.8477 56.1353 92.6617C55.2104 85.9519 54.5211 65.3686 55.3071 56.0477C55.3567 55.4477 55.999 55.0956 56.5346 55.3708C64.7396 59.5738 81.6133 61.9864 92.1418 60.8359C92.6551 60.7788 93.0964 61.1905 93.0766 61.7062C92.6799 71.4065 93.0865 94.8884 93.3345 101.07C93.3518 101.526 93.0072 101.913 92.5534 101.943Z" fill="white"/>
<mask id="mask2_1208_22236" style="mask-type:luminance" maskUnits="userSpaceOnUse" x="48" y="35" width="59" height="76">
<path d="M106.573 102.605C105.864 87.6033 105.839 61.1409 106.514 50.7959C107.01 44.101 102.05 43.6051 98.0829 44.5969C78.246 47.3245 64.6082 42.3653 58.9051 39.1418C57.6653 34.1825 49.9785 34.9264 49.4825 39.8856C47.422 55.9188 48.7436 85.0691 49.9363 95.481C50.1024 96.944 50.8538 98.273 52.0192 99.1756C64.6057 108.943 88.167 111.792 102.021 109.119C105.261 108.494 106.764 106.585 106.576 102.602L106.573 102.605ZM92.5534 101.943C82.2308 102.637 62.2253 98.6028 56.3858 93.1502C56.2494 93.0212 56.1626 92.8477 56.1353 92.6617C55.2104 85.9519 54.5211 65.3686 55.3071 56.0477C55.3567 55.4477 55.999 55.0956 56.5346 55.3708C64.7396 59.5738 81.6133 61.9864 92.1418 60.8359C92.6551 60.7788 93.0964 61.1905 93.0766 61.7062C92.6799 71.4065 93.0865 94.8884 93.3345 101.07C93.3518 101.526 93.0072 101.913 92.5534 101.943Z" fill="white"/>
</mask>
<g mask="url(#mask2_1208_22236)">
<path d="M52.458 41.374C54.6897 45.5894 75.5184 53.7721 100.595 50.0353C101.346 49.9237 102.011 50.5213 101.978 51.2801C101.341 65.6693 101.83 95.985 102.546 104.604" stroke="#BFD3A5" stroke-width="1.48777" stroke-linecap="round" stroke-linejoin="round"/>
</g>
<path d="M106.573 102.605C105.864 87.6033 105.839 61.1409 106.514 50.7959C107.01 44.101 102.05 43.6051 98.0829 44.5969C78.246 47.3245 64.6082 42.3653 58.9051 39.1418C57.6653 34.1825 49.9785 34.9264 49.4825 39.8856C47.422 55.9188 48.7436 85.0691 49.9363 95.481C50.1024 96.944 50.8538 98.273 52.0192 99.1756C64.6057 108.943 88.167 111.792 102.021 109.119C105.261 108.494 106.764 106.585 106.576 102.602L106.573 102.605ZM92.5534 101.943C82.2308 102.637 62.2253 98.6028 56.3858 93.1502C56.2494 93.0212 56.1626 92.8477 56.1353 92.6617C55.2104 85.9519 54.5211 65.3686 55.3071 56.0477C55.3567 55.4477 55.999 55.0956 56.5346 55.3708C64.7396 59.5738 81.6133 61.9864 92.1418 60.8359C92.6551 60.7788 93.0964 61.1905 93.0766 61.7062C92.6799 71.4065 93.0865 94.8884 93.3345 101.07C93.3518 101.526 93.0072 101.913 92.5534 101.943Z" stroke="#97AA7E" stroke-width="1.48777" stroke-linecap="round" stroke-linejoin="round"/>
<path d="M74.5267 93.4457C73.5348 93.9416 73.3315 95.2781 75.2706 95.9253C77.5022 96.6692 84.6931 96.6692 87.6686 91.71" stroke="#97AA7E" stroke-width="1.48777" stroke-linecap="round" stroke-linejoin="round"/>
<path d="M86.6769 87.7422C86.181 89.9738 87.9167 93.1973 92.6279 92.7014" stroke="#97AA7E" stroke-width="1.48777" stroke-linecap="round" stroke-linejoin="round"/>
<path d="M101.554 121.466C100.811 123.45 100.096 125.394 101.802 126.673C103.786 128.161 108.001 127.665 108.745 125.185C109.197 123.683 108.993 120.722 108.249 118.986C106.018 120.474 104.034 121.218 101.554 121.466Z" fill="white" stroke="#97AA7E" stroke-width="1.48777" stroke-linecap="round" stroke-linejoin="round"/>
<path d="M118.416 93.694C118.416 98.9012 118.416 103.364 117.672 105.348C115.391 107.337 110.615 110.332 110.729 110.307C107.506 106.836 100.307 107.982 98.331 110.803C96.5953 113.283 96.5953 115.763 97.0912 118.242C98.0831 121.962 102.05 124.937 108.002 123.449C109.985 122.705 112.217 121.218 112.961 118.738C119.16 117.498 125.111 113.531 126.599 109.316C127.722 106.134 126.847 97.9093 124.119 92.7021" fill="#BDCE9F"/>
<path d="M118.416 93.694C118.416 98.9012 118.416 103.364 117.672 105.348C115.391 107.337 110.615 110.332 110.729 110.307C107.506 106.836 100.307 107.982 98.331 110.803C96.5953 113.283 96.5953 115.763 97.0912 118.242C98.0831 121.962 102.05 124.937 108.002 123.449C109.985 122.705 112.217 121.218 112.961 118.738C119.16 117.498 125.111 113.531 126.599 109.316C127.722 106.134 126.847 97.9093 124.119 92.7021" stroke="#97AA7E" stroke-width="1.48777" stroke-linecap="round" stroke-linejoin="round"/>
<path d="M100.878 112.814C102.219 113.19 104.409 112.784 105.857 111.576C106.467 111.068 106.739 110.503 106.544 109.734C105.822 106.895 104.034 104.271 102.051 103.609C99.8189 102.865 96.5954 103.361 94.1158 104.601C92.1321 105.593 91.3882 107.825 92.1321 109.56C93.3124 112.315 96.5954 112.04 99.323 111.296C99.323 111.296 99.2535 111.611 99.323 111.792C99.5436 112.375 100.278 112.643 100.878 112.811V112.814Z" fill="white" stroke="#97AA7E" stroke-width="1.48777" stroke-linecap="round" stroke-linejoin="round"/>
<path d="M53.45 113.531C52.2102 109.811 51.7143 108.076 51.4663 105.596C53.202 105.844 57.1694 106.836 58.6572 107.58C58.9051 104.108 59.897 100.885 60.8888 98.1572C62.7436 100.037 64.8562 103.86 65.9324 106.888C68.8236 105.596 72.543 104.852 75.0226 104.604C74.2787 107.084 72.295 110.555 70.5593 113.035C72.791 112.539 74.0308 112.291 75.7665 111.795C74.7747 108.324 77.2344 101.666 84.4451 101.133C91.1401 100.637 94.3636 105.1 95.1075 108.572C95.6505 111.103 95.2488 117.798 88.1646 119.73C82.7094 121.218 77.7502 117.994 76.7583 116.01C74.9904 116.712 73.4753 117.225 71.7991 117.746C74.5267 119.482 76.7583 121.466 77.9981 123.201C75.2706 123.697 72.295 123.697 70.3114 123.449C70.3114 124.937 69.8154 127.169 69.3195 128.656C66.344 126.673 55.6816 115.762 53.45 113.531Z" fill="white" stroke="#97AA7E" stroke-width="1.48777" stroke-linecap="round" stroke-linejoin="round"/>
<path d="M89.7342 107.664C83.5823 106.402 80.2546 109.375 81.1696 112.206C82.0846 115.038 88.5092 114.262 90.7062 111.163" fill="white"/>
<path d="M89.7342 107.664C83.5823 106.402 80.2546 109.375 81.1696 112.206C82.0846 115.038 88.5092 114.262 90.7062 111.163" stroke="#BFD3A5" stroke-width="1.48777" stroke-linecap="round" stroke-linejoin="round"/>
<path d="M71.1172 127.498C70.6907 126.774 70.1724 126.155 69.5674 125.681C68.3673 124.615 66.0761 123.082 63.3014 121.404C64.0503 121.808 64.5487 122.056 64.8561 122.209C65.6 120.722 65.3521 119.234 63.3684 117.746C61.3103 116.204 50.4273 110.9 45.6912 109.315C44.3746 108.874 42.9637 108.807 41.6172 109.144C41.4164 109.194 41.2056 109.254 40.9899 109.315C36.7175 108.016 30.5259 109.1 27.1661 114.027C23.4466 119.482 24.6864 126.177 29.6457 130.144C29.7077 130.194 29.7721 130.238 29.8341 130.283C29.9333 130.405 30.035 130.526 30.1416 130.64C32.6212 133.368 46.755 143.038 53.9459 146.51C54.3203 146.691 54.6997 146.844 55.0815 146.981C55.3543 147.177 55.6345 147.353 55.9295 147.502C59.277 149.175 63.7428 148.756 67.3333 145.617C68.8458 145 70.2865 143.772 71.3602 141.843C72.6967 139.438 73.0116 137.335 72.7364 135.674C73.3513 132.18 72.5429 129.366 71.1172 127.501V127.498Z" fill="white"/>
<mask id="mask3_1208_22236" style="mask-type:luminance" maskUnits="userSpaceOnUse" x="25" y="108" width="48" height="41">
<path d="M71.1172 127.498C70.6907 126.774 70.1724 126.155 69.5674 125.681C68.3673 124.615 66.0761 123.082 63.3014 121.404C64.0503 121.808 64.5487 122.056 64.8561 122.209C65.6 120.722 65.3521 119.234 63.3684 117.746C61.3103 116.204 50.4273 110.9 45.6912 109.315C44.3746 108.874 42.9637 108.807 41.6172 109.144C41.4164 109.194 41.2056 109.254 40.9899 109.315C36.7175 108.016 30.5259 109.1 27.1661 114.027C23.4466 119.482 24.6864 126.177 29.6457 130.144C29.7077 130.194 29.7721 130.238 29.8341 130.283C29.9333 130.405 30.035 130.526 30.1416 130.64C32.6212 133.368 46.755 143.038 53.9459 146.51C54.3203 146.691 54.6997 146.844 55.0815 146.981C55.3543 147.177 55.6345 147.353 55.9295 147.502C59.277 149.175 63.7428 148.756 67.3333 145.617C68.8458 145 70.2865 143.772 71.3602 141.843C72.6967 139.438 73.0116 137.335 72.7364 135.674C73.3513 132.18 72.5429 129.366 71.1172 127.501V127.498Z" fill="white"/>
</mask>
<g mask="url(#mask3_1208_22236)">
<path d="M42.2917 109.811C38.0763 107.828 30.8855 108.571 27.1661 114.027C23.4466 119.482 24.6864 126.177 29.6457 130.144C34.6049 134.111 41.5478 117.746 42.2917 109.811Z" fill="white" stroke="#CEE5B5" stroke-width="1.48777" stroke-linecap="round" stroke-linejoin="round"/>
<path d="M53.9461 146.509C59.1409 149.016 65.3523 147.253 69.5676 141.55C73.783 135.847 73.0391 128.408 69.5676 125.681C65.1043 121.713 45.5154 111.299 42.2919 110.803C40.3082 110.555 35.101 109.811 30.6377 114.77C26.1744 119.73 26.8315 126.997 30.1418 130.64C32.6214 133.368 46.7552 143.038 53.9461 146.509Z" fill="#E9F4D7" stroke="#BFD3A5" stroke-width="1.48777" stroke-linecap="round" stroke-linejoin="round"/>
<path d="M54.4418 130.888C59.153 123.697 65.6 123.697 69.0715 125.681C72.543 127.664 74.9804 133.593 70.5593 141.55C66.8398 148.245 60.3929 149.733 55.9296 147.501C51.7638 145.418 49.6884 138.143 54.4418 130.888Z" fill="white" stroke="#BFD3A5" stroke-width="1.48777" stroke-linecap="round" stroke-linejoin="round"/>
<path d="M61.1963 135.282C64.095 130.858 68.3078 130.858 70.4428 132.078C72.5777 133.298 74.0779 136.946 71.3577 141.841C69.0691 145.959 65.1042 146.874 62.3592 145.5C59.7953 144.218 58.2703 139.745 61.1963 135.279V135.282Z" fill="white" stroke="#BFD3A5" stroke-width="1.48777" stroke-linecap="round" stroke-linejoin="round"/>
<path d="M41.6199 109.144C37.7095 110.121 30.8063 113.238 30.6253 121.386C30.6104 122.05 30.9302 122.678 31.4782 123.05C33.8463 124.659 39.351 128.143 43.8565 130.602C45.2128 131.344 46.9262 130.741 47.4965 129.308C49.6389 123.92 55.7264 118.785 61.6328 120.473C63.3685 121.465 64.3604 121.961 64.8563 122.209C65.6002 120.721 65.3522 119.233 63.3685 117.746C61.3848 116.258 50.4274 110.899 45.6914 109.315C44.3747 108.874 42.9638 108.807 41.6174 109.144H41.6199Z" fill="white" stroke="#BFD3A5" stroke-width="1.48777" stroke-linecap="round" stroke-linejoin="round"/>
<path d="M53.45 117.498C55.1857 116.258 58.6571 115.515 61.6327 116.754L53.45 117.498Z" fill="white"/>
<path d="M53.45 117.498C55.1857 116.258 58.6571 115.515 61.6327 116.754" stroke="#BFD3A5" stroke-width="1.48777" stroke-linecap="round" stroke-linejoin="round"/>
<path d="M38.5723 120.97C40.6478 121.748 41.2999 124.441 40.308 126.673C39.3162 128.905 36.8366 129.648 35.1009 128.409C33.3651 127.169 33.2907 125.163 33.8611 123.449C34.6049 121.218 36.5886 120.226 38.5723 120.97Z" fill="white" stroke="#BFD3A5" stroke-width="1.48777" stroke-linecap="round" stroke-linejoin="round"/>
<path d="M37.5806 120.722C39.6561 121.5 40.3082 124.193 39.3163 126.425C38.3245 128.657 35.8449 129.4 34.1092 128.161C32.3734 126.921 32.299 124.915 32.8694 123.201C33.6132 120.97 35.5969 119.978 37.5806 120.722Z" fill="white" stroke="#BFD3A5" stroke-width="1.48777" stroke-linecap="round" stroke-linejoin="round"/>
</g>
<path d="M71.1172 127.498C70.6907 126.774 70.1724 126.155 69.5674 125.681C68.3673 124.615 66.0761 123.082 63.3014 121.404C64.0503 121.808 64.5487 122.056 64.8561 122.209C65.6 120.722 65.3521 119.234 63.3684 117.746C61.3103 116.204 50.4273 110.9 45.6912 109.315C44.3746 108.874 42.9637 108.807 41.6172 109.144C41.4164 109.194 41.2056 109.254 40.9899 109.315C36.7175 108.016 30.5259 109.1 27.1661 114.027C23.4466 119.482 24.6864 126.177 29.6457 130.144C29.7077 130.194 29.7721 130.238 29.8341 130.283C29.9333 130.405 30.035 130.526 30.1416 130.64C32.6212 133.368 46.755 143.038 53.9459 146.51C54.3203 146.691 54.6997 146.844 55.0815 146.981C55.3543 147.177 55.6345 147.353 55.9295 147.502C59.277 149.175 63.7428 148.756 67.3333 145.617C68.8458 145 70.2865 143.772 71.3602 141.843C72.6967 139.438 73.0116 137.335 72.7364 135.674C73.3513 132.18 72.5429 129.366 71.1172 127.501V127.498Z" stroke="#97AA7E" stroke-width="1.48777" stroke-linecap="round" stroke-linejoin="round"/>
<path d="M145.196 106.34C137.799 106.851 136.286 114.438 138.223 117.203C138.052 119.494 137.63 121.141 136.772 123.157C132.198 125.728 131.714 130.943 133.214 133.834C134.124 134.863 136.14 136.916 140.96 139.567C145.94 140.063 149.659 137.087 150.4 132.564C150.581 131.632 150.621 130.739 150.544 129.899C153.448 123.169 153.512 118.374 153.128 116.258C153.128 116.251 153.125 116.241 153.123 116.231C153.242 116.66 153.316 117.104 153.334 117.56C156.103 112.041 152.384 105.842 145.193 106.338L145.196 106.34Z" fill="white"/>
<mask id="mask4_1208_22236" style="mask-type:luminance" maskUnits="userSpaceOnUse" x="132" y="106" width="23" height="34">
<path d="M145.196 106.34C137.799 106.851 136.286 114.438 138.223 117.203C138.052 119.494 137.63 121.141 136.772 123.157C132.198 125.728 131.714 130.943 133.214 133.834C134.124 134.863 136.14 136.916 140.96 139.567C145.94 140.063 149.659 137.087 150.4 132.564C150.581 131.632 150.621 130.739 150.544 129.899C153.448 123.169 153.512 118.374 153.128 116.258C153.128 116.251 153.125 116.241 153.123 116.231C153.242 116.66 153.316 117.104 153.334 117.56C156.103 112.041 152.384 105.842 145.193 106.338L145.196 106.34Z" fill="white"/>
</mask>
<g mask="url(#mask4_1208_22236)">
<path d="M138.253 117.25C136.269 114.522 137.757 106.853 145.196 106.339C152.387 105.844 156.106 112.043 153.336 117.562C153.173 113.466 148.667 110.307 145.444 110.555C142.22 110.803 139.989 112.538 138.253 117.25Z" fill="white" stroke="#BFD3A5" stroke-width="1.48777" stroke-linecap="round" stroke-linejoin="round"/>
<path d="M134.223 128.351C137.013 122.951 138.005 120.967 138.253 116.752C138.253 114.934 140.236 110.305 145.196 110.057C150.155 109.809 152.634 113.528 153.13 116.256C153.626 118.983 153.378 126.174 147.239 136.229C143.15 134.468 138.129 132.014 134.223 128.349V128.351Z" fill="#E9F4D7" stroke="#BFD3A5" stroke-width="1.48777" stroke-linecap="round" stroke-linejoin="round"/>
<path d="M133.217 133.834C131.558 130.64 132.322 124.612 138.347 122.443C144.372 120.273 151.848 125.093 150.403 132.564C149.661 137.087 145.942 140.063 140.963 139.567C136.143 136.916 134.127 134.863 133.217 133.834Z" fill="white" stroke="#BFD3A5" stroke-width="1.48777" stroke-linecap="round" stroke-linejoin="round"/>
</g>
<path d="M145.196 106.34C137.799 106.851 136.286 114.438 138.223 117.203C138.052 119.494 137.63 121.141 136.772 123.157C132.198 125.728 131.714 130.943 133.214 133.834C134.124 134.863 136.14 136.916 140.96 139.567C145.94 140.063 149.659 137.087 150.4 132.564C150.581 131.632 150.621 130.739 150.544 129.899C153.448 123.169 153.512 118.374 153.128 116.258C153.128 116.251 153.125 116.241 153.123 116.231C153.242 116.66 153.316 117.104 153.334 117.56C156.103 112.041 152.384 105.842 145.193 106.338L145.196 106.34Z" stroke="#97AA7E" stroke-width="1.48777" stroke-linecap="round" stroke-linejoin="round"/>
<path d="M64.3602 144.03C62.3765 142.542 63.1204 139.071 64.1122 137.335C65.1041 135.599 68.0796 133.616 70.5592 135.103C78.9899 140.063 94.8594 144.03 111.473 141.054C121.639 139.071 131.062 135.351 135.773 129.648C137.013 127.912 140.484 126.425 143.212 128.16C145.939 129.896 146.073 132.688 144.948 134.855C141.724 141.054 131.062 148.493 112.961 151.469C94.051 154.578 75.2705 151.469 64.3602 144.03Z" fill="#A8B28D" stroke="#97AA7E" stroke-width="1.48777" stroke-linecap="round" stroke-linejoin="round"/>
<path d="M127.59 102.868C126.395 100.48 125.614 95.4812 125.359 93.6934C126.846 97.6607 128.086 99.1485 129.326 97.6607C129.326 98.9005 128.582 101.132 127.59 102.868Z" fill="#97AA7E"/>
</g>
<defs>
<clipPath id="clip0_1208_22236">
<rect width="130.74" height="126.408" fill="white" transform="translate(24.26 27)"/>
</clipPath>
</defs>
</svg>
