<svg width="180" height="180" viewBox="0 0 180 180" fill="none" xmlns="http://www.w3.org/2000/svg">
<g clip-path="url(#clip0_1208_22239)">
<path d="M25.1221 124.546C26.2036 120.436 37.667 117.192 42.6416 120.004C47.1837 113.299 80.4924 107.459 96.4978 108.324C102.987 105.296 126.346 102.484 134.997 108.108C156.626 110.703 163.98 117.841 162.899 124.329C161.755 131.199 151.436 133.197 146.677 134.495C150.354 136.874 144.082 145.093 118.559 156.34C100.398 164.343 63.8381 145.526 65.3521 139.902C53.0235 139.253 39.3973 136.658 33.99 134.711C26.8524 139.253 9.98182 131.9 25.1221 124.546Z" fill="#E9F4D7"/>
<path d="M26.6361 122.383C57.9981 125.844 74.2199 105.729 129.806 114.164C118.776 118.057 101.472 125.844 90.4417 132.981C57.5656 128.007 42.209 134.279 22.094 126.276" fill="white"/>
<path d="M26.6361 122.383C57.9981 125.844 74.2199 105.729 129.806 114.164C118.776 118.057 101.472 125.844 90.4417 132.981C57.5656 128.007 42.209 134.279 22.094 126.276" stroke="#BFD3A5" stroke-width="1.29774" stroke-linecap="round" stroke-linejoin="round"/>
<path d="M100.823 136.875C113.152 129.088 129.157 120.653 138.891 117.625C142.784 118.274 149.489 120.22 151.868 121.951C143.649 125.411 123.318 137.524 114.233 144.878C110.773 142.066 106.014 138.605 100.823 136.875Z" fill="white" stroke="#BFD3A5" stroke-width="1.29774" stroke-linecap="round" stroke-linejoin="round"/>
<path d="M124.832 87.9927C126.346 85.1809 128.942 83.2343 133.267 83.8832C137.593 84.5321 138.675 89.723 135.43 92.1022C132.186 94.4814 129.59 92.5348 125.697 92.9674C123.102 94.914 118.992 94.2651 117.262 89.9393C119.641 83.8832 122.02 83.4506 122.669 82.8018C124.183 84.3158 124.4 86.0461 124.832 87.9927Z" fill="#BDCE9F" stroke="#97AA7E" stroke-width="1.29774" stroke-linecap="round" stroke-linejoin="round"/>
<path d="M118.992 91.4531C118.992 94.4812 120.939 96.4278 124.399 96.6441C126.995 96.8604 128.543 95.3528 128.725 94.2649C128.913 93.1294 128.111 91.6629 126.021 91.4596" fill="#BDCE9F"/>
<path d="M118.992 91.4531C118.992 94.4812 120.939 96.4278 124.399 96.6441C126.995 96.8604 128.543 95.3528 128.725 94.2649C128.913 93.1294 128.111 91.6629 126.021 91.4596" stroke="#97AA7E" stroke-width="1.29774" stroke-linecap="round" stroke-linejoin="round"/>
<path d="M121.804 95.3467C121.155 93.8326 121.804 91.6697 123.534 89.5068C121.371 91.4534 120.296 92.5544 119.645 93.1946C119.855 94.2566 120.939 95.1304 121.804 95.3467Z" fill="#97AA7E"/>
<path d="M55.8353 63.3354C44.5882 65.4983 39.3973 62.9028 34.4226 57.2793C36.3692 63.768 36.3692 67.2286 35.7203 70.473C41.3439 74.5825 50.4281 73.9336 56.7005 71.5544C55.8353 68.0938 54.5376 67.2286 55.8353 63.3354Z" fill="#E9F4D7" stroke="#97AA7E" stroke-width="1.29774" stroke-linecap="round" stroke-linejoin="round"/>
<path d="M74.4212 34.6363C91.307 29.162 108.675 38.9296 115.754 56.7606C116.038 57.4765 116.574 58.0518 117.32 58.2422C132.186 62.038 135.772 89.8292 105.943 101.561C85.1687 109.191 62.1424 99.3849 55.0978 80.9829C48.687 64.242 52.2991 42.2324 74.4212 34.6341V34.6363Z" fill="#D8EAC1"/>
<mask id="mask0_1208_22239" style="mask-type:luminance" maskUnits="userSpaceOnUse" x="52" y="33" width="77" height="72">
<path d="M74.4212 34.6363C91.307 29.162 108.675 38.9296 115.754 56.7606C116.038 57.4765 116.574 58.0518 117.32 58.2422C132.186 62.038 135.772 89.8292 105.943 101.561C85.1687 109.191 62.1424 99.3849 55.0978 80.9829C48.687 64.242 52.2991 42.2324 74.4212 34.6341V34.6363Z" fill="white"/>
</mask>
<g mask="url(#mask0_1208_22239)">
<path d="M60.3774 44.0862C72.4897 33.7043 102.338 29.3785 113.152 61.3894C118.559 61.6057 129.374 68.527 126.346 82.5858C139.107 71.555 132.402 36.9486 106.664 25.0527C80.925 13.1567 62.7566 29.1622 60.3774 44.0862Z" fill="white"/>
</g>
<path d="M74.4212 34.6363C91.307 29.162 108.675 38.9296 115.754 56.7606C116.038 57.4765 116.574 58.0518 117.32 58.2422C132.186 62.038 135.772 89.8292 105.943 101.561C85.1687 109.191 62.1424 99.3849 55.0978 80.9829C48.687 64.242 52.2991 42.2324 74.4212 34.6341V34.6363Z" stroke="#97AA7E" stroke-width="1.29774" stroke-linecap="round" stroke-linejoin="round"/>
<path d="M83.4665 86.3491C80.737 86.3491 78.0831 86.0225 75.572 85.3758C75.559 85.3736 75.5482 85.3693 75.5352 85.365C71.8799 84.1905 70.195 80.2238 70.1474 76.8129C70.0998 73.4733 71.5122 70.8065 73.7465 70.017C74.3023 69.8202 74.8474 69.7207 75.3665 69.7207C78.0701 69.7207 79.6469 72.2946 81.0398 74.5656C81.1847 74.8014 81.3296 75.0371 81.4724 75.2664C82.1731 76.3868 82.835 76.8648 83.6807 76.8648C84.0051 76.8648 84.3663 76.7912 84.7535 76.6463C87.1543 75.7487 89.6676 74.8749 91.6791 74.8749C92.9054 74.8749 93.8182 75.2166 94.3957 75.8893C95.2349 76.8669 95.6934 78.7249 95.5399 80.5114C95.4101 82.0146 94.8672 83.228 94.0129 83.9331C92.2631 85.3758 88.0259 86.3469 83.4687 86.3469L83.4665 86.3491Z" fill="white"/>
<path d="M75.3667 70.37C77.9622 70.37 79.4438 73.2467 80.9232 75.6107C81.5462 76.6056 82.3702 77.5141 83.6831 77.5141C84.0703 77.5141 84.5028 77.434 84.983 77.2545C86.9685 76.5126 89.6743 75.5242 91.6815 75.5242C92.6267 75.5242 93.4183 75.7448 93.905 76.3137C95.2027 77.8277 95.419 81.9372 93.6 83.4361C92.0752 84.6927 88.1344 85.7006 83.469 85.7006C81.0098 85.7006 78.3494 85.4195 75.7366 84.749C69.6805 82.8024 69.3193 72.2712 73.9652 70.6296C74.467 70.4522 74.9342 70.37 75.3689 70.37M75.3667 69.0723C74.7719 69.0723 74.1555 69.1847 73.5304 69.4054C71.0301 70.29 69.4469 73.2012 69.4988 76.8219C69.5269 78.7621 70.033 80.6957 70.9241 82.2638C71.971 84.1044 73.4958 85.3914 75.3365 85.9818C75.3603 85.9905 75.3862 85.997 75.41 86.0035C77.973 86.6631 80.6832 86.9962 83.4668 86.9962C88.236 86.9962 92.5359 85.9905 94.4241 84.4354C95.4147 83.6178 96.0398 82.2465 96.1847 80.5681C96.3555 78.589 95.8473 76.5862 94.8869 75.468C94.1797 74.6439 93.1004 74.2265 91.6772 74.2265C89.5575 74.2265 86.9815 75.1219 84.5245 76.039C84.2109 76.1558 83.9253 76.2163 83.6788 76.2163C83.2375 76.2163 82.7314 76.0606 82.0198 74.9229C81.8771 74.6936 81.7343 74.4622 81.5894 74.2265C80.1814 71.9295 78.4316 69.0723 75.3624 69.0723H75.3667Z" fill="#97AA7E"/>
<path d="M73.571 76.5293C75.0851 79.5574 79.8435 81.504 83.5204 81.7203" stroke="#BFD3A5" stroke-width="1.29774" stroke-linecap="round" stroke-linejoin="round"/>
<path d="M99.5843 47.3026C104.345 55.8179 102.294 64.5258 94.9579 68.419C87.7922 72.2214 78.3057 70.4218 73.6144 63.0572C68.9231 55.6925 70.8524 45.6437 77.9683 41.7504C86.0705 37.3165 95.3234 39.6827 99.5843 47.3048V47.3026Z" fill="white"/>
<mask id="mask1_1208_22239" style="mask-type:luminance" maskUnits="userSpaceOnUse" x="71" y="39" width="32" height="32">
<path d="M99.5843 47.3026C104.345 55.8179 102.294 64.5258 94.9579 68.419C87.7922 72.2214 78.3057 70.4218 73.6144 63.0572C68.9231 55.6925 70.8524 45.6437 77.9683 41.7504C86.0705 37.3165 95.3234 39.6827 99.5843 47.3048V47.3026Z" fill="white"/>
</mask>
<g mask="url(#mask1_1208_22239)">
<path d="M90.273 53.5659C95.3558 61.6876 93.0458 68.0833 87.1238 71.2259C81.3402 74.2951 73.6813 72.8416 69.8919 66.8958C66.1025 60.95 67.6706 55.8045 72.2214 51.0958C77.1052 46.0433 86.5333 47.5898 90.273 53.5659Z" fill="#97AA7E"/>
<path d="M84.948 73.0561C84.7079 67.612 91.5254 56.1573 104.862 57.3945C107.985 65.6741 97.7935 75.5715 84.948 73.0561Z" fill="#BDCE9F"/>
<path d="M89.6954 52.469C91.0473 54.8871 90.4654 57.3593 88.3826 58.4646C86.3473 59.5438 83.6545 59.0334 82.3221 56.9419C80.9898 54.8503 81.5391 51.9975 83.5593 50.8922C85.8606 49.6334 88.4864 50.3061 89.6976 52.469H89.6954Z" fill="white"/>
</g>
<path d="M70.3396 40.8895C72.0461 32.3223 76.5861 26.4608 82.9753 25.6108C88.6118 25.0484 94.4148 31.8702 95.3946 36.6827" stroke="#97AA7E" stroke-width="2.1629" stroke-linecap="round" stroke-linejoin="round"/>
<path d="M68.7981 63.099L66.0513 63.2093C64.0819 63.2884 62.5495 64.9491 62.6286 66.9185C62.7077 68.8878 64.3683 70.4202 66.3377 70.3411L69.0845 70.2308C71.0539 70.1517 72.5863 68.4911 72.5072 66.5217C72.4281 64.5523 70.7675 63.0199 68.7981 63.099Z" fill="white"/>
<path d="M108.097 54.6048L105.79 56.1004C104.137 57.1727 103.665 59.3826 104.738 61.0364C105.81 62.6901 108.02 63.1615 109.674 62.0892L111.98 60.5935C113.634 59.5212 114.105 57.3113 113.033 55.6575C111.961 54.0038 109.751 53.5324 108.097 54.6048Z" fill="white"/>
<path d="M93.6057 102.599C95.8356 111.722 93.2185 118.788 83.9526 117.408C83.3038 122.815 77.2476 126.492 72.273 123.68C67.2983 120.869 68.1635 111.352 76.1662 107.459C79.8431 105.945 83.5201 107.242 84.8178 108.973C87.1278 108.149 88.1789 105.562 88.3563 102.943" fill="#BDCE9F"/>
<path d="M93.6057 102.599C95.8356 111.722 93.2185 118.788 83.9526 117.408C83.3038 122.815 77.2476 126.492 72.273 123.68C67.2983 120.869 68.1635 111.352 76.1662 107.459C79.8431 105.945 83.5201 107.242 84.8178 108.973C87.1278 108.149 88.1789 105.562 88.3563 102.943" stroke="#97AA7E" stroke-width="1.29774" stroke-linecap="round" stroke-linejoin="round"/>
<path d="M82.2224 116.76C82.8713 117.192 83.5202 117.409 83.9527 117.409L82.2224 116.76Z" fill="white"/>
<path d="M82.2224 116.76C82.8713 117.192 83.5202 117.409 83.9527 117.409" stroke="#97AA7E" stroke-width="1.29774" stroke-linecap="round" stroke-linejoin="round"/>
<path d="M83.52 109.189C83.9526 109.189 84.3852 109.189 84.8178 108.973L83.52 109.189Z" fill="white"/>
<path d="M83.52 109.189C83.9526 109.189 84.3852 109.189 84.8178 108.973" stroke="#97AA7E" stroke-width="1.29774" stroke-linecap="round" stroke-linejoin="round"/>
<path d="M81.7898 116.76C82.655 118.274 82.655 120.22 82.4387 120.653C83.3038 119.788 83.5201 118.274 83.7364 117.625C83.3038 117.192 82.4387 116.976 81.7898 116.76Z" fill="#97AA7E"/>
<path d="M117.694 80.8552C109.475 91.0209 96.0653 101.187 64.7032 101.403C47.6163 101.835 34.2063 91.886 18.4171 100.538C19.2823 95.3467 18.4171 89.0743 17.1194 86.4788C45.6697 79.9901 51.0769 93.6164 75.0851 91.4535C99.0933 89.2906 114.234 76.3131 117.262 72.4199C117.694 75.448 117.478 78.2598 117.694 80.8552Z" fill="white" stroke="#97AA7E" stroke-width="1.29774" stroke-linecap="round" stroke-linejoin="round"/>
<path d="M39.1812 95.9958C38.0997 95.3469 37.0183 94.698 35.9368 95.3469C34.8554 95.9958 33.9902 98.1587 35.0717 99.889C36.1531 101.619 38.0997 102.052 39.8301 102.268C39.3975 99.6727 39.3975 97.7261 39.1812 95.9958Z" fill="white" stroke="#97AA7E" stroke-width="1.29774" stroke-linecap="round" stroke-linejoin="round"/>
<path d="M63.4056 79.9904C59.0798 78.2601 53.6725 77.8275 49.563 78.9089C45.4535 79.9904 39.6137 83.0184 40.0463 93.4004C33.7738 99.6728 39.1811 108.541 46.7512 108.108C54.3214 107.676 55.6191 102.485 55.4028 99.0239C55.2255 96.184 53.2399 93.4004 51.077 92.7515C51.077 88.4257 51.475 86.4293 52.3748 85.8302C53.0237 85.3976 57.782 83.8836 63.8382 84.7488" fill="#BDCE9F"/>
<path d="M63.4056 79.9904C59.0798 78.2601 53.6725 77.8275 49.563 78.9089C45.4535 79.9904 39.6137 83.0184 40.0463 93.4004C33.7738 99.6728 39.1811 108.541 46.7512 108.108C54.3214 107.676 55.6191 102.485 55.4028 99.0239C55.2255 96.184 53.2399 93.4004 51.077 92.7515C51.077 88.4257 51.475 86.4293 52.3748 85.8302C53.0237 85.3976 57.782 83.8836 63.8382 84.7488" stroke="#97AA7E" stroke-width="1.29774" stroke-linecap="round" stroke-linejoin="round"/>
<path d="M50.7958 104.163C49.6214 102.919 48.9919 100.616 50.2508 98.838C50.5557 98.4054 51.0791 98.1848 51.6069 98.2215C55.9284 98.5178 62.1554 97.8711 66.6477 96.6448C68.378 96.2122 71.4061 97.0774 72.055 100.538C72.4832 103.108 71.6397 105.253 69.1048 106.136C69.0529 106.153 69.0009 106.17 68.9469 106.183C64.0717 107.42 56.1598 106.209 51.3863 104.544C51.1613 104.466 50.9559 104.338 50.7936 104.165L50.7958 104.163Z" fill="white"/>
<mask id="mask2_1208_22239" style="mask-type:luminance" maskUnits="userSpaceOnUse" x="49" y="96" width="24" height="11">
<path d="M50.7958 104.163C49.6214 102.919 48.9919 100.616 50.2508 98.838C50.5557 98.4054 51.0791 98.1848 51.6069 98.2215C55.9284 98.5178 62.1554 97.8711 66.6477 96.6448C68.378 96.2122 71.4061 97.0774 72.055 100.538C72.4832 103.108 71.6397 105.253 69.1048 106.136C69.0529 106.153 69.0009 106.17 68.9469 106.183C64.0717 107.42 56.1598 106.209 51.3863 104.544C51.1613 104.466 50.9559 104.338 50.7936 104.165L50.7958 104.163Z" fill="white"/>
</mask>
<g mask="url(#mask2_1208_22239)">
<path d="M59.9901 97.1092C58.2598 97.1092 55.448 98.6232 55.448 102.084C55.448 105.328 58.6923 106.842 60.8552 107.059C63.0182 107.275 70.372 107.924 72.7512 105.761C75.1304 103.598 76.2118 101.868 74.0489 97.7581C71.886 93.6486 62.5856 93.216 59.9901 97.1092Z" fill="#E9F4D7" stroke="#BFD3A5" stroke-width="1.29774" stroke-linecap="round" stroke-linejoin="round"/>
<path d="M66.2171 98.8076C65.1356 100.538 65.5682 103.566 67.7311 104.431" stroke="#BFD3A5" stroke-width="1.29774" stroke-linecap="round" stroke-linejoin="round"/>
</g>
<path d="M50.7958 104.163C49.6214 102.919 48.9919 100.616 50.2508 98.838C50.5557 98.4054 51.0791 98.1848 51.6069 98.2215C55.9284 98.5178 62.1554 97.8711 66.6477 96.6448C68.378 96.2122 71.4061 97.0774 72.055 100.538C72.4832 103.108 71.6397 105.253 69.1048 106.136C69.0529 106.153 69.0009 106.17 68.9469 106.183C64.0717 107.42 56.1598 106.209 51.3863 104.544C51.1613 104.466 50.9559 104.338 50.7936 104.165L50.7958 104.163Z" stroke="#97AA7E" stroke-width="1.29774" stroke-linecap="round" stroke-linejoin="round"/>
<path d="M114.234 87.56C112.936 70.4731 120.073 59.226 128.725 55.3328C126.562 48.8441 126.778 40.8413 135.214 39.111C143.649 37.3807 151.219 46.2486 146.893 60.9563C145.379 65.4984 142.351 67.0124 136.079 67.2287C131.321 67.445 121.587 71.9871 118.559 87.7763" fill="#BDCE9F"/>
<mask id="mask3_1208_22239" style="mask-type:luminance" maskUnits="userSpaceOnUse" x="114" y="38" width="35" height="50">
<path d="M114.234 87.56C112.936 70.4731 120.073 59.226 128.725 55.3328C126.562 48.8441 126.778 40.8413 135.214 39.111C143.649 37.3807 151.219 46.2486 146.893 60.9563C145.379 65.4984 142.351 67.0124 136.079 67.2287C131.321 67.445 121.587 71.9871 118.559 87.7763" fill="white"/>
</mask>
<g mask="url(#mask3_1208_22239)">
<path d="M123.967 57.0634C129.158 51.8725 129.807 51.2236 131.104 50.3584C131.104 44.7349 135.646 40.8417 141.486 41.4905C150.127 42.4509 154.031 49.9258 153.598 54.2516C157.924 34.1367 146.677 26.9991 129.59 34.1367C112.503 41.2742 122.453 54.9005 123.967 57.0634Z" fill="white"/>
<path d="M145.379 44.735C141.865 41.5079 132.919 43.2339 134.132 54.468C134.997 62.4708 141.702 67.6617 144.298 65.2825C146.893 62.9033 153.181 51.8985 145.379 44.735Z" fill="#97AA7E"/>
</g>
<path d="M114.234 87.56C112.936 70.4731 120.073 59.226 128.725 55.3328C126.562 48.8441 126.778 40.8413 135.214 39.111C143.649 37.3807 151.219 46.2486 146.893 60.9563C145.379 65.4984 142.351 67.0124 136.079 67.2287C131.321 67.445 121.587 71.9871 118.559 87.7763" stroke="#97AA7E" stroke-width="1.29774" stroke-linecap="round" stroke-linejoin="round"/>
<path d="M130.023 57.9285L128.725 55.333L130.023 57.9285Z" fill="white"/>
<path d="M130.023 57.9285L128.725 55.333" stroke="#97AA7E" stroke-width="1.29774" stroke-linecap="round" stroke-linejoin="round"/>
<path d="M111.422 88.2094C112.72 87.7768 113.368 87.5605 113.801 87.7768C114.234 86.2628 114.1 85.668 113.842 85.3154C112.679 86.5591 111.854 87.3442 111.422 88.2094Z" fill="#97AA7E"/>
<path d="M119.208 87.5598C121.804 77.3942 125.913 74.7987 128.292 73.7172C128.076 72.2032 127.983 71.4548 127.706 70.9639C125.204 73.2263 121.371 75.8801 119.208 87.5598Z" fill="#97AA7E"/>
<path d="M60.3775 89.2905C59.0797 88.209 57.7604 85.4318 57.2305 84.7657C58.7661 84.7311 62.3241 84.5321 63.6218 85.1809C61.4589 85.8298 60.3775 86.9113 60.3775 89.2905Z" fill="#97AA7E"/>
<path d="M80.9249 102.485C80.9833 102.474 87.1368 103.361 87.1974 103.35C85.6833 102.917 84.3358 101.561 85.6833 101.187C90.6753 99.8006 96.0631 97.7523 99.0933 95.5635C93.6861 97.7264 80.0598 101.187 76.8154 100.971C78.762 102.052 80.0598 102.268 80.9249 102.485Z" fill="#97AA7E"/>
<path d="M51.7256 65.499C51.2931 68.7434 49.1302 72.204 46.751 72.8529C49.1302 72.8529 52.089 72.8442 52.7725 72.3078C51.9765 68.8558 52.3745 67.0131 51.7256 65.499Z" fill="#97AA7E"/>
<path d="M51.5095 88.4904C53.2376 89.0074 53.0495 89.1588 53.6854 89.3318C53.441 90.9756 53.2398 91.884 53.2398 92.1003C55.1864 92.9655 58.2145 95.3447 58.4308 97.9402C57.5656 98.1565 55.8115 98.0397 55.1756 98.0981C54.7668 96.0519 53.0235 93.3981 51.0769 92.7492C51.5095 90.8026 51.5116 89.4205 51.5095 88.4883V88.4904Z" fill="#97AA7E"/>
<path d="M67.9475 95.9958C70.1104 95.7795 74.0772 96.8177 74.473 100.624C73.9669 101.1 72.9243 100.657 72.2755 100.707C71.8407 98.641 70.7614 97.5098 67.9497 95.9958H67.9475Z" fill="#97AA7E"/>
</g>
<defs>
<clipPath id="clip0_1208_22239">
<rect width="146.53" height="137.387" fill="white" transform="translate(16.47 20.9062)"/>
</clipPath>
</defs>
</svg>
