<svg width="180" height="180" viewBox="0 0 180 180" fill="none" xmlns="http://www.w3.org/2000/svg">
<g clip-path="url(#clip0_1208_22235)">
<path d="M132.463 86.5414C128.834 68.8452 113.223 61.1357 92.5334 61.1357C71.8437 61.1357 56.2332 68.8452 52.6041 86.5414C47.1022 113.36 57.3236 131.923 62.4047 143.136H122.662C127.743 131.923 137.965 113.36 132.463 86.5414Z" fill="#E9F4D7" stroke="#97AA7E" stroke-width="1.07424" stroke-linecap="round" stroke-linejoin="round"/>
<path d="M14.2664 143.673V60.5986C34.1397 62.5681 52.5808 69.7296 52.5808 105.538C52.5808 128.455 44.1659 140.092 42.9126 142.062C39.1528 144.031 20.8908 143.673 14.2664 143.673Z" fill="white" stroke="#97AA7E" stroke-width="1.07424" stroke-linecap="round" stroke-linejoin="round"/>
<path d="M14.1233 143.672L9.39845 143.135C8.924 143.135 8.53906 142.75 8.53906 142.275V61.9942C8.53906 61.5197 8.924 61.1348 9.39845 61.1348L14.1233 60.5977C14.5978 60.5977 14.9827 60.9826 14.9827 61.457V142.811C14.9827 143.285 14.5978 143.67 14.1233 143.67V143.672Z" fill="#E9F4D7" stroke="#BFD3A5" stroke-width="1.07424" stroke-linecap="round" stroke-linejoin="round"/>
<path d="M14.1231 119.324L9.39821 119.195C8.92375 119.195 8.53882 119.104 8.53882 118.989V99.7834C8.53882 99.6706 8.92375 99.5775 9.39821 99.5775L14.1231 99.2695C14.5975 99.2695 14.9824 99.5399 14.9824 99.6545V119.116C14.9824 119.229 14.5975 119.322 14.1231 119.322V119.324Z" fill="white" stroke="#BFD3A5" stroke-width="1.07424" stroke-linecap="round" stroke-linejoin="round"/>
<path d="M14.9827 99.2713C16.4365 99.2713 20.7997 99.4969 24.1387 99.7028C26.3391 99.8389 28.0525 101.665 28.0525 103.867V114.95C28.0525 117.209 26.255 119.057 23.9973 119.121C20.0334 119.234 14.9827 119.322 14.9827 119.322V99.2695V99.2713Z" fill="white" stroke="#BFD3A5" stroke-width="1.07424" stroke-linecap="round" stroke-linejoin="round"/>
<path d="M21.9651 108.044H13.7293C12.5427 108.044 11.5808 109.006 11.5808 110.192C11.5808 111.379 12.5427 112.341 13.7293 112.341H21.9651C23.1517 112.341 24.1136 111.379 24.1136 110.192C24.1136 109.006 23.1517 108.044 21.9651 108.044Z" fill="white" stroke="#BFD3A5" stroke-width="1.07424" stroke-linecap="round" stroke-linejoin="round"/>
<path d="M35.5721 116.389V111.315C35.5721 109.508 34.1076 108.044 32.3011 108.044H23.9346V112.341H30.9726C31.1409 112.341 31.2752 112.477 31.2752 112.643V116.389C30.6181 116.98 30.2009 117.834 30.2009 118.786C30.2009 120.566 31.644 122.009 33.4237 122.009C35.2033 122.009 36.6464 120.566 36.6464 118.786C36.6464 117.834 36.2292 116.98 35.5721 116.389Z" fill="white" stroke="#BFD3A5" stroke-width="1.07424" stroke-linecap="round" stroke-linejoin="round"/>
<path d="M24.4714 106.074H23.7553V105.34C23.7553 104.953 23.4419 104.642 23.057 104.642H20.8745C20.4878 104.642 20.1763 104.955 20.1763 105.34V107.864H21.6086C22.3247 107.864 23.399 108.401 23.399 110.192C23.399 111.982 22.3247 112.519 21.6086 112.519H20.1763V115.044C20.1763 115.431 20.4896 115.742 20.8745 115.742H23.057C23.4437 115.742 23.7553 115.429 23.7553 115.044V114.31H24.4714C25.9037 114.31 26.7989 112.877 26.7989 110.192C26.7989 107.506 25.9037 106.074 24.4714 106.074Z" fill="white" stroke="#BFD3A5" stroke-width="1.07424" stroke-linecap="round" stroke-linejoin="round"/>
<path d="M22.6812 114.311H23.7554H22.6812Z" fill="white"/>
<path d="M22.6812 114.311H23.7554" stroke="#BFD3A5" stroke-width="1.07424" stroke-linecap="round" stroke-linejoin="round"/>
<path d="M22.6812 106.074H23.7554H22.6812Z" fill="white"/>
<path d="M22.6812 106.074H23.7554" stroke="#BFD3A5" stroke-width="1.07424" stroke-linecap="round" stroke-linejoin="round"/>
<path d="M14.2665 60.5985V60.6128C14.22 60.6056 14.1716 60.5985 14.1233 60.5985L9.39845 61.1356C8.924 61.1356 8.53906 61.5205 8.53906 61.995V142.274C8.53906 142.749 8.924 143.134 9.39845 143.134L14.1233 143.671C14.1716 143.671 14.22 143.664 14.2665 143.657V143.671C20.891 143.671 39.153 144.029 42.9128 142.06C44.1661 140.09 52.5809 128.453 52.5809 105.536C52.5809 69.7277 34.1399 62.5661 14.2665 60.5967V60.5985Z" stroke="#97AA7E" stroke-width="1.07424" stroke-linecap="round" stroke-linejoin="round"/>
<path d="M97.8779 133.16C98.236 130.782 100.196 128.809 102.707 128.643C105.299 128.469 110.697 131.19 110.069 136.005C109.567 139.852 102.875 140.187 101.034 135.67" fill="#BDCE9F"/>
<path d="M97.8779 133.16C98.236 130.782 100.196 128.809 102.707 128.643C105.299 128.469 110.697 131.19 110.069 136.005C109.567 139.852 102.875 140.187 101.034 135.67" stroke="#97AA7E" stroke-width="1.07424" stroke-linecap="round" stroke-linejoin="round"/>
<path d="M102.533 135.795C101.459 138.122 100.03 140.072 97.6987 139.555C94.476 138.838 91.7904 132.572 90.5371 127.201C91.9694 125.948 93.2227 125.948 93.9389 125.769C95.3712 129.17 98.0568 132.393 99.131 133.109" fill="#BDCE9F"/>
<path d="M102.533 135.795C101.459 138.122 100.03 140.072 97.6987 139.555C94.476 138.838 91.7904 132.572 90.5371 127.201C91.9694 125.948 93.2227 125.948 93.9389 125.769C95.3712 129.17 98.0568 132.393 99.131 133.109" stroke="#97AA7E" stroke-width="1.07424" stroke-linecap="round" stroke-linejoin="round"/>
<path d="M77.6464 127.737C71.7381 131.497 68.5154 133.825 65.5845 136.326C63.889 132.919 60.8579 131.214 58.0792 131.911C54.0114 132.929 53.1162 136.868 54.2961 139.645C55.1573 141.674 58.6682 144.925 61.0566 145.561C62.0682 145.818 63.3215 145.818 63.9893 145.523C66.007 144.386 72.0944 138.836 80.5092 129.168" fill="#BDCE9F"/>
<path d="M77.6464 127.737C71.7381 131.497 68.5154 133.825 65.5845 136.326C63.889 132.919 60.8579 131.214 58.0792 131.911C54.0114 132.929 53.1162 136.868 54.2961 139.645C55.1573 141.674 58.6682 144.925 61.0566 145.561C62.0682 145.818 63.3215 145.818 63.9893 145.523C66.007 144.386 72.0944 138.836 80.5092 129.168" stroke="#97AA7E" stroke-width="1.07424" stroke-linecap="round" stroke-linejoin="round"/>
<path d="M66.1397 138.809C66.1253 138.144 65.9409 137.317 65.5864 136.327L66.1397 138.809Z" fill="#BDCE9F"/>
<path d="M66.1397 138.809C66.1253 138.144 65.9409 137.317 65.5864 136.327" stroke="#97AA7E" stroke-width="1.07424" stroke-linecap="round" stroke-linejoin="round"/>
<path d="M59.4809 107.17C57.4148 106.074 42.0174 100.166 39.1814 99.3351C39.3318 95.5109 36.8306 89.044 30.5965 90.9722C25.1895 92.6462 26.3192 98.2609 28.3495 102.57C29.3951 104.787 31.4326 106.373 33.8246 106.909C40.8304 108.477 56.8311 111.105 58.7271 110.883C59.207 109.834 59.207 108.581 59.4827 107.17H59.4809Z" fill="#BDCE9F" stroke="#97AA7E" stroke-width="1.07424" stroke-linecap="round" stroke-linejoin="round"/>
<path d="M33.7816 102.136C32.7109 100.423 28.3549 98.3422 26.6003 101.302C24.8296 104.285 29.3056 108.044 34.3187 106.791" fill="#BDCE9F"/>
<path d="M33.7816 102.136C32.7109 100.423 28.3549 98.3422 26.6003 101.302C24.8296 104.285 29.3056 108.044 34.3187 106.791" stroke="#97AA7E" stroke-width="1.07424" stroke-linecap="round" stroke-linejoin="round"/>
<path d="M99.2869 125.495C104.726 123.629 108.506 118.663 108.86 112.924C109.596 100.993 106.73 84.7239 95.5271 76.8766C85.6136 70.0588 63.7082 70.3632 56.7632 86.9082C54.2925 93.0869 55.3829 102.825 56.6594 107.911C53.3042 109.283 49.9257 115.134 52.1082 121.149C54.2907 127.163 59.567 129.487 69.9638 129.659C77.949 129.792 90.1827 128.617 99.2887 125.493L99.2869 125.495Z" fill="white"/>
<mask id="mask0_1208_22235" style="mask-type:luminance" maskUnits="userSpaceOnUse" x="51" y="72" width="58" height="58">
<path d="M99.2869 125.495C104.726 123.629 108.506 118.663 108.86 112.924C109.596 100.993 106.73 84.7239 95.5271 76.8766C85.6136 70.0588 63.7082 70.3632 56.7632 86.9082C54.2925 93.0869 55.3829 102.825 56.6594 107.911C53.3042 109.283 49.9257 115.134 52.1082 121.149C54.2907 127.163 59.567 129.487 69.9638 129.659C77.949 129.792 90.1827 128.617 99.2887 125.493L99.2869 125.495Z" fill="white"/>
</mask>
<g mask="url(#mask0_1208_22235)">
<path d="M103.584 126.569C109.023 124.703 112.802 119.737 113.157 113.999C113.893 102.067 111.026 85.7981 99.8237 77.9509C89.9103 71.133 68.0048 71.4374 61.0599 87.9824C58.5891 94.1611 59.6795 103.899 60.956 108.986C57.6008 110.357 54.2224 116.208 56.4049 122.224C58.5873 128.238 63.8636 130.562 74.2605 130.733C82.2456 130.866 94.4794 129.691 103.585 126.567L103.584 126.569Z" fill="#D8EAC1"/>
</g>
<path d="M99.2869 125.495C104.726 123.629 108.506 118.663 108.86 112.924C109.596 100.993 106.73 84.7239 95.527 76.8766C85.6136 70.0588 63.7082 70.3632 56.7632 86.9082C54.2925 93.0869 55.3829 102.825 56.6594 107.911C53.3042 109.283 49.9257 115.134 52.1082 121.149C54.2907 127.163 59.567 129.487 69.9638 129.659C77.949 129.792 90.1827 128.617 99.2887 125.493L99.2869 125.495Z" stroke="#97AA7E" stroke-width="1.07424" stroke-linecap="round" stroke-linejoin="round"/>
<path d="M82.1222 114.131C78.7204 113.235 78.3623 110.013 79.9737 108.938C81.5851 107.864 86.2633 107.667 89.1047 111.266C91.7903 114.668 90.1986 116.87 88.7466 117.353C87.1353 117.89 84.0916 117.89 82.1222 114.131Z" fill="white" stroke="#97AA7E" stroke-width="1.07424" stroke-linecap="round" stroke-linejoin="round"/>
<path d="M90.4075 91.2263C90.5147 84.4014 84.7027 78.7761 77.426 78.6618C70.1493 78.5475 64.1634 83.9875 64.0562 90.8124C63.949 97.6373 69.761 103.263 77.0377 103.377C84.3144 103.491 90.3003 98.0512 90.4075 91.2263Z" fill="white"/>
<mask id="mask1_1208_22235" style="mask-type:luminance" maskUnits="userSpaceOnUse" x="64" y="78" width="27" height="26">
<path d="M90.4075 91.2263C90.5147 84.4014 84.7027 78.7761 77.426 78.6618C70.1493 78.5475 64.1634 83.9875 64.0562 90.8124C63.949 97.6373 69.761 103.263 77.0377 103.377C84.3144 103.491 90.3003 98.0512 90.4075 91.2263Z" fill="white"/>
</mask>
<g mask="url(#mask1_1208_22235)">
<path d="M85.703 83.6947C87.1353 87.8126 83.9126 92.8257 77.2881 94.437C71.6072 95.8192 65.1135 93.5419 64.9165 88.4768C64.6945 82.7816 67.2691 78.2662 72.9912 77.0702C78.7133 75.8743 84.0845 79.0415 85.703 83.6947Z" fill="#97AA7E"/>
<path d="M81.2987 91.1652C81.5816 92.721 80.5396 94.1193 78.3965 94.6403C76.5577 95.0879 74.5991 94.1533 74.2141 92.7121C73.7379 90.9306 75.1541 89.4088 77.0053 89.0221C78.8566 88.6353 81.0122 89.5968 81.2969 91.1652H81.2987Z" fill="white"/>
</g>
<path d="M88.3851 71.0575C73.3458 61.2103 67.4375 70.3413 67.9406 77.7464" stroke="#97AA7E" stroke-width="1.79039" stroke-linecap="round" stroke-linejoin="round"/>
<path d="M95.1536 98.8313L92.9154 99.2421C91.3107 99.5366 90.2485 101.076 90.543 102.681C90.8376 104.286 92.3772 105.348 93.9819 105.053L96.2201 104.643C97.8249 104.348 98.887 102.808 98.5925 101.204C98.298 99.5989 96.7583 98.5368 95.1536 98.8313Z" fill="white"/>
<path d="M64.5379 102.594L62.2997 103.005C60.6949 103.299 59.6328 104.839 59.9273 106.444C60.2218 108.048 61.7615 109.111 63.3662 108.816L65.6044 108.405C67.2092 108.111 68.2713 106.571 67.9768 104.966C67.6822 103.362 66.1426 102.299 64.5379 102.594Z" fill="white"/>
<path d="M51.9326 104.138C53.2199 106.372 53.6514 107.94 53.2933 109.91C54.5466 108.836 55.9807 108.06 56.516 107.641C56.1562 106.447 56.2457 106.118 56.1114 105.418C54.2333 105.092 53.4365 104.274 51.9326 104.138Z" fill="#97AA7E"/>
<path d="M74.7834 129.615C76.5648 129.413 78.8118 129.49 79.8394 129.278C79.0284 130.646 76.6722 133.21 76.2121 134.08C76.3911 132.29 76.2121 130.32 74.0439 130.222C74.2642 130.061 74.2534 129.986 74.7852 129.615H74.7834Z" fill="#97AA7E"/>
<path d="M91.0706 127.992C91.6077 127.813 93.8887 127.324 94.7176 127.12C95.1222 127.967 95.3675 128.35 95.5466 128.708C94.1143 128.529 92.3239 129.782 92.5029 132.647C91.6077 130.857 90.8915 129.603 91.0706 127.992Z" fill="#97AA7E"/>
<path d="M110.411 145.463V60.4194C115.782 60.0614 136.013 68.1181 136.013 105.537C136.013 128.454 130.642 140.092 129.389 142.061C125.629 144.031 117.035 145.463 110.411 145.463Z" fill="white" stroke="#97AA7E" stroke-width="1.07424" stroke-linecap="round" stroke-linejoin="round"/>
<path d="M110.267 60.4189H105.541C105.066 60.4189 104.681 60.8037 104.681 61.2783V144.603C104.681 145.078 105.066 145.463 105.541 145.463H110.267C110.742 145.463 111.127 145.078 111.127 144.603V61.2783C111.127 60.8037 110.742 60.4189 110.267 60.4189Z" fill="#E9F4D7" stroke="#BFD3A5" stroke-width="1.07424" stroke-linecap="round" stroke-linejoin="round"/>
<path d="M105.215 110.984C106.826 111.342 109.816 111.483 111.633 110.516C111.633 109.372 111.66 107.582 111.66 107.045C110.765 107.94 108.438 110.089 105.215 110.984Z" fill="#97AA7E"/>
<path d="M110.41 60.4193V60.4336C110.364 60.4264 110.315 60.4193 110.267 60.4193H105.542C105.068 60.4193 104.683 60.8042 104.683 61.2787V144.602C104.683 145.076 105.068 145.461 105.542 145.461H110.267C110.315 145.461 110.364 145.454 110.41 145.447V145.461C117.035 145.461 125.629 144.029 129.388 142.059C130.642 140.09 136.013 128.452 136.013 105.535C136.013 68.1162 115.782 60.0594 110.41 60.4175V60.4193Z" stroke="#97AA7E" stroke-width="1.07424" stroke-linecap="round" stroke-linejoin="round"/>
<path d="M99.6682 103.21C99.6682 99.0758 101.817 94.7949 106.293 94.7949C111.664 94.7949 112.738 100.524 112.559 103.21C112.38 105.895 110.052 110.55 105.577 110.55C101.101 110.55 99.6682 106.432 99.6682 103.21Z" fill="#BDCE9F" stroke="#97AA7E" stroke-width="1.07424" stroke-linecap="round" stroke-linejoin="round"/>
<path d="M120.078 103.983C119.541 102.286 117.941 101.777 116.498 101.777C114.528 101.777 114.17 102.286 114.17 103.815C114.17 104.973 114.822 105.39 116.125 105.487C116.56 105.519 116.911 105.861 116.952 106.296C117.037 107.213 117.216 108.21 117.216 109.924C117.216 111.637 117.037 112.634 116.952 113.551C116.913 113.986 116.562 114.328 116.125 114.36C114.822 114.459 114.17 114.876 114.17 116.032C114.17 117.56 114.528 118.07 116.498 118.07C117.941 118.07 119.541 117.561 120.078 115.864C120.666 114.011 120.795 111.283 120.795 109.924C120.795 108.565 120.666 105.838 120.078 103.983Z" fill="white" stroke="#BFD3A5" stroke-width="1.07424" stroke-linecap="round" stroke-linejoin="round"/>
<path d="M57.3379 50.6518C58.3005 47.7916 56.8776 44.7315 54.1599 43.8169C51.4421 42.9023 48.4586 44.4795 47.4961 47.3397C46.5335 50.1999 47.9564 53.26 50.6741 54.1746C53.3919 55.0893 56.3754 53.5121 57.3379 50.6518Z" fill="white" stroke="#97AA7E" stroke-width="1.07424" stroke-linecap="round" stroke-linejoin="round"/>
<path d="M68.0276 54.2505C68.9902 51.3903 67.5673 48.3302 64.8496 47.4155C62.1318 46.5009 59.1483 48.0781 58.1858 50.9383C57.2232 53.7985 58.6461 56.8586 61.3638 57.7733C64.0816 58.6879 67.0651 57.1107 68.0276 54.2505Z" fill="white" stroke="#97AA7E" stroke-width="1.07424" stroke-linecap="round" stroke-linejoin="round"/>
<path d="M72.5508 52.5923C71.3226 56.2411 64.1807 56.7335 56.448 54.1303C48.7171 51.5288 43.3244 46.8183 44.5526 43.1695C45.7808 39.5207 52.9227 39.0283 60.6554 41.6315C68.3863 44.233 73.779 48.9435 72.5508 52.5923Z" fill="#E9F4D7" stroke="#97AA7E" stroke-width="1.07424" stroke-linecap="round" stroke-linejoin="round"/>
<path opacity="0.8" d="M68.9505 51.0324C69.5109 50.8569 69.9388 50.3735 70.091 49.7863C71.6737 43.6757 68.5208 37.3806 62.7414 35.4345C56.9674 33.4919 50.6545 36.5929 48.216 42.4081C47.9707 42.9953 48.0441 43.6631 48.4165 44.1519C51.6303 48.3951 63.5596 52.7225 68.9523 51.0324H68.9505Z" fill="white"/>
<path d="M51.1502 46.5837C52.2209 43.9626 53.8609 41.3343 56.2582 40.9476C54.4625 39.5475 55.671 36.7169 57.422 36.3695C59.6492 35.9255 61.9427 38.0901 60.0735 40.8401C61.3215 41.0621 62.8988 41.9896 63.1172 42.4604C63.4395 40.3818 66.2092 39.2879 67.8009 41.4524C69.3567 43.5669 67.5968 46.5515 64.7107 45.5811C65.357 47.5881 64.1163 50.152 63.4162 51.1098C58.7039 50.5172 53.9039 48.5048 51.1484 46.5837H51.1502Z" fill="white" stroke="#BFD3A5" stroke-width="1.07424" stroke-linecap="round" stroke-linejoin="round"/>
<path d="M57.8516 44.0684C58.36 44.2402 60.6768 45.2178 61.2945 45.6242" stroke="#BFD3A5" stroke-width="1.07424" stroke-linecap="round" stroke-linejoin="round"/>
<path d="M58.3969 39.0806C58.43 38.9822 58.3809 38.8768 58.2872 38.8453C58.1935 38.8138 58.0906 38.868 58.0575 38.9664C58.0244 39.0648 58.0735 39.1701 58.1672 39.2016C58.261 39.2332 58.3638 39.179 58.3969 39.0806Z" stroke="#BFD3A5" stroke-width="1.07424" stroke-linecap="round" stroke-linejoin="round"/>
<path d="M65.9523 43.0171C65.9854 42.9187 65.9363 42.8134 65.8426 42.7818C65.7489 42.7503 65.6461 42.8045 65.6129 42.9029C65.5798 43.0013 65.629 43.1066 65.7227 43.1382C65.8164 43.1697 65.9192 43.1155 65.9523 43.0171Z" stroke="#BFD3A5" stroke-width="1.07424" stroke-linecap="round" stroke-linejoin="round"/>
<path d="M68.9505 51.0324C69.5109 50.8569 69.9388 50.3735 70.091 49.7863C71.6737 43.6757 68.5208 37.3806 62.7414 35.4345C56.9674 33.4919 50.6545 36.5929 48.216 42.4081C47.9707 42.9953 48.0441 43.6631 48.4165 44.1519C51.6303 48.3951 63.5596 52.7225 68.9523 51.0324H68.9505Z" stroke="#BFD3A5" stroke-width="1.07424" stroke-linecap="round" stroke-linejoin="round"/>
<path d="M70.4793 47.2152C70.7336 41.9944 67.7096 37.1066 62.7394 35.4344C57.7711 33.7622 52.4071 35.8283 49.4529 40.1396C46.9195 40.4923 45.1148 41.4985 44.5526 43.1707C43.3244 46.8195 48.7171 51.53 56.448 54.1315C64.1789 56.7329 71.3226 56.2424 72.5508 52.5935C73.113 50.9213 72.284 49.0289 70.4793 47.217V47.2152Z" stroke="#97AA7E" stroke-width="1.07424" stroke-linecap="round" stroke-linejoin="round"/>
<path d="M156.878 88.6821C158.935 87.6526 165.966 86.4531 166.31 86.625C166.654 86.7968 165.281 88.512 164.423 89.0259C167.681 89.8835 170.938 91.083 170.938 91.4268C170.938 91.7705 168.365 92.4563 167.852 92.4563C169.223 92.9701 171.624 95.371 171.452 95.5429C171.28 95.7148 166.308 94.5134 165.107 94.1715C165.793 94.8572 166.478 96.4005 166.306 96.5724C166.135 96.7443 157.39 93.1438 156.705 92.4563C156.533 91.0848 156.361 89.7134 156.876 88.6839L156.878 88.6821Z" fill="white" stroke="#BFD3A5" stroke-width="1.07424" stroke-linecap="round" stroke-linejoin="round"/>
<path d="M149.849 81.995C150.707 78.5664 155.24 75.4064 156.708 75.9936C157.566 76.3374 157.052 80.7955 156.536 84.0522C153.622 83.1946 151.735 82.6808 149.849 81.995Z" fill="white" stroke="#97AA7E" stroke-width="1.07424" stroke-linecap="round" stroke-linejoin="round"/>
<path d="M150.793 98.9408C151.734 104.801 156.878 106.686 157.961 106.111C158.649 105.746 158.423 102.056 157.747 98.1602C154.723 98.4609 152.775 98.6167 150.793 98.9408Z" fill="white" stroke="#97AA7E" stroke-width="1.07424" stroke-linecap="round" stroke-linejoin="round"/>
<path opacity="0.8" d="M150.019 81.1368C146.152 80.87 138.133 80.6033 131.533 80.6588C128.665 80.6838 126.416 83.1349 126.638 85.9941C126.979 90.3681 127.553 93.4869 128.554 96.2083C129.247 98.0936 130.993 99.3845 132.998 99.4758C139.06 99.7479 148.768 99.9431 152.934 99.6548C153.278 93.1396 152.248 84.3935 150.019 81.135V81.1368Z" fill="white"/>
<path d="M148.476 81.1385C150.705 81.1385 152.538 81.1618 154.406 81.425C156.021 81.6523 156.889 82.5995 157.305 83.432C159.1 87.0289 159.637 92.2837 159.256 97.0282C159.145 98.4158 157.96 99.1427 156.476 99.4847C154.991 99.8284 152.59 99.6565 151.905 99.6565C152.077 96.2279 151.219 87.0396 148.476 81.1367V81.1385Z" fill="#E9F4D7" stroke="#BFD3A5" stroke-width="1.07424" stroke-linecap="round" stroke-linejoin="round"/>
<path d="M157.306 83.4303C156.891 82.5978 156.021 81.6506 154.407 81.4233C152.989 81.2227 151.591 81.1619 150.025 81.144C150.025 81.1422 150.021 81.1386 150.019 81.1368C146.152 80.87 138.133 80.6033 131.533 80.6588C128.665 80.6838 126.416 83.1349 126.638 85.9941C126.979 90.3681 127.553 93.4869 128.554 96.2083C129.247 98.0936 130.993 99.3845 132.998 99.4758C138.919 99.7426 148.311 99.9323 152.63 99.6745C153.659 99.7067 155.337 99.7479 156.475 99.4847C157.96 99.141 159.145 98.4159 159.256 97.0283C159.637 92.2838 159.1 87.029 157.304 83.4321L157.306 83.4303Z" stroke="#97AA7E" stroke-width="1.07424" stroke-linecap="round" stroke-linejoin="round"/>
<path d="M145.923 93.001C148.324 88.8849 147.638 82.3697 138.72 83.2272C132.719 84.0848 132.205 89.9144 134.434 93.3448C130.148 93.8586 132.033 99.518 138.55 94.8881C137.351 96.7752 138.206 97.9747 139.236 98.1466C140.265 98.3185 143.008 97.8028 142.664 94.3742C144.704 96.9148 147.862 97.1995 148.666 96.2613C149.695 95.0618 148.322 93.3466 145.923 93.0028V93.001Z" fill="#E9F4D7"/>
<mask id="mask2_1208_22235" style="mask-type:luminance" maskUnits="userSpaceOnUse" x="132" y="83" width="18" height="16">
<path d="M145.923 93.001C148.324 88.8849 147.638 82.3697 138.72 83.2272C132.719 84.0848 132.205 89.9144 134.434 93.3448C130.148 93.8586 132.033 99.518 138.55 94.8881C137.351 96.7752 138.206 97.9747 139.236 98.1466C140.265 98.3185 143.008 97.8028 142.664 94.3742C144.704 96.9148 147.862 97.1995 148.666 96.2613C149.695 95.0618 148.322 93.3466 145.923 93.0028V93.001Z" fill="white"/>
</mask>
<g mask="url(#mask2_1208_22235)">
<path d="M142.75 89.7639C143.504 87.4812 141.927 84.4357 139.042 83.8968C136.16 83.3579 133.598 85.4419 133.396 88.1866C133.193 90.9313 135.308 92.5498 137.542 92.5516C139.776 92.5534 142.152 91.5758 142.75 89.7622V89.7639Z" fill="white"/>
<path d="M137.87 88.6147C138.018 87.3507 137.173 86.2131 135.983 86.0737C134.792 85.9343 133.707 86.8459 133.559 88.1098C133.411 89.3738 134.256 90.5114 135.446 90.6509C136.637 90.7903 137.722 89.8786 137.87 88.6147Z" fill="#97AA7E"/>
</g>
<path d="M145.923 93.001C148.324 88.8849 147.638 82.3697 138.72 83.2272C132.719 84.0848 132.205 89.9144 134.434 93.3448C130.148 93.8586 132.033 99.518 138.55 94.8881C137.351 96.7752 138.206 97.9747 139.236 98.1466C140.265 98.3185 143.008 97.8028 142.664 94.3742C144.704 96.9148 147.862 97.1995 148.666 96.2613C149.695 95.0618 148.322 93.3466 145.923 93.0028V93.001Z" stroke="#BFD3A5" stroke-width="1.07424" stroke-linecap="round" stroke-linejoin="round"/>
<path d="M132.722 67.7062C133.952 70.5135 132.611 73.4891 129.396 74.5061C126.379 75.4603 123.122 74.2053 121.941 71.5824C120.68 68.7875 122.24 65.1674 125.267 64.2453C128.295 63.3233 131.494 64.8988 132.722 67.7062Z" fill="#E9F4D7" stroke="#BFD3A5" stroke-width="1.07424" stroke-linecap="round" stroke-linejoin="round"/>
<path d="M40.6012 56.8999C41.2099 58.2874 40.5475 59.7591 38.9558 60.2622C37.4644 60.7331 35.853 60.1136 35.2694 58.8156C34.6463 57.4334 35.418 55.643 36.9147 55.1865C38.4115 54.7299 39.9942 55.5087 40.6012 56.8981V56.8999Z" fill="#E9F4D7" stroke="#BFD3A5" stroke-width="1.07424" stroke-linecap="round" stroke-linejoin="round"/>
<path d="M121.332 70.4457C119.542 71.1618 119.409 73.0364 119.9 73.6684C120.791 74.8178 123.735 74.7229 129.747 71.6989C135.293 68.9095 135.472 66.761 134.76 65.7906C134.31 65.1783 131.915 64.9116 130.921 65.352" stroke="#BFD3A5" stroke-width="1.07424" stroke-linecap="round" stroke-linejoin="round"/>
<path d="M92.3276 37.3232C92.3044 37.3787 92.2829 37.436 92.2596 37.4915C91.1854 40.1127 89.2392 42.5261 87.1355 43.0525C89.1049 44.4848 91.2534 46.2752 92.1486 51.2883C93.4019 46.4542 94.6551 44.6639 97.3407 43.2315C94.4761 42.3363 93.4019 41.0831 92.3276 37.3232Z" fill="white" stroke="#BFD3A5" stroke-width="1.07424" stroke-linecap="round" stroke-linejoin="round"/>
</g>
<defs>
<clipPath id="clip0_1208_22235">
<rect width="164" height="111.973" fill="white" transform="translate(8 34.3174)"/>
</clipPath>
</defs>
</svg>
