<svg width="180" height="180" viewBox="0 0 180 180" fill="none" xmlns="http://www.w3.org/2000/svg">
<g clip-path="url(#clip0_1208_22237)">
<path d="M117.871 54.1777C135.594 54.1777 149.981 68.5647 149.981 86.2877V159.727H85.7612V86.2877C85.7612 68.5647 100.148 54.1777 117.871 54.1777Z" fill="#E9F4D7"/>
<path d="M85.7612 158.668V86.2877C85.7612 68.5541 100.138 54.1777 117.871 54.1777C135.605 54.1777 149.981 68.5541 149.981 86.2877V158.668" stroke="#BFD3A5" stroke-width="1.27168" stroke-linecap="round" stroke-linejoin="round"/>
<path d="M97.6299 156.336V99.176C97.6299 88.8394 89.2495 80.459 78.9128 80.459C68.5762 80.459 60.1958 88.8394 60.1958 99.176V156.336" fill="#E9F4D7"/>
<path d="M92.505 86.3087C89.0927 82.7056 84.2645 80.459 78.9128 80.459C68.5762 80.459 60.1958 88.8394 60.1958 99.176V156.336" stroke="#BFD3A5" stroke-width="1.27168" stroke-linecap="round" stroke-linejoin="round"/>
<path d="M94.4509 159.938C120.52 148.069 134.721 134.717 134.721 127.298C134.721 119.88 108.651 110.767 105.048 110.767C122.428 98.4737 137.264 83.2135 138.112 77.2789C138.782 72.5864 134.509 61.5949 115.01 54.3887C112.89 54.3887 110.771 55.0245 109.287 55.4484C120.52 61.171 124.123 67.7413 124.547 70.9205C123.108 76.677 80.6744 102.713 60.9633 108.647C74.9518 110.767 88.0925 118.397 88.5164 121.152C88.9403 123.907 43.1597 149.765 11.3677 156.971" fill="white"/>
<path d="M94.4509 159.938C120.52 148.069 134.721 134.717 134.721 127.298C134.721 119.88 108.651 110.767 105.048 110.767C122.428 98.4737 137.264 83.2135 138.112 77.279C138.782 72.5864 134.509 61.5949 115.01 54.3887C112.89 54.3887 110.771 55.0245 109.287 55.4484C120.52 61.171 124.124 67.7413 124.547 70.9205C123.108 76.677 80.6744 102.713 60.9633 108.647C74.9518 110.767 88.0925 118.397 88.5164 121.152C88.9403 123.907 43.1597 149.765 11.3677 156.971" stroke="#BFD3A5" stroke-width="1.27168" stroke-linecap="round" stroke-linejoin="round"/>
<path d="M134.721 159.939V127.511" stroke="#BFD3A5" stroke-width="1.27168" stroke-linecap="round" stroke-linejoin="round"/>
<path d="M137.052 159.727V111.509C137.052 102.787 144.121 95.7188 152.842 95.7188C161.564 95.7188 168.632 102.787 168.632 111.509V159.727" fill="#E9F4D7"/>
<path d="M137.79 106.727C139.816 100.346 145.788 95.7188 152.842 95.7188C161.564 95.7188 168.632 102.787 168.632 111.509V159.727" stroke="#BFD3A5" stroke-width="1.27168" stroke-linecap="round" stroke-linejoin="round"/>
<path d="M168.632 159.727V111.509C168.632 102.788 161.564 95.7194 152.842 95.7194C152.592 95.7194 152.344 95.7257 152.096 95.7384C152.018 95.7427 151.942 95.749 151.863 95.7533C151.691 95.7639 151.522 95.7766 151.352 95.7914C151.265 95.7999 151.179 95.8084 151.092 95.819C150.926 95.838 150.761 95.8592 150.598 95.8825C150.517 95.8931 150.439 95.9037 150.358 95.9165C150.231 95.9355 150.106 95.9588 149.981 95.9822V86.2877C149.981 68.5541 135.605 54.1777 117.871 54.1777C101.634 54.1777 88.2154 66.229 86.0642 81.875C86.0069 81.8517 85.9497 81.8283 85.8925 81.805C85.8162 81.7754 85.742 81.7457 85.6657 81.716C85.5979 81.6885 85.528 81.663 85.458 81.6376C85.3817 81.6079 85.3033 81.5804 85.227 81.5528C85.157 81.5274 85.0892 81.5041 85.0193 81.4786C84.9409 81.4511 84.8646 81.4256 84.7861 81.4002C84.7162 81.3769 84.6462 81.3536 84.5742 81.3324C84.4958 81.307 84.4173 81.2836 84.3389 81.2603C84.2669 81.2391 84.1969 81.2179 84.1249 81.1967C84.0464 81.1734 83.9659 81.1522 83.8854 81.1289C83.8133 81.1098 83.7434 81.0887 83.6713 81.0717C83.5908 81.0505 83.5102 81.0314 83.4297 81.0102C83.3576 80.9933 83.2856 80.9742 83.2135 80.9572C83.1308 80.9382 83.0503 80.9191 82.9676 80.9021C82.8956 80.8852 82.8235 80.8703 82.7514 80.8555C82.6688 80.8385 82.584 80.8216 82.5013 80.8068C82.4293 80.7919 82.3572 80.7792 82.2852 80.7644C82.2004 80.7495 82.1156 80.7347 82.0308 80.7199C81.9588 80.7071 81.8867 80.6944 81.8146 80.6838C81.7277 80.6711 81.6408 80.6584 81.5539 80.6457C81.4819 80.6351 81.4119 80.6245 81.3399 80.616C81.2509 80.6054 81.1618 80.5948 81.0728 80.5842C81.0029 80.5757 80.9329 80.5673 80.863 80.5609C80.7719 80.5524 80.6786 80.5439 80.5853 80.5355C80.5175 80.5291 80.4497 80.5227 80.3798 80.5164C80.2823 80.5079 80.1848 80.5037 80.0873 80.4973C80.0216 80.4931 79.958 80.4888 79.8923 80.4846C79.7842 80.4782 79.6761 80.4761 79.568 80.4719C79.5129 80.4719 79.4578 80.4676 79.4027 80.4655C79.2395 80.4613 79.0763 80.4592 78.911 80.4592C68.5743 80.4592 60.1939 88.8396 60.1939 99.1762V138.304C45.1393 145.745 26.6385 153.511 11.3677 156.972" stroke="#97AA7E" stroke-width="1.27168" stroke-linecap="round" stroke-linejoin="round"/>
<path d="M39.2853 137.149C37.2846 142.474 35.3452 147.069 34.8344 148.548C29.6884 147.728 25.14 151.04 27.6388 156.415C28.0394 157.278 28.9423 157.793 29.8918 157.717C32.3547 157.52 37.062 156.746 39.9106 155.638C40.3069 155.555 40.6164 155.063 40.8368 154.597C41.8796 150.455 43.5921 141.259 44.2089 137.404" fill="#BDCE9F"/>
<path d="M39.2853 137.149C37.2846 142.474 35.3452 147.069 34.8344 148.548C29.6884 147.728 25.14 151.04 27.6388 156.415C28.0394 157.278 28.9423 157.793 29.8918 157.717C32.3547 157.52 37.062 156.746 39.9106 155.638C40.3069 155.555 40.6164 155.063 40.8368 154.597C41.8796 150.455 43.5921 141.259 44.2089 137.404" stroke="#97AA7E" stroke-width="1.27168" stroke-linecap="round" stroke-linejoin="round"/>
<path d="M36.9479 149.443C36.452 149.106 35.7483 148.807 34.8369 148.549L36.9479 149.443Z" fill="white"/>
<path d="M36.9479 149.443C36.452 149.106 35.7483 148.807 34.8369 148.549" stroke="#97AA7E" stroke-width="1.27168" stroke-linecap="round" stroke-linejoin="round"/>
<path d="M38.6967 138.77C38.7222 139.459 38.4149 140.296 38.1372 140.923C39.4915 140.694 41.8866 141.974 42.7343 143.882C43.3702 142.61 43.8089 139.645 43.8025 139.007C41.4563 139.429 40.1677 138.954 38.6967 138.768V138.77Z" fill="#97AA7E"/>
<path d="M85.7612 127.935C87.0329 130.479 91.2719 135.353 94.2391 136.413C97.2064 137.473 101.445 134.93 102.717 133.87C106.108 134.506 109.368 133.433 109.711 130.691C110.135 127.299 103.141 120.305 94.4511 128.147C92.3316 126.452 88.9404 123.061 88.3046 123.061C86.821 124.968 86.1851 125.816 85.7612 127.935Z" fill="#BDCE9F" stroke="#97AA7E" stroke-width="1.27168" stroke-linecap="round" stroke-linejoin="round"/>
<path d="M97.1596 132.322C99.9933 130.298 105.485 130.419 105.875 133.537C106.28 136.775 100.803 138.397 96.1465 136.574" fill="#BDCE9F"/>
<path d="M97.1596 132.322C99.9933 130.298 105.485 130.419 105.875 133.537C106.28 136.775 100.803 138.397 96.1465 136.574" stroke="#97AA7E" stroke-width="1.27168" stroke-linecap="round" stroke-linejoin="round"/>
<path d="M92.331 126.714C92.331 128.409 91.0594 131.588 89.9996 132.86C88.9399 132.224 88.0243 131.152 87.5283 130.31C88.8678 129.051 91.3942 126.451 91.4387 125.522C91.9517 125.361 92.1191 126.29 92.331 126.714Z" fill="#97AA7E"/>
<path d="M39.2918 138.658C32.5243 137.924 26.8632 133.177 24.9557 126.643C20.9902 113.057 20.0513 93.5258 30.939 81.5381C40.6059 71.0763 65.9781 65.7077 78.3155 83.0005C82.7812 89.4882 84.0656 101.018 83.9215 107.224C88.1541 107.932 93.582 113.805 92.6346 121.321C91.6851 128.834 86.1999 132.895 74.2398 135.809C65.0561 138.047 50.6225 139.885 39.2918 138.656V138.658Z" fill="#D8EAC1"/>
<mask id="mask0_1208_22237" style="mask-type:luminance" maskUnits="userSpaceOnUse" x="22" y="71" width="71" height="69">
<path d="M39.2918 138.658C32.5243 137.924 26.8632 133.177 24.9557 126.643C20.9902 113.057 20.0513 93.5258 30.939 81.5381C40.6059 71.0763 65.9781 65.7077 78.3155 83.0005C82.7812 89.4882 84.0656 101.018 83.9215 107.224C88.1541 107.932 93.582 113.805 92.6346 121.321C91.6851 128.834 86.1999 132.895 74.2398 135.809C65.0561 138.047 50.6225 139.885 39.2918 138.656V138.658Z" fill="white"/>
</mask>
<g mask="url(#mask0_1208_22237)">
<path d="M39.1328 76.0584C53.3333 72.6673 80.2505 70.9717 80.4625 109.97C84.2775 110.606 94.451 117.176 88.9404 129.045C99.5377 112.301 91.9076 87.7155 80.6744 76.2704C69.4412 64.8252 46.7629 67.5805 39.1328 76.0584Z" fill="white"/>
</g>
<path d="M39.2918 138.658C32.5243 137.924 26.8632 133.177 24.9557 126.643C20.9902 113.057 20.0513 93.5258 30.939 81.5381C40.6059 71.0763 65.9781 65.7077 78.3155 83.0005C82.7812 89.4882 84.0656 101.018 83.9215 107.224C88.1541 107.932 93.582 113.805 92.6346 121.321C91.6851 128.834 86.1999 132.895 74.2398 135.809C65.0561 138.047 50.6225 139.885 39.2918 138.656V138.658Z" stroke="#97AA7E" stroke-width="1.27168" stroke-linecap="round" stroke-linejoin="round"/>
<path d="M69.4937 114.908C77.6238 112.057 81.8709 103.062 78.9799 94.816C76.089 86.5699 67.1546 82.1958 59.0245 85.0461C50.8945 87.8964 46.6473 96.8918 49.5383 105.138C52.4292 113.384 61.3636 117.758 69.4937 114.908Z" fill="white"/>
<path d="M71.0109 104.141C75.8613 102.441 78.3954 97.0746 76.6709 92.1557C74.9464 87.2367 69.6163 84.6277 64.7659 86.3282C59.9155 88.0287 57.3814 93.3948 59.1059 98.3137C60.8304 103.233 66.1605 105.842 71.0109 104.141Z" fill="#97AA7E"/>
<path d="M71.0109 104.141C75.8613 102.441 78.3954 97.0746 76.6709 92.1557C74.9464 87.2367 69.6163 84.6277 64.7659 86.3282C59.9155 88.0287 57.3814 93.3948 59.1059 98.3137C60.8304 103.233 66.1605 105.842 71.0109 104.141Z" fill="#97AA7E"/>
<path d="M63.2997 101.645C65.0594 101.028 65.9789 99.0819 65.3535 97.2979C64.728 95.5139 62.7945 94.5678 61.0348 95.1847C59.2751 95.8016 58.3557 97.748 58.9811 99.5319C59.6065 101.316 61.5401 102.262 63.2997 101.645Z" fill="white"/>
<path d="M44.6431 78.5506C49.094 65.6218 62.2347 59.4754 67.7453 76.2192" stroke="#97AA7E" stroke-width="2.11947" stroke-linecap="round" stroke-linejoin="round"/>
<path d="M67.5337 132.174C69.7782 125.217 85.7611 117.973 81.0983 139.38L67.5337 132.174Z" fill="#BDCE9F"/>
<path d="M67.5337 132.174C69.7782 125.217 85.7611 117.973 81.0983 139.38" stroke="#97AA7E" stroke-width="1.27168" stroke-linecap="round" stroke-linejoin="round"/>
<path d="M78.9786 137.897C81.5898 134.883 88.0076 134.556 87.9503 141.184C87.944 141.915 87.5773 142.6 86.9648 143C83.5885 145.213 78.932 145.72 75.9351 145.607C75.3353 145.584 74.7927 145.226 74.5574 144.673C72.6287 140.154 73.0441 135.353 74.7397 130.902" fill="#BDCE9F"/>
<path d="M78.9786 137.897C81.5898 134.883 88.0076 134.556 87.9503 141.184C87.944 141.915 87.5773 142.6 86.9648 143C83.5885 145.213 78.932 145.72 75.9351 145.607C75.3353 145.584 74.7927 145.226 74.5574 144.673C72.6287 140.154 73.0441 135.353 74.7397 130.902" stroke="#97AA7E" stroke-width="1.27168" stroke-linecap="round" stroke-linejoin="round"/>
<path d="M70.9243 135.141C71.7721 134.505 73.4677 133.657 73.8916 133.445L70.9243 135.141Z" fill="white"/>
<path d="M70.9243 135.141C71.7721 134.505 73.4677 133.657 73.8916 133.445" stroke="#97AA7E" stroke-width="1.27168" stroke-linecap="round" stroke-linejoin="round"/>
<path d="M37.4375 110.767C39.345 112.674 43.584 111.615 44.2198 109.283" stroke="#97AA7E" stroke-width="1.27168" stroke-linecap="round" stroke-linejoin="round"/>
<path d="M41.4644 112.039C41.8882 114.37 44.8555 122.213 51.6378 120.517" stroke="#97AA7E" stroke-width="1.27168" stroke-linecap="round" stroke-linejoin="round"/>
<path d="M37.649 86.1004C34.9107 85.9182 31.2101 90.1444 32.7192 92.8573C33.6326 94.4999 36.7377 92.8573 37.4668 90.4835" fill="white"/>
<path d="M37.649 86.1004C34.9107 85.9182 31.2101 90.1444 32.7192 92.8573C33.6326 94.4999 36.7377 92.8573 37.4668 90.4835" stroke="#97AA7E" stroke-width="1.27168" stroke-linecap="round" stroke-linejoin="round"/>
<path d="M26.5793 116.852C27.9485 114.306 33.0331 113.441 33.8215 118.026C34.4701 121.788 28.9277 125.465 25.9922 122.725C26.7743 119.984 26.9714 118.223 26.5793 116.852Z" fill="#BDCE9F" stroke="#97AA7E" stroke-width="1.27168" stroke-linecap="round" stroke-linejoin="round"/>
<path d="M18.7856 130.901C18.7856 136.471 19.3515 151.676 20.2332 158.535C20.388 159.737 22.1344 159.72 22.2637 158.516C22.9992 151.685 23.4485 136.556 23.4485 130.689C21.7529 130.689 20.4812 130.901 18.7856 130.901Z" fill="white" stroke="#97AA7E" stroke-width="1.27168" stroke-linecap="round" stroke-linejoin="round"/>
<path d="M24.5085 132.174C24.678 128.948 24.6208 117.567 24.7353 109.678C24.7395 109.354 25.5449 109.104 26.5177 108.968C27.4376 108.841 28.12 108.05 28.1264 107.122C28.1264 106.931 28.1264 106.745 28.1285 106.56C28.1285 105.647 27.4778 104.86 26.5771 104.708C23.5462 104.188 18.699 104.004 15.3354 104.674C14.5067 104.839 13.8942 105.539 13.8348 106.38C13.8221 106.56 13.8094 106.745 13.7945 106.929C13.7204 107.948 14.4813 108.832 15.4986 108.93C16.4142 109.017 17.262 109.201 17.2641 109.595C17.3086 117.878 17.1984 128.304 17.7262 132.17C19.4217 133.018 22.8129 132.806 24.5085 132.17V132.174Z" fill="#E9F4D7" stroke="#97AA7E" stroke-width="1.27168" stroke-linecap="round" stroke-linejoin="round"/>
<path d="M13.2753 121.364C12.0036 116.701 13.2753 111.615 18.5739 110.343C23.8726 109.071 27.7131 112.238 27.8996 118.185C28.1115 124.967 24.9323 127.087 21.5412 127.511C17.5502 128.009 14.14 124.539 13.2753 121.364Z" fill="#BDCE9F" stroke="#97AA7E" stroke-width="1.27168" stroke-linecap="round" stroke-linejoin="round"/>
<path d="M28.3232 115.904C29.6288 118.477 29.9425 121.082 29.8069 123.11C28.9591 123.746 27.9036 123.467 27.2656 123.289C27.8972 121.025 28.3232 118.66 28.3232 115.904Z" fill="#97AA7E"/>
<path d="M17.9377 130.953C19.2094 129.681 22.1767 128.409 24.2961 128.198C24.72 127.562 24.2961 127.138 24.2961 126.502C22.8125 127.562 17.9335 127.138 17.5117 126.82C17.516 128.515 17.9377 130.105 17.9377 130.953Z" fill="#97AA7E"/>
<path d="M19.2093 135.616C20.0571 134.344 22.6005 133.92 23.0244 133.92C23.2363 133.284 23.1558 133.023 23.196 132.625C22.2168 132.674 20.0126 132.932 19.186 132.684C19.0186 133.672 19.2093 135.192 19.2093 135.616Z" fill="#97AA7E"/>
<path d="M70.2886 136.251C71.3483 134.768 72.6009 134.147 73.2452 133.82C73.4763 135.289 73.4466 135.914 73.2452 136.294C72.2046 136.207 71.5603 135.827 70.2886 136.251Z" fill="#97AA7E"/>
<path d="M43.4692 99.556L40.8051 99.1564C38.8951 98.8699 37.1144 100.186 36.828 102.096C36.5415 104.006 37.8576 105.787 39.7677 106.073L42.4317 106.473C44.3418 106.759 46.1224 105.443 46.4089 103.533C46.6954 101.623 45.3792 99.8425 43.4692 99.556Z" fill="white"/>
<path d="M84.7978 108.885L82.1337 108.486C80.2237 108.199 78.4431 109.515 78.1566 111.425C77.8701 113.335 79.1863 115.116 81.0963 115.402L83.7603 115.802C85.6704 116.088 87.451 114.772 87.7375 112.862C88.024 110.952 86.7078 109.172 84.7978 108.885Z" fill="white"/>
<path d="M129.414 37.221C129.232 35.8582 125.188 35.2096 122.682 35.2796C122.32 35.2902 122.004 35.0316 121.911 34.6586C121.061 31.2187 119.414 28.9657 118.293 28.9551C118.293 28.9551 118.291 28.9551 118.289 28.9551C118.287 28.9551 118.287 28.9551 118.285 28.9551C117.161 28.9657 115.517 31.2187 114.667 34.6586C114.575 35.0316 114.258 35.2881 113.895 35.2796C111.39 35.2118 107.348 35.8582 107.164 37.221C106.986 38.552 109.847 40.5655 111.585 41.5786C111.899 41.7609 112.055 42.1488 111.962 42.5154C111.261 45.2708 110.83 49.1218 111.935 49.5139C112.977 49.8848 115.993 47.9879 117.666 45.6629C117.984 45.222 118.596 45.222 118.914 45.6629C120.586 47.9858 123.602 49.8848 124.645 49.5139C125.749 49.1218 125.319 45.2708 124.618 42.5154C124.524 42.1488 124.681 41.7609 124.995 41.5786C126.733 40.5655 129.594 38.552 129.416 37.221H129.414Z" fill="white" stroke="#BFD3A5" stroke-width="1.27168" stroke-linecap="round" stroke-linejoin="round"/>
<path d="M117.977 23.445V12.6357V23.445Z" fill="white"/>
<path d="M117.977 23.445V12.6357" stroke="#BFD3A5" stroke-width="1.27168" stroke-linecap="round" stroke-linejoin="round"/>
<path d="M107.757 28.9089C105.837 26.9336 100.663 21.6158 100.22 21.1602L107.757 28.9089Z" fill="white"/>
<path d="M107.757 28.9089C105.837 26.9336 100.663 21.6158 100.22 21.1602" stroke="#BFD3A5" stroke-width="1.27168" stroke-linecap="round" stroke-linejoin="round"/>
<path d="M105.544 47.6328C103.346 49.2945 98.0642 53.3448 97.5576 53.7284L105.544 47.6328Z" fill="white"/>
<path d="M105.544 47.6328C103.346 49.2945 98.0642 53.3448 97.5576 53.7284" stroke="#BFD3A5" stroke-width="1.27168" stroke-linecap="round" stroke-linejoin="round"/>
<path d="M101.127 37.751H90.9536H101.127Z" fill="white"/>
<path d="M101.127 37.751H90.9536" stroke="#BFD3A5" stroke-width="1.27168" stroke-linecap="round" stroke-linejoin="round"/>
<path d="M128.468 28.9089C130.389 26.9336 135.562 21.6158 136.005 21.1602L128.468 28.9089Z" fill="white"/>
<path d="M128.468 28.9089C130.389 26.9336 135.562 21.6158 136.005 21.1602" stroke="#BFD3A5" stroke-width="1.27168" stroke-linecap="round" stroke-linejoin="round"/>
<path d="M130.681 47.6328C132.879 49.2945 138.161 53.3448 138.667 53.7284L130.681 47.6328Z" fill="white"/>
<path d="M130.681 47.6328C132.879 49.2945 138.161 53.3448 138.667 53.7284" stroke="#BFD3A5" stroke-width="1.27168" stroke-linecap="round" stroke-linejoin="round"/>
<path d="M135.098 37.751C137.853 37.751 144.636 37.751 145.272 37.751H135.098Z" fill="white"/>
<path d="M135.098 37.751C137.853 37.751 144.636 37.751 145.272 37.751" stroke="#BFD3A5" stroke-width="1.27168" stroke-linecap="round" stroke-linejoin="round"/>
</g>
<defs>
<clipPath id="clip0_1208_22237">
<rect width="158.536" height="148.575" fill="white" transform="translate(10.7319 12)"/>
</clipPath>
</defs>
</svg>
