<svg width="180" height="180" viewBox="0 0 180 180" fill="none" xmlns="http://www.w3.org/2000/svg">
<g clip-path="url(#clip0_1208_22238)">
<path d="M70.958 132.996C65.9563 138.158 60.5036 144.155 58.4438 146.255C52.5933 144.233 46.5917 147.172 48.4049 153.972C48.696 155.063 49.647 155.851 50.7713 155.958C53.691 156.234 58.8571 156.558 62.4167 155.849C63.1833 155.685 63.9721 155.016 64.2143 154.567C65.8718 152.405 73.231 139.704 76.664 134.309" fill="#BDCE9F"/>
<path d="M70.958 132.996C65.9563 138.158 60.5036 144.155 58.4438 146.255C52.5933 144.233 46.5917 147.172 48.4049 153.972C48.696 155.063 49.647 155.851 50.7713 155.958C53.691 156.234 58.8571 156.558 62.4167 155.849C63.1833 155.685 63.9721 155.016 64.2143 154.567C65.8718 152.405 73.231 139.704 76.664 134.309" stroke="#97AA7E" stroke-width="1.33319" stroke-linecap="round" stroke-linejoin="round"/>
<path d="M60.728 147.737C60.2192 147.239 59.4571 146.746 58.4438 146.255L60.728 147.737Z" fill="#BDCE9F"/>
<path d="M60.728 147.737C60.2192 147.239 59.4571 146.746 58.4438 146.255" stroke="#97AA7E" stroke-width="1.33319" stroke-linecap="round" stroke-linejoin="round"/>
<path d="M108.314 133.939C113.316 139.101 117.879 144.432 119.939 146.531C125.79 144.509 131.569 147.227 129.756 154.026C129.465 155.117 128.514 155.906 127.39 156.013C124.47 156.288 119.748 156.613 116.189 155.904C115.422 155.739 114.633 155.07 114.391 154.622C112.733 152.46 106.239 140.103 103.274 134.364" fill="#BDCE9F"/>
<path d="M108.314 133.939C113.316 139.101 117.879 144.432 119.939 146.531C125.79 144.509 131.569 147.227 129.756 154.026C129.465 155.117 128.514 155.906 127.39 156.013C124.47 156.288 119.748 156.613 116.189 155.904C115.422 155.739 114.633 155.07 114.391 154.622C112.733 152.46 106.239 140.103 103.274 134.364" stroke="#97AA7E" stroke-width="1.33319" stroke-linecap="round" stroke-linejoin="round"/>
<path d="M117.657 148.012C118.166 147.515 118.928 147.021 119.941 146.53L117.657 148.012Z" fill="#BDCE9F"/>
<path d="M117.657 148.012C118.166 147.515 118.928 147.021 119.941 146.53" stroke="#97AA7E" stroke-width="1.33319" stroke-linecap="round" stroke-linejoin="round"/>
<path d="M125.794 126.992C127.127 128.103 128.904 129.881 129.571 130.547C134.015 127.437 142.903 127.437 144.014 133.658C145.125 139.88 134.904 142.768 129.349 141.435C126.46 140.546 122.238 133.658 121.35 131.436C123.127 129.659 123.794 128.548 125.794 126.992Z" fill="#BDCE9F" stroke="#97AA7E" stroke-width="1.33319" stroke-linecap="round" stroke-linejoin="round"/>
<path d="M130.235 135.482C133.126 133.436 139.348 134.325 138.641 138.78C138.008 142.768 132.46 142.324 130.462 141.493" fill="#BDCE9F"/>
<path d="M130.235 135.482C133.126 133.436 139.348 134.325 138.641 138.78C138.008 142.768 132.46 142.324 130.462 141.493" stroke="#97AA7E" stroke-width="1.33319" stroke-linecap="round" stroke-linejoin="round"/>
<path d="M69.8201 135.319C63.0697 133.004 58.3791 126.84 57.9391 119.719C57.0259 104.912 60.5833 84.7206 74.4862 74.9817C86.7893 66.5204 113.975 66.8981 122.594 87.4314C125.661 95.0995 124.307 107.185 122.723 113.497C126.887 115.199 131.08 122.461 128.371 129.927C125.663 137.39 119.115 140.275 106.212 140.488C96.3016 140.652 81.1188 139.195 69.8178 135.317L69.8201 135.319Z" fill="white"/>
<mask id="mask0_1208_22238" style="mask-type:luminance" maskUnits="userSpaceOnUse" x="57" y="69" width="73" height="72">
<path d="M69.8201 135.319C63.0697 133.004 58.3791 126.84 57.9391 119.719C57.0259 104.912 60.5833 84.7206 74.4862 74.9817C86.7893 66.5204 113.975 66.8981 122.594 87.4314C125.661 95.0995 124.307 107.185 122.723 113.497C126.887 115.199 131.08 122.461 128.371 129.927C125.663 137.39 119.115 140.275 106.212 140.488C96.3016 140.652 81.1188 139.195 69.8178 135.317L69.8201 135.319Z" fill="white"/>
</mask>
<g mask="url(#mask0_1208_22238)">
<path d="M64.487 136.653C57.7367 134.337 53.0461 128.173 52.6061 121.052C51.6929 106.245 55.2503 86.0536 69.1532 76.3147C81.4563 67.8534 108.642 68.2311 117.261 88.7644C120.328 96.4325 118.974 108.518 117.39 114.83C121.554 116.532 125.747 123.794 123.038 131.26C120.33 138.723 113.782 141.608 100.879 141.821C90.9686 141.985 75.7858 140.528 64.4848 136.65L64.487 136.653Z" fill="#D8EAC1"/>
<path d="M124.905 111.66C126.46 107.882 123.794 105.66 121.794 105.882C119.794 106.105 117.05 107.389 115.128 110.993C113.351 114.326 113.795 120.103 118.017 119.214C116.684 122.769 117.572 125.658 119.794 126.769C122.016 127.88 126.238 126.102 127.794 119.436C128.682 115.437 127.794 111.882 124.905 111.66Z" fill="#BDCE9F"/>
<path d="M105.351 114.104C106.785 113.029 108.907 114.104 108.907 115.882C108.907 117.659 106.907 119.437 105.351 118.77C103.414 117.939 103.574 115.437 105.351 114.104Z" fill="#BDCE9F"/>
</g>
<path d="M69.8201 135.319C63.0697 133.004 58.3791 126.84 57.9391 119.719C57.0259 104.912 60.5833 84.7206 74.4862 74.9817C86.7893 66.5204 113.975 66.8981 122.594 87.4314C125.661 95.0995 124.307 107.185 122.723 113.497C126.887 115.199 131.08 122.461 128.371 129.927C125.663 137.39 119.115 140.275 106.212 140.488C96.3016 140.652 81.1188 139.195 69.8178 135.317L69.8201 135.319Z" stroke="#97AA7E" stroke-width="1.33319" stroke-linecap="round" stroke-linejoin="round"/>
<path d="M96.0848 109.88C105.116 109.738 112.329 102.757 112.196 94.2865C112.063 85.8165 104.634 79.0651 95.603 79.207C86.5721 79.3489 79.3591 86.3302 79.4921 94.8003C79.6252 103.27 87.054 110.022 96.0848 109.88Z" fill="white"/>
<mask id="mask1_1208_22238" style="mask-type:luminance" maskUnits="userSpaceOnUse" x="79" y="79" width="34" height="31">
<path d="M96.0848 109.88C105.116 109.738 112.329 102.757 112.196 94.2865C112.063 85.8165 104.634 79.0651 95.603 79.207C86.5721 79.3489 79.3591 86.3302 79.4921 94.8003C79.6252 103.27 87.054 110.022 96.0848 109.88Z" fill="white"/>
</mask>
<g mask="url(#mask1_1208_22238)">
<path d="M105.38 92.6027C106.456 87.4618 103.052 82.3995 97.7781 81.2958C92.5039 80.192 87.3562 83.4648 86.2803 88.6057C85.2044 93.7465 88.6079 98.8088 93.8821 99.9126C99.1563 101.016 104.304 97.7436 105.38 92.6027Z" fill="#97AA7E"/>
<path d="M100.435 97.6497C100.879 95.5297 99.4752 93.4421 97.3 92.9868C95.1247 92.5316 93.0016 93.8812 92.558 96.0012C92.1143 98.1212 93.518 100.209 95.6933 100.664C97.8686 101.119 99.9917 99.7698 100.435 97.6497Z" fill="white"/>
</g>
<path d="M84.6873 65.8867C104.463 53.2215 106.463 65.7379 108.722 76.059" stroke="#97AA7E" stroke-width="2.22198" stroke-linecap="round" stroke-linejoin="round"/>
<path d="M76.6881 104.55C78.2435 109.216 83.7984 112.771 87.798 113.438C83.7984 117.882 78.0213 120.992 75.3549 118.993C72.6885 116.993 74.4661 109.66 76.6881 104.55Z" fill="white" stroke="#97AA7E" stroke-width="1.33319" stroke-linecap="round" stroke-linejoin="round"/>
<path d="M89.5757 113.66C88.9091 113.66 88.6869 113.66 87.7981 113.438L89.5757 113.66Z" fill="white"/>
<path d="M89.5757 113.66C88.9091 113.66 88.6869 113.66 87.7981 113.438" stroke="#97AA7E" stroke-width="1.33319" stroke-linecap="round" stroke-linejoin="round"/>
<path d="M65.3558 102.772C58.4676 93.6619 56.2457 75.4417 58.6898 70.1089C66.0224 64.7762 63.1338 56.9993 61.134 55.2217C54.0237 58.3324 48.2465 67.887 46.6911 70.1089C45.5802 86.7738 52.9127 98.5502 63.8004 107.438" fill="#BDCE9F"/>
<path d="M65.3558 102.772C58.4676 93.6619 56.2457 75.4417 58.6898 70.1089C66.0224 64.7762 63.1338 56.9993 61.134 55.2217C54.0237 58.3324 48.2465 67.887 46.6911 70.1089C45.5802 86.7738 52.9127 98.5502 63.8004 107.438" stroke="#97AA7E" stroke-width="1.33319" stroke-linecap="round" stroke-linejoin="round"/>
<path d="M70.9106 49.4448C50.4684 62.7767 41.1361 81.2191 39.3585 84.1077C37.5809 86.9963 34.4702 84.5521 35.1368 82.5523C42.0249 65.2209 57.1344 47.8894 64.6891 42.1123C64.6891 42.1123 68.4664 45.8897 70.9106 49.4448Z" fill="#E9F4D7" stroke="#97AA7E" stroke-width="1.33319" stroke-linecap="round" stroke-linejoin="round"/>
<path d="M66.0225 40.5567C68.2444 37.8903 76.0214 31.891 76.0214 36.5571C79.1321 36.1127 79.7987 38.3347 79.3543 39.0013C80.9097 38.7791 81.5763 40.5567 80.9097 41.4455C83.3539 41.8899 83.1317 44.5563 81.1319 45.445C79.1321 46.3338 73.355 47.667 70.6886 48.3336C68.0222 45.0006 66.4669 42.1121 66.0225 40.5567Z" fill="white" stroke="#97AA7E" stroke-width="1.33319" stroke-linecap="round" stroke-linejoin="round"/>
<path d="M75.5772 36.7803C73.7996 37.6691 72.6886 38.3357 71.5776 39.2244" stroke="#97AA7E" stroke-width="1.33319" stroke-linecap="round" stroke-linejoin="round"/>
<path d="M75.3547 43.2229C76.6879 42.5563 78.2433 41.8897 80.6875 41.4453" stroke="#97AA7E" stroke-width="1.33319" stroke-linecap="round" stroke-linejoin="round"/>
<path d="M74.9104 40.3342C75.7992 39.8898 78.6878 39.2232 79.3544 39.001" stroke="#97AA7E" stroke-width="1.33319" stroke-linecap="round" stroke-linejoin="round"/>
<path d="M62.8984 42.2836C63.7583 41.3526 65.1226 40.1394 66.1136 39.5261C66.4424 39.3239 66.8646 39.3684 67.1379 39.6395C68.6533 41.1371 72.4973 45.5388 73.9527 47.4075C74.246 47.7852 74.1616 48.3296 73.7705 48.6029C72.5729 49.4362 71.2419 50.3027 70.2842 50.7804C69.982 50.9315 69.6199 50.8893 69.3666 50.6693C67.8734 49.3717 64.1649 45.1988 62.8295 43.3324C62.6006 43.0102 62.6295 42.5747 62.8962 42.2858L62.8984 42.2836Z" fill="white" stroke="#97AA7E" stroke-width="1.33319" stroke-linecap="round" stroke-linejoin="round"/>
<path d="M53.3572 64.7764C49.0199 68.6493 42.0252 70.1091 40.2476 63.6654C38.47 57.2217 45.5803 46.7784 55.357 50.1113C60.4787 51.8578 59.5788 59.2214 53.3572 64.7764Z" fill="#BDCE9F" stroke="#97AA7E" stroke-width="1.33319" stroke-linecap="round" stroke-linejoin="round"/>
<path d="M55.1346 68.7765C50.2463 68.9987 44.9135 64.9992 47.5799 60.333C50.0441 56.0201 56.69 57.8888 59.1342 62.7772" fill="#BDCE9F"/>
<path d="M55.1346 68.7765C50.2463 68.9987 44.9135 64.9992 47.5799 60.333C50.0441 56.0201 56.69 57.8888 59.1342 62.7772" stroke="#97AA7E" stroke-width="1.33319" stroke-linecap="round" stroke-linejoin="round"/>
<path d="M63.352 107.754C62.0188 105.532 59.7679 103.555 58.9725 103.466C58.5569 105.443 58.4636 106.865 58.4636 107.976C59.5746 106.199 62.0188 106.865 63.352 107.754Z" fill="#97AA7E"/>
<path d="M69.3246 135.211C68.9357 135.402 68.4625 136.195 68.0181 136.64C69.3513 136.862 71.7954 138.639 72.0176 141.084C72.9064 140.195 74.4618 137.751 74.684 137.084C72.6842 136.417 70.6289 135.782 69.3246 135.211Z" fill="#97AA7E"/>
<path d="M110.013 145.75C110.68 142.639 112.68 141.528 114.902 141.528C115.124 141.084 114.544 139.986 114.277 139.979C112.413 140.188 108.46 140.768 107.125 140.482C107.345 141.244 109.345 145.306 110.011 145.75H110.013Z" fill="#97AA7E"/>
<path d="M127.789 132.418C126.901 134.862 126.678 137.751 127.345 139.528C126.456 138.862 124.274 136.844 124.032 135.964C125.547 134.649 126.678 133.307 127.789 132.418Z" fill="#97AA7E"/>
<path d="M138.01 135.084C140.232 136.417 140.677 137.973 140.677 139.084C139.788 140.195 138.677 140.195 138.455 140.195C139.121 137.75 139.121 136.195 138.01 135.084Z" fill="#97AA7E"/>
<path d="M58.4901 61.4516C60.6566 60.5118 62.3831 59.0097 62.7563 58.272C62.8341 57.0232 62.2653 56.4366 61.9209 56.0967C60.3388 57.8632 58.0658 59.4652 57.488 59.9451C57.6636 60.905 58.0746 61.1428 58.4924 61.4516H58.4901Z" fill="#97AA7E"/>
<path d="M50.5447 67.8936C50.5291 67.9091 50.5113 67.9291 50.4936 67.9491C49.8225 68.6935 47.6739 71.9753 46.5295 72.7464C46.6229 73.6618 46.8739 74.0818 46.7806 74.5862C48.1494 73.8196 50.6869 70.871 51.5757 69.76C52.4644 69.9822 54.0198 69.5378 54.9086 69.0934C52.9088 68.8712 51.9578 68.2513 50.5447 67.8958V67.8936Z" fill="#97AA7E"/>
<path d="M43.1828 67.7255C42.8584 68.2344 42.4651 69.092 42.0208 69.5364C43.1429 70.4674 45.3782 71.0074 48.0201 70.6474C48.9089 69.7586 49.6755 68.8587 49.9577 67.6433C49.4955 67.7722 46.8691 63.2216 46.4647 63.3149C46.0603 63.4082 46.2425 65.9813 47.5579 68.1988C45.7603 68.4943 44.496 68.341 43.1828 67.7277V67.7255Z" fill="#97AA7E"/>
<path d="M49.9579 67.6426C49.4957 67.7715 46.3427 62.6898 46.2427 63.092C46.0205 63.9808 46.2427 65.9806 47.5581 68.1981" fill="#97AA7E"/>
<path d="M73.98 93.6111L71.2102 93.0596C69.2243 92.6643 67.294 93.9536 66.8986 95.9394C66.5033 97.9253 67.7926 99.8556 69.7784 100.251L72.5482 100.802C74.5341 101.198 76.4644 99.9085 76.8598 97.9226C77.2551 95.9368 75.9658 94.0064 73.98 93.6111Z" fill="white"/>
<path d="M118.418 102.724L115.648 102.173C113.663 101.778 111.732 103.067 111.337 105.053C110.941 107.039 112.231 108.969 114.217 109.364L116.986 109.916C118.972 110.311 120.903 109.022 121.298 107.036C121.693 105.05 120.404 103.12 118.418 102.724Z" fill="white"/>
<path d="M39.9514 104.192L24.1966 112.376C22.8103 113.096 22.2703 114.804 22.9904 116.19L31.1744 131.945C31.8945 133.331 33.6021 133.871 34.9884 133.151L50.7432 124.967C52.1295 124.247 52.6695 122.539 51.9494 121.153L43.7654 105.398C43.0453 104.012 41.3377 103.472 39.9514 104.192Z" fill="white" stroke="#BFD3A5" stroke-width="1.33319" stroke-linecap="round" stroke-linejoin="round"/>
<path d="M40.1148 108.329L27.4834 114.89C27.0707 115.105 26.9099 115.613 27.1243 116.026L33.6858 128.657C33.9002 129.07 34.4086 129.231 34.8213 129.016L47.4527 122.455C47.8655 122.24 48.0263 121.732 47.8119 121.319L41.2504 108.688C41.036 108.275 40.5276 108.114 40.1148 108.329Z" fill="#E9F4D7" stroke="#BFD3A5" stroke-width="1.33319" stroke-linecap="round" stroke-linejoin="round"/>
<path d="M35.3104 124.445C32.8907 121.903 30.6709 116.937 32.984 115.735C35.7259 114.311 38.259 119.537 38.9189 122.57" stroke="#BFD3A5" stroke-width="1.33319" stroke-linecap="round" stroke-linejoin="round"/>
<path d="M33.1218 120.94L37.1636 118.84" stroke="#BFD3A5" stroke-width="1.33319" stroke-linecap="round" stroke-linejoin="round"/>
<path d="M39.2544 113.409L42.6029 120.444" stroke="#BFD3A5" stroke-width="1.33319" stroke-linecap="round" stroke-linejoin="round"/>
<path d="M37.917 113.68L40.3301 112.638" stroke="#BFD3A5" stroke-width="1.33319" stroke-linecap="round" stroke-linejoin="round"/>
<path d="M41.5278 121.215L43.8542 120.006" stroke="#BFD3A5" stroke-width="1.33319" stroke-linecap="round" stroke-linejoin="round"/>
<path d="M25.9563 107.662L27.4228 110.486" stroke="#BFD3A5" stroke-width="1.33319" stroke-linecap="round" stroke-linejoin="round"/>
<path d="M30.4424 105.33L31.9111 108.156" stroke="#BFD3A5" stroke-width="1.33319" stroke-linecap="round" stroke-linejoin="round"/>
<path d="M34.9285 102.999L36.3972 105.825" stroke="#BFD3A5" stroke-width="1.33319" stroke-linecap="round" stroke-linejoin="round"/>
<path d="M38.3882 131.594L39.8569 134.418" stroke="#BFD3A5" stroke-width="1.33319" stroke-linecap="round" stroke-linejoin="round"/>
<path d="M42.8765 129.261L44.343 132.087" stroke="#BFD3A5" stroke-width="1.33319" stroke-linecap="round" stroke-linejoin="round"/>
<path d="M47.3628 126.93L48.8315 129.756" stroke="#BFD3A5" stroke-width="1.33319" stroke-linecap="round" stroke-linejoin="round"/>
<path d="M26.5117 130.061L29.3381 128.592" stroke="#BFD3A5" stroke-width="1.33319" stroke-linecap="round" stroke-linejoin="round"/>
<path d="M24.1809 125.572L27.0073 124.105" stroke="#BFD3A5" stroke-width="1.33319" stroke-linecap="round" stroke-linejoin="round"/>
<path d="M21.8501 121.086L24.6742 119.617" stroke="#BFD3A5" stroke-width="1.33319" stroke-linecap="round" stroke-linejoin="round"/>
<path d="M50.2778 117.713L53.102 116.244" stroke="#BFD3A5" stroke-width="1.33319" stroke-linecap="round" stroke-linejoin="round"/>
<path d="M47.9473 113.227L50.7714 111.758" stroke="#BFD3A5" stroke-width="1.33319" stroke-linecap="round" stroke-linejoin="round"/>
<path d="M45.614 108.739L48.4404 107.272" stroke="#BFD3A5" stroke-width="1.33319" stroke-linecap="round" stroke-linejoin="round"/>
<path d="M146.506 68.2895C144.277 65.8009 139.82 62.1324 135.705 59.3638C135.349 58.4417 134.978 57.4418 134.478 56.1464C135.925 55.4842 136.869 53.7933 136.1 52.6379C135.347 51.5047 133.791 50.5826 129.192 52.3224C129.17 52.329 129.15 52.3379 129.127 52.3468C129.105 52.3557 129.085 52.3624 129.063 52.3713C124.481 54.1644 123.944 55.8909 124.146 57.2352C124.35 58.6083 126.186 59.2305 127.701 58.7528C128.201 60.0504 128.594 61.0392 128.948 61.9635C127.748 66.7763 126.899 72.4846 126.912 75.8264C126.919 77.2352 128.034 78.304 129.416 78.0284C131.598 77.5951 133.747 77.1019 137.871 75.5198C137.92 75.4998 137.969 75.482 138.018 75.4643C138.067 75.4465 138.115 75.4265 138.164 75.4087C142.286 73.8178 144.21 72.7446 146.121 71.6047C147.332 70.8825 147.443 69.3427 146.503 68.2917L146.506 68.2895Z" fill="white" stroke="#BFD3A5" stroke-width="1.33319" stroke-linecap="round" stroke-linejoin="round"/>
<path d="M143.761 69.4222C142.899 68.329 140.275 65.8892 139.384 65.2293C139.229 65.1138 139.031 65.0738 138.84 65.116C137.869 65.3315 135.262 66.3336 134.542 66.6092C133.822 66.8847 131.216 67.889 130.352 68.3801C130.183 68.4756 130.063 68.6378 130.025 68.8289C129.803 69.9155 129.492 73.4862 129.585 74.8749C129.605 75.1882 129.887 75.4171 130.196 75.3704C131.703 75.1438 136.033 73.655 137.095 73.2462C138.158 72.8374 142.37 71.0398 143.641 70.1999C143.901 70.0288 143.957 69.6688 143.761 69.4222Z" fill="#BFD3A5"/>
<path d="M134.22 70.2176C134.895 70.2176 135.442 69.6705 135.442 68.9955C135.442 68.3206 134.895 67.7734 134.22 67.7734C133.545 67.7734 132.998 68.3206 132.998 68.9955C132.998 69.6705 133.545 70.2176 134.22 70.2176Z" fill="white"/>
<path d="M138.751 70.8563C139.426 70.8563 139.973 70.3091 139.973 69.6342C139.973 68.9593 139.426 68.4121 138.751 68.4121C138.076 68.4121 137.529 68.9593 137.529 69.6342C137.529 70.3091 138.076 70.8563 138.751 70.8563Z" fill="white"/>
<path d="M129.018 58.2598C128.604 58.4197 128.165 58.5842 127.703 58.753L129.018 58.2598Z" fill="white"/>
<path d="M129.018 58.2598C128.604 58.4197 128.165 58.5842 127.703 58.753" stroke="#BFD3A5" stroke-width="1.33319" stroke-linecap="round" stroke-linejoin="round"/>
<path d="M134.618 56.1064C133.996 56.3464 132.958 56.7442 132.265 56.9997L134.618 56.1064Z" fill="white"/>
<path d="M134.618 56.1064C133.996 56.3464 132.958 56.7442 132.265 56.9997" stroke="#BFD3A5" stroke-width="1.33319" stroke-linecap="round" stroke-linejoin="round"/>
<path d="M139.528 110.204L147.811 115.132L144.435 120.808C144.1 121.371 143.369 121.557 142.805 121.222L136.565 117.509C136.002 117.174 135.816 116.443 136.151 115.879L139.528 110.204Z" fill="#E9F4D7" stroke="#BFD3A5" stroke-width="1.33319" stroke-linecap="round" stroke-linejoin="round"/>
<path d="M139.651 105.982C137.224 106.449 135.538 106.878 133.891 107.902C133.027 108.44 132.922 109.378 133.851 110.169C134.78 110.96 137.778 112.742 139.044 113.019C140.311 113.297 139.975 107.844 139.651 105.982Z" fill="#E9F4D7" stroke="#BFD3A5" stroke-width="1.33319" stroke-linecap="round" stroke-linejoin="round"/>
<path d="M151.48 113.02C152.227 115.373 152.656 117.061 152.54 118.999C152.48 120.014 151.707 120.554 150.567 120.114C149.43 119.677 146.432 117.892 145.583 116.91C144.735 115.928 149.687 113.624 151.478 113.02H151.48Z" fill="#E9F4D7" stroke="#BFD3A5" stroke-width="1.33319" stroke-linecap="round" stroke-linejoin="round"/>
<path d="M158.246 104.635C159.626 99.5262 156.887 95.4645 154.731 94.1824C152.478 92.8425 147.701 92.4315 143.87 96.0822C140.282 99.5018 138.104 105.414 137.047 111.723C136.904 112.571 137.304 113.418 138.044 113.858L141.688 116.024L141.766 116.071L145.41 118.237C146.148 118.677 147.085 118.624 147.761 118.095C152.8 114.156 156.958 109.421 158.249 104.635H158.246Z" fill="white" stroke="#BFD3A5" stroke-width="1.33319" stroke-linecap="round" stroke-linejoin="round"/>
<path d="M148.896 108.998C151.84 108.998 154.227 106.611 154.227 103.667C154.227 100.723 151.84 98.3369 148.896 98.3369C145.952 98.3369 143.566 100.723 143.566 103.667C143.566 106.611 145.952 108.998 148.896 108.998Z" fill="white" stroke="#BFD3A5" stroke-width="1.33319" stroke-linecap="round" stroke-linejoin="round"/>
<path d="M111.129 31.6685C116.017 24.5581 117.351 15.6702 113.573 13.0038C109.969 10.4597 100.686 11.2263 94.6865 15.8924C89.5759 10.7819 81.5768 11.0041 78.6882 13.0038C75.7996 15.0036 74.2443 18.5588 76.244 24.7803C78.2438 31.0019 84.6876 40.112 91.3535 44.7781C87.3539 47.6667 81.799 47.6667 79.937 45.9647C78.075 44.2626 78.0216 41.8896 79.577 39.001C80.6613 36.9857 78.2438 35.668 76.6884 37.4456C74.0221 40.3342 71.8001 47.4445 76.9106 50.9997C83.3877 55.5058 91.5757 50.5553 94.6865 47.6667C98.9082 50.9997 110.24 54.777 114.24 50.7775C118.239 46.7779 115.573 37.2234 111.129 31.6685ZM82.2434 17.4478C84.4654 15.8924 89.3537 16.1146 91.7979 18.3366C88.2427 20.7808 84.6876 24.1137 82.0212 27.0023C79.577 22.7806 80.0214 19.0032 82.2434 17.4478ZM84.021 30.7797C87.1317 26.3357 103.13 13.226 109.574 16.7812C116.017 20.3364 104.241 35.4458 94.6865 41.8896C89.5759 39.001 86.0207 35.0014 84.021 30.7797ZM110.685 47.2223C108.018 49.4443 101.352 46.7779 98.2416 44.7781C101.13 42.7783 105.796 38.7788 108.241 35.668C111.129 38.7788 113.351 45.0003 110.685 47.2223Z" fill="#E9F4D7" stroke="#BFD3A5" stroke-width="1.33319" stroke-linecap="round" stroke-linejoin="round"/>
<path d="M95.2419 35.6688C98.003 35.6688 100.241 33.4305 100.241 30.6694C100.241 27.9083 98.003 25.6699 95.2419 25.6699C92.4808 25.6699 90.2424 27.9083 90.2424 30.6694C90.2424 33.4305 92.4808 35.6688 95.2419 35.6688Z" fill="#BDCE9F" stroke="#97AA7E" stroke-width="1.33319" stroke-linecap="round" stroke-linejoin="round"/>
<path d="M86.1076 51.2762C86.1076 52.5583 84.5478 53.196 84.9033 55.8535C85.3543 59.2242 89.7983 60.113 91.5514 56.8578C92.9091 54.3381 90.3249 51.234 90.3249 49.2275" fill="#E9F4D7"/>
<path d="M86.1076 51.2762C86.1076 52.5583 84.5478 53.196 84.9033 55.8535C85.3543 59.2242 89.7983 60.113 91.5514 56.8578C92.9091 54.3381 90.3249 51.234 90.3249 49.2275" stroke="#BFD3A5" stroke-width="1.33319" stroke-linecap="round" stroke-linejoin="round"/>
<path d="M75.082 60.0815C76.6441 58.2595 80.5525 57.9528 80.5525 61.7657C80.5525 65.3431 76.9751 66.3941 75.502 65.132C73.8044 63.6766 73.8177 61.5547 75.082 60.0815Z" fill="#E9F4D7" stroke="#BFD3A5" stroke-width="1.33319" stroke-linecap="round" stroke-linejoin="round"/>
</g>
<defs>
<clipPath id="clip0_1208_22238">
<rect width="138.103" height="146.095" fill="white" transform="translate(21.1836 10.9053)"/>
</clipPath>
</defs>
</svg>
