<svg width="180" height="180" viewBox="0 0 180 180" fill="none" xmlns="http://www.w3.org/2000/svg">
<g clip-path="url(#clip0_1208_22240)">
<path d="M148.186 117.059C154.426 116.167 163.209 121.415 163.876 128.782C163.941 129.507 163.453 130.16 162.737 130.298C159.562 130.92 154.76 129.885 151.237 125.743C150.063 122.457 148.89 120.345 148.186 117.059Z" fill="white" stroke="#BFD3A5" stroke-width="1.40823" stroke-linecap="round" stroke-linejoin="round"/>
<path d="M149.124 117.763C152.88 117.763 158.278 125.039 151.471 131.141C147.481 134.192 140.459 124.478 141.036 120.65C144.304 119.333 146.308 118.702 149.124 117.763Z" fill="white" stroke="#BFD3A5" stroke-width="1.40823" stroke-linecap="round" stroke-linejoin="round"/>
<path d="M141.38 110.722C140.675 108.61 139.356 105.584 136.685 103.916C134.808 102.742 132.695 102.273 131.991 103.681C131.426 104.812 132.226 106.028 133.4 106.497C132.461 107.906 132.695 110.722 137.39 110.018C138.094 110.722 138.798 112.13 139.032 112.6" fill="white"/>
<path d="M141.38 110.722C140.675 108.61 139.356 105.584 136.685 103.916C134.808 102.742 132.695 102.273 131.991 103.681C131.426 104.812 132.226 106.028 133.4 106.497C132.461 107.906 132.695 110.722 137.39 110.018C138.094 110.722 138.798 112.13 139.032 112.6" stroke="#BFD3A5" stroke-width="1.40823" stroke-linecap="round" stroke-linejoin="round"/>
<path d="M135.277 106.966C134.808 106.966 134.104 106.732 133.399 106.497L135.277 106.966Z" fill="white"/>
<path d="M135.277 106.966C134.808 106.966 134.104 106.732 133.399 106.497" stroke="#BFD3A5" stroke-width="1.40823" stroke-linecap="round" stroke-linejoin="round"/>
<path d="M144.782 121.753C148.477 121.753 151.471 118.758 151.471 115.064C151.471 111.37 148.477 108.375 144.782 108.375C141.088 108.375 138.093 111.37 138.093 115.064C138.093 118.758 141.088 121.753 144.782 121.753Z" fill="white" stroke="#BFD3A5" stroke-width="1.40823" stroke-linecap="round" stroke-linejoin="round"/>
<path d="M144.663 115.294C144.501 113.562 146.19 111.192 148.861 111.424C152.314 111.727 152.441 116.158 150.232 117.454C148.024 118.749 144.864 117.454 144.665 115.294H144.663Z" fill="#97AA7E"/>
<path d="M143.961 110.253C142.389 105.538 142.717 101.667 145.369 99.4563C146.778 98.2828 148.89 98.2828 149.594 99.4563C150.298 100.63 149.594 102.038 148.655 102.977C150.064 103.446 151.706 106.263 146.778 108.14C146.778 108.845 146.778 109.314 147.012 109.783" fill="white"/>
<path d="M143.961 110.253C142.389 105.538 142.717 101.667 145.369 99.4563C146.778 98.2828 148.89 98.2828 149.594 99.4563C150.298 100.63 149.594 102.038 148.655 102.977C150.064 103.446 151.706 106.263 146.778 108.14C146.778 108.845 146.778 109.314 147.012 109.783" stroke="#BFD3A5" stroke-width="1.40823" stroke-linecap="round" stroke-linejoin="round"/>
<path d="M146.777 104.385C147.481 103.916 148.42 103.212 148.89 102.742L146.777 104.385Z" fill="white"/>
<path d="M146.777 104.385C147.481 103.916 148.42 103.212 148.89 102.742" stroke="#BFD3A5" stroke-width="1.40823" stroke-linecap="round" stroke-linejoin="round"/>
<path d="M144.196 121.988C145.604 123.631 147.188 124.541 148.038 125.612C147.482 123.865 147.482 122.692 148.19 121.624C146.778 121.988 145.839 121.988 144.196 121.988Z" fill="#BFD3A5"/>
<path d="M151.167 117.063C151.263 116.753 151.338 116.434 151.39 116.106C151.916 114.92 151.798 113.383 150.918 112.395C150.148 110.628 148.641 109.259 146.785 108.677C146.78 108.513 146.78 108.335 146.78 108.137C151.709 106.26 150.066 103.443 148.658 102.974C148.7 102.932 148.74 102.887 148.782 102.845C148.82 102.81 148.86 102.772 148.893 102.739L148.846 102.777C149.686 101.845 150.254 100.547 149.597 99.4534C148.893 98.2799 146.78 98.2799 145.372 99.4534C143.053 101.385 142.513 104.584 143.459 108.504C142.546 108.687 141.701 109.058 140.964 109.572C140.187 107.614 138.903 105.298 136.688 103.913C134.81 102.739 132.698 102.27 131.994 103.678C131.428 104.809 132.228 106.025 133.402 106.495C132.463 107.903 132.698 110.719 137.392 110.015C137.922 110.546 138.455 111.48 138.784 112.106C138.345 112.998 138.096 114 138.096 115.061C138.096 117.385 139.281 119.431 141.082 120.631C141.067 120.636 141.053 120.643 141.039 120.647C140.462 124.473 147.484 134.19 151.474 131.139C152.568 130.157 153.345 129.148 153.866 128.141C156.905 130.272 160.302 130.775 162.74 130.298C163.454 130.157 163.944 129.507 163.878 128.782C163.315 122.534 156.91 117.812 151.169 117.066L151.167 117.063Z" stroke="#97AA7E" stroke-width="1.40823" stroke-linecap="round" stroke-linejoin="round"/>
<path d="M89.8943 26.3766C85.1017 27.2051 82.0434 25.5434 82.4941 23.4287C82.8931 21.5581 85.7494 21.4501 88.0824 22.9029C85.7494 21.4478 84.1581 18.5515 86.1578 17.317C88.3171 15.9862 90.6219 19.0796 90.9529 20.8446C90.5891 19.5255 90.2722 16.3687 92.6779 16.0683C94.9898 15.782 95.9122 19.0303 93.9993 23.6986C92.3024 25.6724 91.2087 26.0081 89.892 26.3742L89.8943 26.3766Z" fill="white" stroke="#97AA7E" stroke-width="1.40823" stroke-linecap="round" stroke-linejoin="round"/>
<path d="M93.6544 33.8938C96.7654 33.8938 99.2873 31.3718 99.2873 28.2608C99.2873 25.1499 96.7654 22.6279 93.6544 22.6279C90.5434 22.6279 88.0215 25.1499 88.0215 28.2608C88.0215 31.3718 90.5434 33.8938 93.6544 33.8938Z" fill="#E9F4D7" stroke="#CEE5B5" stroke-width="1.40823" stroke-linecap="round" stroke-linejoin="round"/>
<path d="M101.109 34.8254C104.219 34.8254 106.741 32.3035 106.741 29.1925C106.741 26.0815 104.219 23.5596 101.109 23.5596C97.9975 23.5596 95.4756 26.0815 95.4756 29.1925C95.4756 32.3035 97.9975 34.8254 101.109 34.8254Z" fill="#E9F4D7" stroke="#CEE5B5" stroke-width="1.40823" stroke-linecap="round" stroke-linejoin="round"/>
<path d="M93.4195 41.259C96.5305 41.259 99.0525 38.7371 99.0525 35.6261C99.0525 32.5151 96.5305 29.9932 93.4195 29.9932C90.3086 29.9932 87.7866 32.5151 87.7866 35.6261C87.7866 38.7371 90.3086 41.259 93.4195 41.259Z" fill="#E9F4D7" stroke="#CEE5B5" stroke-width="1.40823" stroke-linecap="round" stroke-linejoin="round"/>
<path d="M101.891 40.8791C105.002 40.8791 107.524 38.3572 107.524 35.2462C107.524 32.1352 105.002 29.6133 101.891 29.6133C98.7798 29.6133 96.2578 32.1352 96.2578 35.2462C96.2578 38.3572 98.7798 40.8791 101.891 40.8791Z" fill="#E9F4D7" stroke="#CEE5B5" stroke-width="1.40823" stroke-linecap="round" stroke-linejoin="round"/>
<path d="M107.476 34.5255C107.333 33.4106 106.871 32.4131 106.195 31.6151C106.645 30.6693 106.84 29.5896 106.697 28.4748C106.3 25.3884 103.477 23.2103 100.391 23.607C99.4635 23.7267 98.6209 24.0647 97.9027 24.5622C97.0109 23.5413 95.7646 22.8536 94.3845 22.6729C95.7646 18.5632 94.8164 15.8031 92.6805 16.0706C90.4579 16.3476 90.5588 19.0608 90.8733 20.5136C90.3452 18.7228 88.1883 16.0659 86.1581 17.3169C84.1561 18.5514 85.7497 21.4477 88.0827 22.9029C85.7497 21.4477 82.8934 21.5557 82.4944 23.4286C82.0977 25.2945 84.433 26.8084 88.2822 26.5666C88.0428 27.3224 87.9606 28.1415 88.0686 28.9794C88.2071 30.0567 88.6413 31.0237 89.2797 31.8076C88.1906 32.9905 87.6109 34.6264 87.8339 36.3444C88.2305 39.4308 91.054 41.6089 94.1404 41.2122C95.6496 41.0174 96.9428 40.2405 97.8229 39.1398C99.0176 40.3861 100.768 41.069 102.611 40.832C105.697 40.4353 107.875 37.6118 107.479 34.5255H107.476Z" stroke="#97AA7E" stroke-width="1.40823" stroke-linecap="round" stroke-linejoin="round"/>
<path d="M100.775 111.192L95.9241 119.186L95.3773 115.182C94.9079 114.243 83.642 98.2828 70.4985 93.5887C119.552 90.7722 131.757 82.5575 135.747 75.047C140.441 64.4853 134.646 53.027 122.368 45.7089C117.731 42.944 111.767 39.8365 111.29 39.1442C110.511 38.0082 110.596 36.7455 112.238 35.4757C118.141 30.9225 118.611 25.3881 113.447 23.8813C104.763 22.2384 101.008 31.8613 104.294 37.7289C91.6196 33.7389 85.5173 39.6065 85.5173 45.0047C85.5173 49.5627 90.0401 51.0484 94.4361 50.1683C100.304 48.9947 101.712 43.1271 107.814 42.6577C111.57 42.423 120.019 50.8724 119.315 56.5053C118.35 64.2224 90.9671 65.6588 72.3738 65.4241C18.1593 64.2506 8.30171 102.273 22.6187 130.437C33.4621 151.767 59.1998 156.814 80.1285 150.735C79.6661 155.056 78.0818 158.755 75.8967 163.296H153.584C164.146 119.172 123.542 105.793 100.775 111.192Z" fill="white"/>
<mask id="mask0_1208_22240" style="mask-type:luminance" maskUnits="userSpaceOnUse" x="16" y="23" width="140" height="141">
<path d="M100.775 111.192L95.9241 119.186L95.3773 115.182C94.9079 114.243 83.642 98.2828 70.4985 93.5887C119.552 90.7722 131.757 82.5575 135.747 75.047C140.441 64.4853 134.646 53.027 122.368 45.7089C117.731 42.944 111.767 39.8365 111.29 39.1442C110.511 38.0082 110.596 36.7455 112.238 35.4757C118.141 30.9225 118.611 25.3881 113.447 23.8813C104.763 22.2384 101.008 31.8613 104.294 37.7289C91.6196 33.7389 85.5173 39.6065 85.5173 45.0047C85.5173 49.5627 90.0401 51.0484 94.4361 50.1683C100.304 48.9947 101.712 43.1271 107.814 42.6577C111.57 42.423 120.019 50.8724 119.315 56.5053C118.35 64.2224 90.9671 65.6588 72.3738 65.4241C18.1593 64.2506 8.30171 102.273 22.6187 130.437C33.4621 151.767 59.1998 156.814 80.1285 150.735C79.6661 155.056 78.0818 158.755 75.8967 163.296H153.584C164.146 119.172 123.542 105.793 100.775 111.192Z" fill="white"/>
</mask>
<g mask="url(#mask0_1208_22240)">
<path d="M81.0604 49.9333C85.7545 53.2192 102.653 54.158 106.174 43.5963C108.756 42.8921 112.041 40.0757 111.807 37.4939C116.266 35.851 126.124 26.2281 118.613 21.2993C111.103 16.3705 65.3351 41.2492 81.0604 49.9333Z" fill="#CEE5B5"/>
<path d="M89.7446 44.3012C92.7958 40.7807 101.949 39.6071 105 40.3113" stroke="#BFD3A5" stroke-width="1.40823" stroke-linecap="round" stroke-linejoin="round"/>
<path d="M110.868 27.6367C108.755 29.0449 107.112 34.2085 108.051 37.2596" stroke="#BFD3A5" stroke-width="1.40823" stroke-linecap="round" stroke-linejoin="round"/>
<path d="M119.317 56.5049C120.726 55.5661 123.777 55.5661 125.42 56.5049" stroke="#BFD3A5" stroke-width="1.40823" stroke-linecap="round" stroke-linejoin="round"/>
<path d="M118.144 58.8525C119.318 58.3831 121.43 58.3831 122.603 59.0872" stroke="#BFD3A5" stroke-width="1.40823" stroke-linecap="round" stroke-linejoin="round"/>
<path d="M121.664 47.8215C122.838 47.5868 124.246 47.5868 125.419 47.8215" stroke="#BFD3A5" stroke-width="1.40823" stroke-linecap="round" stroke-linejoin="round"/>
<path d="M126.171 74.8643C126.546 77.507 126.412 80.9173 124.95 83.9661" stroke="#BFD3A5" stroke-width="1.40823" stroke-linecap="round" stroke-linejoin="round"/>
<path d="M124.481 69.6494C124.774 70.1775 124.925 70.3981 125.185 71.0576" stroke="#BFD3A5" stroke-width="1.40823" stroke-linecap="round" stroke-linejoin="round"/>
<path d="M130.583 74.3428C131.052 76.6898 131.052 78.5675 129.879 81.3839" stroke="#BFD3A5" stroke-width="1.40823" stroke-linecap="round" stroke-linejoin="round"/>
<path d="M22.8533 108.141C19.5674 110.488 18.1592 114.243 18.1592 118.233" stroke="#BFD3A5" stroke-width="1.40823" stroke-linecap="round" stroke-linejoin="round"/>
<path d="M28.2517 110.957C25.4353 112.6 19.8023 118.233 20.2718 125.039" stroke="#BFD3A5" stroke-width="1.40823" stroke-linecap="round" stroke-linejoin="round"/>
<path d="M25.4353 122.223C23.3229 124.1 21.9147 127.856 22.8535 130.907" stroke="#BFD3A5" stroke-width="1.40823" stroke-linecap="round" stroke-linejoin="round"/>
<path d="M32.1924 133.334C30.8311 135.367 30.0754 138.359 31.3005 141.704" stroke="#BFD3A5" stroke-width="1.40823" stroke-linecap="round" stroke-linejoin="round"/>
<path d="M37.4048 128.325C36.8627 128.67 36.1656 129.149 35.4263 129.757" stroke="#BFD3A5" stroke-width="1.40823" stroke-linecap="round" stroke-linejoin="round"/>
<path d="M82.7031 149.918C85.2849 150.857 90.4484 151.796 94.4384 151.796" stroke="#BFD3A5" stroke-width="1.40823" stroke-linecap="round" stroke-linejoin="round"/>
<path d="M88.8359 157.196C89.5846 157.227 90.3568 157.229 91.1501 157.196" stroke="#BFD3A5" stroke-width="1.40823" stroke-linecap="round" stroke-linejoin="round"/>
<path d="M79.4175 154.611C80.4384 155.376 82.2222 156.142 84.5059 156.644" stroke="#BFD3A5" stroke-width="1.40823" stroke-linecap="round" stroke-linejoin="round"/>
<path d="M140.206 146.867C145.37 147.336 152.411 145.693 154.758 143.111" stroke="#BFD3A5" stroke-width="1.40823" stroke-linecap="round" stroke-linejoin="round"/>
<path d="M147.303 152.481C150.533 152.031 153.511 150.449 155.227 148.979" stroke="#BFD3A5" stroke-width="1.40823" stroke-linecap="round" stroke-linejoin="round"/>
<path d="M135.747 152.734C136.859 152.859 138.429 152.95 140.227 152.939" stroke="#BFD3A5" stroke-width="1.40823" stroke-linecap="round" stroke-linejoin="round"/>
<path d="M80.8257 150.388C88.1015 148.276 100.071 142.173 103.827 138.418" stroke="#BFD3A5" stroke-width="1.40823" stroke-linecap="round" stroke-linejoin="round"/>
<path d="M39.2827 71.7608C35.058 77.159 32.7109 85.1389 33.1804 90.5372C28.0168 97.1089 25.1652 103.561 27.7821 108.14C29.6598 111.426 36.2315 112.365 40.2215 109.783C47.7321 122.457 62.9879 129.029 78.009 128.794C92.5607 128.566 105.704 122.457 112.276 115.885C115.562 119.641 121.899 119.875 124.246 116.589C126.882 112.9 124.751 108.396 111.239 106.978C83.7428 85.8337 52.8956 54.862 39.2827 71.7608Z" fill="#97AA7E"/>
</g>
<path d="M100.775 111.192L95.9241 119.186L95.3773 115.182C94.9079 114.243 83.642 98.2828 70.4985 93.5887C119.552 90.7722 131.757 82.5575 135.747 75.047C140.441 64.4853 134.646 53.027 122.368 45.7089C117.731 42.944 111.767 39.8365 111.29 39.1442C110.511 38.0082 110.596 36.7455 112.238 35.4757C118.141 30.9225 118.611 25.3881 113.447 23.8813C104.763 22.2384 101.008 31.8613 104.294 37.7289C91.6196 33.7389 85.5173 39.6065 85.5173 45.0048C85.5173 49.5627 90.0401 51.0484 94.4361 50.1683C100.304 48.9947 101.712 43.1271 107.814 42.6577C111.57 42.423 120.019 50.8724 119.315 56.5053C118.35 64.2224 90.9672 65.6588 72.3738 65.4241C18.1593 64.2506 8.30171 102.273 22.6187 130.437C33.4621 151.767 59.1998 156.814 80.1285 150.735C79.6661 155.056 78.0818 158.755 75.8967 163.296H153.584C164.146 119.172 123.542 105.793 100.775 111.192Z" stroke="#97AA7E" stroke-width="1.40823" stroke-linecap="round" stroke-linejoin="round"/>
<path d="M63.4574 163.296C59.9368 158.133 58.2939 152.265 59.9368 148.979C68.6209 149.918 71.2402 143.389 71.0689 138.509C71.022 137.192 69.9353 136.162 68.6186 136.146C62.7932 136.08 58.2446 139.173 57.8245 143.581C57.6133 139.129 52.9943 135.441 47.082 135.636C45.9085 135.676 44.9087 136.538 44.728 137.699C43.8408 143.4 47.0281 149.449 55.008 148.979C52.1916 152.03 51.2528 158.837 52.8957 163.296H63.4574Z" fill="white"/>
<mask id="mask1_1208_22240" style="mask-type:luminance" maskUnits="userSpaceOnUse" x="44" y="135" width="28" height="29">
<path d="M63.4574 163.296C59.9368 158.133 58.2939 152.265 59.9368 148.979C68.6209 149.918 71.2402 143.389 71.0689 138.509C71.022 137.192 69.9353 136.162 68.6186 136.146C62.7932 136.08 58.2446 139.173 57.8245 143.581C57.6133 139.129 52.9943 135.441 47.082 135.636C45.9085 135.676 44.9087 136.538 44.728 137.699C43.8408 143.4 47.0281 149.449 55.008 148.979C52.1916 152.03 51.2528 158.837 52.8957 163.296H63.4574Z" fill="white"/>
</mask>
<g mask="url(#mask1_1208_22240)">
<path d="M43.5075 146.397C45.8545 149.918 51.4429 150.547 54.0481 149.763C55.9703 150.542 58.2939 151.091 59.9368 149.683C63.6921 151.326 73.7844 152.5 74.958 139.591C76.1315 126.682 46.3239 125.743 42.8034 133.723C39.2828 141.703 39.9869 141.938 43.5075 146.397Z" fill="#CEE5B5"/>
</g>
<path d="M63.4574 163.296C59.9368 158.133 58.2939 152.265 59.9368 148.979C68.6209 149.918 71.2402 143.389 71.0689 138.509C71.022 137.192 69.9353 136.162 68.6186 136.146C62.7932 136.08 58.2446 139.173 57.8245 143.581C57.6133 139.129 52.9943 135.441 47.082 135.636C45.9085 135.676 44.9087 136.538 44.728 137.699C43.8408 143.4 47.0281 149.449 55.008 148.979C52.1916 152.03 51.2528 158.837 52.8957 163.296H63.4574Z" stroke="#97AA7E" stroke-width="1.40823" stroke-linecap="round" stroke-linejoin="round"/>
<path d="M47.9668 139.122C48.6709 141.469 51.2527 144.52 54.3038 144.99" stroke="#BFD3A5" stroke-width="1.40823" stroke-linecap="round" stroke-linejoin="round"/>
<path d="M60.6411 145.224C63.927 144.989 66.5087 142.173 67.6823 139.356" stroke="#BFD3A5" stroke-width="1.40823" stroke-linecap="round" stroke-linejoin="round"/>
<path d="M83.0461 58.4085C89.822 55.2353 97.7198 55.7422 101.853 58.2794C105.298 60.3941 106.031 68.3693 103.771 76.0864C100.907 85.8643 81.8913 65.5764 83.0461 58.4085Z" fill="#BDCE9F" stroke="#97AA7E" stroke-width="1.40823" stroke-linecap="round" stroke-linejoin="round"/>
<path d="M97.1091 63.875C95.262 64.4313 92.3024 64.6894 89.791 64.9758L97.1091 63.875Z" fill="white"/>
<path d="M97.1091 63.875C95.262 64.4313 92.3024 64.6894 89.791 64.9758" stroke="#97AA7E" stroke-width="1.40823" stroke-linecap="round" stroke-linejoin="round"/>
<path d="M96.2295 64.0928C96.9313 66.5783 97.2012 69.2281 97.227 71.7535L96.2295 64.0928Z" fill="white"/>
<path d="M96.2295 64.0928C96.9313 66.5783 97.2012 69.2281 97.227 71.7535" stroke="#97AA7E" stroke-width="1.40823" stroke-linecap="round" stroke-linejoin="round"/>
<path d="M53.1677 60.0356C67.7804 51.2154 89.2723 54.8603 100.632 71.454C101.087 72.1206 101.768 72.5947 102.575 72.6064C120.136 72.8951 129.534 102.085 101.749 120.974C82.2734 133.576 55.9231 128.532 44.4648 111.347C34.0416 95.7131 32.3048 72.9185 53.1677 60.0356Z" fill="#D8EAC1"/>
<mask id="mask2_1208_22240" style="mask-type:luminance" maskUnits="userSpaceOnUse" x="36" y="55" width="84" height="73">
<path d="M53.1677 60.0356C67.7804 51.2154 89.2723 54.8603 100.632 71.454C101.087 72.1206 101.768 72.5947 102.575 72.6064C120.136 72.8951 129.534 102.085 101.749 120.974C82.2734 133.576 55.9231 128.532 44.4648 111.347C34.0416 95.7131 32.3048 72.9185 53.1677 60.0356Z" fill="white"/>
</mask>
<g mask="url(#mask2_1208_22240)">
<path d="M42.5684 71.0564C60.1712 52.9841 87.8664 57.2088 98.8976 77.6282C104.296 77.6282 115.796 79.5058 119.082 96.6393C119.317 73.8729 108.286 61.6682 84.3459 51.1065C60.4059 40.5448 45.3848 62.8417 42.5684 71.0564Z" fill="white"/>
</g>
<path d="M53.1677 60.0356C67.7804 51.2154 89.2723 54.8603 100.632 71.454C101.087 72.1206 101.768 72.5947 102.575 72.6064C120.136 72.8951 129.534 102.085 101.749 120.974C82.2734 133.576 55.9231 128.532 44.4648 111.347C34.0416 95.7131 32.3048 72.9185 53.1677 60.0356Z" stroke="#97AA7E" stroke-width="1.40823" stroke-linecap="round" stroke-linejoin="round"/>
<path d="M69.8668 106.73C68.5853 106.73 67.2545 106.573 65.912 106.266C61.5629 105.263 58.385 102.503 57.4133 98.8772C56.7444 96.3846 57.296 93.9319 58.8544 92.4791C60.0444 91.369 61.3963 90.8057 62.8679 90.8057C64.7056 90.8057 66.4377 91.6553 67.9656 92.4064C68.9678 92.8992 69.916 93.364 70.6554 93.4555C70.9112 93.4883 71.1858 93.5024 71.4956 93.5024C72.127 93.5024 72.7818 93.4391 73.4742 93.371C74.1689 93.3029 74.8894 93.2349 75.5865 93.2349C76.8797 93.2349 78.7339 93.4531 79.9098 95.3308C81.1068 97.2389 81.1279 99.5367 79.9661 101.635C78.227 104.778 74.3567 106.73 69.8644 106.73H69.8668Z" fill="white"/>
<path d="M62.8686 91.5092C65.7578 91.5092 68.5297 93.8985 70.5669 94.1543C70.8673 94.1919 71.1795 94.2083 71.4963 94.2083C72.8248 94.2083 74.2612 93.9408 75.5873 93.9408C77.0729 93.9408 78.4178 94.2764 79.3144 95.7057C82.0205 100.022 77.655 106.028 69.8675 106.028C68.6775 106.028 67.4078 105.887 66.07 105.58C57.8224 103.681 56.1795 95.9357 59.3339 92.9949C60.5028 91.9035 61.6951 91.5092 62.8686 91.5092ZM62.8686 90.101C61.2116 90.101 59.7001 90.7276 58.374 91.9645C56.6254 93.5957 55.9964 96.3136 56.7334 99.0597C57.7755 102.942 61.1482 105.892 65.7555 106.95C67.1496 107.272 68.5344 107.434 69.8675 107.434C75.5427 107.434 79.1243 104.613 80.5841 101.975C81.8727 99.6464 81.8445 97.0881 80.509 94.9547C78.9881 92.5278 76.4298 92.5278 75.5896 92.5278C74.8597 92.5278 74.1227 92.5982 73.4092 92.6686C72.7332 92.7344 72.0948 92.7954 71.4987 92.7954C71.2171 92.7954 70.9706 92.7813 70.7453 92.7531C70.1233 92.6757 69.2268 92.2344 68.2785 91.7697C66.6826 90.9858 64.873 90.0986 62.8709 90.0986L62.8686 90.101Z" fill="#97AA7E"/>
<path d="M75.9096 88.5747C85.1121 87.7486 92.0366 81.1111 91.3757 73.7496C90.7148 66.388 82.7189 61.09 73.5163 61.9162C64.3137 62.7424 57.3893 69.3798 58.0502 76.7414C58.711 84.1029 66.707 89.4009 75.9096 88.5747Z" fill="white"/>
<path d="M67.0926 76.4789C70.7258 79.347 77.0042 79.3142 80.7783 76.8099C82.4681 75.6786 82.7028 73.8362 82.447 71.867C82.163 70.6489 83.5642 69.8133 84.4702 70.6747C87.0402 73.3409 86.958 77.5257 84.3951 80.1779C83.3131 81.3279 81.8908 82.1494 80.4121 82.6611C76.1663 84.189 71.1624 83.6187 67.5738 80.8492C66.5645 80.0418 65.6609 79.0184 65.1422 77.7792C64.6564 76.5517 66.1585 75.5753 67.095 76.4766L67.0926 76.4789Z" fill="#97AA7E"/>
<path d="M63.1383 98.0771C63.718 96.1572 66.0557 95.2982 68.5529 96.751C69.3767 97.2298 70.3672 97.3402 71.2685 97.0303C74.5309 95.8991 76.0776 97.8964 76.1621 99.5558C76.2747 101.785 73.6507 104.107 68.7336 103.468C64.9455 102.978 62.4436 100.377 63.1383 98.0748V98.0771Z" fill="#BDCE9F"/>
<path d="M61.3448 100.864C57.1201 103.446 55.6203 110.06 59.4671 111.191C63.4571 112.365 65.3348 106.967 64.6306 103.915" fill="white"/>
<path d="M61.3448 100.864C57.1201 103.446 55.6203 110.06 59.4671 111.191C63.4571 112.365 65.3348 106.967 64.6306 103.915" stroke="#97AA7E" stroke-width="1.40823" stroke-linecap="round" stroke-linejoin="round"/>
<path d="M50.7832 67.7707C50.5485 58.6172 53.8344 51.576 60.1714 49.229C65.8044 47.3514 73.3149 52.9843 75.4273 57.6784" stroke="#97AA7E" stroke-width="2.34705" stroke-linecap="round" stroke-linejoin="round"/>
<path d="M97.8746 98.5176C94.4761 92.8542 94.7108 84.4705 100.602 83.5646C106.493 82.6586 109.657 91.0423 106.031 98.5176" fill="#BDCE9F"/>
<path d="M97.8746 98.5176C94.4761 92.8542 94.7108 84.4705 100.602 83.5646C106.493 82.6586 109.657 91.0423 106.031 98.5176" stroke="#97AA7E" stroke-width="1.40823" stroke-linecap="round" stroke-linejoin="round"/>
<path d="M98.5222 97.7077C95.9687 97.0107 89.0026 98.6372 90.3944 105.139C91.3379 109.546 97.1281 110.478 100.843 109.086C104.559 107.692 109.204 104.441 106.415 98.4048" fill="#BDCE9F"/>
<path d="M98.5222 97.7077C95.9687 97.0107 89.0026 98.6372 90.3944 105.139C91.3379 109.546 97.1281 110.478 100.843 109.086C104.559 107.692 109.204 104.441 106.415 98.4048" stroke="#97AA7E" stroke-width="1.40823" stroke-linecap="round" stroke-linejoin="round"/>
<path d="M102.653 110.018C101.245 105.559 100.996 97.7667 105.469 96.4054C110.867 94.7625 116.735 101.334 118.143 110.722C116.735 112.131 111.102 107.202 108.99 105.559C108.52 106.732 108.051 108.375 108.051 109.784" fill="#BDCE9F"/>
<path d="M102.653 110.018C101.245 105.559 100.996 97.7667 105.469 96.4054C110.867 94.7625 116.735 101.334 118.143 110.722C116.735 112.131 111.102 107.202 108.99 105.559C108.52 106.732 108.051 108.375 108.051 109.784" stroke="#97AA7E" stroke-width="1.40823" stroke-linecap="round" stroke-linejoin="round"/>
<path d="M107.816 103.446C108.286 106.732 113.205 115.229 120.256 114.947C126.123 114.712 127.532 108.638 127.532 104.62C127.532 99.9259 124.715 96.4053 120.725 96.64C116.911 96.8653 113.684 101.334 115.327 107.906" fill="#BDCE9F"/>
<path d="M107.816 103.446C108.286 106.732 113.205 115.229 120.256 114.947C126.123 114.712 127.532 108.638 127.532 104.62C127.532 99.9259 124.715 96.4053 120.725 96.64C116.911 96.8653 113.684 101.334 115.327 107.906" stroke="#97AA7E" stroke-width="1.40823" stroke-linecap="round" stroke-linejoin="round"/>
<path d="M46.7931 101.099C40.6908 101.099 36.4661 99.9258 34.3537 98.7523C35.0579 96.4052 36.4661 94.5276 37.4049 93.8235C36.7008 90.0682 36.9355 84.4353 37.6396 81.1494C30.8332 83.4965 22.6185 95.2317 25.6697 102.273C28.7208 109.314 45.3849 108.61 50.079 106.967" fill="#BDCE9F"/>
<path d="M46.7931 101.099C40.6908 101.099 36.4661 99.9258 34.3537 98.7523C35.0579 96.4052 36.4661 94.5276 37.4049 93.8235C36.7008 90.0682 36.9355 84.4353 37.6396 81.1494C30.8332 83.4965 22.6185 95.2317 25.6697 102.273C28.7208 109.314 45.3849 108.61 50.079 106.967" stroke="#97AA7E" stroke-width="1.40823" stroke-linecap="round" stroke-linejoin="round"/>
<path d="M32.9458 97.8135C33.4152 98.2829 33.8846 98.5176 34.354 98.7523L32.9458 97.8135Z" fill="white"/>
<path d="M32.9458 97.8135C33.4152 98.2829 33.8846 98.5176 34.354 98.7523" stroke="#97AA7E" stroke-width="1.40823" stroke-linecap="round" stroke-linejoin="round"/>
<path d="M42.7354 108.002C45.4485 112.973 47.3403 114.783 47.4177 114.043C46.7911 111.661 47.0258 109.549 48.434 108.14C46.5563 108.375 45.0167 108.098 42.7354 108.002Z" fill="#97AA7E"/>
<path d="M98.4473 109.76C100.522 110.274 101.949 110.251 102.653 110.251C102.653 108.843 102.339 109.127 102.027 108.634C100.463 109.054 100.346 109.035 98.4473 109.76Z" fill="#97AA7E"/>
<path d="M124.293 97.8082C121.665 96.4024 117.675 101.331 119.083 107.903C120.491 114.475 122.838 114.475 124.012 113.536C125.185 112.597 127.239 109.778 127.387 105.671C127.532 101.566 125.983 99.4465 124.293 97.8059V97.8082Z" fill="#97AA7E"/>
<path d="M52.345 84.5701L49.4518 85.2968C47.3774 85.8178 46.1182 87.9218 46.6392 89.9962C47.1603 92.0705 49.2643 93.3298 51.3386 92.8087L54.2318 92.082C56.3062 91.5609 57.5654 89.457 57.0444 87.3826C56.5233 85.3082 54.4193 84.049 52.345 84.5701Z" fill="white"/>
<path d="M100.225 71.4255L97.3316 72.1523C95.2573 72.6733 93.9981 74.7773 94.5191 76.8517C95.0402 78.926 97.1441 80.1852 99.2185 79.6642L102.112 78.9375C104.186 78.4164 105.445 76.3124 104.924 74.2381C104.403 72.1637 102.299 70.9045 100.225 71.4255Z" fill="white"/>
</g>
<defs>
<clipPath id="clip0_1208_22240">
<rect width="148.585" height="148.65" fill="white" transform="translate(16 15.3496)"/>
</clipPath>
</defs>
</svg>
