<svg width="180" height="180" viewBox="0 0 180 180" fill="none" xmlns="http://www.w3.org/2000/svg">
<g clip-path="url(#clip0_1208_22234)">
<path d="M82.4325 109.615H20.9384C19.9359 109.615 19.1233 110.428 19.1233 111.43V144.448C19.1233 145.45 19.9359 146.263 20.9384 146.263H82.4325C83.4349 146.263 84.2475 145.45 84.2475 144.448V111.43C84.2475 110.428 83.4349 109.615 82.4325 109.615Z" fill="white" stroke="#97AA7E" stroke-width="1.48572" stroke-linecap="round" stroke-linejoin="round"/>
<path d="M76.0762 114.462H27.2949V146.264H76.0762V114.462Z" fill="#E9F4D7" stroke="#BFD3A5" stroke-width="1.48572" stroke-linecap="round" stroke-linejoin="round"/>
<path d="M51.3141 134.378C72.5114 134.378 89.6953 117.194 89.6953 95.9964C89.6953 74.7991 72.5114 57.6152 51.3141 57.6152C30.1167 57.6152 12.9329 74.7991 12.9329 95.9964C12.9329 117.194 30.1167 134.378 51.3141 134.378Z" fill="white" stroke="#BFD3A5" stroke-width="1.48572" stroke-linecap="round" stroke-linejoin="round"/>
<path d="M51.0664 57.6152V75.4439" stroke="#BFD3A5" stroke-width="1.48572" stroke-linecap="round" stroke-linejoin="round"/>
<path d="M23.5161 86.5865H37.4473V105.158H23.5161C20.9557 105.158 18.8757 103.078 18.8757 100.518V91.2244C18.8757 88.664 20.9557 86.584 23.5161 86.584V86.5865Z" fill="white" stroke="#BFD3A5" stroke-width="1.48572" stroke-linecap="round" stroke-linejoin="round"/>
<path d="M24.306 91.5391H32.4949V100.206H24.306C24.0436 100.206 23.8281 99.9928 23.8281 99.7279V92.017C23.8281 91.7545 24.0411 91.5391 24.306 91.5391Z" fill="white" stroke="#BFD3A5" stroke-width="1.48572" stroke-linecap="round" stroke-linejoin="round"/>
<path d="M51.3141 117.787C63.3487 117.787 73.1047 108.031 73.1047 95.9967C73.1047 83.962 63.3487 74.2061 51.3141 74.2061C39.2794 74.2061 29.5234 83.962 29.5234 95.9967C29.5234 108.031 39.2794 117.787 51.3141 117.787Z" fill="white" stroke="#BFD3A5" stroke-width="1.48572" stroke-linecap="round" stroke-linejoin="round"/>
<path d="M70.2472 108.39C70.7772 108.736 71.4928 108.578 71.8147 108.033C78.2058 97.1674 74.9941 83.0853 64.3341 76.1073C53.674 69.1294 39.4829 71.821 32.0815 82.0254C31.71 82.538 31.8512 83.2586 32.3811 83.6053L70.2497 108.392L70.2472 108.39Z" fill="#E9F4D7" stroke="#BFD3A5" stroke-width="1.48572" stroke-linecap="round" stroke-linejoin="round"/>
<path d="M56.2666 67.5195C57.3607 67.5195 58.2476 66.6326 58.2476 65.5386C58.2476 64.4445 57.3607 63.5576 56.2666 63.5576C55.1726 63.5576 54.2856 64.4445 54.2856 65.5386C54.2856 66.6326 55.1726 67.5195 56.2666 67.5195Z" fill="#E9F4D7" stroke="#BFD3A5" stroke-width="1.48572" stroke-linecap="round" stroke-linejoin="round"/>
<path d="M51.5618 134.625V146.263" stroke="#BFD3A5" stroke-width="1.48572" stroke-linecap="round" stroke-linejoin="round"/>
<path d="M89.6953 95.9964C89.6953 74.8001 72.5104 57.6152 51.3141 57.6152C30.1177 57.6152 12.9329 74.8001 12.9329 95.9964C12.9329 103.707 15.2085 110.886 19.1234 116.903V144.448C19.1234 145.451 19.9356 146.263 20.9384 146.263H82.4301C83.433 146.263 84.2451 145.451 84.2451 144.448V115.714C87.7019 109.952 89.6928 103.207 89.6928 95.9964H89.6953Z" stroke="#97AA7E" stroke-width="1.48572" stroke-linecap="round" stroke-linejoin="round"/>
<path d="M61.219 125.958C63.6952 124.473 73.1048 117.539 76.8191 119.52C80.5334 121.501 78.2627 128.021 77.2921 128.722C76.3239 129.425 66.1714 133.139 63.9428 133.387C61.9619 130.911 61.4666 129.92 61.219 125.958Z" fill="#BDCE9F" stroke="#97AA7E" stroke-width="1.48572" stroke-linecap="round" stroke-linejoin="round"/>
<path d="M97.124 125.216C93.4097 131.406 89.2001 137.844 88.2096 139.578C82.346 137.466 76.2595 140.467 78.3692 147.524C78.5995 148.294 79.2557 148.864 80.053 148.97C82.7991 149.329 88.4102 149.374 92.1171 148.71C92.7733 148.594 93.3304 148.165 93.6078 147.559C96.0691 142.208 101.13 128.549 101.829 126.456C100.591 124.971 98.8573 124.475 97.124 125.218V125.216Z" fill="#BDCE9F" stroke="#97AA7E" stroke-width="1.48572" stroke-linecap="round" stroke-linejoin="round"/>
<path d="M90.4381 141.063C89.9428 140.568 89.2 140.072 88.2095 139.577" stroke="#97AA7E" stroke-width="1.48572" stroke-linecap="round" stroke-linejoin="round"/>
<path d="M127.715 125.216C131.429 131.406 135.639 137.844 136.629 139.578C142.493 137.466 148.579 140.467 146.47 147.524C146.239 148.294 145.583 148.864 144.786 148.97C142.04 149.329 135.933 149.374 132.227 148.71C131.57 148.594 131.013 148.165 130.736 147.559C128.275 142.208 123.213 128.549 122.515 126.456C123.753 124.971 125.982 124.475 127.715 125.218V125.216Z" fill="#BDCE9F" stroke="#97AA7E" stroke-width="1.48572" stroke-linecap="round" stroke-linejoin="round"/>
<path d="M134.401 141.063C134.896 140.568 135.639 140.072 136.629 139.577" stroke="#97AA7E" stroke-width="1.48572" stroke-linecap="round" stroke-linejoin="round"/>
<path d="M132.657 124.842C140.264 122.527 145.729 115.846 146.497 107.932C148.094 91.475 145.407 68.7583 130.303 57.3678C116.931 47.4629 87.2166 47.2153 76.8165 69.7488C73.1022 78.1679 73.8451 93.0251 74.588 98.4728C69.8832 100.206 64.9307 108.13 67.6546 116.549C70.3784 124.968 77.5594 128.435 91.9214 129.178C102.95 129.747 119.92 128.717 132.655 124.842H132.657Z" fill="#D8EAC1"/>
<mask id="mask0_1208_22234" style="mask-type:luminance" maskUnits="userSpaceOnUse" x="66" y="50" width="81" height="80">
<path d="M132.657 124.842C140.264 122.527 145.729 115.846 146.497 107.932C148.094 91.475 145.407 68.7583 130.303 57.3678C116.931 47.4629 87.2166 47.2153 76.8165 69.7488C73.1022 78.1679 73.8451 93.0251 74.588 98.4728C69.8832 100.206 64.9307 108.13 67.6546 116.549C70.3784 124.968 77.5594 128.435 91.9214 129.178C102.95 129.747 119.92 128.717 132.655 124.842H132.657Z" fill="white"/>
</mask>
<g mask="url(#mask0_1208_22234)">
<path d="M72.8571 124.72C66.1714 112.091 71.832 103.511 81.1351 101.983C74.5905 79.4054 82.0191 43.0052 128.819 57.1195C115.448 44.9861 67.6893 26.5161 59.7505 75.8669C51.8094 125.215 64.1904 121.501 72.8571 124.72Z" fill="white"/>
</g>
<path d="M132.657 124.842C140.264 122.527 145.729 115.846 146.497 107.932C148.094 91.475 145.407 68.7583 130.303 57.3678C116.931 47.4629 87.2166 47.2153 76.8165 69.7488C73.1022 78.1679 73.8451 93.0251 74.588 98.4728C69.8832 100.206 64.9307 108.13 67.6546 116.549C70.3784 124.968 77.5594 128.435 91.9214 129.178C102.95 129.747 119.92 128.717 132.655 124.842H132.657Z" stroke="#97AA7E" stroke-width="1.48572" stroke-linecap="round" stroke-linejoin="round"/>
<path d="M109.063 108.274C119.402 105.648 125.746 95.4986 123.233 85.6038C120.72 75.709 110.302 69.8163 99.9628 72.442C89.624 75.0677 83.2798 85.2176 85.7928 95.1124C88.3058 105.007 98.7242 110.9 109.063 108.274Z" fill="white"/>
<path d="M103.531 102.67C109.699 101.104 113.483 95.0493 111.984 89.1469C110.485 83.2444 104.27 79.7294 98.1026 81.2957C91.9351 82.8621 88.1505 88.9167 89.6495 94.8191C91.1485 100.722 97.3635 104.237 103.531 102.67Z" fill="#97AA7E"/>
<path d="M109.511 94.9255C111.74 94.3593 113.108 92.1703 112.566 90.0362C112.024 87.9022 109.778 86.6312 107.548 87.1974C105.319 87.7636 103.951 89.9526 104.493 92.0867C105.035 94.2207 107.281 95.4917 109.511 94.9255Z" fill="white"/>
<path d="M127.799 116.524C126.095 118.533 122.136 118.134 119.801 115.507C117.466 112.88 116.686 109.618 118.236 108.095C119.682 106.672 122.839 107.194 125.739 109.361C129.067 111.847 129.176 114.905 127.799 116.524Z" fill="white" stroke="#97AA7E" stroke-width="1.48572" stroke-linecap="round" stroke-linejoin="round"/>
<path d="M96.6287 45.4814C96.6287 56.6244 107.276 64.3006 117.429 58.853" stroke="#97AA7E" stroke-width="2.47621" stroke-linecap="round" stroke-linejoin="round"/>
<path d="M140.457 93.2725C146.153 91.7868 150.362 88.3201 152.096 83.6153C150.61 81.1391 146.153 78.1677 143.924 77.4248C140.757 78.6109 134.019 76.6819 135.646 69.5727C135.505 68.7581 134.762 66.7771 135.257 63.0628C137.238 61.0818 146.4 57.3675 144.667 69.0057C153.086 71.7295 161.01 76.9296 160.762 83.3677C160.515 89.8058 154.819 96.4916 141.2 98.2249" fill="#BDCE9F"/>
<path d="M140.457 93.2725C146.153 91.7868 150.362 88.3201 152.096 83.6153C150.61 81.1391 146.153 78.1677 143.924 77.4248C140.757 78.6109 134.019 76.6819 135.646 69.5727C135.505 68.7581 134.762 66.7771 135.257 63.0628C137.238 61.0818 146.4 57.3675 144.667 69.0057C153.086 71.7295 161.01 76.9295 160.762 83.3677C160.515 89.8058 154.82 96.4916 141.2 98.2249" stroke="#97AA7E" stroke-width="1.48572" stroke-linecap="round" stroke-linejoin="round"/>
<path d="M141.2 66.7775C141.2 62.5679 138.972 59.3488 135.258 59.1012C131.543 58.8536 128.426 61.3075 129.067 64.3013C129.81 67.7679 133.524 68.0156 135.505 67.2727" fill="#BDCE9F"/>
<path d="M141.2 66.7775C141.2 62.5679 138.972 59.3488 135.258 59.1012C131.543 58.8536 128.426 61.3075 129.067 64.3013C129.81 67.7679 133.524 68.0156 135.505 67.2727" stroke="#97AA7E" stroke-width="1.48572" stroke-linecap="round" stroke-linejoin="round"/>
<path d="M81.6549 101.406L78.5224 101.71C76.2765 101.929 74.6327 103.926 74.851 106.172C75.0692 108.418 77.0668 110.062 79.3127 109.843L82.4452 109.539C84.6911 109.321 86.3349 107.323 86.1166 105.077C85.8984 102.831 83.9008 101.188 81.6549 101.406Z" fill="white"/>
<path d="M132.3 94.9626L129.167 95.267C126.921 95.4852 125.278 97.4828 125.496 99.7287C125.714 101.975 127.712 103.618 129.957 103.4L133.09 103.096C135.336 102.878 136.98 100.88 136.761 98.634C136.543 96.3881 134.546 94.7443 132.3 94.9626Z" fill="white"/>
<path d="M94.5833 130.478C96.8763 130.663 98.6097 132.149 98.6097 133.883C100.095 132.644 100.524 130.049 100.806 129.366C98.6443 129.485 94.8953 129.178 94.6477 129.178C94.4001 129.673 94.5165 130.29 94.5833 130.478Z" fill="#97AA7E"/>
<path d="M123.666 129.791C123.57 129.306 123.06 127.699 122.72 127.325C124.023 126.822 127.497 126.548 128.034 126.253C128.861 127.152 130.397 130.198 130.597 130.678C128.572 129.425 125.105 129.425 123.666 129.791Z" fill="#97AA7E"/>
<path d="M146.376 97.4717C146.921 98.2393 146.648 100.456 146.401 101.694C145.658 100.208 143.924 98.9698 141.943 98.4745C144.667 98.2269 145.361 97.9545 146.376 97.4717Z" fill="#97AA7E"/>
<path d="M128.572 64.5488C128.819 68.0155 131.048 70.2441 134.515 70.4917C134.267 72.7203 134.762 80.8918 143.924 80.1489C144.42 79.4061 143.696 77.804 143.439 77.6133C141.686 78.2249 133.772 77.6727 135.505 69.9965C135.258 68.7584 135.057 67.9289 134.908 67.4757C132.138 68.0576 129.315 67.2727 128.572 64.5488Z" fill="#97AA7E"/>
<path d="M71.8665 123.482C74.0951 124.968 76.3237 125.959 77.5618 127.197C73.5999 126.206 72.1141 126.206 70.6284 127.692C71.6189 125.959 71.3713 125.216 71.8665 123.482Z" fill="#97AA7E"/>
<path d="M62.7245 94.7213C59.5352 91.3982 55.1102 91.9232 50.0092 92.9211C44.9057 93.9215 40.6095 95.1026 38.9108 99.384C37.3904 103.215 39.5571 107.835 43.1328 111.931C44.205 110.965 45.1286 110.529 46.0052 109.853C44.1703 106.931 43.0659 103.868 43.415 101.781C43.8162 99.3766 48.7711 98.2078 50.9576 97.7794C53.1441 97.351 58.1732 96.5636 59.4534 98.6387C60.5628 100.439 60.6965 103.695 60.0997 107.09C61.167 107.385 62.1872 107.439 63.5441 107.929C65.3121 102.789 65.5771 97.6903 62.722 94.7164L62.7245 94.7213Z" fill="white" stroke="#97AA7E" stroke-width="1.48572" stroke-linecap="round" stroke-linejoin="round"/>
<path d="M70.5046 115.113C68.1794 106.773 63.6529 103.356 59.8222 104.374C56.0658 105.372 55.0729 108.142 53.2157 108.645C51.3041 108.88 49.3405 106.686 45.485 107.179C41.5553 107.682 38.6507 112.555 39.6436 121.155C40.7307 130.567 44.6456 133.808 48.5827 133.306C52.4481 132.81 54.9788 129.22 57.1356 128.665C59.3419 128.366 63.0388 130.735 66.8076 129.735C70.6458 128.717 73.0477 124.235 70.5046 115.11V115.113Z" fill="white" stroke="#97AA7E" stroke-width="1.48572" stroke-linecap="round" stroke-linejoin="round"/>
<path d="M58.6289 112.481C57.8885 110.978 56.0289 109.732 53.5774 110.123V110.116C53.5403 110.123 53.5081 110.133 53.4734 110.141C53.4388 110.148 53.4041 110.151 53.3694 110.158V110.166C50.9527 110.728 49.6997 112.582 49.5808 114.254C49.4397 116.267 50.4228 117.649 51.8664 118.263C51.485 120.207 51.8268 122.933 52.3913 124.268C53.1936 126.157 54.8502 127.519 56.7197 127.274V127.286C56.7569 127.279 56.7916 127.269 56.8262 127.259C56.8609 127.254 56.8956 127.251 56.9327 127.244V127.232C58.7552 126.754 59.7754 124.869 59.8051 122.817C59.8274 121.368 59.1142 118.713 58.0272 117.057C59.1316 115.945 59.5228 114.293 58.6314 112.483L58.6289 112.481Z" fill="white" stroke="#BFD3A5" stroke-width="1.48572" stroke-linecap="round" stroke-linejoin="round"/>
<path d="M56.5934 114.608C56.3631 113.432 55.2216 112.664 54.0454 112.894C52.8692 113.125 52.1015 114.266 52.3318 115.442C52.5126 116.366 53.2555 117.035 54.1345 117.168C53.7334 117.978 53.6492 119.513 53.981 121.209C54.4465 123.592 55.3677 124.421 56.2665 124.243C57.1654 124.065 57.7052 122.953 57.2397 120.571C56.9079 118.874 56.2492 117.483 55.5732 116.886C56.3383 116.43 56.7717 115.531 56.5909 114.608H56.5934Z" fill="#97AA7E"/>
<path d="M45.9507 114.117C47.0447 114.117 47.9317 113.23 47.9317 112.136C47.9317 111.042 47.0447 110.155 45.9507 110.155C44.8566 110.155 43.9697 111.042 43.9697 112.136C43.9697 113.23 44.8566 114.117 45.9507 114.117Z" fill="white" stroke="#BFD3A5" stroke-width="1.48572" stroke-linecap="round" stroke-linejoin="round"/>
<path d="M61.2586 111.118C62.3526 111.118 63.2395 110.231 63.2395 109.137C63.2395 108.043 62.3526 107.156 61.2586 107.156C60.1645 107.156 59.2776 108.043 59.2776 109.137C59.2776 110.231 60.1645 111.118 61.2586 111.118Z" fill="white" stroke="#BFD3A5" stroke-width="1.48572" stroke-linecap="round" stroke-linejoin="round"/>
<path d="M54.2854 87.825C54.2854 86.1839 52.9551 84.8535 51.314 84.8535C49.6729 84.8535 48.3425 86.1839 48.3425 87.825V101.939C48.3425 103.58 49.6729 104.911 51.314 104.911C52.9551 104.911 54.2854 103.58 54.2854 101.939V87.825Z" fill="white" stroke="#97AA7E" stroke-width="1.48572" stroke-linecap="round" stroke-linejoin="round"/>
<path d="M77.8096 127.957C74.3528 133.258 67.2733 134.264 62.6477 133.932C58.4952 133.635 55.2761 131.901 55.0285 129.92C54.7387 127.6 56.529 124.99 62.2095 125.463C65.1809 125.711 67.7017 127.707 66.3175 130.242" fill="#BDCE9F"/>
<path d="M77.8096 127.957C74.3528 133.258 67.2733 134.264 62.6477 133.932C58.4952 133.635 55.2761 131.901 55.0285 129.92C54.7387 127.6 56.529 124.99 62.2095 125.463C65.1809 125.711 67.7017 127.707 66.3175 130.242" stroke="#97AA7E" stroke-width="1.48572" stroke-linecap="round" stroke-linejoin="round"/>
<path d="M66.3174 130.245C66.778 129.554 67.0082 128.861 67.0082 128.4C67.9046 128.187 68.6475 128.187 69.69 128.579C70.6285 128.93 70.8761 129.921 70.6285 130.168C70.3808 130.416 67.454 131.31 66.3174 130.243V130.245Z" fill="#BDCE9F"/>
<path d="M69.69 128.579C68.6475 128.187 67.9046 128.187 67.0082 128.4C67.0082 128.861 66.778 129.552 66.3174 130.245" stroke="#97AA7E" stroke-width="1.48572" stroke-linecap="round" stroke-linejoin="round"/>
<path d="M135.852 51.2959L139.715 48.2056C139.715 48.2056 135.257 44.9865 136.743 39.0437C138.229 33.1008 145.657 27.4055 157.543 31.3674C166.705 34.3389 167.943 44.4913 164.477 49.1961C160.336 54.8121 151.6 54.8914 146.648 52.6628C145.769 53.7177 143.639 56.1468 142.48 57.4666C142.047 57.9594 141.297 58.004 140.809 57.5657L135.805 53.0961C135.26 52.6108 135.282 51.7491 135.854 51.2934L135.852 51.2959Z" fill="white" stroke="#97AA7E" stroke-width="1.48572" stroke-linecap="round" stroke-linejoin="round"/>
<path d="M147.956 39.9423C149.899 41.0541 151.011 44.1098 146.566 44.9418C142.122 45.7763 142.399 41.6088 142.956 39.9423C141.844 36.8867 143.511 32.7192 151.011 32.9966C158.512 33.2739 159.901 39.3852 159.066 41.0517C158.232 42.7181 154.914 41.4478 155.733 44.1073C156.026 45.6128 153.247 46.4473 152.4 44.3846C151.219 41.5122 152.4 40.2172 154.344 39.6625C154.636 38.9469 152.972 37.8573 151.289 37.7187C149.36 37.5577 147.956 38.5532 147.956 39.9398V39.9423Z" fill="#97AA7E"/>
<path d="M154.054 49.2154C153.326 48.2448 153.569 46.7863 155.025 46.3009C156.481 45.8156 157.662 46.5436 158.147 47.5168C158.633 48.4899 158.217 49.4606 157.246 49.9459C156.275 50.4313 154.782 50.1886 154.054 49.2179V49.2154Z" fill="#97AA7E"/>
</g>
<defs>
<clipPath id="clip0_1208_22234">
<rect width="154.81" height="120.661" fill="white" transform="translate(12.1899 29.3096)"/>
</clipPath>
</defs>
</svg>
