<svg width="32" height="32" viewBox="0 0 32 32" fill="none" xmlns="http://www.w3.org/2000/svg">
<path d="M6.45898 7.26239C7.31022 4.46659 10.2666 2.8899 13.0625 3.74091L20.4814 5.99969H21C24.8659 5.99969 27.9998 9.13383 28 12.9997V20.9997C28 24.8657 24.866 27.9997 21 27.9997H11C7.13401 27.9997 4 24.8657 4 20.9997V12.9997C4.00008 10.9483 4.88199 9.10223 6.28809 7.82196L6.45898 7.26239ZM11 7.99969C8.23867 7.99969 6.00015 10.2384 6 12.9997V20.9997C6 23.7611 8.23858 25.9997 11 25.9997H21C23.7614 25.9997 26 23.7611 26 20.9997V12.9997C25.9998 10.2384 23.7613 7.99969 21 7.99969H11ZM13.1865 11.0143C13.9405 11.0759 14.6689 11.3283 15.3008 11.7507C15.557 11.922 15.7922 12.1205 16.0059 12.3386C16.2183 12.1216 16.4534 11.9253 16.708 11.7546C17.4281 11.272 18.2739 11.0092 19.1406 10.9997H19.1514C20.4389 10.9999 21.5506 11.643 22.3164 12.5173C23.08 13.3891 23.5644 14.5587 23.5645 15.7585V15.7604C23.5591 18.2628 21.8627 20.3842 20.2744 21.7897C19.4574 22.5127 18.6099 23.0991 17.8984 23.5095C17.5433 23.7143 17.2086 23.8833 16.9189 24.0036C16.6757 24.1046 16.3265 24.232 15.998 24.2321C15.6699 24.2321 15.3205 24.1023 15.082 24.0026C14.7949 23.8825 14.4625 23.7141 14.1084 23.5095C13.3989 23.0994 12.5517 22.5128 11.7334 21.7897C10.144 20.3853 8.44061 18.2636 8.44043 15.7585C8.44051 14.5587 8.92484 13.3891 9.68848 12.5173C10.4544 11.6431 11.566 10.9997 12.8535 10.9997H12.8613L13.1865 11.0143ZM19.1562 12.9997C18.6808 13.0061 18.2164 13.151 17.8213 13.4157C17.4247 13.6817 17.1141 14.058 16.9277 14.4977C16.7712 14.8674 16.4082 15.1079 16.0068 15.1081C15.6052 15.1081 15.2425 14.8675 15.0859 14.4977C14.8992 14.0569 14.5875 13.6799 14.1895 13.4138C13.7927 13.1485 13.3267 13.0047 12.8496 12.9997C12.2552 13.0009 11.661 13.2999 11.1924 13.8347C10.7208 14.3731 10.4405 15.0836 10.4404 15.7585C10.4406 17.3744 11.5843 18.9888 13.0576 20.2907C13.7706 20.9207 14.5085 21.4308 15.1094 21.778C15.4102 21.9518 15.6651 22.0777 15.8545 22.1569C15.9181 22.1835 15.9671 22.199 16.001 22.2106C16.0356 22.1989 16.0866 22.1832 16.1523 22.1559C16.3428 22.0768 16.5977 21.9505 16.8984 21.777C17.4999 21.4302 18.2377 20.9213 18.9492 20.2917C20.4184 18.9915 21.5599 17.3761 21.5645 15.7585L21.5518 15.5036C21.4915 14.9084 21.2251 14.3058 20.8125 13.8347C20.3442 13.3 19.7504 13.0013 19.1562 12.9997ZM12.4463 5.7663C11.5477 5.49275 10.6229 5.63961 9.87793 6.09052C10.2433 6.03164 10.618 5.99969 11 5.99969H13.2129L12.4463 5.7663Z" fill="#404040"/>
</svg>
