<svg width="32" height="32" viewBox="0 0 32 32" fill="none" xmlns="http://www.w3.org/2000/svg">
<path d="M24 7V6V6V7ZM28 11H29H28ZM28 13V14C28.5523 14 29 13.5523 29 13H28ZM28 19H29C29 18.4477 28.5523 18 28 18V19ZM24 25V26V26V25ZM8 25V26V26V25ZM4 21H3H4ZM4 19V18C3.44772 18 3 18.4477 3 19H4ZM4 13H3C3 13.5523 3.44772 14 4 14V13ZM8 7V6V6V7ZM24 7V8C25.6569 8 27 9.34315 27 11H28H29C29 8.23858 26.7614 6 24 6V7ZM28 11H27V13H28H29V11H28ZM28 13V12C25.7909 12 24 13.7909 24 16H25H26C26 14.8954 26.8954 14 28 14V13ZM25 16H24C24 18.2091 25.7909 20 28 20V19V18C26.8954 18 26 17.1046 26 16H25ZM28 19H27V21H28H29V19H28ZM28 21H27C27 22.6569 25.6569 24 24 24V25V26C26.7614 26 29 23.7614 29 21H28ZM24 25V24H8V25V26H24V25ZM8 25V24C6.34315 24 5 22.6569 5 21H4H3C3 23.7614 5.23858 26 8 26V25ZM4 21H5V19H4H3V21H4ZM4 19V20C6.20914 20 8 18.2091 8 16H7H6C6 17.1046 5.10457 18 4 18V19ZM7 16H8C8 13.7909 6.20914 12 4 12V13V14C5.10457 14 6 14.8954 6 16H7ZM4 13H5V11H4H3V13H4ZM4 11H5C5 9.34315 6.34315 8 8 8V7V6C5.23858 6 3 8.23858 3 11H4ZM8 7V8H24V7V6H8V7Z" fill="#404040"/>
<mask id="mask0_6308_8636" style="mask-type:luminance" maskUnits="userSpaceOnUse" x="4" y="7" width="24" height="18">
<path d="M24 7C26.2091 7 28 8.79086 28 11V13C26.3431 13 25 14.3431 25 16C25 17.6569 26.3431 19 28 19V21C28 23.2091 26.2091 25 24 25H8C5.79086 25 4 23.2091 4 21V19C5.65685 19 7 17.6569 7 16C7 14.3431 5.65685 13 4 13V11C4 8.79086 5.79086 7 8 7H24Z" fill="white"/>
</mask>
<g mask="url(#mask0_6308_8636)">
<rect x="12.5" y="18.2305" width="7" height="2" rx="1" fill="#404040"/>
<rect x="12.5" y="12.2305" width="7" height="2" rx="1" fill="#404040"/>
</g>
<path d="M24.2568 6.00684C26.8989 6.14053 29 8.32472 29 11V13C29 13.5523 28.5523 14 28 14C26.8954 14 26 14.8954 26 16C26 17.1046 26.8954 18 28 18C28.5523 18 29 18.4477 29 19V21C29 23.7614 26.7614 26 24 26H8C5.23858 26 3 23.7614 3 21V19C3 18.4477 3.44772 18 4 18C5.10457 18 6 17.1046 6 16C6 14.8954 5.10457 14 4 14C3.44772 14 3 13.5523 3 13V11C3 8.23858 5.23858 6 8 6H24L24.2568 6.00684ZM8 8C6.34315 8 5 9.34315 5 11V12.126C6.72523 12.57 8 14.1362 8 16C8 17.8638 6.72523 19.43 5 19.874V21L5.00391 21.1543C5.08421 22.7394 6.39489 24 8 24H24L24.1543 23.9961C25.7394 23.9158 27 22.6051 27 21V19.874C25.2748 19.43 24 17.8638 24 16C24 14.1362 25.2748 12.57 27 12.126V11C27 9.3949 25.7394 8.08421 24.1543 8.00391L24 8H8ZM18.5 18.2305C19.0523 18.2305 19.5 18.6782 19.5 19.2305C19.5 19.7828 19.0523 20.2305 18.5 20.2305H13.5C12.9477 20.2305 12.5 19.7828 12.5 19.2305C12.5 18.6782 12.9477 18.2305 13.5 18.2305H18.5ZM18.5 12.2305C19.0523 12.2305 19.5 12.6782 19.5 13.2305C19.5 13.7828 19.0523 14.2305 18.5 14.2305H13.5C12.9477 14.2305 12.5 13.7828 12.5 13.2305C12.5 12.6782 12.9477 12.2305 13.5 12.2305H18.5Z" fill="#404040"/>
</svg>
