<svg width="32" height="32" viewBox="0 0 32 32" fill="none" xmlns="http://www.w3.org/2000/svg">
<path d="M16.0768 2.88892C16.6289 2.88909 17.0768 3.33674 17.0768 3.88892V4.7561C21.9997 5.09423 25.0613 7.90725 26.8707 10.6565C27.83 12.1142 28.4477 13.5654 28.8258 14.6477C29.0153 15.1901 29.1469 15.6446 29.2311 15.967C29.2732 16.1282 29.3034 16.2574 29.3239 16.3479C29.334 16.3929 29.3419 16.4288 29.3473 16.4543C29.35 16.467 29.3526 16.478 29.3541 16.4856C29.3548 16.489 29.3556 16.4921 29.3561 16.4944V16.4993C29.3509 16.5008 29.2815 16.515 28.3756 16.6917L29.3571 16.5002C29.4248 16.848 29.303 17.2059 29.0377 17.4407C28.7722 17.6754 28.402 17.7518 28.0651 17.6418L26.6539 17.1809C25.4869 16.7998 24.2079 16.9928 23.2047 17.7004L22.6022 18.1252C21.9466 18.5877 21.09 18.6536 20.3717 18.2961C19.3258 17.7757 18.2088 17.4571 17.0758 17.3391V24.6672C17.0756 26.5693 15.5336 28.1116 13.6315 28.1116C11.7296 28.1113 10.1874 26.5692 10.1871 24.6672V24.3616C10.1873 23.8095 10.6351 23.3618 11.1871 23.3616C11.7394 23.3616 12.187 23.8094 12.1871 24.3616V24.6672C12.1874 25.4646 12.8341 26.1113 13.6315 26.1116C14.4291 26.1116 15.0756 25.4648 15.0758 24.6672V17.3391C13.9432 17.4572 12.8265 17.7758 11.7809 18.2961C11.0626 18.6534 10.2059 18.5878 9.55043 18.1252L8.94887 17.7004C7.9457 16.9926 6.66676 16.7999 5.49965 17.1809L4.08852 17.6418C3.75155 17.7519 3.38147 17.6754 3.11586 17.4407C2.85036 17.2059 2.72876 16.8481 2.79652 16.5002V16.4983C2.79675 16.4973 2.79728 16.4955 2.7975 16.4944C2.79797 16.4921 2.79877 16.489 2.79945 16.4856C2.80098 16.478 2.80267 16.467 2.80531 16.4543C2.81068 16.4288 2.81858 16.3929 2.82875 16.3479C2.84919 16.2574 2.88041 16.1282 2.9225 15.967C3.00672 15.6446 3.13734 15.19 3.3268 14.6477C3.7049 13.5654 4.32257 12.1142 5.28188 10.6565C7.09131 7.90713 10.1535 5.09409 15.0768 4.7561V3.88892C15.0768 3.33663 15.5245 2.88892 16.0768 2.88892ZM16.0768 6.72192C11.431 6.72192 8.63331 9.20261 6.95277 11.7561C6.14694 12.9806 5.60784 14.2126 5.2643 15.1692C6.92387 14.7498 8.69272 15.0722 10.1022 16.0667L10.7038 16.4915C10.7585 16.53 10.8303 16.535 10.8903 16.5051C14.1567 14.8798 17.9969 14.8797 21.2633 16.5051C21.3233 16.5349 21.3951 16.5301 21.4498 16.4915L22.0514 16.0667C23.4605 15.0725 25.2282 14.7503 26.8873 15.1692C26.5438 14.2127 26.0065 12.9805 25.2008 11.7561C23.5203 9.20257 20.7226 6.72203 16.0768 6.72192Z" fill="#404040"/>
</svg>
