<svg width="32" height="32" viewBox="0 0 32 32" fill="none" xmlns="http://www.w3.org/2000/svg">
<path d="M20.7608 4.23254C22.0987 4.2326 23.3276 4.74099 24.1524 5.7345C24.7958 6.50973 25.6472 7.33471 26.4268 8.07629C26.5955 8.23674 26.7482 8.41445 26.8838 8.60754C27.2241 9.09216 27.4196 9.61124 27.4991 10.13C27.609 10.8484 27.6252 11.6423 27.667 12.2638C27.7121 12.9328 27.787 13.4935 27.9776 13.9816C28.8577 16.2357 29.1993 18.7851 28.7354 20.839C27.9649 24.2473 25.2491 25.5339 24.2432 26.0187C24.1448 26.0661 24.0833 26.0956 24.0362 26.1202L24.0352 26.1212C22.8777 26.7239 19.8914 27.4884 16.0332 27.4884H15.9678C11.6377 27.4884 8.80749 26.5595 7.96585 26.1212C7.91784 26.0962 7.85599 26.066 7.75784 26.0187C6.7522 25.534 4.03599 24.2476 3.26566 20.839C2.85681 19.0291 3.0631 16.7634 3.77542 14.6398C4.4898 12.5102 5.75048 10.4121 7.56546 8.99524C10.3821 6.79649 14.2787 6.48126 15.7442 6.43762H16.0547C16.7591 5.67667 17.885 4.75751 19.4629 4.38684L19.7871 4.32043C20.1122 4.26266 20.4385 4.23254 20.7608 4.23254ZM20.7608 6.11731C20.4862 6.11731 20.1941 6.15125 19.8936 6.2218C18.7289 6.49547 17.8773 7.21115 17.335 7.82727C17.0601 8.13956 16.6587 8.32474 16.2285 8.32043V8.32239H15.7803C14.355 8.36683 11.0202 8.68865 8.72464 10.4806C7.27461 11.6127 6.19286 13.3596 5.56253 15.2384C4.93029 17.1231 4.78904 19.0301 5.10355 20.423C5.66235 22.896 7.59533 23.8492 8.57523 24.3214C8.65842 24.3615 8.75497 24.4072 8.83597 24.4493C9.341 24.7124 11.854 25.6036 15.9678 25.6036H16.0332C19.4951 25.6036 22.0406 24.9504 22.9951 24.5304L23.1651 24.4493C23.2462 24.407 23.3423 24.3612 23.4248 24.3214C24.4046 23.8492 26.3375 22.8964 26.8965 20.423C27.2552 18.8343 27.0077 16.6777 26.2227 14.6671C25.923 13.8996 25.834 13.1004 25.7862 12.3907C25.7352 11.6336 25.7298 11.0292 25.6358 10.4152C25.5986 10.1722 25.5088 9.92834 25.3418 9.69055C25.2769 9.59805 25.2052 9.51501 25.128 9.44153C24.3559 8.70712 23.4265 7.81036 22.7022 6.93762C22.284 6.4339 21.6188 6.11736 20.7608 6.11731ZM10.1651 16.0128C10.9071 16.0129 11.5088 16.973 11.5088 18.1573C11.5088 19.3417 10.9071 20.3018 10.1651 20.3019C9.423 20.3019 8.82132 19.3418 8.82132 18.1573C8.82132 16.9729 9.423 16.0128 10.1651 16.0128ZM20.9502 16.0128C21.6923 16.0128 22.294 16.9729 22.294 18.1573C22.294 19.3418 21.6923 20.3019 20.9502 20.3019C20.2082 20.3017 19.6065 19.3417 19.6065 18.1573C19.6065 16.973 20.2082 16.013 20.9502 16.0128ZM14.7119 16.7335C15.2935 16.7337 15.5292 17.0327 16.1075 17.5636C16.3951 17.8277 16.6756 18.0503 16.7823 18.2111C16.9459 18.4583 16.9365 19.1904 16.877 19.3409C16.8108 19.5079 16.5166 19.7273 15.9854 19.8527C15.724 19.9143 14.7712 20.0656 14.1514 19.7589C13.6687 19.52 13.244 19.0317 13.2891 18.1945C13.331 17.4162 13.8846 16.7335 14.7119 16.7335ZM10.2852 10.8263C10.5022 10.7191 10.7765 10.6473 11.0889 10.6915C11.4015 10.7358 11.7183 10.8918 12.0303 11.1808C12.1765 11.3162 12.1852 11.5444 12.0498 11.6906C11.9144 11.8366 11.6862 11.8454 11.5401 11.7101C11.313 11.4998 11.1265 11.4251 10.9873 11.4054C10.8479 11.3857 10.7213 11.4166 10.6055 11.4738C10.4867 11.5325 10.3858 11.6168 10.3125 11.6915C10.2769 11.7278 10.2499 11.7596 10.2325 11.7814C10.2239 11.792 10.2174 11.8001 10.2139 11.8048L10.211 11.8097C10.098 11.9726 9.87375 12.0137 9.70999 11.9015C9.54582 11.7889 9.50371 11.5638 9.61624 11.3995L9.61917 11.3966L9.6221 11.3917C9.62481 11.3879 9.62854 11.3829 9.63284 11.3771C9.64156 11.3653 9.65386 11.3491 9.66898 11.3302C9.69909 11.2926 9.74266 11.2419 9.79788 11.1857C9.90687 11.0747 10.0714 10.932 10.2852 10.8263ZM20.4717 10.6945C20.7828 10.6505 21.0553 10.7224 21.2715 10.8292C21.4849 10.9346 21.6492 11.0769 21.7578 11.1876C21.8128 11.2436 21.8558 11.2938 21.8858 11.3312C21.9008 11.35 21.9132 11.3663 21.9219 11.3781C21.9261 11.3838 21.93 11.3889 21.9326 11.3927L21.9356 11.3976L21.9366 11.3995L21.9375 11.4005C21.9351 11.4024 21.9095 11.4205 21.6465 11.6007C21.7433 11.7624 22.0023 11.7926 21.8448 11.9005C21.6816 12.0123 21.4583 11.9711 21.3457 11.8087L21.3428 11.8038C21.3393 11.7991 21.3336 11.7908 21.3252 11.7804C21.3078 11.7587 21.2808 11.7268 21.2451 11.6906C21.1721 11.6161 21.0715 11.5322 20.9532 11.4738C20.8377 11.4167 20.7113 11.3867 20.5723 11.4064C20.4337 11.426 20.2476 11.4996 20.0215 11.7091C19.876 11.844 19.6486 11.836 19.5137 11.6906C19.3788 11.545 19.3876 11.3167 19.5332 11.1818C19.8441 10.8938 20.1602 10.7385 20.4717 10.6945ZM16.2285 6.43958V7.38L16.2549 6.43762C16.246 6.43738 16.2373 6.43929 16.2285 6.43958Z" fill="#404040"/>
</svg>
