<svg width="32" height="32" viewBox="0 0 32 32" fill="none" xmlns="http://www.w3.org/2000/svg">
<path d="M15.6553 5.18481V5.18579C20.9442 5.27185 25.2108 9.60049 25.2109 14.9329V17.6575L25.5732 17.9573C26.648 18.848 27.3311 20.1935 27.3311 21.6995C27.3308 24.3798 25.1652 26.5478 22.5 26.5481H10.6084C10.3348 26.5481 10.067 26.5253 9.80664 26.4817L9.54883 26.4309L9.4541 26.4084C7.3448 25.8896 5.77755 23.9785 5.77734 21.6995V14.9329L5.79004 14.4309C6.05056 9.27859 10.2972 5.18582 15.4922 5.18481H15.6553Z" stroke="#404040" stroke-width="2"/>
<path fill-rule="evenodd" clip-rule="evenodd" d="M19.4558 10.6765C17.7233 10.6765 16.3188 12.0773 16.3188 13.8055C16.3188 15.5335 17.7233 16.9343 19.4558 16.9343C21.1882 16.9343 22.593 15.5335 22.593 13.8055C22.593 12.0773 21.1882 10.6765 19.4558 10.6765ZM17.6557 9.00525C20.419 9.00525 22.6999 11.0696 23.0292 13.7366C23.0582 13.9586 23.0728 14.1836 23.0728 14.4113C23.0728 17.3953 20.6474 19.8143 17.6557 19.8143C14.661 19.8143 12.2357 17.3953 12.2357 14.4113C12.2357 13.4799 12.4728 12.6035 12.8861 11.8396C13.8023 10.1499 15.5947 9.00525 17.6557 9.00525Z" fill="#404040"/>
<path d="M11.757 19.4393C12.0779 19.3402 12.4208 19.5171 12.5217 19.8378C12.607 20.1081 12.4916 20.3909 12.2619 20.5341C12.488 21.0911 12.9879 21.6021 13.5851 21.869C13.9746 22.0428 14.5817 22.1906 15.2814 21.9159C15.5942 21.7933 15.9484 21.9453 16.0724 22.2577H16.0734C16.1977 22.5708 16.0419 22.9246 15.7287 23.0477C15.3237 23.2065 14.9074 23.286 14.4904 23.286C14.0161 23.286 13.5424 23.1827 13.0851 22.9784C12.3894 22.6678 11.7815 22.1252 11.3879 21.4921C11.2784 21.5869 11.1377 21.6434 10.9885 21.6434C10.9373 21.6434 10.8848 21.6363 10.8332 21.6229C10.5075 21.538 10.3112 21.2064 10.3967 20.8807C10.4962 20.5016 10.648 20.1969 10.8732 19.9579C11.0986 19.7189 11.3901 19.5533 11.756 19.4393H11.757Z" fill="#404040" stroke="#404040" stroke-width="0.254142"/>
<path d="M16.4405 3.80463C17.8465 3.63343 19.0338 3.95615 19.9239 4.68451L20.0977 4.8349C20.5678 5.26769 20.8614 5.73439 21.0049 6.12299C21.2762 6.85642 20.7521 7.47965 20.1709 7.6347L20.1719 7.63568C19.6411 7.7779 18.9851 7.57654 18.7022 7.00775L18.6924 6.98822L18.6836 6.96869L18.6563 6.90326L18.6504 6.89154L18.6123 6.82416L18.5 6.66498C18.4573 6.61237 18.4086 6.5605 18.3545 6.51068V6.5097C18.0408 6.22165 17.5726 6.02912 16.7617 6.12787C16.0658 6.21264 15.6657 6.46006 15.4151 6.7597C15.313 6.8817 15.2395 7.00866 15.1905 7.12982L15.1709 7.1806L15.1563 7.22162C15.1557 7.22404 15.1556 7.22636 15.1553 7.22748L15.1524 7.2431L15.1504 7.24213C15.0055 7.93916 14.3133 8.24605 13.7578 8.17279C13.1834 8.09691 12.5665 7.57689 12.7051 6.81537H12.7041C12.7838 6.37725 13.0177 5.83547 13.4571 5.30951H13.458C14.1445 4.4883 15.154 3.9612 16.4405 3.80463Z" fill="white" stroke="#404040" stroke-width="1.5"/>
</svg>
