<svg width="32" height="32" viewBox="0 0 32 32" fill="none" xmlns="http://www.w3.org/2000/svg">
<path d="M22 5C24.7614 5 27 7.23858 27 10V16C27 16.5523 26.5523 17 26 17C25.4477 17 25 16.5523 25 16V10C25 8.34315 23.6569 7 22 7H17.4336V10.4834C17.4336 11.9192 15.9652 12.8869 14.6455 12.3213L13.4336 11.8027L12.2217 12.3213C10.902 12.8867 9.43359 11.9191 9.43359 10.4834V7.05371C8.04758 7.31857 7 8.5368 7 10V22C7 23.6569 8.34315 25 10 25H16C16.5523 25 17 25.4477 17 26C17 26.5523 16.5523 27 16 27H10C7.23858 27 5 24.7614 5 22V10C5 7.23858 7.23858 5 10 5H22ZM25.5439 22.3418C26.8834 22.3424 27.5506 23.9657 26.5986 24.9082L24.7773 26.7109L24.7012 26.7793C24.3068 27.0975 23.7275 27.0709 23.3633 26.7031C22.9992 26.3351 22.9795 25.7563 23.3018 25.3652L23.3711 25.2891L24.3291 24.3418H17.7598C17.2075 24.3418 16.7598 23.8941 16.7598 23.3418C16.76 22.7897 17.2076 22.3418 17.7598 22.3418H25.5439ZM18.79 16.7979C19.1845 16.4798 19.7638 16.5061 20.1279 16.874C20.4919 17.2419 20.5115 17.8209 20.1895 18.2119L20.1201 18.2881L19.1621 19.2354H25.7314C26.2836 19.2355 26.7314 19.6832 26.7314 20.2354C26.7312 20.7874 26.2835 21.2352 25.7314 21.2354H17.9473C16.6073 21.2351 15.9401 19.6115 16.8926 18.6689L18.7139 16.8662L18.79 16.7979ZM11.4336 10.4834L12.6455 9.96387C13.1485 9.74829 13.7186 9.74835 14.2217 9.96387L15.4336 10.4834V7H11.4336V10.4834Z" fill="#404040"/>
</svg>
