<svg width="32" height="32" viewBox="0 0 32 32" fill="none" xmlns="http://www.w3.org/2000/svg">
<path d="M16.8438 27.709C16.3086 27.9582 15.6914 27.9582 15.1563 27.709L11.5 26.0069L8.84375 27.2442L8.71875 27.2979C7.42392 27.8005 6 26.8465 6 25.4307L6 6.5684C6.00024 5.10583 7.51844 4.13904 8.84375 4.7559L11.5 5.99222L15.1563 4.29008C15.6912 4.04114 16.3088 4.04114 16.8438 4.29008L20.5 5.99223L23.1563 4.7559C24.4816 4.13904 25.9998 5.10583 26 6.5684L26 25.4307L25.9961 25.5664C25.9087 26.9067 24.5343 27.7843 23.2813 27.2979L23.1563 27.2442L20.5 26.0069L16.8438 27.709ZM19.6563 24.1944C20.191 23.9457 20.809 23.9457 21.3438 24.1944L24 25.4317L24 6.5684L21.3438 7.80473C20.8088 8.05366 20.1912 8.05366 19.6563 7.80473L16 6.10258L12.3438 7.80472C11.8088 8.05366 11.1912 8.05366 10.6563 7.80472L8 6.5684L8 25.4317L10.6563 24.1944C11.191 23.9457 11.809 23.9457 12.3438 24.1944L16 25.8965L19.6563 24.1944ZM12 14.5C11.4478 14.5 11.0001 14.0522 11 13.5C11 12.9478 11.4477 12.5 12 12.5L20 12.5C20.5523 12.5 21 12.9478 21 13.5C20.9999 14.0522 20.5522 14.5 20 14.5L12 14.5ZM12 19.5C11.4478 19.5 11.0001 19.0522 11 18.5C11 17.9478 11.4477 17.5 12 17.5L20 17.5C20.5523 17.5 21 17.9478 21 18.5C20.9999 19.0522 20.5522 19.5 20 19.5L12 19.5Z" fill="#404040"/>
</svg>
