<svg width="32" height="32" viewBox="0 0 32 32" fill="none" xmlns="http://www.w3.org/2000/svg">
<path d="M17.9984 8.77856C21.4678 8.29935 24.9605 11.1638 25.4769 14.9006L25.514 15.2229C26.1722 21.9919 18.2096 28.631 16.0589 28.929L15.8314 28.9436C13.2727 28.9543 4.10987 24.6442 3.18976 17.9875C2.67658 14.2729 5.2584 10.5471 8.72784 10.0676L9.05109 10.0295C9.80809 9.96098 10.5722 10.025 11.3089 10.219C12.1505 10.4406 12.9399 10.8275 13.6302 11.3577C14.15 10.659 14.8042 10.071 15.554 9.62817C16.304 9.18526 17.1354 8.89642 17.9984 8.77856ZM23.4954 15.1741C23.11 12.3862 20.5073 10.4511 18.2718 10.76H18.2689C17.6694 10.8418 17.0915 11.0432 16.5706 11.3508C16.05 11.6584 15.5956 12.0668 15.2347 12.552L14.0228 14.1829L12.4124 12.9446C11.9329 12.5763 11.3838 12.3075 10.7991 12.1536C10.2146 11.9997 9.60473 11.9637 9.00616 12.0481L9.00128 12.0491C6.76991 12.3577 4.78792 14.9436 5.17023 17.7131C5.52874 20.3074 7.62595 22.6927 10.2825 24.4924C11.5689 25.3638 12.8852 26.0264 13.9778 26.4465C14.5241 26.6566 14.9878 26.7958 15.3431 26.8733C15.5921 26.9276 15.7322 26.9392 15.7835 26.9426C15.8317 26.9255 15.9633 26.8762 16.1888 26.7561C16.5098 26.5851 16.9189 26.3254 17.388 25.9749C18.3256 25.2742 19.4118 24.2798 20.4134 23.092C22.4819 20.6389 23.8544 17.7726 23.4954 15.1741ZM14.8968 6.23071C15.543 3.82022 18.0906 2.20186 20.3421 2.80493L20.5501 2.86646C21.032 3.0202 21.4855 3.25625 21.887 3.56567C22.292 3.87785 22.638 4.25998 22.9105 4.69165C22.97 4.786 23.093 4.81879 23.1917 4.76685C23.5796 4.56207 23.9969 4.41649 24.428 4.33618L24.6429 4.302C25.2171 4.22449 25.8012 4.26247 26.3607 4.41333C28.6122 5.01668 30.0131 7.67662 29.3636 10.1018L29.304 10.3088C28.9075 11.5807 28.0543 12.6522 27.014 13.5217C26.8987 13.6178 26.7239 13.5519 26.6907 13.4055C26.5648 12.847 26.3818 12.309 26.1507 11.7981C26.1152 11.7196 26.1326 11.6265 26.1937 11.5657C26.8083 10.9541 27.2439 10.2855 27.4319 9.58423C27.8335 8.08441 26.8915 6.62594 25.8431 6.34497L25.8401 6.34399C25.5375 6.26241 25.2211 6.24155 24.9105 6.28345C24.5998 6.32546 24.2998 6.43009 24.0296 6.58911L22.4544 7.51685C22.3583 7.57344 22.2342 7.54051 22.179 7.4436L21.2757 5.85278C21.1209 5.58061 20.9133 5.34179 20.6653 5.15063C20.4171 4.95933 20.1324 4.81882 19.8294 4.73853L19.8245 4.73755C18.7799 4.4577 17.2288 5.25903 16.8294 6.74829C16.7796 6.93407 16.7469 7.12715 16.7288 7.32544C16.7217 7.40323 16.6722 7.47162 16.5999 7.50122C16.2577 7.64064 15.9247 7.80507 15.6058 7.99634C15.4153 8.11056 15.2299 8.2336 15.0511 8.3645C14.9252 8.45651 14.7446 8.3832 14.7318 8.22778C14.6824 7.62908 14.7126 7.02844 14.845 6.4397L14.8968 6.23071Z" fill="#404040"/>
</svg>
