<svg width="32" height="32" viewBox="0 0 32 32" fill="none" xmlns="http://www.w3.org/2000/svg">
<path d="M5.88086 8.83124C6.73861 5.6306 10.0288 3.73144 13.2295 4.58905L22.8887 7.17694C23.8013 7.42148 24.6062 7.86582 25.2734 8.44745C27.4596 9.34348 29 11.4913 29 14.0002V21.0002C28.9999 24.3138 26.3136 27.0002 23 27.0002H9C5.68635 27.0002 3.0001 24.3138 3 21.0002V14.0002C3 11.8346 4.14733 9.93703 5.86719 8.88202L5.88086 8.83124ZM9 10.0002C6.79086 10.0002 5 11.791 5 14.0002V21.0002C5.0001 23.2092 6.79092 25.0002 9 25.0002H23C25.2091 25.0002 26.9999 23.2092 27 21.0002V14.0002C27 11.791 25.2091 10.0002 23 10.0002H9ZM16 12.5734C16.5523 12.5734 17 13.0211 17 13.5734C17 14.1257 16.5523 14.5734 16 14.5734H10C9.44772 14.5734 9 14.1257 9 13.5734C9 13.0211 9.44772 12.5734 10 12.5734H16ZM12.7119 6.52069C11.0688 6.08043 9.39055 6.7302 8.44434 8.02655C8.62734 8.00974 8.81261 8.00018 9 8.00018H18.2344L12.7119 6.52069Z" fill="#404040"/>
</svg>
