<svg width="32" height="32" viewBox="0 0 32 32" fill="none" xmlns="http://www.w3.org/2000/svg">
<path d="M19.8428 4C21.1689 4 22.4412 4.52716 23.3789 5.46484L25.5352 7.62109C26.4728 8.55878 27 9.83114 27 11.1572V22C27 24.7614 24.7614 27 22 27H10C7.32472 27 5.14053 24.8989 5.00684 22.2568L5 22V9C5 6.23858 7.23858 4 10 4H19.8428ZM10 6C8.34315 6 7 7.34315 7 9V22L7.00391 22.1543C7.08421 23.7394 8.39489 25 10 25H22C23.6569 25 25 23.6569 25 22V12H23C20.7909 12 19 10.2091 19 8V6H10ZM20 20C20.5523 20 21 20.4477 21 21C21 21.5523 20.5523 22 20 22H12C11.4477 22 11 21.5523 11 21C11 20.4477 11.4477 20 12 20H20ZM20 15C20.5523 15 21 15.4477 21 16C21 16.5523 20.5523 17 20 17H12C11.4477 17 11 16.5523 11 16C11 15.4477 11.4477 15 12 15H20ZM14 10C14.5523 10 15 10.4477 15 11C15 11.5523 14.5523 12 14 12H12C11.4477 12 11 11.5523 11 11C11 10.4477 11.4477 10 12 10H14ZM21 8C21 9.10457 21.8954 10 23 10H24.7676C24.6183 9.64271 24.4001 9.31415 24.1211 9.03516L21.9648 6.87891C21.6859 6.59992 21.3573 6.38174 21 6.23242V8Z" fill="#404040"/>
</svg>
