<svg width="32" height="32" viewBox="0 0 32 32" fill="none" xmlns="http://www.w3.org/2000/svg">
<path fill-rule="evenodd" clip-rule="evenodd" d="M15.4123 5C9.5683 5 4.82892 9.73938 4.82892 15.5833L4.83522 15.9557C4.88555 17.4432 5.23707 18.9017 5.87054 20.2226C5.96057 20.4029 5.98173 20.6098 5.93004 20.8045L4.8624 24.8267L4.83931 24.9375C4.73336 25.6344 5.38057 26.237 6.08552 26.0499L10.2457 24.9451C10.3444 24.9189 10.4493 24.9313 10.5391 24.9797C15.4669 27.5595 21.6253 25.8267 24.5211 20.9705C27.5062 15.9649 25.826 9.47193 20.7994 6.47445C19.1362 5.50416 17.2954 5 15.4123 5Z" stroke="#404040" stroke-width="2" stroke-linecap="round"/>
<path d="M20 15C20 17.4853 17.9853 19.5 15.5 19.5C13.0147 19.5 11 17.4853 11 15" stroke="#404040" stroke-width="2" stroke-linecap="round"/>
<path d="M15.4118 4C17.347 4 19.2385 4.48619 20.9606 5.41797L21.3034 5.61035L21.3112 5.61523C26.8052 8.89149 28.6515 15.9956 25.3795 21.4824C22.2545 26.7228 15.6505 28.6411 10.2848 25.9688L6.34243 27.0166C4.92984 27.3916 3.63786 26.1843 3.85024 24.7871L3.85512 24.7598L3.86001 24.7334L3.88344 24.623L3.8893 24.5967L3.89614 24.5703L4.94692 20.6084C4.26602 19.1717 3.88988 17.5937 3.83559 15.9893V15.9727L3.82876 15.6006V15.583C3.82893 9.18709 9.01587 4.00027 15.4118 4ZM15.4118 6C10.1204 6.00027 5.82893 10.2917 5.82876 15.583L5.83461 15.9219L5.86489 16.4277C5.96412 17.5981 6.26894 18.7357 6.76528 19.7754L6.83266 19.9277C6.97323 20.2878 6.99603 20.6852 6.89614 21.0615L5.83852 25.0469L5.82973 25.082L9.98891 23.9785C10.3291 23.8882 10.6905 23.9298 11.0016 24.0938C15.4554 26.4253 21.0355 24.8619 23.6618 20.458C26.3598 15.9335 24.8458 10.0517 20.2868 7.33301C18.7751 6.45327 17.1101 6 15.4118 6ZM19.9997 14C20.5519 14 20.9997 14.4477 20.9997 15C20.9997 18.0376 18.5372 20.5 15.4997 20.5C12.4623 20.4998 9.99965 18.0374 9.99965 15C9.99965 14.4478 10.4475 14.0002 10.9997 14C11.5519 14 11.9997 14.4477 11.9997 15C11.9997 16.9329 13.5668 18.4998 15.4997 18.5C17.4327 18.5 18.9997 16.933 18.9997 15C18.9997 14.4478 19.4475 14.0002 19.9997 14Z" fill="#404040"/>
</svg>
