<svg width="32" height="32" viewBox="0 0 32 32" fill="none" xmlns="http://www.w3.org/2000/svg">
<path d="M22.3662 14.333C24.5574 14.3332 26.3339 16.1095 26.334 18.3008C26.334 18.8672 26.2143 19.4065 26 19.8945C27.5452 20.9817 28.5566 22.78 28.5566 24.8154C28.5565 26.0832 27.5285 27.1113 26.2607 27.1113H18.6348C17.367 27.1113 16.339 26.0832 16.3389 24.8154C16.3389 22.8349 17.2964 21.0791 18.7715 19.9844C18.5318 19.4733 18.3984 18.902 18.3984 18.3008C18.3985 16.1094 20.1749 14.333 22.3662 14.333ZM14.2129 4.33789C17.6917 4.33807 20.5117 7.15881 20.5117 10.6377C20.5117 12.4057 19.7825 14.0056 18.6104 15.1484C18.2149 15.534 17.5818 15.5253 17.1963 15.1299C16.8107 14.7345 16.8184 14.1014 17.2139 13.7158C18.0157 12.9339 18.5117 11.8446 18.5117 10.6377C18.5117 8.26338 16.5872 6.33905 14.2129 6.33887C11.8385 6.33887 9.91309 8.26327 9.91309 10.6377C9.9131 12.1366 10.6799 13.4566 11.8467 14.2275C12.1645 14.4376 12.3352 14.8105 12.2871 15.1885C12.239 15.5665 11.9796 15.8841 11.6191 16.0078C8.48048 17.0848 6.2266 20.0624 6.22656 23.5635V24.2812C6.22678 24.7393 6.59852 25.1103 7.05664 25.1104H14.5244C15.0764 25.1105 15.5242 25.5584 15.5244 26.1104C15.5244 26.6625 15.0765 27.1102 14.5244 27.1104H7.05664C5.49396 27.1103 4.22678 25.8439 4.22656 24.2812V23.5635C4.2266 19.7662 6.34657 16.466 9.46484 14.7773C8.49959 13.6709 7.91309 12.2228 7.91309 10.6377C7.91309 7.1587 10.7339 4.33789 14.2129 4.33789ZM22.3662 16.333C21.2794 16.333 20.3985 17.214 20.3984 18.3008C20.3984 18.8119 20.5916 19.2755 20.9111 19.626C21.1238 19.8592 21.214 20.1793 21.1543 20.4893C21.0945 20.7992 20.8916 21.0628 20.6074 21.2002C19.2627 21.8502 18.3389 23.226 18.3389 24.8154C18.339 24.9786 18.4715 25.1113 18.6348 25.1113H26.2607C26.424 25.1113 26.5565 24.9786 26.5566 24.8154C26.5566 23.1898 25.5897 21.7877 24.1953 21.1572C23.9076 21.0271 23.6985 20.7684 23.6309 20.46C23.5633 20.1514 23.6454 19.8284 23.8525 19.5898C24.1528 19.244 24.334 18.7948 24.334 18.3008C24.3339 17.2141 23.4528 16.3332 22.3662 16.333Z" fill="#404040"/>
</svg>
