<svg width="32" height="32" viewBox="0 0 32 32" fill="none" xmlns="http://www.w3.org/2000/svg">
<path d="M18.8291 5.00488C19.3336 5.05589 19.7275 5.48208 19.7275 6C19.7275 6.51792 19.3336 6.94411 18.8291 6.99512L18.7275 7H11C8.79086 7 7 8.79086 7 11V21C7 23.2091 8.79086 25 11 25H21C23.2091 25 25 23.2091 25 21V13C25 12.4477 25.4477 12 26 12C26.5523 12 27 12.4477 27 13V21C27 24.3137 24.3137 27 21 27H11C7.68629 27 5 24.3137 5 21V11C5 7.68629 7.68629 5 11 5H18.7275L18.8291 5.00488ZM21 19C21.5523 19 22 19.4477 22 20C21.9999 20.5522 21.5522 21 21 21H11L10.8975 20.9951C10.3933 20.9438 10 20.5177 10 20C10.0001 19.4824 10.3934 19.0562 10.8975 19.0049L11 19H21ZM15 13C15.5523 13 16 13.4477 16 14C15.9999 14.5522 15.5522 15 15 15H11C10.4478 15 10.0001 14.5522 10 14C10 13.4477 10.4477 13 11 13H15ZM24.293 6.29297C24.6835 5.90244 25.3165 5.90244 25.707 6.29297C26.0975 6.6835 26.0975 7.31652 25.707 7.70703L20.707 12.707L20.6318 12.7754C20.2391 13.0961 19.6592 13.0732 19.293 12.707C18.9267 12.3408 18.9039 11.7609 19.2246 11.3682L19.293 11.293L24.293 6.29297Z" fill="#404040"/>
</svg>
