<svg width="76" height="78" viewBox="0 0 76 78" fill="none" xmlns="http://www.w3.org/2000/svg">
<g filter="url(#filter0_d_995_3241)">
<path fill-rule="evenodd" clip-rule="evenodd" d="M30.5149 42.9042C27.4498 37.5733 28.2912 32.4949 32.8006 29.8806L33.0265 29.7535C37.4725 27.3261 42.1697 29.1632 45.1849 34.4072C48.25 39.7381 47.4086 44.8165 42.8991 47.4308C38.387 50.0466 33.5812 48.2371 30.5149 42.9042ZM39.9654 44.1129C39.2951 43.8755 38.9432 43.141 39.1773 42.4702L39.182 42.4557C39.1873 42.4394 39.1962 42.4106 39.2075 42.3712C39.23 42.2919 39.2608 42.1726 39.2889 42.0271C39.3471 41.725 39.3829 41.3643 39.3432 41.0312C39.3041 40.7028 39.2029 40.4825 39.0607 40.337C38.9302 40.2035 38.6328 39.9966 37.9218 39.9456C36.7255 39.8598 35.7747 39.4525 35.0931 38.7649C34.4272 38.0932 34.1369 37.2733 34.02 36.5682C33.9035 35.8657 33.9458 35.2035 34.0077 34.7385C34.0394 34.501 34.0779 34.3023 34.1095 34.1592C34.2042 33.731 34.8372 32.7505 35.771 33.0191C36.4546 33.2158 36.8501 33.9279 36.6566 34.6116L36.6525 34.6274C36.648 34.6448 36.6405 34.6752 36.6313 34.7167C36.6128 34.8003 36.5882 34.9261 36.5678 35.0796C36.5255 35.3966 36.5077 35.7829 36.5679 36.1457C36.6277 36.506 36.7507 36.7685 36.9274 36.9467C37.0884 37.1092 37.4093 37.3195 38.1066 37.3695C39.2891 37.4543 40.2363 37.845 40.9075 38.5316C41.567 39.2062 41.8247 40.0285 41.9078 40.7257C41.9903 41.4182 41.9116 42.066 41.8248 42.5161C41.7804 42.7467 41.731 42.9395 41.6915 43.0781C41.6717 43.1477 41.6542 43.2044 41.6407 43.2464C41.634 43.2673 41.6282 43.2847 41.6237 43.2981C41.6235 43.2986 41.5987 43.3672 41.5986 43.3675C41.3456 44.0131 40.624 44.3461 39.9654 44.1129Z" fill="#404040"/>
</g>
<rect x="25.85" y="27.1969" width="24" height="24" fill="black" fill-opacity="0.01"/>
<defs>
<filter id="filter0_d_995_3241" x="-1.90735e-06" y="5.72205e-06" width="75.6998" height="77.3114" filterUnits="userSpaceOnUse" color-interpolation-filters="sRGB">
<feFlood flood-opacity="0" result="BackgroundImageFix"/>
<feColorMatrix in="SourceAlpha" type="matrix" values="0 0 0 0 0 0 0 0 0 0 0 0 0 0 0 0 0 0 127 0" result="hardAlpha"/>
<feOffset/>
<feGaussianBlur stdDeviation="14.3483"/>
<feComposite in2="hardAlpha" operator="out"/>
<feColorMatrix type="matrix" values="0 0 0 0 0 0 0 0 0 0 0 0 0 0 0 0 0 0 0.03 0"/>
<feBlend mode="normal" in2="BackgroundImageFix" result="effect1_dropShadow_995_3241"/>
<feBlend mode="normal" in="SourceGraphic" in2="effect1_dropShadow_995_3241" result="shape"/>
</filter>
</defs>
</svg>
