<svg width="32" height="32" viewBox="0 0 32 32" fill="none" xmlns="http://www.w3.org/2000/svg">
<path d="M11.6357 6.75916C13.544 3.3456 18.4559 3.3456 20.3642 6.75916L27.5468 19.6088C29.4094 22.9416 26.9996 27.0482 23.1816 27.0482H8.81833C5.00035 27.0482 2.59061 22.9416 4.45309 19.6088L11.6357 6.75916ZM18.6191 7.73572C17.4742 5.68727 14.5258 5.68727 13.3808 7.73572L6.19919 20.5844C5.08182 22.584 6.52759 25.0482 8.81833 25.0482H23.1816C25.4724 25.0482 26.9181 22.584 25.8008 20.5844L18.6191 7.73572ZM16.0068 19.5326C16.8298 19.536 17.4961 20.1354 17.5 20.8754C17.5038 21.6203 16.8352 22.2274 16.0068 22.2308H15.9931C15.1647 22.2274 14.4962 21.6203 14.5 20.8754C14.5039 20.1306 15.1785 19.5292 16.0068 19.5326ZM15.9931 11.2308C16.7495 11.2308 17.363 11.7822 17.3633 12.4623C17.3633 12.6388 17.3637 12.7828 17.3642 12.9047V13.4115C17.3593 13.7841 17.336 14.1568 17.2509 15.5531C17.2169 16.1112 17.173 16.8329 17.1162 17.7836C17.1162 18.3516 16.6043 18.8119 15.9726 18.8119C15.3409 18.8119 14.8291 18.3516 14.8291 17.7836C14.7704 16.8092 14.7249 16.0785 14.6904 15.5189C14.6093 14.2019 14.5873 13.8325 14.582 13.4633C14.58 13.3196 14.5802 13.1755 14.581 12.976C14.5816 12.8379 14.582 12.6722 14.582 12.4623C14.582 11.7823 15.1949 11.2313 15.9511 11.2308C15.965 11.2308 15.9792 11.2305 15.9931 11.2308Z" fill="#404040"/>
</svg>
