<svg width="32" height="32" viewBox="0 0 32 32" fill="none" xmlns="http://www.w3.org/2000/svg">
<path d="M16.5003 3.22351C19.2616 3.22369 21.5003 5.4622 21.5003 8.22351V8.30261C25.4101 8.46898 28.4507 11.8307 28.18 15.7743L27.8412 20.7098C27.589 24.381 24.5376 27.2303 20.8578 27.2303H11.1419C7.46214 27.2303 4.41065 24.381 4.15854 20.7098L3.81967 15.7743C3.54902 11.8305 6.59028 8.46863 10.5003 8.30261V8.22351C10.5003 5.46209 12.7389 3.22351 15.5003 3.22351H16.5003ZM12.5003 12.2235C12.5003 12.7757 12.0525 13.2233 11.5003 13.2235C10.948 13.2235 10.5003 12.7758 10.5003 12.2235V10.3036C7.74924 10.4675 5.62347 12.8497 5.81479 15.6376L6.15365 20.5731C6.33379 23.1953 8.51356 25.2303 11.1419 25.2303H20.8578C23.4862 25.2303 25.6659 23.1953 25.846 20.5731L26.1849 15.6376C26.3762 12.8499 24.2511 10.4679 21.5003 10.3036V12.2235C21.5003 12.7757 21.0525 13.2233 20.5003 13.2235C19.948 13.2235 19.5003 12.7758 19.5003 12.2235V10.2948H12.5003V12.2235ZM19.5003 21.2303C20.0524 21.2305 20.5003 21.6782 20.5003 22.2303C20.5003 22.7825 20.0525 23.2302 19.5003 23.2303H13.5003C12.948 23.2303 12.5003 22.7826 12.5003 22.2303C12.5004 21.6781 12.9481 21.2303 13.5003 21.2303H19.5003ZM15.5003 5.22351C13.8435 5.22351 12.5003 6.56666 12.5003 8.22351V8.2948H19.5003V8.22351C19.5003 6.56677 18.157 5.22369 16.5003 5.22351H15.5003Z" fill="#404040"/>
</svg>
