<svg width="32" height="32" viewBox="0 0 32 32" fill="none" xmlns="http://www.w3.org/2000/svg">
<path d="M12 4.00293C14.6531 4.00296 16.9964 5.24034 18.627 7.18457C19.4627 6.83535 20.3724 6.64071 21.333 6.64062C25.6759 6.64082 28.9989 10.5677 28.999 15.1533C28.999 19.3299 26.2428 22.9594 22.4697 23.5742C22.4134 24.3393 22.0191 24.8458 21.8301 25.126C21.6351 25.415 21.5245 25.6089 21.5244 25.9922C21.5244 26.4194 21.6712 26.722 21.8135 26.9209C21.8862 27.0224 21.9585 27.097 22.0068 27.1416C22.0258 27.1591 22.0409 27.1716 22.0498 27.1787C22.5001 27.4923 22.6134 28.112 22.3027 28.5654C21.9905 29.0209 21.3676 29.1364 20.9121 28.8242L20.9092 28.8223C20.9081 28.8215 20.9064 28.8202 20.9053 28.8193C20.9028 28.8176 20.8994 28.8155 20.8965 28.8135C20.8906 28.8093 20.8835 28.8043 20.876 28.7988C20.8603 28.7873 20.8405 28.7723 20.8184 28.7549C20.7737 28.7197 20.7157 28.6716 20.6504 28.6113C20.5201 28.4911 20.3536 28.3165 20.1885 28.0859C19.8545 27.6197 19.5244 26.9184 19.5244 25.9922C19.5245 25.0216 19.8904 24.4252 20.1719 24.0078C20.3075 23.8067 20.3833 23.6909 20.4258 23.6064C19.1034 23.4354 17.8994 22.8973 16.8857 22.0918C15.6573 22.9623 14.2184 23.5155 12.6533 23.6367C12.5807 24.367 12.2033 24.8535 12.0195 25.126C11.8246 25.415 11.7139 25.6089 11.7139 25.9922C11.7139 26.4194 11.8607 26.722 12.0029 26.9209C12.0756 27.0224 12.148 27.097 12.1963 27.1416C12.2192 27.1627 12.2364 27.1765 12.2441 27.1826L12.2461 27.1846C12.6904 27.4998 12.8013 28.1144 12.4922 28.5654C12.1799 29.0209 11.5571 29.1364 11.1016 28.8242L11.0986 28.8223C11.0976 28.8215 11.0959 28.8201 11.0947 28.8193C11.0922 28.8176 11.0888 28.8155 11.0859 28.8135C11.0801 28.8093 11.0729 28.8043 11.0654 28.7988C11.0497 28.7873 11.0299 28.7723 11.0078 28.7549C10.9631 28.7197 10.9051 28.6715 10.8398 28.6113C10.7096 28.4911 10.543 28.3164 10.3779 28.0859C10.044 27.6197 9.71388 26.9184 9.71387 25.9922C9.71394 25.0216 10.0799 24.4252 10.3613 24.0078C10.5273 23.7617 10.6008 23.6424 10.6357 23.5527C6.24868 22.8303 3.00022 18.6788 3 13.835C3.00002 8.50075 6.93884 4.00298 12 4.00293ZM21.333 8.64062C20.7984 8.64069 20.2759 8.72957 19.7773 8.89453C20.5555 10.3559 21 12.048 21 13.835C20.9999 16.492 20.0216 18.9403 18.415 20.7295C19.2791 21.3271 20.283 21.6669 21.333 21.667C24.3535 21.6668 26.999 18.8659 26.999 15.1533C26.9989 11.4409 24.3534 8.64083 21.333 8.64062ZM12 6.00391C8.22483 6.00395 5.00002 9.41471 5 13.835C5.00024 18.255 8.22496 21.666 12 21.666C15.775 21.6659 18.9998 18.255 19 13.835C19 9.41472 15.7752 6.00397 12 6.00391ZM17.0918 13.6787C17.6374 13.7627 18.0113 14.2727 17.9277 14.8184C17.7653 15.8756 17.2742 17.0573 16.5605 18.0439C15.8527 19.0225 14.8373 19.9287 13.5645 20.2314C13.0273 20.359 12.4882 20.0273 12.3604 19.4902C12.2326 18.9531 12.5645 18.4141 13.1016 18.2861C13.7389 18.1346 14.3908 17.6318 14.9404 16.8721C15.4839 16.1206 15.8408 15.2332 15.9512 14.5156C16.035 13.9698 16.546 13.595 17.0918 13.6787Z" fill="#404040"/>
</svg>
