<svg width="32" height="32" viewBox="0 0 32 32" fill="none" xmlns="http://www.w3.org/2000/svg">
<path d="M21 5C24.866 5 28 8.13401 28 12V20C28 23.866 24.866 27 21 27H11C7.13401 27 4 23.866 4 20V12C4 8.13401 7.13401 5 11 5H21ZM11 7C8.23858 7 6 9.23858 6 12V20C6 22.7614 8.23858 25 11 25H21C23.7614 25 26 22.7614 26 20V12C26 9.23858 23.7614 7 21 7H11ZM8.64844 10.7061C8.93796 10.2359 9.55415 10.0895 10.0244 10.3789L14.4277 13.0889C15.3919 13.6822 16.6081 13.6822 17.5723 13.0889L21.9756 10.3789C22.4458 10.0895 23.062 10.2359 23.3516 10.7061C23.641 11.1763 23.4945 11.7925 23.0244 12.082L18.6201 14.792C17.0132 15.7807 14.9868 15.7807 13.3799 14.792L8.97559 12.082C8.50545 11.7925 8.35904 11.1763 8.64844 10.7061Z" fill="#404040"/>
</svg>
