<svg width="32" height="32" viewBox="0 0 32 32" fill="none" xmlns="http://www.w3.org/2000/svg">
<path d="M12.6663 24.1663C12.6661 23.4301 12.0696 22.8333 11.3333 22.8333C10.5971 22.8333 10.0006 23.4301 10.0003 24.1663C10.0003 24.9026 10.597 25.5002 11.3333 25.5002C12.0697 25.5002 12.6663 24.9026 12.6663 24.1663ZM23.1663 24.1663C23.1661 23.4301 22.5696 22.8333 21.8333 22.8333C21.0971 22.8333 20.5006 23.4301 20.5003 24.1663C20.5003 24.9026 21.097 25.5002 21.8333 25.5002C22.5697 25.5002 23.1663 24.9026 23.1663 24.1663ZM20.6693 13.8508C21.0186 13.4232 21.6488 13.3601 22.0765 13.7092L23.7913 15.1096C24.2189 15.459 24.2822 16.0892 23.9329 16.5168C23.5835 16.9446 22.9534 17.0078 22.5257 16.6584L20.8118 15.2581C20.3841 14.9087 20.3199 14.2785 20.6693 13.8508ZM13.6663 13.4446C14.2186 13.4446 14.6663 13.8923 14.6663 14.4446C14.6662 14.9967 14.2185 15.4446 13.6663 15.4446H7.83333C7.28115 15.4446 6.8335 14.9967 6.83333 14.4446C6.83333 13.8923 7.28105 13.4446 7.83333 13.4446H13.6663ZM10.1663 9.55493C10.7185 9.55493 11.1662 10.0028 11.1663 10.5549C11.1663 11.1072 10.7186 11.5549 10.1663 11.5549H4.33333C3.78105 11.5549 3.33333 11.1072 3.33333 10.5549C3.33348 10.0028 3.78114 9.55493 4.33333 9.55493H10.1663ZM25.5003 14.1233C25.5003 14.0744 25.478 14.028 25.4408 13.9963L20.7826 10.0393C20.7525 10.014 20.7145 10.0002 20.6751 10.0002H19.5003C19.4084 10.0002 19.3336 10.0744 19.3333 10.1663V17.1663C19.3333 18.3629 18.363 19.3333 17.1663 19.3333H6.66634C6.57444 19.3334 6.50033 19.4083 6.50033 19.5002V20.6663C6.50033 20.7582 6.57444 20.8331 6.66634 20.8333H25.3333C25.4254 20.8333 25.5003 20.7583 25.5003 20.6663V14.1233ZM27.5003 20.6663C27.5003 21.8629 26.53 22.8333 25.3333 22.8333H24.888C25.0665 23.2416 25.1663 23.6921 25.1663 24.1663C25.1663 26.0072 23.6743 27.5002 21.8333 27.5002C19.9924 27.5002 18.5003 26.0072 18.5003 24.1663C18.5004 23.6921 18.6001 23.2416 18.7786 22.8333H14.388C14.5665 23.2416 14.6663 23.6921 14.6663 24.1663C14.6663 26.0072 13.1743 27.5002 11.3333 27.5002C9.49238 27.5002 8.00033 26.0072 8.00033 24.1663C8.00038 23.6921 8.10015 23.2416 8.27865 22.8333H6.66634C5.46987 22.8331 4.50033 21.8628 4.50033 20.6663V19.5002C4.50033 18.3037 5.46987 17.3334 6.66634 17.3333H17.1663C17.2584 17.3333 17.3333 17.2583 17.3333 17.1663V7.83325C17.3333 7.74121 17.2584 7.66626 17.1663 7.66626H6.66634C6.11421 7.66608 5.66634 7.21844 5.66634 6.66626C5.66634 6.11408 6.11421 5.66644 6.66634 5.66626H17.1663C18.363 5.66626 19.3333 6.63663 19.3333 7.83325V8.00806C19.3884 8.00387 19.4442 8.00024 19.5003 8.00024H20.6751C21.1888 8.00025 21.6859 8.18244 22.0775 8.51489L26.7357 12.4719C27.2204 12.8836 27.5003 13.4874 27.5003 14.1233V20.6663Z" fill="#404040"/>
</svg>
