<svg width="32" height="32" viewBox="0 0 32 32" fill="none" xmlns="http://www.w3.org/2000/svg">
<path d="M18 7C18 5.89543 17.1046 5 16 5C14.8954 5 14 5.89543 14 7C14 7.63917 14.3007 8.20821 14.7744 8.57715C15.1403 8.86205 15.2625 9.36162 15.0693 9.7832L13.374 13.4834C12.446 15.5077 9.71436 15.8501 8.31445 14.1191L7.48535 13.0938C7.22108 12.7669 7.1896 12.3094 7.40625 11.9492C7.54412 11.7199 7.62207 11.4582 7.62207 11.1797C7.62198 10.4031 7.03167 9.76437 6.27539 9.6875L6.12207 9.67969C5.2938 9.67969 4.62217 10.3513 4.62207 11.1797C4.62207 11.8618 5.07888 12.4387 5.70508 12.6191L5.83301 12.6504L5.98438 12.6924C6.32684 12.8172 6.57926 13.1221 6.63184 13.4912L8.02637 23.2822C8.16691 24.2679 9.01051 25 10.0059 25H21.6016C22.5759 25 23.409 24.2976 23.5732 23.3369L25.2568 13.4814L25.2959 13.3262C25.4155 12.9756 25.7225 12.715 26.0977 12.6602C26.8236 12.554 27.3779 11.9307 27.3779 11.1797C27.3778 10.3513 26.7062 9.67969 25.8779 9.67969C25.0497 9.67976 24.378 10.3514 24.3779 11.1797C24.3779 11.4266 24.4383 11.6586 24.5449 11.8652C24.7339 12.2314 24.6787 12.6762 24.4062 12.9854L23.2012 14.3525C21.7654 15.9803 19.1285 15.5928 18.2236 13.6191L16.5742 10.0215C16.3584 9.55083 16.5378 8.99318 16.9873 8.73633C17.5951 8.38944 18 7.74109 18 7ZM20 7C20 8.15535 19.5072 9.19019 18.7275 9.91797L20.042 12.7852C20.3433 13.4425 21.2222 13.573 21.7012 13.0303L22.5068 12.1152C22.4239 11.8175 22.3779 11.5039 22.3779 11.1797C22.3781 9.24689 23.9451 7.67979 25.8779 7.67969C27.8109 7.67969 29.3778 9.2469 29.3779 11.1797C29.3779 12.6765 28.438 13.9438 27.1201 14.4443L25.5439 23.6729C25.2157 25.5941 23.551 27 21.6016 27H10.0059C8.0144 27 6.3266 25.5347 6.0459 23.5635L4.73926 14.3896C3.4954 13.8536 2.62207 12.6222 2.62207 11.1797C2.62221 9.2469 4.18906 7.67969 6.12207 7.67969C8.05492 7.67979 9.62193 9.24689 9.62207 11.1797C9.62207 11.5793 9.55196 11.9612 9.42871 12.3164L9.86914 12.8613C10.336 13.4388 11.2465 13.3239 11.5557 12.6494L12.957 9.58984C12.363 8.89363 12 7.99071 12 7C12 4.79086 13.7909 3 16 3C18.2091 3 20 4.79086 20 7Z" fill="#404040"/>
</svg>
