<svg width="32" height="32" viewBox="0 0 32 32" fill="none" xmlns="http://www.w3.org/2000/svg">
<path d="M23 5C25.2091 5 27 6.79086 27 9V16.8115C28.2321 17.9944 29 19.6571 29 21.5C29 25.0899 26.0899 28 22.5 28C21.2271 28 20.0407 27.6324 19.0381 27H9C6.85996 27 5.11211 25.3194 5.00488 23.2061L5 23V9C5 6.79086 6.79086 5 9 5H23ZM22.5 17C20.0147 17 18 19.0147 18 21.5C18 23.9853 20.0147 26 22.5 26C24.9853 26 27 23.9853 27 21.5C27 19.0147 24.9853 17 22.5 17ZM9 7C7.89543 7 7 7.89543 7 9V23L7.01074 23.2041C7.113 24.2128 7.96435 25 9 25H17.0244C16.3771 23.9895 16 22.7891 16 21.5C16 17.9101 18.9101 15 22.5 15C23.3859 15 24.2304 15.1771 25 15.498V9C25 7.89543 24.1046 7 23 7H9ZM21.9668 18.5127C22.5191 18.5127 22.9668 18.9604 22.9668 19.5127V21.3086H23.9668L24.0693 21.3135C24.5734 21.3648 24.9667 21.791 24.9668 22.3086C24.9666 22.8607 24.5189 23.3085 23.9668 23.3086H21.9668C21.7017 23.3086 21.4473 23.203 21.2598 23.0156C21.0724 22.8282 20.9669 22.5736 20.9668 22.3086V19.5127C20.9668 18.9604 21.4145 18.5127 21.9668 18.5127ZM14 14C14.5523 14 15 14.4477 15 15C15 15.5523 14.5523 16 14 16H11C10.4477 16 10 15.5523 10 15C10 14.4477 10.4477 14 11 14H14ZM18 10C18.5523 10 19 10.4477 19 11C19 11.5523 18.5523 12 18 12H11C10.4477 12 10 11.5523 10 11C10 10.4477 10.4477 10 11 10H18Z" fill="#404040"/>
</svg>
