<svg width="32" height="32" viewBox="0 0 32 32" fill="none" xmlns="http://www.w3.org/2000/svg">
<path d="M21 5C24.866 5 28 8.13401 28 12V20C28 23.866 24.866 27 21 27H11C7.13401 27 4 23.866 4 20V12C4 8.13401 7.13401 5 11 5H21ZM11 7C8.23858 7 6 9.23858 6 12V20C6 22.7614 8.23858 25 11 25H21C23.7614 25 26 22.7614 26 20V12C26 9.23858 23.7614 7 21 7H11ZM19.5 9.23047C20.0523 9.23047 20.5 9.67818 20.5 10.2305V11.7305C20.5 14.2157 18.4853 16.2305 16 16.2305C13.5147 16.2305 11.5 14.2157 11.5 11.7305V10.2305C11.5 9.67818 11.9477 9.23047 12.5 9.23047C13.0523 9.23047 13.5 9.67818 13.5 10.2305V11.7305C13.5 13.1112 14.6193 14.2305 16 14.2305C17.3807 14.2305 18.5 13.1112 18.5 11.7305V10.2305C18.5 9.67818 18.9477 9.23047 19.5 9.23047Z" fill="#404040"/>
</svg>
