<svg width="32" height="32" viewBox="0 0 32 32" fill="none" xmlns="http://www.w3.org/2000/svg">
<path d="M20.959 4.00293C24.2723 4.00319 26.9588 6.68955 26.959 10.0029V22.7051C26.9588 26.6524 22.5988 29.0431 19.2705 26.9209L17.0762 25.5215C16.4205 25.1033 15.5806 25.1036 14.9248 25.5215L12.7305 26.9209C9.40212 29.0433 5.04119 26.6525 5.04102 22.7051V10.0029C5.04121 6.68939 7.72841 4.00293 11.042 4.00293H20.959ZM11.042 6.00293C8.83298 6.00293 7.04219 7.79396 7.04199 10.0029V22.7051C7.04217 25.0735 9.65829 26.5078 11.6553 25.2344L13.8496 23.835C15.1613 22.9988 16.8398 22.9986 18.1514 23.835L20.3457 25.2344C22.3427 26.5076 24.9588 25.0734 24.959 22.7051V10.0029C24.9588 7.79412 23.1678 6.00319 20.959 6.00293H11.042ZM14.8271 9.78418C15.4808 9.15875 16.5192 9.15875 17.1729 9.78418L17.3066 9.92773L18.5645 11.4385L20.3926 12.1699C21.3791 12.5641 21.7667 13.7566 21.2002 14.6553L20.1504 16.3184L20.0215 18.2832C19.9511 19.3428 18.9367 20.0793 17.9072 19.8184L16 19.335L14.0928 19.8184C13.0633 20.0793 12.0489 19.3428 11.9785 18.2832L11.8486 16.3184L10.7998 14.6553C10.2333 13.7566 10.621 12.5641 11.6074 12.1699L13.4346 11.4385L14.6934 9.92773L14.8271 9.78418ZM14.9229 12.7773C14.7419 12.9946 14.5096 13.1637 14.2471 13.2686L12.6846 13.8926L13.582 15.3174C13.6949 15.4967 13.7727 15.6955 13.8125 15.9023L13.8398 16.1123L13.9502 17.791L15.582 17.3779L15.79 17.3389C15.9295 17.3215 16.0705 17.3215 16.21 17.3389L16.418 17.3779L18.0488 17.791L18.1602 16.1123L18.1875 15.9023C18.2273 15.6955 18.3051 15.4967 18.418 15.3174L19.3145 13.8926L17.7529 13.2686C17.4904 13.1637 17.2581 12.9946 17.0771 12.7773L16 11.4834L14.9229 12.7773Z" fill="#404040"/>
</svg>
