<svg width="32" height="32" viewBox="0 0 32 32" fill="none" xmlns="http://www.w3.org/2000/svg">
<path d="M16 4C22.6274 4.00008 28 9.37263 28 16C28 22.6274 22.6274 27.9999 16 28C12.4158 28 9.19738 26.4271 7.00001 23.9375C6.63487 23.5235 6.67416 22.8918 7.0879 22.5264C7.50197 22.161 8.13457 22.2002 8.50001 22.6143C10.3338 24.6919 13.0135 26 16 26C21.5228 25.9999 26 21.5228 26 16C26 10.4772 21.5228 6.00008 16 6C10.4772 6 6.00001 10.4772 6.00001 16V19.3486C5.99999 19.8433 5.35843 20.0375 5.08399 19.626L2.51856 15.7773C2.29705 15.4451 2.53523 15 2.93458 15H4.042C4.55019 8.84051 9.70937 4 16 4ZM12.625 10.2471C13.0146 9.90668 13.5944 9.92214 13.9649 10.2676L14.0361 10.3418L15.918 12.4922L17.8008 10.3418C18.1643 9.92661 18.7954 9.88403 19.2109 10.2471C19.6264 10.6106 19.6689 11.2426 19.3057 11.6582L17.6904 13.5039H19.4258L19.5283 13.5088C20.0324 13.5601 20.4257 13.9863 20.4258 14.5039C20.4258 15.0215 20.0324 15.4477 19.5283 15.499L19.4258 15.5039H16.9561V17.0244H19.4258L19.5283 17.0293C20.0323 17.0806 20.4256 17.507 20.4258 18.0244C20.4258 18.542 20.0324 18.9682 19.5283 19.0195L19.4258 19.0244H16.9561V21.0332C16.956 21.5855 16.5083 22.0332 15.9561 22.0332C15.4042 22.0328 14.9561 21.5852 14.9561 21.0332V19.0244H12.4873C11.9352 19.0242 11.4874 18.5765 11.4873 18.0244C11.4875 17.4724 11.9353 17.0246 12.4873 17.0244H14.9561V15.5039H12.4873C11.9352 15.5037 11.4874 15.056 11.4873 14.5039C11.4874 13.9518 11.9352 13.5041 12.4873 13.5039H14.1455L12.5303 11.6582L12.4668 11.5781C12.1736 11.165 12.2357 10.588 12.625 10.2471Z" fill="#404040"/>
</svg>
