<svg width="139" height="217" viewBox="0 0 139 217" fill="none" xmlns="http://www.w3.org/2000/svg">
<path d="M125.46 146.931C130.243 146.931 134.12 143.054 134.12 138.271C134.12 133.489 130.243 129.611 125.46 129.611C120.677 129.611 116.8 133.489 116.8 138.271C116.8 143.054 120.677 146.931 125.46 146.931Z" fill="#FF8DAE"/>
<path d="M89.8799 110.921C89.8799 110.921 102.07 107.381 112.12 115.551C118.18 120.572 122.381 127.48 124.05 135.171" stroke="#E2497C" stroke-width="17.31" stroke-miterlimit="10" stroke-linecap="round"/>
<path d="M115.549 137.271L131.358 130.196L134.993 138.32C135.932 140.416 135.999 142.8 135.18 144.945C134.361 147.091 132.723 148.824 130.626 149.762C128.53 150.7 126.147 150.767 124.001 149.948C121.855 149.129 120.123 147.492 119.184 145.395L115.549 137.271Z" fill="#E2497C"/>
<path d="M112.822 139.943L115.731 134.592L121.599 137.783L118.691 143.133C118.268 143.911 117.553 144.49 116.703 144.741C115.854 144.992 114.939 144.895 114.161 144.472C113.383 144.049 112.804 143.334 112.553 142.485C112.302 141.635 112.399 140.721 112.822 139.943Z" fill="#E2497C"/>
<path d="M42.2408 214.54C46.764 214.54 50.4308 210.873 50.4308 206.35C50.4308 201.827 46.764 198.16 42.2408 198.16C37.7176 198.16 34.0508 201.827 34.0508 206.35C34.0508 210.873 37.7176 214.54 42.2408 214.54Z" fill="#FF8DAE"/>
<path d="M50.4805 215.561L36.4305 215.811L26.4805 176.131H50.4805V215.561Z" fill="#E2497C"/>
<path d="M35.2104 206.301H50.4804V216.381H25.7704C25.6829 216.381 25.599 216.346 25.5371 216.284C25.4752 216.222 25.4404 216.138 25.4404 216.051C25.4417 214.769 25.6955 213.5 26.1872 212.317C26.6789 211.133 27.3989 210.058 28.3062 209.152C29.2134 208.247 30.29 207.529 31.4747 207.04C32.6593 206.551 33.9287 206.299 35.2104 206.301Z" fill="#E2497C"/>
<path d="M76.2398 214.54C80.763 214.54 84.4298 210.873 84.4298 206.35C84.4298 201.827 80.763 198.16 76.2398 198.16C71.7166 198.16 68.0498 201.827 68.0498 206.35C68.0498 210.873 71.7166 214.54 76.2398 214.54Z" fill="#FF8DAE"/>
<path d="M67.9902 215.561L82.0502 215.811L92.0002 176.131H67.9902V215.561Z" fill="#E2497C"/>
<path d="M92.7003 216.381H67.9902V206.301H83.2703C85.8588 206.301 88.3413 207.329 90.1716 209.159C92.002 210.99 93.0303 213.472 93.0303 216.061C93.0303 216.148 92.9955 216.232 92.9336 216.294C92.8717 216.356 92.7878 216.391 92.7003 216.391V216.381Z" fill="#E2497C"/>
<path d="M106.27 102.931C115.89 155.791 113.27 180.691 62.8903 185.001C20.7603 188.601 8.73027 170.611 9.59027 110.071C10.3203 59.201 20.7002 14.3709 52.0702 12.4809C83.4402 10.5909 97.1603 52.8709 106.27 102.931Z" fill="#FF8DAE"/>
<path d="M56.4699 0.751189C64.4699 -1.70881 71.9899 1.99118 72.2399 10.1212C72.4999 12.7112 70.0999 15.4612 67.3399 16.1212C66.4211 16.3606 65.4571 16.367 64.5352 16.14C63.6133 15.9131 62.7625 15.4598 62.0599 14.8212C61.3962 15.7742 60.4138 16.4587 59.2899 16.7512C58.6478 16.9417 57.9725 16.9933 57.3089 16.9027C56.6453 16.8121 56.0086 16.5813 55.4411 16.2257C54.8736 15.87 54.3882 15.3977 54.0173 14.84C53.6464 14.2823 53.3984 13.6521 53.2899 12.9912L41.8799 14.6112C42.9811 11.2774 44.8894 8.26762 47.4349 5.84952C49.9803 3.43141 53.0841 1.68003 56.4699 0.751189Z" fill="#FFCD40"/>
<path d="M89.6901 51.6205C89.6901 50.4386 88.732 49.4805 87.5501 49.4805C86.3682 49.4805 85.4102 50.4386 85.4102 51.6205V57.8405C85.4102 59.0224 86.3682 59.9805 87.5501 59.9805C88.732 59.9805 89.6901 59.0224 89.6901 57.8405V51.6205Z" fill="url(#paint0_linear_5963_48190)"/>
<path d="M96.3303 67.6505C96.3303 66.7282 95.5826 65.9805 94.6603 65.9805C93.738 65.9805 92.9902 66.7282 92.9902 67.6505V72.5005C92.9902 73.4228 93.738 74.1705 94.6603 74.1705C95.5826 74.1705 96.3303 73.4228 96.3303 72.5005V67.6505Z" fill="url(#paint1_linear_5963_48190)"/>
<path d="M22.9691 48.0287C22.9222 47.2514 22.2541 46.6593 21.4768 46.7062C20.6995 46.753 20.1073 47.4211 20.1542 48.1984L20.4009 52.291C20.4478 53.0683 21.1159 53.6605 21.8932 53.6136C22.6706 53.5667 23.2627 52.8986 23.2158 52.1213L22.9691 48.0287Z" fill="url(#paint2_linear_5963_48190)"/>
<path d="M39.9225 32.2731C39.8514 31.0934 38.8374 30.1946 37.6576 30.2658C36.4779 30.3369 35.5791 31.3509 35.6503 32.5307L36.0246 38.7394C36.0957 39.9191 37.1097 40.8178 38.2895 40.7467C39.4692 40.6756 40.368 39.6616 40.2968 38.4818L39.9225 32.2731Z" fill="url(#paint3_linear_5963_48190)"/>
<path d="M17.6959 76.859C17.6248 75.6793 16.6107 74.7806 15.431 74.8517C14.2512 74.9228 13.3526 75.9369 13.4237 77.1166L13.798 83.3254C13.8691 84.5051 14.8831 85.4038 16.0629 85.3327C17.2426 85.2615 18.1413 84.2476 18.0702 83.0678L17.6959 76.859Z" fill="url(#paint4_linear_5963_48190)"/>
<path d="M36.4722 61.3412C36.3622 59.5164 34.7938 58.1264 32.969 58.2364C31.1443 58.3464 29.7542 59.9148 29.8642 61.7395L30.4419 71.3222C30.5519 73.1469 32.1204 74.537 33.9451 74.427C35.7699 74.317 37.1599 72.7486 37.0499 70.9238L36.4722 61.3412Z" fill="url(#paint5_linear_5963_48190)"/>
<path d="M64.4314 111.171C71.769 110.728 77.4576 106.061 77.1372 100.747C76.8168 95.4327 70.6088 91.4832 63.2712 91.9256C55.9336 92.368 50.2451 97.0347 50.5655 102.349C50.8858 107.663 57.0939 111.613 64.4314 111.171Z" fill="#E04862"/>
<path d="M70.0603 105.631C68.7303 105.771 67.8604 104.961 64.4004 105.061C60.9404 105.161 60.9103 106.241 58.6003 106.241C56.2903 106.241 55.7003 104.641 55.6003 102.241C55.4503 99.8312 56.3203 97.7812 58.7603 97.6612C61.2003 97.5412 61.4103 98.8812 64.0603 98.8412C66.7103 98.8012 66.8504 97.0712 69.5204 97.0112C72.1904 96.9512 72.5204 98.8012 72.6504 101.211C72.7504 103.621 72.7003 105.361 70.0603 105.631Z" fill="#870051"/>
<mask id="mask0_5963_48190" style="mask-type:luminance" maskUnits="userSpaceOnUse" x="55" y="97" width="18" height="10">
<path d="M70.0603 105.631C68.7303 105.771 67.8604 104.961 64.4004 105.061C60.9404 105.161 60.9103 106.241 58.6003 106.241C56.2903 106.241 55.7003 104.641 55.6003 102.241C55.4503 99.8312 56.3203 97.7812 58.7603 97.6612C61.2003 97.5412 61.4103 98.8812 64.0603 98.8412C66.7103 98.8012 66.8504 97.0712 69.5204 97.0112C72.1904 96.9512 72.5204 98.8012 72.6504 101.211C72.7504 103.621 72.7003 105.361 70.0603 105.631Z" fill="white"/>
</mask>
<g mask="url(#mask0_5963_48190)">
<path d="M55.4103 98.712C55.4103 98.712 55.2403 103.882 65.2103 102.792C75.1803 101.702 71.5203 94.582 71.5203 94.582L61.9303 92.582L55.4103 98.712Z" fill="#FFFFE9"/>
<path d="M55.8799 106.373C55.8799 106.373 55.0899 101.263 65.1199 101.133C75.1499 101.003 72.3699 108.533 72.3699 108.533L55.8799 106.373Z" fill="#FFFFE9"/>
</g>
<path d="M84.7406 93.8796C89.3743 93.8796 93.1306 90.1232 93.1306 85.4896C93.1306 80.8559 89.3743 77.0996 84.7406 77.0996C80.1069 77.0996 76.3506 80.8559 76.3506 85.4896C76.3506 90.1232 80.1069 93.8796 84.7406 93.8796Z" fill="#F9789A"/>
<path d="M34.3304 96.9206C38.9641 96.9206 42.7205 93.1643 42.7205 88.5306C42.7205 83.897 38.9641 80.1406 34.3304 80.1406C29.6968 80.1406 25.9404 83.897 25.9404 88.5306C25.9404 93.1643 29.6968 96.9206 34.3304 96.9206Z" fill="#F9789A"/>
<path d="M61.0307 85.9911C70.0385 85.9911 77.3407 78.6889 77.3407 69.6811C77.3407 60.6733 70.0385 53.3711 61.0307 53.3711C52.0229 53.3711 44.7207 60.6733 44.7207 69.6811C44.7207 78.6889 52.0229 85.9911 61.0307 85.9911Z" fill="#FFFFE9"/>
<path d="M59.9407 57.4528C62.2332 56.0147 62.8854 52.926 61.3974 50.554C59.9094 48.182 56.8448 47.4249 54.5523 48.8629C52.2598 50.301 51.6076 53.3897 53.0956 55.7617C54.5835 58.1337 57.6482 58.8908 59.9407 57.4528Z" stroke="#661E32" stroke-width="6.92" stroke-miterlimit="10" stroke-linecap="round"/>
<path d="M68.6406 44.7402C68.6406 44.7402 70.0606 52.2703 61.1406 57.9003C58.4588 59.6713 55.3755 60.7412 52.1732 61.012C48.9708 61.2828 45.7516 60.7458 42.8105 59.4503" stroke="#661E32" stroke-width="6.92" stroke-miterlimit="10" stroke-linecap="round"/>
<mask id="mask1_5963_48190" style="mask-type:luminance" maskUnits="userSpaceOnUse" x="44" y="53" width="34" height="33">
<path d="M61.0307 85.9911C70.0385 85.9911 77.3407 78.6889 77.3407 69.6811C77.3407 60.6733 70.0385 53.3711 61.0307 53.3711C52.0229 53.3711 44.7207 60.6733 44.7207 69.6811C44.7207 78.6889 52.0229 85.9911 61.0307 85.9911Z" fill="white"/>
</mask>
<g mask="url(#mask1_5963_48190)">
<path d="M62.8944 86.5948C64.5042 86.4978 65.7173 84.8952 65.604 83.0153C65.4907 81.1354 64.0938 79.6901 62.484 79.7872C60.8743 79.8842 59.6612 81.4869 59.7745 83.3667C59.8879 85.2466 61.2847 86.6919 62.8944 86.5948Z" fill="#823227"/>
</g>
<path d="M14.2102 113.922C14.2102 113.922 6.09014 134.102 9.49015 140.122C12.8901 146.142 34.3302 136.202 34.3302 136.202" stroke="#E2497C" stroke-width="17.31" stroke-miterlimit="10" stroke-linecap="round"/>
<path d="M35.8905 144.582C40.6733 144.582 44.5505 140.704 44.5505 135.922C44.5505 131.139 40.6733 127.262 35.8905 127.262C31.1077 127.262 27.2305 131.139 27.2305 135.922C27.2305 140.704 31.1077 144.582 35.8905 144.582Z" fill="#E2497C"/>
<path d="M36.8207 128.301H35.7207C31.0263 128.301 27.2207 132.106 27.2207 136.801V136.811C27.2207 141.505 31.0263 145.311 35.7207 145.311H36.8207C41.5151 145.311 45.3207 141.505 45.3207 136.811V136.801C45.3207 132.106 41.5151 128.301 36.8207 128.301Z" fill="#E2497C"/>
<path d="M44.5105 138.882C44.5105 137.021 43.0017 135.512 41.1405 135.512C39.2793 135.512 37.7705 137.021 37.7705 138.882V149.652C37.7705 151.513 39.2793 153.022 41.1405 153.022C43.0017 153.022 44.5105 151.513 44.5105 149.652V138.882Z" fill="#E2497C"/>
<path d="M42.2984 139.826L37.9921 135.519L42.7085 130.803L47.0148 135.109C47.6412 135.736 47.9931 136.585 47.9931 137.471C47.9931 138.357 47.6412 139.206 47.0148 139.833C46.3878 140.456 45.5393 140.805 44.6552 140.804C43.7711 140.803 42.9236 140.451 42.2984 139.826Z" fill="#E2497C"/>
<path d="M37.7505 145.311C36.9639 145.637 36.1217 145.806 35.2705 145.811C34.4027 145.827 33.5381 145.702 32.7105 145.441C31.8703 145.187 31.0768 144.798 30.3605 144.291C29.6414 143.793 28.9923 143.201 28.4305 142.531C28.103 142.061 27.8186 141.562 27.5805 141.041C27.347 140.524 27.1661 139.984 27.0405 139.431C26.794 138.336 26.8354 137.196 27.1605 136.121C27.2724 137.155 27.5386 138.166 27.9505 139.121C28.1504 139.583 28.3809 140.03 28.6405 140.461C28.9007 140.889 29.1879 141.3 29.5005 141.691C30.0209 142.247 30.5898 142.756 31.2005 143.211C31.8231 143.666 32.4937 144.052 33.2005 144.361C34.64 144.974 36.1861 145.297 37.7505 145.311Z" fill="#CE3670"/>
<path d="M37.8803 140.371C38.1211 141.963 38.2381 143.571 38.2302 145.181C38.2431 146.788 38.1261 148.393 37.8803 149.981C37.4136 146.795 37.4136 143.557 37.8803 140.371Z" fill="#CE3670"/>
<defs>
<linearGradient id="paint0_linear_5963_48190" x1="87.5501" y1="59.7505" x2="87.5501" y2="48.5505" gradientUnits="userSpaceOnUse">
<stop stop-color="#C2FFFD"/>
<stop offset="0.06" stop-color="#C2FFFD" stop-opacity="0.97"/>
<stop offset="0.15" stop-color="#C2FFFD" stop-opacity="0.89"/>
<stop offset="0.26" stop-color="#C2FFFD" stop-opacity="0.75"/>
<stop offset="0.38" stop-color="#C2FFFD" stop-opacity="0.57"/>
<stop offset="0.52" stop-color="#C2FFFD" stop-opacity="0.33"/>
<stop offset="0.66" stop-color="#C2FFFD" stop-opacity="0.04"/>
<stop offset="0.68" stop-color="#C2FFFD" stop-opacity="0"/>
</linearGradient>
<linearGradient id="paint1_linear_5963_48190" x1="94.6602" y1="74.0005" x2="94.6602" y2="65.2605" gradientUnits="userSpaceOnUse">
<stop stop-color="#C2FFFD"/>
<stop offset="0.06" stop-color="#C2FFFD" stop-opacity="0.97"/>
<stop offset="0.15" stop-color="#C2FFFD" stop-opacity="0.89"/>
<stop offset="0.26" stop-color="#C2FFFD" stop-opacity="0.75"/>
<stop offset="0.38" stop-color="#C2FFFD" stop-opacity="0.57"/>
<stop offset="0.52" stop-color="#C2FFFD" stop-opacity="0.33"/>
<stop offset="0.66" stop-color="#C2FFFD" stop-opacity="0.04"/>
<stop offset="0.68" stop-color="#C2FFFD" stop-opacity="0"/>
</linearGradient>
<linearGradient id="paint2_linear_5963_48190" x1="21.8842" y1="53.4639" x2="21.4401" y2="46.0973" gradientUnits="userSpaceOnUse">
<stop stop-color="#C2FFFD"/>
<stop offset="0.06" stop-color="#C2FFFD" stop-opacity="0.97"/>
<stop offset="0.15" stop-color="#C2FFFD" stop-opacity="0.89"/>
<stop offset="0.26" stop-color="#C2FFFD" stop-opacity="0.75"/>
<stop offset="0.38" stop-color="#C2FFFD" stop-opacity="0.57"/>
<stop offset="0.52" stop-color="#C2FFFD" stop-opacity="0.33"/>
<stop offset="0.66" stop-color="#C2FFFD" stop-opacity="0.04"/>
<stop offset="0.68" stop-color="#C2FFFD" stop-opacity="0"/>
</linearGradient>
<linearGradient id="paint3_linear_5963_48190" x1="38.2663" y1="40.5277" x2="37.5923" y2="29.348" gradientUnits="userSpaceOnUse">
<stop stop-color="#C2FFFD"/>
<stop offset="0.06" stop-color="#C2FFFD" stop-opacity="0.97"/>
<stop offset="0.15" stop-color="#C2FFFD" stop-opacity="0.89"/>
<stop offset="0.26" stop-color="#C2FFFD" stop-opacity="0.75"/>
<stop offset="0.38" stop-color="#C2FFFD" stop-opacity="0.57"/>
<stop offset="0.52" stop-color="#C2FFFD" stop-opacity="0.33"/>
<stop offset="0.66" stop-color="#C2FFFD" stop-opacity="0.04"/>
<stop offset="0.68" stop-color="#C2FFFD" stop-opacity="0"/>
</linearGradient>
<linearGradient id="paint4_linear_5963_48190" x1="16.0497" y1="85.1131" x2="15.3757" y2="73.9334" gradientUnits="userSpaceOnUse">
<stop stop-color="#C2FFFD"/>
<stop offset="0.06" stop-color="#C2FFFD" stop-opacity="0.97"/>
<stop offset="0.15" stop-color="#C2FFFD" stop-opacity="0.89"/>
<stop offset="0.26" stop-color="#C2FFFD" stop-opacity="0.75"/>
<stop offset="0.38" stop-color="#C2FFFD" stop-opacity="0.57"/>
<stop offset="0.52" stop-color="#C2FFFD" stop-opacity="0.33"/>
<stop offset="0.66" stop-color="#C2FFFD" stop-opacity="0.04"/>
<stop offset="0.68" stop-color="#C2FFFD" stop-opacity="0"/>
</linearGradient>
<linearGradient id="paint5_linear_5963_48190" x1="33.9147" y1="74.0882" x2="32.873" y2="56.8096" gradientUnits="userSpaceOnUse">
<stop stop-color="#C2FFFD"/>
<stop offset="0.06" stop-color="#C2FFFD" stop-opacity="0.97"/>
<stop offset="0.15" stop-color="#C2FFFD" stop-opacity="0.89"/>
<stop offset="0.26" stop-color="#C2FFFD" stop-opacity="0.75"/>
<stop offset="0.38" stop-color="#C2FFFD" stop-opacity="0.57"/>
<stop offset="0.52" stop-color="#C2FFFD" stop-opacity="0.33"/>
<stop offset="0.66" stop-color="#C2FFFD" stop-opacity="0.04"/>
<stop offset="0.68" stop-color="#C2FFFD" stop-opacity="0"/>
</linearGradient>
</defs>
</svg>
