<svg width="110" height="217" viewBox="0 0 110 217" fill="none" xmlns="http://www.w3.org/2000/svg">
<path d="M48.3436 214.668C52.7122 214.668 56.2536 211.126 56.2536 206.758C56.2536 202.389 52.7122 198.848 48.3436 198.848C43.975 198.848 40.4336 202.389 40.4336 206.758C40.4336 211.126 43.975 214.668 48.3436 214.668Z" fill="#D43D6F"/>
<path d="M56.3034 216.838H31.8034C31.7185 216.838 31.6371 216.804 31.5771 216.744C31.5171 216.684 31.4834 216.603 31.4834 216.518C31.4834 213.953 32.5022 211.493 34.3157 209.68C36.1292 207.866 38.5888 206.848 41.1534 206.848H56.2834L56.3034 216.838Z" fill="#D43D6F"/>
<path d="M56.4938 178.547L56.2838 212.777L42.3338 214.527L33.6738 181.417L56.4938 178.547Z" fill="#D43D6F"/>
<path d="M71.2235 214.668C75.5921 214.668 79.1335 211.126 79.1335 206.758C79.1335 202.389 75.5921 198.848 71.2235 198.848C66.8549 198.848 63.3135 202.389 63.3135 206.758C63.3135 211.126 66.8549 214.668 71.2235 214.668Z" fill="#E2497C"/>
<path d="M79.183 216.838H54.6931C54.6082 216.838 54.5268 216.804 54.4668 216.744C54.4068 216.684 54.373 216.603 54.373 216.518C54.373 213.953 55.3918 211.493 57.2053 209.68C59.0188 207.866 61.4784 206.848 64.043 206.848H79.173L79.183 216.838Z" fill="#E2497C"/>
<path d="M79.3727 178.547L79.1727 212.777L65.2227 214.527L56.5527 181.417L79.3727 178.547Z" fill="#E2497C"/>
<path d="M14.7838 164.917C19.539 164.917 23.3938 161.062 23.3938 156.307C23.3938 151.552 19.539 147.697 14.7838 147.697C10.0287 147.697 6.17383 151.552 6.17383 156.307C6.17383 161.062 10.0287 164.917 14.7838 164.917Z" fill="#FF8DAE"/>
<path d="M15.2337 112.367L14.8438 154.037" stroke="#E2497C" stroke-width="17" stroke-miterlimit="10" stroke-linecap="round"/>
<path d="M6.20605 151.324L23.4253 151.49L23.3404 160.329C23.3185 162.613 22.3904 164.794 20.7603 166.393C19.1301 167.992 16.9316 168.878 14.6482 168.856C12.3647 168.834 10.1836 167.906 8.58445 166.276C6.98533 164.646 6.09928 162.447 6.1212 160.164L6.20605 151.324Z" fill="#E2497C"/>
<path d="M2.65774 152.493L7.5089 148.861L11.4883 154.176L6.63711 157.808C5.93224 158.336 5.0466 158.562 4.17504 158.437C3.30348 158.311 2.51739 157.845 1.98969 157.14C1.46199 156.435 1.23592 155.55 1.36121 154.678C1.48649 153.807 1.95286 153.02 2.65774 152.493Z" fill="#E2497C"/>
<path d="M103.013 106.087C108.343 159.257 103.743 183.717 53.4832 183.977C11.4832 184.187 0.953254 165.397 6.63325 105.467C11.4133 55.1065 25.2732 11.4665 56.5132 12.1265C87.7532 12.7865 97.9833 55.7565 103.013 106.087Z" fill="#FF8DAE"/>
<path d="M109.653 148.657C108.103 168.137 93.163 180.837 69.803 183.987C5.15297 192.677 11.803 155.897 11.803 136.367C11.803 116.837 48.623 109.857 72.193 109.857C95.763 109.857 111.603 124.017 109.653 148.657Z" fill="#FF8DAE"/>
<path d="M49.1832 0.496301C41.0732 -1.5037 33.8632 2.6663 34.0932 10.7463C33.9932 13.3363 36.5433 15.9163 39.3233 16.4363C40.2485 16.6217 41.2055 16.5725 42.1069 16.293C43.0082 16.0135 43.8252 15.5127 44.4832 14.8363C45.2036 15.7398 46.2202 16.3596 47.3533 16.5863C48.0055 16.7457 48.6844 16.763 49.3439 16.6368C50.0034 16.5106 50.628 16.244 51.1754 15.8551C51.7227 15.4662 52.18 14.964 52.5161 14.3828C52.8522 13.8015 53.0592 13.1547 53.1232 12.4863L64.4633 13.3863C63.1713 10.1478 61.1013 7.27747 58.4362 5.02924C55.7712 2.78102 52.5931 1.22414 49.1832 0.496301Z" fill="#FFCD40"/>
<path d="M42.7229 85.4166C51.681 85.4166 58.9429 78.1546 58.9429 69.1966C58.9429 60.2385 51.681 52.9766 42.7229 52.9766C33.7649 52.9766 26.5029 60.2385 26.5029 69.1966C26.5029 78.1546 33.7649 85.4166 42.7229 85.4166Z" fill="#EF6791"/>
<path d="M20.1437 94.637C24.7498 94.637 28.4837 90.9031 28.4837 86.297C28.4837 81.691 24.7498 77.957 20.1437 77.957C15.5377 77.957 11.8037 81.691 11.8037 86.297C11.8037 90.9031 15.5377 94.637 20.1437 94.637Z" fill="#F9789A"/>
<path d="M70.3537 94.637C74.9597 94.637 78.6937 90.9031 78.6937 86.297C78.6937 81.691 74.9597 77.957 70.3537 77.957C65.7476 77.957 62.0137 81.691 62.0137 86.297C62.0137 90.9031 65.7476 94.637 70.3537 94.637Z" fill="#F9789A"/>
<path d="M86.3327 164.327C91.0878 164.327 94.9427 160.473 94.9427 155.717C94.9427 150.962 91.0878 147.107 86.3327 147.107C81.5775 147.107 77.7227 150.962 77.7227 155.717C77.7227 160.473 81.5775 164.327 86.3327 164.327Z" fill="#FF8DAE"/>
<path d="M85.5234 111.787C94.5234 130.947 86.3234 153.447 86.3234 153.447" stroke="#E2497C" stroke-width="17" stroke-miterlimit="10" stroke-linecap="round"/>
<path d="M77.5869 150.969L94.8037 150.638L94.9734 159.477C94.9952 160.607 94.794 161.731 94.3814 162.783C93.9689 163.836 93.353 164.797 92.569 165.612C91.785 166.427 90.8482 167.079 89.812 167.532C88.7759 167.984 87.6608 168.229 86.5303 168.25C84.2472 168.294 82.0402 167.429 80.3948 165.846C78.7494 164.262 77.8005 162.09 77.7566 159.807L77.5869 150.969Z" fill="#E2497C"/>
<path d="M74.1173 152.288L78.8626 148.519L82.9924 153.718L78.2472 157.488C77.9053 157.761 77.5127 157.964 77.0921 158.085C76.6715 158.206 76.2311 158.242 75.7963 158.193C75.3614 158.143 74.9408 158.007 74.5584 157.794C74.1761 157.581 73.8397 157.295 73.5685 156.951C73.2984 156.609 73.0983 156.217 72.9796 155.797C72.861 155.378 72.8262 154.939 72.8772 154.506C72.9281 154.073 73.0639 153.654 73.2767 153.274C73.4894 152.893 73.7751 152.558 74.1173 152.288Z" fill="#E2497C"/>
<path d="M42.9231 111.597C49.3959 111.597 54.6431 107.8 54.6431 103.117C54.6431 98.4333 49.3959 94.6367 42.9231 94.6367C36.4503 94.6367 31.2031 98.4333 31.2031 103.117C31.2031 107.8 36.4503 111.597 42.9231 111.597Z" fill="#E04862"/>
<path d="M49.1533 101.528C49.6033 104.468 46.6633 107.368 42.5933 107.988C38.5233 108.608 34.8533 106.728 34.4033 103.778C33.9533 100.828 37.1833 99.8976 41.2633 99.2776C45.3433 98.6576 48.6933 98.5776 49.1533 101.528Z" fill="#870051"/>
<mask id="mask0_5963_47431" style="mask-type:luminance" maskUnits="userSpaceOnUse" x="34" y="98" width="16" height="11">
<path d="M49.1533 101.528C49.6033 104.468 46.6633 107.368 42.5933 107.988C38.5233 108.608 34.8533 106.728 34.4033 103.778C33.9533 100.828 37.1833 99.8976 41.2633 99.2776C45.3433 98.6576 48.6933 98.5776 49.1533 101.528Z" fill="white"/>
</mask>
<g mask="url(#mask0_5963_47431)">
<path d="M36.8232 109.657C36.8232 109.657 41.0332 102.657 48.2932 102.557C55.5532 102.457 46.9632 111.557 46.9632 111.557L36.8232 109.657Z" fill="#AD0757"/>
<path d="M31.8633 99.9068C31.8633 99.9068 34.5833 102.717 41.3133 101.207C42.407 101.04 43.4543 100.648 44.389 100.056C45.3236 99.4641 46.1253 98.6845 46.7433 97.7668C51.7433 90.7068 36.0833 94.6768 36.0833 94.6768L31.8633 99.9068Z" fill="#FFFFE9"/>
</g>
<path d="M31.2031 70.4071C31.2031 70.4071 39.1331 64.6571 51.2031 70.4071" stroke="#7A163F" stroke-width="3" stroke-miterlimit="10" stroke-linecap="round"/>
<path d="M33.083 36.0757C33.083 36.0757 42.373 22.0757 54.973 36.0757" stroke="#661E32" stroke-width="7" stroke-miterlimit="10" stroke-linecap="round"/>
</svg>
