<svg width="156" height="215" viewBox="0 0 156 215" fill="none" xmlns="http://www.w3.org/2000/svg">
<path d="M97.2313 212.703C101.738 212.703 105.391 209.049 105.391 204.543C105.391 200.036 101.738 196.383 97.2313 196.383C92.7247 196.383 89.0713 200.036 89.0713 204.543C89.0713 209.049 92.7247 212.703 97.2313 212.703Z" fill="#E2497C"/>
<path d="M106.311 212.723L92.601 214.323L78.291 176.463L102.031 173.713L106.311 212.723Z" fill="#E2497C"/>
<path d="M106.471 214.323H81.8708C81.7867 214.321 81.7068 214.286 81.6473 214.227C81.5878 214.167 81.5533 214.087 81.5508 214.003C81.5508 211.427 82.5735 208.956 84.3942 207.134C86.2149 205.311 88.6846 204.286 91.2607 204.283H105.431L106.471 214.323Z" fill="#E2497C"/>
<path d="M14.9608 128.482C19.7215 128.482 23.5808 124.623 23.5808 119.862C23.5808 115.101 19.7215 111.242 14.9608 111.242C10.2001 111.242 6.34082 115.101 6.34082 119.862C6.34082 124.623 10.2001 128.482 14.9608 128.482Z" fill="#FF8DAE"/>
<path d="M22.9775 114.025L15.9544 129.77L7.87204 126.165C5.78417 125.233 4.15179 123.511 3.334 121.376C2.5162 119.241 2.57997 116.869 3.5113 114.781C4.44262 112.693 6.16521 111.061 8.3001 110.243C10.435 109.425 12.8073 109.489 14.8952 110.42L22.9775 114.025Z" fill="#E2497C"/>
<path d="M20.8042 109.326L22.205 115.243L15.7339 116.775L14.3377 110.878C14.1349 110.021 14.2807 109.119 14.7431 108.37C15.2056 107.62 15.9467 107.085 16.8035 106.882C17.6581 106.677 18.559 106.82 19.309 107.278C20.0589 107.736 20.5966 108.473 20.8042 109.326Z" fill="#E2497C"/>
<path d="M56.4915 116.463C56.4915 116.463 40.1015 90.6829 18.7715 121.683" stroke="#E2497C" stroke-width="17.23" stroke-miterlimit="10" stroke-linecap="round"/>
<path d="M104.211 182.241C62.5512 188.241 49.5712 170.991 47.0212 110.791C44.8812 60.1915 52.6712 15.0514 83.7312 11.4014C104.731 8.94144 118.871 27.0014 129.481 54.1814C131.411 59.1014 133.221 64.3215 134.931 69.7715C137.741 78.7715 140.301 88.3215 142.691 98.2315C155.241 150.231 154.021 175.121 104.211 182.241Z" fill="#FF8DAE"/>
<path d="M155.081 139.551C156.221 159.071 143.081 173.711 120.391 180.021C57.4711 197.481 59.0411 160.101 56.3911 140.721C53.7411 121.341 89.2811 109.411 112.661 106.191C136.041 102.971 153.661 114.871 155.081 139.551Z" fill="#FF8DAE"/>
<path d="M98.8416 162.662C103.348 162.662 107.002 159.008 107.002 154.502C107.002 149.995 103.348 146.342 98.8416 146.342C94.335 146.342 90.6816 149.995 90.6816 154.502C90.6816 159.008 94.335 162.662 98.8416 162.662Z" fill="#FF8DAE"/>
<path d="M108.121 178.612L94.2812 170.492L102.421 152.032C103.127 150.423 104.342 149.091 105.88 148.241C107.419 147.392 109.194 147.072 110.931 147.332L132.531 150.532L124.041 172.872L116.111 169.452C115.551 169.208 114.922 169.175 114.339 169.358C113.756 169.542 113.26 169.931 112.941 170.452L108.121 178.612Z" fill="#E2497C"/>
<path d="M97.0314 167.32L110.276 174.798L105.359 183.506L83.9381 171.411C83.8642 171.369 83.8099 171.3 83.7872 171.218C83.7644 171.136 83.775 171.049 83.8168 170.975C85.0829 168.732 87.1881 167.085 89.6691 166.394C92.15 165.704 94.8037 166.027 97.0462 167.294L97.0314 167.32Z" fill="#E2497C"/>
<path d="M132.938 163.489C135.284 157.32 135.189 151.56 132.727 150.624C130.264 149.687 126.367 153.929 124.021 160.098C121.675 166.267 121.77 172.027 124.232 172.963C126.694 173.899 130.592 169.658 132.938 163.489Z" fill="#E2497C"/>
<path d="M88.6008 0.682227C96.6008 -1.65777 104.021 2.14225 104.161 10.2322C104.381 12.8222 101.951 15.5222 99.1608 16.1622C98.2448 16.3896 97.2865 16.3842 96.373 16.1467C95.4596 15.9092 94.6201 15.447 93.9308 14.8023C93.2501 15.7367 92.2625 16.4021 91.1408 16.6822C90.4929 16.8778 89.8104 16.9308 89.14 16.8377C88.4697 16.7445 87.8275 16.5074 87.2574 16.1426C86.6874 15.7778 86.2031 15.2939 85.8377 14.7242C85.4724 14.1545 85.2346 13.5125 85.1408 12.8422L73.8408 14.2622C74.989 10.9562 76.9378 7.98592 79.5133 5.61634C82.0888 3.24676 85.2108 1.55163 88.6008 0.682227Z" fill="#FFCD40"/>
<path d="M100.331 67.9214C109.3 67.9214 116.571 60.6505 116.571 51.6814C116.571 42.7123 109.3 35.4414 100.331 35.4414C91.3617 35.4414 84.0908 42.7123 84.0908 51.6814C84.0908 60.6505 91.3617 67.9214 100.331 67.9214Z" fill="#FFFFE9"/>
<mask id="mask0_5963_47789" style="mask-type:luminance" maskUnits="userSpaceOnUse" x="84" y="35" width="33" height="33">
<path d="M100.331 67.9214C109.3 67.9214 116.571 60.6505 116.571 51.6814C116.571 42.7123 109.3 35.4414 100.331 35.4414C91.3617 35.4414 84.0908 42.7123 84.0908 51.6814C84.0908 60.6505 91.3617 67.9214 100.331 67.9214Z" fill="white"/>
</mask>
<g mask="url(#mask0_5963_47789)">
<path d="M108.615 44.263C110.663 43.8066 111.891 41.4963 111.358 39.1029C110.825 36.7094 108.732 35.1391 106.684 35.5955C104.635 36.0519 103.407 38.3621 103.94 40.7556C104.473 43.1491 106.566 44.7194 108.615 44.263Z" fill="#823227"/>
</g>
<path d="M77.541 33.0717C79.648 34.1145 81.9404 34.7308 84.2863 34.8853C86.6322 35.0397 88.9854 34.7292 91.211 33.9716C96.1353 32.3119 100.22 28.8008 102.601 24.1816" stroke="#661E32" stroke-width="6.89" stroke-miterlimit="10" stroke-linecap="round"/>
<g opacity="0.52" style="mix-blend-mode:multiply">
<path d="M75.6909 76.4129C80.3024 76.4129 84.0408 72.6744 84.0408 68.0629C84.0408 63.4513 80.3024 59.7129 75.6909 59.7129C71.0793 59.7129 67.3408 63.4513 67.3408 68.0629C67.3408 72.6744 71.0793 76.4129 75.6909 76.4129Z" fill="#F4B9B8"/>
</g>
<g opacity="0.52" style="mix-blend-mode:multiply">
<path d="M134.931 69.7717C133.878 70.3261 132.719 70.649 131.531 70.7188C130.343 70.7885 129.154 70.6035 128.043 70.1761C126.932 69.7488 125.926 69.0889 125.091 68.2408C124.256 67.3927 123.612 66.3759 123.202 65.2585C122.792 64.1412 122.626 62.9492 122.715 61.7624C122.803 60.5756 123.144 59.4214 123.715 58.3772C124.286 57.333 125.074 56.4229 126.025 55.7079C126.976 54.993 128.07 54.4896 129.231 54.2317L129.481 54.1816C131.411 59.1016 133.221 64.3217 134.931 69.7717Z" fill="#F4B9B8"/>
</g>
<path d="M117.991 86.5613C118.842 78.8151 111.73 71.6785 102.107 70.6212C92.4831 69.5638 83.9917 74.9861 83.1406 82.7322C82.2895 90.4784 89.4011 97.615 99.0247 98.6723C108.648 99.7297 117.14 94.3074 117.991 86.5613Z" fill="#E04862"/>
<path d="M113.261 86.1218C113.034 88.0451 112.147 89.83 110.751 91.1718C109.339 92.4739 107.656 93.4469 105.823 94.021C103.99 94.595 102.053 94.7558 100.151 94.4919C94.7608 93.9019 90.5108 90.5418 89.4108 86.4318C89.1432 85.4557 89.0651 84.4373 89.1809 83.4318C89.4034 81.5673 90.2449 79.8314 91.5708 78.5018C92.9856 77.1616 94.6836 76.1566 96.5391 75.5612C98.3947 74.9657 100.36 74.7951 102.291 75.0618C105.603 75.3667 108.685 76.8879 110.941 79.3319C111.788 80.2336 112.433 81.3056 112.833 82.4765C113.234 83.6474 113.379 84.8902 113.261 86.1218Z" fill="#870051"/>
<path d="M110.94 79.3728C103.6 81.0428 95.3603 79.4729 91.5703 78.5429C92.9851 77.2026 94.6831 76.1976 96.5386 75.6022C98.3942 75.0067 100.36 74.8361 102.29 75.1028C105.602 75.4077 108.684 76.9289 110.94 79.3728Z" fill="#FFFFE9"/>
<path d="M110.751 91.1716C109.339 92.4736 107.656 93.4466 105.824 94.0207C103.991 94.5947 102.054 94.7556 100.151 94.4916C94.7611 93.9016 90.5111 90.5415 89.4111 86.4315C93.3011 85.9415 105.261 84.9816 110.751 91.1716Z" fill="#AD0757"/>
<path d="M74.7411 110.781C79.5018 110.781 83.3611 106.922 83.3611 102.161C83.3611 97.4003 79.5018 93.541 74.7411 93.541C69.9804 93.541 66.1211 97.4003 66.1211 102.161C66.1211 106.922 69.9804 110.781 74.7411 110.781Z" fill="#FF8DAE"/>
<path d="M82.1572 95.584L76.6812 111.931L68.2895 109.12C66.1218 108.394 64.3312 106.836 63.3119 104.79C62.2925 102.744 62.1278 100.376 62.854 98.2085C63.5801 96.0407 65.1377 94.2502 67.184 93.2308C69.2303 92.2114 71.5978 92.0467 73.7656 92.7729L82.1572 95.584Z" fill="#E2497C"/>
<path d="M78.7999 91.8042L82.8595 96.3034L77.9594 100.725L73.8997 96.2256C73.3099 95.5719 73.0039 94.7106 73.049 93.8312C73.0942 92.9519 73.4868 92.1265 74.1406 91.5366C74.7943 90.9467 75.6556 90.6407 76.5349 90.6859C77.4143 90.7311 78.2397 91.1237 78.8296 91.7774L78.7999 91.8042Z" fill="#E2497C"/>
<path d="M125.691 106.921C125.691 106.921 110.161 132.411 79.3711 104.021" stroke="#E2497C" stroke-width="17.23" stroke-miterlimit="10" stroke-linecap="round"/>
</svg>
