<svg width="117" height="217" viewBox="0 0 117 217" fill="none" xmlns="http://www.w3.org/2000/svg">
<path d="M55.662 214.668C60.0305 214.668 63.572 211.126 63.572 206.758C63.572 202.389 60.0305 198.848 55.662 198.848C51.2934 198.848 47.752 202.389 47.752 206.758C47.752 211.126 51.2934 214.668 55.662 214.668Z" fill="#D43D6F"/>
<path d="M63.6618 216.838H39.1618C39.0769 216.838 38.9955 216.804 38.9355 216.744C38.8755 216.684 38.8418 216.603 38.8418 216.518C38.8418 213.953 39.8606 211.493 41.6741 209.68C43.4875 207.866 45.9472 206.848 48.5118 206.848H63.6418L63.6618 216.838Z" fill="#D43D6F"/>
<path d="M63.8122 178.547L63.6022 212.777L49.6522 214.527L40.9922 181.417L63.8122 178.547Z" fill="#D43D6F"/>
<path d="M78.5428 214.668C82.9114 214.668 86.4528 211.126 86.4528 206.758C86.4528 202.389 82.9114 198.848 78.5428 198.848C74.1742 198.848 70.6328 202.389 70.6328 206.758C70.6328 211.126 74.1742 214.668 78.5428 214.668Z" fill="#E2497C"/>
<path d="M86.5024 216.838H62.0124C61.9275 216.838 61.8461 216.804 61.7861 216.744C61.7261 216.684 61.6924 216.603 61.6924 216.518C61.6924 213.953 62.7112 211.493 64.5247 209.68C66.3381 207.866 68.7978 206.848 71.3624 206.848H86.4924L86.5024 216.838Z" fill="#E2497C"/>
<path d="M86.6921 178.547L86.4921 212.777L72.5421 214.527L63.8721 181.417L86.6921 178.547Z" fill="#E2497C"/>
<path d="M24.2723 99.8262C24.2723 99.8262 5.02229 113.136 9.11229 126.456" stroke="#E2497C" stroke-width="17" stroke-miterlimit="10" stroke-linecap="round"/>
<path d="M110.212 106.087C115.532 159.257 110.932 183.717 60.6717 183.977C18.6717 184.187 8.14173 165.397 13.8217 105.467C18.6017 55.1065 32.4617 11.4665 63.7017 12.1265C94.9417 12.7865 105.172 55.7565 110.212 106.087Z" fill="#FF8DAE"/>
<path d="M116.841 148.657C115.291 168.137 100.351 180.837 76.9914 183.987C12.3414 192.677 18.9914 155.897 18.9914 136.367C18.9914 116.837 55.8115 109.857 79.3815 109.857C102.951 109.857 118.791 124.017 116.841 148.657Z" fill="#FF8DAE"/>
<path d="M56.3817 0.496301C48.2617 -1.5037 41.0517 2.6663 41.2817 10.7463C41.1817 13.3363 43.7317 15.9163 46.5117 16.4363C47.437 16.6217 48.394 16.5725 49.2954 16.293C50.1967 16.0135 51.0137 15.5127 51.6717 14.8363C52.3921 15.7398 53.4086 16.3596 54.5417 16.5863C55.1946 16.7457 55.874 16.7629 56.534 16.6368C57.1941 16.5107 57.8193 16.2442 58.3674 15.8554C58.9155 15.4666 59.3737 14.9646 59.7109 14.3833C60.048 13.8021 60.2564 13.1551 60.3217 12.4863L71.6517 13.3863C70.3615 10.1485 68.2932 7.27855 65.6299 5.0303C62.9665 2.78206 59.7902 1.22481 56.3817 0.496301Z" fill="#FFCD40"/>
<path d="M49.9124 85.4166C58.8704 85.4166 66.1324 78.1546 66.1324 69.1966C66.1324 60.2385 58.8704 52.9766 49.9124 52.9766C40.9543 52.9766 33.6924 60.2385 33.6924 69.1966C33.6924 78.1546 40.9543 85.4166 49.9124 85.4166Z" fill="#FFFFE9"/>
<path d="M48.8517 73.8463C50.9504 73.8463 52.6517 71.8629 52.6517 69.4163C52.6517 66.9697 50.9504 64.9863 48.8517 64.9863C46.7531 64.9863 45.0518 66.9697 45.0518 69.4163C45.0518 71.8629 46.7531 73.8463 48.8517 73.8463Z" fill="#823227"/>
<path d="M49.9124 111.597C56.3852 111.597 61.6324 107.8 61.6324 103.117C61.6324 98.4333 56.3852 94.6367 49.9124 94.6367C43.4396 94.6367 38.1924 98.4333 38.1924 103.117C38.1924 107.8 43.4396 111.597 49.9124 111.597Z" fill="#E04862"/>
<path d="M43.4219 103.096C47.2131 104.354 51.3231 104.258 55.0519 102.826" stroke="#BF214A" stroke-width="3" stroke-miterlimit="10" stroke-linecap="round"/>
<path d="M77.5722 96.3359C83.1172 96.3359 87.6122 91.8408 87.6122 86.2959C87.6122 80.7509 83.1172 76.2559 77.5722 76.2559C72.0273 76.2559 67.5322 80.7509 67.5322 86.2959C67.5322 91.8408 72.0273 96.3359 77.5722 96.3359Z" fill="#F9789A"/>
<path d="M75.3019 83.1562L73.1719 89.3463" stroke="#EA6383" stroke-width="2.41" stroke-linecap="round" stroke-linejoin="round"/>
<path d="M81.9818 83.2461L79.8418 89.4361" stroke="#EA6383" stroke-width="2.41" stroke-linecap="round" stroke-linejoin="round"/>
<path d="M27.1523 96.3359C32.6972 96.3359 37.1923 91.8408 37.1923 86.2959C37.1923 80.7509 32.6972 76.2559 27.1523 76.2559C21.6073 76.2559 17.1123 80.7509 17.1123 86.2959C17.1123 91.8408 21.6073 96.3359 27.1523 96.3359Z" fill="#F9789A"/>
<path d="M23.932 83.1152L21.792 89.2952" stroke="#EA6383" stroke-width="2.41" stroke-linecap="round" stroke-linejoin="round"/>
<path d="M30.6027 83.2051L28.4727 89.3951" stroke="#EA6383" stroke-width="2.41" stroke-linecap="round" stroke-linejoin="round"/>
<path d="M51.8717 150.956C56.6269 150.956 60.4817 147.102 60.4817 142.346C60.4817 137.591 56.6269 133.736 51.8717 133.736C47.1165 133.736 43.2617 137.591 43.2617 142.346C43.2617 147.102 47.1165 150.956 51.8717 150.956Z" fill="#FF8DAE"/>
<path d="M92.7119 112.406C85.8819 141.766 56.7119 141.766 56.7119 141.766" stroke="#E2497C" stroke-width="17" stroke-miterlimit="10" stroke-linecap="round"/>
<path d="M55.8506 133.276L57.5769 150.389L48.7815 151.276C47.6565 151.39 46.5202 151.28 45.4375 150.955C44.3547 150.629 43.3467 150.093 42.4709 149.378C41.5952 148.663 40.869 147.782 40.3336 146.786C39.7983 145.79 39.4643 144.699 39.3509 143.574C39.1217 141.302 39.8044 139.032 41.2489 137.263C42.6934 135.495 44.7813 134.372 47.0533 134.143L55.8486 133.256L55.8506 133.276Z" fill="#E2497C"/>
<path d="M54.3137 129.886L58.4566 134.308L53.6107 138.848L49.4678 134.425C48.8658 133.783 48.5438 132.927 48.5725 132.047C48.6012 131.167 48.9784 130.335 49.621 129.733C50.2636 129.131 51.119 128.809 51.9991 128.837C52.8791 128.866 53.7117 129.243 54.3137 129.886Z" fill="#E2497C"/>
<path d="M26.5524 148.757C31.3076 148.757 35.1624 144.902 35.1624 140.147C35.1624 135.392 31.3076 131.537 26.5524 131.537C21.7972 131.537 17.9424 135.392 17.9424 140.147C17.9424 144.902 21.7972 148.757 26.5524 148.757Z" fill="#E2497C"/>
<path d="M38.5175 143.893C37.8357 146.073 36.3162 147.892 34.2931 148.951C32.27 150.01 29.909 150.222 27.7297 149.54L19.2832 146.898L24.4241 130.463L32.861 133.102C33.9413 133.439 34.9447 133.985 35.8137 134.71C36.6828 135.434 37.4006 136.323 37.9259 137.325C38.4512 138.327 38.7739 139.423 38.8754 140.55C38.9769 141.677 38.8553 142.813 38.5175 143.893Z" fill="#E2497C"/>
<path d="M30.4942 132.837L25.5459 136.335L21.7127 130.913L26.661 127.415C27.3799 126.906 28.2714 126.705 29.1392 126.853C30.0071 127.002 30.7802 127.49 31.2885 128.209C31.7968 128.928 31.9987 129.819 31.8497 130.687C31.7007 131.555 31.2131 132.328 30.4942 132.837Z" fill="#E2497C"/>
<path d="M22.202 147.426L21.702 147.356L21.382 147.306C21.172 147.306 20.962 147.226 20.782 147.176C20.422 147.096 20.032 147.016 19.692 146.916C19.002 146.726 18.322 146.516 17.692 146.286C17.062 146.056 16.392 145.776 15.752 145.526C15.112 145.276 14.492 144.926 13.872 144.626C11.3733 143.329 9.0979 141.641 7.13198 139.626C5.15445 137.616 3.54654 135.274 2.38198 132.706C1.80959 131.483 1.33802 130.216 0.971972 128.916C0.591972 127.646 0.401964 126.376 0.151964 125.106C-0.193957 123.538 0.0554383 121.898 0.851671 120.504C1.6479 119.109 2.93411 118.061 4.46025 117.562C5.9864 117.064 7.64346 117.15 9.10936 117.805C10.5753 118.46 11.7453 119.637 12.392 121.106L12.992 122.426C13.282 123.076 13.482 123.766 13.792 124.356C14.0746 124.938 14.4093 125.494 14.792 126.016C15.4645 126.991 16.3163 127.829 17.302 128.486C18.2666 129.162 19.3335 129.679 20.462 130.016L21.352 130.246C21.662 130.246 21.952 130.376 22.252 130.406C22.552 130.436 22.842 130.486 23.122 130.496C23.402 130.506 23.382 130.496 23.502 130.496H23.662H23.542C24.6549 130.585 25.7394 130.893 26.7334 131.402C27.7275 131.91 28.6117 132.609 29.3355 133.459C30.0594 134.309 30.6087 135.294 30.9521 136.356C31.2955 137.419 31.4263 138.538 31.337 139.651C31.2477 140.764 30.94 141.849 30.4316 142.843C29.9232 143.837 29.224 144.721 28.3739 145.445C27.5237 146.169 26.5394 146.718 25.477 147.061C24.4146 147.405 23.2949 147.535 22.182 147.446L22.202 147.426Z" fill="#E2497C"/>
<path d="M40.2715 36.0757C40.2715 36.0757 49.5615 22.0757 62.1615 36.0757" stroke="#661E32" stroke-width="7" stroke-miterlimit="10" stroke-linecap="round"/>
</svg>
