<svg width="213" height="110" viewBox="0 0 213 110" fill="none" xmlns="http://www.w3.org/2000/svg">
<path d="M17.1387 91.5331C21.579 91.5331 25.1786 87.9334 25.1786 83.493C25.1786 79.0527 21.579 75.4531 17.1387 75.4531C12.6983 75.4531 9.09863 79.0527 9.09863 83.493C9.09863 87.9334 12.6983 91.5331 17.1387 91.5331Z" fill="#FF8DAE"/>
<path d="M9.84851 93.184L6.93848 79.704L43.2485 62.584L47.8085 85.694L9.84851 93.184Z" fill="#E2497C"/>
<path d="M15.945 76.7717L18.8483 91.4881L9.13547 93.4042L4.44383 69.6226C4.42741 69.5394 4.44474 69.4529 4.49201 69.3824C4.53927 69.3119 4.61254 69.2632 4.6958 69.2468C7.18513 68.7557 9.76769 69.2722 11.8766 70.6829C13.9856 72.0937 15.4488 74.2834 15.945 76.7717Z" fill="#E2497C"/>
<path d="M12.7588 69.3026C17.1992 69.3026 20.7987 65.7029 20.7987 61.2626C20.7987 56.8222 17.1992 53.2227 12.7588 53.2227C8.31842 53.2227 4.71875 56.8222 4.71875 61.2626C4.71875 65.7029 8.31842 69.3026 12.7588 69.3026Z" fill="#FF8DAE"/>
<path d="M5.45789 70.9535L2.54785 57.4635L38.8679 40.3535L43.4279 63.4635L5.45789 70.9535Z" fill="#E2497C"/>
<path d="M11.5671 54.5414L14.4703 69.2577L4.75751 71.1739L0.0619957 47.3726C0.0455693 47.2894 0.0629309 47.203 0.110193 47.1326C0.157455 47.0621 0.230702 47.0132 0.313967 46.9968C2.8067 46.505 5.39277 47.0236 7.50312 48.4385C9.61348 49.8534 11.0753 52.0487 11.5671 54.5414Z" fill="#E2497C"/>
<path d="M55.3486 27.7734C60.0431 27.7734 63.8486 23.9679 63.8486 19.2734C63.8486 14.579 60.0431 10.7734 55.3486 10.7734C50.6542 10.7734 46.8486 14.579 46.8486 19.2734C46.8486 23.9679 50.6542 27.7734 55.3486 27.7734Z" fill="#FF8DAE"/>
<path d="M97.9886 11.3125L57.5586 18.8925" stroke="#E2497C" stroke-width="16.99" stroke-miterlimit="10" stroke-linecap="round"/>
<path d="M58.5458 10.0134L61.6759 26.7228L53.1148 28.3265C50.899 28.7416 48.609 28.2595 46.7487 26.9862C44.8884 25.7129 43.6101 23.7527 43.1951 21.5369C42.78 19.3211 43.2621 17.0312 44.5354 15.1709C45.8087 13.3106 47.7689 12.0322 49.9847 11.6172L58.5654 10.0098L58.5458 10.0134Z" fill="#E2497C"/>
<path d="M56.5847 6.83073L61.0415 10.8478L56.6495 15.7206L52.1927 11.7035C51.5465 11.121 51.1582 10.3058 51.1131 9.43702C51.068 8.56828 51.37 7.71727 51.9524 7.07111C52.5349 6.42494 53.35 6.03656 54.2187 5.99148C55.0875 5.94641 55.9386 6.24831 56.5847 6.83073Z" fill="#E2497C"/>
<path d="M120.828 95.1237C70.3583 110.434 45.8283 110.664 35.9483 62.0337C27.7083 21.3537 43.9482 7.61372 103.028 1.67372C152.708 -3.32628 197.588 1.77376 202.948 32.1438C208.308 62.5138 168.578 80.6337 120.828 95.1237Z" fill="#FF8DAE"/>
<path d="M80.8684 109.683C61.7184 111.903 46.5583 99.8533 39.0483 77.8333C18.2783 16.8933 55.1683 16.3033 74.0483 12.5733C92.9283 8.84326 106.748 43.1732 111.258 65.9932C115.768 88.8132 105.088 106.863 80.8684 109.683Z" fill="#FF8DAE"/>
<path d="M212.809 22.8341C213.159 14.5941 207.809 8.40405 200.009 10.164C197.469 10.564 195.459 13.5241 195.489 16.3241C195.488 17.2556 195.72 18.1725 196.163 18.9916C196.607 19.8106 197.248 20.5059 198.029 21.0141C197.29 21.8826 196.883 22.9842 196.879 24.1241C196.848 24.7863 196.961 25.4474 197.208 26.0624C197.456 26.6774 197.833 27.2319 198.314 27.6882C198.795 28.1445 199.368 28.4919 199.996 28.7069C200.623 28.9219 201.289 28.9993 201.949 28.9341L203.249 40.0841C206.138 38.2165 208.521 35.6652 210.189 32.6563C211.856 29.6474 212.756 26.2738 212.809 22.8341Z" fill="#FFCD40"/>
<path d="M145.048 45.7036C153.89 45.7036 161.058 38.5357 161.058 29.6936C161.058 20.8515 153.89 13.6836 145.048 13.6836C136.206 13.6836 129.038 20.8515 129.038 29.6936C129.038 38.5357 136.206 45.7036 145.048 45.7036Z" fill="#EF6791"/>
<path d="M124.168 19.3135C128.714 19.3135 132.398 15.6289 132.398 11.0836C132.398 6.53825 128.714 2.85352 124.168 2.85352C119.623 2.85352 115.938 6.53825 115.938 11.0836C115.938 15.6289 119.623 19.3135 124.168 19.3135Z" fill="#F9789A"/>
<path d="M133.758 67.9443C138.304 67.9443 141.988 64.2597 141.988 59.7144C141.988 55.1691 138.304 51.4844 133.758 51.4844C129.213 51.4844 125.528 55.1691 125.528 59.7144C125.528 64.2597 129.213 67.9443 133.758 67.9443Z" fill="#F9789A"/>
<path d="M69.5781 96.9453C74.2725 96.9453 78.0781 93.1397 78.0781 88.4453C78.0781 83.7509 74.2725 79.9453 69.5781 79.9453C64.8837 79.9453 61.0781 83.7509 61.0781 88.4453C61.0781 93.1397 64.8837 96.9453 69.5781 96.9453Z" fill="#FF8DAE"/>
<path d="M111.968 79.2734C95.1384 91.6534 71.7783 88.0034 71.7783 88.0034" stroke="#E2497C" stroke-width="16.99" stroke-miterlimit="10" stroke-linecap="round"/>
<path d="M72.626 79.1699L76.2359 95.7822L67.7049 97.636C65.502 98.1147 63.1991 97.6988 61.3029 96.4796C59.4067 95.2604 58.0725 93.3378 57.5938 91.1349C57.1151 88.9319 57.5311 86.6291 58.7503 84.7329C59.9695 82.8367 61.892 81.5024 64.095 81.0237L72.626 79.1699Z" fill="#E2497C"/>
<path d="M70.5924 75.9551L75.1629 79.8422L70.913 84.8394L66.3424 80.9523C65.6797 80.3887 65.2681 79.5849 65.198 78.7179C65.1279 77.8508 65.4052 76.9914 65.9688 76.3287C66.5323 75.666 67.3361 75.2544 68.2032 75.1843C69.0703 75.1142 69.9297 75.3915 70.5924 75.9551Z" fill="#E2497C"/>
<path d="M114.517 47.6116C119.052 46.7169 121.727 40.914 120.491 34.6503C119.255 28.3866 114.577 24.0341 110.042 24.9288C105.507 25.8235 102.832 31.6266 104.068 37.8903C105.303 44.154 109.981 48.5063 114.517 47.6116Z" fill="#E04862"/>
<path d="M110.408 31.1637C111.73 30.9601 113.08 31.2608 114.19 32.0061C115.301 32.7514 116.09 33.8869 116.403 35.1873C116.715 36.4877 116.527 37.858 115.876 39.0262C115.225 40.1944 114.158 41.0751 112.888 41.4937C110.228 42.1237 109.298 39.9038 108.608 37.0538C107.918 34.2038 107.748 31.8037 110.408 31.1637Z" fill="#870051"/>
<path d="M175.278 14.0547C175.278 14.0547 190.628 20.3746 179.458 35.2646" stroke="#661E32" stroke-width="6.8" stroke-miterlimit="10" stroke-linecap="round"/>
<path d="M156.688 34.0528C155.786 35.7205 154.507 37.154 152.951 38.2386C151.396 39.3232 149.609 40.0288 147.732 40.299C145.856 40.5692 143.942 40.3964 142.144 39.7945C140.346 39.1926 138.714 38.1784 137.378 36.8328C135.416 34.7937 134.33 32.0678 134.353 29.2383C134.375 26.4089 135.504 23.7005 137.498 21.6928C139.079 20.1124 141.223 19.2246 143.458 19.2246C145.693 19.2246 147.837 20.1124 149.418 21.6928C150.682 22.9584 151.392 24.674 151.392 26.4628C151.392 28.2515 150.682 29.9672 149.418 31.2328C148.404 32.241 147.033 32.8069 145.603 32.8069C144.173 32.8069 142.802 32.241 141.788 31.2328C140.98 30.4213 140.527 29.3229 140.527 28.1778C140.527 27.0327 140.98 25.9343 141.788 25.1228C142.436 24.4779 143.314 24.116 144.228 24.116C145.143 24.116 146.02 24.4779 146.668 25.1228" stroke="#7A163F" stroke-width="3.4" stroke-miterlimit="10" stroke-linecap="round"/>
<path d="M83.2479 9.21289C79.4879 10.0029 73.4479 12.5529 74.2479 20.7129C74.2548 20.8181 74.2984 20.9176 74.3712 20.994C74.444 21.0703 74.5413 21.1186 74.6461 21.1306C74.7509 21.1425 74.8565 21.1172 74.9446 21.0591C75.0326 21.0011 75.0976 20.9139 75.1279 20.8129C76.4531 16.2716 79.4801 12.417 83.5779 10.0529C83.6892 10.0092 83.7787 9.92294 83.8265 9.81323C83.8743 9.70352 83.8766 9.57928 83.8329 9.46789C83.7891 9.3565 83.7028 9.26706 83.5931 9.21923C83.4834 9.17141 83.3593 9.16913 83.2479 9.21289Z" fill="#F96484"/>
<path d="M86.5779 10.544C83.1379 11.604 76.5779 14.844 76.6879 24.234C76.6892 24.3344 76.7242 24.4315 76.787 24.5097C76.8499 24.588 76.9371 24.643 77.0348 24.666C77.1325 24.689 77.2352 24.6787 77.3263 24.6366C77.4175 24.5946 77.4919 24.5233 77.5379 24.4341C78.9779 21.4341 82.3679 15.2341 86.9979 11.3141C87.0741 11.2465 87.1251 11.1551 87.1426 11.0548C87.1601 10.9545 87.1431 10.8513 87.0944 10.7619C87.0456 10.6725 86.968 10.6023 86.8742 10.5627C86.7804 10.5232 86.6759 10.5166 86.5779 10.544Z" fill="#F96484"/>
<path d="M75.8381 9.67311C76.6781 11.9631 79.0981 17.1431 84.3181 19.3331C84.3758 19.3565 84.4232 19.3998 84.4517 19.4552C84.4801 19.5105 84.4878 19.5743 84.4733 19.6348C84.4587 19.6953 84.4231 19.7486 84.3726 19.785C84.3221 19.8214 84.2601 19.8385 84.1981 19.8331C81.1181 19.6131 74.6781 18.1531 75.3381 9.74312C75.3441 9.68529 75.3692 9.63115 75.4095 9.58931C75.4499 9.54746 75.5031 9.52034 75.5607 9.51228C75.6182 9.50422 75.6769 9.51566 75.7272 9.54481C75.7775 9.57397 75.8165 9.61915 75.8381 9.67311Z" fill="#F96484"/>
<path d="M146.388 76.6732C150.238 76.7332 156.688 75.6033 157.728 67.4633C157.747 67.3579 157.727 67.2493 157.673 67.1571C157.618 67.0649 157.533 66.9951 157.432 66.9602C157.331 66.9253 157.22 66.9275 157.121 66.9665C157.021 67.0056 156.939 67.0789 156.888 67.1732C154.593 71.3092 150.788 74.3978 146.268 75.7932C146.166 75.8245 146.079 75.8911 146.021 75.9811C145.964 76.071 145.94 76.1784 145.954 76.2842C145.969 76.3899 146.02 76.4871 146.1 76.5583C146.179 76.6296 146.281 76.6703 146.388 76.6732Z" fill="#F96484"/>
<path d="M143.498 74.6435C147.078 74.3835 154.168 72.6434 156.188 63.4934C156.211 63.3942 156.199 63.2905 156.154 63.199C156.11 63.1075 156.036 63.0338 155.944 62.9898C155.853 62.9457 155.749 62.934 155.65 62.9564C155.551 62.9789 155.462 63.0343 155.398 63.1136C153.338 65.6636 148.638 71.0135 143.248 73.8035C143.16 73.8538 143.092 73.9325 143.054 74.0268C143.016 74.121 143.011 74.2253 143.04 74.3227C143.069 74.42 143.13 74.5046 143.213 74.5629C143.297 74.6211 143.397 74.6495 143.498 74.6435Z" fill="#F96484"/>
</svg>
