<svg width="113" height="217" viewBox="0 0 113 217" fill="none" xmlns="http://www.w3.org/2000/svg">
<path d="M50.9003 214.658C55.2688 214.658 58.8102 211.116 58.8102 206.748C58.8102 202.379 55.2688 198.838 50.9003 198.838C46.5317 198.838 42.9902 202.379 42.9902 206.748C42.9902 211.116 46.5317 214.658 50.9003 214.658Z" fill="#D43D6F"/>
<path d="M58.8499 216.838H34.37C34.3271 216.838 34.2846 216.829 34.2452 216.813C34.2057 216.796 34.17 216.771 34.1401 216.741C34.1103 216.71 34.0869 216.673 34.0714 216.633C34.0559 216.593 34.0486 216.551 34.05 216.508C34.05 213.943 35.0688 211.484 36.8822 209.67C38.6957 207.857 41.1553 206.838 43.7199 206.838H58.8499V216.838Z" fill="#D43D6F"/>
<path d="M59.0397 178.537L58.8397 212.767L44.8898 214.517L36.2197 181.407L59.0397 178.537Z" fill="#D43D6F"/>
<path d="M73.7801 214.658C78.1487 214.658 81.6901 211.116 81.6901 206.748C81.6901 202.379 78.1487 198.838 73.7801 198.838C69.4115 198.838 65.8701 202.379 65.8701 206.748C65.8701 211.116 69.4115 214.658 73.7801 214.658Z" fill="#E2497C"/>
<path d="M81.7399 216.838H57.2499C57.2066 216.838 57.1637 216.829 57.1237 216.813C57.0836 216.796 57.0472 216.772 57.0166 216.741C56.986 216.711 56.9617 216.674 56.9451 216.634C56.9285 216.594 56.9199 216.551 56.9199 216.508C56.9199 215.237 57.1704 213.979 57.657 212.805C58.1436 211.631 58.8567 210.565 59.7557 209.667C60.6547 208.769 61.7219 208.056 62.8963 207.571C64.0707 207.086 65.3292 206.837 66.5999 206.838H81.7299L81.7399 216.838Z" fill="#E2497C"/>
<path d="M81.9304 178.537L81.7303 212.767L67.7704 214.517L59.1104 181.407L81.9304 178.537Z" fill="#E2497C"/>
<path d="M17.2097 164.908C21.9648 164.908 25.8196 161.053 25.8196 156.298C25.8196 151.542 21.9648 147.688 17.2097 147.688C12.4545 147.688 8.59961 151.542 8.59961 156.298C8.59961 161.053 12.4545 164.908 17.2097 164.908Z" fill="#FF8DAE"/>
<path d="M17.6595 112.357L17.2695 154.027" stroke="#E2497C" stroke-width="17" stroke-miterlimit="10" stroke-linecap="round"/>
<path d="M8.625 151.357L25.8442 151.523L25.7593 160.362C25.7374 162.646 24.8093 164.827 23.1792 166.426C21.5491 168.025 19.3505 168.911 17.0671 168.889C14.7837 168.867 12.6025 167.939 11.0034 166.309C9.40426 164.679 8.51822 162.48 8.54014 160.197L8.625 151.357Z" fill="#E2497C"/>
<path d="M5.08547 152.483L9.93664 148.851L13.916 154.167L9.06485 157.798C8.35997 158.326 7.47433 158.552 6.60277 158.427C5.73121 158.302 4.94511 157.835 4.41742 157.13C3.88972 156.426 3.66365 155.54 3.78893 154.668C3.91422 153.797 4.3806 153.011 5.08547 152.483Z" fill="#E2497C"/>
<path d="M105.44 106.077C110.77 159.247 106.17 183.717 55.91 183.967C13.91 184.177 3.38001 165.387 9.06001 105.457C13.84 55.0968 27.7 11.4568 58.94 12.1168C90.18 12.7768 100.37 55.7468 105.44 106.077Z" fill="#FF8DAE"/>
<path d="M112.07 148.648C110.53 168.128 95.5897 180.828 72.2297 183.978C7.57973 192.678 14.2297 155.898 14.2297 136.358C14.2297 116.818 51.0497 109.848 74.6197 109.848C98.1897 109.848 114.03 124.038 112.07 148.648Z" fill="#FF8DAE"/>
<path d="M58.9399 12.116C33.4399 11.606 19.5299 40.556 12.6699 78.596C18.9099 84.596 30.5899 89.126 51.6699 88.946C76.6699 88.726 91.9899 82.446 101.31 75.106C95.0599 39.326 83.4899 12.606 58.9399 12.116Z" fill="url(#paint0_linear_5963_47566)"/>
<path d="M51.61 0.497047C43.5 -1.50295 36.29 2.65705 36.52 10.737C36.42 13.327 38.97 15.917 41.75 16.437C42.6761 16.6185 43.6329 16.5663 44.5338 16.2852C45.4347 16.0041 46.2513 15.503 46.91 14.827C47.6274 15.7339 48.6453 16.3545 49.78 16.577C50.4322 16.7365 51.1111 16.7537 51.7706 16.6276C52.4301 16.5014 53.0548 16.2348 53.6021 15.8459C54.1494 15.4569 54.6067 14.9548 54.9428 14.3735C55.2789 13.7922 55.486 13.1454 55.55 12.4771L66.89 13.377C65.599 10.1389 63.5291 7.26935 60.8637 5.02262C58.1983 2.7759 55.0198 1.22144 51.61 0.497047Z" fill="#FFCD40"/>
<path d="M45.1497 85.4068C54.1078 85.4068 61.3697 78.1449 61.3697 69.1868C61.3697 60.2287 54.1078 52.9668 45.1497 52.9668C36.1917 52.9668 28.9297 60.2287 28.9297 69.1868C28.9297 78.1449 36.1917 85.4068 45.1497 85.4068Z" fill="#FFFFE9"/>
<path d="M22.5695 94.6273C27.1756 94.6273 30.9095 90.8933 30.9095 86.2873C30.9095 81.6812 27.1756 77.9473 22.5695 77.9473C17.9635 77.9473 14.2295 81.6812 14.2295 86.2873C14.2295 90.8933 17.9635 94.6273 22.5695 94.6273Z" fill="#F9789A"/>
<path d="M72.7804 94.6273C77.3864 94.6273 81.1204 90.8933 81.1204 86.2873C81.1204 81.6812 77.3864 77.9473 72.7804 77.9473C68.1743 77.9473 64.4404 81.6812 64.4404 86.2873C64.4404 90.8933 68.1743 94.6273 72.7804 94.6273Z" fill="#F9789A"/>
<path d="M88.7604 164.327C93.5155 164.327 97.3704 160.473 97.3704 155.717C97.3704 150.962 93.5155 147.107 88.7604 147.107C84.0052 147.107 80.1504 150.962 80.1504 155.717C80.1504 160.473 84.0052 164.327 88.7604 164.327Z" fill="#FF8DAE"/>
<path d="M87.9502 111.777C96.9502 130.937 88.7502 153.437 88.7502 153.437" stroke="#E2497C" stroke-width="17" stroke-miterlimit="10" stroke-linecap="round"/>
<path d="M80.0596 150.951L97.2764 150.621L97.4461 159.459C97.49 161.742 96.6251 163.949 95.0417 165.594C93.4583 167.24 91.2861 168.189 89.003 168.233C86.7199 168.276 84.5129 167.412 82.8675 165.828C81.2222 164.245 80.2731 162.073 80.2293 159.79L80.0596 150.951Z" fill="#E2497C"/>
<path d="M76.5502 152.312L81.3033 148.537L85.427 153.729L80.6817 157.498C79.9922 158.045 79.1134 158.297 78.2386 158.196C77.3639 158.096 76.5647 157.652 76.0171 156.963C75.4694 156.273 75.2181 155.395 75.3184 154.52C75.4187 153.645 75.8624 152.846 76.5519 152.298L76.5502 152.312Z" fill="#E2497C"/>
<path d="M54.9603 71.1977C55.9102 71.1977 56.6802 70.2978 56.6802 69.1877C56.6802 68.0776 55.9102 67.1777 54.9603 67.1777C54.0103 67.1777 53.2402 68.0776 53.2402 69.1877C53.2402 70.2978 54.0103 71.1977 54.9603 71.1977Z" fill="#823227"/>
<path d="M53.2396 106.147C53.2396 112.327 49.6196 113.227 45.1496 113.227C40.6796 113.227 37.0596 112.327 37.0596 106.147C37.0596 99.967 40.6796 94.957 45.1496 94.957C49.6196 94.957 53.2396 99.967 53.2396 106.147Z" fill="#E04862"/>
<path d="M48.9199 105.568C48.9199 108.628 47.1199 109.078 44.9199 109.078C42.7199 109.078 40.9199 108.628 40.9199 105.568C40.9199 102.508 42.7199 100.018 44.9199 100.018C47.1199 100.018 48.9199 102.498 48.9199 105.568Z" fill="#870051"/>
<path d="M48.2498 102.498C47.9849 101.81 47.5303 101.213 46.9391 100.774C46.3478 100.335 45.6441 100.072 44.9097 100.018C44.3823 100.036 43.866 100.175 43.4 100.423C42.9339 100.67 42.5303 101.021 42.2197 101.448C42.8597 102.118 44.4398 102.768 48.2498 102.498Z" fill="#FFFFE9"/>
<path d="M41.0596 106.978C41.5596 108.768 43.0595 109.078 44.9095 109.078C47.1195 109.078 48.9095 108.628 48.9095 105.568C44.3695 105.058 42.1496 105.928 41.0596 106.978Z" fill="#AD0757"/>
<path d="M19.31 44.9169C19.31 44.9169 15.15 49.2669 14.31 57.3869L4.48999 62.657C4.48999 62.657 14.14 55.657 0.0899658 51.197C0.0899658 51.197 20.71 53.197 0 35.877C0 35.877 15.55 46.667 18 33.877L19.31 44.9169Z" fill="#FFCD40"/>
<path d="M35.5098 36.0777C35.5098 36.0777 44.7998 22.0777 57.3998 36.0777" stroke="#661E32" stroke-width="7" stroke-miterlimit="10" stroke-linecap="round"/>
<defs>
<linearGradient id="paint0_linear_5963_47566" x1="53.8199" y1="20.796" x2="57.5899" y2="87.206" gradientUnits="userSpaceOnUse">
<stop stop-color="#CA92E6"/>
<stop offset="0.1" stop-color="#D291DD"/>
<stop offset="0.44" stop-color="#EB8FC3"/>
<stop offset="0.76" stop-color="#FA8DB4"/>
<stop offset="1" stop-color="#FF8DAE"/>
</linearGradient>
</defs>
</svg>
