<svg width="207" height="168" viewBox="0 0 207 168" fill="none" xmlns="http://www.w3.org/2000/svg">
<path d="M49.4825 76.9838C39.0625 71.0638 26.9825 65.2838 16.8325 39.0938" stroke="#399E56" stroke-width="8.16" stroke-miterlimit="10" stroke-linecap="round"/>
<path d="M72.7738 154.373C75.4634 154.373 77.6438 152.192 77.6438 149.503C77.6438 146.813 75.4634 144.633 72.7738 144.633C70.0842 144.633 67.9038 146.813 67.9038 149.503C67.9038 152.192 70.0842 154.373 72.7738 154.373Z" fill="#399E56"/>
<path d="M71.9736 161.354L58.6737 148.424C58.3818 148.128 58.218 147.729 58.218 147.314C58.218 146.898 58.3818 146.499 58.6737 146.204C60.426 144.402 62.8217 143.371 65.3344 143.335C67.847 143.299 70.271 144.263 72.0736 146.014L76.6036 152.394L74.6036 160.394C74.0636 160.874 72.4836 161.844 71.9736 161.354Z" fill="#399E56"/>
<path d="M87.7738 127.013L75.0038 159.113C74.7661 159.71 74.4132 160.254 73.9652 160.715C73.5172 161.175 72.9828 161.543 72.3927 161.797C71.8026 162.051 71.1682 162.186 70.5259 162.195C69.8835 162.204 69.2456 162.086 68.6488 161.848C68.0519 161.61 67.5077 161.258 67.0472 160.81C66.5867 160.362 66.219 159.827 65.9651 159.237C65.7111 158.647 65.5759 158.013 65.5671 157.37C65.5583 156.728 65.6761 156.09 65.9138 155.493C65.9138 155.433 65.9738 155.353 66.0038 155.283L80.2638 123.823C80.6952 122.84 81.4969 122.067 82.4948 121.671C83.4928 121.274 84.6067 121.288 85.5949 121.708C86.5832 122.127 87.366 122.92 87.7739 123.913C88.1818 124.906 88.1818 126.02 87.7738 127.013Z" fill="#399E56"/>
<path d="M73.7114 161.275C75.9453 159.233 74.4727 153.985 70.4223 149.554C66.3719 145.123 61.2775 143.186 59.0437 145.228C56.8098 147.27 58.2823 152.518 62.3326 156.949C66.383 161.38 71.4775 163.317 73.7114 161.275Z" fill="#066C5C"/>
<path d="M99.9608 156.924C102.65 156.924 104.831 154.743 104.831 152.054C104.831 149.364 102.65 147.184 99.9608 147.184C97.2712 147.184 95.0908 149.364 95.0908 152.054C95.0908 154.743 97.2712 156.924 99.9608 156.924Z" fill="#399E56"/>
<path d="M99.1606 163.904L85.8706 150.984C85.5787 150.688 85.415 150.29 85.415 149.874C85.415 149.459 85.5787 149.06 85.8706 148.764C87.6229 146.963 90.0186 145.931 92.5312 145.895C95.0439 145.86 97.468 146.823 99.2706 148.574L103.801 154.954L101.801 162.954C101.251 163.424 99.6806 164.404 99.1606 163.904Z" fill="#399E56"/>
<path d="M114.96 129.574L102.19 161.684C101.953 162.28 101.6 162.825 101.152 163.285C100.704 163.745 100.169 164.113 99.5793 164.367C98.9892 164.621 98.3548 164.756 97.7124 164.765C97.07 164.774 96.4322 164.656 95.8353 164.418C95.2384 164.181 94.6943 163.828 94.2339 163.38C93.7734 162.932 93.4057 162.398 93.1517 161.807C92.8977 161.217 92.7624 160.583 92.7536 159.941C92.7448 159.298 92.8626 158.66 93.1003 158.064C93.1242 157.991 93.1543 157.921 93.1903 157.853L107.45 126.394C107.882 125.41 108.683 124.637 109.681 124.241C110.679 123.845 111.793 123.858 112.781 124.278C113.77 124.698 114.553 125.49 114.961 126.483C115.368 127.476 115.368 128.59 114.96 129.584V129.574Z" fill="#399E56"/>
<path d="M100.904 163.83C103.138 161.788 101.666 156.54 97.6153 152.109C93.5649 147.678 88.4706 145.741 86.2367 147.783C84.0028 149.825 85.4754 155.073 89.5258 159.504C93.5761 163.935 98.6705 165.871 100.904 163.83Z" fill="#066C5C"/>
<path d="M141.314 137.233L67.0736 129.543C63.1095 129.132 59.2668 127.936 55.7701 126.024C52.2733 124.112 49.1927 121.522 46.7079 118.406C44.2232 115.29 42.3841 111.71 41.2983 107.876C40.2124 104.041 39.9015 100.029 40.3837 96.0726L45.8038 51.6325C47.6627 36.4019 55.4062 22.5028 67.3791 12.9069C79.3519 3.31112 94.6037 -1.21994 109.874 0.282498C124.698 1.73126 138.418 8.75768 148.258 19.9397C158.098 31.1218 163.322 45.6244 162.874 60.5125L161.084 119.963C161.009 122.425 160.427 124.846 159.374 127.074C158.321 129.301 156.82 131.288 154.965 132.909C153.109 134.53 150.939 135.75 148.59 136.494C146.241 137.238 143.764 137.49 141.314 137.233Z" fill="#9CE86B"/>
<path d="M146.099 104.704L44.8914 94.7093C35.9877 93.83 28.057 100.335 27.1777 109.239L27.1767 109.249C26.2974 118.152 32.8025 126.083 41.7062 126.962L142.914 136.957C151.818 137.837 159.748 131.331 160.627 122.428L160.628 122.418C161.508 113.514 155.003 105.583 146.099 104.704Z" fill="#9CE86B"/>
<path d="M109.022 106.335C94.4316 102.025 90.7716 91.9848 65.2816 95.3348C51.9516 97.0548 59.9216 72.6848 75.4216 77.0148C90.6016 81.2548 97.1616 75.2448 109.282 74.3148C133.872 72.3848 135.932 114.275 109.022 106.335Z" fill="#E05858"/>
<mask id="mask0_5963_16822" style="mask-type:luminance" maskUnits="userSpaceOnUse" x="58" y="74" width="71" height="34">
<path d="M109.019 106.335C94.4289 102.025 90.7689 91.9848 65.2789 95.3348C51.9489 97.0548 59.919 72.6848 75.419 77.0148C90.599 81.2548 97.1589 75.2448 109.279 74.3148C133.869 72.3848 135.929 114.275 109.019 106.335Z" fill="white"/>
</mask>
<g mask="url(#mask0_5963_16822)">
<path d="M59.9287 101.275C59.9287 101.275 88.0087 81.015 121.929 94.755C155.849 108.495 93.0986 120.475 93.0986 120.475L59.9287 101.275Z" fill="#FF7878"/>
<path d="M114.868 76.3655C114.498 82.4755 103.999 85.2955 91.6785 84.5455C79.3585 83.7955 69.2785 79.7155 69.6785 73.6055C70.0785 67.4955 80.3785 61.8855 92.6785 62.6055C104.979 63.3255 115.208 70.2555 114.868 76.3655Z" fill="#FFFFF0"/>
</g>
<path d="M110.401 67.5417C111.641 66.0585 112.787 64.4987 113.831 62.8717C114.842 61.2937 115.693 59.6187 116.371 57.8717C116.709 57.0125 116.996 56.1343 117.231 55.2417C117.451 54.3428 117.615 53.431 117.721 52.5117C117.914 50.601 117.941 48.6771 117.801 46.7617C118.732 48.5608 119.245 50.5469 119.301 52.5717V53.3417C119.301 53.6017 119.301 53.8517 119.241 54.1117C119.181 54.6217 119.151 55.1117 119.071 55.6417L118.721 57.1517C118.583 57.6476 118.416 58.1352 118.221 58.6117C117.48 60.5159 116.407 62.2732 115.051 63.8017C113.761 65.3405 112.181 66.6112 110.401 67.5417Z" fill="#399E56"/>
<path d="M115.931 66.3525C117.499 64.5192 118.842 62.5049 119.931 60.3525C120.435 59.2831 120.814 58.159 121.061 57.0026C121.288 55.8135 121.368 54.6012 121.301 53.3926C121.765 54.5746 121.953 55.8469 121.851 57.1125C121.735 58.3851 121.397 59.6273 120.851 60.7825C120.298 61.9221 119.599 62.9845 118.771 63.9426C117.951 64.8845 116.994 65.697 115.931 66.3525Z" fill="#399E56"/>
<path d="M75.241 64.582C73.6299 63.358 72.2715 61.8331 71.241 60.092C70.1836 58.3442 69.4392 56.4255 69.041 54.422C68.9343 53.917 68.8574 53.4061 68.8109 52.892L68.731 51.352C68.731 50.832 68.8009 50.352 68.8409 49.812C68.8409 49.552 68.841 49.302 68.911 49.042L69.0909 48.292C69.5035 46.3073 70.358 44.4411 71.5909 42.832C71.115 44.6949 70.8006 46.5952 70.651 48.512C70.596 49.4379 70.596 50.3661 70.651 51.292C70.7278 52.2115 70.8547 53.1262 71.031 54.032C71.3965 55.8636 71.939 57.6554 72.651 59.382C73.4126 61.1642 74.2774 62.9005 75.241 64.582Z" fill="#399E56"/>
<path d="M70.161 62.3418C69.2363 61.4938 68.447 60.5091 67.8209 59.4218C67.1743 58.3354 66.6734 57.1688 66.3309 55.9518C66.0065 54.713 65.895 53.428 66.0009 52.1518C66.126 50.8895 66.5363 49.6722 67.2009 48.5918C66.9232 49.7715 66.7857 50.9799 66.791 52.1918C66.8393 53.3737 67.0135 54.547 67.3109 55.6918C67.9968 58.0126 68.9535 60.2445 70.161 62.3418Z" fill="#399E56"/>
<path d="M94.4016 70.9424C106.149 70.9424 115.672 61.4195 115.672 49.6724C115.672 37.9253 106.149 28.4023 94.4016 28.4023C82.6545 28.4023 73.1316 37.9253 73.1316 49.6724C73.1316 61.4195 82.6545 70.9424 94.4016 70.9424Z" fill="#FFFFF0"/>
<mask id="mask1_5963_16822" style="mask-type:luminance" maskUnits="userSpaceOnUse" x="73" y="28" width="43" height="43">
<path d="M94.4001 70.9404C106.147 70.9404 115.67 61.4175 115.67 49.6704C115.67 37.9233 106.147 28.4004 94.4001 28.4004C82.653 28.4004 73.1301 37.9233 73.1301 49.6704C73.1301 61.4175 82.653 70.9404 94.4001 70.9404Z" fill="white"/>
</mask>
<g mask="url(#mask1_5963_16822)">
<path d="M89.7924 60.4021C94.1388 60.4021 97.6624 56.8786 97.6624 52.5321C97.6624 48.1856 94.1388 44.6621 89.7924 44.6621C85.4459 44.6621 81.9224 48.1856 81.9224 52.5321C81.9224 56.8786 85.4459 60.4021 89.7924 60.4021Z" fill="#2E4F18"/>
<path d="M91.7122 55.6815C72.5922 56.2215 63.5022 65.8215 59.7122 71.6815C62.7174 78.124 67.5781 83.5222 73.6713 87.1842C79.7644 90.8463 86.8124 92.6053 93.9117 92.2357C101.011 91.8661 107.838 89.3848 113.518 85.1099C119.198 80.835 123.472 74.9612 125.792 68.2415C120.392 62.7515 109.592 55.1215 91.7122 55.6815Z" fill="#81D34C"/>
</g>
<path d="M66.4002 52.5173L56.9959 51.5886C52.8958 51.1837 49.2438 54.1792 48.8389 58.2793C48.434 62.3794 51.4295 66.0315 55.5296 66.4364L64.9339 67.3651C69.034 67.77 72.686 64.7744 73.0909 60.6743C73.4958 56.5742 70.5003 52.9223 66.4002 52.5173Z" fill="#FFBB4D"/>
<path d="M137.574 59.5486L128.17 58.6199C124.07 58.215 120.418 61.2105 120.013 65.3106C119.608 69.4107 122.604 73.0627 126.704 73.4676L136.108 74.3964C140.208 74.8013 143.86 71.8058 144.265 67.7057C144.67 63.6056 141.674 59.9535 137.574 59.5486Z" fill="#FFBB4D"/>
<path d="M155.543 81.3152L180.873 61.4851C182.154 60.5629 183.742 60.1723 185.305 60.3952C186.868 60.6182 188.284 61.4373 189.256 62.6811C190.228 63.9248 190.681 65.4965 190.52 67.0669C190.359 68.6373 189.597 70.0845 188.393 71.1051C188.193 71.2632 187.982 71.4069 187.763 71.5351L160.143 88.0451C159.25 88.5772 158.188 88.7494 157.173 88.5268C156.157 88.3041 155.265 87.7033 154.677 86.8465C154.089 85.9896 153.849 84.941 154.006 83.9136C154.163 82.8862 154.705 81.9571 155.523 81.3152H155.543Z" fill="#399E56"/>
<path d="M81.9927 23.1152C81.9927 23.1152 85.8127 33.4353 95.0927 35.2653C102.593 36.7453 113.303 26.5753 113.303 26.5753" fill="#9CE86B"/>
<path d="M81.9927 23.1152C81.9927 23.1152 85.8127 33.4353 95.0927 35.2653C102.593 36.7453 113.303 26.5753 113.303 26.5753" stroke="#284214" stroke-width="4.08" stroke-miterlimit="10" stroke-linecap="round"/>
<path d="M186.722 70.8525C190.163 70.8525 192.952 68.0633 192.952 64.6226C192.952 61.1818 190.163 58.3926 186.722 58.3926C183.281 58.3926 180.492 61.1818 180.492 64.6226C180.492 68.0633 183.281 70.8525 186.722 70.8525Z" fill="#399E56"/>
<path d="M189.762 70.0601C191.199 69.4334 192.748 69.1041 194.315 69.0921C195.883 69.0801 197.436 69.3856 198.882 69.9901C198.882 69.9901 201.322 71.1801 203.212 69.8801C205.102 68.5801 204.522 64.7902 198.212 63.3302C198.212 63.3302 193.152 62.6901 190.602 64.0501" fill="#399E56"/>
<path d="M189.762 70.0607C191.594 69.1311 193.644 68.7196 195.692 68.8707C196.719 68.942 197.73 69.1644 198.692 69.5307C199.548 69.9408 200.495 70.1234 201.442 70.0607C201.872 70.0514 202.291 69.9302 202.66 69.7092C203.028 69.4883 203.332 69.1751 203.542 68.8007C203.685 68.3964 203.718 67.9617 203.639 67.5404C203.56 67.119 203.372 66.7259 203.092 66.4007C202.484 65.6749 201.727 65.0884 200.872 64.6807C199.991 64.2651 199.074 63.9304 198.132 63.6807C196.871 63.4989 195.597 63.422 194.322 63.4507C193.04 63.4176 191.764 63.6315 190.562 64.0807C191.722 63.4901 192.993 63.1494 194.292 63.0807C195.597 62.9757 196.908 62.9757 198.212 63.0807C200.307 63.3903 202.234 64.4064 203.672 65.9607C204.047 66.4052 204.297 66.9416 204.395 67.5147C204.493 68.0877 204.437 68.6766 204.232 69.2207C203.99 69.7669 203.566 70.2123 203.032 70.4807C202.536 70.7528 201.987 70.9133 201.422 70.9507C200.348 70.9901 199.282 70.7561 198.322 70.2707C197.433 69.8706 196.49 69.6044 195.522 69.4807C193.583 69.2276 191.612 69.4261 189.762 70.0607Z" fill="#2D703B"/>
<path d="M191.22 65.7908C191.22 65.7908 195.37 61.4309 200.78 62.8809C200.78 62.8809 203.59 63.7608 205.39 62.0608C207.19 60.3608 205.96 56.4008 199 55.8608C199 55.8608 191.47 55.6609 188.93 59.9409" fill="#399E56"/>
<path d="M191.22 65.7909C192.296 64.6092 193.608 63.6657 195.07 63.021C196.571 62.3713 198.216 62.1264 199.84 62.3109C200.245 62.3597 200.646 62.4365 201.04 62.5409C201.399 62.6216 201.763 62.6718 202.13 62.691C202.85 62.738 203.57 62.6111 204.23 62.321C204.54 62.1699 204.827 61.9745 205.08 61.7409C205.313 61.5177 205.485 61.239 205.58 60.9309C205.666 60.6147 205.684 60.2841 205.634 59.9603C205.584 59.6365 205.467 59.3268 205.29 59.0509C204.411 57.8648 203.132 57.0371 201.69 56.7209C200.951 56.5201 200.2 56.3698 199.44 56.271C198.679 56.1909 197.912 56.1909 197.15 56.271C195.604 56.376 194.079 56.6956 192.62 57.2209C191.133 57.7193 189.842 58.6748 188.93 59.951C189.742 58.5651 190.986 57.4833 192.47 56.8709C193.938 56.2276 195.496 55.816 197.09 55.6509C198.697 55.42 200.333 55.5187 201.9 55.9409C203.567 56.2807 205.048 57.2245 206.06 58.5909C206.318 58.9738 206.488 59.4098 206.555 59.8667C206.623 60.3235 206.587 60.7897 206.45 61.2309C206.297 61.6746 206.036 62.0733 205.69 62.391C205.366 62.6927 204.994 62.9393 204.59 63.1209C203.798 63.4547 202.937 63.592 202.08 63.521C201.662 63.4935 201.246 63.4265 200.84 63.321C200.44 63.211 200.12 63.1309 199.73 63.0609C198.223 62.8058 196.675 62.9506 195.24 63.4809C193.766 63.9891 192.402 64.7731 191.22 65.7909Z" fill="#2D703B"/>
<path d="M189.943 61.8821C191.759 58.9088 194.468 56.5849 197.683 55.2421C197.683 55.2421 200.683 54.0121 201.073 51.2421C201.463 48.4721 197.563 45.972 191.203 50.422C188.254 52.5606 186.176 55.6929 185.353 59.2421" fill="#399E56"/>
<path d="M189.943 61.8814C191.515 58.9563 193.963 56.5962 196.943 55.1314L197.503 54.8413L197.993 54.5814C198.324 54.3913 198.639 54.1739 198.933 53.9313C199.511 53.4705 199.973 52.8817 200.283 52.2114C200.423 51.8921 200.521 51.5559 200.573 51.2114C200.608 50.8733 200.567 50.5316 200.453 50.2114C200.327 49.9011 200.139 49.6193 199.902 49.3823C199.665 49.1454 199.383 48.9581 199.073 48.8314C197.634 48.3699 196.076 48.4517 194.693 49.0613C193.222 49.631 191.838 50.4053 190.583 51.3613C188.106 53.4276 186.288 56.1739 185.353 59.2614C185.968 55.9979 187.641 53.028 190.113 50.8113C191.375 49.7116 192.807 48.8234 194.353 48.1813C195.958 47.4262 197.792 47.3188 199.473 47.8814C199.929 48.055 200.342 48.323 200.687 48.6677C201.032 49.0123 201.3 49.4259 201.473 49.8814C201.632 50.3403 201.683 50.8295 201.623 51.3113C201.564 51.768 201.436 52.2131 201.243 52.6314C200.41 54.1727 199.024 55.341 197.363 55.9013C195.905 56.5463 194.539 57.3838 193.303 58.3914C192.005 59.3684 190.87 60.5465 189.943 61.8814Z" fill="#2D703B"/>
<path d="M180.432 64.2122C180.432 64.2122 176.192 50.5522 183.042 48.4722C183.042 48.4722 187.472 46.8422 186.342 54.4022C186.247 55.9795 186.327 57.5626 186.582 59.1222" fill="#399E56"/>
<path d="M180.432 64.2112C179.661 62.1781 179.137 60.0595 178.872 57.9012C178.725 56.8111 178.678 55.7098 178.732 54.6112C178.768 53.4814 178.995 52.3657 179.402 51.3112C179.819 50.192 180.583 49.2355 181.582 48.5812C182.093 48.2699 182.65 48.0404 183.232 47.9012C183.861 47.7541 184.52 47.8137 185.112 48.0712C185.705 48.3475 186.18 48.8261 186.452 49.4212C186.694 49.9617 186.84 50.5405 186.882 51.1312C186.945 52.2407 186.861 53.3538 186.632 54.4412C186.632 55.2212 186.512 56.0112 186.482 56.7912C186.44 57.5792 186.473 58.3695 186.582 59.1512C186.339 58.3894 186.194 57.5997 186.152 56.8012C186.082 56.0112 186.042 55.2112 186.042 54.4112C186.162 53.3713 186.162 52.3211 186.042 51.2812C186.033 50.8232 185.906 50.3753 185.675 49.9798C185.444 49.5843 185.116 49.2544 184.722 49.0212C184.28 48.8987 183.816 48.8791 183.365 48.9641C182.914 49.049 182.489 49.2362 182.122 49.5112C181.31 50.0576 180.686 50.8393 180.332 51.7512C179.644 53.7238 179.385 55.8204 179.572 57.9012C179.707 60.0223 179.995 62.1311 180.432 64.2112Z" fill="#2D703B"/>
<path d="M184.702 67.5735C186.093 66.785 187.118 65.4809 187.556 63.9429C187.994 62.405 187.809 60.7565 187.042 59.3535" fill="#399E56"/>
<path d="M184.702 67.5735C185.787 66.5286 186.6 65.2344 187.072 63.8035C187.276 63.1096 187.361 62.3859 187.322 61.6635C187.311 61.2856 187.281 60.9084 187.232 60.5335C187.232 60.1535 187.082 59.7735 187.042 59.3535C187.296 59.6654 187.52 60.0002 187.712 60.3535C187.897 60.7255 188.038 61.1183 188.132 61.5236C188.331 62.3613 188.31 63.2362 188.072 64.0635C187.832 64.8878 187.392 65.6401 186.792 66.2535C186.217 66.8615 185.498 67.3154 184.702 67.5735Z" fill="#2D703B"/>
<path d="M149.424 59.9848C150.244 62.8248 152.164 64.0348 153.964 63.5248C155.764 63.0148 156.744 60.9548 155.964 58.1148C155.184 55.2748 150.464 51.2148 150.464 51.2148C150.464 51.2148 148.604 57.1448 149.424 59.9848Z" fill="#CAF5FF"/>
<path d="M56.2441 41.3439C55.5841 43.1939 56.154 44.5939 57.314 45.0039C58.474 45.4139 59.8041 44.7039 60.4641 42.8539C61.1241 41.0039 60.1641 37.0039 60.1641 37.0039C60.1641 37.0039 56.8741 39.5039 56.2441 41.3439Z" fill="#CAF5FF"/>
<path d="M138.034 50.6833C138.574 52.5633 139.844 53.3733 141.034 53.0233C142.224 52.6733 142.884 51.3233 142.344 49.4433C141.804 47.5633 138.694 44.8633 138.694 44.8633C138.694 44.8633 137.484 48.8333 138.034 50.6833Z" fill="#CAF5FF"/>
<path d="M19.3638 46.6816C22.4013 46.6816 24.8638 44.2192 24.8638 41.1816C24.8638 38.1441 22.4013 35.6816 19.3638 35.6816C16.3262 35.6816 13.8638 38.1441 13.8638 41.1816C13.8638 44.2192 16.3262 46.6816 19.3638 46.6816Z" fill="#399E56"/>
<path d="M21.2031 35.8996C19.9859 34.7626 19.0125 33.39 18.3421 31.8652C17.6717 30.3404 17.3182 28.6952 17.3032 27.0296C17.3032 27.0296 17.4431 24.1396 15.3831 22.8396C13.3231 21.5396 9.86306 23.6997 11.0631 30.4497C11.0631 30.4497 12.5631 35.6597 14.9631 37.5797" fill="#399E56"/>
<path d="M21.2029 35.8996C19.5252 34.5075 18.2626 32.681 17.553 30.6196C17.1881 29.5756 16.9759 28.4843 16.923 27.3796C16.9665 26.3716 16.7496 25.3693 16.293 24.4696C16.1373 24.0321 15.8518 23.6526 15.4746 23.3818C15.0974 23.111 14.6465 22.9618 14.1822 22.9542C13.718 22.9466 13.2623 23.0809 12.8765 23.3392C12.4906 23.5975 12.1928 23.9674 12.0229 24.3996C11.5673 25.2915 11.3049 26.2695 11.2529 27.2697C11.2033 28.3087 11.2535 29.3502 11.4029 30.3796C11.7563 31.6877 12.2144 32.9652 12.7729 34.1996C13.0401 34.8258 13.3543 35.4309 13.7129 36.0096C14.0637 36.594 14.4871 37.1316 14.9729 37.6096C13.8931 36.734 13.0106 35.6401 12.3829 34.3996C11.7304 33.1709 11.1818 31.8898 10.7429 30.5696C10.513 29.4921 10.4122 28.391 10.4429 27.2896C10.4633 26.1482 10.7438 25.0264 11.2629 24.0096C11.5441 23.4502 11.9715 22.9773 12.4996 22.6411C13.0278 22.3048 13.6371 22.1177 14.2629 22.0996C14.8997 22.1136 15.513 22.3427 16.0029 22.7496C16.4716 23.1218 16.8567 23.5886 17.1329 24.1196C17.6203 25.1519 17.8404 26.2901 17.7729 27.4296C17.7518 28.4672 17.8866 29.5021 18.173 30.4996C18.7489 32.5109 19.7863 34.36 21.2029 35.8996Z" fill="#2D703B"/>
<path d="M16.8742 36.5001C16.8742 36.5001 11.2742 34.6101 10.3242 29.2001C10.3242 29.2001 9.94427 26.3301 7.67427 25.4301C5.40427 24.5301 2.40416 27.2801 4.81416 33.6901C4.81416 33.6901 7.81422 40.4801 12.6242 40.9601" fill="#399E56"/>
<path d="M16.8741 36.5C15.3978 36.0241 14.0359 35.2478 12.8741 34.2199C11.6672 33.1578 10.7632 31.795 10.2542 30.27C10.1317 29.8902 10.0348 29.5027 9.96411 29.11C9.88619 28.7681 9.77919 28.4335 9.64417 28.11C9.39043 27.4473 8.97838 26.8569 8.44409 26.39C8.21718 26.1539 7.93851 25.9739 7.63001 25.8642C7.32151 25.7545 6.99175 25.7181 6.66675 25.7579C6.34175 25.7977 6.03039 25.9125 5.75745 26.0934C5.48451 26.2743 5.25741 26.5162 5.09412 26.8C4.401 28.0771 4.19496 29.5624 4.51416 30.98C4.64226 31.7176 4.81935 32.4458 5.04419 33.1599C5.28568 33.8581 5.60073 34.5285 5.98413 35.1599C6.72178 36.4935 7.64048 37.7184 8.71411 38.8C9.7841 39.9248 11.1856 40.6781 12.7141 40.95C11.1433 40.8067 9.66359 40.1494 8.50415 39.08C7.31663 38.0457 6.30363 36.8267 5.50415 35.4699C5.06482 34.8069 4.69617 34.0998 4.40418 33.36C4.11992 32.6182 3.90564 31.8516 3.76416 31.07C3.36857 29.4474 3.59325 27.7355 4.39417 26.27C4.62645 25.8799 4.94426 25.5476 5.32361 25.2981C5.70296 25.0487 6.1339 24.8887 6.58411 24.83C7.04288 24.7815 7.50662 24.8468 7.93421 25.02C8.33306 25.1899 8.70389 25.4192 9.03418 25.7C9.66066 26.2672 10.141 26.9774 10.4342 27.77C10.5791 28.1536 10.6927 28.5482 10.7742 28.95C10.8442 29.36 10.9041 29.68 10.9941 30.05C11.3924 31.4979 12.165 32.8154 13.2341 33.87C14.2735 34.9652 15.5079 35.8571 16.8741 36.5Z" fill="#2D703B"/>
<path d="M14.1148 38.448C14.1148 38.448 10.7249 38.588 6.55485 35.008C6.55485 35.008 4.4348 33.008 2.1248 33.778C-0.1852 34.548 -0.7852 38.548 5.1248 41.978C8.12397 43.4102 11.4368 44.0604 14.7548 43.868" fill="#399E56"/>
<path d="M14.1146 38.4489C12.6686 38.4723 11.2362 38.168 9.92463 37.5589C8.60761 36.953 7.37408 36.18 6.25458 35.2589C5.76878 34.828 5.19901 34.5025 4.58112 34.3028C3.96324 34.1032 3.31068 34.0337 2.66462 34.0988C2.37449 34.1332 2.0959 34.2329 1.84992 34.3905C1.60394 34.5482 1.39696 34.7596 1.24458 35.0089C0.943641 35.5323 0.847423 36.1486 0.974556 36.7389C1.31766 38.0259 2.05557 39.1731 3.08454 40.0189C3.597 40.4804 4.14172 40.9048 4.71455 41.2888C5.28193 41.6892 5.89248 42.0246 6.53461 42.2888C9.14419 43.3781 11.9469 43.9291 14.7746 43.9088C11.9152 44.2371 9.01859 43.8947 6.31452 42.9088C5.61501 42.6793 4.94399 42.3707 4.31452 41.9889C3.68457 41.6193 3.08897 41.1943 2.53461 40.7188C1.32916 39.7776 0.465043 38.4675 0.0745313 36.9889C-0.10041 36.1759 0.0351478 35.3269 0.454536 34.6089C0.680975 34.2551 0.981562 33.9547 1.33552 33.7285C1.68947 33.5023 2.0884 33.3557 2.50459 33.2989C3.28824 33.1855 4.08786 33.2785 4.82453 33.5689C5.53302 33.8502 6.18897 34.2491 6.76459 34.7489C7.78268 35.6985 8.91466 36.5181 10.1346 37.1889C11.3687 37.8591 12.7196 38.2868 14.1146 38.4489Z" fill="#2D703B"/>
<path d="M24.7552 42.2813C24.7552 42.2813 31.8853 31.8613 26.6453 28.2813C26.6453 28.2813 23.3352 25.7513 22.3252 32.4213C21.993 33.7795 21.5135 35.0973 20.8953 36.3513" fill="#399E56"/>
<path d="M24.7552 42.2909C25.664 40.63 26.4592 38.9094 27.1353 37.1409C27.8456 35.4351 28.1864 33.5981 28.1353 31.7509C28.0743 30.8893 27.7535 30.0664 27.2152 29.3909C26.974 29.0664 26.6626 28.8007 26.3041 28.6137C25.9456 28.4266 25.5494 28.3231 25.1453 28.3109C24.4053 28.3109 23.8153 29.0709 23.4353 29.8709C23.0594 30.7149 22.7874 31.6014 22.6252 32.5109C22.4252 33.1809 22.1753 33.8409 21.9153 34.5109C21.6654 35.1785 21.3292 35.8106 20.9153 36.3909C21.2107 35.7487 21.4418 35.0787 21.6052 34.3909C21.7852 33.7209 21.9352 33.0409 22.0952 32.3909C22.1994 31.4145 22.421 30.4542 22.7552 29.5309C22.9391 29.0449 23.2065 28.5949 23.5453 28.2009C23.9344 27.7716 24.4616 27.4921 25.0353 27.4109C25.602 27.352 26.1727 27.4746 26.6653 27.7609C27.1206 28.03 27.532 28.3673 27.8853 28.7609C28.5514 29.5759 28.9433 30.5802 29.0052 31.6309C29.0659 33.6062 28.6328 35.5653 27.7452 37.3309C26.9502 39.0977 25.9464 40.7629 24.7552 42.2909Z" fill="#2D703B"/>
<path d="M15.3047 38.829C15.3047 38.829 21.0247 37.8289 22.3047 42.6189L15.3047 38.829Z" fill="#399E56"/>
<path d="M15.3047 38.829C16.0092 38.5449 16.7655 38.412 17.5247 38.439C18.3067 38.4561 19.0778 38.6259 19.7947 38.939C20.5236 39.2692 21.1491 39.7911 21.6046 40.449C22.0467 41.0875 22.2903 41.8425 22.3047 42.619C21.9619 41.9984 21.5419 41.4238 21.0547 40.9089C20.5786 40.4317 20.0194 40.0454 19.4047 39.769C18.0939 39.2484 16.7113 38.9314 15.3047 38.829Z" fill="#2D703B"/>
</svg>
