<svg width="130" height="157" viewBox="0 0 130 157" fill="none" xmlns="http://www.w3.org/2000/svg">
<path d="M110.939 79.1602C110.939 79.1602 124.629 85.1602 124.309 96.5702" stroke="#399E56" stroke-width="7.85" stroke-miterlimit="10" stroke-linecap="round"/>
<path d="M83.4188 152.568C85.5506 152.568 87.2788 150.839 87.2788 148.708C87.2788 146.576 85.5506 144.848 83.4188 144.848C81.287 144.848 79.5588 146.576 79.5588 148.708C79.5588 150.839 81.287 152.568 83.4188 152.568Z" fill="#9CE86B"/>
<path d="M77.9288 156.938H94.9288C95.2277 156.935 95.5136 156.815 95.725 156.604C95.9363 156.393 96.0562 156.107 96.0588 155.808V155.528C96.0588 153.268 95.1612 151.101 93.5634 149.503C91.9655 147.905 89.7985 147.008 87.5388 147.008L77.6188 151.308L76.8188 155.768C76.8134 156.069 76.9267 156.361 77.1343 156.58C77.342 156.799 77.6273 156.927 77.9288 156.938Z" fill="#399E56"/>
<path d="M81.2889 122.648C81.2889 122.648 86.9589 139.118 81.2889 152.578" stroke="#399E56" stroke-width="7.85" stroke-miterlimit="10" stroke-linecap="round"/>
<path d="M48.5895 154.949C50.7213 154.949 52.4495 153.22 52.4495 151.089C52.4495 148.957 50.7213 147.229 48.5895 147.229C46.4577 147.229 44.7295 148.957 44.7295 151.089C44.7295 153.22 46.4577 154.949 48.5895 154.949Z" fill="#9CE86B"/>
<path d="M43.4693 156.938H60.4693C60.7629 156.925 61.0402 156.799 61.2433 156.587C61.4464 156.375 61.5596 156.092 61.5593 155.798V155.518C61.5593 153.258 60.6616 151.091 59.0638 149.493C57.466 147.896 55.2989 146.998 53.0393 146.998L44.0393 150.158L42.3393 155.758C42.3353 155.91 42.3614 156.061 42.4162 156.203C42.4709 156.344 42.5532 156.474 42.6583 156.584C42.7634 156.693 42.8891 156.781 43.0283 156.842C43.1675 156.903 43.3174 156.935 43.4693 156.938Z" fill="#399E56"/>
<path d="M49.5093 122.648C51.7304 127.294 52.7135 132.434 52.363 137.571C52.0126 142.708 50.3407 147.668 47.5093 151.968" stroke="#399E56" stroke-width="7.85" stroke-miterlimit="10" stroke-linecap="round"/>
<path d="M17.3078 128.17L89.1277 127.82C92.9617 127.801 96.7535 127.019 100.282 125.518C103.81 124.018 107.004 121.83 109.678 119.082C112.351 116.334 114.451 113.081 115.853 109.513C117.256 105.945 117.934 102.133 117.848 98.3L116.848 55.23C116.511 40.4664 110.409 26.421 99.8478 16.0991C89.2867 5.77725 75.1052 -0.00123282 60.3378 1.2674e-06C46.0138 -0.00303032 32.2231 5.43262 21.7533 15.2081C11.2836 24.9835 4.91604 38.3695 3.93779 52.66L0.0377693 109.8C-0.11875 112.16 0.212306 114.527 1.01036 116.754C1.80842 118.98 3.05639 121.019 4.6765 122.742C6.29661 124.465 8.25418 125.837 10.4273 126.77C12.6004 127.704 14.9425 128.181 17.3078 128.17Z" fill="#9CE86B"/>
<path d="M15.7975 127.76L113.658 127.76C122.268 127.76 129.248 120.78 129.248 112.17C129.248 103.56 122.268 96.5798 113.658 96.5798L15.7975 96.5798C7.18742 96.5798 0.207581 103.56 0.207581 112.17C0.207581 120.78 7.18742 127.76 15.7975 127.76Z" fill="#9CE86B"/>
<path d="M70.5105 69.2291C81.8158 69.2291 90.9805 60.0644 90.9805 48.7591C90.9805 37.4538 81.8158 28.2891 70.5105 28.2891C59.2052 28.2891 50.0405 37.4538 50.0405 48.7591C50.0405 60.0644 59.2052 69.2291 70.5105 69.2291Z" fill="#FFFFF0"/>
<mask id="mask0_5963_24025" style="mask-type:luminance" maskUnits="userSpaceOnUse" x="50" y="28" width="41" height="42">
<path d="M70.5144 69.231C81.8197 69.231 90.9844 60.0663 90.9844 48.761C90.9844 37.4558 81.8197 28.291 70.5144 28.291C59.2091 28.291 50.0444 37.4558 50.0444 48.761C50.0444 60.0663 59.2091 69.231 70.5144 69.231Z" fill="white"/>
</mask>
<g mask="url(#mask0_5963_24025)">
<path d="M77.0221 69.2307C83.031 69.2307 87.9021 64.3596 87.9021 58.3507C87.9021 52.3419 83.031 47.4707 77.0221 47.4707C71.0132 47.4707 66.1421 52.3419 66.1421 58.3507C66.1421 64.3596 71.0132 69.2307 77.0221 69.2307Z" fill="#2E4F18"/>
</g>
<path d="M58.1187 19.6406C58.9286 22.4945 60.624 25.0172 62.9605 26.8451C65.297 28.673 68.1538 29.7114 71.1187 29.8106C82.8887 30.6606 85.3186 20.4706 85.3186 20.4706" stroke="#284214" stroke-width="3.93" stroke-miterlimit="10" stroke-linecap="round"/>
<path d="M97.0583 68.5H106.148C110.114 68.5 113.328 65.2854 113.328 61.32C113.328 57.3546 110.114 54.14 106.148 54.14H97.0583C93.0929 54.14 89.8784 57.3546 89.8784 61.32C89.8784 65.2854 93.0929 68.5 97.0583 68.5Z" fill="#FFBB4D"/>
<path d="M28.2283 68.5H37.3183C41.2837 68.5 44.4983 65.2854 44.4983 61.32C44.4983 57.3546 41.2837 54.14 37.3183 54.14H28.2283C24.2629 54.14 21.0483 57.3546 21.0483 61.32C21.0483 65.2854 24.2629 68.5 28.2283 68.5Z" fill="#FFBB4D"/>
<path d="M22.2786 78.4297C22.2786 78.4297 9.27863 118.68 63.0386 117.13" stroke="#399E56" stroke-width="7.85" stroke-miterlimit="10" stroke-linecap="round"/>
<path d="M94.9885 116.18C94.9885 116.18 122.798 110.48 124.318 97.1797" stroke="#399E56" stroke-width="7.85" stroke-miterlimit="10" stroke-linecap="round"/>
<path d="M64.9984 79.4675C64.9984 79.4675 66.5984 72.0575 72.4084 72.3275C78.2184 72.5975 81.1584 82.4975 64.9984 83.2175C64.9984 83.2175 73.7584 82.3475 74.1784 86.6575C74.5984 90.9675 68.1784 92.1075 64.7284 87.8275" stroke="#E05858" stroke-width="2.36" stroke-miterlimit="10" stroke-linecap="round"/>
<path d="M97.8959 111.9C95.9517 110.754 94.129 109.414 92.4559 107.9C90.4559 105.9 89.4559 105.06 88.1359 105.83C86.8159 106.6 86.2859 111.12 92.1359 114.28C92.1359 114.28 90.8459 118.63 95.0459 119.07" fill="#399E56"/>
<path d="M97.896 111.9C96.2002 111.033 94.5956 109.997 93.106 108.81C92.356 108.2 91.686 107.51 90.986 106.92C90.286 106.33 89.516 105.71 88.796 105.92C88.6099 105.969 88.4339 106.05 88.276 106.16C88.1313 106.265 88.0174 106.407 87.9459 106.57C87.7455 106.949 87.6457 107.372 87.656 107.8C87.64 108.682 87.861 109.553 88.296 110.32C89.2568 111.887 90.6164 113.171 92.236 114.04L92.426 114.16L92.366 114.37C92.0518 115.351 92.0835 116.41 92.456 117.37C92.6591 117.847 93.0095 118.247 93.456 118.51C93.9268 118.779 94.4414 118.961 94.976 119.05C94.4198 119.037 93.8721 118.911 93.366 118.68C92.8403 118.44 92.403 118.042 92.116 117.54C91.842 117.031 91.6848 116.468 91.656 115.89C91.6209 115.316 91.6714 114.74 91.806 114.18L91.936 114.5C90.1532 113.663 88.6524 112.325 87.616 110.65C87.0957 109.77 86.8291 108.763 86.846 107.74C86.8557 107.206 86.9928 106.681 87.246 106.21C87.3851 105.948 87.5837 105.722 87.8259 105.55C88.0581 105.39 88.3199 105.278 88.596 105.22C89.1512 105.106 89.7291 105.214 90.206 105.52C90.6273 105.785 91.0224 106.09 91.3859 106.43C92.0959 107.09 92.7059 107.82 93.3859 108.43C94.814 109.682 96.3204 110.841 97.896 111.9Z" fill="#2D703B"/>
<path d="M95.5477 120.587C98.1434 120.587 100.248 118.483 100.248 115.888C100.248 113.292 98.1434 111.188 95.5477 111.188C92.9519 111.188 90.8477 113.292 90.8477 115.888C90.8477 118.483 92.9519 120.587 95.5477 120.587Z" fill="#399E56"/>
<path d="M94.3867 111.04C94.3867 111.04 79.3867 105.79 77.6967 110.54C77.6967 110.54 76.2967 114.72 83.5067 114.64C90.0267 114.56 91.1767 114.83 91.1767 114.83" fill="#399E56"/>
<path d="M94.3867 111.039C91.6853 110.267 88.9405 109.656 86.1667 109.209C84.797 108.997 83.4127 108.893 82.0267 108.899C80.6967 108.899 79.2067 109.159 78.4067 110.079C78.2203 110.294 78.0898 110.551 78.0267 110.829C77.9718 111.133 77.9718 111.445 78.0267 111.749C78.1266 112.355 78.4606 112.897 78.9567 113.259C80.1048 113.95 81.4272 114.297 82.7667 114.259C85.5854 114.246 88.4018 114.423 91.1967 114.789C89.7867 114.709 88.3867 114.789 86.9767 114.789C85.5667 114.789 84.1867 114.899 82.7467 114.909C81.2591 114.955 79.7898 114.57 78.5167 113.799C77.8536 113.322 77.4046 112.604 77.2667 111.799C77.2018 111.405 77.2018 111.003 77.2667 110.609C77.3558 110.198 77.5525 109.819 77.8367 109.509C78.3725 108.937 79.0704 108.543 79.8367 108.379C80.548 108.212 81.2761 108.128 82.0067 108.129C83.438 108.129 84.8656 108.276 86.2667 108.569C89.0442 109.138 91.7626 109.965 94.3867 111.039Z" fill="#2D703B"/>
<path d="M91.6576 113.437C91.6576 113.437 85.0376 113.087 85.4176 115.967C85.7976 118.847 88.2976 118.507 92.1776 117.367" fill="#399E56"/>
<path d="M91.6576 113.437C90.3761 113.528 89.1047 113.728 87.8577 114.037C87.2808 114.183 86.7397 114.445 86.2676 114.807C86.0674 114.966 85.9207 115.183 85.8474 115.428C85.7741 115.673 85.7777 115.935 85.8577 116.177C85.8895 116.447 85.9804 116.705 86.1239 116.935C86.2674 117.165 86.4599 117.361 86.6877 117.507C87.2049 117.777 87.7854 117.901 88.3677 117.867C89.647 117.782 90.9196 117.615 92.1777 117.367C90.9765 117.912 89.7036 118.283 88.3976 118.467C87.6846 118.576 86.9555 118.464 86.3077 118.147C85.9844 117.954 85.7082 117.692 85.4989 117.379C85.2896 117.066 85.1526 116.71 85.0976 116.337C85.0465 116.155 85.0262 115.966 85.0377 115.777C85.019 115.577 85.0464 115.375 85.1177 115.187C85.2358 114.806 85.4743 114.472 85.7977 114.237C86.3699 113.826 87.0311 113.555 87.7277 113.447C89.0283 113.229 90.3559 113.226 91.6576 113.437Z" fill="#2D703B"/>
<path d="M92.8465 116.508C92.8465 116.508 86.2765 117.418 87.1965 120.168C88.1165 122.918 90.5065 122.168 94.0965 120.268" fill="#399E56"/>
<path d="M92.8462 116.508C91.6074 116.835 90.3995 117.27 89.2362 117.808C88.6949 118.059 88.2114 118.42 87.8162 118.868C87.6492 119.061 87.5453 119.3 87.5185 119.554C87.4917 119.808 87.5432 120.064 87.6662 120.288C87.7494 120.546 87.8871 120.783 88.07 120.983C88.2529 121.183 88.4767 121.342 88.7262 121.448C89.2896 121.599 89.8828 121.599 90.4462 121.448C91.6884 121.126 92.9078 120.722 94.0962 120.238C93.0246 121.005 91.8451 121.608 90.5962 122.028C89.9188 122.274 89.1821 122.305 88.4862 122.118C88.13 121.988 87.8071 121.781 87.5408 121.511C87.2745 121.241 87.0714 120.916 86.9462 120.558C86.8678 120.39 86.8139 120.211 86.7862 120.028C86.7461 119.83 86.7461 119.626 86.7862 119.428C86.7966 119.225 86.8511 119.027 86.9462 118.848C87.0244 118.671 87.1326 118.508 87.2662 118.368C87.7544 117.859 88.3532 117.469 89.0162 117.228C90.2451 116.781 91.5388 116.538 92.8462 116.508Z" fill="#2D703B"/>
<path d="M59.2983 113.071C61.1815 111.817 62.9307 110.373 64.5183 108.761C66.4383 106.651 67.3583 105.761 68.7383 106.471C70.1183 107.181 70.8583 111.661 65.1983 115.111C65.1983 115.111 66.7083 119.391 62.5383 120.051" fill="#399E56"/>
<path d="M59.2983 113.071C60.7972 111.923 62.2264 110.688 63.5783 109.371C64.2283 108.711 64.7983 107.961 65.4783 107.261C65.8212 106.891 66.1997 106.556 66.6083 106.261C67.0721 105.931 67.6459 105.795 68.2083 105.881C68.4847 105.926 68.7496 106.024 68.9883 106.171C69.2418 106.325 69.4518 106.542 69.5983 106.801C69.8796 107.253 70.0445 107.769 70.0783 108.301C70.1588 109.339 69.9439 110.379 69.4583 111.301C68.5066 113.026 67.0757 114.44 65.3383 115.371L65.4583 115.041C65.6187 115.593 65.6962 116.166 65.6884 116.741C65.6926 117.319 65.5625 117.891 65.3083 118.411C65.0565 118.929 64.642 119.35 64.1283 119.611C63.6333 119.866 63.0932 120.022 62.5383 120.071C63.0664 119.95 63.5702 119.74 64.0283 119.451C64.4796 119.17 64.8299 118.753 65.0283 118.261C65.3457 117.282 65.321 116.224 64.9583 115.261L64.8883 115.061L65.0783 114.931C66.6494 113.977 67.9399 112.625 68.8183 111.011C69.2168 110.223 69.3931 109.341 69.3283 108.461C69.3139 108.047 69.2008 107.642 68.9984 107.281C68.929 107.094 68.8117 106.928 68.6583 106.801C68.4974 106.696 68.3172 106.625 68.1283 106.591C67.3983 106.421 66.6484 107.081 65.9984 107.701C65.3484 108.321 64.6984 109.061 63.9984 109.701C62.5456 110.975 60.9714 112.104 59.2983 113.071Z" fill="#2D703B"/>
<path d="M61.8382 121.63C64.4339 121.63 66.5382 119.526 66.5382 116.93C66.5382 114.335 64.4339 112.23 61.8382 112.23C59.2425 112.23 57.1382 114.335 57.1382 116.93C57.1382 119.526 59.2425 121.63 61.8382 121.63Z" fill="#399E56"/>
<path d="M62.7568 112.019C62.7568 112.019 77.4169 106.019 79.3969 110.669C79.3969 110.669 81.0069 114.779 73.7969 115.059C67.2869 115.319 66.1569 115.649 66.1569 115.649" fill="#399E56"/>
<path d="M62.7568 112.02C65.3305 110.837 68.0087 109.896 70.7568 109.21C72.1403 108.846 73.5581 108.628 74.9869 108.56C75.7165 108.522 76.4481 108.569 77.1669 108.7C77.9417 108.817 78.663 109.166 79.2369 109.7C79.5306 110.002 79.7438 110.373 79.8569 110.78C79.9471 111.166 79.9674 111.566 79.9169 111.96C79.8097 112.748 79.4011 113.465 78.7769 113.96C77.5438 114.795 76.0959 115.257 74.6069 115.29C73.1769 115.35 71.7868 115.29 70.3768 115.38C68.9668 115.47 67.5669 115.43 66.1669 115.59C68.9378 115.067 71.7409 114.733 74.5569 114.59C75.8974 114.547 77.1981 114.124 78.3069 113.37C78.784 112.977 79.089 112.414 79.1569 111.8C79.1917 111.495 79.1714 111.187 79.0969 110.89C79.0162 110.617 78.8723 110.366 78.6769 110.16C77.8369 109.28 76.3368 109.16 75.0068 109.16C73.6186 109.224 72.2376 109.398 70.8768 109.68C68.1244 110.291 65.4125 111.072 62.7568 112.02Z" fill="#2D703B"/>
<path d="M65.6589 114.279C65.6589 114.279 72.2488 113.599 72.0089 116.489C71.7689 119.379 69.2689 119.169 65.3389 118.229" fill="#399E56"/>
<path d="M65.6592 114.279C66.9498 114 68.2776 113.936 69.5892 114.089C70.3013 114.156 70.987 114.393 71.5892 114.779C71.7575 114.878 71.9038 115.011 72.0192 115.169C72.1515 115.322 72.2533 115.498 72.3192 115.689C72.3949 115.876 72.4324 116.077 72.4292 116.279C72.4555 116.465 72.4555 116.653 72.4292 116.839C72.3917 117.215 72.2719 117.579 72.0784 117.904C71.8848 118.228 71.6223 118.507 71.3092 118.719C70.6767 119.063 69.9557 119.209 69.2392 119.139C67.9253 119.022 66.6352 118.716 65.4092 118.229C66.6774 118.417 67.9572 118.517 69.2392 118.529C69.8225 118.538 70.3971 118.386 70.8992 118.089C71.118 117.931 71.2989 117.725 71.4286 117.489C71.5583 117.252 71.6337 116.989 71.6492 116.719C71.7212 116.473 71.7147 116.211 71.6304 115.969C71.5462 115.727 71.3884 115.517 71.1792 115.369C70.6864 115.034 70.1325 114.8 69.5492 114.679C68.2664 114.434 66.9649 114.301 65.6592 114.279Z" fill="#2D703B"/>
<path d="M64.5795 117.41C64.5795 117.41 71.1795 117.98 70.3995 120.77C69.6195 123.56 67.1995 122.9 63.5195 121.23" fill="#399E56"/>
<path d="M64.5795 117.409C65.8975 117.379 67.2116 117.565 68.4695 117.959C69.1428 118.165 69.7591 118.525 70.2695 119.009C70.5424 119.284 70.7301 119.631 70.8096 120.009C70.8497 120.207 70.8497 120.411 70.8096 120.609C70.7875 120.794 70.7438 120.975 70.6796 121.149C70.5718 121.513 70.3851 121.849 70.1327 122.132C69.8803 122.416 69.5685 122.64 69.2195 122.789C68.5326 123.004 67.7965 123.004 67.1096 122.789C65.8416 122.428 64.6324 121.886 63.5195 121.179C64.7307 121.59 65.9665 121.924 67.2195 122.179C67.7933 122.294 68.3873 122.253 68.9396 122.059C69.184 121.942 69.4 121.773 69.5726 121.564C69.7453 121.356 69.8705 121.112 69.9396 120.849C70.0526 120.62 70.0921 120.362 70.0527 120.11C70.0134 119.857 69.897 119.623 69.7195 119.439C69.3036 119.008 68.8032 118.668 68.2496 118.439C67.0598 117.986 65.8314 117.641 64.5795 117.409Z" fill="#2D703B"/>
</svg>
