<svg width="135" height="163" viewBox="0 0 135 163" fill="none" xmlns="http://www.w3.org/2000/svg">
<path d="M47.1227 157.19C49.2214 157.19 50.9227 155.489 50.9227 153.39C50.9227 151.291 49.2214 149.59 47.1227 149.59C45.0241 149.59 43.3228 151.291 43.3228 153.39C43.3228 155.489 45.0241 157.19 47.1227 157.19Z" fill="#9CE86B"/>
<path d="M49.9027 162.93H33.2327C32.9383 162.93 32.656 162.813 32.4478 162.605C32.2396 162.397 32.1227 162.114 32.1227 161.82V161.55C32.1227 159.327 33.0056 157.196 34.5771 155.624C36.1487 154.053 38.2802 153.17 40.5027 153.17H50.9127L51.0327 161.79C51.0353 161.94 51.008 162.088 50.9523 162.227C50.8966 162.366 50.8136 162.492 50.7083 162.598C50.603 162.705 50.4774 162.789 50.3391 162.846C50.2007 162.903 50.0523 162.931 49.9027 162.93Z" fill="#399E56"/>
<path d="M47.1427 129.23L47.1227 158.64" stroke="#399E56" stroke-width="7.72" stroke-miterlimit="10" stroke-linecap="round"/>
<path d="M86.2917 157.19C88.3904 157.19 90.0918 155.489 90.0918 153.39C90.0918 151.291 88.3904 149.59 86.2917 149.59C84.1931 149.59 82.4918 151.291 82.4918 153.39C82.4918 155.489 84.1931 157.19 86.2917 157.19Z" fill="#9CE86B"/>
<path d="M83.5619 162.93H100.222C100.516 162.93 100.799 162.813 101.007 162.605C101.215 162.397 101.332 162.114 101.332 161.82V161.55C101.332 159.329 100.45 157.199 98.881 155.628C97.3116 154.057 95.1827 153.173 92.9619 153.17H82.5419L82.4219 161.79C82.4219 162.092 82.5419 162.382 82.7557 162.596C82.9695 162.81 83.2595 162.93 83.5619 162.93Z" fill="#399E56"/>
<path d="M86.2617 129.23L86.2917 158.64" stroke="#399E56" stroke-width="7.72" stroke-miterlimit="10" stroke-linecap="round"/>
<path d="M110.03 134.661L39.4399 134.321C35.6734 134.302 31.9483 133.534 28.482 132.06C25.0157 130.586 21.8776 128.437 19.2507 125.737C16.6239 123.038 14.5609 119.842 13.1821 116.337C11.8032 112.832 11.1362 109.087 11.2199 105.321L12.2199 62.9914C12.5517 48.478 18.5498 34.6707 28.9311 24.5229C39.3125 14.3752 53.2527 8.69284 67.7699 8.69141C81.8502 8.69139 95.4056 14.0363 105.697 23.6462C115.988 33.256 122.247 46.4141 123.21 60.4614L127.05 116.591C127.207 118.916 126.882 121.249 126.096 123.442C125.31 125.636 124.08 127.644 122.482 129.34C120.885 131.036 118.954 132.384 116.811 133.3C114.669 134.216 112.36 134.679 110.03 134.661Z" fill="#9CE86B"/>
<path d="M111.5 103.602H15.33C6.86349 103.602 0 110.463 0 118.927C0 127.39 6.86349 134.252 15.33 134.252H111.5C119.966 134.252 126.83 127.39 126.83 118.927C126.83 110.463 119.966 103.602 111.5 103.602Z" fill="#9CE86B"/>
<path d="M62.9709 76.7224C74.0829 76.7224 83.0909 67.7144 83.0909 56.6024C83.0909 45.4904 74.0829 36.4824 62.9709 36.4824C51.8589 36.4824 42.8508 45.4904 42.8508 56.6024C42.8508 67.7144 51.8589 76.7224 62.9709 76.7224Z" fill="#FFFFF0"/>
<path d="M62.3607 58.882C68.2646 58.882 73.0507 54.0959 73.0507 48.192C73.0507 42.288 68.2646 37.502 62.3607 37.502C56.4568 37.502 51.6707 42.288 51.6707 48.192C51.6707 54.0959 56.4568 58.882 62.3607 58.882Z" fill="#2E4F18"/>
<path d="M36.8708 61.8926H27.9409C24.0417 61.8926 20.8809 65.0512 20.8809 68.9476C20.8809 72.8439 24.0417 76.0026 27.9409 76.0026H36.8708C40.77 76.0026 43.9308 72.8439 43.9308 68.9476C43.9308 65.0512 40.77 61.8926 36.8708 61.8926Z" fill="#FFBB4D"/>
<path d="M104.521 61.8926H95.5909C91.6918 61.8926 88.5309 65.0512 88.5309 68.9476C88.5309 72.8439 91.6918 76.0026 95.5909 76.0026H104.521C108.42 76.0026 111.581 72.8439 111.581 68.9476C111.581 65.0512 108.42 61.8926 104.521 61.8926Z" fill="#FFBB4D"/>
<path d="M77.6608 98.3832C77.6608 98.3832 77.6608 83.2832 65.5208 83.2832C55.4508 83.2832 51.6308 92.4832 51.3508 98.3832" stroke="#E05858" stroke-width="2.32" stroke-miterlimit="10" stroke-linecap="round"/>
<path d="M46.9609 35.5232C46.9609 35.5232 58.4909 49.1732 79.9609 34.5232C101.431 19.8732 48.8809 29.0832 48.9609 28.8032" fill="#9CE86B"/>
<path d="M48.8208 36.4923C48.8208 36.4923 62.9708 48.0923 78.6108 36.1523" stroke="#284214" stroke-width="3.86" stroke-miterlimit="10" stroke-linecap="round"/>
<path d="M48.922 34.1502C46.532 31.3436 44.9898 27.915 44.4753 24.2647C43.9609 20.6145 44.4954 16.8932 46.0165 13.5353C47.5377 10.1775 49.9827 7.32166 53.066 5.30127C56.1494 3.28087 59.7439 2.17929 63.4298 2.12514C67.1157 2.07099 70.7409 3.06651 73.8823 4.99545C77.0237 6.9244 79.5515 9.70718 81.1706 13.0189C82.7898 16.3306 83.4334 20.0346 83.0263 23.6984C82.6193 27.3621 81.1785 30.8346 78.8721 33.7102" fill="url(#paint0_linear_5963_21231)"/>
<g opacity="0.3">
<path d="M66.1345 6.02028C66.9971 5.85543 67.6643 5.5547 67.6249 5.34856C67.5855 5.14242 66.8544 5.10894 65.9919 5.27379C65.1294 5.43864 64.4621 5.73937 64.5015 5.94551C64.5409 6.15165 65.272 6.18512 66.1345 6.02028Z" fill="#BF5645"/>
<path d="M60.8885 7.78395C61.751 7.61911 62.4182 7.31837 62.3788 7.11223C62.3394 6.9061 61.6083 6.87262 60.7458 7.03746C59.8833 7.20231 59.216 7.50305 59.2554 7.70918C59.2948 7.91532 60.0259 7.9488 60.8885 7.78395Z" fill="#BF5645"/>
<path d="M64.8235 1.06699C65.6217 0.853039 66.228 0.527595 66.1777 0.340094C66.1275 0.152594 65.4397 0.174038 64.6415 0.387993C63.8432 0.601948 63.2369 0.927388 63.2872 1.11489C63.3374 1.30239 64.0252 1.28095 64.8235 1.06699Z" fill="#BF5645"/>
<path d="M60.6676 3.04746C61.4658 2.83351 62.0721 2.50806 62.0219 2.32056C61.9716 2.13306 61.2838 2.15451 60.4856 2.36846C59.6874 2.58242 59.081 2.90786 59.1313 3.09536C59.1815 3.28286 59.8694 3.26142 60.6676 3.04746Z" fill="#BF5645"/>
</g>
<path d="M103.824 31.1433C103.824 31.1433 102.004 23.3333 98.9038 21.4133C98.6484 21.2457 98.3592 21.1364 98.0567 21.0932C97.7543 21.05 97.4459 21.0739 97.1538 21.1633C96.7801 21.2823 96.4611 21.5305 96.2538 21.8633C95.6138 22.8633 98.1338 26.3733 98.1338 26.3733C98.1338 26.3733 96.4438 26.9133 97.6938 32.3733" fill="#399E56"/>
<path d="M103.824 31.1437C103.337 29.6237 102.777 28.137 102.144 26.6837C101.547 25.2471 100.753 23.9008 99.784 22.6837C99.3533 22.1082 98.7455 21.6901 98.054 21.4937C97.7358 21.4359 97.4075 21.4778 97.114 21.6137C96.972 21.6754 96.843 21.7637 96.734 21.8737C96.682 21.9257 96.6351 21.9827 96.594 22.0437C96.5593 22.0826 96.5382 22.1317 96.534 22.1837C96.5038 22.5261 96.5623 22.8705 96.704 23.1837C96.8415 23.5257 96.9984 23.8596 97.174 24.1837C97.534 24.8737 97.9639 25.5337 98.3839 26.1837L98.604 26.5237L98.234 26.6437C98.0739 26.745 97.9429 26.8863 97.854 27.0537C97.7392 27.2615 97.6518 27.4834 97.594 27.7137C97.48 28.2087 97.4262 28.7157 97.434 29.2237C97.4369 30.269 97.5239 31.3123 97.694 32.3437C97.3746 31.3317 97.1601 30.2895 97.054 29.2337C97.0094 28.6932 97.0296 28.1494 97.114 27.6137C97.1626 27.3297 97.2501 27.0537 97.374 26.7937C97.5081 26.4839 97.7446 26.2296 98.044 26.0737L97.8939 26.5337C97.3996 25.9023 96.955 25.2337 96.564 24.5337C96.3634 24.1721 96.1864 23.798 96.034 23.4137C95.843 22.9872 95.7639 22.5192 95.804 22.0537C95.9668 21.5795 96.3018 21.1837 96.7426 20.9448C97.1834 20.7059 97.6978 20.6412 98.184 20.7637C99.0373 21.0041 99.7865 21.5212 100.314 22.2337C101.312 23.5262 102.08 24.9807 102.584 26.5337C103.133 28.0306 103.548 29.5733 103.824 31.1437Z" fill="#2D703B"/>
<path d="M100.073 28.3525C100.073 28.3525 98.9334 21.9724 95.2734 19.3024C91.6134 16.6324 90.2734 19.3924 90.2734 19.3924C90.2734 19.3924 89.1635 21.2124 91.5335 23.2124C93.4213 24.9218 95.0516 26.8956 96.3735 29.0724" fill="#399E56"/>
<path d="M100.074 28.3521C99.7433 27.0454 99.2982 25.7705 98.7437 24.5421C98.2339 23.3173 97.5611 22.167 96.7437 21.1221C95.9464 20.1122 94.9173 19.3095 93.7437 18.7821C93.1926 18.5327 92.578 18.4594 91.9837 18.5721C91.4293 18.7188 90.955 19.0781 90.6636 19.5721C90.482 19.9478 90.4126 20.3679 90.4637 20.7821C90.5338 21.2219 90.7049 21.6396 90.9637 22.0021C91.2547 22.3752 91.5906 22.711 91.9637 23.0021C92.3434 23.3418 92.7039 23.7024 93.0436 24.0821C94.4021 25.5656 95.5619 27.2195 96.4937 29.0021C95.3507 27.378 94.0656 25.8587 92.6536 24.4621C92.2936 24.1221 91.9236 23.7921 91.5536 23.4621C91.1334 23.1416 90.7627 22.7608 90.4537 22.3321C90.0905 21.8891 89.8617 21.3515 89.7944 20.7826C89.727 20.2138 89.8239 19.6376 90.0737 19.1221C90.2631 18.7763 90.5245 18.475 90.8401 18.2387C91.1558 18.0024 91.5184 17.8365 91.9036 17.7521C92.6449 17.6144 93.4108 17.7123 94.0937 18.0321C95.3861 18.6137 96.5007 19.5282 97.3237 20.6821C98.133 21.793 98.7765 23.0159 99.2337 24.3121C99.657 25.6249 99.9386 26.9793 100.074 28.3521Z" fill="#2D703B"/>
<path d="M99.624 37.7029C102.176 37.7029 104.244 35.6344 104.244 33.0829C104.244 30.5313 102.176 28.4629 99.624 28.4629C97.0725 28.4629 95.0039 30.5313 95.0039 33.0829C95.0039 35.6344 97.0725 37.7029 99.624 37.7029Z" fill="#399E56"/>
<path d="M98.3732 28.4833C98.3732 28.4833 95.6131 22.0133 91.2331 20.8433C86.8531 19.6733 86.7131 22.9033 86.7131 22.9033C86.6601 23.7146 86.9021 24.5177 87.3946 25.1646C87.8872 25.8115 88.5969 26.2585 89.3931 26.4233C91.703 27.1796 93.7726 28.5317 95.3931 30.3433" fill="#399E56"/>
<path d="M98.3733 28.483C97.7446 27.2611 97.0047 26.0995 96.1632 25.013C95.3594 23.9206 94.3912 22.9592 93.2932 22.163C92.2086 21.405 90.926 20.9809 89.6033 20.943C88.989 20.9034 88.3793 21.0726 87.8733 21.423C87.6498 21.6062 87.4656 21.8326 87.3315 22.0886C87.1975 22.3446 87.1165 22.625 87.0933 22.913C87.0677 23.3641 87.1443 23.8152 87.3175 24.2325C87.4907 24.6498 87.7559 25.0226 88.0933 25.323C88.7433 25.963 89.7633 26.073 90.7233 26.533C91.6629 26.9577 92.5435 27.5022 93.3433 28.153C94.1372 28.7885 94.8553 29.5133 95.4833 30.313C94.7595 29.6183 93.9727 28.9923 93.1332 28.443C92.3161 27.8807 91.437 27.4143 90.5132 27.053C90.0432 26.873 89.6033 26.773 89.0833 26.613C88.5554 26.4581 88.0651 26.196 87.6432 25.843C87.2191 25.4721 86.8858 25.0087 86.6691 24.4885C86.4523 23.9684 86.358 23.4054 86.3932 22.843C86.4102 22.4402 86.5169 22.0463 86.7054 21.6899C86.894 21.3335 87.1598 21.0237 87.4833 20.783C88.121 20.3435 88.8913 20.1385 89.6632 20.203C90.3885 20.2424 91.1051 20.3803 91.7932 20.613C92.4679 20.8691 93.1013 21.2229 93.6732 21.663C94.7774 22.5332 95.7331 23.5768 96.5032 24.753C97.254 25.9282 97.8808 27.1783 98.3733 28.483Z" fill="#2D703B"/>
<path d="M96.9358 29.4215C96.9358 29.4215 93.3359 25.4215 88.8559 24.8015C84.3759 24.1815 84.7558 27.6115 84.7558 27.6115C84.7558 27.6115 84.7559 30.1215 87.9959 30.6115C90.1976 30.9654 92.2785 31.8548 94.0558 33.2015C94.3023 34.3577 94.9027 35.4084 95.7736 36.2076C96.6446 37.0069 97.7428 37.5151 98.9158 37.6615" fill="#399E56"/>
<path d="M96.9356 29.4212C96.0099 28.5563 95.0056 27.7796 93.9356 27.1012C92.8768 26.4221 91.7338 25.8842 90.5356 25.5012C89.3752 25.1081 88.139 24.9916 86.9256 25.1612C86.3742 25.2586 85.8807 25.5626 85.5456 26.0112C85.2395 26.471 85.0985 27.0209 85.1456 27.5712C85.1905 27.977 85.3262 28.3675 85.5425 28.7137C85.7589 29.06 86.0505 29.353 86.3956 29.5712C87.2037 30.0002 88.0861 30.2717 88.9957 30.3712C90.9087 30.822 92.6961 31.6969 94.2256 32.9312L94.2856 32.9812V33.0712C94.4019 33.6216 94.5938 34.1533 94.8556 34.6512C95.1183 35.1585 95.4554 35.6236 95.8556 36.0312C96.2561 36.4487 96.7307 36.7879 97.2556 37.0312C97.7792 37.2858 98.3339 37.4707 98.9056 37.5812C98.3158 37.5326 97.7363 37.3978 97.1856 37.1812C96.6248 36.9637 96.1069 36.6488 95.6556 36.2512C95.1976 35.8524 94.8061 35.3832 94.4957 34.8612C94.1867 34.3299 93.9543 33.7576 93.8056 33.1612L93.8856 33.3112C93.1276 32.7679 92.3129 32.3085 91.4556 31.9412C90.61 31.5508 89.725 31.2525 88.8156 31.0512C87.8237 30.9501 86.86 30.6617 85.9756 30.2012C85.5099 29.9221 85.1201 29.5325 84.841 29.0667C84.5619 28.601 84.4021 28.0735 84.3757 27.5312C84.3101 26.7966 84.5086 26.0626 84.9356 25.4612C85.3876 24.8846 86.0349 24.4933 86.7556 24.3612C88.0841 24.1666 89.4405 24.3288 90.6856 24.8312C91.9054 25.2873 93.0563 25.9099 94.1056 26.6812C95.1538 27.4797 96.1037 28.3994 96.9356 29.4212Z" fill="#2D703B"/>
<path d="M99.6223 33.082C99.6223 33.082 128.342 39.592 130.112 57.762C131.402 71.052 120.772 82.712 113.542 86.952" stroke="#399E56" stroke-width="7.72" stroke-miterlimit="10" stroke-linecap="round"/>
<path d="M32.5613 29.9307C32.5613 29.9307 34.3713 22.1107 37.4813 20.1907C37.736 20.0258 38.0235 19.918 38.3239 19.8749C38.6242 19.8317 38.9304 19.8542 39.2213 19.9407C39.5974 20.0599 39.9196 20.3077 40.1313 20.6407C40.7713 21.6407 38.2413 25.1507 38.2413 25.1507C38.2413 25.1507 39.9413 25.6907 38.6913 31.1507" fill="#399E56"/>
<path d="M32.5613 29.9315C32.8344 28.3518 33.246 26.7991 33.7913 25.2915C34.299 23.738 35.0703 22.2835 36.0713 20.9915C36.595 20.2751 37.3457 19.757 38.2013 19.5215C38.6875 19.3991 39.2019 19.4637 39.6427 19.7026C40.0835 19.9415 40.4185 20.3373 40.5813 20.8115C40.6205 21.277 40.5414 21.7448 40.3513 22.1715C40.1976 22.557 40.0172 22.9312 39.8113 23.2915C39.4191 23.9885 38.978 24.6569 38.4913 25.2915L38.3313 24.8215C38.6354 24.9742 38.8761 25.2291 39.0113 25.5415C39.1339 25.8021 39.2214 26.0778 39.2713 26.3615C39.356 26.9005 39.3761 27.4477 39.3313 27.9915C39.2194 29.0432 39.005 30.0814 38.6913 31.0915C38.8573 30.0596 38.9442 29.0166 38.9513 27.9715C38.9546 27.4671 38.9009 26.9639 38.7913 26.4715C38.7334 26.238 38.646 26.0129 38.5312 25.8015C38.4446 25.6352 38.313 25.4966 38.1513 25.4015L37.7812 25.2815L38.0013 24.9315C38.4213 24.2815 38.8513 23.6115 39.2113 22.9315C39.3882 22.5909 39.5451 22.2403 39.6813 21.8815C39.8173 21.5666 39.8756 21.2236 39.8513 20.8815C39.8397 20.8347 39.8193 20.7906 39.7913 20.7515C39.7526 20.6829 39.7018 20.6219 39.6413 20.5715C39.5351 20.4627 39.4096 20.3745 39.2713 20.3115C38.9776 20.1763 38.6495 20.1344 38.3313 20.1915C37.6388 20.3858 37.0304 20.8043 36.6013 21.3815C35.6318 22.6 34.8343 23.9459 34.2313 25.3815C33.6413 26.9215 33.0713 28.4015 32.5613 29.9315Z" fill="#2D703B"/>
<path d="M36.3318 27.1317C36.3318 27.1317 37.4818 20.7617 41.1418 18.0817C44.8018 15.4017 46.1418 18.1817 46.1418 18.1817C46.1418 18.1817 47.2518 20.0017 44.8818 21.9917C42.9901 23.6975 41.3593 25.6719 40.0417 27.8517" fill="#399E56"/>
<path d="M36.3318 27.1325C36.5317 25.7889 36.8667 24.4689 37.3318 23.1925C37.8041 21.9146 38.4538 20.7095 39.2618 19.6125C40.082 18.4601 41.193 17.5457 42.4818 16.9625C43.1696 16.6477 43.937 16.55 44.6818 16.6825C45.066 16.7693 45.4273 16.9374 45.7412 17.1754C46.0551 17.4135 46.3145 17.7159 46.5018 18.0625C46.7464 18.581 46.8405 19.1577 46.7733 19.727C46.7061 20.2963 46.4804 20.8353 46.1218 21.2825C45.8046 21.7044 45.435 22.0841 45.0218 22.4125C44.6418 22.7225 44.2718 23.0425 43.9218 23.4125C42.5097 24.8126 41.2247 26.3353 40.0818 27.9625C41.0109 26.1752 42.1708 24.5177 43.5317 23.0325C43.8717 22.6592 44.2318 22.2992 44.6118 21.9525C44.9827 21.659 45.3183 21.3234 45.6118 20.9525C45.8721 20.5882 46.0402 20.1661 46.1017 19.7225C46.1613 19.3115 46.0915 18.8921 45.9018 18.5225C45.608 18.0307 45.1348 17.6722 44.5818 17.5225C43.9887 17.4013 43.3725 17.4713 42.8218 17.7225C41.6308 18.249 40.5845 19.0552 39.7718 20.0725C38.9554 21.1181 38.2827 22.2683 37.7718 23.4925C37.1926 24.6642 36.7109 25.8817 36.3318 27.1325Z" fill="#2D703B"/>
<path d="M36.781 36.492C39.3326 36.492 41.4011 34.4235 41.4011 31.872C41.4011 29.3204 39.3326 27.252 36.781 27.252C34.2295 27.252 32.161 29.3204 32.161 31.872C32.161 34.4235 34.2295 36.492 36.781 36.492Z" fill="#399E56"/>
<path d="M38.041 27.2728C38.041 27.2728 40.791 20.7928 45.171 19.6328C49.551 18.4728 49.691 21.6328 49.691 21.6328C49.7466 22.4432 49.5068 23.2462 49.0159 23.8934C48.5251 24.5405 47.8164 24.9879 47.0211 25.1528C44.693 25.9063 42.6057 27.2621 40.971 29.0828" fill="#399E56"/>
<path d="M38.041 27.2733C38.5477 25.9879 39.1914 24.7608 39.9611 23.6133C40.7275 22.4314 41.6837 21.384 42.791 20.5133C43.3616 20.0712 43.9953 19.7172 44.671 19.4633C45.3559 19.2315 46.0691 19.0935 46.791 19.0533C47.5656 18.993 48.3378 19.1975 48.981 19.6333C49.303 19.8754 49.5676 20.1856 49.756 20.5416C49.9444 20.8977 50.052 21.2909 50.071 21.6933C50.104 22.2554 50.0086 22.8177 49.792 23.3375C49.5754 23.8573 49.2434 24.3209 48.821 24.6933C48.3992 25.0487 47.9092 25.3141 47.381 25.4733C46.861 25.6333 46.3811 25.7233 45.951 25.9133C45.0257 26.267 44.1461 26.7303 43.3311 27.2933C42.4877 27.8453 41.6976 28.4747 40.971 29.1733C41.605 28.3725 42.3262 27.6447 43.121 27.0033C43.924 26.3621 44.8001 25.8183 45.731 25.3833C46.731 24.9233 47.731 24.8133 48.361 24.1733C48.6984 23.8728 48.9636 23.5 49.1368 23.0827C49.3099 22.6654 49.3866 22.2144 49.361 21.7633C49.3378 21.4753 49.2568 21.1949 49.1227 20.9389C48.9887 20.6829 48.8045 20.4565 48.5811 20.2733C48.0782 19.9249 47.4712 19.7591 46.861 19.8033C45.5375 19.8365 44.2535 20.261 43.171 21.0233C42.0679 21.8129 41.096 22.7713 40.291 23.8633C39.4423 24.9317 38.6894 26.0727 38.041 27.2733Z" fill="#2D703B"/>
<path d="M39.4819 28.2046C39.4819 28.2046 43.072 24.2045 47.562 23.5945C52.052 22.9845 51.6619 26.3945 51.6619 26.3945C51.6619 26.3945 51.6619 28.9045 48.4119 29.3945C46.2136 29.7496 44.1362 30.6389 42.3619 31.9846C42.1149 33.1421 41.513 34.1939 40.6401 34.9933C39.7672 35.7927 38.6667 36.3 37.4919 36.4446" fill="#399E56"/>
<path d="M39.4819 28.2053C40.3154 27.2239 41.2619 26.3444 42.3019 25.5853C43.3511 24.8195 44.498 24.1973 45.712 23.7353C46.9626 23.2405 48.321 23.0819 49.652 23.2753C50.376 23.3983 51.0264 23.7914 51.4719 24.3753C51.8896 24.9811 52.0872 25.7116 52.0319 26.4453C52.0053 26.989 51.8455 27.5177 51.5665 27.9851C51.2875 28.4524 50.8979 28.844 50.4319 29.1253C49.5471 29.5828 48.5833 29.8678 47.592 29.9653C46.6795 30.1667 45.791 30.4651 44.942 30.8553C44.0868 31.2205 43.2751 31.68 42.522 32.2253L42.6019 32.0753C42.4532 32.6717 42.2209 33.244 41.9119 33.7753C41.6035 34.2987 41.2117 34.7682 40.752 35.1653C40.2996 35.5641 39.782 35.882 39.2219 36.1053C38.6673 36.3188 38.0845 36.4502 37.4919 36.4953C38.0668 36.3897 38.625 36.2081 39.152 35.9553C39.6713 35.7076 40.142 35.369 40.5419 34.9553C40.9423 34.5516 41.2794 34.0897 41.5419 33.5853C41.8035 33.0883 41.9921 32.5562 42.1019 32.0053V31.9053H42.1719C43.6993 30.6675 45.4875 29.7922 47.402 29.3453C48.3099 29.2443 49.1913 28.9765 50.002 28.5553C50.3451 28.335 50.6352 28.0414 50.8513 27.6956C51.0675 27.3498 51.2043 26.9603 51.252 26.5553C51.2974 26.0052 51.1565 25.4557 50.8519 24.9953C50.5128 24.5511 50.0212 24.2483 49.4719 24.1453C48.2618 23.9759 47.0289 24.0923 45.8719 24.4853C44.6743 24.8741 43.5316 25.4152 42.4719 26.0953C41.4118 26.7041 40.4108 27.4105 39.4819 28.2053Z" fill="#2D703B"/>
<path d="M35.4123 33.082C35.4123 33.082 6.69234 39.612 4.93234 57.762C3.64234 71.052 14.2723 82.712 21.4923 86.952" stroke="#399E56" stroke-width="7.72" stroke-miterlimit="10" stroke-linecap="round"/>
<defs>
<linearGradient id="paint0_linear_5963_21231" x1="62.252" y1="-4.53985" x2="64.392" y2="33.7002" gradientUnits="userSpaceOnUse">
<stop stop-color="#ED5C2F"/>
<stop offset="0.9" stop-color="#9CE86B"/>
</linearGradient>
</defs>
</svg>
