<svg width="119" height="144" viewBox="0 0 119 144" fill="none" xmlns="http://www.w3.org/2000/svg">
<path d="M49.498 138.539C51.4476 138.539 53.028 136.958 53.028 135.009C53.028 133.059 51.4476 131.479 49.498 131.479C47.5485 131.479 45.968 133.059 45.968 135.009C45.968 136.958 47.5485 138.539 49.498 138.539Z" fill="#9CE86B"/>
<path d="M52.0881 143.89H36.5781C36.3129 143.89 36.0586 143.784 35.871 143.597C35.6835 143.409 35.5781 143.155 35.5781 142.89V142.64C35.5781 140.573 36.3985 138.59 37.8592 137.128C39.3198 135.665 41.3012 134.842 43.3681 134.84H52.9981L53.1081 142.84C53.1082 143.113 53.0017 143.376 52.8113 143.572C52.6208 143.768 52.3614 143.882 52.0881 143.89Z" fill="#399E56"/>
<path d="M49.518 112.539L49.498 139.899" stroke="#399E56" stroke-width="7" stroke-miterlimit="10" stroke-linecap="round"/>
<path d="M77.311 138.539C79.2606 138.539 80.841 136.958 80.841 135.009C80.841 133.059 79.2606 131.479 77.311 131.479C75.3614 131.479 73.781 133.059 73.781 135.009C73.781 136.958 75.3614 138.539 77.311 138.539Z" fill="#9CE86B"/>
<path d="M74.721 143.89H90.221C90.4862 143.89 90.7406 143.784 90.9281 143.597C91.1156 143.409 91.221 143.155 91.221 142.89V142.64C91.221 140.573 90.4006 138.59 88.94 137.128C87.4793 135.665 85.498 134.842 83.431 134.84H73.781L73.671 142.84C73.6638 142.98 73.6861 143.119 73.7363 143.25C73.7865 143.381 73.8636 143.499 73.9626 143.598C74.0615 143.697 74.1802 143.774 74.3108 143.825C74.4415 143.875 74.5812 143.897 74.721 143.89Z" fill="#399E56"/>
<path d="M77.2911 112.539L77.3111 139.899" stroke="#399E56" stroke-width="7" stroke-miterlimit="10" stroke-linecap="round"/>
<path d="M102.36 117.2L36.6902 116.88C33.1836 116.864 29.7154 116.149 26.4884 114.777C23.2613 113.405 20.34 111.404 17.8951 108.89C15.4502 106.376 13.5309 103.4 12.2492 100.136C10.9674 96.8723 10.3491 93.3857 10.4302 89.88L11.3302 50.5C11.641 37.0017 17.2211 24.1608 26.877 14.7235C36.533 5.2862 49.4983 0.00164566 63.0002 0C76.0972 -3.93213e-06 88.7058 4.97264 98.277 13.9127C107.848 22.8528 113.668 35.0934 114.56 48.16L118.15 100.39C118.294 102.549 117.992 104.714 117.263 106.751C116.534 108.788 115.394 110.653 113.912 112.23C112.431 113.807 110.641 115.062 108.653 115.917C106.666 116.772 104.524 117.209 102.36 117.2Z" fill="#9CE86B"/>
<path d="M103.73 88.3008H14.26C6.38442 88.3008 0 94.683 0 102.556C0 110.429 6.38442 116.811 14.26 116.811H103.73C111.606 116.811 117.99 110.429 117.99 102.556C117.99 94.683 111.606 88.3008 103.73 88.3008Z" fill="#9CE86B"/>
<path d="M63.0008 63.3028C73.334 63.3028 81.7108 54.9261 81.7108 44.5928C81.7108 34.2596 73.334 25.8828 63.0008 25.8828C52.6675 25.8828 44.2908 34.2596 44.2908 44.5928C44.2908 54.9261 52.6675 63.3028 63.0008 63.3028Z" fill="#FFFFF0"/>
<path d="M63.5009 56.0816C68.9961 56.0816 73.4509 51.6269 73.4509 46.1316C73.4509 40.6364 68.9961 36.1816 63.5009 36.1816C58.0057 36.1816 53.5509 40.6364 53.5509 46.1316C53.5509 51.6269 58.0057 56.0816 63.5009 56.0816Z" fill="#2E4F18"/>
<path d="M50.5708 14.5924C51.3079 11.9822 52.8563 9.67419 54.992 8.0023C57.1277 6.3304 59.74 5.38134 62.4508 5.29241C73.2108 4.51241 75.4508 13.8424 75.4508 13.8424" stroke="#284214" stroke-width="4" stroke-miterlimit="10" stroke-linecap="round"/>
<path d="M33.0394 49.5098H24.7194C21.0964 49.5098 18.1594 52.4468 18.1594 56.0698V56.0798C18.1594 59.7028 21.0964 62.6398 24.7194 62.6398H33.0394C36.6624 62.6398 39.5994 59.7028 39.5994 56.0798V56.0698C39.5994 52.4468 36.6624 49.5098 33.0394 49.5098Z" fill="#FFBB4D"/>
<path d="M100.469 49.5098H92.1491C88.5261 49.5098 85.5891 52.4468 85.5891 56.0698V56.0798C85.5891 59.7028 88.5261 62.6398 92.1491 62.6398H100.469C104.092 62.6398 107.029 59.7028 107.029 56.0798V56.0698C107.029 52.4468 104.092 49.5098 100.469 49.5098Z" fill="#FFBB4D"/>
<path d="M89.7495 64.5898C89.7495 74.1698 77.7495 81.9399 62.9995 81.9399C48.2495 81.9399 36.2595 74.1698 36.2595 64.5898" stroke="#E05858" stroke-width="3" stroke-miterlimit="10" stroke-linecap="round"/>
<path d="M22.1895 129.053C24.5644 129.053 26.4895 127.128 26.4895 124.753C26.4895 122.378 24.5644 120.453 22.1895 120.453C19.8147 120.453 17.8895 122.378 17.8895 124.753C17.8895 127.128 19.8147 129.053 22.1895 129.053Z" fill="#399E56"/>
<path d="M21.3494 72.3828V126.643" stroke="#399E56" stroke-width="7" stroke-miterlimit="10" stroke-linecap="round"/>
<path d="M23.8296 123.723C26.049 124.321 28.1333 125.34 29.9696 126.723C30.3204 126.971 30.6112 127.295 30.8206 127.67C31.03 128.046 31.1526 128.464 31.1796 128.893C31.1424 129.359 30.9606 129.803 30.6595 130.161C30.3584 130.52 29.9529 130.776 29.4996 130.893C28.7637 131.072 27.9953 131.07 27.2602 130.888C26.5252 130.705 25.8455 130.346 25.2796 129.843C23.9715 128.71 22.9184 127.312 22.1896 125.743" fill="#399E56"/>
<path d="M24.8396 128.123C24.0796 129.713 23.1096 131.123 22.8996 132.903C22.7296 134.353 23.2296 136.113 22.8196 137.513C22.6458 138.182 22.3012 138.796 21.8196 139.293C21.5807 139.54 21.2822 139.721 20.9529 139.819C20.6236 139.917 20.2746 139.929 19.9396 139.853C19.6363 139.765 19.3562 139.611 19.1196 139.403C18.3567 138.734 17.8393 137.829 17.6496 136.833C17.4562 135.844 17.4325 134.829 17.5796 133.833C17.9196 130.953 19.4596 127.303 21.9796 125.893" fill="#399E56"/>
<path d="M21.2793 128.183C20.0493 129.433 18.6493 130.523 17.8893 132.113C17.2593 133.423 17.1793 135.203 16.3393 136.393C15.97 136.973 15.452 137.442 14.8393 137.753C14.5266 137.911 14.1789 137.987 13.8289 137.973C13.479 137.959 13.1384 137.856 12.8393 137.673C12.5868 137.486 12.3729 137.252 12.2093 136.983C11.709 136.104 11.5089 135.086 11.6393 134.083C11.7776 133.085 12.0853 132.118 12.5493 131.223C13.7993 128.623 15.9593 126.223 18.7993 125.693" fill="#399E56"/>
<path d="M18.9095 127.393C17.4695 127.843 15.9095 127.773 14.7295 128.663C13.7295 129.403 12.7295 130.663 11.7295 131.343C11.2452 131.718 10.6406 131.903 10.0295 131.863C9.60931 131.885 9.19761 131.739 8.88459 131.458C8.57157 131.177 8.38275 130.783 8.3595 130.363C8.36664 129.486 8.66179 128.636 9.1995 127.943C9.71078 127.243 10.3362 126.635 11.0495 126.143C13.0495 124.683 15.6995 123.723 18.0495 124.503" fill="#399E56"/>
<path d="M26.2694 124.574C28.5094 124.964 31.8694 126.434 31.6394 129.184C31.4824 129.863 31.0831 130.463 30.5162 130.87C29.9493 131.276 29.2537 131.463 28.5594 131.394C27.937 131.362 27.3269 131.208 26.7641 130.94C26.2012 130.673 25.6967 130.297 25.2794 129.834C26.2476 130.449 27.384 130.746 28.5294 130.684C30.1094 130.634 31.3594 129.094 30.2894 127.684C29.0989 126.458 27.7543 125.393 26.2894 124.514L26.2694 124.574Z" fill="#2D703B"/>
<path d="M24.8394 128.123C24.0294 130.203 22.8394 132.203 23.2794 134.373C23.4952 135.526 23.4714 136.71 23.2094 137.853C22.7294 139.853 20.3694 141.363 18.6794 139.653C18.0637 138.987 17.6007 138.194 17.3227 137.331C17.0446 136.467 16.9582 135.553 17.0694 134.653C17.2629 132.397 18.0609 130.234 19.3794 128.393C18.9044 129.394 18.5293 130.439 18.2594 131.513C17.5494 133.823 17.4494 138.983 20.4794 139.443C22.5794 139.103 22.6394 136.303 22.4794 134.443C22.2494 132.083 23.6094 130.023 24.8094 128.143L24.8394 128.123Z" fill="#2D703B"/>
<path d="M17.8894 132.113C17.3594 133.783 17.4694 135.763 16.2394 137.163C15.4294 138.353 13.2394 139.023 12.1694 137.693C9.51945 134.133 12.5894 129.193 15.7694 127.143C13.3694 129.573 10.7694 133.853 12.8994 137.043C13.6794 137.893 14.8994 137.443 15.6494 136.633C16.8194 135.533 16.9794 133.633 17.8894 132.113Z" fill="#2D703B"/>
<path d="M14.4894 128.543C13.1794 129.783 12.6194 131.783 10.5894 132.193C10.0661 132.321 9.5141 132.253 9.03715 132.003C8.56021 131.752 8.19116 131.336 7.99938 130.833C7.23938 126.373 14.4694 122.673 18.0994 124.463C14.8794 123.643 8.63938 126.973 8.90938 130.543C9.08938 131.273 9.81938 131.463 10.5094 131.423C12.1494 131.233 13.0994 129.313 14.5094 128.543H14.4894Z" fill="#2D703B"/>
<path d="M102.49 129.053C104.865 129.053 106.79 127.128 106.79 124.753C106.79 122.378 104.865 120.453 102.49 120.453C100.116 120.453 98.1904 122.378 98.1904 124.753C98.1904 127.128 100.116 129.053 102.49 129.053Z" fill="#399E56"/>
<path d="M103.331 72.3828V126.643" stroke="#399E56" stroke-width="7" stroke-miterlimit="10" stroke-linecap="round"/>
<path d="M100.85 123.723C98.631 124.321 96.5468 125.34 94.7105 126.723C94.3596 126.971 94.0688 127.295 93.8595 127.67C93.6501 128.046 93.5274 128.464 93.5005 128.893C93.5376 129.359 93.7194 129.803 94.0206 130.161C94.3217 130.52 94.7272 130.776 95.1805 130.893C95.9164 131.072 96.6848 131.07 97.4199 130.888C98.1549 130.705 98.8346 130.346 99.4005 129.843C100.709 128.71 101.762 127.312 102.49 125.743" fill="#399E56"/>
<path d="M99.8403 128.123C100.6 129.713 101.57 131.123 101.78 132.903C101.95 134.353 101.45 136.113 101.86 137.513C102.034 138.182 102.379 138.796 102.86 139.293C103.099 139.54 103.398 139.721 103.727 139.819C104.056 139.917 104.405 139.929 104.74 139.853C105.044 139.765 105.324 139.611 105.56 139.403C106.323 138.734 106.841 137.829 107.03 136.833C107.224 135.844 107.247 134.829 107.1 133.833C106.76 130.953 105.23 127.303 102.7 125.893" fill="#399E56"/>
<path d="M103.401 128.183C104.631 129.433 106.031 130.523 106.791 132.113C107.421 133.423 107.501 135.203 108.341 136.393C108.71 136.973 109.228 137.442 109.841 137.753C110.153 137.911 110.501 137.987 110.851 137.973C111.201 137.959 111.541 137.856 111.841 137.673C112.093 137.486 112.307 137.252 112.471 136.983C112.976 136.106 113.176 135.086 113.041 134.083C112.902 133.085 112.594 132.118 112.131 131.223C110.881 128.623 108.721 126.223 105.881 125.693" fill="#399E56"/>
<path d="M105.771 127.393C107.211 127.843 108.771 127.773 109.951 128.663C110.951 129.403 111.951 130.663 112.951 131.343C113.435 131.718 114.039 131.903 114.651 131.863C115.071 131.885 115.482 131.739 115.795 131.458C116.108 131.177 116.297 130.783 116.321 130.363C116.322 129.484 116.026 128.632 115.481 127.943C114.969 127.243 114.344 126.635 113.631 126.143C111.631 124.683 108.981 123.723 106.631 124.503" fill="#399E56"/>
<path d="M98.4105 124.572C97.4259 125.188 96.4745 125.856 95.5605 126.572C94.7805 127.222 93.8905 127.952 94.0105 129.012C94.1208 129.494 94.3938 129.923 94.7836 130.228C95.1734 130.532 95.6561 130.692 96.1505 130.682C97.2959 130.745 98.4323 130.448 99.4005 129.832C98.9832 130.295 98.4786 130.671 97.9158 130.939C97.353 131.207 96.7429 131.361 96.1205 131.392C95.4197 131.472 94.7143 131.29 94.1389 130.882C93.5634 130.475 93.1582 129.87 93.0005 129.182C92.7705 126.432 96.1305 124.962 98.3705 124.572H98.4105Z" fill="#2D703B"/>
<path d="M99.8403 128.123C101.04 130.003 102.4 132.063 102.17 134.423C102.051 135.473 102.118 136.536 102.37 137.563C103.16 140.013 105.21 139.903 106.22 137.743C106.997 135.736 107.067 133.525 106.42 131.473C106.152 130.411 105.777 129.379 105.3 128.393C106.629 130.251 107.427 132.436 107.61 134.713C107.722 135.613 107.635 136.527 107.357 137.391C107.079 138.254 106.616 139.047 106 139.713C104.31 141.423 102 139.953 101.47 137.913C101.208 136.77 101.185 135.586 101.4 134.433C101.8 132.263 100.65 130.263 99.8403 128.183V128.123Z" fill="#2D703B"/>
<path d="M106.79 132.113C107.7 133.623 107.86 135.533 109.04 136.633C109.79 137.443 111.04 137.893 111.78 137.043C113.87 133.843 111.31 129.573 108.91 127.143C112.09 129.193 115.16 134.143 112.51 137.693C111.42 139.023 109.25 138.353 108.44 137.163C107.21 135.763 107.32 133.783 106.79 132.113Z" fill="#2D703B"/>
<path d="M110.191 128.543C111.601 129.313 112.551 131.233 114.191 131.423C114.881 131.423 115.611 131.273 115.791 130.543C116.051 126.973 109.791 123.643 106.601 124.463C110.231 122.673 117.461 126.373 116.701 130.833C116.508 131.34 116.136 131.76 115.655 132.01C115.174 132.261 114.617 132.326 114.091 132.193C112.091 131.783 111.511 129.783 110.191 128.543Z" fill="#2D703B"/>
</svg>
