<svg width="180" height="169" viewBox="0 0 180 169" fill="none" xmlns="http://www.w3.org/2000/svg">
<path d="M106.849 21.4498C109.433 21.4498 111.529 19.3545 111.529 16.7698C111.529 14.1851 109.433 12.0898 106.849 12.0898C104.264 12.0898 102.169 14.1851 102.169 16.7698C102.169 19.3545 104.264 21.4498 106.849 21.4498Z" fill="#399E56"/>
<path d="M109.379 73.7595L105.829 14.7695" stroke="#399E56" stroke-width="7.83" stroke-miterlimit="10" stroke-linecap="round"/>
<path d="M108.709 17.7792C111.08 16.9841 113.279 15.7455 115.189 14.1293C115.553 13.8355 115.848 13.4639 116.05 13.0417C116.252 12.6196 116.358 12.1575 116.359 11.6893C116.296 11.1695 116.067 10.6838 115.707 10.3038C115.347 9.92387 114.874 9.66983 114.359 9.57921C113.547 9.43256 112.711 9.4852 111.924 9.73254C111.136 9.97987 110.421 10.4145 109.839 10.9993C108.489 12.3149 107.435 13.9036 106.749 15.6592" fill="#399E56"/>
<path d="M109.519 12.9302C108.589 11.2602 107.439 9.75019 107.099 7.86019C106.809 6.29019 107.239 4.35019 106.709 2.86019C106.483 2.14338 106.073 1.49852 105.519 0.990196C105.241 0.741039 104.904 0.566319 104.541 0.482384C104.177 0.398449 103.798 0.407992 103.439 0.510155C103.118 0.629425 102.826 0.813255 102.579 1.05019C101.796 1.82918 101.293 2.84539 101.149 3.94021C101.009 5.0294 101.05 6.13415 101.269 7.21017C101.829 10.3102 103.739 14.2102 106.579 15.5502" fill="#399E56"/>
<path d="M105.639 13.1008C104.219 11.8208 102.639 10.7208 101.699 9.10084C100.929 7.71084 100.699 5.79084 99.6987 4.54084C99.2605 3.93643 98.6658 3.46282 97.9787 3.17085C97.6361 3.02529 97.2623 2.96826 96.8918 3.00496C96.5214 3.04165 96.1661 3.17092 95.8587 3.38087C95.5922 3.60029 95.3743 3.87271 95.2187 4.18086C94.7327 5.16926 94.5817 6.28905 94.7887 7.37086C95.0112 8.4299 95.4101 9.44402 95.9687 10.3709C97.4987 13.1209 99.9687 15.6108 103.129 15.9708" fill="#399E56"/>
<path d="M103.119 14.151C101.519 13.761 99.8789 13.941 98.4889 13.051C97.3389 12.311 96.2389 11.051 95.0689 10.331C94.5159 9.96172 93.8492 9.80218 93.1889 9.88101C92.8913 9.89005 92.6006 9.97231 92.3424 10.1206C92.0842 10.2688 91.8666 10.4785 91.7089 10.731C91.552 11.0019 91.466 11.308 91.4589 11.621C91.522 12.5742 91.9022 13.4789 92.5389 14.191C93.1395 14.9206 93.8598 15.5427 94.6689 16.031C96.9589 17.491 99.8789 18.351 102.409 17.351" fill="#399E56"/>
<path d="M111.299 16.6995C112.383 16.0222 113.407 15.2527 114.359 14.3995C114.828 14.012 115.245 13.5649 115.599 13.0695C115.912 12.6103 116.038 12.0484 115.949 11.4995C115.894 11.2322 115.785 10.979 115.628 10.7554C115.472 10.5318 115.271 10.3426 115.039 10.1995C114.53 9.89755 113.95 9.73865 113.359 9.73953C112.094 9.7747 110.873 10.2165 109.879 10.9995C110.763 9.98185 112.006 9.34429 113.349 9.21951C114.04 9.15255 114.736 9.29175 115.349 9.61954C115.675 9.80083 115.96 10.0498 116.182 10.3499C116.404 10.6501 116.56 10.9943 116.639 11.3595C116.71 11.725 116.707 12.1011 116.63 12.4654C116.552 12.8296 116.402 13.1745 116.189 13.4795C115.802 14.0407 115.322 14.5312 114.769 14.9295C113.738 15.7389 112.559 16.34 111.299 16.6995Z" fill="#2D703B"/>
<path d="M109.519 12.93C108.849 11.93 108.139 10.93 107.519 9.84998C106.934 8.73739 106.635 7.49685 106.649 6.23999C106.733 5.0692 106.6 3.89297 106.259 2.76996C106.125 2.24882 105.839 1.77974 105.436 1.42322C105.033 1.0667 104.532 0.839119 103.999 0.769959C103.744 0.775304 103.494 0.835211 103.264 0.945618C103.035 1.05602 102.832 1.21438 102.669 1.40997C102.277 1.81253 101.968 2.28823 101.759 2.81C101.378 3.91118 101.222 5.07742 101.299 6.23999C101.382 7.42891 101.631 8.60033 102.039 9.71997C102.41 10.8694 102.91 11.973 103.529 13.01C102.016 11.0571 101.046 8.73867 100.719 6.28998C100.568 5.0291 100.705 3.75039 101.119 2.54999C101.34 1.93938 101.68 1.37857 102.119 0.899963C102.348 0.629215 102.63 0.40927 102.949 0.254272C103.267 0.0992745 103.615 0.0126887 103.969 0C104.678 0.0283821 105.35 0.325005 105.849 0.829956C106.302 1.3058 106.643 1.87622 106.849 2.5C107.213 3.70418 107.326 4.97047 107.179 6.21997C106.989 8.65997 108.449 10.77 109.519 12.93Z" fill="#2D703B"/>
<path d="M101.699 9.0492C100.699 7.4592 100.449 5.36921 99.0588 4.18921C98.7743 3.87849 98.4203 3.63949 98.0257 3.49176C97.6312 3.34403 97.2073 3.29173 96.7887 3.33918C95.9887 3.43918 95.5287 4.22921 95.2787 5.05921C94.9533 6.84973 95.2684 8.69764 96.1687 10.2792C97.0563 11.9359 98.2627 13.4007 99.7187 14.5892C98.0857 13.5937 96.7143 12.2222 95.7187 10.5892C95.2079 9.75137 94.827 8.84104 94.5887 7.88916C94.327 6.90629 94.327 5.87204 94.5887 4.88916C94.7263 4.38235 94.9606 3.90698 95.2787 3.4892C95.6259 3.03639 96.1348 2.73537 96.6988 2.64917C97.2266 2.58939 97.7609 2.66238 98.2534 2.86145C98.7459 3.06053 99.1808 3.37941 99.5188 3.78919C100.186 4.52299 100.663 5.40873 100.909 6.36921C101.116 7.27813 101.38 8.1732 101.699 9.0492Z" fill="#2D703B"/>
<path d="M98.2388 13.1504C97.4215 12.6398 96.6664 12.0357 95.9888 11.3505C95.3779 10.6953 94.5572 10.2744 93.6688 10.1604C93.2515 10.1484 92.8371 10.234 92.4587 10.4104C92.2957 10.5069 92.1552 10.6371 92.0465 10.7923C91.9379 10.9476 91.8636 11.1242 91.8288 11.3105C91.7591 12.1573 92.0248 12.9977 92.5688 13.6504C93.0922 14.3901 93.7504 15.0246 94.5088 15.5204C95.2668 16.0441 96.0739 16.4929 96.9188 16.8605C98.6214 17.6593 100.551 17.8328 102.369 17.3505C101.493 17.761 100.536 17.9662 99.5688 17.9504C98.5926 17.9259 97.6267 17.7436 96.7087 17.4105C95.7906 17.0888 94.917 16.652 94.1088 16.1105C93.2656 15.5868 92.5294 14.9082 91.9388 14.1105C91.6052 13.6925 91.3604 13.2108 91.2194 12.695C91.0784 12.1792 91.0442 11.64 91.1188 11.1105C91.1874 10.8355 91.3116 10.5774 91.4835 10.3522C91.6555 10.1269 91.8716 9.93918 92.1188 9.80046C92.6048 9.57178 93.1456 9.48512 93.6788 9.55046C94.6804 9.72951 95.5829 10.2661 96.2188 11.0605C96.8273 11.817 97.5034 12.5165 98.2388 13.1504Z" fill="#2D703B"/>
<path d="M129.879 156.551L152.289 88.6313C153.486 85.0055 153.949 81.1777 153.65 77.3712C153.35 73.5647 152.296 69.856 150.548 66.4617C148.799 63.0673 146.392 60.0553 143.467 57.6017C140.541 55.1481 137.156 53.302 133.509 52.1712L92.5092 39.4612C78.4667 35.1238 63.2848 36.4485 50.2057 43.1525C37.1266 49.8565 27.1869 61.4084 22.5092 75.3412C17.9742 88.8675 18.7433 103.611 24.6611 116.592C30.5789 129.573 41.2041 139.823 54.3892 145.271L107.069 167.031C109.247 167.927 111.586 168.365 113.941 168.318C116.295 168.27 118.615 167.738 120.755 166.755C122.895 165.772 124.809 164.359 126.379 162.603C127.949 160.847 129.14 158.787 129.879 156.551Z" fill="#9CE86B"/>
<path d="M129.071 157.934L160.037 65.5452C162.763 57.4129 158.383 48.6114 150.253 45.8865C142.123 43.1616 133.323 47.5452 130.597 55.6775L99.6306 148.066C96.9048 156.198 101.286 165 109.415 167.725C117.545 170.45 126.345 166.066 129.071 157.934Z" fill="#9CE86B"/>
<path d="M169.329 84.9617C171.455 84.9617 173.179 83.2381 173.179 81.1118C173.179 78.9855 171.455 77.2617 169.329 77.2617C167.203 77.2617 165.479 78.9855 165.479 81.1118C165.479 83.2381 167.203 84.9617 169.329 84.9617Z" fill="#9CE86B"/>
<path d="M179.149 83.3514L178.149 66.4914C178.141 66.3442 178.104 66.2 178.041 66.0671C177.977 65.9341 177.888 65.8149 177.779 65.7165C177.669 65.618 177.541 65.5421 177.402 65.4932C177.263 65.4443 177.116 65.4233 176.969 65.4314H176.689C175.571 65.4938 174.477 65.7766 173.47 66.2633C172.462 66.7501 171.561 67.4313 170.817 68.2677C170.074 69.1041 169.503 70.0792 169.138 71.137C168.772 72.1948 168.62 73.3144 168.689 74.4314L169.299 84.9613L178.019 84.5713C178.174 84.5689 178.327 84.535 178.469 84.4717C178.611 84.4084 178.739 84.317 178.845 84.203C178.95 84.089 179.032 83.9547 179.084 83.8083C179.136 83.662 179.158 83.5065 179.149 83.3514Z" fill="#399E56"/>
<path d="M144.889 82.5608L174.639 80.8008" stroke="#399E56" stroke-width="7.83" stroke-miterlimit="10" stroke-linecap="round"/>
<path d="M149.451 141.581C151.577 141.581 153.301 139.857 153.301 137.731C153.301 135.605 151.577 133.881 149.451 133.881C147.325 133.881 145.601 135.605 145.601 137.731C145.601 139.857 147.325 141.581 149.451 141.581Z" fill="#9CE86B"/>
<path d="M158.491 142.171L161.401 125.541C161.427 125.396 161.424 125.247 161.392 125.103C161.36 124.959 161.3 124.823 161.216 124.702C161.131 124.581 161.024 124.478 160.899 124.399C160.775 124.32 160.636 124.266 160.491 124.241H160.221C159.122 124.048 157.997 124.074 156.908 124.316C155.819 124.559 154.789 125.014 153.876 125.654C152.963 126.295 152.186 127.109 151.588 128.051C150.99 128.992 150.583 130.042 150.391 131.141L148.571 141.531L157.151 143.151C157.304 143.178 157.46 143.174 157.611 143.139C157.762 143.104 157.905 143.038 158.03 142.947C158.155 142.855 158.26 142.739 158.34 142.606C158.419 142.473 158.47 142.325 158.491 142.171Z" fill="#399E56"/>
<path d="M125.331 133.531L154.701 138.651" stroke="#399E56" stroke-width="7.83" stroke-miterlimit="10" stroke-linecap="round"/>
<path d="M52.1211 80.9629C61.1211 83.6729 71.5011 79.1829 74.8511 71.0229C78.1111 63.0829 73.1911 55.2429 64.3711 53.3729C55.9911 51.6029 46.8111 55.8629 43.4311 62.9929C39.9911 70.3529 43.6311 78.3529 52.1211 80.9629Z" fill="#81D34C"/>
<path d="M52.4794 75.8927C51.2251 75.2184 50.1443 74.2625 49.3219 73.0999C48.4994 71.9374 47.9578 70.6 47.7394 69.1928C47.0094 63.7028 51.8794 58.5327 58.6094 57.6427C65.3394 56.7527 71.3794 60.4927 72.1094 65.9727C72.6094 69.8327 70.3594 73.5228 66.6494 75.6928" stroke="#2E4F18" stroke-width="1.78" stroke-linecap="round" stroke-linejoin="round"/>
<path d="M53.3594 68.4931C52.9694 65.5431 55.5894 62.7631 59.2094 62.2931C62.8294 61.8231 66.0694 63.823 66.4594 66.773" stroke="#2E4F18" stroke-width="1.78" stroke-linecap="round" stroke-linejoin="round"/>
<path d="M52.4795 75.8934C54.2852 76.8691 56.3328 77.3064 58.3795 77.1534C64.8195 76.3034 67.0695 71.3534 66.4595 66.7734" stroke="#2E4F18" stroke-width="1.78" stroke-linecap="round" stroke-linejoin="round"/>
<path d="M53.3593 68.4933C53.4699 69.1015 53.7285 69.6732 54.1121 70.158C54.4958 70.6428 54.9927 71.0258 55.5593 71.2733C56.3325 71.5778 57.1659 71.6985 57.9938 71.6256C58.8216 71.5527 59.6212 71.2883 60.3293 70.8533C62.2193 69.6733 62.8593 67.4233 61.2393 66.1433C60.3093 65.4133 56.8993 64.9433 57.3893 67.3633" stroke="#2E4F18" stroke-width="1.78" stroke-linecap="round" stroke-linejoin="round"/>
<path d="M81.7006 52.7428L84.1606 46.7428C85.2106 44.1928 83.4206 41.6727 80.2506 41.1427C77.1306 40.6227 73.7506 42.1427 72.6806 44.6527L70.1706 50.4127C69.0706 52.9527 70.6906 55.5927 73.8406 56.2627C77.0506 56.9827 80.6206 55.3528 81.7006 52.7428Z" fill="#FFBB4D"/>
<path d="M61.0906 102.792L64.0306 95.6421C64.3182 94.9135 64.449 94.1324 64.4142 93.3499C64.3794 92.5674 64.18 91.801 63.8289 91.1007C63.4779 90.4005 62.9831 89.7822 62.3768 89.2862C61.7706 88.7901 61.0666 88.4275 60.3107 88.2221C58.7714 87.7262 57.1049 87.8022 55.617 88.4359C54.1292 89.0696 52.9197 90.2186 52.2106 91.6721L49.2106 98.5221C48.9009 99.2527 48.7445 100.039 48.7509 100.833C48.7574 101.626 48.9266 102.41 49.2481 103.136C49.5696 103.861 50.0366 104.513 50.6201 105.051C51.2037 105.588 51.8914 106.001 52.6407 106.262C54.2253 106.88 55.9868 106.864 57.5601 106.218C59.1333 105.572 60.3975 104.345 61.0906 102.792Z" fill="#FFBB4D"/>
<path d="M43.0306 51.0312L48.9207 61.3113L43.0406 70.4012L32.8007 74.1113" fill="#9CE86B"/>
<path d="M33.1307 73.0816C33.1307 73.0816 42.6707 73.8916 46.8507 65.3716C51.3807 56.1416 42.5208 51.4316 42.5208 51.4316" stroke="#284214" stroke-width="3.61" stroke-miterlimit="10" stroke-linecap="round"/>
<path d="M16.93 157.77C19.5147 157.77 21.61 155.675 21.61 153.09C21.61 150.505 19.5147 148.41 16.93 148.41C14.3453 148.41 12.25 150.505 12.25 153.09C12.25 155.675 14.3453 157.77 16.93 157.77Z" fill="#399E56"/>
<path d="M72.6896 141.051L14.7296 152.601" stroke="#399E56" stroke-width="7.83" stroke-miterlimit="10" stroke-linecap="round"/>
<path d="M18.3797 154.621C18.2121 157.118 17.5742 159.56 16.4997 161.82C16.3083 162.247 16.024 162.626 15.6676 162.929C15.3112 163.231 14.8917 163.451 14.4397 163.57C13.9268 163.641 13.4047 163.549 12.9471 163.307C12.4895 163.064 12.1197 162.684 11.8897 162.221C11.5427 161.471 11.3823 160.648 11.4224 159.822C11.4625 158.997 11.7017 158.193 12.1197 157.481C13.0492 155.842 14.3173 154.42 15.8397 153.311" fill="#399E56"/>
<path d="M13.8996 156.641C12.0396 156.161 10.2897 155.431 8.37965 155.641C6.78965 155.761 5.01964 156.641 3.42964 156.531C2.67939 156.498 1.95125 156.267 1.31966 155.861C1.00799 155.655 0.753054 155.374 0.578324 155.043C0.403594 154.713 0.314671 154.344 0.319657 153.971C0.353281 153.62 0.458801 153.279 0.629654 152.971C1.18328 152.015 2.03774 151.27 3.05965 150.851C4.07642 150.439 5.15438 150.199 6.24965 150.141C9.39965 149.901 13.6296 150.751 15.6696 153.141" fill="#399E56"/>
<path d="M13.0697 152.851C11.4697 151.851 10.0097 150.541 8.15967 150.071C6.61967 149.671 4.6997 149.961 3.2497 149.321C2.55157 149.048 1.94001 148.592 1.47968 148.001C1.25087 147.706 1.10062 147.357 1.04291 146.988C0.985202 146.619 1.0219 146.242 1.14966 145.891C1.28953 145.581 1.49416 145.305 1.7497 145.081C2.58531 144.349 3.64083 143.916 4.7497 143.851C5.84218 143.791 6.93707 143.912 7.98969 144.211C10.9897 145.001 14.0797 146.791 15.2297 149.721" fill="#399E56"/>
<path d="M13.4501 150.151C12.6701 148.691 12.45 147.061 11.21 145.941C10.21 145.011 8.69001 144.281 7.71001 143.331C7.20562 142.892 6.87856 142.284 6.79003 141.621C6.72584 141.332 6.73327 141.031 6.8117 140.745C6.89012 140.46 7.03717 140.197 7.24004 139.981C7.46402 139.761 7.73879 139.6 8.04003 139.511C8.97681 139.332 9.94658 139.465 10.8 139.891C11.6577 140.291 12.442 140.831 13.12 141.491C15.12 143.341 16.69 145.941 16.36 148.641" fill="#399E56"/>
<path d="M17.99 157.41C17.9699 158.73 17.6948 160.034 17.18 161.25C16.9265 161.886 16.572 162.477 16.13 163C15.8912 163.287 15.5975 163.523 15.266 163.695C14.9346 163.867 14.5722 163.971 14.2 164C13.8284 164.014 13.4582 163.948 13.1135 163.809C12.7688 163.669 12.4576 163.458 12.2 163.19C11.7116 162.674 11.3909 162.022 11.28 161.32C11.0662 159.988 11.3704 158.625 12.13 157.51C11.6302 158.673 11.5112 159.965 11.79 161.2C11.9412 161.771 12.2455 162.29 12.67 162.7C12.8668 162.89 13.1006 163.038 13.3569 163.135C13.6132 163.231 13.8865 163.274 14.16 163.26C14.7112 163.199 15.2188 162.931 15.58 162.51C15.9818 162.048 16.3183 161.534 16.58 160.98C17.1547 159.834 17.6265 158.64 17.99 157.41Z" fill="#2D703B"/>
<path d="M13.8999 156.64C11.5299 156.15 9.12986 155.31 6.89986 156.18C5.72562 156.639 4.46942 156.85 3.20986 156.8C2.55204 156.751 1.91337 156.556 1.33986 156.23C0.721696 155.879 0.263188 155.302 0.0598957 154.62C-0.0154777 154.278 -0.019763 153.924 0.0473225 153.58C0.114408 153.236 0.25145 152.909 0.44991 152.62C0.802956 152.07 1.2577 151.591 1.78988 151.21C2.84289 150.503 4.04328 150.045 5.29989 149.87C7.75261 149.564 10.2429 149.909 12.5199 150.87C11.3588 150.539 10.1651 150.334 8.95986 150.26C7.77439 150.151 6.57945 150.208 5.40987 150.43C4.2614 150.654 3.16973 151.106 2.19991 151.76C1.74884 152.092 1.36815 152.51 1.07992 152.99C0.93182 153.196 0.83004 153.431 0.781697 153.68C0.733355 153.928 0.739573 154.184 0.799886 154.43C0.99922 154.928 1.34278 155.355 1.78646 155.656C2.23013 155.957 2.75366 156.119 3.28988 156.12C4.46373 156.16 5.63531 155.991 6.7499 155.62C7.9578 155.289 9.22883 155.262 10.4499 155.54C11.6199 155.81 12.7399 156.25 13.8999 156.64Z" fill="#2D703B"/>
<path d="M8.16 150.07C7.21684 149.969 6.26829 149.929 5.32003 149.95C4.32759 149.959 3.34831 149.722 2.47 149.26C1.99124 149.034 1.57505 148.695 1.25778 148.271C0.940507 147.847 0.731813 147.352 0.649988 146.83C0.593903 146.262 0.75467 145.694 1.1 145.24C1.42562 144.834 1.82621 144.494 2.27999 144.24C3.16475 143.742 4.16509 143.487 5.18002 143.5C6.16159 143.482 7.14002 143.616 8.08004 143.9C9.93031 144.441 11.6219 145.422 13.01 146.76C11.4894 145.655 9.76686 144.86 7.94003 144.42C6.18254 143.954 4.31738 144.12 2.67001 144.89C1.92001 145.34 1.28003 145.99 1.38003 146.78C1.43834 147.2 1.59568 147.601 1.83908 147.948C2.08247 148.296 2.40494 148.581 2.77999 148.78C4.27999 149.79 6.35 149.46 8.16 150.07Z" fill="#2D703B"/>
<path d="M11.2399 145.67C10.4523 145.146 9.61888 144.694 8.74988 144.32C7.81829 143.906 7.0661 143.172 6.62989 142.25C6.43895 141.747 6.38712 141.201 6.47986 140.67C6.54261 140.392 6.66436 140.13 6.83686 139.902C7.00935 139.674 7.22858 139.486 7.47986 139.35C7.96421 139.14 8.48675 139.031 9.0149 139.031C9.54304 139.031 10.0655 139.14 10.5499 139.35C11.4807 139.706 12.3333 140.239 13.0599 140.92C13.7854 141.574 14.43 142.313 14.9799 143.12C15.528 143.923 15.9465 144.808 16.2199 145.74C16.4868 146.67 16.5314 147.65 16.3499 148.6C16.3554 146.723 15.7005 144.904 14.4999 143.46C13.9309 142.729 13.2874 142.059 12.5799 141.46C11.9092 140.854 11.133 140.376 10.2899 140.05C9.51582 139.696 8.63481 139.653 7.8299 139.93C7.65998 140.012 7.50955 140.13 7.3888 140.275C7.26805 140.419 7.17978 140.589 7.12989 140.77C7.04666 141.178 7.06381 141.601 7.17987 142C7.51632 142.833 8.13612 143.52 8.92987 143.94C9.76384 144.426 10.539 145.007 11.2399 145.67Z" fill="#2D703B"/>
<path d="M126.121 62.3496C119.941 69.1296 111.221 80.6696 110.261 95.8496C110.107 97.9472 109.508 99.9879 108.505 101.836C107.501 103.685 106.116 105.298 104.441 106.57C102.415 108.26 99.9412 109.323 97.3209 109.63C96.6909 109.63 96.0109 109.71 95.3209 109.73C87.5709 109.89 75.7809 107.58 68.0009 98.7297C67.0057 97.4224 66.4712 95.8226 66.4808 94.1797C66.5463 93.2379 66.7974 92.3183 67.2195 91.474C67.6417 90.6296 68.2267 89.877 68.9409 89.2596C73.8409 84.5296 82.4209 79.6696 84.9409 73.4796C88.1509 65.4796 80.8708 63.7396 87.7308 55.3596C88.1808 54.8065 88.6687 54.2852 89.1909 53.7997C96.2509 47.1097 107.741 48.0297 114.711 50.9997C116.582 51.7914 118.379 52.7485 120.081 53.8596C124.741 56.9596 127.731 60.6196 126.121 62.3496Z" fill="#E05858"/>
<path d="M98.8108 85.6297C98.4908 86.1497 92.6208 92.2197 87.8108 90.9897C83.0008 89.7597 82.6108 83.8897 83.9808 80.9897C85.3508 78.0897 89.7708 85.6697 92.6408 77.2397C95.6408 68.4197 86.0008 75.8097 86.9308 71.0497C87.8608 66.2897 93.1108 61.6797 98.1108 63.0497C103.111 64.4197 104.581 69.2296 103.381 74.3896C102.503 78.3676 100.958 82.1681 98.8108 85.6297Z" fill="#B24242"/>
<path d="M126.121 62.3489C119.941 69.1289 111.221 80.6689 110.261 95.8489C110.107 97.9464 109.509 99.9871 108.505 101.835C107.502 103.684 106.116 105.297 104.441 106.569C102.416 108.259 99.9414 109.323 97.3211 109.629C96.6911 109.629 96.0111 109.709 95.3211 109.729C94.4911 103.789 94.6711 93.8089 100.231 79.9389C104.278 69.5901 111.118 60.5682 119.991 53.8789C124.741 56.9589 127.731 60.6189 126.121 62.3489Z" fill="#FF7878"/>
<path d="M89.131 53.8203C93.511 59.0303 92.701 67.8204 87.921 76.6904C82.921 85.9504 74.9209 92.9603 66.4709 94.2103C66.5327 93.2673 66.7812 92.346 67.2017 91.4997C67.6223 90.6534 68.2066 89.8991 68.921 89.2803C73.821 84.5503 82.401 79.6904 84.921 73.4904C88.131 65.4904 80.8409 63.7603 87.7109 55.3903C88.1479 54.8352 88.6224 54.3107 89.131 53.8203Z" fill="#FFF8E9"/>
</svg>
