<svg width="143" height="161" viewBox="0 0 143 161" fill="none" xmlns="http://www.w3.org/2000/svg">
<path d="M114.412 85.8555C114.412 85.8555 144.312 98.7655 137.462 109.215" stroke="#399E56" stroke-width="8.05" stroke-miterlimit="10" stroke-linecap="round"/>
<path d="M76.9028 154.773C79.0899 154.773 80.8629 153.001 80.8629 150.814C80.8629 148.626 79.0899 146.854 76.9028 146.854C74.7158 146.854 72.9429 148.626 72.9429 150.814C72.9429 153.001 74.7158 154.773 76.9028 154.773Z" fill="#9CE86B"/>
<path d="M74.0526 160.762H91.4226C91.5745 160.762 91.7248 160.732 91.865 160.673C92.0052 160.615 92.1325 160.529 92.2394 160.421C92.3463 160.314 92.4307 160.186 92.4879 160.045C92.5451 159.904 92.574 159.754 92.5726 159.602V159.322C92.5726 157.006 91.6528 154.786 90.0156 153.149C88.3784 151.512 86.158 150.592 83.8427 150.592H72.9926L72.8726 159.592C72.8752 159.903 73.0008 160.201 73.2218 160.42C73.4428 160.639 73.7414 160.762 74.0526 160.762Z" fill="#399E56"/>
<path d="M76.8726 125.633L76.9026 156.293" stroke="#399E56" stroke-width="8.05" stroke-miterlimit="10" stroke-linecap="round"/>
<path d="M38.8135 144.734C41.0005 144.734 42.7734 142.961 42.7734 140.774C42.7734 138.587 41.0005 136.814 38.8135 136.814C36.6264 136.814 34.8535 138.587 34.8535 140.774C34.8535 142.961 36.6264 144.734 38.8135 144.734Z" fill="#399E56"/>
<path d="M32.9335 132.245L21.9335 145.715C21.7391 145.952 21.6467 146.257 21.6767 146.563C21.7067 146.868 21.8566 147.149 22.0936 147.345L22.3135 147.525C24.1108 148.986 26.4148 149.675 28.7193 149.438C31.0238 149.202 33.1403 148.06 34.6036 146.265L41.4435 137.845L34.5635 132.085C34.324 131.895 34.0202 131.806 33.7162 131.836C33.4123 131.866 33.1317 132.012 32.9335 132.245Z" fill="#399E56"/>
<path d="M53.5134 120.945C53.5134 120.945 57.1534 137.005 49.3734 140.945C47.6844 141.797 45.8062 142.203 43.9164 142.126C42.0266 142.049 40.1877 141.491 38.5735 140.505" stroke="#399E56" stroke-width="8.05" stroke-miterlimit="10" stroke-linecap="round"/>
<path d="M18.2417 132.255L91.7817 130.255C95.7082 130.147 99.5737 129.257 103.152 127.637C106.731 126.018 109.951 123.702 112.625 120.824C115.299 117.947 117.372 114.565 118.725 110.877C120.077 107.19 120.681 103.269 120.502 99.3453L118.502 55.2553C117.808 40.1419 111.228 25.9 100.168 15.5765C89.1078 5.25296 74.4471 -0.332387 59.3217 0.0153126C44.6503 0.354961 30.6548 6.25117 20.1633 16.5125C9.67181 26.7738 3.46669 40.6351 2.80172 55.2953L0.121662 113.855C0.0163125 116.276 0.410823 118.692 1.28048 120.954C2.15013 123.215 3.47627 125.273 5.17635 127C6.87643 128.726 8.91395 130.084 11.1618 130.988C13.4097 131.892 15.8197 132.324 18.2417 132.255Z" fill="#9CE86B"/>
<path d="M16.7015 131.847L116.925 129.538C125.743 129.335 132.726 122.022 132.523 113.204C132.32 104.386 125.007 97.4031 116.189 97.6063L15.9657 99.9157C7.14807 100.119 0.164691 107.432 0.367871 116.249C0.571051 125.067 7.88385 132.05 16.7015 131.847Z" fill="#9CE86B"/>
<path d="M70.8419 70.6451C82.4233 70.6451 91.8119 61.2565 91.8119 49.6751C91.8119 38.0937 82.4233 28.7051 70.8419 28.7051C59.2605 28.7051 49.8718 38.0937 49.8718 49.6751C49.8718 61.2565 59.2605 70.6451 70.8419 70.6451Z" fill="#FFFFF0"/>
<path d="M71.522 66.3146C81.4189 66.3146 89.442 58.2915 89.442 48.3946C89.442 38.4977 81.4189 30.4746 71.522 30.4746C61.625 30.4746 53.6021 38.4977 53.6021 48.3946C53.6021 58.2915 61.625 66.3146 71.522 66.3146Z" fill="#2E4F18"/>
<path d="M84.182 15.7559C83.2886 12.8509 81.4941 10.3054 79.0581 8.4879C76.6222 6.67038 73.6711 5.67502 70.632 5.64586C58.572 5.04586 56.312 15.5459 56.312 15.5459" stroke="#284214" stroke-width="4.02" stroke-miterlimit="10" stroke-linecap="round"/>
<path d="M98.5205 69.2297L107.838 69.015C111.896 68.9215 115.11 65.5559 115.017 61.4977L115.016 61.4877C114.923 57.4295 111.557 54.2154 107.499 54.309L98.1817 54.5237C94.1235 54.6172 90.9095 57.9828 91.003 62.041L91.0032 62.051C91.0967 66.1092 94.4623 69.3232 98.5205 69.2297Z" fill="#FFBB4D"/>
<path d="M28.0243 70.8567L37.3418 70.642C41.4 70.5485 44.6141 67.1828 44.5206 63.1246L44.5204 63.1146C44.4269 59.0563 41.0611 55.8423 37.0029 55.9359L27.6855 56.1506C23.6272 56.2441 20.4132 59.6097 20.5067 63.6679L20.507 63.6779C20.6005 67.7361 23.9661 70.9502 28.0243 70.8567Z" fill="#FFBB4D"/>
<path d="M87.3824 77.4845C63.6424 79.6245 57.7024 71.3545 43.7424 74.3945C38.4624 75.5445 30.8524 86.1845 38.9924 99.5845C50.3124 118.224 73.3124 110.064 73.3124 110.064C73.3124 110.064 90.9825 108.914 97.9825 94.7345C102.312 85.9645 95.8824 76.7245 87.3824 77.4845Z" fill="#E05858"/>
<mask id="mask0_5963_13478" style="mask-type:luminance" maskUnits="userSpaceOnUse" x="35" y="73" width="65" height="39">
<path d="M87.3839 77.4845C63.6439 79.6245 57.7038 71.3545 43.7438 74.3945C38.4638 75.5445 30.8538 86.1845 38.9938 99.5845C50.3138 118.224 73.3139 110.064 73.3139 110.064C73.3139 110.064 90.984 108.914 97.984 94.7345C102.314 85.9645 95.8839 76.7245 87.3839 77.4845Z" fill="white"/>
</mask>
<g mask="url(#mask0_5963_13478)">
<path d="M34.4724 104.257C33.3413 102.007 32.6619 99.5578 32.4724 97.0469C41.7315 97.0906 50.9539 98.2149 59.9524 100.397C61.1831 100.832 62.4473 101.167 63.7324 101.397C73.3314 104.01 82.4477 108.149 90.7324 113.657C81.5224 123.437 67.1223 122.917 67.1223 122.917C67.1223 122.917 43.6824 124.017 34.4724 104.257Z" fill="#FF7878"/>
<path d="M57.3922 82.1462C47.8422 78.1462 51.2023 71.6263 53.6923 68.4062C54.2623 69.0563 80.1423 78.4063 85.0223 73.3063C85.5623 75.3063 85.9523 78.4163 84.3523 80.4063C81.7723 83.6263 70.4422 87.6062 57.3922 82.1462Z" fill="#FFFFF0"/>
</g>
<path d="M105.442 108.225C105.442 108.225 130.272 114.695 137.242 109.755" stroke="#399E56" stroke-width="8.05" stroke-miterlimit="10" stroke-linecap="round"/>
<path d="M102.221 105.279C102.221 105.279 99.2907 97.7291 96.8207 98.5991C93.8207 99.6791 99.1907 105.949 99.1907 105.949C98.8706 107.147 98.9828 108.419 99.5077 109.542C100.033 110.665 100.937 111.567 102.061 112.089" fill="#399E56"/>
<path d="M102.221 105.279C101.582 103.945 100.861 102.653 100.061 101.409C99.6661 100.801 99.214 100.231 98.7107 99.7091C98.2107 99.2391 97.6007 98.7991 97.0707 98.8991C96.9314 98.9229 96.7986 98.9761 96.6814 99.0549C96.5641 99.1338 96.4649 99.2366 96.3902 99.3566C96.3156 99.4766 96.2673 99.611 96.2484 99.7511C96.2295 99.8911 96.2404 100.034 96.2806 100.169C96.4208 100.849 96.6636 101.503 97.0006 102.109C97.6936 103.393 98.5109 104.605 99.4406 105.729L99.5506 105.869V106.039C99.392 106.598 99.3246 107.179 99.3507 107.759C99.3956 108.949 99.8637 110.084 100.671 110.959C101.095 111.398 101.576 111.778 102.101 112.089C100.914 111.634 99.9331 110.763 99.3407 109.639C99.0572 109.062 98.8777 108.439 98.8106 107.799C98.7341 107.131 98.7679 106.456 98.9106 105.799L98.9807 106.109C97.9764 104.977 97.0917 103.743 96.3407 102.429C95.9439 101.742 95.6825 100.985 95.5707 100.199C95.5047 99.7456 95.5964 99.2831 95.8307 98.8891C95.9654 98.6961 96.1374 98.5319 96.3366 98.4065C96.5359 98.2811 96.7582 98.197 96.9906 98.1591C97.4459 98.0987 97.9078 98.2052 98.2906 98.4591C98.6235 98.6785 98.9261 98.9408 99.1906 99.2391C99.6876 99.8193 100.123 100.449 100.491 101.119C101.206 102.444 101.786 103.837 102.221 105.279Z" fill="#2D703B"/>
<path d="M104.291 112.638C106.953 112.638 109.111 110.48 109.111 107.818C109.111 105.156 106.953 102.998 104.291 102.998C101.629 102.998 99.4709 105.156 99.4709 107.818C99.4709 110.48 101.629 112.638 104.291 112.638Z" fill="#399E56"/>
<path d="M104.42 103.854C104.42 103.854 101.63 93.4845 97.76 93.4245C93.89 93.3645 94.67 97.5145 96.91 99.4245C98.7 100.944 100.84 105.304 100.84 105.304" fill="#399E56"/>
<path d="M104.42 103.855C103.678 101.622 102.744 99.4573 101.63 97.385C101.084 96.374 100.389 95.4503 99.5699 94.6449C99.184 94.2745 98.7139 94.0034 98.1999 93.855C97.6847 93.7519 97.1518 93.7795 96.6499 93.935C96.4158 93.9997 96.1992 94.1158 96.0158 94.275C95.8324 94.4342 95.6869 94.6323 95.5899 94.855C95.412 95.3353 95.384 95.8584 95.5099 96.355C95.7597 97.4293 96.3403 98.3981 97.1699 99.125C98.0475 99.9736 98.7806 100.96 99.3399 102.045C99.9303 103.077 100.432 104.158 100.84 105.275C100.18 104.275 99.5399 103.275 98.8399 102.335C98.2107 101.379 97.476 100.497 96.6499 99.7049C95.6628 98.8901 94.9794 97.7662 94.7099 96.5149C94.5492 95.849 94.6017 95.1494 94.8599 94.5149C95.0081 94.1992 95.2222 93.919 95.4879 93.693C95.7535 93.467 96.0645 93.3006 96.3999 93.2049C97.0246 92.9938 97.6972 92.9683 98.3361 93.1316C98.9751 93.2949 99.553 93.6399 99.9998 94.125C100.82 95.0139 101.495 96.0263 102 97.125C103.067 99.2658 103.88 101.525 104.42 103.855Z" fill="#2D703B"/>
<path d="M105.582 103.57C105.582 103.57 103.582 93.0199 99.7222 92.6699C95.8622 92.3199 97.1822 96.7699 98.4222 98.5599C99.6444 100.689 100.701 102.909 101.582 105.2" fill="#399E56"/>
<path d="M105.582 103.569C105.015 101.296 104.248 99.0778 103.292 96.9392C102.83 95.8927 102.213 94.9218 101.462 94.0592C101.115 93.657 100.676 93.3448 100.182 93.1492C99.6818 93.0087 99.1524 93.0087 98.6521 93.1492C98.4212 93.1949 98.2067 93.3016 98.0309 93.458C97.855 93.6145 97.7243 93.8152 97.6521 94.0392C97.5259 94.5482 97.5259 95.0802 97.6521 95.5892C97.8606 96.6952 98.3002 97.7447 98.9421 98.6692C99.5496 99.6949 100.065 100.772 100.482 101.889C100.923 102.987 101.3 104.108 101.612 105.249C100.482 103.179 99.5021 101.019 98.3021 99.0792C97.5774 98.0818 97.0884 96.933 96.872 95.7192C96.7504 95.0766 96.7882 94.4139 96.9821 93.7892C97.0997 93.4534 97.3009 93.1532 97.5669 92.917C97.8329 92.6807 98.1547 92.5163 98.502 92.4392C99.1479 92.2891 99.8228 92.3202 100.452 92.5292C101.049 92.776 101.577 93.1637 101.992 93.6592C102.754 94.6004 103.362 95.657 103.792 96.7892C104.65 98.9722 105.25 101.247 105.582 103.569Z" fill="#2D703B"/>
<path d="M106.502 103.738C106.502 103.738 106.142 93.7378 101.642 93.0378C97.8121 92.4578 99.0821 97.1278 100.322 98.9278C101.562 100.728 102.082 105.048 102.082 105.048C102.082 105.048 100.422 108.208 102.082 110.558" fill="#399E56"/>
<path d="M106.502 103.738C106.287 101.518 105.807 99.3328 105.072 97.2277C104.717 96.2049 104.167 95.2609 103.452 94.4477C103.119 94.0645 102.7 93.7664 102.228 93.5786C101.757 93.3907 101.247 93.3184 100.742 93.3677C100.522 93.381 100.309 93.4505 100.124 93.5695C99.938 93.6886 99.786 93.8532 99.6822 94.0477C99.4892 94.4944 99.4233 94.9859 99.4921 95.4677C99.619 96.525 99.9592 97.5456 100.492 98.4677C101.114 99.4442 101.554 100.525 101.792 101.658C102.06 102.762 102.244 103.885 102.342 105.018V105.088V105.158C101.916 105.988 101.645 106.89 101.542 107.818C101.431 108.767 101.627 109.728 102.102 110.558C101.808 110.17 101.585 109.733 101.442 109.268C101.301 108.794 101.233 108.302 101.242 107.808C101.259 106.813 101.48 105.833 101.892 104.928V105.078C101.712 103.978 101.442 102.898 101.172 101.838C100.927 100.768 100.49 99.7516 99.8821 98.8376C99.2667 97.8244 98.8841 96.687 98.7621 95.5077C98.6888 94.8741 98.7964 94.2327 99.0722 93.6577C99.2406 93.3653 99.4801 93.1204 99.7686 92.9456C100.057 92.7707 100.385 92.6717 100.722 92.6577C101.345 92.6034 101.972 92.6959 102.552 92.9277C103.113 93.1746 103.612 93.5436 104.012 94.0077C104.74 94.9135 105.284 95.953 105.612 97.0677C106.244 99.2333 106.544 101.482 106.502 103.738Z" fill="#2D703B"/>
<path d="M23.9917 77.2344C23.9917 77.2344 33.1417 106.604 45.6217 111.564C55.2317 115.384 68.8218 111.304 89.2318 107.564" stroke="#399E56" stroke-width="8.05" stroke-miterlimit="10" stroke-linecap="round"/>
<path d="M87.6328 104.985C87.6328 104.985 86.9028 95.4651 90.5128 94.2851C94.1228 93.1051 92.6428 99.3851 91.4028 101.285" fill="#399E56"/>
<path d="M87.6327 104.985C87.3695 103.271 87.3058 101.533 87.4427 99.8046C87.4806 98.009 88.0592 96.2664 89.1028 94.8046C89.4323 94.4357 89.8479 94.154 90.3127 93.9846C90.5427 93.9046 90.7927 93.8746 91.0227 93.8146C91.287 93.7917 91.5534 93.8085 91.8127 93.8646C92.0711 93.9489 92.3056 94.0936 92.4969 94.2866C92.6882 94.4797 92.8307 94.7155 92.9127 94.9746C93.0614 95.422 93.1192 95.8946 93.0827 96.3646C92.9903 98.1257 92.4085 99.8261 91.4027 101.275C91.7628 100.503 92.0281 99.6902 92.1927 98.8546C92.3954 98.0407 92.4863 97.203 92.4627 96.3646C92.4575 95.9755 92.3865 95.5901 92.2527 95.2246C92.1027 94.9046 91.9128 94.6546 91.6128 94.6046C91.4501 94.5845 91.2854 94.5845 91.1227 94.6046C90.9427 94.6046 90.7527 94.6846 90.5827 94.7446C90.2386 94.873 89.9324 95.0863 89.6927 95.3646C89.1877 95.989 88.8167 96.7106 88.6028 97.4846C88.3666 98.2614 88.1828 99.0532 88.0527 99.8546C87.8157 101.555 87.6754 103.268 87.6327 104.985Z" fill="#2D703B"/>
<path d="M88.4836 102.667C88.4836 102.667 89.1736 91.9465 92.9536 91.1265C96.7336 90.3065 95.9536 94.8866 94.9536 96.8166C93.9536 98.7466 93.1636 104.657 93.1636 104.657" fill="#399E56"/>
<path d="M88.4836 102.667C88.5273 100.242 88.863 97.8312 89.4836 95.4867C89.7811 94.2772 90.2961 93.1319 91.0035 92.1067C91.392 91.5569 91.9299 91.1301 92.5536 90.8767C93.1951 90.6434 93.892 90.6085 94.5536 90.7767C94.9024 90.8805 95.2189 91.0719 95.4728 91.3328C95.7266 91.5936 95.9093 91.9151 96.0035 92.2667C96.1868 92.9168 96.2311 93.5983 96.1335 94.2667C96.0278 95.2144 95.7536 96.1356 95.3236 96.9867C95.1941 97.2394 95.0806 97.4998 94.9836 97.7667C94.2336 99.9867 93.7436 102.367 93.1636 104.707C93.2036 103.498 93.3137 102.293 93.4935 101.097C93.6445 99.8813 93.909 98.6827 94.2836 97.5167C94.3836 97.2267 94.5136 96.9167 94.6436 96.6367C94.7665 96.3837 94.8734 96.1232 94.9636 95.8567C95.1491 95.3117 95.2765 94.7485 95.3436 94.1767C95.4936 93.0867 95.3436 91.7967 94.3436 91.5267C93.8305 91.4052 93.2936 91.4294 92.7936 91.5967C92.2867 91.7982 91.8514 92.1464 91.5436 92.5967C90.8533 93.5424 90.326 94.597 89.9836 95.7167C89.2748 97.9833 88.7728 100.309 88.4836 102.667Z" fill="#2D703B"/>
<path d="M89.7905 102.325C89.7905 102.325 91.3906 91.7049 95.2306 91.2149C99.0706 90.7249 97.9205 95.2149 96.7505 97.0549C95.5805 98.8949 94.2905 104.715 94.2905 104.715" fill="#399E56"/>
<path d="M89.7905 102.324C90.0426 99.9108 90.5866 97.5368 91.4105 95.2544C91.8152 94.0768 92.4246 92.98 93.2106 92.0143C93.6402 91.4898 94.2223 91.1118 94.8762 90.9326C95.5301 90.7535 96.2236 90.782 96.8606 91.0143C97.2002 91.1498 97.4996 91.3697 97.7306 91.6532C97.9616 91.9366 98.1164 92.2744 98.1805 92.6344C98.3125 93.2945 98.3125 93.9742 98.1805 94.6344C98.0551 95.2554 97.8571 95.8596 97.5906 96.4343C97.4549 96.7237 97.3012 97.0042 97.1305 97.2743C96.9805 97.5243 96.8506 97.7543 96.7206 98.0243C95.7906 100.174 95.1006 102.494 94.3206 104.784C94.4681 103.583 94.6818 102.392 94.9606 101.214C95.216 100.017 95.5808 98.8452 96.0505 97.7143C96.1705 97.4343 96.3306 97.1343 96.4806 96.8643C96.6302 96.625 96.7605 96.3742 96.8705 96.1143C97.1023 95.588 97.2766 95.0381 97.3905 94.4743C97.6305 93.4043 97.5605 92.0944 96.6205 91.7544C96.1207 91.5855 95.5835 91.5612 95.0706 91.6843C94.5539 91.8429 94.0927 92.1445 93.7405 92.5543C92.9718 93.4466 92.3568 94.4604 91.9205 95.5543C91.0121 97.7437 90.2993 100.009 89.7905 102.324Z" fill="#2D703B"/>
<path d="M90.402 111.304C93.064 111.304 95.222 109.146 95.222 106.484C95.222 103.822 93.064 101.664 90.402 101.664C87.74 101.664 85.582 103.822 85.582 106.484C85.582 109.146 87.74 111.304 90.402 111.304Z" fill="#399E56"/>
<path d="M90.8032 102.418C90.8032 102.418 92.8832 92.6176 97.4332 92.7176C101.303 92.8076 99.2533 97.1876 97.7233 98.7176C96.1933 100.248 94.9332 104.438 94.9332 104.438C94.9332 104.438 96.8433 110.438 90.8433 111.258" fill="#399E56"/>
<path d="M90.8032 102.417C91.1695 100.186 91.8742 98.0249 92.8932 96.0071C93.4087 94.9632 94.1219 94.0293 94.9932 93.2571C95.4702 92.8703 96.0268 92.5938 96.6232 92.4471C97.2282 92.3041 97.8583 92.3041 98.4633 92.4471C98.7968 92.5232 99.1053 92.6835 99.3591 92.9129C99.613 93.1423 99.8037 93.4329 99.9132 93.7571C100.094 94.3674 100.094 95.0168 99.9132 95.6271C99.5984 96.7705 99.0272 97.8272 98.2432 98.717C97.488 99.5031 96.8846 100.422 96.4633 101.427C96.0033 102.427 95.5532 103.427 95.1932 104.487V104.337C95.3988 105.113 95.4865 105.915 95.4532 106.717C95.4272 107.521 95.2076 108.306 94.8132 109.007C94.4188 109.706 93.823 110.271 93.1033 110.627C92.401 110.968 91.6414 111.175 90.8633 111.237C91.6223 111.113 92.3534 110.855 93.0232 110.477C93.681 110.103 94.2134 109.543 94.5532 108.867C95.1346 107.478 95.1915 105.925 94.7133 104.497V104.417V104.347C95.0038 103.25 95.3783 102.177 95.8333 101.137C96.264 100.059 96.8837 99.067 97.6632 98.207C98.3419 97.3938 98.8487 96.4516 99.1532 95.4371C99.3064 94.9719 99.3272 94.4733 99.2133 93.9971C99.143 93.7865 99.0195 93.5976 98.8549 93.4487C98.6902 93.2998 98.4898 93.1958 98.2732 93.147C97.7849 93.0103 97.2708 92.9934 96.7747 93.0979C96.2785 93.2024 95.8149 93.4251 95.4232 93.7471C94.5791 94.4239 93.8759 95.2597 93.3533 96.207C92.259 98.1681 91.4029 100.253 90.8032 102.417Z" fill="#2D703B"/>
<path d="M69.2921 31.2852L74.5621 44.4052L88.5121 46.6952L75.3921 51.9652L73.1022 65.9252L67.8322 52.8052L53.8821 50.5151L67.0021 45.2452L69.2921 31.2852Z" fill="#FFDE86"/>
</svg>
