<svg width="166" height="160" viewBox="0 0 166 160" fill="none" xmlns="http://www.w3.org/2000/svg">
<path d="M31.1614 89.9175C31.1614 89.9175 4.35139 85.9175 3.92139 78.4975C3.49139 71.0775 25.0414 55.6875 25.0414 55.6875" stroke="#399E56" stroke-width="7.83" stroke-miterlimit="10" stroke-linecap="round"/>
<path d="M29.9119 57.073C29.9119 57.073 32.5919 55.8329 31.7619 48.1829C31.2219 46.5229 34.2019 47.7629 34.4019 43.8329C34.6019 39.9029 31.0518 39.763 28.8018 44.173C27.4172 47.1829 26.7857 50.4845 26.9619 53.7929" fill="#399E56"/>
<path d="M29.9117 57.0738C30.5074 56.5696 30.9363 55.8967 31.1417 55.1438C31.3694 54.4056 31.5136 53.6441 31.5717 52.8738C31.6218 52.0979 31.6218 51.3196 31.5717 50.5438C31.5717 49.7738 31.4417 48.9938 31.3717 48.2238V48.2938C31.3169 48.1329 31.2899 47.9638 31.2918 47.7938C31.2939 47.587 31.3641 47.3866 31.4917 47.2238C31.703 47.0004 31.9584 46.8233 32.2417 46.7038C32.6662 46.5277 33.0407 46.2494 33.3317 45.8938C33.8277 45.1006 34.0425 44.1638 33.9417 43.2338C33.9417 42.3138 33.5017 41.3638 32.6917 41.2838C32.2403 41.2909 31.7964 41.3999 31.3929 41.6024C30.9895 41.805 30.637 42.096 30.3617 42.4538C29.0926 43.9983 28.19 45.8104 27.7217 47.7538C27.1995 49.7116 26.9274 51.7276 26.9117 53.7538C26.6965 51.6992 26.8078 49.6235 27.2417 47.6038C27.4593 46.5775 27.7706 45.5733 28.1717 44.6038C28.5789 43.6157 29.1541 42.7056 29.8717 41.9138C30.2399 41.5158 30.6685 41.1783 31.1417 40.9138C31.6495 40.5978 32.2457 40.454 32.8417 40.5038C33.1544 40.5399 33.4541 40.6493 33.7164 40.8231C33.9788 40.9968 34.1965 41.2301 34.3518 41.5038C34.6325 42.0095 34.7868 42.5756 34.8017 43.1538C34.9063 44.28 34.6165 45.4076 33.9818 46.3438C33.6146 46.7808 33.1483 47.1236 32.6217 47.3438C32.4336 47.4185 32.2608 47.5269 32.1117 47.6638C32.0517 47.7238 32.0417 47.8438 32.1117 48.0538V48.1238C32.2702 49.7148 32.2434 51.3189 32.0317 52.9038C31.9165 53.702 31.698 54.4819 31.3817 55.2238C31.1118 55.9871 30.5944 56.6383 29.9117 57.0738Z" fill="#2D703B"/>
<path d="M28.314 56.0231C28.314 56.0231 30.554 52.4231 29.314 44.8231C28.694 43.1931 31.734 44.2831 31.734 40.3431C31.734 36.4031 28.184 36.4531 26.164 40.9731C24.9286 44.0443 24.4585 47.3698 24.794 50.6631" fill="#399E56"/>
<path d="M28.3139 56.0239C28.6999 55.1586 28.9754 54.2481 29.1339 53.3139C29.2904 52.3844 29.3872 51.4458 29.4239 50.5039C29.4507 49.5633 29.4273 48.622 29.3539 47.6839C29.2739 46.7439 29.1339 45.8139 28.9939 44.8839V44.9539C28.9154 44.7843 28.8799 44.598 28.8903 44.4114C28.9008 44.2248 28.957 44.0437 29.0539 43.8839C29.2555 43.6483 29.5042 43.4575 29.7839 43.3239C30.1796 43.1144 30.5217 42.8167 30.7839 42.4539C31.2411 41.6401 31.4069 40.6947 31.2539 39.7739C31.1639 38.8439 30.7139 37.9439 29.9139 37.8939C29.4823 37.8671 29.0546 37.9908 28.7039 38.2439C28.3032 38.4953 27.9453 38.8093 27.6439 39.1739C26.4557 40.7827 25.6456 42.6387 25.2739 44.6039C24.8538 46.595 24.6825 48.6306 24.7639 50.6639C24.4439 48.6264 24.4439 46.5514 24.7639 44.5139C24.9319 43.4932 25.1896 42.4893 25.5339 41.5139C25.876 40.5063 26.3903 39.5657 27.0539 38.7339C27.3977 38.3038 27.8059 37.9294 28.2639 37.6239C28.7536 37.2779 29.3449 37.1054 29.9439 37.1339C30.2584 37.1613 30.5625 37.2602 30.8329 37.4231C31.1033 37.586 31.3328 37.8086 31.5039 38.0739C31.8092 38.5674 31.9943 39.1257 32.0439 39.7039C32.104 40.2456 32.104 40.7922 32.0439 41.3339C31.973 41.9026 31.7635 42.4451 31.4339 42.9139C31.0893 43.3704 30.64 43.7373 30.1239 43.9839C29.9421 44.068 29.7763 44.1831 29.6339 44.3239C29.5639 44.3939 29.5839 44.5239 29.6339 44.7239V44.7839L29.8139 46.2139C29.8139 46.6939 29.8839 47.2139 29.8939 47.6539C29.9356 48.6177 29.9122 49.5832 29.8239 50.5439C29.746 51.5033 29.582 52.4538 29.3339 53.3839C29.1208 54.3078 28.7773 55.1967 28.3139 56.0239Z" fill="#2D703B"/>
<path d="M26.7731 58.9166C29.3578 58.9166 31.4531 56.8213 31.4531 54.2366C31.4531 51.6519 29.3578 49.5566 26.7731 49.5566C24.1884 49.5566 22.0931 51.6519 22.0931 54.2366C22.0931 56.8213 24.1884 58.9166 26.7731 58.9166Z" fill="#399E56"/>
<path d="M26.7047 56.9848C26.7047 56.9848 28.3747 53.0948 26.0447 45.7648C25.1747 44.2448 28.3447 44.8648 27.7547 40.9748C27.1647 37.0848 23.6647 37.6548 22.3447 42.4248C21.5853 45.652 21.623 49.0155 22.4547 52.2248" fill="#399E56"/>
<path d="M26.7047 56.985C26.9605 56.073 27.0983 55.132 27.1147 54.185C27.1232 53.2431 27.0765 52.3014 26.9747 51.365C26.8632 50.4292 26.6963 49.5009 26.4747 48.585C26.2547 47.675 25.9747 46.775 25.7047 45.875V45.945C25.6069 45.7862 25.5478 45.6066 25.5322 45.4207C25.5165 45.2349 25.5448 45.0479 25.6147 44.875C25.777 44.6112 25.9914 44.3832 26.2447 44.205C26.6226 43.951 26.9318 43.6075 27.1447 43.205C27.4761 42.3286 27.4972 41.3651 27.2047 40.475C26.9847 39.575 26.4047 38.755 25.5947 38.825C25.1652 38.8656 24.7626 39.0527 24.4547 39.355C24.0969 39.6653 23.7899 40.0297 23.5447 40.435C22.6126 42.2024 22.0929 44.158 22.0247 46.155C21.9016 48.1908 22.0394 50.2341 22.4347 52.235C21.8147 50.2619 21.511 48.2031 21.5347 46.135C21.5438 45.0944 21.6476 44.0568 21.8447 43.035C22.0278 41.9799 22.3932 40.9647 22.9247 40.035C23.192 39.5636 23.5292 39.1354 23.9247 38.765C24.3571 38.3476 24.9169 38.0871 25.5147 38.025C25.8295 38.0067 26.1443 38.0602 26.4354 38.1815C26.7264 38.3028 26.9861 38.4886 27.1947 38.725C27.5713 39.1614 27.8356 39.6832 27.9647 40.245C28.1013 40.7774 28.1686 41.3253 28.1647 41.875C28.1908 42.4463 28.0669 43.0145 27.8055 43.5232C27.5442 44.0319 27.1543 44.4635 26.6747 44.775C26.5082 44.8887 26.3599 45.0269 26.2347 45.185C26.1847 45.265 26.2347 45.395 26.3047 45.575V45.635L26.6947 47.025C26.7947 47.495 26.9047 47.965 26.9947 48.435C27.1694 49.384 27.2896 50.3422 27.3547 51.305C27.4197 52.2649 27.3996 53.2286 27.2947 54.185C27.2418 55.1429 27.0428 56.0871 26.7047 56.985Z" fill="#2D703B"/>
<path d="M69.7335 156.71C71.8598 156.71 73.5834 154.986 73.5834 152.86C73.5834 150.733 71.8598 149.01 69.7335 149.01C67.6072 149.01 65.8834 150.733 65.8834 152.86C65.8834 154.986 67.6072 156.71 69.7335 156.71Z" fill="#9CE86B"/>
<path d="M73.0734 157.501L56.2934 159.351C56.1462 159.367 55.997 159.355 55.8548 159.313C55.7125 159.272 55.5799 159.203 55.4646 159.11C55.3493 159.017 55.2535 158.902 55.1829 158.771C55.1123 158.641 55.0683 158.498 55.0533 158.351V158.081C54.9296 156.973 55.0256 155.852 55.3357 154.781C55.6458 153.71 56.164 152.711 56.8606 151.841C57.5572 150.97 58.4186 150.246 59.3954 149.709C60.3722 149.172 61.4453 148.833 62.5533 148.711L73.0434 147.551L74.1233 156.211C74.1428 156.365 74.1307 156.522 74.0879 156.671C74.0451 156.821 73.9724 156.96 73.8743 157.08C73.7761 157.201 73.6546 157.3 73.5169 157.373C73.3792 157.445 73.2283 157.488 73.0734 157.501Z" fill="#399E56"/>
<path d="M69.3235 123.92C67.992 128.459 67.5372 133.211 67.9836 137.92C68.8036 145.31 72.5635 153.54 72.5635 153.54" stroke="#399E56" stroke-width="7.83" stroke-miterlimit="10" stroke-linecap="round"/>
<path d="M113.244 152.69C115.37 152.69 117.094 150.967 117.094 148.84C117.094 146.714 115.37 144.99 113.244 144.99C111.117 144.99 109.394 146.714 109.394 148.84C109.394 150.967 111.117 152.69 113.244 152.69Z" fill="#9CE86B"/>
<path d="M110.984 154.099L127.774 152.249C127.922 152.233 128.065 152.188 128.195 152.116C128.325 152.044 128.44 151.948 128.533 151.832C128.626 151.716 128.695 151.582 128.737 151.439C128.778 151.297 128.79 151.147 128.774 150.999V150.729C128.653 149.621 128.315 148.548 127.779 147.571C127.243 146.593 126.52 145.731 125.651 145.034C124.781 144.336 123.783 143.817 122.713 143.506C121.643 143.194 120.522 143.097 119.414 143.219L108.914 144.379L109.764 153.069C109.792 153.366 109.935 153.641 110.163 153.833C110.392 154.026 110.686 154.121 110.984 154.099Z" fill="#399E56"/>
<path d="M107.334 120.529C109.628 124.675 111.111 129.219 111.704 133.919C112.524 141.309 110.644 150.169 110.644 150.169" stroke="#399E56" stroke-width="7.83" stroke-miterlimit="10" stroke-linecap="round"/>
<path d="M134.321 122.859L63.1813 130.359C59.3831 130.76 55.5431 130.4 51.8855 129.3C48.2279 128.201 44.8261 126.383 41.8786 123.955C38.9312 121.526 36.4972 118.534 34.7189 115.154C32.9406 111.774 31.8536 108.073 31.5213 104.269L27.7913 61.5285C26.511 46.8737 31.0164 32.2997 40.3437 20.9241C49.671 9.5485 63.0797 2.27465 77.7013 0.658508C91.8857 -0.907453 106.135 2.97149 117.569 11.5109C129.003 20.0504 136.767 32.613 139.291 46.6585L149.401 102.769C149.817 105.088 149.75 107.469 149.205 109.762C148.66 112.055 147.649 114.211 146.234 116.096C144.819 117.981 143.031 119.554 140.982 120.717C138.932 121.881 136.665 122.61 134.321 122.859Z" fill="#9CE86B"/>
<path d="M132.351 91.3871L35.4691 102.083C26.944 103.024 20.7959 110.698 21.7371 119.223C22.6783 127.749 30.3523 133.897 38.8775 132.955L135.759 122.26C144.284 121.318 150.432 113.644 149.491 105.119C148.55 96.594 140.876 90.4459 132.351 91.3871Z" fill="#9CE86B"/>
<path d="M75.4838 70.8442C85.8315 69.7019 93.1518 59.1012 91.8343 47.167C90.5167 35.2329 81.0602 26.4844 70.7125 27.6268C60.3648 28.7692 53.0444 39.3699 54.3619 51.304C55.6795 63.2382 65.1361 71.9866 75.4838 70.8442Z" fill="#7EC64F"/>
<path d="M75.2494 68.7077C84.9494 67.6368 91.8114 57.6993 90.5763 46.5117C89.3412 35.3241 80.4766 27.1229 70.7767 28.1938C61.0767 29.2647 54.2146 39.2022 55.4498 50.3897C56.6849 61.5773 65.5495 69.7785 75.2494 68.7077Z" fill="#FFFFF0"/>
<path d="M73.3317 41.0708C75.4083 41.0708 77.0917 39.3874 77.0917 37.3108C77.0917 35.2342 75.4083 33.5508 73.3317 33.5508C71.2551 33.5508 69.5717 35.2342 69.5717 37.3108C69.5717 39.3874 71.2551 41.0708 73.3317 41.0708Z" fill="#2E4F18"/>
<path d="M39.4416 58.7497L30.4416 59.7497C29.4916 59.8524 28.5728 60.1485 27.7416 60.6197C27.7416 61.1797 27.8116 61.7497 27.8616 62.3097L28.8616 73.5897C29.8725 73.9542 30.9531 74.0842 32.0216 73.9697L41.0216 72.9697C41.9703 72.8862 42.8927 72.614 43.7347 72.1691C44.5767 71.7242 45.3214 71.1156 45.925 70.379C46.5286 69.6424 46.9789 68.7926 47.2496 67.8796C47.5203 66.9666 47.6059 66.0086 47.5013 65.0621C47.3967 64.1155 47.1041 63.1994 46.6406 62.3674C46.1771 61.5355 45.5521 60.8046 44.8022 60.2175C44.0524 59.6304 43.1929 59.1991 42.274 58.9487C41.3552 58.6984 40.3956 58.6341 39.4516 58.7597L39.4416 58.7497Z" fill="#FFBB4D"/>
<path d="M121.639 50.0426L112.644 51.0357C108.719 51.469 105.889 55.0021 106.322 58.9271C106.755 62.8521 110.288 65.6827 114.213 65.2494L123.209 64.2563C127.134 63.8229 129.964 60.2898 129.531 56.3648C129.098 52.4398 125.564 49.6093 121.639 50.0426Z" fill="#FFBB4D"/>
<path d="M61.1519 76.0801C64.6619 72.2101 67.6819 79.6601 71.2219 78.0801C73.2919 77.1801 73.8319 71.3001 76.7219 70.7801C79.2919 70.3101 82.3319 75.2801 84.7219 75.0201C87.1119 74.7601 89.0518 67.9301 92.3318 69.0201C95.6118 70.1101 100.952 125.75 96.7819 127.21C92.6119 128.67 92.5318 122.31 90.3918 122.8C88.5918 123.2 88.2719 128.54 85.1519 128.89C82.0319 129.24 81.4419 123.78 78.7219 124.08C76.0019 124.38 76.7219 130.92 72.6619 129.87C68.6019 128.82 57.6419 79.9201 61.1519 76.0801Z" fill="#E05858"/>
<path d="M54.7517 18.1104C54.7517 18.1104 55.1517 3.89041 64.0117 2.11041C72.8717 0.330413 77.2318 14.8304 77.2318 14.8304" stroke="#284214" stroke-width="3.91" stroke-miterlimit="10" stroke-linecap="round"/>
<path d="M83.7015 112.191C75.1815 109.981 70.4615 112.531 67.7915 118.771C69.6515 125.101 71.4615 129.641 72.6615 129.951C76.7115 131.001 75.9915 124.461 78.7215 124.161C81.4515 123.861 82.0415 129.311 85.1515 128.971C88.2615 128.631 88.5915 123.281 90.3915 122.881C92.5315 122.391 92.6115 128.751 96.7815 127.291C98.4315 126.711 98.5915 117.701 97.9815 106.931C87.7615 103.081 83.7015 112.191 83.7015 112.191Z" fill="#FF7878"/>
<path d="M115.44 32.667C115.274 31.1629 113.92 30.0782 112.416 30.2443C110.912 30.4103 109.827 31.7643 109.993 33.2684L111.111 43.3869C111.277 44.891 112.631 45.9757 114.135 45.8097C115.639 45.6436 116.723 44.2897 116.557 42.7856L115.44 32.667Z" fill="url(#paint0_linear_5963_17931)"/>
<path d="M121.778 19.7506L121.768 19.7517C120.116 19.9341 118.924 21.4215 119.107 23.0738L120.336 34.2062C120.518 35.8586 122.005 37.0502 123.658 36.8677L123.668 36.8666C125.32 36.6842 126.512 35.1969 126.329 33.5445L125.1 22.4121C124.918 20.7598 123.43 19.5682 121.778 19.7506Z" fill="url(#paint1_linear_5963_17931)"/>
<path d="M54.2013 57.748C55.4113 59.848 56.5513 61.888 57.8813 63.748C58.5413 64.748 59.2713 65.608 60.0213 66.498C60.8186 67.3701 61.6597 68.2012 62.5413 68.988C60.2355 68.091 58.2697 66.4925 56.9213 64.418C56.2346 63.4059 55.6517 62.3271 55.1813 61.198C54.7005 60.0975 54.3708 58.937 54.2013 57.748Z" fill="#7EC64F"/>
<path d="M53.7013 61.4473C54.7009 62.478 55.6108 63.592 56.4213 64.7773C57.2413 65.9373 57.9813 67.0573 58.8713 68.2573C58.15 68.0282 57.4901 67.6384 56.9413 67.1173C56.3865 66.6249 55.893 66.0675 55.4713 65.4573C55.0454 64.8602 54.677 64.224 54.3713 63.5573C54.0542 62.8872 53.8288 62.1775 53.7013 61.4473Z" fill="#7EC64F"/>
<path d="M48.9814 56.748C49.7814 58.228 50.5914 59.678 51.4514 61.098C52.3114 62.518 53.2014 63.888 54.1814 65.198C55.1575 66.5071 56.2234 67.7468 57.3714 68.908C58.5745 70.0323 59.884 71.037 61.2814 71.908C59.644 71.4242 58.1135 70.6335 56.7714 69.5781C55.4529 68.4883 54.268 67.2463 53.2414 65.878C52.2367 64.5081 51.3661 63.0447 50.6414 61.508C49.9019 59.9926 49.3447 58.3948 48.9814 56.748Z" fill="#7EC64F"/>
<path d="M93.7017 51.3809C93.8668 52.5886 93.8668 53.8131 93.7017 55.0209C93.5635 56.2319 93.2988 57.4251 92.9117 58.5809C92.1799 60.9469 90.725 63.0242 88.7517 64.5209C89.3935 63.5251 89.9778 62.4934 90.5017 61.4309C90.9907 60.3775 91.4246 59.2993 91.8017 58.2009C92.5517 56.0009 93.1017 53.7309 93.7017 51.3809Z" fill="#7EC64F"/>
<path d="M95.1416 54.8105C95.2188 55.5503 95.1953 56.2971 95.0716 57.0305C94.9648 57.7529 94.7873 58.4629 94.5416 59.1506C94.2825 59.8518 93.9472 60.5225 93.5416 61.1506C93.1515 61.7988 92.622 62.3522 91.9916 62.7705C92.5216 61.3805 92.9216 60.1005 93.3916 58.7705C93.8616 57.4033 94.4471 56.0786 95.1416 54.8105Z" fill="#7EC64F"/>
<path d="M98.4417 48.9902C98.5362 50.6795 98.4356 52.374 98.1417 54.0402C97.8676 55.715 97.4322 57.3593 96.8417 58.9502C96.232 60.5517 95.4294 62.0729 94.4517 63.4802C93.4504 64.8645 92.1947 66.0456 90.7517 66.9602C91.8578 65.7267 92.8392 64.3869 93.6817 62.9602C94.473 61.5311 95.1614 60.0473 95.7417 58.5202C96.3317 56.9902 96.8017 55.4102 97.2517 53.8202C97.7017 52.2302 98.0717 50.6302 98.4417 48.9902Z" fill="#7EC64F"/>
<path d="M137.923 75.7302C137.923 75.7302 163.223 66.0002 162.013 58.6502C160.803 51.3002 136.433 40.9902 136.433 40.9902" stroke="#399E56" stroke-width="7.83" stroke-miterlimit="10" stroke-linecap="round"/>
<path d="M133.044 42.7627C133.044 42.7627 131.564 38.7627 134.254 31.5827C135.194 30.1027 132.004 30.5827 132.784 26.7127C133.564 22.8427 137.034 23.6027 138.114 28.4327C138.712 31.6891 138.51 35.042 137.524 38.2027" fill="#399E56"/>
<path d="M133.044 42.7619C132.727 41.8464 132.545 40.8898 132.504 39.9219C132.449 38.9612 132.479 37.9974 132.594 37.0419C132.705 36.0864 132.872 35.1381 133.094 34.2019C133.204 33.7319 133.344 33.2719 133.464 32.8019L133.924 31.4319V31.3719C134.024 31.1819 134.054 31.0619 134.014 30.9819C133.896 30.8183 133.755 30.6733 133.594 30.5519C133.124 30.2158 132.751 29.761 132.514 29.2341C132.277 28.7071 132.184 28.1267 132.244 27.5519C132.272 27.0059 132.366 26.4654 132.524 25.9419C132.684 25.3873 132.975 24.8795 133.374 24.4619C133.593 24.2352 133.861 24.0615 134.157 23.954C134.453 23.8466 134.77 23.8082 135.084 23.8419C135.678 23.933 136.224 24.2219 136.634 24.6619C137.034 25.0474 137.371 25.4927 137.634 25.9819C138.113 26.9216 138.427 27.9362 138.564 28.9819C138.712 30.0116 138.765 31.0526 138.724 32.0919C138.64 34.1423 138.235 36.1669 137.524 38.0919C138.01 36.1294 138.249 34.1137 138.234 32.0919C138.262 30.0932 137.838 28.1139 136.994 26.3019C136.771 25.8836 136.484 25.5024 136.144 25.1719C135.843 24.8629 135.45 24.6594 135.024 24.5919C134.224 24.4819 133.604 25.2719 133.334 26.1619C133.005 27.0378 132.976 27.9983 133.254 28.8919C133.456 29.2866 133.747 29.629 134.104 29.8919C134.356 30.0754 134.561 30.3151 134.704 30.5919C134.767 30.7669 134.788 30.9545 134.763 31.139C134.739 31.3235 134.67 31.4994 134.564 31.6519V31.5819C134.244 32.4719 133.924 33.3519 133.654 34.2619C133.387 35.1647 133.177 36.0832 133.024 37.0119C132.87 37.9415 132.776 38.8802 132.744 39.8219C132.714 40.8109 132.814 41.7995 133.044 42.7619Z" fill="#2D703B"/>
<path d="M132.883 41.6702C132.883 41.6702 130.603 38.0902 131.703 30.4902C132.313 28.8402 129.283 29.9702 129.243 26.0302C129.203 22.0902 132.743 22.1002 134.823 26.6002C136.085 29.6613 136.586 32.983 136.283 36.2802" fill="#399E56"/>
<path d="M132.883 41.6699C132.383 40.8503 132.009 39.9604 131.773 39.0299C131.516 38.1039 131.342 37.1568 131.253 36.1999C131.154 35.2399 131.121 34.2744 131.153 33.3099C131.153 32.8299 131.153 32.3099 131.223 31.8699L131.383 30.4299V30.3699C131.383 30.1699 131.443 30.0499 131.383 29.9799C131.237 29.8386 131.068 29.7236 130.883 29.6399C130.373 29.4146 129.924 29.072 129.573 28.6399C129.239 28.1715 129.023 27.6296 128.943 27.0599C128.854 26.5213 128.831 25.9741 128.873 25.4299C128.914 24.8516 129.096 24.2922 129.403 23.7999C129.561 23.5224 129.783 23.2867 130.051 23.1127C130.319 22.9388 130.625 22.8315 130.943 22.7999C131.54 22.7633 132.131 22.9289 132.623 23.2699C133.089 23.5689 133.504 23.9402 133.853 24.3699C134.524 25.1927 135.045 26.1269 135.393 27.1299C135.756 28.1024 136.027 29.1068 136.203 30.1299C136.552 32.1628 136.583 34.2377 136.293 36.2799C136.348 34.2433 136.15 32.2076 135.703 30.2199C135.312 28.2592 134.481 26.4128 133.273 24.8199C132.971 24.4584 132.613 24.1478 132.213 23.8999C131.854 23.6574 131.425 23.5381 130.993 23.5599C130.193 23.6199 129.753 24.5599 129.673 25.4499C129.531 26.3729 129.704 27.3166 130.163 28.1299C130.447 28.4927 130.809 28.7867 131.223 28.9899C131.502 29.1194 131.751 29.3068 131.953 29.5399C132.05 29.6993 132.107 29.8793 132.121 30.0653C132.135 30.2513 132.105 30.4379 132.033 30.6099V30.5399C131.903 31.4699 131.773 32.3999 131.703 33.3399C131.648 34.2791 131.648 35.2207 131.703 36.1599C131.749 37.1024 131.856 38.041 132.023 38.9699C132.195 39.9025 132.484 40.8096 132.883 41.6699Z" fill="#2D703B"/>
<path d="M134.435 44.6705C137.02 44.6705 139.115 42.5752 139.115 39.9905C139.115 37.4059 137.02 35.3105 134.435 35.3105C131.85 35.3105 129.755 37.4059 129.755 39.9905C129.755 42.5752 131.85 44.6705 134.435 44.6705Z" fill="#399E56"/>
<path d="M130.796 42.7494C130.796 42.7494 128.316 39.3094 128.996 31.6494C129.506 29.9694 126.546 31.2694 126.276 27.3494C126.006 23.4294 129.546 23.2194 131.876 27.5794C133.306 30.5681 133.992 33.8582 133.876 37.1694" fill="#399E56"/>
<path d="M130.796 42.7495C130.248 41.9618 129.823 41.0952 129.536 40.1795C129.222 39.269 128.991 38.3318 128.846 37.3795C128.696 36.4261 128.606 35.4642 128.576 34.4995C128.576 34.0195 128.576 33.4995 128.576 33.0595L128.646 31.6195V31.5595C128.646 31.3495 128.646 31.2195 128.646 31.1595C128.491 31.0282 128.315 30.9234 128.126 30.8495C127.584 30.6596 127.097 30.3404 126.706 29.9195C126.346 29.4716 126.099 28.9433 125.986 28.3795C125.868 27.8446 125.814 27.2973 125.826 26.7495C125.829 26.1721 125.977 25.6047 126.256 25.0995C126.408 24.8295 126.622 24.5987 126.878 24.4251C127.135 24.2516 127.429 24.1401 127.736 24.0995C128.332 24.0273 128.934 24.1576 129.446 24.4695C129.922 24.7385 130.357 25.0754 130.736 25.4695C131.449 26.2612 132.024 27.1672 132.436 28.1495C132.861 29.1165 133.196 30.1208 133.436 31.1495C133.905 33.1603 134.056 35.2319 133.886 37.2895C133.832 35.2589 133.523 33.2432 132.966 31.2895C132.485 29.314 131.554 27.4763 130.246 25.9195C129.919 25.5768 129.542 25.2867 129.126 25.0595C128.758 24.8345 128.325 24.7395 127.896 24.7895C127.096 24.8995 126.706 25.7895 126.676 26.7895C126.592 27.7219 126.824 28.6556 127.336 29.4395C127.635 29.7862 128.012 30.057 128.436 30.2295C128.723 30.3441 128.982 30.5179 129.196 30.7395C129.304 30.8917 129.372 31.0676 129.397 31.2523C129.421 31.4369 129.4 31.6247 129.336 31.7995V31.7295C129.256 32.6695 129.186 33.6095 129.166 34.5495C129.151 35.491 129.191 36.4326 129.286 37.3695C129.387 38.3054 129.547 39.234 129.766 40.1495C129.998 41.0563 130.344 41.9299 130.796 42.7495Z" fill="#2D703B"/>
<defs>
<linearGradient id="paint0_linear_5963_17931" x1="114.191" y1="46.3166" x2="112.561" y2="31.5563" gradientUnits="userSpaceOnUse">
<stop stop-color="white"/>
<stop offset="0.8" stop-color="white" stop-opacity="0"/>
</linearGradient>
<linearGradient id="paint1_linear_5963_17931" x1="123.719" y1="37.4244" x2="121.927" y2="21.193" gradientUnits="userSpaceOnUse">
<stop stop-color="white"/>
<stop offset="0.8" stop-color="white" stop-opacity="0"/>
</linearGradient>
</defs>
</svg>
