<svg width="175" height="163" viewBox="0 0 175 163" fill="none" xmlns="http://www.w3.org/2000/svg">
<path d="M141.044 63.0316C153.044 57.7916 161.664 24.3716 120.194 10.4316" stroke="#399E56" stroke-width="7.78" stroke-miterlimit="10" stroke-linecap="round"/>
<path d="M119.255 6.0625C119.255 6.0625 108.465 7.6525 109.885 13.0625C109.885 13.0625 110.595 16.6725 115.145 13.3725C116.163 12.7807 117.247 12.3108 118.375 11.9725" fill="#399E56"/>
<path d="M119.255 6.0625C117.684 6.44839 116.146 6.95661 114.655 7.5825C113.187 8.1356 111.876 9.03833 110.835 10.2125C110.386 10.7818 110.146 11.4877 110.155 12.2125C110.166 12.5732 110.23 12.9304 110.345 13.2725C110.467 13.5871 110.666 13.8657 110.925 14.0825C111.216 14.2779 111.552 14.3976 111.901 14.4308C112.25 14.464 112.602 14.4096 112.925 14.2725C113.669 14.0145 114.375 13.658 115.025 13.2125C115.571 12.939 116.132 12.6953 116.705 12.4825C117.253 12.2439 117.832 12.0824 118.425 12.0025C117.865 12.1832 117.326 12.4212 116.815 12.7125C116.305 12.9925 115.815 13.3025 115.295 13.6025C114.639 14.1262 113.916 14.56 113.145 14.8925C112.722 15.0909 112.256 15.1777 111.79 15.1444C111.324 15.1111 110.875 14.959 110.485 14.7025C110.13 14.4023 109.847 14.0263 109.657 13.6024C109.466 13.1784 109.374 12.7171 109.385 12.2525C109.356 11.3407 109.658 10.4492 110.235 9.7425C111.375 8.48061 112.843 7.55979 114.475 7.0825C116.019 6.54203 117.625 6.19931 119.255 6.0625Z" fill="#2D703B"/>
<path d="M121.039 12.5762C122.706 10.6886 122.359 7.65863 120.265 5.80873C118.17 3.95882 115.12 3.98946 113.453 5.8771C111.786 7.76474 112.133 10.7946 114.227 12.6445C116.322 14.4944 119.372 14.4638 121.039 12.5762Z" fill="#399E56"/>
<path d="M115.138 8.75728C115.138 8.75728 114.138 6.43728 109.258 5.92728C108.532 5.87012 107.828 5.65527 107.194 5.29774C106.56 4.94021 106.012 4.44861 105.587 3.85728C104.477 1.94728 106.397 -0.832723 112.337 0.857277C112.337 0.857277 116.917 2.67728 118.587 4.94728" fill="#399E56"/>
<path d="M115.138 8.75816C114.618 8.07497 113.929 7.54041 113.138 7.20816C112.376 6.85817 111.573 6.60617 110.747 6.45816C109.937 6.28816 109.097 6.33816 108.187 6.08816C107.288 5.87266 106.463 5.42034 105.797 4.77816C105.458 4.43018 105.189 4.01913 105.008 3.56816C104.843 3.07829 104.843 2.54803 105.008 2.05816C105.185 1.59638 105.475 1.18581 105.85 0.863022C106.225 0.540236 106.674 0.315264 107.157 0.208157C108.911 -0.165783 110.735 -0.0340053 112.417 0.588158C113.581 1.10503 114.701 1.71362 115.768 2.40816C116.856 3.07118 117.803 3.94088 118.557 4.96816C117.691 4.06014 116.677 3.30606 115.557 2.73816C114.471 2.13224 113.341 1.60748 112.177 1.16816C110.603 0.662598 108.924 0.579834 107.307 0.928158C106.949 1.00779 106.615 1.17312 106.335 1.40999C106.055 1.64686 105.836 1.94819 105.697 2.28816C105.604 2.64445 105.61 3.01975 105.716 3.37267C105.822 3.72559 106.023 4.04241 106.297 4.28816C106.851 4.84391 107.54 5.24402 108.297 5.44816C108.695 5.55089 109.099 5.62442 109.508 5.66816C109.938 5.73816 110.367 5.83816 110.797 5.93816C111.651 6.15531 112.469 6.49198 113.227 6.93816C114.03 7.34238 114.695 7.9758 115.138 8.75816Z" fill="#2D703B"/>
<path d="M114.918 9.59836C112.048 7.87836 111.268 7.74836 107.288 7.24836C106.594 7.40917 105.873 7.40896 105.18 7.24775C104.486 7.08654 103.839 6.76861 103.288 6.31836C101.658 4.77836 102.558 1.45836 108.558 1.31836C108.558 1.31836 115.068 1.50836 117.428 5.31836" fill="#399E56"/>
<path d="M114.918 9.59818C114.318 9.29818 113.718 8.99818 113.098 8.72818C112.492 8.46337 111.862 8.25581 111.218 8.10818C109.897 7.85191 108.561 7.67824 107.218 7.58818H107.348C106.303 7.82906 105.211 7.75601 104.208 7.37818C103.697 7.17631 103.233 6.86974 102.848 6.47818C102.444 6.05435 102.192 5.50978 102.128 4.92818C102.114 4.36152 102.258 3.80214 102.542 3.31164C102.826 2.82114 103.24 2.41854 103.738 2.14818C104.633 1.6117 105.631 1.27089 106.668 1.14818C107.662 0.992275 108.674 0.992275 109.668 1.14818C110.663 1.29276 111.643 1.52363 112.598 1.83818C114.544 2.37498 116.229 3.60117 117.338 5.28818C116.103 3.76365 114.385 2.7055 112.468 2.28818C110.616 1.70896 108.656 1.56187 106.738 1.85818C105.807 1.98561 104.912 2.30209 104.108 2.78818C103.735 2.99397 103.424 3.29693 103.209 3.6649C102.995 4.03287 102.884 4.45213 102.888 4.87818C102.953 5.29884 103.133 5.69329 103.408 6.01798C103.684 6.34268 104.043 6.585 104.448 6.71818C105.303 7.05399 106.238 7.13389 107.138 6.94818H107.218H107.268C108.617 7.12078 109.953 7.38134 111.268 7.72818C112.577 8.15063 113.81 8.78212 114.918 9.59818Z" fill="#2D703B"/>
<path d="M113.784 10.7989C113.784 10.7989 112.955 9.64893 108.215 10.1489C107.491 10.249 106.755 10.1821 106.061 9.95328C105.368 9.72447 104.736 9.33984 104.215 8.82893C102.745 7.14893 103.994 3.96893 110.034 4.45893C112.938 4.757 115.659 6.0171 117.765 8.03893" fill="#399E56"/>
<path d="M113.784 10.7999C113.297 10.4865 112.733 10.3135 112.154 10.2999C111.578 10.2648 111.001 10.2648 110.424 10.2999C109.854 10.2999 109.274 10.3799 108.704 10.4599C108.101 10.5455 107.488 10.5455 106.884 10.4599C106.24 10.4156 105.614 10.2251 105.055 9.90283C104.495 9.58054 104.016 9.13493 103.654 8.59985C103.476 8.30202 103.364 7.96911 103.326 7.62391C103.288 7.27871 103.325 6.92938 103.434 6.59985C103.665 5.96602 104.097 5.42516 104.664 5.05985C105.731 4.4186 106.95 4.07341 108.194 4.05985C108.792 4.02455 109.391 4.04463 109.984 4.11985C110.587 4.16552 111.184 4.27275 111.764 4.43985C114.046 5.07699 116.116 6.30906 117.764 8.00985C115.978 6.51726 113.864 5.46868 111.594 4.94985C110.473 4.71986 109.325 4.64916 108.184 4.73985C107.074 4.76811 105.991 5.08891 105.044 5.66985C104.616 5.91441 104.297 6.31403 104.153 6.78648C104.01 7.25894 104.053 7.76832 104.274 8.20985C104.572 8.64696 104.963 9.01207 105.42 9.2785C105.877 9.54494 106.387 9.70598 106.914 9.74985C107.189 9.79171 107.467 9.80844 107.744 9.79985L108.594 9.74985C109.191 9.71985 109.788 9.71985 110.384 9.74985C110.981 9.76667 111.574 9.84373 112.154 9.97985C112.771 10.0734 113.342 10.3606 113.784 10.7999Z" fill="#2D703B"/>
<path d="M113.707 10.5625C113.707 10.5625 115.887 14.5625 120.127 12.8925L113.707 10.5625Z" fill="#399E56"/>
<path d="M113.707 10.5625C114.142 10.995 114.61 11.3929 115.107 11.7525C115.575 12.0976 116.086 12.38 116.627 12.5925C117.16 12.8039 117.724 12.9256 118.297 12.9525C118.907 12.9815 119.519 12.9614 120.127 12.8925C119.588 13.2648 118.967 13.5015 118.317 13.5825C117.64 13.6782 116.949 13.592 116.317 13.3325C115.705 13.0907 115.154 12.7172 114.703 12.2384C114.252 11.7597 113.912 11.1875 113.707 10.5625Z" fill="#2D703B"/>
<path d="M80.8544 153.95C83.417 153.95 85.4944 151.873 85.4944 149.31C85.4944 146.747 83.417 144.67 80.8544 144.67C78.2918 144.67 76.2144 146.747 76.2144 149.31C76.2144 151.873 78.2918 153.95 80.8544 153.95Z" fill="#399E56"/>
<path d="M71.9342 144.321L70.4943 161.271C70.4778 161.466 70.4999 161.663 70.5594 161.849C70.6188 162.035 70.7144 162.208 70.8407 162.358C70.967 162.507 71.1215 162.631 71.2954 162.72C71.4693 162.81 71.6593 162.865 71.8543 162.881C73.037 162.988 74.2292 162.86 75.3622 162.504C76.4952 162.148 77.5466 161.572 78.4557 160.807C79.3648 160.043 80.1138 159.107 80.6593 158.052C81.2049 156.997 81.5362 155.845 81.6343 154.661L82.1143 144.531L74.4943 142.771C73.8143 142.711 72.1142 142.691 71.9342 144.321Z" fill="#399E56"/>
<path d="M103.974 125.63C104.759 128.94 104.885 132.372 104.344 135.73C103.763 139.244 102.327 142.561 100.164 145.39C97.937 148.256 95.005 150.495 91.6543 151.89C88.3867 153.226 84.872 153.85 81.3443 153.72C80.7324 153.703 80.1297 153.566 79.5709 153.316C79.0121 153.066 78.5079 152.708 78.0873 152.264C77.6666 151.819 77.3377 151.295 77.1192 150.724C76.9008 150.152 76.7972 149.542 76.8143 148.93C76.8314 148.318 76.9689 147.716 77.2189 147.157C77.4688 146.598 77.8263 146.094 78.2711 145.673C78.7159 145.253 79.2392 144.924 79.8111 144.705C80.383 144.487 80.9924 144.383 81.6044 144.4H81.8243C84.0278 144.584 86.2453 144.305 88.3343 143.58C90.3357 142.864 92.117 141.641 93.5044 140.03C94.9048 138.345 95.8728 136.344 96.3243 134.2C96.7964 131.913 96.8135 129.554 96.3744 127.26V127.18C96.1929 126.18 96.4101 125.148 96.9796 124.306C97.5491 123.464 98.4257 122.879 99.4216 122.675C100.418 122.471 101.454 122.665 102.308 123.215C103.163 123.766 103.768 124.629 103.994 125.62L103.974 125.63Z" fill="#399E56"/>
<path d="M67.7023 139.59L135.952 119.59C139.6 118.522 142.998 116.737 145.947 114.339C148.896 111.942 151.338 108.981 153.13 105.629C154.921 102.277 156.026 98.6014 156.38 94.8172C156.735 91.0331 156.331 87.2162 155.192 83.59L142.462 42.88C138.093 28.9243 128.438 17.2313 115.561 10.3004C102.684 3.36959 87.6071 1.75077 73.5523 5.79001C59.924 9.71852 48.2941 18.6719 41.0108 30.8422C33.7275 43.0126 31.3336 57.4931 34.3123 71.36L46.2324 126.77C46.7202 129.066 47.6768 131.237 49.0426 133.147C50.4083 135.056 52.1536 136.663 54.1691 137.866C56.1847 139.07 58.4271 139.844 60.7558 140.141C63.0845 140.437 65.4494 140.25 67.7023 139.59Z" fill="#9CE86B"/>
<path d="M66.1461 139.674L159.264 112.867C167.459 110.508 172.189 101.953 169.83 93.7583C167.471 85.5638 158.916 80.8332 150.722 83.1923L57.6033 109.999C49.4088 112.358 44.6783 120.913 47.0373 129.108C49.3963 137.302 57.9516 142.033 66.1461 139.674Z" fill="#9CE86B"/>
<path d="M101.865 112.963C115.415 108.563 124.565 106.803 135.235 99.9632C150.235 90.3332 126.365 59.9632 116.585 64.7332C103.085 71.3132 98.3846 74.0332 86.8446 75.0632C75.3046 76.0932 76.0146 110.683 88.2246 115.233C91.0646 116.293 97.7046 114.333 101.865 112.963Z" fill="#E05858"/>
<mask id="mask0_5963_18604" style="mask-type:luminance" maskUnits="userSpaceOnUse" x="78" y="64" width="63" height="52">
<path d="M101.866 112.967C115.416 108.567 124.566 106.807 135.236 99.9671C150.236 90.3371 126.366 59.9671 116.586 64.7371C103.086 71.3171 98.386 74.0371 86.846 75.0671C75.306 76.0971 76.016 110.687 88.226 115.237C91.066 116.297 97.7061 114.337 101.866 112.967Z" fill="white"/>
</mask>
<g mask="url(#mask0_5963_18604)">
<path d="M66.3565 75.1175C68.1465 82.3575 81.3565 83.4175 95.9465 79.7975C110.536 76.1775 121.716 69.0875 119.946 61.7975C118.176 54.5075 104.546 50.1075 89.9465 53.7275C75.3465 57.3475 64.5565 67.8775 66.3565 75.1175Z" fill="#FFFFF0"/>
<path d="M77.7962 121.558C77.7962 121.558 75.5563 108.108 80.5963 102.558C85.6363 97.008 93.1363 101.218 99.8763 95.338C104.686 91.138 125.996 83.908 136.326 100.958C136.326 100.958 138.256 102.908 134.466 105.848C130.026 109.288 97.7962 122.498 97.7962 122.498C97.7962 122.498 68.9462 122.898 77.7962 121.558Z" fill="#FF7878"/>
<path d="M81.0068 110.288C81.0068 110.288 92.2368 110.168 110.317 104.218C136.387 95.6278 129.967 91.6078 129.637 90.5178C129.307 89.4278 131.477 86.5778 135.807 87.0678C140.137 87.5578 141.197 96.0678 141.037 96.6378C140.877 97.2078 135.847 106.848 135.847 106.848L111.707 121.558L87.3168 131.488L77.7068 116.768L78.1268 110.658L81.0068 110.288Z" fill="#FFFFF0"/>
</g>
<path d="M87.3834 66.7114C85.4639 66.6636 83.5719 66.2424 81.8133 65.4714C80.0199 64.7113 78.372 63.6455 76.9433 62.3214C76.206 61.6556 75.5361 60.9187 74.9433 60.1214C74.3739 59.3233 73.8881 58.4688 73.4934 57.5714C72.7052 55.8025 72.3323 53.8767 72.4033 51.9414C73.0533 53.6557 73.8671 55.3033 74.8334 56.8614C75.3101 57.6053 75.831 58.3199 76.3933 59.0014C76.5433 59.1614 76.6834 59.3314 76.8234 59.5014C76.9634 59.6714 77.1233 59.8214 77.2733 59.9814C77.4233 60.1414 77.5734 60.3014 77.7334 60.4514C77.8934 60.6014 78.0434 60.7714 78.2134 60.9114C79.5185 62.1216 80.9424 63.197 82.4634 64.1214C84.0471 65.0876 85.6904 65.9527 87.3834 66.7114Z" fill="#4CB068"/>
<path d="M82.1132 67.6622C80.9255 67.5249 79.7655 67.208 78.6731 66.7222C78.1211 66.487 77.5864 66.2129 77.0731 65.9022C76.5572 65.5985 76.0596 65.2646 75.5831 64.9022C74.6329 64.1408 73.8297 63.2122 73.2131 62.1622C72.5879 61.1243 72.2209 59.9514 72.1431 58.7422C72.5739 59.8112 73.1421 60.8197 73.8331 61.7422C74.1733 62.1907 74.5442 62.6151 74.9431 63.0122C75.3379 63.4155 75.7553 63.7961 76.1931 64.1522C77.0815 64.8679 78.0244 65.5131 79.0132 66.0822C80.0032 66.6322 81.0332 67.1622 82.1132 67.6622Z" fill="#4CB068"/>
<path d="M118.033 58.4823C118.836 56.8244 119.534 55.1177 120.123 53.3723C120.691 51.6849 121.096 49.9469 121.333 48.1823C121.333 47.9623 121.333 47.7423 121.403 47.5223C121.473 47.3023 121.403 47.0823 121.403 46.8723C121.403 46.6623 121.403 46.4323 121.403 46.2123C121.403 45.9923 121.403 45.7723 121.403 45.5523C121.401 44.6663 121.344 43.7813 121.233 42.9023C120.976 41.0892 120.547 39.3045 119.953 37.5723C121.243 39.008 122.19 40.7176 122.723 42.5723C122.993 43.5153 123.164 44.4838 123.233 45.4623C123.306 46.4424 123.279 47.4275 123.153 48.4023C122.904 50.3357 122.318 52.2106 121.423 53.9423C120.595 55.6594 119.444 57.2009 118.033 58.4823Z" fill="#4CB068"/>
<path d="M122.223 56.4827C122.723 55.4127 123.223 54.3427 123.573 53.2627C123.962 52.1941 124.27 51.0976 124.493 49.9827C124.609 49.4287 124.686 48.8673 124.723 48.3027C124.763 47.74 124.763 47.1753 124.723 46.6127C124.667 45.4603 124.458 44.3205 124.103 43.2227C124.818 44.2007 125.288 45.3357 125.473 46.5327C125.665 47.7373 125.641 48.9663 125.403 50.1627C125.278 50.7551 125.118 51.3395 124.923 51.9127C124.726 52.4788 124.489 53.0302 124.213 53.5627C123.702 54.6314 123.031 55.6161 122.223 56.4827Z" fill="#4CB068"/>
<path d="M96.5259 66.0421C108.919 66.0421 118.966 55.9954 118.966 43.6021C118.966 31.2088 108.919 21.1621 96.5259 21.1621C84.1326 21.1621 74.0859 31.2088 74.0859 43.6021C74.0859 55.9954 84.1326 66.0421 96.5259 66.0421Z" fill="#FFFFF0"/>
<mask id="mask1_5963_18604" style="mask-type:luminance" maskUnits="userSpaceOnUse" x="74" y="21" width="45" height="46">
<path d="M96.5298 66.0421C108.923 66.0421 118.97 55.9954 118.97 43.6021C118.97 31.2088 108.923 21.1621 96.5298 21.1621C84.1365 21.1621 74.0898 31.2088 74.0898 43.6021C74.0898 55.9954 84.1365 66.0421 96.5298 66.0421Z" fill="white"/>
</mask>
<g mask="url(#mask1_5963_18604)">
<path d="M101.308 40.9661C104.693 39.1334 105.918 34.8406 104.043 31.3777C102.168 27.9148 97.9045 26.5932 94.5193 28.4258C91.1341 30.2585 89.9097 34.5514 91.7844 38.0143C93.6591 41.4772 97.9231 42.7987 101.308 40.9661Z" fill="#2E4F18"/>
</g>
<path d="M134.944 59.8127L138.944 58.6627C139.865 58.4262 140.729 58.0073 141.486 57.4309C142.242 56.8545 142.875 56.1322 143.347 55.3068C143.819 54.4814 144.121 53.5697 144.235 52.6255C144.349 51.6814 144.272 50.7241 144.009 49.8102C143.746 48.8963 143.302 48.0445 142.704 47.3051C142.106 46.5657 141.366 45.9537 140.527 45.5055C139.689 45.0572 138.769 44.7818 137.822 44.6954C136.875 44.609 135.92 44.7135 135.014 45.0027L131.014 46.1527C129.206 46.6801 127.68 47.9016 126.769 49.5504C125.859 51.1992 125.637 53.1413 126.154 54.9527C126.682 56.7586 127.902 58.2828 129.548 59.1931C131.195 60.1035 133.134 60.3262 134.944 59.8127Z" fill="#FFBB4D"/>
<path d="M61.7509 79.8786L70.3997 77.3888C74.1732 76.3025 76.3515 72.3629 75.2652 68.5894C74.1789 64.8159 70.2393 62.6375 66.4658 63.7238L57.817 66.2136C54.0436 67.2999 51.8652 71.2395 52.9515 75.013C54.0378 78.7865 57.9774 80.9649 61.7509 79.8786Z" fill="#FFBB4D"/>
<path d="M42.7641 88.7617C27.0941 83.9817 13.264 59.9917 37.954 31.7617" stroke="#399E56" stroke-width="7.81" stroke-miterlimit="10" stroke-linecap="round"/>
<path d="M101.224 15.722C101.224 15.722 93.814 1.88198 80.394 7.58198C69.674 12.142 70.5841 24.732 70.5841 24.732" stroke="#284214" stroke-width="3.89" stroke-miterlimit="10" stroke-linecap="round"/>
<path d="M156.825 128.053C159.387 128.053 161.465 125.976 161.465 123.413C161.465 120.851 159.387 118.773 156.825 118.773C154.262 118.773 152.185 120.851 152.185 123.413C152.185 125.976 154.262 128.053 156.825 128.053Z" fill="#399E56"/>
<path d="M160.224 132.482L167.584 116.412C167.669 116.233 167.716 116.039 167.725 115.841C167.734 115.643 167.704 115.446 167.636 115.26C167.568 115.074 167.464 114.903 167.33 114.758C167.196 114.612 167.034 114.495 166.854 114.412C165.775 113.909 164.607 113.626 163.418 113.578C162.229 113.53 161.042 113.718 159.926 114.132C158.809 114.546 157.787 115.177 156.916 115.989C156.046 116.801 155.345 117.777 154.854 118.862L153.034 126.082L157.574 132.462C158.204 132.772 159.934 133.092 160.224 132.482Z" fill="#399E56"/>
<path d="M125.645 114.843C128.671 113.123 131.947 111.885 135.355 111.173C139 110.427 142.771 110.56 146.355 111.563C149.832 112.595 153.075 114.293 155.905 116.563C158.553 118.694 160.958 121.112 163.075 123.773C163.797 124.737 164.118 125.943 163.971 127.139C163.825 128.335 163.222 129.428 162.289 130.189C161.355 130.951 160.164 131.323 158.963 131.226C157.762 131.13 156.645 130.573 155.845 129.673L155.735 129.523C152.415 125.053 148.435 121.243 143.915 119.743C141.623 118.99 139.183 118.805 136.805 119.203C134.205 119.644 131.688 120.484 129.345 121.693H129.285C128.376 122.122 127.337 122.183 126.384 121.864C125.432 121.544 124.64 120.868 124.174 119.977C123.709 119.087 123.606 118.051 123.888 117.086C124.17 116.121 124.813 115.303 125.685 114.803L125.645 114.843Z" fill="#399E56"/>
<path d="M167.346 125.415C169.419 120.082 168.921 114.912 166.234 113.868C163.546 112.823 159.688 116.3 157.615 121.633C155.542 126.966 156.04 132.136 158.727 133.18C161.414 134.225 165.273 130.748 167.346 125.415Z" fill="#066C5C"/>
<path d="M35.4676 31.338C35.4676 31.338 33.2076 20.808 38.7276 20.238C38.7276 20.238 42.3076 19.648 40.8376 24.998C40.6581 26.1489 40.6144 27.3169 40.7076 28.478" fill="#399E56"/>
<path d="M35.4675 31.3376C35.0237 29.778 34.7785 28.1686 34.7375 26.5476C34.6127 24.8726 34.9591 23.196 35.7375 21.7076C36.1864 20.9347 36.8952 20.3464 37.7375 20.0476C38.1643 19.8779 38.6234 19.8051 39.0817 19.8345C39.54 19.8639 39.986 19.9947 40.3876 20.2176C40.7592 20.4911 41.0544 20.8554 41.2452 21.2755C41.4361 21.6957 41.5161 22.1578 41.4775 22.6176C41.4394 23.4468 41.2913 24.2673 41.0375 25.0576C40.9375 25.6276 40.8276 26.1976 40.7476 26.7676C40.676 27.3347 40.6626 27.9077 40.7075 28.4776C40.5853 27.9028 40.5382 27.3145 40.5675 26.7276C40.5693 26.1426 40.606 25.5582 40.6775 24.9776C40.8637 24.2222 40.9478 23.4453 40.9275 22.6676C40.9422 22.323 40.8714 21.9801 40.7213 21.6695C40.5713 21.3589 40.3466 21.0903 40.0675 20.8876C39.7617 20.7183 39.417 20.6321 39.0675 20.6376C38.7267 20.6523 38.3899 20.7163 38.0675 20.8276C37.3866 21.0689 36.8105 21.5389 36.4375 22.1576C35.7208 23.5287 35.3404 25.0505 35.3275 26.5976C35.2569 28.1789 35.3037 29.7632 35.4675 31.3376Z" fill="#2D703B"/>
<path d="M43.0922 32.9832C44.5779 30.6555 44.0841 27.6846 41.9892 26.3474C39.8943 25.0102 36.9916 25.8132 35.5059 28.1409C34.0201 30.4685 34.5139 33.4395 36.6088 34.7766C38.7037 36.1138 41.6064 35.3108 43.0922 32.9832Z" fill="#399E56"/>
<path d="M40.8843 28.9285C40.8843 28.9285 41.2242 26.4485 45.6842 24.6485C46.3623 24.3952 46.9758 23.9947 47.4807 23.476C47.9856 22.9573 48.3693 22.3332 48.6042 21.6485C49.1442 19.5285 46.6042 17.4185 41.3942 20.6485C41.3942 20.6485 37.5442 23.6485 36.5742 26.2285" fill="#399E56"/>
<path d="M40.8842 28.9278C41.0533 28.0779 41.4668 27.2959 42.0741 26.6778C42.6743 26.0457 43.3653 25.5065 44.1241 25.0778C44.4956 24.8528 44.8794 24.6491 45.274 24.4678C45.6507 24.3161 46.0152 24.1355 46.3641 23.9278C47.0417 23.5277 47.6008 22.9549 47.9841 22.2678C48.1668 21.9662 48.2634 21.6204 48.2634 21.2678C48.2634 20.9152 48.1668 20.5693 47.9841 20.2678C47.7576 19.9849 47.4674 19.7595 47.1372 19.61C46.807 19.4606 46.4462 19.3913 46.0841 19.4078C44.4541 19.5213 42.882 20.0591 41.524 20.9678C40.5383 21.7003 39.6091 22.5059 38.7441 23.3778C37.8384 24.2195 37.0841 25.2106 36.5142 26.3078C36.9548 25.1321 37.6129 24.0499 38.4541 23.1178C39.2862 22.174 40.1888 21.2948 41.1541 20.4878C42.5877 19.4458 44.2859 18.8289 46.0541 18.7078C46.5398 18.6807 47.0248 18.7722 47.4673 18.9742C47.9098 19.1763 48.2965 19.483 48.5941 19.8678C48.8711 20.2987 49.0041 20.8064 48.9741 21.3178C48.9245 21.7942 48.7817 22.2563 48.5541 22.6778C48.0988 23.424 47.4625 24.0431 46.7041 24.4778C45.9041 24.9578 45.0941 25.1378 44.3641 25.4778C43.6243 25.8449 42.9324 26.3017 42.3041 26.8378C41.6441 27.3875 41.1521 28.1117 40.8842 28.9278Z" fill="#2D703B"/>
<path d="M41.6456 30.2588C43.9056 27.8388 44.6457 27.4988 48.2457 25.9388C48.9546 25.9028 49.6455 25.7035 50.2648 25.3566C50.884 25.0097 51.4147 24.5245 51.8157 23.9388C52.9357 22.0388 51.1857 19.1288 45.4557 20.6488C45.4557 20.6488 39.3257 22.6488 38.1157 26.8288" fill="#399E56"/>
<path d="M41.6454 30.2598C42.45 29.1754 43.4262 28.2297 44.5354 27.4598C45.6911 26.7787 46.8866 26.1676 48.1155 25.6298H48.1954C49.1003 25.5628 49.9659 25.2326 50.6854 24.6798C51.0365 24.446 51.3159 24.1193 51.4924 23.7362C51.669 23.3531 51.7358 22.9286 51.6854 22.5098C51.574 22.1036 51.3541 21.7354 51.0493 21.4448C50.7445 21.1541 50.3664 20.9518 49.9554 20.8598C49.0607 20.6117 48.1239 20.5538 47.2054 20.6898C45.303 20.9429 43.4835 21.6269 41.8855 22.6898C40.1747 23.619 38.8363 25.1093 38.0955 26.9098C38.6891 25.0053 39.9541 23.3813 41.6554 22.3398C42.4756 21.7832 43.3422 21.298 44.2455 20.8898C45.1558 20.4612 46.1275 20.1777 47.1255 20.0498C48.1242 19.8841 49.1466 19.9318 50.1255 20.1898C50.6748 20.3055 51.1806 20.573 51.5854 20.9619C51.9903 21.3508 52.2778 21.8455 52.4154 22.3898C52.5119 22.9599 52.4206 23.5459 52.1554 24.0598C51.9064 24.5288 51.5664 24.9435 51.1554 25.2798C50.3045 25.8987 49.2871 26.2471 48.2355 26.2798H48.3555C47.1205 26.7391 45.912 27.2666 44.7355 27.8598C44.1624 28.1751 43.62 28.5434 43.1155 28.9598C42.6255 29.3498 42.1354 29.8098 41.6454 30.2598Z" fill="#2D703B"/>
<path d="M43.0465 31.0793C43.0465 31.0793 43.5165 29.7693 48.1565 28.9493C48.8608 28.842 49.5317 28.5766 50.1188 28.1731C50.7059 27.7695 51.1939 27.2383 51.5465 26.6193C52.4865 24.6193 50.4365 21.9493 44.8365 24.0593C42.1622 25.1316 39.9234 27.0676 38.4766 29.5593" fill="#399E56"/>
<path d="M43.0465 31.0796C43.3449 30.5629 43.7954 30.1508 44.3365 29.8996C44.8512 29.6114 45.394 29.3769 45.9565 29.1996C46.5065 29.0196 47.0765 28.8496 47.6465 28.7196L48.4766 28.5296C48.7369 28.4606 48.9911 28.3703 49.2366 28.2596C49.7249 28.074 50.1657 27.7821 50.5272 27.4051C50.8887 27.028 51.1617 26.5752 51.3265 26.0796C51.4172 25.6007 51.3203 25.1053 51.056 24.6959C50.7917 24.2864 50.3802 23.9942 49.9065 23.8796C48.8487 23.5942 47.7343 23.5942 46.6765 23.8796C45.5696 24.1033 44.4994 24.4802 43.4966 24.9995C41.4925 26.1155 39.7795 27.688 38.4966 29.5896C39.61 27.529 41.2533 25.8029 43.2566 24.5896C43.7643 24.2799 44.2999 24.0187 44.8566 23.8096C45.4009 23.5814 45.9627 23.3975 46.5365 23.2596C47.7239 22.9291 48.9791 22.9291 50.1665 23.2596C50.8029 23.4527 51.3605 23.8453 51.7566 24.3796C51.9522 24.6696 52.0837 24.998 52.1423 25.3429C52.201 25.6878 52.1854 26.0412 52.0966 26.3796C51.898 26.9849 51.5644 27.5372 51.1209 27.9946C50.6773 28.452 50.1355 28.8025 49.5365 29.0196C48.9772 29.2509 48.3881 29.4024 47.7865 29.4696C47.2265 29.5496 46.6566 29.6596 46.1066 29.7896C45.5546 29.9225 45.0104 30.0861 44.4766 30.2796C43.9382 30.4167 43.4451 30.6925 43.0465 31.0796Z" fill="#2D703B"/>
<path d="M44.0344 30.3203C44.0344 30.3203 43.1044 35.7103 38.0344 35.3203L44.0344 30.3203Z" fill="#399E56"/>
<path d="M44.0344 30.3203C44.0276 31.0715 43.8681 31.8135 43.5656 32.5012C43.263 33.1888 42.8237 33.8077 42.2744 34.3203C41.7105 34.8384 41.0211 35.2003 40.2744 35.3703C39.5423 35.5246 38.7835 35.4971 38.0645 35.2903C38.7477 35.1885 39.4181 35.0142 40.0645 34.7703C40.6848 34.5508 41.2558 34.211 41.7445 33.7703C42.2396 33.3115 42.6731 32.7905 43.0344 32.2203C43.4145 31.6127 43.7488 30.9776 44.0344 30.3203Z" fill="#2D703B"/>
<path d="M96.993 65.0139C93.173 65.6339 89.9929 58.3439 85.6629 59.1239C82.6629 59.6739 83.9029 60.1239 81.1829 60.9439C76.0129 62.4539 72.873 56.0139 69.383 57.2739C65.893 58.5339 66.713 65.5239 63.253 66.2739C61.123 66.7739 62.3429 62.8039 58.993 62.7939C56.623 62.7939 52.763 65.5039 49.873 67.6239C45.313 70.9739 45.203 72.7639 42.873 73.5039C39.393 74.6039 37.713 69.6839 32.873 69.7739C-0.607042 70.4439 0.0829563 91.9539 2.37296 92.6739C11.983 95.6739 12.113 80.2939 19.763 80.5439C24.343 80.7039 22.693 89.1739 26.763 88.5439C30.293 87.9939 30.9329 85.7939 36.0529 82.1439C40.2629 79.1439 45.0529 75.1439 50.3029 75.1439C57.1229 75.1939 49.5229 82.2539 53.6529 81.2839C67.9729 77.9439 66.3029 71.0239 71.2829 67.7239C74.2829 65.7239 76.2829 67.8239 85.8929 68.6439C89.2129 68.9239 102.513 67.4939 103.333 64.7139C103.773 63.4139 99.963 64.5439 96.993 65.0139Z" fill="url(#paint0_linear_5963_18604)"/>
<path d="M8.54233 60.6465C8.54233 60.6465 -0.377574 61.4465 0.012426 64.1165C0.402426 66.7865 5.76231 66.6965 8.14231 65.8065C10.5223 64.9165 16.8623 61.1465 8.54233 60.6465Z" fill="url(#paint1_linear_5963_18604)"/>
<path d="M106.472 62.7056C106.472 62.7056 109.472 63.4156 112.742 58.4456C119.742 48.0356 123.932 45.1056 127.412 46.6356C130.892 48.1656 132.032 51.9556 134.412 47.9856C136.792 44.0156 130.072 38.8556 133.642 37.7456C137.212 36.6356 141.162 40.4656 142.882 39.2356C144.602 38.0056 142.162 32.3456 148.052 33.7756C152.332 34.7756 147.842 22.2256 151.962 25.2156C155.752 27.9556 159.132 34.4256 155.542 34.7456C151.952 35.0656 147.682 39.6756 154.052 41.4756C157.962 42.5856 148.892 43.3056 144.952 44.2556C141.012 45.2056 144.312 53.4756 136.522 57.0756C128.732 60.6756 123.892 54.2656 120.212 57.2256C116.532 60.1856 110.212 64.3056 107.342 64.1556C104.472 64.0056 106.472 62.7056 106.472 62.7056Z" fill="#CCFFFF"/>
<path d="M145.032 22.9362C142.472 25.4462 144.123 29.1362 146.253 27.9362C148.383 26.7362 147.872 20.1462 145.032 22.9362Z" fill="#CCFFFF"/>
<defs>
<linearGradient id="paint0_linear_5963_18604" x1="-24.2668" y1="109.302" x2="92.419" y2="52.9685" gradientUnits="userSpaceOnUse">
<stop stop-color="white"/>
<stop offset="1" stop-color="#A8F8FF"/>
</linearGradient>
<linearGradient id="paint1_linear_5963_18604" x1="-31.6173" y1="73.9665" x2="93.3418" y2="39.667" gradientUnits="userSpaceOnUse">
<stop stop-color="white"/>
<stop offset="1" stop-color="#A8F8FF"/>
</linearGradient>
</defs>
</svg>
