<svg width="187" height="147" viewBox="0 0 187 147" fill="none" xmlns="http://www.w3.org/2000/svg">
<path d="M80.382 141.309C82.3702 141.309 83.9819 139.698 83.9819 137.709C83.9819 135.721 82.3702 134.109 80.382 134.109C78.3937 134.109 76.782 135.721 76.782 137.709C76.782 139.698 78.3937 141.309 80.382 141.309Z" fill="#9CE86B"/>
<path d="M83.022 146.77H67.2119C66.9467 146.77 66.6924 146.664 66.5049 146.477C66.3173 146.289 66.2119 146.035 66.2119 145.77V145.51C66.204 144.462 66.4036 143.423 66.7991 142.453C67.1945 141.483 67.7781 140.6 68.5162 139.857C69.2543 139.113 70.1322 138.523 71.0995 138.12C72.0667 137.717 73.1042 137.51 74.152 137.51H84.042L84.152 145.68C84.1535 145.827 84.125 145.972 84.0682 146.108C84.0115 146.244 83.9275 146.366 83.8218 146.468C83.716 146.57 83.5905 146.65 83.453 146.701C83.3155 146.753 83.1688 146.777 83.022 146.77Z" fill="#399E56"/>
<path d="M80.412 114.789L80.382 142.699" stroke="#399E56" stroke-width="7.33" stroke-miterlimit="10" stroke-linecap="round"/>
<path d="M108.753 141.309C110.741 141.309 112.353 139.698 112.353 137.709C112.353 135.721 110.741 134.109 108.753 134.109C106.764 134.109 105.153 135.721 105.153 137.709C105.153 139.698 106.764 141.309 108.753 141.309Z" fill="#9CE86B"/>
<path d="M106.113 146.77H121.923C122.188 146.77 122.442 146.664 122.63 146.477C122.817 146.289 122.923 146.035 122.923 145.77V145.51C122.931 144.462 122.731 143.423 122.336 142.453C121.94 141.483 121.357 140.6 120.618 139.857C119.88 139.113 119.002 138.523 118.035 138.12C117.068 137.717 116.03 137.51 114.983 137.51H105.093L104.983 145.68C104.981 145.827 105.01 145.972 105.066 146.108C105.123 146.244 105.207 146.366 105.313 146.468C105.419 146.57 105.544 146.65 105.682 146.701C105.819 146.753 105.966 146.777 106.113 146.77Z" fill="#399E56"/>
<path d="M108.723 114.789L108.753 142.699" stroke="#399E56" stroke-width="7.33" stroke-miterlimit="10" stroke-linecap="round"/>
<path d="M134.291 119.54L67.2906 119.22C63.7144 119.202 60.1776 118.472 56.8867 117.073C53.5958 115.673 50.6167 113.631 48.1236 111.068C45.6305 108.504 43.6732 105.469 42.366 102.14C41.0589 98.8111 40.4282 95.2553 40.5106 91.68L41.4206 51.52C41.7367 37.7494 47.4286 24.6491 57.279 15.021C67.1294 5.39298 80.3563 0.00160739 94.1306 9.96764e-06C107.494 -0.00820353 120.362 5.0599 130.131 14.179C139.9 23.2981 145.84 35.7873 146.751 49.12L150.401 102.38C150.55 104.584 150.244 106.794 149.502 108.874C148.759 110.954 147.595 112.859 146.084 114.469C144.572 116.08 142.744 117.361 140.715 118.233C138.686 119.106 136.499 119.551 134.291 119.54Z" fill="#9CE86B"/>
<path d="M135.701 90.0703H44.4406C36.4103 90.0703 29.9006 96.5801 29.9006 104.61C29.9006 112.641 36.4103 119.15 44.4406 119.15H135.701C143.731 119.15 150.241 112.641 150.241 104.61C150.241 96.5801 143.731 90.0703 135.701 90.0703Z" fill="#9CE86B"/>
<path d="M94.1635 64.5687C104.707 64.5687 113.253 56.0218 113.253 45.4787C113.253 34.9356 104.707 26.3887 94.1635 26.3887C83.6203 26.3887 75.0734 34.9356 75.0734 45.4787C75.0734 56.0218 83.6203 64.5687 94.1635 64.5687Z" fill="#FFFFF0"/>
<mask id="mask0_5963_12352" style="mask-type:luminance" maskUnits="userSpaceOnUse" x="75" y="26" width="39" height="39">
<path d="M94.165 64.5726C104.708 64.5726 113.255 56.0257 113.255 45.4826C113.255 34.9395 104.708 26.3926 94.165 26.3926C83.6219 26.3926 75.075 34.9395 75.075 45.4826C75.075 56.0257 83.6219 64.5726 94.165 64.5726Z" fill="white"/>
</mask>
<g mask="url(#mask0_5963_12352)">
<path d="M83.465 49.3405C89.0651 49.3405 93.605 44.8007 93.605 39.2005C93.605 33.6004 89.0651 29.0605 83.465 29.0605C77.8648 29.0605 73.325 33.6004 73.325 39.2005C73.325 44.8007 77.8648 49.3405 83.465 49.3405Z" fill="#2E4F18"/>
</g>
<path d="M81.4835 14.8887C82.2257 12.2202 83.8008 9.85851 85.9791 8.14786C88.1575 6.4372 90.8252 5.467 93.5935 5.37866C104.594 4.58866 106.844 14.0987 106.844 14.0987" stroke="#284214" stroke-width="3.67" stroke-miterlimit="10" stroke-linecap="round"/>
<path d="M63.5824 50.498H55.1124C51.4121 50.498 48.4125 53.4955 48.4125 57.193C48.4125 60.8906 51.4121 63.888 55.1124 63.888H63.5824C67.2827 63.888 70.2825 60.8906 70.2825 57.193C70.2825 53.4955 67.2827 50.498 63.5824 50.498Z" fill="#FFBB4D"/>
<path d="M132.372 50.498H123.902C120.202 50.498 117.202 53.4955 117.202 57.193C117.202 60.8906 120.202 63.888 123.902 63.888H132.372C136.073 63.888 139.072 60.8906 139.072 57.193C139.072 53.4955 136.073 50.498 132.372 50.498Z" fill="#FFBB4D"/>
<path d="M74.9935 69.5552C74.9935 69.5552 79.8135 66.6452 82.8735 71.6252C83.8295 73.0972 85.1152 74.3263 86.6288 75.215C88.1424 76.1037 89.8422 76.6277 91.5934 76.7452C91.5934 76.7452 99.4835 77.8252 103.784 72.0452C108.083 66.2652 111.393 68.5052 111.393 68.5052C111.393 68.5052 119.193 71.2752 113.963 80.3452C106.703 92.9552 91.1435 90.8652 91.1435 90.8652C91.1435 90.8652 79.5134 90.2752 74.4434 81.0252C69.8934 72.6952 74.9935 69.5552 74.9935 69.5552Z" fill="#E05858"/>
<path d="M113.964 80.3751C114.845 78.9452 115.433 77.3544 115.693 75.6951C109.536 75.188 103.341 75.4028 97.2335 76.3351C96.3873 76.5557 95.5245 76.7062 94.6536 76.7851C88.1174 77.9675 81.8137 80.1925 75.9835 83.3751C81.5435 90.3751 91.1436 90.8951 91.1436 90.8951C91.1436 90.8951 106.754 92.9551 113.964 80.3751Z" fill="#FF7878"/>
<path d="M102.213 79.6659C108.673 77.2259 106.593 72.7959 105.003 70.5859C104.569 71.0483 104.161 71.5358 103.783 72.0459C99.4835 77.8259 91.5934 76.7459 91.5934 76.7459C88.6951 76.5373 85.9818 75.2449 83.9934 73.1259C83.5934 74.4759 83.2535 76.5159 84.2735 77.8759C85.9235 80.0859 93.3834 83.0059 102.213 79.6659Z" fill="#FFFFF0"/>
<path d="M135.282 73.828C135.282 73.828 165.592 101.878 170.282 56.748" stroke="#399E56" stroke-width="7.33" stroke-miterlimit="10" stroke-linecap="round"/>
<path d="M171.091 59.8576C173.394 59.8576 175.261 57.9906 175.261 55.6876C175.261 53.3845 173.394 51.5176 171.091 51.5176C168.788 51.5176 166.921 53.3845 166.921 55.6876C166.921 57.9906 168.788 59.8576 171.091 59.8576Z" fill="#399E56"/>
<path d="M173.399 52.2656C174.513 52.8652 175.737 53.2328 176.997 53.3463C178.257 53.4597 179.526 53.3166 180.729 52.9256C181.297 52.7056 181.909 52.6243 182.514 52.6887C183.119 52.753 183.701 52.9611 184.209 53.2956C185.639 54.4656 184.929 57.4756 179.779 58.2956C179.779 58.2956 176.259 58.5056 174.289 57.2456" fill="#399E56"/>
<path d="M173.399 52.2754C174.867 52.9375 176.47 53.2458 178.079 53.1754C178.867 53.1378 179.645 52.9862 180.389 52.7254C181.195 52.4037 182.068 52.2902 182.929 52.3954C183.375 52.4669 183.8 52.6304 184.179 52.8754C184.595 53.1251 184.913 53.5098 185.079 53.9654C185.213 54.4141 185.222 54.8909 185.104 55.3441C184.986 55.7972 184.745 56.2093 184.409 56.5354C183.153 57.7068 181.533 58.4126 179.819 58.5354C178.857 58.5474 177.895 58.4637 176.949 58.2854C176.007 58.1141 175.109 57.7535 174.309 57.2254C175.153 57.6338 176.065 57.8813 176.999 57.9554C177.925 58.0652 178.86 58.0853 179.789 58.0154C181.344 57.8414 182.804 57.1798 183.959 56.1254C184.23 55.8972 184.425 55.5918 184.517 55.2501C184.61 54.9084 184.596 54.5466 184.477 54.2129C184.359 53.8793 184.142 53.5897 183.854 53.3829C183.567 53.1761 183.223 53.0618 182.869 53.0554C182.109 52.9492 181.335 53.0387 180.619 53.3154C179.814 53.5489 178.978 53.6601 178.139 53.6454C176.463 53.6324 174.824 53.1584 173.399 52.2754Z" fill="#2D703B"/>
<path d="M175.039 55.0859C175.039 55.0859 178.519 57.9159 182.379 56.3259C182.933 56.0761 183.539 55.9621 184.146 55.9935C184.753 56.0248 185.344 56.2004 185.869 56.5059C187.369 57.5959 186.869 60.6359 181.729 61.6959C181.729 61.6959 176.179 62.5559 173.899 59.6259" fill="#399E56"/>
<path d="M175.039 55.0859C175.98 55.7495 177.054 56.202 178.186 56.4125C179.318 56.6231 180.482 56.5867 181.599 56.3059C182.144 56.0686 182.71 55.8812 183.289 55.7459C183.915 55.611 184.564 55.6316 185.179 55.8059C185.497 55.8999 185.798 56.0452 186.069 56.2359C186.356 56.4379 186.587 56.7098 186.739 57.0259C186.889 57.338 186.967 57.6798 186.967 58.0259C186.967 58.3721 186.889 58.7139 186.739 59.0259C186.121 60.134 185.112 60.9719 183.909 61.3759C182.79 61.8369 181.589 62.0649 180.379 62.0459C179.186 62.0737 177.995 61.9186 176.849 61.5859C175.683 61.2621 174.659 60.5582 173.939 59.5859C174.737 60.4468 175.787 61.0317 176.939 61.2559C178.067 61.5094 179.225 61.6037 180.379 61.5359C180.949 61.5218 181.516 61.4446 182.069 61.3059C182.62 61.1621 183.162 60.9817 183.689 60.7659C184.727 60.3957 185.595 59.6598 186.129 58.6959C186.23 58.4729 186.282 58.2308 186.282 57.9859C186.282 57.7411 186.23 57.499 186.129 57.2759C186.014 57.0564 185.854 56.8636 185.659 56.7102C185.464 56.5569 185.24 56.4463 184.999 56.3859C184.484 56.2287 183.938 56.2012 183.409 56.3059C182.849 56.4377 182.298 56.6047 181.759 56.8059C180.572 57.09 179.332 57.0624 178.159 56.7259C177.016 56.4022 175.954 55.8436 175.039 55.0859Z" fill="#2D703B"/>
<path d="M174.29 57.1992C176.208 58.5396 178.5 59.2396 180.839 59.1992C181.446 59.1786 182.049 59.3042 182.597 59.5652C183.146 59.8262 183.623 60.2152 183.99 60.6992C184.99 62.2792 183.28 64.8892 178.17 63.8892C175.776 63.383 173.646 62.0302 172.17 60.0792" fill="#399E56"/>
<path d="M174.29 57.1992C175.222 57.7612 176.233 58.1792 177.29 58.4392C178.32 58.7149 179.383 58.8528 180.45 58.8492C181.623 58.7607 182.787 59.1178 183.71 59.8492C184.207 60.2471 184.527 60.826 184.6 61.4592C184.621 61.7788 184.575 62.0994 184.463 62.3994C184.35 62.6995 184.176 62.9722 183.95 63.1992C183.069 63.9802 181.927 64.4014 180.75 64.3792C179.629 64.4159 178.51 64.2637 177.44 63.9292C175.321 63.2442 173.486 61.8806 172.22 60.0492C173.629 61.6867 175.49 62.8727 177.57 63.4592C178.601 63.7034 179.661 63.8043 180.72 63.7592C181.734 63.7662 182.714 63.3873 183.46 62.6992C183.617 62.5381 183.74 62.3472 183.823 62.1377C183.905 61.9282 183.945 61.7043 183.94 61.4792C183.883 61.0169 183.65 60.5943 183.29 60.2992C182.481 59.6723 181.47 59.3661 180.45 59.4392C178.213 59.3527 176.059 58.5695 174.29 57.1992Z" fill="#2D703B"/>
<path d="M167.829 53.0089C167.829 53.0089 170.829 43.9089 175.399 45.4589C175.399 45.4589 178.399 46.2989 174.879 49.9689C174.211 50.7943 173.634 51.6896 173.159 52.6389" fill="#399E56"/>
<path d="M167.829 53.0085C168.203 51.6137 168.747 50.2703 169.449 49.0085C170.105 47.6602 171.092 46.5006 172.319 45.6385C173.569 44.8085 175.609 44.5685 176.689 46.0885C176.897 46.4737 176.967 46.918 176.889 47.3485C176.809 47.7353 176.66 48.1045 176.449 48.4385C176.044 49.0647 175.564 49.639 175.019 50.1485C174.689 50.5585 174.349 50.9585 174.019 51.3785C173.688 51.7901 173.397 52.232 173.149 52.6985C173.315 52.1874 173.547 51.7 173.839 51.2485C174.109 50.7985 174.399 50.3385 174.719 49.9085C175.191 49.3896 175.604 48.8193 175.949 48.2085C176.122 47.9544 176.228 47.6604 176.256 47.3542C176.284 47.048 176.233 46.7398 176.109 46.4585C175.943 46.2144 175.711 46.0234 175.439 45.9085C175.131 45.8187 174.817 45.7518 174.499 45.7085C173.845 45.6974 173.202 45.8782 172.649 46.2285C171.508 47.0184 170.547 48.0408 169.829 49.2285C169.073 50.4392 168.405 51.7024 167.829 53.0085Z" fill="#2D703B"/>
<path d="M174.141 56.5684C173.674 55.6054 172.848 54.8639 171.84 54.5031C170.832 54.1423 169.723 54.1908 168.751 54.6384" fill="#399E56"/>
<path d="M174.141 56.5675C173.49 55.7948 172.659 55.1939 171.721 54.8175C171.265 54.6511 170.786 54.5599 170.301 54.5475C169.783 54.5437 169.265 54.5738 168.751 54.6375C169.2 54.3153 169.716 54.0998 170.261 54.0075C170.831 53.9122 171.416 53.9638 171.961 54.1575C172.493 54.3515 172.97 54.6724 173.349 55.0924C173.729 55.5124 174.001 56.0187 174.141 56.5675Z" fill="#2D703B"/>
<path d="M51.682 73.828C51.682 73.828 21.372 101.878 16.682 56.748" stroke="#399E56" stroke-width="7.33" stroke-miterlimit="10" stroke-linecap="round"/>
<path d="M15.8716 59.8595C18.1746 59.8595 20.0416 57.9926 20.0416 55.6895C20.0416 53.3865 18.1746 51.5195 15.8716 51.5195C13.5686 51.5195 11.7015 53.3865 11.7015 55.6895C11.7015 57.9926 13.5686 59.8595 15.8716 59.8595Z" fill="#399E56"/>
<path d="M13.562 52.2695C12.4482 52.8691 11.2244 53.2368 9.96461 53.3502C8.70477 53.4636 7.43493 53.3205 6.23194 52.9295C5.66436 52.7095 5.05249 52.6282 4.44715 52.6926C3.84181 52.7569 3.26057 52.965 2.75196 53.2995C1.32196 54.4695 2.03201 57.4795 7.18201 58.2995C7.18201 58.2995 10.702 58.5095 12.672 57.2495" fill="#399E56"/>
<path d="M13.562 52.2793C12.1491 53.143 10.5279 53.6062 8.87195 53.6193C8.03339 53.6348 7.19731 53.5235 6.39197 53.2893C5.67619 53.0131 4.90188 52.9236 4.14197 53.0293C3.78799 53.0357 3.44433 53.15 3.15699 53.3568C2.86964 53.5636 2.65227 53.8532 2.53382 54.1868C2.41536 54.5205 2.40144 54.8823 2.49402 55.224C2.5866 55.5657 2.78133 55.8711 3.05201 56.0993C4.20497 57.1518 5.66078 57.8132 7.21192 57.9893C8.14168 58.0592 9.07606 58.0391 10.002 57.9293C10.9362 57.8553 11.8484 57.6077 12.6919 57.1993C11.8926 57.7274 10.9946 58.088 10.052 58.2593C9.10599 58.4376 8.1446 58.5213 7.18201 58.5093C5.46848 58.3865 3.84856 57.6807 2.59192 56.5093C2.25587 56.1832 2.01572 55.7711 1.89759 55.318C1.77945 54.8648 1.78794 54.388 1.922 53.9393C2.08847 53.4837 2.40604 53.099 2.8219 52.8493C3.19992 52.6027 3.62597 52.4391 4.0719 52.3693C4.93285 52.2641 5.80647 52.3776 6.61194 52.6993C7.35615 52.9601 8.1343 53.1117 8.922 53.1493C10.5152 53.2228 12.1037 52.925 13.562 52.2793Z" fill="#2D703B"/>
<path d="M11.921 55.0898C11.921 55.0898 8.44087 57.9198 4.58087 56.3298C4.02525 56.0792 3.41789 55.9647 2.80915 55.996C2.2004 56.0273 1.60785 56.2035 1.08087 56.5098C-0.409126 57.5998 0.130888 60.6398 5.22089 61.6998C5.22089 61.6998 10.781 62.5598 13.061 59.6298" fill="#399E56"/>
<path d="M11.921 55.0898C11.0129 55.8606 9.95352 56.4329 8.81104 56.7698C7.63798 57.1063 6.39778 57.1339 5.21094 56.8498C4.67202 56.6486 4.12102 56.4816 3.56104 56.3498C3.03254 56.2451 2.48626 56.2726 1.97095 56.4298C1.73054 56.4903 1.50565 56.6008 1.31091 56.7541C1.11618 56.9075 0.956 57.1003 0.840942 57.3198C0.739855 57.5429 0.687622 57.785 0.687622 58.0298C0.687622 58.2747 0.739855 58.5168 0.840942 58.7398C1.37539 59.7037 2.24295 60.4396 3.28101 60.8098C3.8084 61.0256 4.3496 61.2061 4.901 61.3498C5.45414 61.4885 6.02086 61.5657 6.59094 61.5798C7.74505 61.6471 8.90296 61.5528 10.031 61.2998C11.1829 61.0756 12.2335 60.4907 13.031 59.6298C12.3109 60.6021 11.2867 61.306 10.121 61.6298C8.97456 61.9619 7.78416 62.117 6.59094 62.0898C5.38096 62.1088 4.17992 61.8808 3.06104 61.4198C1.85821 61.0158 0.849109 60.178 0.230957 59.0698C0.0789582 58.7584 0 58.4164 0 58.0698C0 57.7233 0.0789582 57.3813 0.230957 57.0698C0.383356 56.7537 0.614025 56.4818 0.901001 56.2798C1.16987 56.0911 1.46686 55.946 1.78101 55.8498C2.40032 55.6775 3.05208 55.6569 3.68103 55.7898C4.25969 55.9266 4.82515 56.114 5.37097 56.3498C6.48912 56.6234 7.65316 56.6525 8.78357 56.435C9.91398 56.2176 10.9842 55.7587 11.921 55.0898Z" fill="#2D703B"/>
<path d="M12.6717 57.1992C10.7538 58.5396 8.46124 59.2396 6.12168 59.1992C5.51487 59.1786 4.91205 59.3042 4.36387 59.5652C3.81569 59.8262 3.33817 60.2152 2.97166 60.6992C1.97166 62.2792 3.68172 64.8892 8.79172 63.8892C11.1852 63.383 13.3157 62.0302 14.7917 60.0792" fill="#399E56"/>
<path d="M12.6717 57.1992C10.908 58.5583 8.76642 59.3374 6.54169 59.4292C5.52139 59.3561 4.50993 59.6623 3.70161 60.2892C3.34118 60.5843 3.10847 61.0069 3.0517 61.4692C3.04642 61.6943 3.0861 61.9182 3.16853 62.1277C3.25095 62.3372 3.37445 62.5281 3.53168 62.6892C4.2775 63.3773 5.25695 63.7562 6.27168 63.7492C7.33047 63.7943 8.39046 63.6934 9.4217 63.4492C11.5012 62.8627 13.3619 61.6767 14.7717 60.0392C13.5028 61.8686 11.6692 63.2315 9.5517 63.9192C8.48141 64.2537 7.36241 64.4059 6.24165 64.3692C5.05724 64.3857 3.91049 63.9534 3.03168 63.1592C2.80573 62.9322 2.63084 62.6595 2.51875 62.3594C2.40665 62.0594 2.3599 61.7388 2.38166 61.4192C2.45436 60.7885 2.77004 60.211 3.26167 59.8092C4.18836 59.0789 5.35501 58.7221 6.53168 58.8092C7.59851 58.8128 8.66101 58.6749 9.6916 58.3992C10.7386 58.148 11.7428 57.7437 12.6717 57.1992Z" fill="#2D703B"/>
<path d="M19.1315 53.0089C19.1315 53.0089 16.1316 43.9089 11.5616 45.4589C11.5616 45.4589 8.56149 46.2989 12.0815 49.9689C12.7494 50.7943 13.3262 51.6896 13.8016 52.6389" fill="#399E56"/>
<path d="M19.1315 53.009C18.5604 51.6943 17.8919 50.4241 17.1315 49.209C16.4199 48.0197 15.4617 46.9967 14.3215 46.209C13.7688 45.8587 13.1257 45.6779 12.4715 45.689C12.1537 45.7323 11.8395 45.7992 11.5316 45.889C11.2599 46.0039 11.0272 46.1949 10.8615 46.439C10.7374 46.7202 10.6869 47.0285 10.7149 47.3347C10.7429 47.6409 10.8484 47.9349 11.0216 48.189C11.3633 48.802 11.7762 49.3726 12.2515 49.889C12.5715 50.319 12.8615 50.779 13.1315 51.229C13.4232 51.6804 13.6551 52.1678 13.8215 52.679C13.5738 52.2125 13.2825 51.7705 12.9515 51.359C12.6215 50.939 12.2815 50.539 11.9515 50.129C11.4068 49.6194 10.9267 49.0452 10.5216 48.419C10.3106 48.085 10.1615 47.7158 10.0815 47.329C9.9984 46.8985 10.0693 46.4525 10.2816 46.069C11.3616 44.549 13.4016 44.789 14.6516 45.619C15.8782 46.481 16.8658 47.6407 17.5216 48.989C18.2217 50.2576 18.7624 51.6078 19.1315 53.009Z" fill="#2D703B"/>
<path d="M12.821 56.5664C13.2883 55.6034 14.1144 54.862 15.1221 54.5011C16.1298 54.1403 17.2388 54.1889 18.2111 54.6364" fill="#399E56"/>
<path d="M12.821 56.5672C12.9609 56.0185 13.2327 55.5121 13.6125 55.0921C13.9924 54.6722 14.4691 54.3512 15.0011 54.1572C15.5424 53.9639 16.1241 53.9123 16.691 54.0072C17.2394 54.0974 17.7596 54.313 18.2111 54.6372C17.6969 54.5738 17.1792 54.5437 16.6611 54.5472C16.1762 54.5587 15.6964 54.6499 15.2411 54.8172C14.3033 55.1936 13.4722 55.7945 12.821 56.5672Z" fill="#2D703B"/>
</svg>
