<svg width="154" height="241" viewBox="0 0 154 241" fill="none" xmlns="http://www.w3.org/2000/svg">
<path d="M117.581 239.67C120.922 239.67 123.631 236.962 123.631 233.62C123.631 230.279 120.922 227.57 117.581 227.57C114.239 227.57 111.531 230.279 111.531 233.62C111.531 236.962 114.239 239.67 117.581 239.67Z" fill="#D33B3B"/>
<path d="M79.1105 151.791L124.7 233.471L112.87 239.331L75.6504 153.501L79.1105 151.791Z" fill="#DE3E00"/>
<path d="M112.711 238.632C112.715 238.81 112.754 238.985 112.827 239.148C112.9 239.31 113.005 239.457 113.136 239.578C113.266 239.699 113.42 239.793 113.587 239.854C113.755 239.915 113.933 239.941 114.111 239.932L133.881 239.872C134.071 239.886 134.261 239.857 134.438 239.787C134.615 239.718 134.774 239.61 134.904 239.47C135.033 239.331 135.13 239.165 135.187 238.983C135.243 238.802 135.258 238.61 135.231 238.422C134.091 232.882 128.661 228.852 122.331 228.852H113.781L112.711 238.632Z" fill="#DE3E00"/>
<path d="M62.2341 238.721C65.5755 238.721 68.2841 236.012 68.2841 232.671C68.2841 229.33 65.5755 226.621 62.2341 226.621C58.8928 226.621 56.1841 229.33 56.1841 232.671C56.1841 236.012 58.8928 238.721 62.2341 238.721Z" fill="#D33B3B"/>
<path d="M57.184 149.002L69.434 237.872L56.2739 238.992L53.334 149.332L57.184 149.002Z" fill="#DE3E00"/>
<path d="M69.8139 238.851C69.8088 239.028 69.7683 239.203 69.6947 239.364C69.6212 239.526 69.5161 239.671 69.3856 239.791C69.2552 239.911 69.102 240.004 68.9351 240.064C68.7682 240.124 68.591 240.151 68.4138 240.141L49.3039 240.221C49.1143 240.233 48.9245 240.203 48.7479 240.133C48.5714 240.063 48.4126 239.955 48.2827 239.816C48.1528 239.678 48.0551 239.512 47.9965 239.332C47.9379 239.151 47.9199 238.96 47.9439 238.771C49.0939 233.221 54.5239 229.201 60.8539 229.201L67.8539 229.421L69.8139 238.851Z" fill="#DE3E00"/>
<path d="M44.5146 145.022C44.5146 145.022 48.8246 149.192 53.5146 147.102C53.5146 147.102 60.2946 152.552 62.2546 147.482C64.0246 142.892 57.1246 142.082 55.2546 142.682C53.3846 143.282 53.1947 140.012 53.1947 140.012" fill="#ED500A"/>
<path d="M44.5146 145.022C45.7913 146.015 47.2636 146.727 48.8347 147.112C49.5939 147.293 50.3772 147.35 51.1547 147.282C51.917 147.21 52.6614 147.007 53.3547 146.682L53.6047 146.572L53.8347 146.742C54.6303 147.338 55.4807 147.857 56.3746 148.292C57.228 148.743 58.1631 149.018 59.1246 149.102C59.5518 149.15 59.9842 149.083 60.3765 148.907C60.7688 148.731 61.1067 148.453 61.3547 148.102C61.8909 147.382 62.1306 146.484 62.0247 145.592C61.9051 145.164 61.6887 144.769 61.3922 144.438C61.0957 144.107 60.727 143.848 60.3147 143.682C59.4293 143.251 58.4745 142.98 57.4946 142.882C57.0046 142.812 56.5087 142.792 56.0146 142.822C55.7719 142.831 55.5307 142.864 55.2947 142.922C54.9959 142.997 54.6808 142.976 54.3947 142.862C54.1434 142.726 53.9241 142.538 53.7516 142.31C53.5791 142.083 53.4574 141.821 53.3947 141.542C53.254 141.041 53.1867 140.522 53.1947 140.002C53.2748 140.507 53.4157 141.001 53.6146 141.472C53.6865 141.692 53.8039 141.895 53.9589 142.067C54.1139 142.239 54.3031 142.377 54.5146 142.472C54.7161 142.538 54.9332 142.538 55.1346 142.472C55.3948 142.384 55.6627 142.32 55.9347 142.282C56.465 142.212 57.0006 142.192 57.5347 142.222C58.6152 142.262 59.6794 142.499 60.6747 142.922C61.2261 143.131 61.7212 143.466 62.1205 143.9C62.5198 144.334 62.8123 144.855 62.9747 145.422C63.1027 146.005 63.0785 146.611 62.9047 147.182C62.7539 147.739 62.5105 148.266 62.1847 148.742C61.8362 149.249 61.3554 149.65 60.7947 149.902C60.2418 150.132 59.6413 150.225 59.0447 150.172C57.9415 150.053 56.8736 149.713 55.9047 149.172C54.9628 148.676 54.0689 148.093 53.2346 147.432L53.7047 147.492C52.1106 148.14 50.3371 148.197 48.7047 147.652C47.9054 147.393 47.145 147.026 46.4447 146.562C45.7416 146.128 45.0935 145.611 44.5146 145.022Z" fill="#B52600"/>
<path d="M54.4138 144.123C54.4138 144.123 60.0938 143.243 61.0038 145.853C61.9138 148.463 67.0038 146.573 65.8638 141.763C64.7238 136.953 56.3439 135.693 51.4639 139.213" fill="#ED500A"/>
<path d="M54.4138 144.123C55.7879 143.793 57.2087 143.701 58.6138 143.853C59.3765 143.94 60.1021 144.23 60.7139 144.693C60.8647 144.836 61.0082 144.986 61.1438 145.143C61.2538 145.323 61.3538 145.523 61.4438 145.703C61.5338 145.883 61.5638 145.933 61.6438 146.043C61.7238 146.153 61.7938 146.233 61.9038 146.273C62.1326 146.398 62.3868 146.468 62.6469 146.478C62.9069 146.488 63.1659 146.439 63.4038 146.333C63.9422 146.119 64.405 145.75 64.7338 145.273C65.0603 144.77 65.2718 144.2 65.353 143.606C65.4343 143.011 65.3833 142.406 65.2039 141.833C64.8561 140.649 64.0594 139.648 62.9838 139.043C61.8598 138.376 60.6106 137.947 59.3138 137.783C56.6113 137.393 53.855 137.895 51.4639 139.213C53.7109 137.389 56.5812 136.514 59.4639 136.773C60.9373 136.854 62.3733 137.268 63.6638 137.983C65.0354 138.744 66.0548 140.011 66.5038 141.513C66.5873 141.886 66.6508 142.264 66.6938 142.643C66.7338 143.032 66.7338 143.424 66.6938 143.813C66.6067 144.613 66.3024 145.374 65.8138 146.013C65.3186 146.66 64.6439 147.147 63.8738 147.413C63.4657 147.567 63.0263 147.617 62.594 147.562C62.1617 147.506 61.7497 147.345 61.3938 147.093C61.2182 146.953 61.0633 146.788 60.9338 146.603C60.8224 146.416 60.7287 146.218 60.6538 146.013L60.4838 145.653C60.3938 145.543 60.3238 145.423 60.2338 145.323C59.7621 144.903 59.1907 144.61 58.5739 144.473C57.2114 144.156 55.8101 144.038 54.4138 144.123Z" fill="#B52600"/>
<path d="M55.2958 142.312C55.2958 142.312 61.0257 141.832 61.7457 144.502C62.4657 147.172 67.6857 145.642 66.8857 140.762C66.0857 135.882 57.8158 134.042 52.6958 137.212" fill="#ED500A"/>
<path d="M55.2958 142.313C56.6889 142.073 58.1126 142.073 59.5057 142.313C60.2489 142.464 60.9389 142.809 61.5057 143.313C61.6457 143.463 61.7758 143.633 61.9058 143.793C62.0358 143.953 62.0858 144.183 62.1658 144.383C62.2458 144.583 62.2758 144.613 62.3358 144.723C62.3958 144.833 62.4758 144.923 62.5858 144.983C62.8063 145.12 63.0546 145.205 63.3125 145.233C63.5704 145.26 63.8313 145.23 64.0758 145.143C64.6301 144.953 65.1168 144.606 65.4758 144.143C65.8377 143.664 66.0889 143.11 66.2117 142.523C66.3344 141.935 66.3256 141.327 66.1858 140.743C65.9235 139.544 65.2066 138.494 64.1858 137.813C63.1148 137.065 61.8984 136.551 60.6157 136.303C57.9449 135.721 55.1571 136.026 52.6758 137.173C55.0371 135.528 57.9413 134.854 60.7858 135.293C62.2491 135.486 63.6521 135.998 64.8958 136.793C66.2123 137.647 67.142 138.982 67.4857 140.513C67.5422 140.891 67.579 141.271 67.5958 141.653C67.5872 142.046 67.5437 142.438 67.4658 142.823C67.3342 143.608 66.9882 144.342 66.4658 144.943C65.9427 145.559 65.2454 146.001 64.4658 146.213C64.0483 146.336 63.6071 146.355 63.1804 146.27C62.7537 146.184 62.354 145.997 62.0157 145.723C61.8516 145.571 61.7102 145.396 61.5958 145.203C61.498 145.006 61.4145 144.802 61.3458 144.593L61.2158 144.213C61.1258 144.113 61.0658 143.983 60.9758 143.873C60.5404 143.409 59.9927 143.064 59.3857 142.873C58.056 142.493 56.6788 142.304 55.2958 142.313Z" fill="#B52600"/>
<path d="M53.5558 141.222C53.5558 141.222 59.0558 139.532 60.3258 141.992C61.5958 144.452 66.3258 141.832 64.5458 137.232C62.7658 132.632 54.2458 132.612 49.9258 136.802" fill="#ED500A"/>
<path d="M53.556 141.223C54.8699 140.701 56.2632 140.406 57.676 140.353C58.4434 140.331 59.2026 140.514 59.876 140.883C60.0459 141.001 60.2095 141.128 60.366 141.263C60.496 141.423 60.626 141.603 60.746 141.773C60.866 141.943 60.906 141.983 60.986 142.073C61.066 142.163 61.166 142.243 61.286 142.273C61.5302 142.361 61.7913 142.392 62.0494 142.365C62.3076 142.337 62.5561 142.251 62.776 142.113C63.274 141.82 63.6769 141.389 63.936 140.873C64.1924 140.33 64.3254 139.738 64.3254 139.138C64.3254 138.538 64.1924 137.945 63.936 137.403C63.4182 136.283 62.4861 135.409 61.3361 134.963C60.1262 134.462 58.8249 134.22 57.516 134.253C54.7852 134.255 52.1302 135.151 49.9561 136.803C51.9066 134.685 54.602 133.405 57.4761 133.233C58.9454 133.1 60.4257 133.302 61.806 133.823C63.2785 134.365 64.4759 135.469 65.136 136.893C65.2722 137.253 65.389 137.62 65.486 137.993C65.5659 138.374 65.6063 138.763 65.6061 139.153C65.6361 139.957 65.4422 140.753 65.046 141.453C64.654 142.167 64.0589 142.748 63.3361 143.123C62.9505 143.325 62.5215 143.431 62.0861 143.431C61.6506 143.431 61.2217 143.325 60.8361 143.123C60.6441 143.003 60.4663 142.862 60.306 142.703C60.1769 142.529 60.0567 142.349 59.946 142.163L59.7261 141.823C59.6261 141.733 59.536 141.623 59.426 141.533C58.9 141.188 58.2937 140.985 57.666 140.943C56.2897 140.835 54.905 140.929 53.556 141.223Z" fill="#B52600"/>
<path d="M56.4751 142.13C56.6098 138.957 53.7935 136.261 50.1848 136.108C46.5761 135.955 43.5415 138.403 43.4069 141.575C43.2722 144.748 46.0885 147.444 49.6972 147.598C53.3059 147.751 56.3405 145.303 56.4751 142.13Z" fill="#ED500A"/>
<path d="M49.3787 145.643C43.5987 148.973 37.8487 152.023 31.8787 154.893C28.8787 156.323 25.8787 157.693 22.7687 158.943C19.6121 160.253 16.3634 161.33 13.0487 162.163C11.2043 162.625 9.31022 162.86 7.40872 162.863C6.19053 162.859 4.98487 162.618 3.85879 162.153C3.11215 161.848 2.43262 161.4 1.85879 160.833C1.33306 160.292 0.90656 159.662 0.598783 158.973C0.0345087 157.692 -0.136041 156.271 0.108793 154.893C0.319966 153.782 0.722566 152.716 1.29873 151.743C2.25804 150.135 3.43972 148.67 4.80874 147.393C7.28214 145.079 9.95971 142.994 12.8087 141.163C15.5833 139.354 18.4469 137.685 21.3887 136.163C21.75 135.994 22.1617 135.965 22.5428 136.084C22.9238 136.202 23.2468 136.459 23.4484 136.803C23.65 137.148 23.7157 137.555 23.6325 137.945C23.5493 138.336 23.3232 138.681 22.9987 138.913C20.3587 140.633 17.7287 142.523 15.2687 144.493C12.8251 146.401 10.5591 148.526 8.49869 150.843C7.58405 151.878 6.8138 153.031 6.20877 154.273C5.99718 154.719 5.86842 155.2 5.82876 155.693C5.8001 155.931 5.86452 156.171 6.0087 156.363C6.2587 156.653 6.00877 156.363 6.20877 156.473C6.60313 156.555 7.00651 156.585 7.40872 156.563C8.76707 156.46 10.1091 156.201 11.4087 155.793C14.3318 154.871 17.1829 153.734 19.9388 152.393C22.7788 151.053 25.5887 149.573 28.3787 148.043C33.9287 144.963 39.4488 141.613 44.7188 138.153C45.2024 137.817 45.7482 137.582 46.3241 137.461C46.9 137.34 47.4943 137.335 48.0721 137.447C48.6498 137.559 49.1993 137.786 49.6881 138.114C50.177 138.442 50.5952 138.864 50.9182 139.356C51.2413 139.848 51.4627 140.399 51.5692 140.978C51.6758 141.557 51.6654 142.151 51.5387 142.726C51.412 143.301 51.1715 143.844 50.8315 144.325C50.4914 144.805 50.0587 145.212 49.5588 145.523C49.5017 145.567 49.4415 145.607 49.3787 145.643Z" fill="#ED500A"/>
<path d="M110.78 162.672C111.58 162.982 112.62 163.312 113.55 163.582C114.48 163.852 115.48 164.102 116.42 164.282C117.304 164.458 118.199 164.571 119.1 164.622C119.719 164.659 120.341 164.615 120.95 164.492C121.1 164.492 121.11 164.492 121.07 164.562C121.03 164.632 121.07 164.782 121.07 164.722C121.138 164.554 121.165 164.372 121.15 164.192C121.12 163.837 121.06 163.486 120.97 163.142C120.395 161.292 119.578 159.527 118.54 157.892C116.249 154.243 113.703 150.761 110.92 147.472C108.14 144.102 105.19 140.812 102.2 137.572C101.934 137.317 101.781 136.968 101.774 136.6C101.766 136.232 101.905 135.877 102.16 135.612C102.414 135.347 102.764 135.193 103.131 135.186C103.499 135.178 103.854 135.317 104.12 135.572C107.5 138.472 110.83 141.442 114.12 144.572C117.411 147.703 120.479 151.061 123.3 154.622C124.869 156.576 126.165 158.736 127.15 161.042C127.82 162.593 128.065 164.295 127.86 165.972C127.696 167.128 127.227 168.219 126.5 169.132C125.812 169.974 124.948 170.657 123.97 171.132C122.511 171.801 120.941 172.194 119.34 172.292C118.028 172.387 116.711 172.387 115.4 172.292C114.14 172.202 112.92 172.042 111.72 171.842C110.52 171.642 109.39 171.422 108.07 171.082C106.955 170.771 106.007 170.036 105.429 169.034C104.85 168.033 104.687 166.844 104.975 165.724C105.263 164.603 105.979 163.641 106.969 163.042C107.959 162.443 109.144 162.257 110.27 162.522L110.78 162.672Z" fill="#ED500A"/>
<path d="M103.76 167.635C103.533 167.873 103.251 168.051 102.938 168.154C102.626 168.257 102.293 168.281 101.97 168.225C101.08 168.135 100.13 166.535 98.8795 167.225C98.423 167.444 97.9385 167.599 97.4396 167.685C96.1261 168.033 94.742 168.012 93.4396 167.625C92.8186 167.426 92.2498 167.091 91.7742 166.644C91.2986 166.198 90.9281 165.652 90.6896 165.045C90.6167 164.846 90.5729 164.637 90.5596 164.425C90.5685 164.03 90.6624 163.641 90.835 163.286C91.0075 162.93 91.2547 162.616 91.5596 162.365C92.1602 161.964 92.844 161.704 93.5596 161.605C94.4571 161.44 95.3748 161.417 96.2795 161.535C98.0395 161.715 99.2795 162.415 100.12 162.025" fill="#ED500A"/>
<path d="M103.76 167.636C103.559 167.834 103.342 168.015 103.11 168.176C102.848 168.314 102.556 168.386 102.26 168.386C101.953 168.413 101.645 168.354 101.37 168.216C101.115 168.09 100.868 167.95 100.63 167.796C100.45 167.649 100.241 167.543 100.017 167.485C99.7925 167.426 99.5583 167.416 99.3299 167.456C99.2261 167.498 99.1257 167.548 99.0299 167.606C98.8939 167.681 98.7537 167.747 98.6099 167.806C98.3361 167.914 98.0554 168.004 97.7699 168.076C96.6457 168.411 95.4656 168.516 94.2999 168.386C93.0727 168.214 91.9425 167.624 91.0999 166.716C90.6635 166.247 90.3507 165.676 90.1899 165.056C90.0922 164.732 90.0649 164.391 90.1099 164.056C90.1664 163.731 90.2744 163.417 90.4299 163.126C90.5796 162.838 90.768 162.572 90.9898 162.336C91.2219 162.097 91.4967 161.904 91.7999 161.766C92.3417 161.505 92.9229 161.337 93.5199 161.266C94.0922 161.179 94.672 161.152 95.2498 161.186C95.8217 161.228 96.3899 161.312 96.9499 161.436C97.4999 161.566 98.0299 161.746 98.5599 161.906C99.0625 162.127 99.6195 162.193 100.16 162.096C99.6286 162.31 99.041 162.342 98.4898 162.186C97.9398 162.096 97.3999 161.996 96.8599 161.946C95.793 161.812 94.711 161.859 93.6599 162.086C93.1612 162.186 92.6796 162.358 92.2299 162.596C92.029 162.693 91.8489 162.829 91.6999 162.996C91.5515 163.172 91.4271 163.367 91.3299 163.576C91.2317 163.778 91.1642 163.994 91.1298 164.216C91.0988 164.419 91.123 164.626 91.1999 164.816C91.3278 165.272 91.5645 165.691 91.8898 166.036C93.2098 167.576 95.4999 167.756 97.5799 167.296C97.8364 167.254 98.0901 167.197 98.3399 167.126L98.6799 166.986C98.8295 166.911 98.9872 166.854 99.1499 166.816C99.4695 166.773 99.7948 166.803 100.101 166.903C100.408 167.004 100.688 167.172 100.92 167.396C101.38 167.756 101.72 168.126 102.27 168.136C102.539 168.155 102.809 168.12 103.065 168.034C103.32 167.949 103.557 167.813 103.76 167.636Z" fill="#B52600"/>
<path d="M100.69 161.684C101.24 160.994 103.33 161.034 104.14 160.684C104.397 160.579 104.665 160.505 104.94 160.464C105.783 160.345 106.641 160.418 107.452 160.677C108.262 160.937 109.003 161.377 109.62 161.964C111.14 163.414 111.79 165.524 112.85 167.344C113.39 168.284 113.03 169.764 112.61 170.764C112.01 171.982 111.055 172.99 109.87 173.654C109.06 174.044 108.38 173.934 107.54 174.284C106.869 174.72 106.222 175.191 105.6 175.694C104.6 176.314 95.9399 166.584 99.8599 162.514" fill="#ED500A"/>
<path d="M109.62 161.974C108.967 161.47 108.22 161.101 107.424 160.888C106.627 160.676 105.797 160.623 104.98 160.734C104.112 160.794 103.251 160.934 102.41 161.154C101.552 161.35 100.749 161.736 100.06 162.284C100.631 161.566 101.404 161.036 102.28 160.764C103.139 160.452 104.038 160.263 104.95 160.204C105.814 160.084 106.695 160.183 107.51 160.492C108.326 160.802 109.052 161.311 109.62 161.974Z" fill="#C43706"/>
<path d="M107.2 174.444C107.875 174.139 108.566 173.869 109.27 173.634L109.79 173.444C109.949 173.396 110.103 173.332 110.25 173.254C110.548 173.078 110.83 172.874 111.09 172.644C112.2 171.727 112.977 170.468 113.3 169.064C113.341 169.822 113.182 170.577 112.84 171.254C112.496 171.941 112.02 172.552 111.44 173.054C111.132 173.305 110.796 173.52 110.44 173.694C110.255 173.785 110.06 173.856 109.86 173.904L109.33 174.024C108.66 174.224 107.94 174.344 107.2 174.444Z" fill="#C43706"/>
<path d="M102.299 161.455C102.299 161.455 89.8993 159.795 90.0293 165.925C90.1593 172.055 95.8893 171.775 100.029 169.315" fill="#ED500A"/>
<path d="M102.299 161.456C99.983 161.366 97.6636 161.521 95.3794 161.916C94.283 162.097 93.227 162.469 92.2594 163.016C91.8116 163.253 91.4268 163.594 91.1365 164.01C90.8461 164.425 90.6587 164.904 90.5895 165.406C90.4951 166.47 90.6741 167.54 91.1095 168.516C91.3429 168.98 91.6737 169.388 92.0792 169.712C92.4848 170.037 92.9556 170.27 93.4595 170.396C94.5447 170.651 95.6742 170.651 96.7594 170.396C97.8967 170.169 99.0017 169.803 100.049 169.306C99.0841 169.998 98.0184 170.537 96.8894 170.906C95.7258 171.303 94.4814 171.403 93.2694 171.196C92.6269 171.075 92.0193 170.813 91.4901 170.429C90.961 170.046 90.5236 169.549 90.2095 168.976C90.0795 168.686 89.9595 168.376 89.8395 168.086L89.6294 167.156C89.5282 166.531 89.4981 165.897 89.5394 165.266C89.6329 164.607 89.8809 163.981 90.2633 163.436C90.6457 162.892 91.1515 162.447 91.7394 162.136C92.8365 161.586 94.0271 161.246 95.2494 161.136C97.6011 160.856 99.9828 160.964 102.299 161.456Z" fill="#B52600"/>
<path d="M107.54 174.292C107.54 174.292 104.16 182.102 99.2296 179.032C94.2996 175.962 97.9595 172.192 99.7595 170.152" fill="#ED500A"/>
<path d="M107.54 174.292C106.986 176.076 105.972 177.683 104.6 178.952C103.864 179.631 102.94 180.073 101.95 180.222C100.932 180.294 99.9166 180.053 99.0398 179.532C98.1879 179.027 97.4546 178.345 96.8897 177.532C96.6046 177.093 96.4169 176.598 96.3393 176.08C96.2617 175.563 96.296 175.035 96.4398 174.532C96.9998 172.532 98.4397 171.312 99.7597 170.102C98.7597 171.572 97.5697 173.102 97.2597 174.702C97.1832 175.087 97.1854 175.485 97.2662 175.87C97.347 176.254 97.5047 176.619 97.7298 176.942C98.2313 177.6 98.8605 178.151 99.5798 178.562C100.26 178.984 101.05 179.196 101.85 179.172C102.667 179.077 103.442 178.758 104.09 178.252C105.474 177.156 106.644 175.813 107.54 174.292Z" fill="#B52600"/>
<path d="M98.9788 165.555C98.9788 165.555 89.5187 167.995 92.4187 173.485C95.3187 178.975 101.559 171.625 101.559 171.625" fill="#ED500A"/>
<path d="M98.9786 165.555C97.195 166.229 95.5306 167.185 94.0485 168.385C93.3574 168.939 92.8373 169.677 92.5485 170.515C92.423 170.916 92.3786 171.339 92.4181 171.758C92.4576 172.177 92.5801 172.584 92.7785 172.955C93.0599 173.756 93.6353 174.421 94.3885 174.815C94.7814 174.97 95.2013 175.045 95.6236 175.036C96.0459 175.028 96.4622 174.935 96.8486 174.765C98.5927 174.006 100.188 172.943 101.559 171.625C100.442 173.276 98.9294 174.62 97.1585 175.535C96.6711 175.786 96.1374 175.934 95.5904 175.97C95.0433 176.006 94.4947 175.929 93.9786 175.745C92.983 175.261 92.2076 174.417 91.8085 173.385C91.5643 172.893 91.42 172.358 91.384 171.811C91.3479 171.263 91.4209 170.714 91.5986 170.195C91.9789 169.201 92.6518 168.347 93.5285 167.745C95.1514 166.603 97.017 165.853 98.9786 165.555Z" fill="#B52600"/>
<path d="M150.81 28.392C155.3 28.612 153.07 35.232 148.21 42.392C141.92 51.702 129.66 60.532 118.14 61.812C98.7598 63.972 87.5798 51.632 84.4998 36.012C81.0798 18.732 93.8099 3.27199 109.57 0.461988C115.477 -0.573109 121.557 0.139867 127.065 2.51332C132.572 4.88677 137.266 8.8173 140.57 13.822C145.3 20.902 147.47 28.222 150.81 28.392Z" fill="#E25029"/>
<path d="M100.299 65.0728C100.952 63.8371 101.355 62.4849 101.485 61.0934C101.615 59.702 101.47 58.2985 101.058 56.9632C100.645 55.6279 99.9741 54.3869 99.0822 53.311C98.1902 52.2351 97.0952 51.3455 95.8595 50.6928C94.6238 50.0401 93.2716 49.6372 91.8801 49.5071C90.4887 49.3771 89.0852 49.5223 87.7499 49.9346C86.4146 50.3469 85.1735 51.0182 84.0977 51.9101C83.0218 52.802 82.1322 53.8971 81.4795 55.1328" fill="#C1210C"/>
<path d="M61.5195 158.561C92.4585 158.561 117.54 133.48 117.54 102.541C117.54 71.6025 92.4585 46.5215 61.5195 46.5215C30.5805 46.5215 5.49951 71.6025 5.49951 102.541C5.49951 133.48 30.5805 158.561 61.5195 158.561Z" fill="#FFB64D"/>
<mask id="mask0_5963_3714" style="mask-type:luminance" maskUnits="userSpaceOnUse" x="5" y="46" width="113" height="113">
<path d="M61.5225 158.561C92.4615 158.561 117.542 133.48 117.542 102.541C117.542 71.6025 92.4615 46.5215 61.5225 46.5215C30.5835 46.5215 5.50244 71.6025 5.50244 102.541C5.50244 133.48 30.5835 158.561 61.5225 158.561Z" fill="white"/>
</mask>
<g mask="url(#mask0_5963_3714)">
<path d="M117.373 107.219C108.433 97.0087 95.7226 89.2187 80.9526 85.3587L69.3826 68.0987L72.6626 83.6387C68.2817 82.964 63.8551 82.6297 59.4226 82.6387C53.2326 82.6319 47.0577 83.2517 40.9926 84.4887L42.1426 72.7687L34.7626 85.4787C11.5926 92.0287 -8.68742 111.819 -11.8574 135.899C-16.6921 147.98 -20.2872 160.521 -22.5874 173.329L-21.4674 28.3887H144.243V104.539L132.303 123.039C127.924 117.232 122.916 111.926 117.373 107.219Z" fill="#E25029"/>
</g>
<path d="M98.9487 118.835L100.109 114.955L90.5988 112.965L89.8687 115.435L98.9487 118.835Z" fill="#B2401D"/>
<path d="M92.7788 125.355L95.7488 123.295L89.3688 115.955L88.1089 116.955L92.7788 125.355Z" fill="#B2401D"/>
<path d="M75.1788 126.414C85.8821 126.414 94.5588 117.738 94.5588 107.034C94.5588 96.331 85.8821 87.6543 75.1788 87.6543C64.4756 87.6543 55.7988 96.331 55.7988 107.034C55.7988 117.738 64.4756 126.414 75.1788 126.414Z" fill="#FFFEE9"/>
<mask id="mask1_5963_3714" style="mask-type:luminance" maskUnits="userSpaceOnUse" x="55" y="87" width="40" height="40">
<path d="M75.1808 126.418C85.8841 126.418 94.5608 117.741 94.5608 107.038C94.5608 96.3349 85.8841 87.6582 75.1808 87.6582C64.4775 87.6582 55.8008 96.3349 55.8008 107.038C55.8008 117.741 64.4775 126.418 75.1808 126.418Z" fill="white"/>
</mask>
<g mask="url(#mask1_5963_3714)">
<path d="M85.1798 115.384C89.3827 115.384 92.7898 111.977 92.7898 107.774C92.7898 103.571 89.3827 100.164 85.1798 100.164C80.9769 100.164 77.5698 103.571 77.5698 107.774C77.5698 111.977 80.9769 115.384 85.1798 115.384Z" fill="#5B1414"/>
<path d="M49.7369 107.951L97.4292 104.6L95.7684 80.9679L48.0761 84.3196L49.7369 107.951Z" fill="#F7751E"/>
</g>
<path d="M22.0175 127.815L19.6475 124.985L26.9874 119.795L28.4874 121.595L22.0175 127.815Z" fill="#B2401D"/>
<path d="M29.4579 131.734L25.8579 130.914L28.9078 122.434L30.4878 122.884L29.4579 131.734Z" fill="#B2401D"/>
<path d="M37.7476 127.364C47.6555 127.364 55.6876 119.332 55.6876 109.424C55.6876 99.5164 47.6555 91.4844 37.7476 91.4844C27.8396 91.4844 19.8076 99.5164 19.8076 109.424C19.8076 119.332 27.8396 127.364 37.7476 127.364Z" fill="#FFFEE9"/>
<mask id="mask2_5963_3714" style="mask-type:luminance" maskUnits="userSpaceOnUse" x="19" y="91" width="37" height="37">
<path d="M37.7427 127.364C47.6507 127.364 55.6827 119.332 55.6827 109.424C55.6827 99.5164 47.6507 91.4844 37.7427 91.4844C27.8347 91.4844 19.8027 99.5164 19.8027 109.424C19.8027 119.332 27.8347 127.364 37.7427 127.364Z" fill="white"/>
</mask>
<g mask="url(#mask2_5963_3714)">
<path d="M45.6742 117.335C49.5015 117.335 52.6042 114.232 52.6042 110.405C52.6042 106.577 49.5015 103.475 45.6742 103.475C41.8469 103.475 38.7441 106.577 38.7441 110.405C38.7441 114.232 41.8469 117.335 45.6742 117.335Z" fill="#5B1414"/>
<path d="M64.5608 86.4373L19.0508 89.623L20.5446 110.963L66.0546 107.777L64.5608 86.4373Z" fill="#F7751E"/>
</g>
<path d="M47.3898 130.892L69.4498 127.892C69.6619 127.863 69.8777 127.876 70.0843 127.933C70.291 127.989 70.4841 128.086 70.6522 128.219C70.8203 128.351 70.9598 128.516 71.0625 128.704C71.1652 128.892 71.2289 129.099 71.2498 129.312C71.7998 134.782 72.7898 152.112 63.4698 152.642C54.3898 153.162 48.0699 138.332 46.1099 133.012C46.0285 132.789 45.9981 132.55 46.0211 132.314C46.0441 132.077 46.1198 131.849 46.2425 131.646C46.3653 131.442 46.5321 131.269 46.7306 131.139C46.9291 131.008 47.1544 130.924 47.3898 130.892Z" fill="#AD2B15"/>
<path d="M71.4895 138.793C63.9295 137.263 61.2595 143.483 61.2595 143.483C59.7713 143.107 58.202 143.212 56.7772 143.783C55.3524 144.354 54.1454 145.363 53.3296 146.663C56.0996 150.193 59.5296 152.873 63.4696 152.663C69.3496 152.313 71.1195 145.303 71.4895 138.793Z" fill="#D83C30"/>
</svg>
