<svg width="187" height="214" viewBox="0 0 187 214" fill="none" xmlns="http://www.w3.org/2000/svg">
<path d="M14.5032 168.577L49.7333 119.967C49.9742 119.616 50.3427 119.373 50.7601 119.291C51.1774 119.208 51.6105 119.292 51.9669 119.524C52.3232 119.757 52.5746 120.119 52.6674 120.534C52.7601 120.95 52.6869 121.385 52.4632 121.747L22.0333 173.507C21.7332 174.016 21.3357 174.462 20.8635 174.817C20.3912 175.173 19.8536 175.433 19.2811 175.581C18.7086 175.729 18.1126 175.763 17.527 175.681C16.9415 175.598 16.3778 175.402 15.8683 175.102C15.3588 174.801 14.9133 174.404 14.5574 173.932C14.2015 173.46 13.942 172.922 13.7939 172.349C13.6458 171.777 13.6119 171.181 13.6941 170.595C13.7764 170.01 13.9732 169.446 14.2732 168.937C14.3432 168.817 14.4232 168.687 14.5032 168.577Z" fill="#ED500A"/>
<path d="M17.5524 178.173C17.1352 179.807 17.0536 181.507 17.3124 183.173C17.3937 184.63 17.8149 186.048 18.5423 187.313C18.7056 187.55 18.9086 187.756 19.1423 187.923C19.3889 188.087 19.6747 188.181 19.9701 188.197C20.2654 188.213 20.5597 188.149 20.8223 188.013C21.3036 187.677 21.6562 187.187 21.8223 186.623C21.9444 185.991 21.9815 185.345 21.9324 184.703C21.9324 182.313 21.3323 179.913 21.7523 177.573C21.8623 176.983 20.9723 176.503 20.4223 176.443C19.8586 176.402 19.3014 176.585 18.8724 176.953C18.3924 177.363 17.7224 177.603 17.5524 178.173Z" fill="#ED500A"/>
<path d="M17.5527 178.173C17.0453 180.472 17.1591 182.864 17.8827 185.103C18.0427 185.647 18.2642 186.17 18.5427 186.663C18.7611 187.095 19.1114 187.445 19.5427 187.663C19.7554 187.733 19.981 187.753 20.2027 187.723C20.4004 187.7 20.5822 187.604 20.7127 187.453C21.0491 187.114 21.2696 186.676 21.3427 186.203C21.5127 183.993 21.1727 181.633 21.2927 179.203C21.3324 178.611 21.416 178.023 21.5427 177.443C21.5427 177.233 21.3827 176.993 21.1727 176.833C20.9478 176.661 20.6887 176.538 20.4127 176.473C20.1258 176.438 19.8345 176.462 19.5574 176.545C19.2802 176.627 19.0233 176.766 18.8027 176.953C18.3727 177.363 17.7527 177.593 17.5527 178.173ZM17.5527 178.173C17.7427 177.583 18.3627 177.333 18.8127 176.983C19.1351 176.655 19.5607 176.448 20.0179 176.397C20.4752 176.346 20.9359 176.454 21.3227 176.703C21.478 176.779 21.6112 176.893 21.7094 177.035C21.8075 177.177 21.8672 177.342 21.8827 177.513C21.8234 178.095 21.8033 178.679 21.8227 179.263C21.8727 180.423 22.0827 181.573 22.2327 182.743C22.3027 183.333 22.3627 183.933 22.3827 184.533C22.4272 185.149 22.4272 185.768 22.3827 186.383C22.2539 187.082 21.9032 187.72 21.3827 188.203C21.0956 188.472 20.725 188.635 20.3327 188.663C19.9633 188.695 19.5918 188.633 19.2527 188.483C18.6458 188.162 18.1791 187.628 17.9427 186.983C17.6875 186.422 17.506 185.831 17.4027 185.223C17.2105 184.05 17.1169 182.862 17.1227 181.673C17.0898 180.492 17.2348 179.312 17.5527 178.173Z" fill="#B52600"/>
<path d="M13.492 176.676C12.1056 178.147 11.0608 179.905 10.432 181.826C9.71318 183.428 9.41049 185.186 9.55199 186.936C9.60529 187.287 9.72037 187.625 9.89195 187.936C10.0948 188.232 10.3736 188.468 10.6991 188.62C11.0246 188.771 11.3848 188.832 11.742 188.796C12.4512 188.731 13.1141 188.415 13.612 187.906C14.1088 187.408 14.5179 186.83 14.8219 186.196C16.1419 183.676 16.8219 180.776 18.5719 178.556C19.0119 177.996 18.272 176.956 17.672 176.556C17.0738 176.19 16.3627 176.055 15.672 176.176C14.912 176.286 14.032 176.176 13.492 176.676Z" fill="#ED500A"/>
<path d="M13.4919 176.677C11.4919 178.677 10.5519 181.537 9.95185 184.227C9.8228 184.885 9.77911 185.557 9.82185 186.227C9.8463 186.566 9.90663 186.901 10.0018 187.227C10.0862 187.495 10.2337 187.738 10.4319 187.937C10.6533 188.111 10.9121 188.232 11.188 188.289C11.4639 188.346 11.7494 188.339 12.0219 188.267C12.6136 188.103 13.1363 187.752 13.5119 187.267C13.9358 186.753 14.2951 186.188 14.5819 185.587C14.8919 184.967 15.1819 184.337 15.4719 183.687C16.0197 182.368 16.6579 181.088 17.3818 179.857C17.5718 179.547 17.7719 179.247 17.9919 178.957C18.2119 178.667 18.5219 178.407 18.5419 178.167C18.5138 177.836 18.4087 177.516 18.2351 177.233C18.0614 176.95 17.8241 176.712 17.5419 176.537C16.9362 176.191 16.229 176.068 15.5419 176.187C14.8319 176.297 14.0319 176.177 13.4919 176.677ZM13.4919 176.677C14.0319 176.167 14.8319 176.277 15.4919 176.177C16.2011 176.022 16.9418 176.114 17.5919 176.437C17.9078 176.628 18.1858 176.875 18.4119 177.167C18.6561 177.447 18.8065 177.797 18.8419 178.167C18.8241 178.377 18.7401 178.577 18.6019 178.737C18.5019 178.887 18.4019 179.017 18.3119 179.177C18.1264 179.468 17.9561 179.768 17.8019 180.077C16.5119 182.557 16.1419 185.437 14.2419 187.897C13.729 188.522 13.0272 188.964 12.2419 189.157C11.8222 189.248 11.3866 189.236 10.9723 189.123C10.558 189.01 10.1771 188.799 9.86189 188.507C9.34932 187.87 9.09895 187.062 9.16188 186.247C9.17636 185.51 9.28389 184.777 9.48188 184.067C9.8893 182.688 10.4215 181.349 11.0718 180.067C11.688 178.812 12.5056 177.667 13.4919 176.677Z" fill="#B52600"/>
<path d="M11.032 172.676C8.997 173.463 7.16264 174.692 5.66197 176.276C4.21791 177.497 3.10383 179.062 2.42198 180.826C2.30887 181.191 2.26478 181.575 2.29198 181.956C2.3544 182.338 2.51683 182.696 2.76274 182.995C3.00865 183.293 3.32924 183.522 3.69194 183.656C4.41261 183.916 5.20132 183.916 5.92198 183.656C6.64291 183.394 7.31788 183.019 7.92198 182.546C10.372 180.716 12.162 177.686 15.112 176.866C15.852 176.656 15.562 175.176 15.172 174.506C14.7463 173.859 14.0991 173.39 13.352 173.186C12.572 172.966 11.732 172.426 11.032 172.676Z" fill="#ED500A"/>
<path d="M11.0322 172.675C8.10225 173.675 5.89224 176.045 4.03224 178.385C3.59342 178.979 3.23373 179.628 2.96224 180.315C2.83388 180.637 2.74325 180.972 2.69222 181.315C2.64067 181.622 2.67532 181.937 2.79225 182.225C2.93259 182.5 3.13473 182.739 3.38283 182.923C3.63093 183.107 3.91823 183.231 4.22225 183.285C4.88225 183.4 5.56161 183.302 6.16225 183.005C8.76225 181.795 10.5122 179.005 13.2522 177.395C13.5964 177.196 13.9579 177.029 14.3322 176.895C14.5154 176.825 14.7023 176.765 14.8922 176.715C15.1122 176.655 15.1722 176.645 15.2722 176.505C15.4148 176.192 15.4533 175.842 15.3822 175.505C15.3286 175.151 15.2064 174.812 15.0222 174.505C14.5931 173.872 13.9507 173.414 13.2122 173.215C12.4822 172.935 11.7722 172.455 11.0322 172.675ZM11.0322 172.675C11.8022 172.445 12.5323 172.915 13.2323 173.135C13.9966 173.319 14.6744 173.761 15.1522 174.385C15.3643 174.717 15.5197 175.082 15.6123 175.465C15.7317 175.87 15.7106 176.304 15.5523 176.695C15.492 176.801 15.4103 176.893 15.3123 176.965L15.0122 177.095C14.8422 177.165 14.6623 177.215 14.4923 177.305C14.1425 177.457 13.8077 177.641 13.4923 177.855C11.0423 179.535 9.58227 182.495 6.49227 183.945C5.70095 184.319 4.8102 184.428 3.95223 184.255C3.50973 184.153 3.09776 183.948 2.75008 183.656C2.4024 183.364 2.12893 182.993 1.95223 182.575C1.72996 181.723 1.85213 180.818 2.29225 180.055C2.6339 179.331 3.0748 178.658 3.60225 178.055C4.63587 176.909 5.77045 175.858 6.99227 174.915C8.20254 173.945 9.56858 173.188 11.0322 172.675Z" fill="#B52600"/>
<path d="M10.2614 169.264C10.5514 168.454 12.4814 167.814 13.1214 167.264C13.3241 167.087 13.5454 166.933 13.7814 166.804C14.5196 166.421 15.335 166.21 16.1664 166.188C16.9979 166.165 17.8235 166.331 18.5814 166.674C20.4514 167.514 21.7314 169.244 23.2914 170.584C24.0914 171.264 24.2914 172.744 24.1714 173.804C24.0165 175.12 23.4655 176.358 22.5914 177.354C21.9614 177.974 21.3014 178.094 20.6414 178.684C20.2914 178.994 9.90139 181.294 8.92139 170.774" fill="#ED500A"/>
<path d="M17.5901 170.802C16.9201 171.362 16.05 174.382 11.75 173.802C10.9853 173.604 10.254 173.294 9.58006 172.882L7.32005 173.542C6.06722 173.942 4.72853 173.991 3.45005 173.682C2.83444 173.522 2.26254 173.226 1.77628 172.816C1.29003 172.406 0.901773 171.892 0.640054 171.312C0.555808 171.121 0.501851 170.919 0.480081 170.712C0.472096 170.327 0.54544 169.944 0.695352 169.589C0.845263 169.234 1.06837 168.915 1.35008 168.652C1.92058 168.241 2.57139 167.954 3.26005 167.812C4.12368 167.604 5.01503 167.537 5.90006 167.612C7.64006 167.692 8.90008 168.312 9.67008 167.892C10.5534 166.88 11.7349 166.174 13.0448 165.875C14.3548 165.577 15.7256 165.702 16.9601 166.232" fill="#ED500A"/>
<path d="M17.59 170.803C17.1765 171.478 16.7153 172.123 16.21 172.733C15.6408 173.325 14.9166 173.744 14.1201 173.943C13.3237 174.128 12.5007 174.168 11.69 174.063C10.8768 173.894 10.0966 173.593 9.38 173.173H9.68005C8.82005 173.443 7.99003 173.723 7.09003 173.973C6.16656 174.229 5.20518 174.32 4.25 174.243C3.25877 174.15 2.31489 173.775 1.53003 173.163C1.1349 172.854 0.79653 172.478 0.530029 172.053C0.221593 171.61 0.0384583 171.091 0 170.553C0.000130146 170.013 0.141501 169.482 0.410034 169.013C0.667628 168.537 1.05632 168.145 1.53003 167.883C2.38806 167.431 3.33206 167.165 4.30005 167.103C5.23626 167.024 6.17885 167.078 7.10004 167.263L8.43005 167.533C8.79264 167.638 9.17745 167.638 9.54004 167.533L9.44 167.613C9.89739 167.111 10.4347 166.689 11.03 166.363C11.6283 166.012 12.2859 165.775 12.97 165.663C13.6321 165.552 14.3079 165.552 14.97 165.663C15.6323 165.762 16.2781 165.951 16.89 166.223C16.2587 166.033 15.6079 165.916 14.95 165.873C14.3006 165.83 13.6486 165.894 13.02 166.063C12.3994 166.229 11.8088 166.493 11.27 166.843C10.7362 167.177 10.2601 167.596 9.86005 168.083V168.143H9.81006C9.32465 168.351 8.7865 168.404 8.27002 168.293L6.94 168.093C6.08481 167.978 5.21964 167.958 4.36005 168.033C3.52929 168.125 2.72255 168.369 1.98004 168.753C1.65504 168.924 1.39251 169.193 1.23004 169.523C1.06103 169.83 0.965182 170.172 0.950012 170.523C0.997763 170.881 1.12783 171.223 1.33002 171.523C1.54435 171.854 1.81122 172.148 2.12006 172.393C2.75902 172.899 3.52931 173.211 4.34003 173.293C5.18339 173.389 6.0373 173.332 6.86005 173.123L9.45001 172.443H9.62006L9.75 172.523C10.3633 172.937 11.0384 173.251 11.75 173.453C12.4914 173.578 13.2486 173.578 13.9901 173.453C14.7284 173.323 15.4187 172.998 15.9901 172.513C16.6301 172.063 17.03 171.363 17.59 170.803Z" fill="#B52600"/>
<path d="M23.5815 170.705C23.9576 171.289 24.2157 171.942 24.3415 172.625C24.4902 173.312 24.5139 174.02 24.4115 174.715C24.3047 175.438 24.0233 176.125 23.5915 176.715C23.1468 177.284 22.5172 177.681 21.8115 177.835C22.2597 177.381 22.6372 176.861 22.9315 176.295C23.1747 175.743 23.3429 175.161 23.4315 174.565C23.5243 173.946 23.5711 173.321 23.5715 172.695L23.5815 170.705Z" fill="#C43706"/>
<path d="M39.2715 204.737C42.53 204.737 45.1716 202.096 45.1716 198.837C45.1716 195.579 42.53 192.938 39.2715 192.938C36.0131 192.938 33.3716 195.579 33.3716 198.837C33.3716 202.096 36.0131 204.737 39.2715 204.737Z" fill="#D33B3B"/>
<path d="M61.9616 132.118L43.1116 208.808L30.6816 204.978L58.3316 130.988L61.9616 132.118Z" fill="#DE3E00"/>
<path d="M43.0818 208.889C42.9822 209.225 42.7535 209.507 42.446 209.674C42.1384 209.84 41.7773 209.878 41.4418 209.779L23.4418 205.279C23.2588 205.248 23.0852 205.177 22.9338 205.069C22.7825 204.962 22.6574 204.822 22.5679 204.659C22.4785 204.497 22.4269 204.316 22.4172 204.131C22.4075 203.945 22.4398 203.76 22.5118 203.589C24.9318 198.589 31.0318 196.129 37.0118 197.649L45.1018 199.649L43.0818 208.889Z" fill="#DE3E00"/>
<path d="M63.0738 208.755C66.3323 208.755 68.9738 206.114 68.9738 202.855C68.9738 199.597 66.3323 196.955 63.0738 196.955C59.8153 196.955 57.1738 199.597 57.1738 202.855C57.1738 206.114 59.8153 208.755 63.0738 208.755Z" fill="#DE3E00"/>
<path d="M80.2025 134.496L67.7125 212.476L55.0225 209.676L76.4925 133.676L80.2025 134.496Z" fill="#DE3E00"/>
<path d="M67.6938 212.556C67.6583 212.724 67.5896 212.884 67.4916 213.026C67.3937 213.168 67.2685 213.289 67.1233 213.382C66.9781 213.475 66.8159 213.539 66.646 213.568C66.4761 213.598 66.302 213.594 66.1338 213.556L47.7739 210.556C47.5887 210.537 47.41 210.478 47.2507 210.382C47.0914 210.286 46.9555 210.156 46.853 210C46.7504 209.845 46.6839 209.669 46.6581 209.485C46.6323 209.301 46.6479 209.113 46.7039 208.936C48.7039 203.796 54.5839 200.806 60.7039 201.826L68.9339 203.176L67.6938 212.556Z" fill="#DE3E00"/>
<path d="M185.637 46.3607C189.257 48.8407 184.017 53.2007 176.307 56.6707C166.307 61.1807 151.607 62.2507 141.397 57.4207C124.197 49.2907 121.217 33.3207 126.647 18.7707C132.647 2.66065 151.147 -3.65935 165.647 2.08065C171.082 4.24169 175.766 7.94393 179.124 12.732C182.482 17.5201 184.367 23.1853 184.547 29.0307C184.857 37.2507 182.947 44.4607 185.637 46.3607Z" fill="#E25029"/>
<path d="M128.357 56.1603C130.372 54.3726 131.614 51.8722 131.821 49.1864C132.028 46.5006 131.184 43.8395 129.467 41.7642C127.749 39.6888 125.293 38.3616 122.616 38.0624C119.939 37.7632 117.25 38.5153 115.117 40.1603" fill="#C1210C"/>
<path d="M80.7173 135.89C110.9 135.89 135.367 111.422 135.367 81.2398C135.367 51.0575 110.9 26.5898 80.7173 26.5898C50.535 26.5898 26.0674 51.0575 26.0674 81.2398C26.0674 111.422 50.535 135.89 80.7173 135.89Z" fill="#FFB64D"/>
<mask id="mask0_5963_2131" style="mask-type:luminance" maskUnits="userSpaceOnUse" x="26" y="26" width="110" height="110">
<path d="M80.7193 135.894C110.902 135.894 135.369 111.426 135.369 81.2438C135.369 51.0614 110.902 26.5938 80.7193 26.5938C50.5369 26.5938 26.0693 51.0614 26.0693 81.2438C26.0693 111.426 50.5369 135.894 80.7193 135.894Z" fill="white"/>
</mask>
<g mask="url(#mask0_5963_2131)">
<path d="M21.4296 -14.9688L174.93 35.7712L151.62 106.301L140.83 117.441C140.83 117.441 122.49 86.6813 99.6796 72.4413L94.1096 50.5612L91.2195 68.0612C83.7707 64.4363 76.0868 61.3159 68.2195 58.7213C66.2195 58.0546 64.2395 57.4646 62.2795 56.9512L68.8696 47.0213L59.5195 56.2313C38.5195 51.1313 17.3895 52.1513 -1.48047 54.2313L21.4296 -14.9688Z" fill="#E25029"/>
</g>
<path d="M105.246 111.842L107.376 108.502L98.9858 104.092L97.6357 106.202L105.246 111.842Z" fill="#B2401D"/>
<path d="M97.7057 116.291L101.046 115.151L97.0257 106.561L95.5757 107.161L97.7057 116.291Z" fill="#B2401D"/>
<path d="M86.1156 113.3C96.5593 113.3 105.026 104.834 105.026 94.3905C105.026 83.9468 96.5593 75.4805 86.1156 75.4805C75.6719 75.4805 67.2056 83.9468 67.2056 94.3905C67.2056 104.834 75.6719 113.3 86.1156 113.3Z" fill="#FFFEE9"/>
<mask id="mask1_5963_2131" style="mask-type:luminance" maskUnits="userSpaceOnUse" x="67" y="75" width="39" height="39">
<path d="M86.1171 113.304C96.5608 113.304 105.027 104.838 105.027 94.3944C105.027 83.9507 96.5608 75.4844 86.1171 75.4844C75.6734 75.4844 67.207 83.9507 67.207 94.3944C67.207 104.838 75.6734 113.304 86.1171 113.304Z" fill="white"/>
</mask>
<g mask="url(#mask1_5963_2131)">
<path d="M80.6174 92.9437C81.8876 92.9437 82.9174 91.914 82.9174 90.6437C82.9174 89.3735 81.8876 88.3438 80.6174 88.3438C79.3471 88.3438 78.3174 89.3735 78.3174 90.6437C78.3174 91.914 79.3471 92.9437 80.6174 92.9437Z" fill="#5B1414"/>
</g>
<path d="M31.2347 100.489L29.6147 97.2685L37.7448 93.9785L38.7747 96.0185L31.2347 100.489Z" fill="#B2401D"/>
<path d="M37.4244 105.87L34.1943 104.29L38.9844 96.9102L40.3744 97.7001L37.4244 105.87Z" fill="#B2401D"/>
<path d="M50.2847 104.029C59.9496 104.029 67.7847 96.1943 67.7847 86.5293C67.7847 76.8643 59.9496 69.0293 50.2847 69.0293C40.6197 69.0293 32.7847 76.8643 32.7847 86.5293C32.7847 96.1943 40.6197 104.029 50.2847 104.029Z" fill="#FFFEE9"/>
<path d="M46.3244 88.0199C47.5947 88.0199 48.6245 86.9902 48.6245 85.7199C48.6245 84.4497 47.5947 83.4199 46.3244 83.4199C45.0541 83.4199 44.0244 84.4497 44.0244 85.7199C44.0244 86.9902 45.0541 88.0199 46.3244 88.0199Z" fill="#5B1414"/>
<path d="M98.8066 188.235L93.8766 128.415C93.8335 127.994 93.9562 127.572 94.2187 127.239C94.4813 126.907 94.863 126.689 95.2831 126.633C95.7031 126.577 96.1284 126.687 96.4688 126.94C96.8092 127.192 97.038 127.567 97.1066 127.985L107.737 187.075C107.891 188.227 107.596 189.394 106.911 190.333C106.227 191.272 105.206 191.91 104.063 192.115C102.919 192.32 101.74 192.076 100.772 191.433C99.804 190.79 99.1214 189.799 98.8666 188.665C98.8369 188.523 98.8168 188.38 98.8066 188.235Z" fill="#ED500A"/>
<path d="M100.821 194.363C100.476 196.026 99.7956 197.602 98.821 198.993C98.1207 200.271 97.1267 201.365 95.921 202.183C95.6756 202.331 95.404 202.429 95.121 202.473C94.8267 202.513 94.527 202.474 94.2527 202.36C93.9785 202.246 93.7397 202.06 93.561 201.823C93.2839 201.313 93.192 200.723 93.301 200.153C93.4594 199.524 93.7087 198.921 94.041 198.363C95.041 196.213 96.661 194.363 97.301 192.013C97.461 191.443 98.461 191.393 98.991 191.573C99.5123 191.79 99.9309 192.198 100.161 192.713C100.431 193.273 100.911 193.813 100.821 194.363Z" fill="#ED500A"/>
<path d="M100.821 194.363C100.616 195.527 100.235 196.653 99.6908 197.703C99.1802 198.779 98.5779 199.81 97.8908 200.783C97.5342 201.282 97.1178 201.735 96.6508 202.133C96.1527 202.608 95.4986 202.885 94.8108 202.913C94.459 202.89 94.1169 202.788 93.8108 202.613C93.4746 202.405 93.2122 202.098 93.0608 201.733C92.8098 201.073 92.7817 200.35 92.9808 199.673C93.1948 199.096 93.4557 198.537 93.7608 198.003C94.0366 197.47 94.3403 196.953 94.6708 196.453C95.3208 195.453 96.0008 194.513 96.5508 193.453C96.826 192.935 97.0601 192.397 97.2508 191.843C97.3446 191.699 97.4719 191.58 97.6217 191.497C97.7715 191.413 97.9393 191.367 98.1108 191.363C98.4178 191.335 98.7271 191.369 99.0208 191.463C99.2999 191.576 99.5536 191.744 99.7666 191.957C99.9796 192.17 100.148 192.424 100.261 192.703C100.451 193.283 100.901 193.783 100.821 194.363ZM100.821 194.363C100.891 193.753 100.431 193.273 100.171 192.763C100.053 192.499 99.8826 192.262 99.6692 192.068C99.4557 191.873 99.2043 191.725 98.9308 191.633C98.654 191.573 98.3676 191.573 98.0908 191.633C97.9676 191.647 97.8494 191.69 97.7454 191.758C97.6414 191.825 97.5543 191.916 97.4908 192.023C97.355 192.599 97.1744 193.164 96.9508 193.713C96.0208 195.933 94.6808 197.913 93.8808 199.973C93.7359 200.432 93.7359 200.924 93.8808 201.383C93.9444 201.57 94.0672 201.732 94.2308 201.843C94.417 201.966 94.6292 202.045 94.8508 202.073C95.3483 202.071 95.8308 201.902 96.2208 201.593C96.6879 201.272 97.1144 200.896 97.4908 200.473C99.1297 198.772 100.28 196.662 100.821 194.363Z" fill="#B52600"/>
<path d="M105.129 194.805C105.747 196.741 105.922 198.792 105.639 200.805C105.597 202.564 105.112 204.283 104.229 205.805C104.027 206.095 103.777 206.349 103.489 206.555C103.177 206.734 102.823 206.828 102.464 206.828C102.104 206.828 101.751 206.734 101.439 206.555C100.832 206.186 100.372 205.616 100.139 204.945C99.9111 204.279 99.7963 203.579 99.7989 202.875C99.6989 200.025 100.369 197.135 99.7389 194.365C99.5789 193.675 100.739 193.065 101.409 192.965C102.118 192.902 102.827 193.093 103.409 193.505C104.039 193.835 104.889 194.135 105.129 194.805Z" fill="#ED500A"/>
<path d="M105.129 194.805C105.586 196.152 105.819 197.564 105.819 198.985C105.847 200.418 105.749 201.85 105.529 203.265C105.4 203.991 105.178 204.697 104.869 205.365C104.571 206.126 103.996 206.744 103.259 207.095C102.847 207.222 102.411 207.247 101.988 207.168C101.565 207.09 101.167 206.911 100.829 206.645C100.195 206.134 99.7433 205.433 99.5386 204.645C98.8986 201.645 99.8186 198.855 99.7286 196.055C99.7286 195.715 99.7285 195.365 99.6585 195.055C99.6451 194.884 99.6217 194.714 99.5885 194.545C99.5229 194.344 99.5229 194.127 99.5885 193.925C99.7741 193.584 100.07 193.316 100.429 193.165C100.757 193.002 101.113 192.9 101.479 192.865C102.203 192.86 102.908 193.1 103.479 193.545C104.099 193.865 104.859 194.115 105.129 194.805ZM105.129 194.805C104.849 194.125 104.129 193.885 103.509 193.515C102.931 193.093 102.222 192.891 101.509 192.945C101.182 192.978 100.867 193.085 100.587 193.258C100.308 193.432 100.073 193.667 99.8985 193.945C99.8085 194.165 100.009 194.545 100.049 194.895C100.089 195.245 100.169 195.605 100.209 195.965C100.328 197.392 100.348 198.826 100.269 200.255C100.269 200.955 100.269 201.655 100.269 202.345C100.26 203.019 100.337 203.691 100.499 204.345C100.638 204.939 100.96 205.474 101.419 205.875C101.634 206.054 101.887 206.182 102.159 206.25C102.431 206.317 102.714 206.323 102.989 206.265C103.257 206.173 103.497 206.015 103.689 205.805C103.911 205.565 104.106 205.3 104.269 205.015C104.608 204.426 104.867 203.794 105.039 203.135C105.669 200.465 106.089 197.515 105.129 194.805Z" fill="#B52600"/>
<path d="M109.11 192.286C110.599 193.877 111.716 195.78 112.38 197.856C113.157 199.582 113.481 201.479 113.32 203.366C113.267 203.745 113.145 204.111 112.96 204.446C112.736 204.759 112.433 205.009 112.082 205.168C111.731 205.328 111.344 205.393 110.96 205.356C110.195 205.272 109.486 204.917 108.96 204.356C108.429 203.81 107.991 203.182 107.66 202.496C106.24 199.776 105.95 196.276 103.66 194.256C103.08 193.746 103.99 192.536 104.66 192.106C105.324 191.71 106.109 191.568 106.87 191.706C107.57 191.866 108.56 191.756 109.11 192.286Z" fill="#ED500A"/>
<path d="M109.11 192.286C110.186 193.386 111.068 194.661 111.72 196.056C112.411 197.435 112.977 198.875 113.41 200.356C113.622 201.121 113.73 201.911 113.73 202.706C113.797 203.585 113.513 204.455 112.94 205.126C112.597 205.427 112.186 205.642 111.742 205.752C111.298 205.862 110.834 205.863 110.39 205.756C109.54 205.541 108.782 205.057 108.23 204.376C106.12 201.746 106.09 198.446 104.61 195.866C104.428 195.541 104.217 195.233 103.98 194.946C103.87 194.796 103.73 194.676 103.61 194.536C103.53 194.462 103.456 194.382 103.39 194.296C103.329 194.185 103.295 194.062 103.29 193.936C103.319 193.519 103.488 193.124 103.77 192.816C104.017 192.504 104.319 192.24 104.66 192.036C105.358 191.682 106.156 191.579 106.92 191.746C107.66 191.856 108.52 191.746 109.11 192.286ZM109.11 192.286C108.51 191.756 107.66 191.886 106.92 191.786C106.169 191.648 105.394 191.779 104.73 192.156C104.424 192.369 104.16 192.637 103.95 192.946C103.727 193.231 103.604 193.583 103.6 193.946C103.6 194.116 103.68 194.156 103.85 194.306C104.006 194.428 104.153 194.562 104.29 194.706C104.561 194.992 104.809 195.299 105.03 195.626C106.81 198.266 107.17 201.536 109.03 203.756C109.442 204.282 110.009 204.667 110.65 204.856C110.95 204.94 111.265 204.953 111.57 204.894C111.876 204.835 112.163 204.705 112.41 204.516C112.636 204.306 112.801 204.04 112.89 203.746C112.991 203.42 113.058 203.085 113.09 202.746C113.15 202.007 113.109 201.263 112.97 200.536C112.28 197.556 111.3 194.486 109.11 192.286Z" fill="#B52600"/>
<path d="M111.249 189.535C111.349 188.685 109.879 187.265 109.559 186.475C109.455 186.226 109.321 185.991 109.159 185.775C108.664 185.108 108.022 184.563 107.284 184.181C106.546 183.8 105.73 183.592 104.899 183.575C102.849 183.515 100.899 184.525 98.9589 185.045C97.9589 185.315 97.1589 186.585 96.7589 187.565C96.3277 188.82 96.2894 190.177 96.6489 191.455C96.9389 192.285 97.479 192.675 97.819 193.455C98.009 193.895 106.369 200.455 111.819 191.455" fill="#ED500A"/>
<path d="M104.04 187.745C104.4 188.535 103.87 191.635 108.04 192.935C108.812 193.099 109.605 193.143 110.39 193.065L112.15 194.635C113.105 195.538 114.287 196.163 115.57 196.445C116.195 196.565 116.838 196.545 117.454 196.386C118.069 196.227 118.642 195.933 119.13 195.525C119.287 195.388 119.425 195.23 119.54 195.055C119.714 194.712 119.813 194.336 119.83 193.951C119.848 193.566 119.783 193.183 119.64 192.825C119.311 192.203 118.851 191.66 118.29 191.235C117.601 190.67 116.824 190.221 115.99 189.905C114.4 189.225 112.99 189.225 112.48 188.525C112.125 187.229 111.367 186.078 110.315 185.241C109.264 184.403 107.973 183.921 106.63 183.865" fill="#ED500A"/>
<path d="M104.04 187.746C104.216 188.503 104.429 189.251 104.68 189.986C104.982 190.679 105.47 191.274 106.09 191.706C106.7 192.128 107.376 192.445 108.09 192.646C108.822 192.762 109.568 192.762 110.3 192.646H110.46L110.59 192.756L112.59 194.496C113.24 195.039 113.982 195.462 114.78 195.746C115.546 196.025 116.376 196.077 117.17 195.896C117.558 195.819 117.927 195.669 118.26 195.456C118.577 195.274 118.848 195.021 119.05 194.716C119.2 194.384 119.265 194.02 119.24 193.656C119.231 193.296 119.112 192.947 118.9 192.656C118.402 191.985 117.781 191.415 117.07 190.976C116.33 190.531 115.541 190.172 114.72 189.906L113.43 189.506C112.917 189.384 112.456 189.104 112.11 188.706V188.636C111.962 188.024 111.716 187.439 111.38 186.906C111.048 186.356 110.629 185.863 110.14 185.446C109.65 185.023 109.092 184.685 108.49 184.446C107.877 184.194 107.236 184.016 106.58 183.916C107.258 183.931 107.931 184.039 108.58 184.236C109.232 184.439 109.846 184.747 110.4 185.146C110.968 185.545 111.459 186.043 111.85 186.616C112.258 187.19 112.566 187.829 112.76 188.506V188.386C113.038 188.645 113.386 188.815 113.76 188.876L115.07 189.196C115.977 189.44 116.848 189.803 117.66 190.276C118.504 190.753 119.239 191.4 119.82 192.176C120.132 192.617 120.312 193.137 120.34 193.676C120.372 194.216 120.269 194.756 120.04 195.246C119.767 195.714 119.378 196.103 118.91 196.376C118.48 196.642 118.006 196.828 117.51 196.926C116.533 197.138 115.516 197.065 114.58 196.716C113.69 196.373 112.867 195.875 112.15 195.246C111.45 194.626 110.82 194.016 110.15 193.396L110.44 193.486C109.615 193.556 108.784 193.492 107.98 193.296C107.199 193.039 106.47 192.642 105.83 192.126C105.202 191.598 104.735 190.905 104.48 190.126C104.268 189.346 104.121 188.55 104.04 187.746Z" fill="#B52600"/>
<path d="M98.629 185.055L97.779 186.845C97.5103 187.412 97.2798 187.997 97.089 188.595C96.91 189.169 96.8091 189.764 96.789 190.365C96.8059 191.005 96.9206 191.639 97.129 192.245C96.5615 191.794 96.166 191.162 96.009 190.455C95.876 189.738 95.9206 189 96.139 188.305C96.354 187.628 96.6931 186.997 97.139 186.445C97.5405 185.889 98.0466 185.417 98.629 185.055Z" fill="#C43706"/>
<path d="M54.6357 115.363C54.6357 115.363 66.0757 117.953 70.5757 112.713C70.5757 112.683 75.8057 126.693 54.6357 115.363Z" fill="#AD2B15"/>
<path d="M64.376 119.363C69.376 120.543 70.8159 118.693 71.0959 116.633C69.8434 116.561 68.5905 116.768 67.4281 117.24C66.2657 117.713 65.2232 118.438 64.376 119.363Z" fill="#D83C30"/>
<path d="M97.5354 63.4941L96.0654 87.6541" stroke="#492927" stroke-width="2" stroke-miterlimit="10" stroke-linecap="round"/>
<path d="M100.395 73.4844L99.4854 88.6244" stroke="#492927" stroke-width="2" stroke-miterlimit="10" stroke-linecap="round"/>
<path d="M105.095 66.6836L104.175 81.8336" stroke="#492927" stroke-width="2" stroke-miterlimit="10" stroke-linecap="round"/>
<path d="M107.965 76.5547L107.045 91.7047" stroke="#492927" stroke-width="2" stroke-miterlimit="10" stroke-linecap="round"/>
</svg>
