<svg width="150" height="237" viewBox="0 0 150 237" fill="none" xmlns="http://www.w3.org/2000/svg">
<path d="M68.5106 157.363C65.2606 159.573 62.0806 161.543 58.7706 163.493C55.4606 165.443 52.1306 167.253 48.6906 168.953C45.228 170.69 41.665 172.22 38.0206 173.533C34.2189 174.972 30.2191 175.818 26.1606 176.043C23.8411 176.142 21.5305 175.7 19.4106 174.753C18.2829 174.178 17.267 173.406 16.4106 172.473C15.5932 171.554 14.9434 170.498 14.4906 169.353C13.7133 167.306 13.3562 165.122 13.4406 162.933C13.4929 160.936 13.707 158.946 14.0806 156.983C15.6406 149.333 18.5206 142.333 21.5706 135.463C21.7246 135.156 21.9881 134.917 22.3092 134.793C22.6304 134.67 22.9862 134.671 23.3067 134.796C23.6272 134.921 23.8894 135.161 24.0418 135.47C24.1942 135.778 24.2259 136.133 24.1306 136.463C21.5806 143.393 19.2406 150.463 18.3106 157.583C18.0943 159.304 18.0207 161.04 18.0906 162.773C18.1206 164.325 18.4606 165.855 19.0906 167.273C19.3369 167.84 19.6923 168.352 20.1367 168.781C20.5812 169.21 21.1058 169.547 21.6806 169.773C23.0332 170.234 24.4728 170.381 25.8906 170.203C29.272 169.756 32.5661 168.798 35.6606 167.363C38.955 165.925 42.1577 164.285 45.2506 162.453C48.3806 160.633 51.4606 158.663 54.4806 156.613C57.5006 154.563 60.4806 152.393 63.2806 150.213C63.737 149.856 64.2592 149.592 64.8175 149.437C65.3758 149.282 65.9591 149.238 66.5344 149.308C67.1097 149.378 67.6655 149.561 68.1701 149.846C68.6748 150.13 69.1184 150.512 69.4756 150.968C69.8328 151.425 70.0966 151.947 70.2519 152.505C70.4073 153.064 70.4512 153.647 70.3811 154.222C70.311 154.797 70.1283 155.353 69.8434 155.858C69.5584 156.363 69.1769 156.806 68.7206 157.163L68.5106 157.363Z" fill="#ED500A"/>
<path d="M91.5207 147.953C96.5618 150.661 101.765 153.056 107.101 155.123C108.411 155.613 109.731 156.053 111.011 156.403C112.154 156.747 113.331 156.969 114.521 157.063C114.961 157.063 115.291 156.963 114.991 157.153C114.779 157.337 114.618 157.571 114.521 157.833C114.507 157.893 114.507 157.954 114.521 158.013C114.521 158.073 114.521 158.073 114.521 158.113C114.521 158.153 114.521 158.173 114.521 158.173C114.501 157.788 114.402 157.41 114.231 157.063C113.995 156.504 113.725 155.959 113.421 155.433C111.937 153.044 110.265 150.777 108.421 148.653C106.571 146.443 104.621 144.273 102.621 142.143C98.6207 137.873 94.4308 133.733 90.1908 129.643C89.9176 129.399 89.7525 129.057 89.7319 128.691C89.7113 128.326 89.8367 127.967 90.0807 127.693C90.3247 127.42 90.6672 127.255 91.0329 127.235C91.3986 127.214 91.7576 127.339 92.0307 127.583C96.6207 131.313 101.181 135.103 105.621 139.093C107.841 141.093 110.031 143.093 112.151 145.273C114.372 147.439 116.415 149.78 118.261 152.273C118.762 152.983 119.216 153.725 119.621 154.493C120.133 155.457 120.471 156.503 120.621 157.583V158.113C120.621 158.293 120.621 158.523 120.621 158.733C120.607 158.948 120.58 159.162 120.541 159.373C120.481 159.613 120.411 159.843 120.331 160.083C120.15 160.574 119.893 161.033 119.571 161.443C119.256 161.826 118.889 162.163 118.481 162.443C117.356 163.165 116.056 163.566 114.721 163.603C112.956 163.674 111.189 163.526 109.461 163.163C107.861 162.863 106.341 162.493 104.841 162.083C98.9837 160.381 93.2391 158.314 87.6407 155.893C86.5912 155.418 85.769 154.55 85.3495 153.477C84.9299 152.404 84.9461 151.209 85.3948 150.147C85.8434 149.086 86.6888 148.242 87.751 147.794C88.8131 147.347 90.0079 147.333 91.0807 147.753C91.1935 147.801 91.3037 147.854 91.4107 147.913L91.5207 147.953Z" fill="#ED500A"/>
<path d="M93.771 186.805C97.1123 186.805 99.8209 184.096 99.8209 180.755C99.8209 177.414 97.1123 174.705 93.771 174.705C90.4297 174.705 87.7209 177.414 87.7209 180.755C87.7209 184.096 90.4297 186.805 93.771 186.805Z" fill="#D33B3B"/>
<path d="M64.6111 149.895C66.2111 155.205 67.9612 160.525 69.8112 165.745C71.6047 170.931 73.6572 176.024 75.9611 181.005C76.5411 182.215 77.1411 183.385 77.7711 184.485C78.3224 185.49 78.9722 186.438 79.7111 187.315C80.0211 187.665 80.2611 187.845 80.2911 187.775C80.3211 187.705 80.2111 187.585 80.1611 187.525C80.1111 187.465 80.1611 187.385 80.4111 187.245C80.6611 187.105 80.9211 186.895 81.2611 186.605C82.9223 185.081 84.3809 183.35 85.6011 181.455C86.3011 180.455 86.9711 179.355 87.6011 178.245C87.9211 177.695 88.2311 177.135 88.5311 176.585C88.8311 176.035 89.1611 175.415 89.3511 174.975L100.551 181.975C100.001 182.715 99.5511 183.245 99.0411 183.865C98.5311 184.485 98.0411 185.035 97.5311 185.605C96.5311 186.755 95.4511 187.865 94.3311 188.965C93.1863 190.089 91.9847 191.153 90.7311 192.155C89.3498 193.265 87.8627 194.236 86.2911 195.055C85.3547 195.531 84.3731 195.913 83.3611 196.195C82.0951 196.539 80.7757 196.644 79.4711 196.505C78.019 196.317 76.6407 195.755 75.4711 194.875C74.5564 194.169 73.7569 193.326 73.1011 192.375C72.1739 191 71.3803 189.54 70.7311 188.015C70.1211 186.615 69.5911 185.225 69.1011 183.845C67.2592 178.43 65.6906 172.926 64.4011 167.355C63.0911 161.845 61.9111 156.355 60.8611 150.795L64.6111 149.895Z" fill="#DE3E00"/>
<path d="M90.2206 172.265C90.3119 172.112 90.4328 171.978 90.5763 171.873C90.7198 171.767 90.883 171.691 91.0562 171.649C91.2294 171.607 91.4092 171.6 91.5851 171.629C91.761 171.657 91.9294 171.72 92.0806 171.815L109.281 181.565C109.452 181.646 109.604 181.765 109.724 181.913C109.844 182.06 109.93 182.233 109.975 182.418C110.02 182.603 110.023 182.795 109.984 182.981C109.945 183.168 109.866 183.343 109.751 183.495C106.031 187.765 99.3207 188.605 93.8007 185.495L86.3406 181.345L90.2206 172.265Z" fill="#DE3E00"/>
<path d="M66.86 234.524C70.2013 234.524 72.91 231.815 72.91 228.474C72.91 225.133 70.2013 222.424 66.86 222.424C63.5187 222.424 60.8101 225.133 60.8101 228.474C60.8101 231.815 63.5187 234.524 66.86 234.524Z" fill="#D33B3B"/>
<path d="M53.8799 150.934L74.2799 233.004L61.3099 235.474L50.0898 151.654L53.8799 150.934Z" fill="#DE3E00"/>
<path d="M74.7498 234.653C74.746 234.83 74.7067 235.004 74.6343 235.166C74.5618 235.327 74.4577 235.472 74.328 235.593C74.1984 235.713 74.0459 235.806 73.8795 235.866C73.7132 235.926 73.5364 235.953 73.3598 235.943L54.2798 236.053C54.0901 236.067 53.8998 236.038 53.7228 235.969C53.5458 235.9 53.3865 235.791 53.257 235.652C53.1274 235.513 53.0308 235.346 52.9741 235.165C52.9175 234.983 52.9024 234.791 52.9298 234.603C54.0798 229.053 59.5097 225.033 65.8397 225.033L72.2097 225.253L74.7498 234.653Z" fill="#DE3E00"/>
<path d="M147.51 29.4537C151.98 29.8037 149.51 36.3537 144.51 43.3837C137.93 52.5037 125.42 60.9637 113.87 61.8937C94.4305 63.4637 83.6305 50.8037 81.0105 35.0937C78.1205 17.7137 91.3105 2.64373 107.151 0.31373C113.083 -0.539654 119.135 0.356939 124.566 2.89354C129.996 5.43014 134.568 9.49645 137.72 14.5937C142.17 21.8037 144.17 29.1837 147.51 29.4537Z" fill="#E25029"/>
<path d="M95.9606 64.5939C96.65 63.3779 97.0932 62.038 97.2648 60.6507C97.4364 59.2633 97.3331 57.8558 96.9607 56.5084C96.5883 55.1611 95.9542 53.9002 95.0946 52.7979C94.235 51.6956 93.1666 50.7734 91.9506 50.0839C90.7345 49.3945 89.3946 48.9513 88.0073 48.7797C86.62 48.6081 85.2125 48.7115 83.8651 49.0838C82.5177 49.4562 81.2569 50.0903 80.1545 50.9499C79.0522 51.8096 78.1301 52.8779 77.4407 54.0939" fill="#C1210C"/>
<path d="M56.0205 156.894C86.9595 156.894 112.041 131.813 112.041 100.874C112.041 69.9345 86.9595 44.8535 56.0205 44.8535C25.0815 44.8535 0.000488281 69.9345 0.000488281 100.874C0.000488281 131.813 25.0815 156.894 56.0205 156.894Z" fill="#FFB64D"/>
<mask id="mask0_5963_3864" style="mask-type:luminance" maskUnits="userSpaceOnUse" x="0" y="44" width="113" height="113">
<path d="M56.02 156.897C86.959 156.897 112.04 131.816 112.04 100.877C112.04 69.9384 86.959 44.8574 56.02 44.8574C25.081 44.8574 0 69.9384 0 100.877C0 131.816 25.081 156.897 56.02 156.897Z" fill="white"/>
</mask>
<g mask="url(#mask0_5963_3864)">
<path d="M111.7 107.274C103.08 96.7937 90.6103 88.6437 75.9603 84.2737L64.9603 66.6737L67.7703 82.3037C63.4108 81.486 58.994 81.0113 54.5604 80.8837C48.3755 80.6891 42.1869 81.1247 36.0903 82.1837L37.5903 70.4937L29.7903 83.0237C6.43028 88.8737 -14.4297 108.024 -18.3197 132.024C-23.5263 143.951 -27.5003 156.379 -30.1797 169.114L-24.6997 24.2637L140.94 29.2637L138.65 105.384L126.19 123.504C121.976 117.574 117.116 112.131 111.7 107.274Z" fill="#E25029"/>
</g>
<path d="M89.01 113.503L89.99 109.563L80.4 108.023L79.78 110.523L89.01 113.503Z" fill="#B2401D"/>
<path d="M83.1501 120.304L86.0201 118.104L79.3102 111.064L78.0901 112.124L83.1501 120.304Z" fill="#B2401D"/>
<path d="M64.7201 122.194C75.4234 122.194 84.1001 113.517 84.1001 102.814C84.1001 92.1103 75.4234 83.4336 64.7201 83.4336C54.0168 83.4336 45.3401 92.1103 45.3401 102.814C45.3401 113.517 54.0168 122.194 64.7201 122.194Z" fill="#FFFEE9"/>
<mask id="mask1_5963_3864" style="mask-type:luminance" maskUnits="userSpaceOnUse" x="45" y="83" width="40" height="40">
<path d="M64.722 122.194C75.4253 122.194 84.1021 113.517 84.1021 102.814C84.1021 92.1103 75.4253 83.4336 64.722 83.4336C54.0188 83.4336 45.342 92.1103 45.342 102.814C45.342 113.517 54.0188 122.194 64.722 122.194Z" fill="white"/>
</mask>
<g mask="url(#mask1_5963_3864)">
<path d="M57.3123 108.636C63.1223 108.636 67.8322 103.926 67.8322 98.1157C67.8322 92.3057 63.1223 87.5957 57.3123 87.5957C51.5022 87.5957 46.7922 92.3057 46.7922 98.1157C46.7922 103.926 51.5022 108.636 57.3123 108.636Z" fill="#5B1414"/>
<path d="M38.5921 94.8764C38.5921 94.8764 46.7921 89.3764 62.2821 87.8764C77.7721 86.3764 86.072 89.3464 86.072 89.3464L83.3121 65.8164L35.8821 71.3464L38.5921 94.8764Z" fill="#F7751E"/>
</g>
<path d="M12.5793 126.037L10.0793 123.317L17.1693 117.797L18.7593 119.517L12.5793 126.037Z" fill="#B2401D"/>
<path d="M20.1893 129.606L16.5593 128.946L19.2094 120.336L20.8093 120.716L20.1893 129.606Z" fill="#B2401D"/>
<path d="M27.449 124.876C37.357 124.876 45.389 116.844 45.389 106.936C45.389 97.0281 37.357 88.9961 27.449 88.9961C17.541 88.9961 9.50903 97.0281 9.50903 106.936C9.50903 116.844 17.541 124.876 27.449 124.876Z" fill="#FFFEE9"/>
<mask id="mask2_5963_3864" style="mask-type:luminance" maskUnits="userSpaceOnUse" x="9" y="89" width="37" height="36">
<path d="M27.4471 124.88C37.3551 124.88 45.3871 116.848 45.3871 106.94C45.3871 97.032 37.3551 89 27.4471 89C17.5391 89 9.50708 97.032 9.50708 106.94C9.50708 116.848 17.5391 124.88 27.4471 124.88Z" fill="white"/>
</mask>
<g mask="url(#mask2_5963_3864)">
<path d="M22.5873 112.338C28.4802 112.338 33.2573 107.561 33.2573 101.668C33.2573 95.7752 28.4802 90.998 22.5873 90.998C16.6944 90.998 11.9172 95.7752 11.9172 101.668C11.9172 107.561 16.6944 112.338 22.5873 112.338Z" fill="#5B1414"/>
<path d="M49.4274 95.9684C49.4274 95.9684 39.7874 90.7884 24.9774 92.0284C10.1674 93.2684 3.97736 97.8784 3.97736 97.8784L3.07739 76.5584L48.5474 74.6484L49.4274 95.9684Z" fill="#F7751E"/>
</g>
<path d="M34.8813 131.794L60.9713 123.214C61.1462 123.159 61.3319 123.146 61.5129 123.176C61.6939 123.206 61.865 123.279 62.0124 123.388C62.1598 123.498 62.2792 123.641 62.3607 123.805C62.4422 123.969 62.4835 124.151 62.4813 124.334C62.4013 127.714 61.4813 135.504 55.2113 139.054L55.1013 139.114C46.1013 143.234 37.6413 136.704 34.4513 133.734C34.3065 133.596 34.1997 133.424 34.1413 133.232C34.083 133.041 34.075 132.838 34.1183 132.643C34.1616 132.448 34.2546 132.267 34.3883 132.118C34.5219 131.97 34.6918 131.858 34.8813 131.794Z" fill="#AD2B15"/>
<path d="M62.1412 128.074C59.0242 128.73 56.1472 130.229 53.8246 132.409C51.502 134.589 49.823 137.365 48.9712 140.434C51.0969 140.456 53.2009 140.005 55.1312 139.114L55.2412 139.054C59.7612 136.514 61.4912 131.794 62.1412 128.074Z" fill="#D83C30"/>
<path d="M82.8805 149.44C82.562 149.521 82.2284 149.522 81.9092 149.444C81.59 149.365 81.2951 149.209 81.0505 148.99C80.3505 148.44 80.4004 146.58 78.9504 146.53C78.4484 146.472 77.957 146.344 77.4905 146.15C76.2065 145.743 75.0584 144.993 74.1705 143.98C73.744 143.483 73.4331 142.898 73.2601 142.267C73.0872 141.636 73.0566 140.974 73.1705 140.33C73.2184 140.125 73.2923 139.926 73.3905 139.74C73.618 139.407 73.9143 139.127 74.2593 138.918C74.6043 138.709 74.99 138.577 75.3905 138.53C76.1124 138.519 76.8282 138.662 77.4905 138.95C78.3361 139.291 79.1225 139.763 79.8204 140.35C81.2204 141.44 81.9304 142.72 82.8204 142.82" fill="#ED500A"/>
<path d="M82.8806 149.441C82.6047 149.504 82.3234 149.541 82.0406 149.551C81.7457 149.531 81.4603 149.439 81.2105 149.281C80.9385 149.138 80.7105 148.923 80.5506 148.661C80.4039 148.418 80.2703 148.168 80.1506 147.911C79.9106 147.431 79.6205 147.001 79.2305 146.911C79.1206 146.904 79.0105 146.904 78.9006 146.911C78.7427 146.909 78.5853 146.892 78.4306 146.861C78.1427 146.806 77.8586 146.733 77.5805 146.641C76.4506 146.325 75.3962 145.784 74.4805 145.051C73.5292 144.254 72.8856 143.151 72.6606 141.931C72.546 141.304 72.5872 140.658 72.7806 140.051C72.8707 139.71 73.0384 139.395 73.2706 139.131C73.4882 138.884 73.745 138.674 74.0306 138.511C74.3114 138.345 74.6145 138.22 74.9306 138.141C75.2612 138.081 75.6 138.081 75.9306 138.141C76.5271 138.214 77.1079 138.383 77.6506 138.641C78.1801 138.875 78.6858 139.159 79.1606 139.491C79.6189 139.834 80.0532 140.208 80.4605 140.611C80.8505 141.011 81.2106 141.451 81.5606 141.871C81.8783 142.316 82.3149 142.662 82.8205 142.871C82.2595 142.758 81.7484 142.471 81.3605 142.051C80.9405 141.681 80.5405 141.301 80.1105 140.971C79.2753 140.295 78.3366 139.758 77.3305 139.381C76.8653 139.197 76.3777 139.076 75.8806 139.021C75.6554 139.003 75.4289 139.023 75.2105 139.081C74.9931 139.152 74.7849 139.25 74.5905 139.371C74.4011 139.493 74.2294 139.641 74.0805 139.811C73.9497 139.967 73.8573 140.152 73.8106 140.351C73.6851 140.807 73.6645 141.286 73.7506 141.751C74.0506 143.751 75.8906 145.141 77.9006 145.851C78.1361 145.958 78.3803 146.045 78.6306 146.111C78.7485 146.144 78.8689 146.167 78.9905 146.181C79.1579 146.197 79.3225 146.234 79.4805 146.291C79.7743 146.425 80.0334 146.624 80.238 146.874C80.4426 147.123 80.5871 147.416 80.6606 147.731C80.8606 148.271 80.9506 148.731 81.4106 149.071C81.8358 149.376 82.3613 149.509 82.8806 149.441Z" fill="#B52600"/>
<path d="M83.4722 142.773C84.3022 142.493 86.0523 143.633 86.9123 143.773C87.1875 143.826 87.4558 143.909 87.7122 144.023C88.4886 144.369 89.1759 144.887 89.7218 145.539C90.2676 146.19 90.6576 146.958 90.8623 147.783C91.3823 149.783 90.8023 151.963 90.7323 154.063C90.7323 155.143 89.5923 156.203 88.7323 156.823C87.5764 157.539 86.2305 157.887 84.8723 157.823C83.9723 157.713 83.4622 157.263 82.5722 157.103C81.7697 157.115 80.9686 157.172 80.1723 157.273C79.0423 157.273 76.8623 144.403 82.3523 143.053" fill="#ED500A"/>
<path d="M90.8813 147.782C90.5981 147.009 90.164 146.3 89.6044 145.695C89.0447 145.091 88.3707 144.604 87.6213 144.262C86.8494 143.858 86.0428 143.523 85.2113 143.262C84.3834 142.976 83.5022 142.877 82.6313 142.972C83.4966 142.666 84.4339 142.628 85.3213 142.862C86.2106 143.061 87.0686 143.381 87.8713 143.812C88.6668 144.167 89.3599 144.717 89.8861 145.411C90.4123 146.105 90.7547 146.921 90.8813 147.782Z" fill="#C43706"/>
<path d="M82.1719 157.023C82.9019 157.113 83.6318 157.273 84.3518 157.433L84.8918 157.563C85.0526 157.601 85.2167 157.625 85.3818 157.633C85.7164 157.654 86.0522 157.634 86.3818 157.573C87.8075 157.386 89.1323 156.736 90.1519 155.723C89.7873 156.387 89.2522 156.943 88.6018 157.333C87.9477 157.731 87.2197 157.993 86.4618 158.103C86.0767 158.153 85.6869 158.153 85.3019 158.103C85.0974 158.083 84.8959 158.04 84.7018 157.973L84.1919 157.793C83.5419 157.603 82.8819 157.353 82.1719 157.023Z" fill="#C43706"/>
<path d="M84.9427 143.422C84.9427 143.422 75.3427 135.422 72.1827 140.672C69.0227 145.922 74.0126 148.732 78.8426 148.872" fill="#ED500A"/>
<path d="M84.9428 143.422C83.0283 142.115 80.9841 141.009 78.8427 140.122C77.8178 139.689 76.7241 139.442 75.6127 139.392C75.1083 139.354 74.6022 139.436 74.136 139.633C73.6699 139.829 73.2574 140.134 72.9328 140.522C72.2815 141.371 71.858 142.373 71.7027 143.432C71.6558 143.949 71.7209 144.471 71.8935 144.961C72.066 145.451 72.342 145.898 72.7027 146.272C73.4832 147.07 74.4383 147.676 75.4927 148.042C76.5727 148.461 77.7018 148.74 78.8527 148.872C77.6694 148.941 76.4824 148.83 75.3327 148.542C74.1328 148.263 73.0243 147.681 72.1127 146.852C71.6333 146.408 71.259 145.862 71.0168 145.255C70.7746 144.648 70.6707 143.994 70.7127 143.342C70.7127 143.022 70.8127 142.712 70.8727 142.392L71.1828 141.502C71.4301 140.919 71.742 140.365 72.1127 139.852C72.5449 139.345 73.091 138.947 73.7062 138.692C74.3215 138.436 74.9886 138.33 75.6528 138.382C76.8791 138.488 78.074 138.827 79.1728 139.382C81.2986 140.413 83.2464 141.777 84.9428 143.422Z" fill="#B52600"/>
<path d="M82.5432 157.093C82.5432 157.093 75.5431 161.903 72.9831 156.673C70.4231 151.443 75.5632 150.203 78.1632 149.443" fill="#ED500A"/>
<path d="M82.5433 157.094C81.1151 158.313 79.3904 159.134 77.5433 159.474C76.5577 159.65 75.5421 159.531 74.6233 159.134C73.7181 158.656 72.9841 157.908 72.5233 156.994C72.0676 156.117 71.8082 155.151 71.7633 154.164C71.7597 153.648 71.8657 153.136 72.0743 152.664C72.2829 152.192 72.5892 151.769 72.9732 151.424C74.4645 150.274 76.2565 149.579 78.1333 149.424C76.4733 150.114 74.6933 150.764 73.5633 151.984C73.2926 152.27 73.0828 152.608 72.947 152.978C72.8112 153.347 72.7521 153.741 72.7733 154.134C72.8438 154.96 73.0819 155.763 73.4732 156.494C73.8237 157.21 74.3766 157.808 75.0633 158.214C75.8078 158.566 76.6341 158.707 77.4532 158.624C79.2309 158.438 80.9577 157.919 82.5433 157.094Z" fill="#B52600"/>
<path d="M79.9626 145.133C79.9626 145.133 70.6627 142.133 70.1827 148.343C69.7027 154.553 78.9127 151.643 78.9127 151.643" fill="#ED500A"/>
<path d="M79.9629 145.133C78.0939 144.756 76.1772 144.675 74.283 144.893C73.4035 145.001 72.5701 145.346 71.8729 145.893C71.5533 146.165 71.2912 146.497 71.1023 146.872C70.9134 147.246 70.8014 147.655 70.773 148.073C70.5853 148.903 70.7136 149.773 71.133 150.513C71.6439 151.195 72.401 151.651 73.2429 151.783C75.1271 152.067 77.0465 152.016 78.913 151.633C77.0907 152.448 75.0928 152.792 73.1029 152.633C72.5562 152.584 72.0256 152.423 71.5438 152.159C71.0621 151.896 70.6398 151.537 70.303 151.103C69.7068 150.169 69.4953 149.04 69.7129 147.953C69.8322 146.851 70.3822 145.841 71.2429 145.143C72.1022 144.526 73.1256 144.178 74.183 144.143C76.1596 144.034 78.1354 144.372 79.9629 145.133Z" fill="#B52600"/>
<path d="M63.8816 147.173C63.8816 147.173 65.1116 138.173 69.5416 136.913C73.9716 135.653 77.1216 138.493 77.1216 141.333C77.1216 144.173 69.5416 146.393 69.5416 146.393L63.8816 147.173Z" fill="#ED500A"/>
<path d="M63.8816 147.174C64.0688 144.477 64.8217 141.85 66.0916 139.464C66.7317 138.186 67.7905 137.166 69.0916 136.574C70.4364 136.066 71.9015 135.969 73.3016 136.294C74.7425 136.63 75.9991 137.507 76.8116 138.744C77.2204 139.369 77.4773 140.081 77.5616 140.824C77.5719 141.013 77.5719 141.204 77.5616 141.394C77.5356 141.605 77.4987 141.816 77.4515 142.024C77.3715 142.214 77.2817 142.394 77.1917 142.574C77.0862 142.735 76.9692 142.889 76.8416 143.034C76.3668 143.571 75.81 144.03 75.1917 144.394C74.6085 144.753 74.0002 145.071 73.3716 145.344C72.131 145.876 70.8546 146.32 69.5516 146.674C67.5916 146.894 65.6516 147.024 63.8816 147.174ZM63.8816 147.174C65.8816 146.824 67.7016 146.414 69.5016 146.104C70.7409 145.675 71.9503 145.164 73.1216 144.574C74.2713 144.049 75.31 143.309 76.1816 142.394C76.2616 142.284 76.3616 142.174 76.4316 142.054C76.4789 141.934 76.5322 141.817 76.5916 141.704C76.5916 141.584 76.5916 141.474 76.5916 141.354C76.5916 141.234 76.5916 141.074 76.5916 140.934C76.5162 140.349 76.3038 139.791 75.9716 139.304C75.2925 138.303 74.2662 137.59 73.0916 137.304C71.887 137.017 70.6262 137.072 69.4515 137.464C68.3083 137.95 67.3489 138.787 66.7115 139.854C65.3688 142.12 64.4125 144.594 63.8816 147.174Z" fill="#B52600"/>
<path d="M68.8811 143.765C68.0111 143.665 66.5611 145.165 65.7411 145.495C65.4846 145.596 65.2426 145.73 65.0211 145.895C64.3382 146.403 63.7792 147.059 63.3861 147.814C62.993 148.569 62.7759 149.404 62.7511 150.255C62.6811 152.365 63.7511 154.325 64.2411 156.355C64.5111 157.355 65.811 158.205 66.821 158.615C68.1096 159.066 69.5058 159.112 70.821 158.745C71.671 158.445 72.0811 157.895 72.9111 157.545C73.6946 157.387 74.4856 157.271 75.2811 157.195C76.4011 156.955 75.731 143.915 70.091 143.785" fill="#ED500A"/>
<path d="M62.7911 150.254C62.7253 149.375 62.8844 148.495 63.2536 147.695C63.6228 146.896 64.1899 146.203 64.9011 145.684C65.5904 145.084 66.3615 144.586 67.1911 144.204C68.0039 143.774 68.9293 143.607 69.841 143.724C68.9682 143.815 68.1273 144.102 67.3811 144.564C66.6307 145.003 65.9211 145.508 65.2611 146.074C64.5913 146.57 64.0278 147.196 63.6036 147.914C63.1794 148.632 62.9032 149.427 62.7911 150.254Z" fill="#C43706"/>
<path d="M73.2809 157.414C72.6809 157.864 72.0709 158.254 71.4409 158.644C71.2909 158.744 71.1408 158.844 70.9808 158.934C70.8035 159.033 70.6198 159.12 70.4309 159.194C70.0602 159.307 69.6777 159.378 69.2909 159.404C68.5256 159.464 67.7562 159.365 67.0309 159.114C66.3091 158.878 65.6634 158.453 65.1609 157.884C66.3773 158.658 67.8147 159.009 69.2509 158.884C69.5887 158.865 69.9238 158.811 70.2509 158.724C70.4081 158.674 70.5617 158.614 70.7108 158.544C70.8708 158.454 71.0408 158.384 71.2108 158.304C71.8849 157.972 72.5759 157.675 73.2809 157.414Z" fill="#C43706"/>
<path d="M67.6316 144.721C67.6316 144.721 75.2716 134.821 79.5016 139.271C83.7316 143.721 79.5016 147.541 74.7616 148.721" fill="#ED500A"/>
<path d="M67.6316 144.722C68.9248 142.735 70.5324 140.972 72.3916 139.502C73.348 138.729 74.4448 138.148 75.6216 137.792C76.2574 137.596 76.9306 137.554 77.5859 137.669C78.2413 137.783 78.86 138.052 79.3916 138.452C79.8645 138.875 80.2903 139.347 80.6616 139.862L81.1616 140.672C81.2816 140.962 81.4116 141.262 81.5216 141.562C81.702 142.19 81.7409 142.85 81.6354 143.495C81.5299 144.14 81.2827 144.754 80.9116 145.292C80.2006 146.297 79.2433 147.103 78.1316 147.632C77.0709 148.166 75.9343 148.534 74.7616 148.722C75.8595 148.343 76.9046 147.825 77.8716 147.182C78.8207 146.596 79.6214 145.798 80.2115 144.852C80.4827 144.406 80.6536 143.907 80.7123 143.389C80.771 142.871 80.7162 142.346 80.5516 141.852C80.1755 140.853 79.5486 139.968 78.7316 139.282C78.3318 138.972 77.8635 138.762 77.366 138.669C76.8684 138.577 76.356 138.605 75.8716 138.752C74.7986 139.047 73.784 139.524 72.8716 140.162C70.9738 141.499 69.218 143.027 67.6316 144.722Z" fill="#B52600"/>
<path d="M72.9304 157.543C72.9304 157.543 80.8304 160.723 82.1704 155.063C83.5104 149.403 78.2604 149.313 75.5504 149.123" fill="#ED500A"/>
<path d="M72.9304 157.543C74.6477 158.018 76.4396 158.16 78.2103 157.963C79.0253 157.871 79.7981 157.553 80.4404 157.043C81.0266 156.509 81.4407 155.813 81.6304 155.043C81.8542 154.243 81.9121 153.406 81.8004 152.583C81.7368 152.195 81.5938 151.824 81.3805 151.494C81.1671 151.163 80.888 150.88 80.5604 150.663C79.2004 149.663 77.3204 149.473 75.5604 149.143C77.3504 149.073 79.2704 148.973 81.0304 149.963C81.4791 150.219 81.8688 150.567 82.1738 150.984C82.4788 151.401 82.6924 151.878 82.8004 152.383C82.9686 153.354 82.9243 154.35 82.6704 155.303C82.4153 156.291 81.8639 157.177 81.0903 157.843C80.2855 158.449 79.3167 158.797 78.3104 158.843C76.4337 158.893 74.5772 158.445 72.9304 157.543Z" fill="#B52600"/>
<path d="M72.8816 145.315C72.8816 145.315 81.3216 140.385 83.1216 146.315C84.9216 152.245 75.3215 151.425 75.3215 151.425" fill="#ED500A"/>
<path d="M72.8816 145.314C74.4886 144.147 76.3435 143.367 78.3016 143.034C79.3496 142.843 80.4309 142.976 81.4016 143.414C82.3908 143.913 83.1422 144.783 83.4916 145.834C83.9388 146.847 83.9782 147.993 83.6016 149.034C83.3658 149.529 83.0312 149.969 82.6184 150.328C82.2056 150.688 81.7233 150.959 81.2015 151.124C79.3002 151.727 77.277 151.837 75.3215 151.444C77.2241 151.415 79.1065 151.05 80.8816 150.364C81.6763 150.052 82.3182 149.442 82.6716 148.664C82.9238 147.852 82.8631 146.975 82.5016 146.204C82.3795 145.802 82.1788 145.428 81.911 145.103C81.6432 144.779 81.3138 144.511 80.9417 144.314C80.1482 143.924 79.2612 143.765 78.3816 143.854C76.4824 144.046 74.6259 144.539 72.8816 145.314Z" fill="#B52600"/>
<path d="M69.5306 151.023C69.1748 150.566 68.7324 150.184 68.2287 149.898C67.725 149.612 67.1699 149.427 66.5951 149.356C66.0202 149.284 65.437 149.327 64.8786 149.481C64.3202 149.635 63.7975 149.897 63.3405 150.253L63.2706 150.303L62.2706 151.113L61.1906 151.933L58.9906 153.553C57.5106 154.62 56.0173 155.67 54.5106 156.703C51.5106 158.703 48.4106 160.703 45.2806 162.543C42.1877 164.375 38.9849 166.015 35.6906 167.453C34.0907 168.155 32.4513 168.763 30.7806 169.273C29.1976 169.766 27.5696 170.101 25.9206 170.273C24.5028 170.451 23.0632 170.304 21.7106 169.843C21.1608 169.613 20.6537 169.292 20.2106 168.893C20.1006 168.793 20.0106 168.673 19.9106 168.563L19.7506 168.393C19.7006 168.333 19.6706 168.263 19.6206 168.193L19.3506 167.803L19.1206 167.343C18.4906 165.925 18.1506 164.395 18.1206 162.843C18.0507 161.11 18.1243 159.374 18.3406 157.653C18.5606 155.933 18.8706 154.213 19.2506 152.493C18.7606 152.493 18.2506 152.563 17.7506 152.563C16.9061 152.565 16.0631 152.495 15.2306 152.353C14.8006 153.873 14.4206 155.413 14.1106 156.993C13.7369 158.956 13.5229 160.946 13.4706 162.943C13.3862 165.132 13.7433 167.315 14.5206 169.363C14.6406 169.633 14.7506 169.903 14.8806 170.183L15.3306 170.973C15.4106 171.113 15.4806 171.243 15.5706 171.373L15.8506 171.753C16.0506 171.993 16.2306 172.253 16.4406 172.483C17.297 173.416 18.3129 174.188 19.4406 174.763C19.9948 175.022 20.5662 175.243 21.1506 175.423C21.4406 175.503 21.7306 175.603 22.0106 175.663L22.8706 175.833C23.1484 175.885 23.4289 175.921 23.7106 175.943C23.9906 175.943 24.2806 176.013 24.5506 176.023C25.0906 176.023 25.6606 176.083 26.1906 176.023C28.2635 175.956 30.3242 175.678 32.3406 175.193C34.2743 174.742 36.1806 174.181 38.0506 173.513C41.695 172.2 45.2579 170.67 48.7205 168.933C52.1605 167.233 55.5106 165.403 58.8006 163.473C60.4506 162.473 62.0805 161.523 63.7005 160.473L66.1106 158.933L67.3205 158.143L68.5406 157.313L68.7906 157.143C69.6867 156.42 70.2653 155.377 70.4035 154.234C70.5417 153.091 70.2286 151.939 69.5306 151.023Z" fill="#ED500A"/>
</svg>
