<svg width="160" height="48" viewBox="0 0 160 48" fill="none" xmlns="http://www.w3.org/2000/svg">
<path d="M0 10.167C0 6.85328 2.68629 4.16699 6 4.16699H154C157.314 4.16699 160 6.85328 160 10.167V19.167C160 32.4218 149.255 43.167 136 43.167H6C2.6863 43.167 0 40.4807 0 37.167V10.167Z" fill="white"/>
<path d="M19.7577 16.3183H30.1567C31.1261 16.3183 31.9143 17.1065 31.9143 18.0759V23.3586C31.9143 27.9511 28.1885 31.6769 23.5961 31.6769H19.7577C18.7883 31.6769 18 30.8886 18 29.9192V18.0808C18 17.1065 18.7883 16.3183 19.7577 16.3183Z" fill="#FFDC00"/>
<path d="M75.9144 32C80.3326 32 83.9144 28.4183 83.9144 24C83.9144 19.5817 80.3326 16 75.9144 16C71.4961 16 67.9143 19.5817 67.9143 24C67.9143 28.4183 71.4961 32 75.9144 32Z" fill="#FFDC00"/>
<path d="M41.8384 32C46.2567 32 49.8385 28.4183 49.8385 24C49.8385 19.5817 46.2567 16 41.8384 16C37.4202 16 33.8384 19.5817 33.8384 24C33.8384 28.4183 37.4202 32 41.8384 32Z" fill="#FFDC00"/>
<path d="M53.8385 16.3183H64.2375C65.2069 16.3183 65.9952 17.1065 65.9952 18.0759V23.3586C65.9952 27.9511 62.2693 31.6769 57.6769 31.6769H53.8385C52.8691 31.6769 52.0808 30.8886 52.0808 29.9192V18.0808C52.0808 17.1114 52.8691 16.3231 53.8385 16.3231V16.3183Z" fill="#FFDC00"/>
<path d="M101.126 22.0712C100.626 18.9967 97.7282 16.9062 94.6537 17.4056C91.5791 17.9049 89.4887 20.8032 89.988 23.8777C90.4874 26.9523 93.3857 29.0427 96.4602 28.5434C99.5347 28.044 101.625 25.1457 101.126 22.0712ZM97.6939 23.8582C97.2044 25.038 95.8531 25.5961 94.6733 25.1115C93.4934 24.6219 92.9353 23.2707 93.4199 22.0908C93.9095 20.9109 95.2607 20.3528 96.4406 20.8375C97.6205 21.3271 98.1786 22.6783 97.6939 23.8582Z" fill="#260F00"/>
<path d="M109.145 18.5952V24.7541H107.226C106.31 24.7541 105.566 24.0099 105.566 23.0944V18.5855C105.566 18.1693 105.228 17.8364 104.817 17.8364H102.981C102.57 17.8364 102.232 18.1742 102.232 18.5904V23.5742C102.232 26.0661 104.254 28.0881 106.746 28.0881H109.145V29.9191C109.145 30.3352 109.483 30.6681 109.894 30.6681H111.892C112.308 30.6681 112.641 30.3303 112.641 29.9191V18.5952C112.641 18.1791 112.303 17.8462 111.892 17.8462H109.894C109.478 17.8462 109.145 18.184 109.145 18.5952Z" fill="#260F00"/>
<path d="M128.851 22.0712C128.351 18.9967 125.453 16.9062 122.378 17.4056C119.304 17.905 117.213 20.8032 117.713 23.8778C118.212 26.9523 121.11 29.0428 124.185 28.5434C127.259 28.044 129.35 25.1458 128.851 22.0712ZM125.419 23.8582C124.929 25.038 123.578 25.5962 122.398 25.1115C121.218 24.6219 120.66 23.2707 121.145 22.0908C121.634 20.9109 122.985 20.3528 124.165 20.8375C125.345 21.3271 125.903 22.6783 125.419 23.8582Z" fill="#260F00"/>
<path d="M136.87 18.5952V24.7541H134.951C134.035 24.7541 133.291 24.0099 133.291 23.0944V18.5855C133.291 18.1693 132.953 17.8364 132.542 17.8364H130.706C130.295 17.8364 129.957 18.1742 129.957 18.5904V23.5742C129.957 26.0661 131.979 28.0881 134.471 28.0881H136.87V29.9191C136.87 30.3352 137.207 30.6681 137.619 30.6681H139.616C140.032 30.6681 140.365 30.3303 140.365 29.9191V18.5952C140.365 18.1791 140.027 17.8462 139.616 17.8462H137.619C137.203 17.8462 136.87 18.184 136.87 18.5952Z" fill="#260F00"/>
</svg>
