<svg width="155" height="48" viewBox="0 0 155 48" fill="none" xmlns="http://www.w3.org/2000/svg">
<path d="M17.7577 16.3183H28.1567C29.1261 16.3183 29.9143 17.1065 29.9143 18.0759V23.3586C29.9143 27.9511 26.1885 31.6769 21.5961 31.6769H17.7577C16.7883 31.6769 16 30.8886 16 29.9192V18.0808C16 17.1065 16.7883 16.3183 17.7577 16.3183Z" fill="#FFDC00"/>
<path d="M73.9144 32C78.3326 32 81.9144 28.4183 81.9144 24C81.9144 19.5817 78.3326 16 73.9144 16C69.4961 16 65.9143 19.5817 65.9143 24C65.9143 28.4183 69.4961 32 73.9144 32Z" fill="#FFDC00"/>
<path d="M39.8384 32C44.2567 32 47.8385 28.4183 47.8385 24C47.8385 19.5817 44.2567 16 39.8384 16C35.4202 16 31.8384 19.5817 31.8384 24C31.8384 28.4183 35.4202 32 39.8384 32Z" fill="#FFDC00"/>
<path d="M51.8385 16.3183H62.2375C63.2069 16.3183 63.9952 17.1065 63.9952 18.0759V23.3586C63.9952 27.9511 60.2693 31.6769 55.6769 31.6769H51.8385C50.8691 31.6769 50.0808 30.8886 50.0808 29.9192V18.0808C50.0808 17.1114 50.8691 16.3231 51.8385 16.3231V16.3183Z" fill="#FFDC00"/>
<path d="M99.1258 22.0712C98.6265 18.9967 95.7282 16.9062 92.6537 17.4056C89.5791 17.9049 87.4887 20.8032 87.988 23.8777C88.4874 26.9523 91.3857 29.0427 94.4602 28.5434C97.5347 28.044 99.6252 25.1457 99.1258 22.0712ZM95.6939 23.8582C95.2044 25.038 93.8531 25.5961 92.6733 25.1115C91.4934 24.6219 90.9353 23.2707 91.4199 22.0908C91.9095 20.9109 93.2607 20.3528 94.4406 20.8375C95.6205 21.3271 96.1786 22.6783 95.6939 23.8582Z" fill="#260F00"/>
<path d="M107.145 18.5952V24.7541H105.226C104.31 24.7541 103.566 24.0099 103.566 23.0944V18.5855C103.566 18.1693 103.228 17.8364 102.817 17.8364H100.981C100.57 17.8364 100.232 18.1742 100.232 18.5904V23.5742C100.232 26.0661 102.254 28.0881 104.746 28.0881H107.145V29.9191C107.145 30.3352 107.483 30.6681 107.894 30.6681H109.892C110.308 30.6681 110.641 30.3303 110.641 29.9191V18.5952C110.641 18.1791 110.303 17.8462 109.892 17.8462H107.894C107.478 17.8462 107.145 18.184 107.145 18.5952Z" fill="#260F00"/>
<path d="M126.851 22.0712C126.351 18.9967 123.453 16.9062 120.378 17.4056C117.304 17.905 115.213 20.8032 115.713 23.8778C116.212 26.9523 119.11 29.0428 122.185 28.5434C125.259 28.044 127.35 25.1458 126.851 22.0712ZM123.419 23.8582C122.929 25.038 121.578 25.5962 120.398 25.1115C119.218 24.6219 118.66 23.2707 119.145 22.0908C119.634 20.9109 120.985 20.3528 122.165 20.8375C123.345 21.3271 123.903 22.6783 123.419 23.8582Z" fill="#260F00"/>
<path d="M134.87 18.5952V24.7541H132.951C132.035 24.7541 131.291 24.0099 131.291 23.0944V18.5855C131.291 18.1693 130.953 17.8364 130.542 17.8364H128.706C128.295 17.8364 127.957 18.1742 127.957 18.5904V23.5742C127.957 26.0661 129.979 28.0881 132.471 28.0881H134.87V29.9191C134.87 30.3352 135.207 30.6681 135.619 30.6681H137.616C138.032 30.6681 138.365 30.3303 138.365 29.9191V18.5952C138.365 18.1791 138.027 17.8462 137.616 17.8462H135.619C135.203 17.8462 134.87 18.184 134.87 18.5952Z" fill="#260F00"/>
</svg>
