<svg width="12" height="12" viewBox="0 0 12 12" fill="none" xmlns="http://www.w3.org/2000/svg">
<path fill-rule="evenodd" clip-rule="evenodd" d="M4.67195 0.388958C5.16927 0.270065 5.69269 0.217867 6.23061 0.238165L6.22771 0.241066C9.26383 0.357059 11.7084 2.85671 11.7635 5.89428C11.8229 9.16384 9.16089 11.8244 5.89278 11.765C2.8552 11.7099 0.357 9.26534 0.239557 6.22921C0.219258 5.68985 0.272907 5.16788 0.39035 4.67056C0.542591 4.02824 1.11241 3.57442 1.77212 3.57442H2.1578C2.94075 3.57442 3.57581 2.93936 3.57581 2.1564V1.77073C3.57581 1.11102 4.03109 0.541199 4.67195 0.388958ZM10.5386 5.32145C10.513 5.14837 10.3519 5.02885 10.1788 5.05449C10.0057 5.08013 9.88618 5.24122 9.91182 5.4143C10.0891 6.61124 9.71704 7.87268 8.7976 8.79346C7.83268 9.75826 6.49504 10.1196 5.24853 9.87783C5.07676 9.84451 4.91051 9.95675 4.87719 10.1285C4.84388 10.3003 4.95611 10.4665 5.12788 10.4999C6.57234 10.78 8.12575 10.3614 9.2458 9.24133L9.24596 9.24116C10.3129 8.17266 10.744 6.70826 10.5386 5.32145Z" fill="#AE84E3"/>
</svg>
