<svg width="12" height="12" viewBox="0 0 12 12" fill="none" xmlns="http://www.w3.org/2000/svg">
<path d="M1.82178 2.85376V9.55651C1.82178 9.93586 2.03643 10.2826 2.37601 10.4517L2.87797 10.7016C4.84457 11.681 7.15686 11.6802 9.12282 10.6996L9.62638 10.4484C9.96564 10.2792 10.18 9.93267 10.18 9.55356V2.85376H1.82178Z" fill="#FFDB66"/>
<path d="M0.37917 4.23609C-0.0532822 4.0124 -0.0532823 3.39392 0.37917 3.17023L4.60305 0.985399C5.46752 0.538246 6.49519 0.538246 7.35966 0.985399L11.5835 3.17023C12.016 3.39392 12.016 4.0124 11.5835 4.23609L7.35966 6.42092C6.49519 6.86808 5.46752 6.86808 4.60305 6.42092L0.37917 4.23609Z" fill="#FFDB66"/>
<path d="M10.9592 3.64795H11.9043V6.13606C11.9043 6.39703 11.6927 6.60859 11.4318 6.60859C11.1708 6.60859 10.9592 6.39703 10.9592 6.13606V3.64795Z" fill="#FFDB66"/>
</svg>
