<svg width="14" height="14" viewBox="0 0 14 14" fill="none" xmlns="http://www.w3.org/2000/svg">
<path d="M11.0135 3.71901C11.1616 3.57448 11.2537 3.3725 11.2537 3.14911C11.2537 2.7091 10.8972 2.35259 10.4572 2.35259C10.3937 2.35259 10.3319 2.36009 10.2727 2.37436C10.2741 2.35224 10.2748 2.32976 10.2748 2.30727C10.2748 1.67742 9.76417 1.16675 9.13433 1.16675C8.62617 1.16675 8.19581 1.49899 8.04843 1.95826C7.70978 1.88975 7.35899 1.85335 7 1.85335C4.10058 1.85335 1.75001 4.20399 1.75002 7.10383C1.75002 10.0033 4.10061 12.354 7.00003 12.354C9.89945 12.354 12.25 10.0033 12.25 7.10383C12.2504 5.81414 11.785 4.63329 11.0135 3.71901Z" fill="#FFDB66"/>
<path d="M3.93659 8.49477C3.54213 7.48086 3.54293 6.24974 4.16795 5.25805C4.82248 4.21772 5.99803 3.68242 7.13908 3.6445" stroke="white" stroke-width="1.16667" stroke-miterlimit="10" stroke-linecap="round"/>
</svg>
