<svg width="12" height="12" viewBox="0 0 12 12" fill="none" xmlns="http://www.w3.org/2000/svg">
<path d="M10.1797 9.55371C10.1796 9.93277 9.96519 10.279 9.62598 10.4482L9.12305 10.6992C7.15709 11.6798 4.84453 11.6805 2.87793 10.7012L2.37598 10.4512C2.03656 10.282 1.82134 9.93586 1.82129 9.55664V5.98145L4.60352 7.4209C5.46784 7.86783 6.49507 7.86788 7.35938 7.4209L10.1797 5.96191V9.55371Z" fill="#FFDB66"/>
<path d="M0.379271 4.2362C-0.0531815 4.01251 -0.0531815 3.39404 0.379271 3.17035L4.60315 0.985511C5.46762 0.538358 6.49529 0.538358 7.35976 0.985511L11.5836 3.17035C12.0161 3.39404 12.0161 4.01251 11.5836 4.2362L7.35976 6.42103C6.49529 6.86819 5.46762 6.86819 4.60315 6.42103L0.379271 4.2362Z" fill="#FFDB66"/>
<path d="M10.9593 3.64806H11.9043V6.13618C11.9043 6.39715 11.6928 6.6087 11.4318 6.6087C11.1708 6.6087 10.9593 6.39715 10.9593 6.13618V3.64806Z" fill="#FFDB66"/>
</svg>
