<svg width="12" height="12" viewBox="0 0 12 12" fill="none" xmlns="http://www.w3.org/2000/svg">
<path fill-rule="evenodd" clip-rule="evenodd" d="M11.5082 4.1848V7.81539C11.5082 8.56209 11.1022 9.2508 10.4468 9.61038L6.98587 11.5112C6.37255 11.8491 5.62875 11.8491 5.01399 11.5112L1.55304 9.61038C0.899127 9.2508 0.491699 8.56209 0.491699 7.81539V4.1848C0.491699 3.4381 0.897677 2.74938 1.55304 2.38981L5.01399 0.488968C5.6273 0.151138 6.3711 0.151138 6.98587 0.488968L10.4468 2.38981C11.1007 2.74938 11.5082 3.4381 11.5082 4.1848ZM10.4066 4.10383C10.5621 4.02353 10.623 3.83241 10.5427 3.67696C10.4624 3.52151 10.2713 3.46059 10.1158 3.5409L6.40258 5.45914L6.40244 5.45921C5.96086 5.68761 5.68311 6.14414 5.68311 6.641V10.492C5.68311 10.6669 5.82494 10.8088 5.99991 10.8088C6.17488 10.8088 6.31672 10.6669 6.31672 10.492V6.641C6.31672 6.38101 6.46235 6.14157 6.69353 6.022L10.4066 4.10383Z" fill="#33BBFF"/>
</svg>
