<svg width="12" height="12" viewBox="0 0 12 12" fill="none" xmlns="http://www.w3.org/2000/svg">
<path d="M10.2034 0.660889H9.94825C8.54763 0.660889 7.16441 0.924773 6.34521 1.60043C6.14512 1.76572 5.85514 1.76572 5.6565 1.60043C4.83729 0.924773 3.45408 0.660889 2.05346 0.660889H1.79827C1.11246 0.660889 0.558594 1.21621 0.558594 1.90057V9.01095C0.558594 9.71271 1.13276 10.2927 1.83452 10.2782C3.30908 10.2492 4.79525 10.5058 5.6565 11.2163C5.85514 11.3801 6.14367 11.3801 6.34376 11.2163C7.20501 10.5058 8.69117 10.2492 10.1657 10.2782C10.8675 10.2912 11.4417 9.71271 11.4417 9.01095V1.90057C11.4417 1.21621 10.8878 0.660889 10.2034 0.660889Z" fill="#FF9045"/>
</svg>
