<svg width="12" height="12" viewBox="0 0 12 12" fill="none" xmlns="http://www.w3.org/2000/svg">
<path fill-rule="evenodd" clip-rule="evenodd" d="M9.94825 0.660889H10.2034C10.8878 0.660889 11.4417 1.21621 11.4417 1.90057V9.01095C11.4417 9.7127 10.8675 10.2912 10.1657 10.2782C8.69117 10.2492 7.20501 10.5058 6.34376 11.2163C6.14367 11.3801 5.85514 11.3801 5.6565 11.2163C4.79525 10.5058 3.30908 10.2492 1.83452 10.2782C1.13276 10.2927 0.558594 9.7127 0.558594 9.01095V1.90057C0.558594 1.21621 1.11246 0.662339 1.79827 0.660889H2.05346C3.45408 0.660889 4.83729 0.924773 5.6565 1.60043C5.85514 1.76572 6.14512 1.76572 6.34521 1.60043C7.16441 0.924773 8.54763 0.660889 9.94825 0.660889ZM10.5653 2.1311C10.5653 1.95614 10.4234 1.8143 10.2485 1.8143C10.0735 1.8143 9.93164 1.95614 9.93164 2.1311V8.44403C9.93164 8.50022 9.88649 8.54826 9.82576 8.54917C9.08577 8.55686 7.63728 8.7008 5.91843 9.61263C5.76386 9.69463 5.70503 9.8864 5.78703 10.041C5.86902 10.1955 6.06079 10.2544 6.21536 10.1724C7.82521 9.31836 9.16904 9.1896 9.8327 9.18275L9.83338 9.18274C10.2365 9.1777 10.5653 8.85173 10.5653 8.44403V2.1311ZM9.82576 8.54917C9.82566 8.54917 9.82556 8.54917 9.82547 8.54917L9.82942 8.86596L9.82615 8.54917C9.82602 8.54917 9.82589 8.54917 9.82576 8.54917Z" fill="#FF9045"/>
</svg>
