<svg width="13" height="12" viewBox="0 0 13 12" fill="none" xmlns="http://www.w3.org/2000/svg">
<path fill-rule="evenodd" clip-rule="evenodd" d="M6.06139 11.3254C9.00261 11.3254 11.3869 8.94107 11.3869 5.99985C11.3869 5.67336 11.3576 5.35372 11.3013 5.04345C10.4143 5.97317 9.27533 6.96251 7.89304 7.76035L7.73467 7.48596L7.89304 7.76035C6.52728 8.54863 5.11895 9.03817 3.88095 9.34214C3.71103 9.38386 3.53946 9.27993 3.49774 9.11001C3.45602 8.94009 3.55994 8.76852 3.72986 8.7268C4.92482 8.43341 6.27422 7.96311 7.5763 7.21158C9.02385 6.37609 10.1992 5.31545 11.0879 4.34373C11.1281 4.29971 11.178 4.26966 11.2313 4.25385C11.5322 3.89232 11.7882 3.55556 11.9986 3.26239C12.3263 2.80421 11.9609 2.1735 11.4013 2.2286C11.0035 2.26783 10.5314 2.32892 10.0077 2.42372C9.03331 1.34918 7.62617 0.674316 6.06139 0.674316C3.12018 0.674316 0.73584 3.05864 0.73584 5.99985C0.73584 6.56834 0.824915 7.11602 0.989869 7.6297C0.645888 8.0358 0.356857 8.414 0.123806 8.73872C-0.203874 9.19689 0.161504 9.8276 0.721171 9.7725C1.1193 9.73323 1.59187 9.67207 2.11616 9.57713C3.09047 10.651 4.49718 11.3254 6.06139 11.3254Z" fill="#FF7A99"/>
</svg>
