<svg width="12" height="12" viewBox="0 0 12 12" fill="none" xmlns="http://www.w3.org/2000/svg">
<path fill-rule="evenodd" clip-rule="evenodd" d="M1.21453 1.72499C4.02156 -0.48613 7.97838 -0.48613 10.7854 1.72499C11.0899 1.96423 11.2668 2.33106 11.2668 2.71818V3.69278C11.2016 3.69194 11.1356 3.71114 11.0786 3.75199C9.9012 4.59498 7.89024 5.05333 6.00504 5.05333C4.86341 5.05333 3.66364 4.88464 2.63101 4.55774C2.46421 4.50493 2.28617 4.59734 2.23336 4.76415C2.18056 4.93096 2.27297 5.10899 2.43978 5.1618C3.54143 5.51056 4.80651 5.68695 6.00504 5.68695C7.87054 5.68695 9.92864 5.25871 11.2668 4.39026V7.51595C11.2668 7.90308 11.0899 8.26991 10.7854 8.50914L6.78221 11.6627C6.32403 12.0237 5.67737 12.0237 5.21775 11.6627L1.21453 8.50914C0.910045 8.26991 0.733154 7.90308 0.733154 7.51595V2.71818C0.733154 2.33106 0.910045 1.96423 1.21453 1.72499Z" fill="#55CC3D"/>
</svg>
