<svg width="13" height="12" viewBox="0 0 13 12" fill="none" xmlns="http://www.w3.org/2000/svg">
<path d="M11.4015 2.2281C11.0042 2.26725 10.5315 2.3296 10.0081 2.42384C8.361 0.602748 5.61197 0.109777 3.39795 1.38715C1.18393 2.66453 0.235665 5.29177 0.989621 7.62903C0.645991 8.03501 0.356012 8.41344 0.124026 8.73822C-0.203655 9.19494 0.160273 9.8271 0.72139 9.77201C1.11867 9.73286 1.59134 9.67051 2.11476 9.57627C3.76186 11.3974 6.51091 11.8903 8.72494 10.613C10.939 9.33558 11.8872 6.70834 11.1332 4.37108C11.4769 3.9651 11.7669 3.58667 11.9988 3.26189C12.3265 2.80517 11.9626 2.17301 11.4015 2.2281Z" fill="#FF7A99"/>
</svg>
