<svg width="694" height="121" viewBox="0 0 694 121" fill="none" xmlns="http://www.w3.org/2000/svg">
<path fill-rule="evenodd" clip-rule="evenodd" d="M83.1335 19.858L83.7475 19.8631C103.958 20.1917 120.242 36.7267 120.242 57.0753L120.243 64.8822C124.725 68.5972 127.583 74.2159 127.583 80.5032C127.583 91.6883 118.543 100.755 107.391 100.755H66.2174C64.6969 100.755 63.2154 100.586 61.7907 100.267L61.4363 100.184C52.5919 98.0302 46.0254 90.0357 46.0254 80.5032V57.0753C46.0254 36.5206 62.6396 19.858 83.1335 19.858Z" fill="#76DD33"/>
<path fill-rule="evenodd" clip-rule="evenodd" d="M60.6417 66.1455C60.6417 68.8426 58.4555 71.0287 55.7585 71.0287H46.8832C44.1861 71.0287 42 68.8426 42 66.1455C42 63.4483 44.1861 61.2623 46.8832 61.2623H55.7585C58.4555 61.2623 60.6417 63.4483 60.6417 66.1455Z" fill="#CCFFAA"/>
<path fill-rule="evenodd" clip-rule="evenodd" d="M127.582 66.1455C127.582 68.8426 125.396 71.0287 122.699 71.0287H117.638C114.941 71.0287 112.753 68.8426 112.753 66.1455C112.753 63.4483 114.941 61.2623 117.638 61.2623H122.699C125.396 61.2623 127.582 63.4483 127.582 66.1455Z" fill="#CCFFAA"/>
<path d="M86.4568 18.6616C91.0175 18.0084 94.5542 19.3734 97.0494 22.0715C98.402 23.5355 99.1716 25.0365 99.5136 26.1264C99.798 27.0299 99.2963 27.9921 98.3928 28.2755C97.5428 28.5432 96.6414 28.1137 96.3014 27.3101L96.1912 27.0063L96.0995 26.7868C96.0439 26.6611 95.9738 26.5127 95.8883 26.3448C95.5442 25.6732 95.094 25.0065 94.5326 24.3988C92.7802 22.5042 90.352 21.5668 86.942 22.0551C83.9997 22.4764 81.9651 23.7827 80.601 25.6999C80.0695 26.4468 79.678 27.2401 79.4091 28.021L79.3051 28.3382L79.2288 28.603C79.2082 28.6823 79.1907 28.7514 79.1784 28.81L79.1505 28.9554C79.0052 29.8908 78.1296 30.5316 77.1941 30.3863C76.2587 30.241 75.6179 29.3644 75.7632 28.43C75.9517 27.2112 76.5483 25.4856 77.8082 23.7127C79.6996 21.0526 82.5543 19.2199 86.4568 18.6616Z" fill="#004312"/>
<path fill-rule="evenodd" clip-rule="evenodd" d="M70.4727 53.4898C70.4727 64.6274 79.4798 73.6552 90.6029 73.6552C101.714 73.6552 110.722 64.6274 110.722 53.4898C110.722 52.6399 110.668 51.8004 110.56 50.972C109.336 41.0182 100.866 33.3132 90.6029 33.3132C82.9474 33.3132 76.2913 37.5855 72.8885 43.8914C71.3525 46.7431 70.4727 50.014 70.4727 53.4898Z" fill="white"/>
<path fill-rule="evenodd" clip-rule="evenodd" d="M85.6377 51.2284C85.6377 57.6785 90.8546 62.9068 97.2883 62.9068C103.723 62.9068 108.94 57.6785 108.94 51.2284C108.94 44.7792 103.723 39.5499 97.2883 39.5499C90.8546 39.5499 85.6377 44.7792 85.6377 51.2284Z" fill="#004312"/>
<path fill-rule="evenodd" clip-rule="evenodd" d="M72.2762 73.8726C72.5492 74.7441 72.0784 75.6703 71.2213 75.968C71.246 76.0185 71.2687 76.0721 71.2892 76.1256C72.0784 78.2808 73.9699 80.2485 76.2271 81.2612C77.6539 81.902 79.8987 82.4531 82.4835 81.4332C83.3499 81.0923 84.3296 81.5167 84.6717 82.3831C85.0137 83.2496 84.5882 84.2282 83.7219 84.5702C82.3588 85.107 80.9619 85.3749 79.5639 85.3749C77.9743 85.3749 76.3857 85.0286 74.8445 84.3375C72.3112 83.2001 70.1086 81.1489 68.8065 78.7846C68.5057 79.2987 67.9493 79.6191 67.3518 79.6191C67.2106 79.6191 67.0675 79.6006 66.9243 79.5634C66.0228 79.3286 65.483 78.4076 65.7189 77.5061C66.3875 74.9513 67.7166 73.5337 70.1633 72.7672C71.0523 72.4911 71.9981 72.9845 72.2762 73.8726Z" fill="#004312"/>
<path fill-rule="evenodd" clip-rule="evenodd" d="M179.659 76.594C178.631 74.9002 176.424 74.3606 174.731 75.3888L166.333 80.4867C164.64 81.5147 164.1 83.721 165.128 85.4148C165.803 86.5272 166.987 87.1408 168.198 87.1408C168.832 87.1408 169.475 86.9731 170.056 86.62L178.454 81.5221C180.148 80.4939 180.688 78.2877 179.659 76.594ZM173.397 72.8606C174 73.2512 174.677 73.4387 175.347 73.4387C176.521 73.4387 177.672 72.8626 178.359 71.8033C179.438 70.1408 178.965 67.9199 177.302 66.8408L172.67 63.8355C171.007 62.7574 168.787 63.2304 167.708 64.8929C166.629 66.5543 167.103 68.7762 168.765 69.8543L173.397 72.8606ZM204.809 82.0168C200.921 80.0648 197.75 77.6565 195.348 74.8429L195.493 74.7408L202.581 70.1408C204.243 69.0627 204.717 66.8408 203.638 65.1793C202.559 63.5168 200.338 63.0439 198.676 64.122L191.527 68.7606C191.487 68.7866 191.447 68.8137 191.408 68.8408L191.24 68.9605C189.599 66.2887 188.879 64.5407 188.41 62.7387V60.622H203.432C205.474 60.622 207.129 58.9669 207.129 56.9251C207.129 54.8846 205.474 53.2293 203.432 53.2293H199.499L201.293 41.7075C201.367 41.2273 201.405 40.7376 201.405 40.2523C201.405 35.0366 197.163 30.7939 191.947 30.7939H170.226C168.245 30.7939 166.639 32.4001 166.639 34.3814C166.639 36.3637 168.245 37.969 170.226 37.969L190.325 37.9929C192.246 37.995 193.801 39.5543 193.799 41.4762C193.798 41.6523 193.784 41.8272 193.757 42.0023L192.029 53.2293H166.591C164.549 53.2293 162.895 54.8846 162.895 56.9251C162.895 58.9669 164.549 60.622 166.591 60.622H181.019V83.5981C181.019 85.2627 179.665 86.6158 178 86.6158C177.912 86.6158 177.822 86.6126 177.733 86.6043C175.699 86.4242 173.905 87.9262 173.724 89.9585C173.544 91.9918 175.046 93.7866 177.079 93.9679C177.384 93.995 177.694 94.0085 178 94.0085C183.741 94.0085 188.41 89.3387 188.41 83.5981V77.622C191.591 81.997 196.02 85.6335 201.591 88.4293C202.107 88.6887 202.656 88.8106 203.197 88.8106C204.512 88.8106 205.776 88.0866 206.406 86.8325C207.295 85.0616 206.58 82.9054 204.809 82.0168ZM187.994 49.1032H188.007C189.982 49.1032 191.588 47.5064 191.595 45.5304C191.602 43.5492 190.003 41.9366 188.022 41.9283L171.862 41.8658C171.856 41.8658 171.852 41.8658 171.847 41.8658C169.872 41.8658 168.268 43.4627 168.259 45.4387C168.252 47.42 169.852 49.0324 171.833 49.0407L187.994 49.1032ZM159.431 78.472L145.572 82.5678C143.672 83.1283 142.587 85.1241 143.148 87.0241C143.609 88.5855 145.039 89.596 146.588 89.596C146.924 89.596 147.266 89.5481 147.605 89.4481L161.465 85.3534C163.365 84.7918 164.449 82.796 163.888 80.896C163.326 78.9961 161.331 77.9106 159.431 78.472ZM164.176 68.3491C164.641 70.2137 163.506 72.1012 161.642 72.5658L147.783 76.02C147.501 76.0898 147.218 76.1241 146.94 76.1241C145.379 76.1241 143.961 75.0669 143.566 73.4856C143.343 72.5887 143.493 71.6877 143.913 70.9408C143.993 70.6689 144.102 70.4012 144.251 70.145L152.838 55.4012L147.167 56.3564C146.971 56.3897 146.776 56.4054 146.584 56.4054C144.917 56.4054 143.445 55.2033 143.158 53.5044C143.115 53.2429 143.103 52.9846 143.118 52.7303C143.094 52.1117 143.227 51.4782 143.544 50.8929L154.368 30.8731C155.309 29.1303 157.487 28.4814 159.229 29.4242C160.972 30.3658 161.621 32.5429 160.679 34.2856L153.101 48.3012L158.781 47.3449C160.676 47.0251 162.471 48.3022 162.79 50.1971C162.798 50.2481 162.801 50.2992 162.807 50.3502C163.065 51.2553 162.971 52.2585 162.459 53.1356L154.247 67.2387L159.959 65.8148C161.823 65.3502 163.712 66.4846 164.176 68.3491Z" fill="black"/>
<path fill-rule="evenodd" clip-rule="evenodd" d="M261.719 51.0604H236.298C233.655 51.0604 231.515 53.202 231.515 55.8438V58.6833C231.515 61.325 233.655 63.4667 236.298 63.4667H261.719C264.36 63.4667 266.502 61.325 266.502 58.6833V55.8438C266.502 53.202 264.36 51.0604 261.719 51.0604ZM262.367 70.8989H235.624C229.15 70.8989 223.883 65.6312 223.883 59.1573V55.4083C223.883 48.9354 229.15 43.6676 235.624 43.6676H262.367C268.841 43.6676 274.108 48.9354 274.108 55.4083V59.1573C274.108 65.6312 268.841 70.8989 262.367 70.8989ZM228.632 73.0416C227.121 74.501 227.079 76.9104 228.54 78.4219L231.926 81.926C232.672 82.6989 233.667 83.0864 234.662 83.0864C235.615 83.0864 236.568 82.7323 237.306 82.0187C238.817 80.5583 238.858 78.1489 237.398 76.6385L234.013 73.1333C232.552 71.6229 230.143 71.5812 228.632 73.0416ZM277.163 84.4447L265.88 84.4042L270.297 77.7792C271.462 76.0312 270.99 73.6687 269.242 72.5031C267.493 71.3375 265.131 71.8104 263.966 73.5583L256.755 84.3718L220.635 84.2427H220.622C218.587 84.2427 216.933 85.8895 216.926 87.926C216.919 89.9677 218.568 91.6281 220.609 91.6354L277.137 91.8364H277.15C279.185 91.8364 280.839 90.1906 280.846 88.1542C280.853 86.1124 279.204 84.452 277.163 84.4447ZM219.1 35.3906C219.109 33.3541 220.763 31.7094 222.796 31.7094H222.813L275.101 31.9364C277.142 31.9447 278.79 33.6073 278.781 35.6479C278.772 37.6843 277.119 39.3281 275.085 39.3281H275.069L222.78 39.1021C220.74 39.0938 219.092 37.4313 219.1 35.3906Z" fill="black"/>
<path d="M372.342 42.3626C370.629 42.208 369.694 41.2788 369.538 39.5758C369.694 37.7183 370.629 36.7118 372.342 36.5563H396.409C398.122 36.7118 399.056 37.7183 399.212 39.5758C399.056 41.2788 398.122 42.208 396.409 42.3626H372.342ZM348.915 42.3965C347.371 42.0844 346.443 41.1468 346.134 39.584C346.289 37.8657 347.216 36.9281 348.915 36.7716H363.747C365.447 36.9281 366.373 37.8657 366.527 39.584C366.373 41.1468 365.447 42.0844 363.747 42.3965H359.344V55.2865H362.82C364.52 55.4421 365.447 56.3795 365.6 58.0989C365.447 59.8174 364.52 60.7548 362.82 60.9104H359.344V74.504C359.653 74.504 360.039 74.4258 360.503 74.2692C361.274 73.957 362.356 73.6448 363.747 73.3316C365.447 73.3316 366.373 74.1908 366.527 75.9102C366.527 77.7852 365.677 78.9565 363.979 79.4253C361.815 80.0507 358.262 80.9098 353.318 82.0029C351.619 82.4716 350.383 82.7848 349.61 82.9404C347.602 83.2536 346.366 82.3944 345.903 80.3628C345.748 78.4879 346.598 77.2382 348.451 76.6129C348.606 76.6129 348.992 76.5345 349.61 76.379C350.383 76.379 351.697 76.1441 353.55 75.6754V60.9104H349.147C347.602 60.7548 346.753 59.8174 346.598 58.0989C346.753 56.3795 347.602 55.4421 349.147 55.2865H353.55V42.3965H348.915ZM369.812 58.5348C367.951 58.3782 366.943 57.4385 366.788 55.7171C366.943 53.9947 367.951 53.055 369.812 52.8996H399.577C401.282 53.055 402.213 53.9947 402.367 55.7171C402.213 57.4385 401.282 58.3782 399.577 58.5348H391.903V79.1976C391.748 80.9191 392.445 81.7021 393.996 81.5454H395.392C396.787 81.5454 397.561 80.6843 397.717 78.9627C398.181 76.6149 398.414 74.6576 398.414 73.0927C398.879 71.8399 399.809 71.3701 401.205 71.6833C402.6 72.1531 403.298 73.2493 403.298 74.9707C403.143 75.9102 402.91 77.3978 402.6 79.4326C402.446 80.5287 402.367 81.2323 402.367 81.5454C401.747 85.4593 399.499 87.3373 395.624 87.1807H392.368C387.872 87.3373 385.702 85.146 385.857 80.6059V58.5348H379.811C379.811 61.8222 379.655 64.6397 379.345 66.9876C379.035 76.0668 375.392 83.1897 368.416 88.3552C366.711 89.6078 365.083 89.5296 363.533 88.1202C362.292 86.3988 362.369 84.9112 363.765 83.6584C369.966 79.4326 373.222 73.8756 373.532 66.9876V63.4654C373.687 61.2741 373.765 59.6299 373.765 58.5348H369.812Z" fill="black"/>
<path d="M430.499 68.2379V70.5311H457.989V68.2379C458.145 67.4734 457.757 67.0912 456.825 67.0912H431.664C430.888 67.0912 430.499 67.4734 430.499 68.2379ZM456.825 84.9385C457.757 84.9385 458.145 84.5573 457.989 83.796V81.2833H430.499V83.796C430.499 84.5573 430.888 84.9385 431.664 84.9385H456.825ZM430.499 77.6271H458.023V74.1862H430.499V77.6271ZM417.566 44.5101C416.162 44.3545 415.381 43.6518 415.225 42.4023C415.381 41.1536 416.162 40.451 417.566 40.2955H430.677C429.428 39.0458 428.57 38.0311 428.101 37.2501C427.321 36.0016 427.712 34.9085 429.272 33.972C431.145 33.3477 432.628 33.6598 433.72 34.9085C435.437 36.6259 436.92 38.265 438.168 39.8267C438.168 39.8267 438.246 39.9051 438.402 40.0606V40.2955H447.533C448.002 39.8267 448.625 38.9675 449.406 37.7189C450.654 36.3138 451.435 35.3773 451.747 34.9085C452.839 33.6598 454.322 33.2694 456.195 33.7382C457.912 34.6747 458.458 35.846 457.834 37.2501C457.522 37.5633 457.131 38.0311 456.663 38.6554C456.039 39.4363 455.571 39.9823 455.258 40.2955H467.666C468.915 40.451 469.617 41.1536 469.774 42.4023C469.617 43.6518 468.915 44.3545 467.666 44.5101H443.084C442.929 44.8222 442.772 45.3693 442.617 46.1491C442.304 46.9299 442.071 47.5543 441.914 48.023H463.92C465.326 48.023 466.028 48.6473 466.028 49.896C465.872 51.1456 465.169 51.8483 463.92 52.0038H440.51C439.886 53.0968 439.339 54.2683 438.871 55.5168H468.369C469.774 55.6734 470.554 56.376 470.709 57.6246C470.554 58.8733 469.774 59.5758 468.369 59.7324H436.295C436.14 60.0446 435.749 60.5906 435.125 61.3715C434.656 62.1524 434.267 62.7766 433.955 63.2443H460.643C463.141 63.2443 464.389 64.494 464.389 66.9912V85.4918C464.389 87.99 463.141 89.2385 460.643 89.2385H428.57C426.072 89.2385 424.824 87.99 424.824 85.4918V72.8459C424.355 73.1581 423.575 73.7834 422.483 74.7199C422.015 75.1886 420.61 76.2806 418.269 77.998C416.552 78.9355 415.225 78.6233 414.289 77.0616C413.353 75.3441 413.586 73.939 414.992 72.8459C420.921 68.9435 425.682 64.5723 429.272 59.7324H415.928C414.679 59.5758 413.977 58.8733 413.82 57.6246C413.977 56.376 414.679 55.6734 415.928 55.5168H432.082C432.706 54.2683 433.252 53.0968 433.72 52.0038H420.142C418.893 52.0038 418.269 51.3011 418.269 49.896C418.269 48.6473 418.893 48.023 420.142 48.023H435.593C435.749 47.5543 435.905 46.9299 436.061 46.1491C436.374 45.3693 436.529 44.8222 436.529 44.5101H417.566Z" fill="black"/>
<path d="M507.401 78.3938C505.863 78.706 504.786 78.2373 504.17 76.9877C503.709 76.2067 502.786 74.4111 501.401 71.5996C500.785 70.1934 501.247 69.2569 502.786 68.7882C504.17 68.3194 505.247 68.7099 506.017 69.9595C506.94 71.8335 507.863 73.5519 508.786 75.1136C509.094 76.5199 508.632 77.6129 507.401 78.3938ZM529.707 44.7061C529.394 44.395 528.611 43.6933 527.359 42.6013C526.263 41.5103 525.48 40.8088 525.011 40.4977C524.071 39.0946 524.149 37.9242 525.246 36.9898C526.498 36.0544 527.828 36.1317 529.237 37.2237C530.803 38.4702 532.291 39.7961 533.699 41.1982C534.796 42.6013 534.717 43.8489 533.465 44.94C532.056 45.8754 530.803 45.7981 529.707 44.7061ZM482.801 83.0431C481.25 82.2643 480.785 81.0971 481.405 79.5405C481.56 79.0728 481.871 78.2949 482.335 77.205C483.576 74.4028 484.506 72.3784 485.126 71.133C485.746 69.7318 486.831 69.1086 488.382 69.2641C489.932 69.8875 490.475 70.9774 490.009 72.534C489.545 73.7796 488.692 75.8812 487.451 78.84C486.831 80.241 486.444 81.1744 486.289 81.6421C485.669 83.0431 484.506 83.5099 482.801 83.0431ZM489.956 55.6047V60.085C489.956 61.0287 490.348 61.5005 491.132 61.5005H501.251C502.035 61.5005 502.427 61.0287 502.427 60.085V55.6047C502.427 54.6609 502.035 54.1891 501.251 54.1891H491.132C490.348 54.1891 489.956 54.6609 489.956 55.6047ZM483.49 44.943C482.08 44.7864 481.296 43.9272 481.139 42.3634C481.296 40.7995 482.08 39.9403 483.49 39.7837H494.066C493.91 39.315 493.753 38.6113 493.597 37.6729L492.891 35.5629C492.734 33.8426 493.518 32.7484 495.242 32.2796C497.122 32.123 498.296 32.7484 498.767 34.1557C499.237 36.0317 499.707 37.7511 500.177 39.315V39.7837H508.873C510.44 39.9403 511.302 40.7995 511.458 42.3634C511.302 43.9272 510.44 44.7864 508.873 44.943H483.49ZM527.771 87.9408C523.776 87.9408 521.78 85.7692 521.78 81.4268V56.7657C522.087 55.0597 523.085 54.1294 524.775 53.9739C526.311 54.1294 527.155 55.0597 527.309 56.7657V79.798C527.309 81.6596 528 82.5127 529.383 82.357H530.305C531.686 82.5127 532.531 81.5041 532.839 79.3323C533.146 76.8516 533.3 74.3698 533.3 71.8881C533.453 70.6477 534.298 70.1048 535.834 70.2593C537.216 70.7249 537.908 71.7325 537.908 73.284V73.7496C537.6 77.3163 537.293 79.9536 536.986 81.6596C536.525 86.0019 534.298 88.0963 530.305 87.9408H527.771ZM512.121 53.7399C510.556 53.5844 509.696 52.65 509.54 50.9358C509.696 49.3771 510.556 48.5199 512.121 48.3643H515.874V42.0543C516.03 39.2491 516.108 37.068 516.108 35.5094C516.265 33.7951 517.204 32.7825 518.924 32.4713C520.8 32.6268 521.817 33.6396 521.974 35.5094C521.817 38.0025 521.739 42.2882 521.739 48.3643H534.877C536.597 48.5199 537.536 49.3771 537.693 50.9358C537.536 52.65 536.597 53.5844 534.877 53.7399H521.27C520.8 67.6075 517.36 78.9832 510.947 87.8646C509.54 89.4223 508.053 89.6561 506.49 88.5651C505.082 87.4752 504.847 86.0719 505.786 84.3588C512.198 76.7229 515.483 66.5176 515.639 53.7399H512.121ZM487.459 66.5485C485.41 66.393 484.307 65.2227 484.15 63.0376V52.9704C484.307 50.7853 485.41 49.615 487.459 49.4584H504.473C506.679 49.615 507.861 50.7853 508.018 52.9704V63.2715C508.018 65.4565 506.837 66.5485 504.473 66.5485H499.274V81.5319C499.589 86.3707 497.463 88.868 492.894 89.0236H488.64C487.222 89.0236 486.355 88.1654 486.041 86.4491C485.883 84.7318 486.592 83.7953 488.167 83.6396C488.325 83.6396 488.798 83.7169 489.585 83.8735H490.766C492.814 84.0291 493.76 82.9371 493.603 80.5954V66.5485H487.459Z" fill="black"/>
<path d="M555.863 74.617H569.195V70.1017H555.863V74.617ZM555.863 62.5162V65.5862H569.169V62.5162C569.325 61.415 568.779 60.9421 567.535 61.0996H557.497C556.408 61.0996 555.863 61.5715 555.863 62.5162ZM553.083 52.174C550.738 52.3295 549.251 51.629 548.626 50.0713C548 48.6702 548.391 47.1125 549.799 45.4003C552.771 42.5972 555.743 39.0934 558.715 34.8881C559.967 33.3314 561.374 32.942 562.939 33.7208C564.66 34.4997 565.129 35.6669 564.347 37.2245C563.096 38.7812 560.984 41.195 558.012 44.4659C557.385 45.0881 556.917 45.5558 556.603 45.8671C556.135 46.4903 556.29 46.8797 557.073 47.0352C559.419 47.0352 563.252 46.8797 568.57 46.5675C567.475 45.1665 566.46 43.9209 565.52 42.831C564.895 41.5845 565.129 40.4944 566.225 39.56C567.632 38.9378 568.884 39.0934 569.979 40.0278C570.917 41.1178 572.56 43.1421 574.906 46.1008C576.158 47.6576 577.096 48.7485 577.722 49.3707C578.817 50.6173 578.661 51.94 577.253 53.3421C575.533 54.1211 574.202 53.8089 573.264 52.4078C572.794 52.0967 572.482 51.7073 572.325 51.2396C569.822 51.3951 566.146 51.5507 561.297 51.7073C557.542 52.0184 554.805 52.174 553.083 52.174ZM587.284 59.9881C582.096 60.1436 579.58 57.6485 579.738 52.5006V36.5879C579.895 34.8726 580.838 33.8579 582.568 33.5468C584.454 33.7023 585.476 34.7161 585.634 36.5879V42.9062C589.721 41.3464 593.808 39.4745 597.895 37.2905C599.625 36.6662 601.04 36.9 602.14 37.9921C602.926 39.3963 602.69 40.6438 601.433 41.7359C599.389 42.6724 595.695 44.3104 590.349 46.65C588.148 47.4299 586.576 48.0542 585.634 48.5219V51.5641C585.476 53.9037 586.655 54.9956 589.17 54.8401H593.887C596.245 54.8401 597.503 53.9037 597.659 52.0318C597.817 51.5641 597.974 50.6287 598.131 49.2245C598.289 48.6002 598.367 48.1324 598.367 47.8203C598.839 46.4161 600.017 45.8701 601.905 46.1823C603.319 46.8066 603.948 47.9758 603.791 49.6922C603.633 50.6287 603.319 52.2667 602.848 54.6063C602.219 58.1944 599.625 59.9881 595.065 59.9881H587.284ZM587.218 89.2326C582.075 89.3881 579.582 86.8209 579.738 81.5318V64.964C579.893 63.0973 580.907 62.0856 582.777 61.93C584.491 62.0856 585.426 63.0973 585.582 64.964V70.5642C591.659 68.0753 595.867 66.0529 598.204 64.4973C600.074 63.7195 601.477 64.0306 602.412 65.4306C603.192 66.9863 602.88 68.2308 601.477 69.1641C597.113 71.4975 591.815 73.8309 585.582 76.1644V80.3646C585.426 82.8546 586.672 84.0208 589.322 83.8652H593.997C596.335 83.8652 597.581 82.9319 597.737 81.0652C598.049 79.8206 598.204 78.4205 598.204 76.8649C598.672 75.3094 599.84 74.6871 601.711 74.9983C603.113 75.4649 603.815 76.6311 603.815 78.4978C603.347 81.2989 603.035 83.0101 602.88 83.6323C602.256 87.3658 599.606 89.2326 594.931 89.2326H587.218ZM553.057 90.7439C551.5 90.5884 550.643 89.6519 550.487 87.9355V60.0838C550.643 57.5877 551.889 56.3391 554.227 56.3391H570.821C573.316 56.3391 574.561 57.5877 574.561 60.0838V83.0205C574.718 87.3895 572.769 89.5736 568.719 89.5736H566.848C565.446 89.7302 564.511 89.8085 564.044 89.8085C562.329 89.8085 561.317 89.0275 561.004 87.4678C561.004 85.9071 561.628 84.9717 562.875 84.6595H566.381C568.251 84.6595 569.185 83.8786 569.185 82.3188V78.8079H555.863V87.9355C555.707 89.6519 554.772 90.5884 553.057 90.7439Z" fill="black"/>
<path d="M646.012 45.5187C644.294 46.4614 642.812 46.0689 641.563 44.3402C640.782 42.9257 639.377 40.8035 637.348 37.9746C636.411 36.4036 636.723 35.0673 638.285 33.967C640.001 33.181 641.485 33.4962 642.733 34.9106C644.451 37.1102 645.933 39.2324 647.182 41.2754C647.963 42.8475 647.572 44.262 646.012 45.5187ZM630.422 45.1983C630.11 45.5085 629.798 45.663 629.486 45.663H651.495C651.34 45.0438 651.418 44.502 651.73 44.0374C651.886 43.7273 652.198 43.2626 652.667 42.6435C655.164 39.7012 656.803 37.6108 657.584 36.3727C658.676 34.3596 660.315 33.7393 662.5 34.5142C664.374 35.5978 664.842 36.9917 663.905 38.6947C663.437 39.1593 662.578 40.1658 661.33 41.7142C659.925 43.7273 658.91 45.0438 658.286 45.663H665.544C667.886 45.8175 669.135 47.0569 669.29 49.379V56.1155C669.135 57.9739 668.12 58.9795 666.247 59.1351C664.217 58.9795 663.124 57.9739 662.969 56.1155V52.3985C662.969 51.6248 662.578 51.2375 661.797 51.2375H624.101C623.32 51.2375 622.93 51.6248 622.93 52.3985V56.1155C622.774 57.9739 621.681 58.9795 619.652 59.1351C617.779 58.9795 616.764 57.9739 616.608 56.1155V49.379C616.764 47.0569 618.014 45.8175 620.354 45.663H627.379C626.911 45.3528 626.443 44.9665 625.974 44.502C625.662 44.0374 624.959 43.108 623.867 41.7142C622.774 40.3203 621.993 39.392 621.526 38.9275C620.589 37.6881 620.901 36.4499 622.462 35.2105C624.335 34.2813 625.896 34.5142 627.144 35.908C628.55 37.3008 630.033 39.082 631.594 41.2496C632.53 42.798 632.14 44.1147 630.422 45.1983ZM617.043 75.6462C615.332 75.4907 614.399 74.482 614.243 72.6194C614.399 70.9123 615.332 69.981 617.043 69.8255H641.316C641.783 68.4285 642.56 67.3417 643.649 66.5659L649.717 63.0735C649.873 62.4523 649.795 62.1422 649.484 62.1422H627.08C625.367 61.9867 624.434 61.0554 624.278 59.3483C624.59 57.6412 625.523 56.7099 627.08 56.5544H657.186C659.053 56.7099 660.065 57.7185 660.22 59.5811C660.22 61.4437 659.364 62.8407 657.653 63.772L648.784 69.127C648.473 69.2826 648.317 69.5155 648.317 69.8255H668.855C670.567 69.981 671.5 70.9123 671.656 72.6194C671.5 74.482 670.567 75.4907 668.855 75.6462H647.617V82.3981C647.772 87.6759 645.206 90.237 639.916 90.0814C638.515 90.237 636.026 90.3143 632.447 90.3143C630.113 90.3143 628.868 89.2274 628.712 87.0548C628.868 85.0365 629.802 84.1052 631.513 84.2608H637.349C640.304 84.5709 641.627 83.2522 641.316 80.3027V75.6462H617.043Z" fill="black"/>
<path d="M313.846 33.9016V87.4725" stroke="black" stroke-width="1.50513" stroke-linecap="round"/>
</svg>
