<svg width="470" height="121" viewBox="0 0 470 121" fill="none" xmlns="http://www.w3.org/2000/svg">
<path d="M76.6823 31.2638L76.7181 31.2329C76.7519 31.2037 76.7849 31.1717 76.8159 31.1397C76.9739 30.9762 77.099 30.7796 77.179 30.5596C77.2147 30.4607 77.241 30.3572 77.2579 30.2491L77.2541 30.2717C77.2561 30.2642 77.257 30.2567 77.2579 30.2491L77.2852 30.1099C77.2918 30.0817 77.2983 30.0506 77.3069 30.0178L77.3341 29.9106L77.4084 29.6547L77.5081 29.3501C77.7686 28.5977 78.1476 27.834 78.6611 27.1146C79.9787 25.2674 81.9453 24.01 84.7902 23.6038C85.362 23.5229 85.9046 23.4824 86.4201 23.4806L86.5385 23.4816C88.9396 23.5032 90.75 24.3768 92.1278 25.8619C92.6704 26.4468 93.1049 27.0881 93.4378 27.7362C93.4971 27.851 93.5479 27.9573 93.5921 28.0523L93.642 28.1613L93.7303 28.372L93.8366 28.6654C94.1009 29.288 94.7169 29.6773 95.3752 29.6717L95.4288 29.6707C95.5718 29.6642 95.7166 29.6397 95.8586 29.5954L95.9169 29.5758C95.9263 29.573 95.9357 29.5692 95.946 29.5655C95.9536 29.5626 95.9611 29.5597 95.9696 29.556L95.946 29.5655C96.7634 29.2597 97.2072 28.3654 96.942 27.5254C96.611 26.475 95.8681 25.0295 94.5598 23.6198C92.1485 21.0212 88.7298 19.7074 84.3209 20.3357C80.5487 20.8735 77.7893 22.6389 75.961 25.2006C74.7431 26.9076 74.1666 28.5705 73.9841 29.7431C73.844 30.6442 74.4629 31.4878 75.3676 31.6279C75.4165 31.6355 75.4654 31.641 75.5143 31.6438C75.5209 31.6438 75.5274 31.6447 75.5341 31.6447L75.5143 31.6438C75.5293 31.6447 75.5444 31.6458 75.5594 31.6458L75.5341 31.6447C75.551 31.6458 75.5688 31.6467 75.5857 31.6467L75.5594 31.6458C75.5764 31.6467 75.5924 31.6476 75.6093 31.6476C75.6366 31.6476 75.6629 31.6467 75.6892 31.6458C75.7005 31.6458 75.7108 31.6447 75.7212 31.6447L75.6892 31.6458C75.7607 31.643 75.8303 31.6355 75.899 31.6241C75.9065 31.6231 75.9131 31.6214 75.9206 31.6204L75.899 31.6241C75.9337 31.6185 75.9676 31.611 76.0015 31.6034C76.009 31.6015 76.0165 31.5996 76.0231 31.5978L76.0015 31.6034C76.0354 31.5959 76.0683 31.5865 76.1011 31.577C76.1087 31.5743 76.1162 31.5724 76.1237 31.5696L76.1011 31.577C76.1661 31.5573 76.23 31.533 76.2921 31.5056C76.3645 31.4737 76.435 31.437 76.5018 31.3946C76.5112 31.389 76.5206 31.3824 76.529 31.3767C76.5827 31.342 76.6335 31.3044 76.6823 31.2638ZM94.9623 40.7326C101.359 40.7326 106.545 45.9277 106.545 52.3371C106.545 58.7464 101.359 63.9426 94.9623 63.9426C88.5653 63.9426 83.3795 58.7464 83.3795 52.3371C83.3795 45.9277 88.5653 40.7326 94.9623 40.7326ZM88.316 34.5339C80.7057 34.5339 74.0886 38.7802 70.7057 45.0456C69.1792 47.8802 68.3046 51.1305 68.3046 54.5849C68.3046 65.6523 77.2589 74.6244 88.316 74.6244C99.3619 74.6244 108.316 65.6523 108.316 54.5849C108.316 53.7403 108.263 52.9061 108.156 52.0822C106.939 42.1913 98.5192 34.5339 88.316 34.5339ZM67.9961 73.7414C65.5641 74.5032 64.2428 75.911 63.5788 78.4503C63.3446 79.3457 63.8816 80.2607 64.7769 80.4949C64.919 80.5324 65.0618 80.5494 65.202 80.5494C65.7964 80.5494 66.3494 80.2316 66.6485 79.7208C67.9416 82.0701 70.1329 84.1091 72.6506 85.2386C74.1826 85.9261 75.7626 86.2703 77.3426 86.2703C78.7317 86.2703 80.1207 86.0042 81.475 85.4699C82.3365 85.1305 82.7597 84.158 82.4202 83.2965C82.0797 82.436 81.1064 82.0137 80.2449 82.3532C77.6746 83.3662 75.4437 82.8188 74.0246 82.1821C71.7816 81.1759 69.9006 79.2205 69.1153 77.0791C69.0955 77.0255 69.0739 76.9728 69.0485 76.922C69.9006 76.6258 70.369 75.7051 70.0971 74.8398C69.8207 73.9568 68.8802 73.4668 67.9961 73.7414ZM83.7999 16.6912C89.2151 15.9202 93.9052 17.4982 97.2637 21.1181C98.8042 22.778 99.9026 24.6589 100.457 26.4186C100.505 26.5681 100.545 26.7167 100.578 26.8663C110.916 33.4185 117.78 44.9798 117.78 58.1482V62.308H115.189C112.536 62.308 110.38 64.4372 110.337 67.0809L110.336 67.1609C110.336 69.8412 112.509 72.0137 115.189 72.0137H120.224C121.029 72.0137 121.786 71.819 122.453 71.4729C124.124 74.4091 125.077 77.807 125.077 81.4288C125.077 92.5433 116.091 101.554 105.005 101.554H64.0743C62.5621 101.554 61.0893 101.387 59.673 101.069L59.3203 100.986C50.5287 98.8463 44.0009 90.9013 44.0009 81.4288L44 71.9395C44.2774 71.9883 44.5615 72.0137 44.852 72.0137H53.6784C56.3588 72.0137 58.5313 69.8412 58.5313 67.1609C58.5313 64.4805 56.3588 62.308 53.6784 62.308H44.852C44.5615 62.308 44.2774 62.3334 44 62.3823L44.0009 58.1482C44.0009 40.1006 56.893 25.0728 73.9484 21.8169C76.3945 19.0406 79.7483 17.2696 83.7999 16.6912Z" fill="black"/>
<path fill-rule="evenodd" clip-rule="evenodd" d="M179.659 76.594C178.631 74.9002 176.424 74.3606 174.731 75.3888L166.333 80.4867C164.64 81.5147 164.1 83.721 165.128 85.4148C165.803 86.5272 166.987 87.1408 168.198 87.1408C168.832 87.1408 169.475 86.9731 170.056 86.62L178.454 81.5221C180.148 80.4939 180.688 78.2877 179.659 76.594ZM173.397 72.8606C174 73.2512 174.677 73.4387 175.347 73.4387C176.521 73.4387 177.672 72.8626 178.359 71.8033C179.438 70.1408 178.965 67.9199 177.302 66.8408L172.67 63.8355C171.007 62.7574 168.787 63.2304 167.708 64.8929C166.629 66.5543 167.103 68.7762 168.765 69.8543L173.397 72.8606ZM204.809 82.0168C200.921 80.0648 197.75 77.6565 195.348 74.8429L195.493 74.7408L202.581 70.1408C204.243 69.0627 204.717 66.8408 203.638 65.1793C202.559 63.5168 200.338 63.0439 198.676 64.122L191.527 68.7606C191.487 68.7866 191.447 68.8137 191.408 68.8408L191.24 68.9605C189.599 66.2887 188.879 64.5407 188.41 62.7387V60.622H203.432C205.474 60.622 207.129 58.9669 207.129 56.9251C207.129 54.8846 205.474 53.2293 203.432 53.2293H199.499L201.293 41.7075C201.367 41.2273 201.405 40.7376 201.405 40.2523C201.405 35.0366 197.163 30.7939 191.947 30.7939H170.226C168.245 30.7939 166.639 32.4001 166.639 34.3814C166.639 36.3637 168.245 37.969 170.226 37.969L190.325 37.9929C192.246 37.995 193.801 39.5543 193.799 41.4762C193.798 41.6523 193.784 41.8272 193.757 42.0023L192.029 53.2293H166.591C164.549 53.2293 162.895 54.8846 162.895 56.9251C162.895 58.9669 164.549 60.622 166.591 60.622H181.019V83.5981C181.019 85.2627 179.665 86.6158 178 86.6158C177.912 86.6158 177.822 86.6126 177.733 86.6043C175.699 86.4242 173.905 87.9262 173.724 89.9585C173.544 91.9918 175.046 93.7866 177.079 93.9679C177.384 93.995 177.694 94.0085 178 94.0085C183.741 94.0085 188.41 89.3387 188.41 83.5981V77.622C191.591 81.997 196.02 85.6335 201.591 88.4293C202.107 88.6887 202.656 88.8106 203.197 88.8106C204.512 88.8106 205.776 88.0866 206.406 86.8325C207.295 85.0616 206.58 82.9054 204.809 82.0168ZM187.994 49.1032H188.007C189.982 49.1032 191.588 47.5064 191.595 45.5304C191.602 43.5492 190.003 41.9366 188.022 41.9283L171.862 41.8658C171.856 41.8658 171.852 41.8658 171.847 41.8658C169.872 41.8658 168.268 43.4627 168.259 45.4387C168.252 47.42 169.852 49.0324 171.833 49.0407L187.994 49.1032ZM159.431 78.472L145.572 82.5678C143.672 83.1283 142.587 85.1241 143.148 87.0241C143.609 88.5855 145.039 89.596 146.588 89.596C146.924 89.596 147.266 89.5481 147.605 89.4481L161.465 85.3534C163.365 84.7918 164.449 82.796 163.888 80.896C163.326 78.9961 161.331 77.9106 159.431 78.472ZM164.176 68.3491C164.641 70.2137 163.506 72.1012 161.642 72.5658L147.783 76.02C147.501 76.0898 147.218 76.1241 146.94 76.1241C145.379 76.1241 143.961 75.0669 143.566 73.4856C143.343 72.5887 143.493 71.6877 143.913 70.9408C143.993 70.6689 144.102 70.4012 144.251 70.145L152.838 55.4012L147.167 56.3564C146.971 56.3897 146.776 56.4054 146.584 56.4054C144.917 56.4054 143.445 55.2033 143.158 53.5044C143.115 53.2429 143.103 52.9846 143.118 52.7303C143.094 52.1117 143.227 51.4782 143.544 50.8929L154.368 30.8731C155.309 29.1303 157.487 28.4814 159.229 29.4242C160.972 30.3658 161.621 32.5429 160.679 34.2856L153.101 48.3012L158.781 47.3449C160.676 47.0251 162.471 48.3022 162.79 50.1971C162.798 50.2481 162.801 50.2992 162.807 50.3502C163.065 51.2553 162.971 52.2585 162.459 53.1356L154.247 67.2387L159.959 65.8148C161.823 65.3502 163.712 66.4846 164.176 68.3491Z" fill="black"/>
<path fill-rule="evenodd" clip-rule="evenodd" d="M261.719 51.0604H236.298C233.655 51.0604 231.515 53.202 231.515 55.8438V58.6833C231.515 61.325 233.655 63.4667 236.298 63.4667H261.719C264.36 63.4667 266.502 61.325 266.502 58.6833V55.8438C266.502 53.202 264.36 51.0604 261.719 51.0604ZM262.367 70.8989H235.624C229.15 70.8989 223.883 65.6312 223.883 59.1573V55.4083C223.883 48.9354 229.15 43.6676 235.624 43.6676H262.367C268.841 43.6676 274.108 48.9354 274.108 55.4083V59.1573C274.108 65.6312 268.841 70.8989 262.367 70.8989ZM228.632 73.0416C227.121 74.501 227.079 76.9104 228.54 78.4219L231.926 81.926C232.672 82.6989 233.667 83.0864 234.662 83.0864C235.615 83.0864 236.568 82.7323 237.306 82.0187C238.817 80.5583 238.858 78.1489 237.398 76.6385L234.013 73.1333C232.552 71.6229 230.143 71.5812 228.632 73.0416ZM277.163 84.4447L265.88 84.4042L270.297 77.7792C271.462 76.0312 270.99 73.6687 269.242 72.5031C267.493 71.3375 265.131 71.8104 263.966 73.5583L256.755 84.3718L220.635 84.2427H220.622C218.587 84.2427 216.933 85.8895 216.926 87.926C216.919 89.9677 218.568 91.6281 220.609 91.6354L277.137 91.8364H277.15C279.185 91.8364 280.839 90.1906 280.846 88.1542C280.853 86.1124 279.204 84.452 277.163 84.4447ZM219.1 35.3906C219.109 33.3541 220.763 31.7094 222.796 31.7094H222.813L275.101 31.9364C277.142 31.9447 278.79 33.6073 278.781 35.6479C278.772 37.6843 277.119 39.3281 275.085 39.3281H275.069L222.78 39.1021C220.74 39.0938 219.092 37.4313 219.1 35.3906Z" fill="black"/>
<path d="M294.038 72.6087C294.751 70.6932 296.926 69.7024 298.896 70.3973C300.866 71.0909 301.883 73.2068 301.17 75.1223L297.206 85.7656C296.491 87.6821 294.316 88.6719 292.347 87.9781C290.378 87.2833 289.36 85.1675 290.074 83.2521L294.038 72.6087ZM323.458 69.6924L326.71 73.2028C328.111 74.7164 327.987 77.0489 326.43 78.4131C324.874 79.7772 322.476 79.6551 321.074 78.1414L317.823 74.6309C316.42 73.1173 316.546 70.7838 318.102 69.4196C319.658 68.0566 322.057 68.1776 323.458 69.6924ZM340.378 70.0381C342.166 68.9742 344.5 69.5214 345.593 71.26L351.987 81.4271C353.08 83.1655 352.517 85.437 350.73 86.5001C348.944 87.5631 346.609 87.0158 345.516 85.2783L339.123 75.1101C338.03 73.3716 338.592 71.1012 340.378 70.0381ZM307.022 69.0737C309.116 69.0737 310.814 70.7258 310.814 72.7633V73.1947L310.812 73.1854V80.5686C310.812 82.4321 312.365 83.9417 314.28 83.9417H329.09C331.005 83.9417 332.558 82.4321 332.558 80.5686V80.5593L332.659 80.5554C333.058 78.9338 334.558 77.7295 336.347 77.7295C338.442 77.7295 340.14 79.3814 340.14 81.419V81.9296C340.14 87.1114 335.821 91.3116 330.496 91.3116H312.872C307.546 91.3116 303.229 87.1114 303.229 81.9296V72.7633C303.229 70.7258 304.926 69.0737 307.022 69.0737ZM336.357 38.7632H324.557V45.8615L335.441 45.9448C337.476 45.9601 339.112 47.5775 339.096 49.5571C339.08 51.5366 337.417 53.1286 335.382 53.1133L324.557 53.0299V60.2768H336.495C339.064 60.2056 341.125 58.1568 341.125 55.6402V43.4018C341.125 40.8394 338.991 38.7632 336.357 38.7632ZM316.971 38.7632H305.272C302.639 38.7632 300.504 40.8394 300.504 43.4018V55.6402C300.504 58.1568 302.565 60.2056 305.134 60.2768H316.971V52.9709L306.214 52.8887C304.179 52.8722 302.543 51.2548 302.56 49.2763C302.575 47.2969 304.238 45.7049 306.273 45.72L316.971 45.8035V38.7632ZM336.996 31.5947C343.459 31.5947 348.699 36.6921 348.699 42.9797V56.0603C348.699 62.3478 343.459 67.4453 336.996 67.4453H304.622C298.158 67.4453 292.918 62.3478 292.918 56.0603V42.9797C292.918 36.6921 298.158 31.5947 304.622 31.5947H336.996Z" fill="black"/>
<path d="M378.581 30.6432C380.318 31.5566 380.965 33.6674 380.026 35.358L372.472 48.9483L378.135 48.0207C380.023 47.7104 381.812 48.9493 382.13 50.7865C382.139 50.8393 382.147 50.8923 382.154 50.9452C382.406 51.8201 382.308 52.7894 381.801 53.6357L373.614 67.3105L379.309 65.93C381.167 65.4794 383.049 66.5801 383.512 68.3877C383.975 70.1953 382.844 72.0264 380.986 72.4759L367.171 75.8258C365.313 76.2764 363.431 75.1758 362.968 73.3681C362.746 72.5004 362.891 71.6266 363.307 70.9034C363.388 70.6378 363.502 70.3784 363.652 70.1292L372.209 55.833L366.557 56.7596C364.668 57.0689 362.88 55.8299 362.562 53.9928C362.518 53.7436 362.504 53.4965 362.517 53.2533C362.492 52.6501 362.629 52.0316 362.946 51.4609L373.734 32.0489C374.674 30.3583 376.844 29.7297 378.581 30.6432ZM383.225 80.5539C383.784 82.3971 382.703 84.3318 380.808 84.876L366.995 88.8463C365.1 89.3916 363.111 88.3387 362.551 86.4965C361.992 84.6544 363.073 82.7186 364.967 82.1743L378.782 78.2041C380.677 77.6598 382.666 78.7116 383.225 80.5539ZM412.35 32.6085L413.915 35.4078C414.888 37.1463 414.227 39.3232 412.44 40.2692C412.31 40.3374 412.178 40.3975 412.046 40.4493H422.948C424.923 40.4493 426.524 42.0067 426.524 43.9283C426.524 45.8498 424.923 47.4072 422.948 47.4072H414.845V54.9968H421.829C423.804 54.9968 425.405 56.5543 425.405 58.4748C425.405 60.3963 423.804 61.9536 421.829 61.9536H414.845V69.5433H421.829C423.804 69.5433 425.405 71.1006 425.405 73.0222C425.405 74.9438 423.804 76.5012 421.829 76.5012H414.845V84.0908H423.63C425.605 84.0908 427.206 85.6482 427.206 87.5697C427.206 89.4903 425.605 91.0476 423.63 91.0476H400.625C398.65 91.0476 397.049 89.4903 397.049 87.5697C397.049 85.6482 398.65 84.0908 400.625 84.0908H407.476V76.5012H401.499C399.523 76.5012 397.922 74.9438 397.922 73.0222C397.922 71.1006 399.523 69.5433 401.499 69.5433H407.476V61.9536H401.499C399.523 61.9536 397.922 60.3963 397.922 58.4748C397.922 56.5543 399.523 54.9968 401.499 54.9968H407.476V47.4072H400.625C398.65 47.4072 397.049 45.8498 397.049 43.9283C397.049 42.0067 398.65 40.4493 400.625 40.4493H409.313C408.541 40.1513 407.87 39.5978 407.442 38.834L405.877 36.0345C404.904 34.2961 405.565 32.1191 407.353 31.1731C409.14 30.2272 411.377 30.87 412.35 32.6085ZM398.856 30.5129C400.667 31.4163 401.384 33.5758 400.456 35.3377L395.043 45.6139L395.13 89.2899C395.134 91.2695 393.487 92.8777 391.454 92.8817C389.419 92.8847 387.765 91.2836 387.762 89.3041L387.7 58.5011C386.632 59.1705 385.236 59.2834 384.023 58.6792C382.212 57.7768 381.496 55.6163 382.424 53.8555L393.897 32.0693C394.825 30.3074 397.046 29.6107 398.856 30.5129Z" fill="black"/>
</svg>
