<svg width="470" height="121" viewBox="0 0 470 121" fill="none" xmlns="http://www.w3.org/2000/svg">
<rect width="469.206" height="121" rx="60.5" fill="white"/>
<path fill-rule="evenodd" clip-rule="evenodd" d="M83.1335 19.858L83.7475 19.8631C103.958 20.1917 120.242 36.7267 120.242 57.0753L120.243 64.8822C124.725 68.5972 127.583 74.2158 127.583 80.5032C127.583 91.6883 118.543 100.755 107.391 100.755H66.2174C64.6969 100.755 63.2154 100.586 61.7907 100.267L61.4363 100.184C52.5919 98.0302 46.0254 90.0357 46.0254 80.5032V57.0753C46.0254 36.5206 62.6396 19.858 83.1335 19.858Z" fill="#76DD33"/>
<path fill-rule="evenodd" clip-rule="evenodd" d="M60.6417 66.1455C60.6417 68.8426 58.4555 71.0287 55.7585 71.0287H46.8832C44.1861 71.0287 42 68.8426 42 66.1455C42 63.4483 44.1861 61.2623 46.8832 61.2623H55.7585C58.4555 61.2623 60.6417 63.4483 60.6417 66.1455Z" fill="#CCFFAA"/>
<path fill-rule="evenodd" clip-rule="evenodd" d="M127.582 66.1455C127.582 68.8426 125.396 71.0287 122.699 71.0287H117.638C114.941 71.0287 112.753 68.8426 112.753 66.1455C112.753 63.4483 114.941 61.2623 117.638 61.2623H122.699C125.396 61.2623 127.582 63.4483 127.582 66.1455Z" fill="#CCFFAA"/>
<path d="M86.4568 18.6616C91.0175 18.0084 94.5542 19.3734 97.0494 22.0715C98.402 23.5355 99.1716 25.0365 99.5136 26.1264C99.798 27.0299 99.2963 27.9921 98.3928 28.2755C97.5428 28.5432 96.6414 28.1137 96.3014 27.3101L96.1912 27.0063L96.0995 26.7868C96.0439 26.6611 95.9738 26.5127 95.8883 26.3448C95.5442 25.6732 95.094 25.0065 94.5326 24.3988C92.7802 22.5042 90.352 21.5668 86.942 22.0551C83.9997 22.4764 81.9651 23.7827 80.601 25.6999C80.0695 26.4468 79.678 27.2401 79.4091 28.021L79.3051 28.3382L79.2288 28.603C79.2082 28.6823 79.1907 28.7514 79.1784 28.81L79.1505 28.9554C79.0052 29.8908 78.1296 30.5316 77.1941 30.3863C76.2587 30.241 75.6179 29.3644 75.7632 28.43C75.9517 27.2112 76.5483 25.4856 77.8082 23.7127C79.6996 21.0526 82.5543 19.2199 86.4568 18.6616Z" fill="#004312"/>
<path fill-rule="evenodd" clip-rule="evenodd" d="M70.4727 53.4898C70.4727 64.6274 79.4798 73.6552 90.6029 73.6552C101.714 73.6552 110.722 64.6274 110.722 53.4898C110.722 52.6399 110.668 51.8004 110.56 50.972C109.336 41.0182 100.866 33.3132 90.6029 33.3132C82.9474 33.3132 76.2913 37.5855 72.8885 43.8914C71.3525 46.7431 70.4727 50.014 70.4727 53.4898Z" fill="white"/>
<path fill-rule="evenodd" clip-rule="evenodd" d="M85.6377 51.2284C85.6377 57.6785 90.8546 62.9068 97.2883 62.9068C103.723 62.9068 108.94 57.6785 108.94 51.2284C108.94 44.7792 103.723 39.5499 97.2883 39.5499C90.8546 39.5499 85.6377 44.7792 85.6377 51.2284Z" fill="#004312"/>
<path fill-rule="evenodd" clip-rule="evenodd" d="M72.2762 73.8726C72.5492 74.7441 72.0784 75.6703 71.2213 75.968C71.246 76.0185 71.2687 76.0721 71.2892 76.1256C72.0784 78.2808 73.9699 80.2485 76.2271 81.2612C77.6539 81.902 79.8987 82.4531 82.4835 81.4332C83.3499 81.0923 84.3296 81.5167 84.6717 82.3831C85.0137 83.2496 84.5882 84.2282 83.7219 84.5702C82.3588 85.107 80.9619 85.3749 79.5639 85.3749C77.9743 85.3749 76.3857 85.0286 74.8445 84.3375C72.3112 83.2001 70.1086 81.1489 68.8065 78.7846C68.5057 79.2987 67.9493 79.6191 67.3518 79.6191C67.2106 79.6191 67.0675 79.6006 66.9243 79.5634C66.0228 79.3286 65.483 78.4076 65.7189 77.5061C66.3875 74.9513 67.7166 73.5337 70.1633 72.7672C71.0523 72.4911 71.9981 72.9845 72.2762 73.8726Z" fill="#004312"/>
<path fill-rule="evenodd" clip-rule="evenodd" d="M179.659 76.594C178.631 74.9002 176.424 74.3606 174.731 75.3888L166.333 80.4867C164.64 81.5147 164.1 83.721 165.128 85.4148C165.803 86.5272 166.987 87.1408 168.198 87.1408C168.832 87.1408 169.475 86.9731 170.056 86.62L178.454 81.5221C180.148 80.4939 180.688 78.2877 179.659 76.594ZM173.397 72.8606C174 73.2512 174.677 73.4387 175.347 73.4387C176.521 73.4387 177.672 72.8626 178.359 71.8033C179.438 70.1408 178.965 67.9199 177.302 66.8408L172.67 63.8355C171.007 62.7574 168.787 63.2304 167.708 64.8929C166.629 66.5543 167.103 68.7762 168.765 69.8543L173.397 72.8606ZM204.809 82.0168C200.921 80.0648 197.75 77.6565 195.348 74.8429L195.493 74.7408L202.581 70.1408C204.243 69.0627 204.717 66.8408 203.638 65.1793C202.559 63.5168 200.338 63.0439 198.676 64.122L191.527 68.7606C191.487 68.7866 191.447 68.8137 191.408 68.8408L191.24 68.9605C189.599 66.2887 188.879 64.5407 188.41 62.7387V60.622H203.432C205.474 60.622 207.129 58.9669 207.129 56.9251C207.129 54.8846 205.474 53.2293 203.432 53.2293H199.499L201.293 41.7075C201.367 41.2273 201.405 40.7376 201.405 40.2523C201.405 35.0366 197.163 30.7939 191.947 30.7939H170.226C168.245 30.7939 166.639 32.4001 166.639 34.3814C166.639 36.3637 168.245 37.969 170.226 37.969L190.325 37.9929C192.246 37.995 193.801 39.5543 193.799 41.4762C193.798 41.6523 193.784 41.8272 193.757 42.0023L192.029 53.2293H166.591C164.549 53.2293 162.895 54.8846 162.895 56.9251C162.895 58.9669 164.549 60.622 166.591 60.622H181.019V83.5981C181.019 85.2627 179.665 86.6158 178 86.6158C177.912 86.6158 177.822 86.6126 177.733 86.6043C175.699 86.4242 173.905 87.9262 173.724 89.9585C173.544 91.9918 175.046 93.7866 177.079 93.9679C177.384 93.995 177.694 94.0085 178 94.0085C183.741 94.0085 188.41 89.3387 188.41 83.5981V77.622C191.591 81.997 196.02 85.6335 201.591 88.4293C202.107 88.6887 202.656 88.8106 203.197 88.8106C204.512 88.8106 205.776 88.0866 206.406 86.8325C207.295 85.0616 206.58 82.9054 204.809 82.0168ZM187.994 49.1032H188.007C189.982 49.1032 191.588 47.5064 191.595 45.5304C191.602 43.5492 190.003 41.9366 188.022 41.9283L171.862 41.8658C171.856 41.8658 171.852 41.8658 171.847 41.8658C169.872 41.8658 168.268 43.4627 168.259 45.4387C168.252 47.42 169.852 49.0324 171.833 49.0407L187.994 49.1032ZM159.431 78.472L145.572 82.5678C143.672 83.1283 142.587 85.1241 143.148 87.0241C143.609 88.5855 145.039 89.596 146.588 89.596C146.924 89.596 147.266 89.5481 147.605 89.4481L161.465 85.3534C163.365 84.7918 164.449 82.796 163.888 80.896C163.326 78.9961 161.331 77.9106 159.431 78.472ZM164.176 68.3491C164.641 70.2137 163.506 72.1012 161.642 72.5658L147.783 76.02C147.501 76.0898 147.218 76.1241 146.94 76.1241C145.379 76.1241 143.961 75.0669 143.566 73.4856C143.343 72.5887 143.493 71.6877 143.913 70.9408C143.993 70.6689 144.102 70.4012 144.251 70.145L152.838 55.4012L147.167 56.3564C146.971 56.3897 146.776 56.4054 146.584 56.4054C144.917 56.4054 143.445 55.2033 143.158 53.5044C143.115 53.2429 143.103 52.9846 143.118 52.7303C143.094 52.1117 143.227 51.4782 143.544 50.8929L154.368 30.8731C155.309 29.1303 157.487 28.4814 159.229 29.4242C160.972 30.3658 161.621 32.5429 160.679 34.2856L153.101 48.3012L158.781 47.3449C160.676 47.0251 162.471 48.3022 162.79 50.1971C162.798 50.2481 162.801 50.2992 162.807 50.3502C163.065 51.2553 162.971 52.2585 162.459 53.1356L154.247 67.2387L159.959 65.8148C161.823 65.3502 163.712 66.4846 164.176 68.3491Z" fill="black"/>
<path fill-rule="evenodd" clip-rule="evenodd" d="M261.719 51.0604H236.298C233.655 51.0604 231.515 53.202 231.515 55.8438V58.6833C231.515 61.325 233.655 63.4667 236.298 63.4667H261.719C264.36 63.4667 266.502 61.325 266.502 58.6833V55.8438C266.502 53.202 264.36 51.0604 261.719 51.0604ZM262.367 70.8989H235.624C229.15 70.8989 223.883 65.6312 223.883 59.1573V55.4083C223.883 48.9354 229.15 43.6676 235.624 43.6676H262.367C268.841 43.6676 274.108 48.9354 274.108 55.4083V59.1573C274.108 65.6312 268.841 70.8989 262.367 70.8989ZM228.632 73.0416C227.121 74.501 227.079 76.9104 228.54 78.4219L231.926 81.926C232.672 82.6989 233.667 83.0864 234.662 83.0864C235.615 83.0864 236.568 82.7323 237.306 82.0187C238.817 80.5583 238.858 78.1489 237.398 76.6385L234.013 73.1333C232.552 71.6229 230.143 71.5812 228.632 73.0416ZM277.163 84.4447L265.88 84.4042L270.297 77.7792C271.462 76.0312 270.99 73.6687 269.242 72.5031C267.493 71.3375 265.131 71.8104 263.966 73.5583L256.755 84.3718L220.635 84.2427H220.622C218.587 84.2427 216.933 85.8895 216.926 87.926C216.919 89.9677 218.568 91.6281 220.609 91.6354L277.137 91.8364H277.15C279.185 91.8364 280.839 90.1906 280.846 88.1542C280.853 86.1124 279.204 84.452 277.163 84.4447ZM219.1 35.3906C219.109 33.3541 220.763 31.7094 222.796 31.7094H222.813L275.101 31.9364C277.142 31.9447 278.79 33.6073 278.781 35.6479C278.772 37.6843 277.119 39.3281 275.085 39.3281H275.069L222.78 39.1021C220.74 39.0938 219.092 37.4313 219.1 35.3906Z" fill="black"/>
<path d="M294.038 72.6087C294.751 70.6933 296.926 69.7025 298.896 70.3973C300.866 71.091 301.883 73.2069 301.17 75.1223L297.206 85.7656C296.491 87.6821 294.316 88.6719 292.347 87.9781C290.378 87.2834 289.36 85.1676 290.074 83.2522L294.038 72.6087ZM323.458 69.6924L326.71 73.2029C328.111 74.7164 327.987 77.049 326.43 78.4132C324.874 79.7773 322.476 79.6552 321.074 78.1415L317.823 74.631C316.42 73.1174 316.546 70.7839 318.102 69.4197C319.658 68.0567 322.057 68.1777 323.458 69.6924ZM340.378 70.0381C342.166 68.9742 344.5 69.5215 345.593 71.26L351.987 81.4272C353.08 83.1656 352.517 85.4371 350.73 86.5002C348.944 87.5632 346.609 87.0159 345.516 85.2783L339.123 75.1102C338.03 73.3717 338.592 71.1012 340.378 70.0381ZM307.022 69.0738C309.116 69.0738 310.814 70.7258 310.814 72.7633V73.1948L310.812 73.1855V80.5687C310.812 82.4321 312.365 83.9418 314.28 83.9418H329.09C331.005 83.9418 332.558 82.4321 332.558 80.5687V80.5594L332.659 80.5554C333.058 78.9339 334.558 77.7295 336.347 77.7295C338.442 77.7295 340.14 79.3815 340.14 81.4191V81.9297C340.14 87.1115 335.821 91.3116 330.496 91.3116H312.872C307.546 91.3116 303.229 87.1115 303.229 81.9297V72.7633C303.229 70.7258 304.926 69.0738 307.022 69.0738ZM336.357 38.7633H324.557V45.8616L335.441 45.9449C337.476 45.9602 339.112 47.5776 339.096 49.5571C339.08 51.5367 337.417 53.1287 335.382 53.1133L324.557 53.03V60.2768H336.495C339.064 60.2057 341.125 58.1569 341.125 55.6403V43.4019C341.125 40.8395 338.991 38.7633 336.357 38.7633ZM316.971 38.7633H305.272C302.639 38.7633 300.504 40.8395 300.504 43.4019V55.6403C300.504 58.1569 302.565 60.2057 305.134 60.2768H316.971V52.971L306.214 52.8887C304.179 52.8723 302.543 51.2549 302.56 49.2764C302.575 47.297 304.238 45.7049 306.273 45.7201L316.971 45.8035V38.7633ZM336.996 31.5947C343.459 31.5947 348.699 36.6922 348.699 42.9797V56.0604C348.699 62.3478 343.459 67.4454 336.996 67.4454H304.622C298.158 67.4454 292.918 62.3478 292.918 56.0604V42.9797C292.918 36.6922 298.158 31.5947 304.622 31.5947H336.996Z" fill="black"/>
<path d="M378.581 30.6433C380.318 31.5567 380.965 33.6675 380.026 35.3581L372.472 48.9484L378.135 48.0207C380.023 47.7104 381.812 48.9494 382.13 50.7866C382.139 50.8394 382.147 50.8923 382.154 50.9453C382.406 51.8201 382.308 52.7895 381.801 53.6358L373.614 67.3105L379.309 65.9301C381.167 65.4795 383.049 66.5801 383.512 68.3878C383.975 70.1953 382.844 72.0265 380.986 72.476L367.171 75.8259C365.313 76.2765 363.431 75.1758 362.968 73.3682C362.746 72.5004 362.891 71.6267 363.307 70.9034C363.388 70.6378 363.502 70.3784 363.652 70.1293L372.209 55.8331L366.557 56.7597C364.668 57.0689 362.88 55.83 362.562 53.9929C362.518 53.7436 362.504 53.4965 362.517 53.2533C362.492 52.6502 362.629 52.0317 362.946 51.4609L373.734 32.049C374.674 30.3584 376.844 29.7298 378.581 30.6433ZM383.225 80.554C383.784 82.3972 382.703 84.3319 380.808 84.8761L366.995 88.8464C365.1 89.3916 363.111 88.3388 362.551 86.4966C361.992 84.6545 363.073 82.7187 364.967 82.1744L378.782 78.2042C380.677 77.6599 382.666 78.7116 383.225 80.554ZM412.35 32.6085L413.915 35.4079C414.888 37.1464 414.227 39.3233 412.44 40.2693C412.31 40.3375 412.178 40.3975 412.046 40.4494H422.948C424.923 40.4494 426.524 42.0067 426.524 43.9283C426.524 45.8499 424.923 47.4073 422.948 47.4073H414.845V54.9969H421.829C423.804 54.9969 425.405 56.5543 425.405 58.4749C425.405 60.3964 423.804 61.9537 421.829 61.9537H414.845V69.5434H421.829C423.804 69.5434 425.405 71.1007 425.405 73.0222C425.405 74.9438 423.804 76.5013 421.829 76.5013H414.845V84.0909H423.63C425.605 84.0909 427.206 85.6483 427.206 87.5698C427.206 89.4903 425.605 91.0477 423.63 91.0477H400.625C398.65 91.0477 397.049 89.4903 397.049 87.5698C397.049 85.6483 398.65 84.0909 400.625 84.0909H407.476V76.5013H401.499C399.523 76.5013 397.922 74.9438 397.922 73.0222C397.922 71.1007 399.523 69.5434 401.499 69.5434H407.476V61.9537H401.499C399.523 61.9537 397.922 60.3964 397.922 58.4749C397.922 56.5543 399.523 54.9969 401.499 54.9969H407.476V47.4073H400.625C398.65 47.4073 397.049 45.8499 397.049 43.9283C397.049 42.0067 398.65 40.4494 400.625 40.4494H409.313C408.541 40.1514 407.87 39.5979 407.442 38.834L405.877 36.0346C404.904 34.2962 405.565 32.1192 407.353 31.1732C409.14 30.2273 411.377 30.87 412.35 32.6085ZM398.856 30.513C400.667 31.4163 401.384 33.5759 400.456 35.3378L395.043 45.6139L395.13 89.29C395.134 91.2695 393.487 92.8777 391.454 92.8818C389.419 92.8848 387.765 91.2837 387.762 89.3041L387.7 58.5012C386.632 59.1706 385.236 59.2834 384.023 58.6793C382.212 57.7769 381.496 55.6164 382.424 53.8556L393.897 32.0694C394.825 30.3075 397.046 29.6107 398.856 30.513Z" fill="black"/>
</svg>
