<svg width="470" height="121" viewBox="0 0 470 121" fill="none" xmlns="http://www.w3.org/2000/svg">
<path fill-rule="evenodd" clip-rule="evenodd" d="M97.1344 23.8048C94.6569 21.1384 91.1453 19.7896 86.616 20.4353C85.1007 20.6505 83.7443 21.0595 82.5416 21.634L82.5601 21.6253C82.4168 21.6935 82.2757 21.7637 82.1374 21.8367C82.1189 21.8464 82.1004 21.8561 82.081 21.8659L82.1374 21.8367C82.0898 21.861 82.0429 21.8862 81.9962 21.9116L82.081 21.8659C82.042 21.8873 82.003 21.9077 81.9641 21.9291L81.9962 21.9116C81.9553 21.934 81.9144 21.9564 81.8744 21.9789L81.9641 21.9291C81.9125 21.9574 81.8609 21.9867 81.8092 22.0148L81.8744 21.9789C81.8385 21.9983 81.8033 22.0187 81.7683 22.0382L81.8092 22.0148C81.7692 22.0382 81.7294 22.0606 81.6905 22.083L81.7683 22.0382C81.7002 22.0772 81.6319 22.1171 81.5648 22.157L81.6905 22.083C81.6398 22.1132 81.5891 22.1424 81.5395 22.1727L81.5648 22.157C81.5229 22.1813 81.4821 22.2067 81.4411 22.232L81.5395 22.1727C81.4897 22.2028 81.4402 22.232 81.3915 22.2632L81.4411 22.232C81.3994 22.2573 81.3583 22.2836 81.3165 22.3089L81.3915 22.2632C81.3477 22.2895 81.3049 22.3167 81.263 22.3441L81.3165 22.3089C81.2766 22.3343 81.2366 22.3605 81.1968 22.3858L81.263 22.3441C81.2201 22.3703 81.1792 22.3975 81.1373 22.4249L81.1968 22.3858C81.1004 22.4492 81.0039 22.5125 80.9094 22.5777C80.8908 22.5914 80.8725 22.604 80.854 22.6176L80.9094 22.5777C80.8218 22.6391 80.7341 22.7014 80.6484 22.7637C80.6397 22.7705 80.6309 22.7773 80.6221 22.7832L80.6484 22.7637C80.5608 22.8279 80.4751 22.8932 80.3904 22.9594C80.3777 22.9692 80.3651 22.9789 80.3524 22.9886L80.3904 22.9594C80.3514 22.9886 80.3134 23.0189 80.2755 23.05L80.3524 22.9886C80.3164 23.0169 80.2803 23.0452 80.2443 23.0744L80.2755 23.05C80.2365 23.0802 80.1977 23.1114 80.1586 23.1435L80.2443 23.0744C80.2025 23.1075 80.1615 23.1416 80.1196 23.1756L80.1586 23.1435C80.1236 23.1717 80.0885 23.2009 80.0543 23.2301L80.1196 23.1756C80.0826 23.2068 80.0446 23.238 80.0077 23.2691L80.0543 23.2301C80.0203 23.2584 79.9872 23.2867 79.9541 23.3159L80.0077 23.2691C79.9142 23.349 79.8216 23.4298 79.7301 23.5116C79.7204 23.5213 79.7096 23.5301 79.6999 23.5398L79.7301 23.5116C79.7019 23.5379 79.6736 23.5632 79.6454 23.5896L79.6999 23.5398C79.659 23.5768 79.618 23.6148 79.5781 23.6528L79.6454 23.5896C79.6094 23.6227 79.5743 23.6558 79.5393 23.6889L79.5781 23.6528C79.5519 23.6762 79.5265 23.7005 79.5022 23.7239L79.5393 23.6889C79.5042 23.722 79.4691 23.7551 79.435 23.7882L79.5022 23.7239C79.4652 23.76 79.4283 23.795 79.3913 23.8311L79.435 23.7882C79.3951 23.8272 79.3552 23.8661 79.3163 23.9059C79.291 23.9303 79.2656 23.9557 79.2412 23.981L79.3163 23.9059C79.2773 23.945 79.2383 23.984 79.1995 24.0238L79.2412 23.981C79.2092 24.0132 79.177 24.0463 79.1458 24.0794L79.1995 24.0238C79.1662 24.0579 79.1342 24.0919 79.101 24.1262L79.1458 24.0794C79.1088 24.1173 79.0728 24.1554 79.0368 24.1933L79.101 24.1262C79.0659 24.1632 79.0319 24.1991 78.9969 24.2362L79.0368 24.1933C78.9297 24.3092 78.8235 24.4261 78.7203 24.5458C78.7076 24.5614 78.6939 24.577 78.6803 24.5926L78.7203 24.5458C78.6842 24.5877 78.6481 24.6306 78.6122 24.6734L78.6803 24.5926C78.6501 24.6276 78.6201 24.6637 78.5898 24.6997L78.6122 24.6734C78.5898 24.6997 78.5673 24.726 78.546 24.7533L78.5898 24.6997C78.5645 24.7308 78.5381 24.7621 78.5128 24.7931L78.546 24.7533C78.507 24.801 78.4681 24.8487 78.4291 24.8964C78.3794 24.9587 78.3297 25.022 78.2811 25.0852C78.2665 25.1048 78.2509 25.1252 78.2354 25.1447L78.2811 25.0852C78.2577 25.1165 78.2333 25.1477 78.21 25.1797L78.2354 25.1447C78.1652 25.2382 78.096 25.3317 78.0288 25.4261L77.9334 25.5616C77.9256 25.5723 77.9178 25.5829 77.911 25.5937C77.8876 25.6278 77.8653 25.6609 77.8419 25.694L77.911 25.5937C77.8778 25.6414 77.8458 25.6881 77.8146 25.7348L77.8419 25.694C77.8127 25.7378 77.7824 25.7816 77.7542 25.8263L77.8146 25.7348C76.7094 27.3768 76.1746 28.9544 75.9974 30.0869C75.8533 31.0111 76.4902 31.8768 77.4183 32.0199C78.3473 32.1641 79.2169 31.5301 79.361 30.6059L79.3883 30.4637C79.3951 30.4345 79.4029 30.4023 79.4107 30.3683L79.4399 30.2583L79.5149 29.9963L79.6171 29.6837C79.8859 28.9115 80.2745 28.1286 80.8023 27.3893C81.3769 26.585 82.0722 25.8887 82.9059 25.323C82.9077 25.3219 82.9105 25.32 82.9126 25.3181L82.9059 25.323C82.934 25.3044 82.9612 25.2859 82.9895 25.2674C83.0041 25.2567 83.0197 25.247 83.0344 25.2373C83.0576 25.2226 83.0801 25.208 83.1025 25.1934C83.1122 25.1875 83.1219 25.1818 83.1308 25.1749C83.157 25.1583 83.1842 25.1419 83.2107 25.1252C83.2193 25.1204 83.2281 25.1155 83.2369 25.1097C83.2623 25.0941 83.2876 25.0795 83.3128 25.0639C83.3255 25.056 83.3381 25.0483 83.3517 25.0405C83.3703 25.0298 83.3897 25.0181 83.4083 25.0074C83.527 24.9383 83.6479 24.8721 83.7715 24.8087C83.7744 24.8068 83.7773 24.8059 83.7793 24.8038C83.8036 24.7922 83.827 24.7805 83.8504 24.7679C83.864 24.761 83.8786 24.7542 83.8922 24.7475C83.9108 24.7376 83.9303 24.729 83.9497 24.7191C83.975 24.7065 84.0003 24.6938 84.0267 24.6822C84.0354 24.6773 84.0442 24.6734 84.053 24.6695C84.0773 24.6578 84.1007 24.647 84.1241 24.6363C84.1465 24.6257 84.1688 24.616 84.1912 24.6053C84.2098 24.5965 84.2292 24.5886 84.2486 24.5799C84.2633 24.5731 84.2779 24.5673 84.2925 24.5604C84.3208 24.5477 84.3499 24.5361 84.3782 24.5234C84.3938 24.5166 84.4094 24.5099 84.4259 24.503C84.4444 24.4952 84.4639 24.4874 84.4835 24.4796C84.5018 24.4717 84.5204 24.464 84.5389 24.4571C84.6595 24.4085 84.7834 24.3617 84.9089 24.317C84.9314 24.3092 84.9527 24.3004 84.9752 24.2926C84.9927 24.2867 85.0101 24.2809 85.0277 24.2751C85.053 24.2663 85.0774 24.2586 85.1016 24.2498C85.1223 24.2429 85.1436 24.2362 85.1651 24.2293C85.1815 24.2234 85.1992 24.2186 85.2167 24.2128C85.2439 24.204 85.2712 24.1952 85.2994 24.1864C85.3161 24.1816 85.3316 24.1767 85.3471 24.1718C85.3832 24.1611 85.4192 24.1504 85.4562 24.1387C85.4601 24.1378 85.464 24.1368 85.4668 24.1358L85.5009 24.1262C85.5702 24.1066 85.6403 24.0872 85.7104 24.0676C85.7396 24.0599 85.7698 24.0521 85.799 24.0453C85.8282 24.0375 85.8573 24.0296 85.8867 24.0229C85.9177 24.015 85.95 24.0073 85.9812 23.9995C85.9928 23.9965 86.0044 23.9937 86.0162 23.9917C86.0366 23.9868 86.0571 23.9819 86.0775 23.9771C86.1106 23.9694 86.1438 23.9625 86.1758 23.9548C86.1876 23.9527 86.1983 23.9499 86.2091 23.9479C86.2371 23.9411 86.2654 23.9353 86.2948 23.9294C86.3239 23.9235 86.3531 23.9167 86.3833 23.9109C86.3998 23.908 86.4174 23.9041 86.4349 23.9002C86.4622 23.8953 86.4884 23.8904 86.5157 23.8846C86.5391 23.8807 86.5635 23.8758 86.5877 23.871C86.613 23.8671 86.6384 23.8622 86.6637 23.8573C86.6832 23.8543 86.7037 23.8505 86.7232 23.8476C86.7504 23.8427 86.7777 23.8379 86.804 23.8339C86.8302 23.829 86.8566 23.8251 86.8839 23.8203C86.9062 23.8174 86.9296 23.8135 86.9529 23.8096C87.0016 23.8019 87.0493 23.795 87.0981 23.7882C87.7135 23.7005 88.2979 23.6597 88.85 23.6616L88.9688 23.6635C91.3986 23.7025 93.2342 24.5965 94.6355 26.1049L94.7086 26.1848C94.8039 26.2899 94.8966 26.3971 94.9851 26.5062C95.0085 26.5343 95.0318 26.5636 95.0552 26.5928C95.061 26.6005 95.0668 26.6074 95.0727 26.6151C95.1001 26.6493 95.1263 26.6825 95.1516 26.7165C95.1624 26.7302 95.1721 26.7427 95.1819 26.7554C95.2041 26.7856 95.2266 26.8158 95.249 26.846C95.2938 26.9073 95.3387 26.9687 95.3815 27.0301C95.3961 27.0525 95.4116 27.0739 95.4262 27.0963C95.4428 27.1197 95.4594 27.144 95.4749 27.1684C95.4876 27.1859 95.4992 27.2043 95.5119 27.2228C95.5226 27.2404 95.5343 27.2579 95.5451 27.2745C95.5635 27.3027 95.5821 27.3309 95.5996 27.3592C95.6064 27.3699 95.6122 27.3796 95.618 27.3893C95.6376 27.4206 95.6571 27.4516 95.6756 27.4829C95.6902 27.5062 95.7048 27.5306 95.7194 27.5539C95.7319 27.5753 95.7447 27.5968 95.7564 27.6183C95.7661 27.6348 95.7759 27.6514 95.7856 27.6679C95.8002 27.6943 95.8148 27.7195 95.8295 27.7448C95.844 27.7712 95.8586 27.7965 95.8723 27.8228C95.8801 27.8374 95.8887 27.852 95.8966 27.8666L95.9112 27.8948L95.9814 28.0273C96.0417 28.145 96.0953 28.2541 96.14 28.3516L96.1907 28.4635L96.2822 28.6807L96.3913 28.9806C96.7292 29.7752 97.6252 30.1989 98.4685 29.9349C98.7674 29.8415 99.0226 29.674 99.2183 29.4578L99.2212 29.4549C99.3274 29.338 99.4161 29.2075 99.4851 29.0663C99.4881 29.0614 99.49 29.0566 99.493 29.0517L99.4851 29.0663C99.5115 29.0137 99.5348 28.9602 99.5552 28.9046C99.5601 28.893 99.5641 28.8813 99.568 28.8686C99.5777 28.8414 99.5863 28.8141 99.5942 28.7868C99.5962 28.7791 99.5982 28.7722 99.6 28.7654L99.5942 28.7868C99.5991 28.7703 99.604 28.7538 99.6079 28.7362L99.6 28.7654C99.6059 28.746 99.6108 28.7265 99.6147 28.7079L99.6079 28.7362C99.6127 28.7177 99.6175 28.6982 99.6215 28.6787L99.6147 28.7079C99.6196 28.6904 99.6224 28.673 99.6263 28.6563L99.6215 28.6787C99.6254 28.6612 99.6293 28.6437 99.6321 28.6251L99.6263 28.6563C99.6303 28.6369 99.6342 28.6184 99.637 28.5989L99.6321 28.6251C99.644 28.5628 99.6527 28.4986 99.6565 28.4343C99.6574 28.4265 99.6574 28.4187 99.6586 28.4109L99.6565 28.4343C99.6595 28.3944 99.6604 28.3534 99.6604 28.3126C99.6604 28.3067 99.6604 28.3009 99.6604 28.295V28.3126C99.6604 28.2503 99.6565 28.1879 99.6488 28.1246C99.6477 28.114 99.6468 28.1042 99.6449 28.0935L99.6488 28.1246C99.6468 28.1042 99.644 28.0838 99.641 28.0633L99.6449 28.0935C99.6428 28.0769 99.64 28.0604 99.638 28.0438L99.641 28.0633C99.638 28.0458 99.6351 28.0273 99.6312 28.0088L99.638 28.0438C99.6342 28.0243 99.6303 28.0039 99.6263 27.9844L99.6312 28.0088C99.6273 27.9893 99.6234 27.9697 99.6196 27.9513L99.6263 27.9844C99.6224 27.9629 99.6175 27.9426 99.6127 27.922L99.6196 27.9513C99.6157 27.9319 99.6108 27.9134 99.6059 27.8948L99.6127 27.922C99.604 27.8851 99.5933 27.8481 99.5816 27.8111C99.5766 27.7965 99.5717 27.7809 99.5669 27.7652L99.5816 27.8111C99.5717 27.7809 99.5622 27.7506 99.5525 27.7205C99.5464 27.7029 99.5406 27.6864 99.5348 27.6689L99.5525 27.7205C99.5066 27.5822 99.454 27.4391 99.3957 27.29C99.3927 27.2842 99.3907 27.2774 99.3878 27.2716L99.3957 27.29C99.3858 27.2657 99.3761 27.2423 99.3663 27.2179L99.3878 27.2716C99.3751 27.2394 99.3615 27.2072 99.3488 27.1751L99.3663 27.2179C99.3527 27.1848 99.3392 27.1528 99.3255 27.1186L99.3488 27.1751C99.3283 27.1274 99.3079 27.0787 99.2875 27.031C99.2486 26.9404 99.2066 26.8489 99.1628 26.7554C99.1015 26.6259 99.0353 26.4944 98.9642 26.3591C98.9369 26.3075 98.9077 26.2549 98.8795 26.2013C98.8716 26.1887 98.8648 26.176 98.858 26.1633L98.8795 26.2013C98.8414 26.1331 98.8026 26.065 98.7626 25.9949C98.7528 25.9793 98.744 25.9627 98.7343 25.9471L98.7626 25.9949C98.7449 25.9657 98.7275 25.9354 98.71 25.9053L98.7343 25.9471C98.7178 25.9189 98.7012 25.8907 98.6847 25.8624L98.71 25.9053C98.6924 25.8761 98.6759 25.8469 98.6583 25.8177L98.6847 25.8624C98.6048 25.729 98.521 25.5937 98.4316 25.4583C98.3838 25.3853 98.334 25.3112 98.2834 25.2373C98.2699 25.2167 98.2553 25.1964 98.2406 25.1759L98.2834 25.2373C98.2591 25.2012 98.2338 25.1651 98.2085 25.1291L98.2406 25.1759C98.1891 25.1009 98.1363 25.0268 98.0819 24.952C98.074 24.9412 98.0652 24.9295 98.0576 24.9189L98.0819 24.952C98.0312 24.8828 97.9786 24.8126 97.9251 24.7415C97.9144 24.7279 97.9038 24.7144 97.8929 24.7007L97.9251 24.7415C97.8998 24.7094 97.8744 24.6762 97.8491 24.6431L97.8929 24.7007C97.8667 24.6665 97.8403 24.6324 97.8141 24.5984L97.8491 24.6431C97.631 24.3647 97.3934 24.0842 97.1344 23.8048ZM97.372 41.0755C90.9827 41.0755 85.8029 46.2416 85.8029 52.6154C85.8029 58.9881 90.9827 64.1543 97.372 64.1543C103.761 64.1543 108.942 58.9881 108.942 52.6154C108.942 46.2416 103.761 41.0755 97.372 41.0755ZM90.7334 34.9121C100.924 34.9121 109.336 42.5256 110.551 52.3612C110.658 53.1802 110.711 54.0099 110.711 54.8494C110.711 65.8545 101.767 74.7757 90.7334 74.7757C79.6891 74.7757 70.7446 65.8545 70.7446 54.8494C70.7446 51.4146 71.6191 48.1825 73.1432 45.3652C76.5223 39.1337 83.1326 34.9121 90.7334 34.9121ZM72.5355 74.99C72.8071 75.8508 72.3388 76.7662 71.4887 77.0613C71.5129 77.1111 71.5354 77.1635 71.5549 77.2172C72.3388 79.3469 74.2183 81.2906 76.4581 82.2918C77.876 82.9248 80.105 83.4691 82.672 82.4612C83.5319 82.1242 84.5048 82.544 84.8437 83.4C85.1836 84.2559 84.7609 85.2229 83.9011 85.5609C82.5474 86.0916 81.1597 86.3565 79.772 86.3565C78.1944 86.3565 76.6158 86.0137 75.086 85.3301C72.5706 84.2073 70.3834 82.1807 69.0911 79.8435C68.7922 80.3518 68.2399 80.6684 67.6459 80.6684C67.5057 80.6684 67.3635 80.6508 67.2213 80.6139C66.3265 80.3811 65.7908 79.4715 66.0245 78.5805C66.6877 76.0553 68.0072 74.655 70.4369 73.8983C71.3201 73.6247 72.2599 74.1125 72.5355 74.99ZM72.9007 27.0661L72.7274 27.1235C59.6615 31.5292 50.2553 43.8636 50.2553 58.3931V61.0604L56.145 61.0614C59.5953 61.0614 62.3989 63.8231 62.4544 67.2511L62.4555 67.3551C62.4555 70.8317 59.6305 73.6491 56.145 73.6491H50.2553V81.5419C50.2553 88.9985 55.3338 95.4374 62.4485 97.2652L62.6599 97.3179L62.9589 97.3879L63.1556 97.4308C64.1829 97.6461 65.2367 97.7619 66.305 97.7756L66.5192 97.7775H107.402C116.385 97.7775 123.667 90.5089 123.667 81.5419C123.667 78.7197 122.943 76.0194 121.62 73.6491H117.567C114.082 73.6491 111.256 70.8317 111.256 67.3551C111.256 64.2847 113.461 61.7274 116.377 61.1723V58.3931C116.377 47.2905 110.88 37.4559 102.443 31.4727C101.774 32.4202 100.797 33.1642 99.602 33.5381C96.9006 34.3844 94.0045 33.0415 92.9051 30.454L92.8671 30.3644L92.755 30.0577L92.718 29.9681L92.6878 29.9039C92.6732 29.8726 92.6577 29.8405 92.6402 29.8055L92.6128 29.7519C92.4102 29.3585 92.1552 28.9903 91.8582 28.6709C90.8951 27.6348 89.673 27.2365 87.6337 27.5267C85.8341 27.7828 84.6898 28.4557 83.8855 29.5815C83.5914 29.9924 83.3596 30.4472 83.1959 30.9195L83.2009 30.9049L83.1356 31.1035L83.0918 31.2545L83.0722 31.3625C82.5319 34.2227 79.8285 36.1655 76.9294 35.7653L76.8399 35.7526C73.8453 35.2901 71.7905 32.4952 72.256 29.5065C72.3796 28.7186 72.595 27.8977 72.9007 27.0661ZM86.0815 16.6967C91.6439 15.904 96.4614 17.5246 99.9116 21.2378C101.494 22.9409 102.623 24.8701 103.192 26.6765C103.285 26.9667 103.351 27.2589 103.393 27.551C113.489 34.1098 120.163 45.4733 120.163 58.3931L120.164 61.0604L122.615 61.0614C126.066 61.0614 128.869 63.8231 128.925 67.2511L128.926 67.3551C128.926 69.7889 127.541 71.9001 125.514 72.9469C126.757 75.5509 127.453 78.4655 127.453 81.5419C127.453 92.5938 118.477 101.554 107.402 101.554H66.5192C65.0088 101.554 63.5383 101.388 62.1233 101.071L61.7709 100.989C52.9889 98.8615 46.4691 90.9617 46.4691 81.5419V73.5935C43.3811 73.1835 41 70.5464 41 67.3551C41 64.164 43.3811 61.5268 46.4691 61.116V58.3931C46.4691 40.7396 58.9311 25.9909 75.5543 22.4346C78.0969 19.3096 81.6905 17.322 86.0815 16.6967Z" fill="white"/>
<path fill-rule="evenodd" clip-rule="evenodd" d="M179.659 76.594C178.631 74.9002 176.424 74.3606 174.731 75.3888L166.333 80.4867C164.64 81.5147 164.1 83.721 165.128 85.4148C165.803 86.5272 166.987 87.1408 168.198 87.1408C168.832 87.1408 169.475 86.9731 170.056 86.62L178.454 81.5221C180.148 80.4939 180.688 78.2877 179.659 76.594ZM173.397 72.8606C174 73.2512 174.677 73.4387 175.347 73.4387C176.521 73.4387 177.672 72.8626 178.359 71.8033C179.438 70.1408 178.965 67.9199 177.302 66.8408L172.67 63.8355C171.007 62.7574 168.787 63.2304 167.708 64.8929C166.629 66.5543 167.103 68.7762 168.765 69.8543L173.397 72.8606ZM204.809 82.0168C200.921 80.0648 197.75 77.6565 195.348 74.8429L195.493 74.7408L202.581 70.1408C204.243 69.0627 204.717 66.8408 203.638 65.1793C202.559 63.5168 200.338 63.0439 198.676 64.122L191.527 68.7606C191.487 68.7866 191.447 68.8137 191.408 68.8408L191.24 68.9605C189.599 66.2887 188.879 64.5407 188.41 62.7387V60.622H203.432C205.474 60.622 207.129 58.9669 207.129 56.9251C207.129 54.8846 205.474 53.2293 203.432 53.2293H199.499L201.293 41.7075C201.367 41.2273 201.405 40.7376 201.405 40.2523C201.405 35.0366 197.163 30.7939 191.947 30.7939H170.226C168.245 30.7939 166.639 32.4001 166.639 34.3814C166.639 36.3637 168.245 37.969 170.226 37.969L190.325 37.9929C192.246 37.995 193.801 39.5543 193.799 41.4762C193.798 41.6523 193.784 41.8272 193.757 42.0023L192.029 53.2293H166.591C164.549 53.2293 162.895 54.8846 162.895 56.9251C162.895 58.9669 164.549 60.622 166.591 60.622H181.019V83.5981C181.019 85.2627 179.665 86.6158 178 86.6158C177.912 86.6158 177.822 86.6126 177.733 86.6043C175.699 86.4242 173.905 87.9262 173.724 89.9585C173.544 91.9918 175.046 93.7866 177.079 93.9679C177.384 93.995 177.694 94.0085 178 94.0085C183.741 94.0085 188.41 89.3387 188.41 83.5981V77.622C191.591 81.997 196.02 85.6335 201.591 88.4293C202.107 88.6887 202.656 88.8106 203.197 88.8106C204.512 88.8106 205.776 88.0866 206.406 86.8325C207.295 85.0616 206.58 82.9054 204.809 82.0168ZM187.994 49.1032H188.007C189.982 49.1032 191.588 47.5064 191.595 45.5304C191.602 43.5492 190.003 41.9366 188.022 41.9283L171.862 41.8658C171.856 41.8658 171.852 41.8658 171.847 41.8658C169.872 41.8658 168.268 43.4627 168.259 45.4387C168.252 47.42 169.852 49.0324 171.833 49.0407L187.994 49.1032ZM159.431 78.472L145.572 82.5678C143.672 83.1283 142.587 85.1241 143.148 87.0241C143.609 88.5855 145.039 89.596 146.588 89.596C146.924 89.596 147.266 89.5481 147.605 89.4481L161.465 85.3534C163.365 84.7918 164.449 82.796 163.888 80.896C163.326 78.9961 161.331 77.9106 159.431 78.472ZM164.176 68.3491C164.641 70.2137 163.506 72.1012 161.642 72.5658L147.783 76.02C147.501 76.0898 147.218 76.1241 146.94 76.1241C145.379 76.1241 143.961 75.0669 143.566 73.4856C143.343 72.5887 143.493 71.6877 143.913 70.9408C143.993 70.6689 144.102 70.4012 144.251 70.145L152.838 55.4012L147.167 56.3564C146.971 56.3897 146.776 56.4054 146.584 56.4054C144.917 56.4054 143.445 55.2033 143.158 53.5044C143.115 53.2429 143.103 52.9846 143.118 52.7303C143.094 52.1117 143.227 51.4782 143.544 50.8929L154.368 30.8731C155.309 29.1303 157.487 28.4814 159.229 29.4242C160.972 30.3658 161.621 32.5429 160.679 34.2856L153.101 48.3012L158.781 47.3449C160.676 47.0251 162.471 48.3022 162.79 50.1971C162.798 50.2481 162.801 50.2992 162.807 50.3502C163.065 51.2553 162.971 52.2585 162.459 53.1356L154.247 67.2387L159.959 65.8148C161.823 65.3502 163.712 66.4846 164.176 68.3491Z" fill="white"/>
<path fill-rule="evenodd" clip-rule="evenodd" d="M261.719 51.0604H236.298C233.655 51.0604 231.515 53.202 231.515 55.8438V58.6833C231.515 61.325 233.655 63.4667 236.298 63.4667H261.719C264.36 63.4667 266.502 61.325 266.502 58.6833V55.8438C266.502 53.202 264.36 51.0604 261.719 51.0604ZM262.367 70.8989H235.624C229.15 70.8989 223.883 65.6312 223.883 59.1573V55.4083C223.883 48.9354 229.15 43.6676 235.624 43.6676H262.367C268.841 43.6676 274.108 48.9354 274.108 55.4083V59.1573C274.108 65.6312 268.841 70.8989 262.367 70.8989ZM228.632 73.0416C227.121 74.501 227.079 76.9104 228.54 78.4219L231.926 81.926C232.672 82.6989 233.667 83.0864 234.662 83.0864C235.615 83.0864 236.568 82.7323 237.306 82.0187C238.817 80.5583 238.858 78.1489 237.398 76.6385L234.013 73.1333C232.552 71.6229 230.143 71.5812 228.632 73.0416ZM277.163 84.4447L265.88 84.4042L270.297 77.7792C271.462 76.0312 270.99 73.6687 269.242 72.5031C267.493 71.3375 265.131 71.8104 263.966 73.5583L256.755 84.3718L220.635 84.2427H220.622C218.587 84.2427 216.933 85.8895 216.926 87.926C216.919 89.9677 218.568 91.6281 220.609 91.6354L277.137 91.8364H277.15C279.185 91.8364 280.839 90.1906 280.846 88.1542C280.853 86.1124 279.204 84.452 277.163 84.4447ZM219.1 35.3906C219.109 33.3541 220.763 31.7094 222.796 31.7094H222.813L275.101 31.9364C277.142 31.9447 278.79 33.6073 278.781 35.6479C278.772 37.6843 277.119 39.3281 275.085 39.3281H275.069L222.78 39.1021C220.74 39.0938 219.092 37.4313 219.1 35.3906Z" fill="white"/>
<path d="M335.276 58.7838H325.398C325.405 61.8807 325.247 64.6848 324.923 67.2088H338.637V62.2338C338.637 61.3109 338.278 60.4432 337.625 59.7911C336.995 59.1608 336.163 58.8078 335.276 58.7838ZM304.851 67.2088H317.509C317.854 64.9588 318.064 62.189 318.056 58.7838H308.212C307.325 58.8078 306.494 59.1608 305.863 59.7911C305.21 60.4432 304.851 61.3109 304.851 62.2338V67.2088ZM353.418 89.3609C353.18 91.213 351.601 92.565 349.781 92.565C349.626 92.565 349.469 92.5557 349.31 92.5349C336.966 90.9536 327.837 86.4827 322.181 79.2474C321.945 78.9453 321.702 78.6286 321.458 78.3057C321.178 78.7608 320.885 79.1942 320.576 79.6026C314.93 87.2224 305.926 91.5786 293.81 92.5526C293.71 92.5609 293.61 92.565 293.512 92.565C291.619 92.565 290.012 91.1098 289.858 89.189C289.696 87.1682 291.201 85.3984 293.222 85.2359C303.279 84.4276 310.3 81.1505 314.689 75.2192C314.698 75.2056 314.708 75.1932 314.718 75.1796C314.845 75.013 314.972 74.8297 315.1 74.6296L293.502 74.5463C291.475 74.539 289.838 72.889 289.846 70.863C289.854 68.84 291.496 67.2067 293.516 67.2067H293.53L297.276 67.2213V60.9432C297.276 55.7047 301.538 51.4432 306.776 51.4432H317.961V49.4193C317.961 47.3922 319.605 45.7484 321.631 45.7484C323.658 45.7484 325.302 47.3922 325.302 49.4193V51.4432H336.627C341.865 51.4432 346.126 55.7047 346.126 60.9432V67.4099L350.094 67.4244C352.121 67.4327 353.757 69.0817 353.749 71.1087C353.742 73.1307 352.1 74.7651 350.079 74.7651H350.065L327.927 74.6796C327.939 74.6953 327.952 74.7109 327.963 74.7265C332.387 80.3848 339.883 83.9266 350.244 85.2546C352.254 85.5119 353.675 87.3505 353.418 89.3609ZM289.846 39.2796C289.854 37.2578 291.496 35.6234 293.516 35.6234H293.53L305.408 35.6693L305.42 33.8734C305.432 31.7952 307.121 30.1182 309.197 30.1182C309.205 30.1182 309.212 30.1182 309.221 30.1182C311.307 30.1307 312.988 31.8327 312.976 33.9193L312.965 35.6994L330.235 35.7661L330.247 33.8734C330.259 31.7952 331.948 30.1182 334.024 30.1182C334.032 30.1182 334.039 30.1182 334.048 30.1182C336.134 30.1307 337.815 31.8327 337.803 33.9193L337.792 35.7952L349.877 35.8421C351.905 35.8494 353.542 37.4995 353.533 39.5266C353.526 41.5484 351.883 43.1817 349.863 43.1817H349.849L337.747 43.1348L337.745 43.6337C337.731 45.713 336.043 47.3901 333.967 47.3901C333.959 47.3901 333.951 47.3901 333.944 47.389C331.857 47.3765 330.176 45.6755 330.188 43.5891L330.192 43.1057L312.921 43.039L312.917 43.6337C312.904 45.713 311.215 47.3901 309.14 47.3901C309.131 47.3901 309.124 47.3901 309.117 47.389C307.029 47.3765 305.349 45.6755 305.36 43.5891L305.365 43.0098L293.502 42.9639C291.475 42.9556 289.838 41.3067 289.846 39.2796Z" fill="white"/>
<path d="M382.357 80.8589C383.388 82.6037 382.809 84.8547 381.064 85.886L374.546 89.7359C373.971 90.0754 373.325 90.2463 372.679 90.2463C372.052 90.2463 371.424 90.0859 370.86 89.7641C369.715 89.1109 369.009 87.8943 369.009 86.5765V56.7964H366.15C364.123 56.7964 362.479 55.1537 362.479 53.1266C362.479 51.0995 364.123 49.4568 366.15 49.4568H369.225C373.153 49.4568 376.349 52.6526 376.349 56.5808V80.1454L377.331 79.5652C379.076 78.5349 381.326 79.113 382.357 80.8589ZM368.08 36.5735C366.743 35.0505 366.894 32.7318 368.417 31.3943C369.939 30.0567 372.258 30.2079 373.596 31.7307L380.069 39.1036C381.406 40.6277 381.256 42.9464 379.732 44.2839C379.035 44.8952 378.172 45.1953 377.312 45.1953C376.292 45.1953 375.278 44.7734 374.553 43.9475L368.08 36.5735ZM416.103 78.8849V82.2912C416.103 83.2141 415.744 84.0818 415.092 84.7339C414.439 85.386 413.572 85.7453 412.649 85.7453H394.988C394.065 85.7453 393.198 85.386 392.546 84.7339C391.893 84.0818 391.534 83.2141 391.534 82.2912V78.8849C391.534 77.962 391.893 77.0942 392.546 76.4422C393.198 75.79 394.065 75.4308 394.988 75.4308H412.649C413.572 75.4308 414.439 75.79 415.092 76.4422C415.744 77.0942 416.103 77.962 416.103 78.8849ZM414.052 68.2953H393.58C388.402 68.2953 384.189 72.5089 384.189 77.687V83.4912C384.189 88.6693 388.402 92.8818 393.58 92.8818H414.052C419.23 92.8818 423.443 88.6693 423.443 83.4912V77.687C423.443 72.5089 419.23 68.2953 414.052 68.2953ZM401.097 50.8891L410.544 50.9006C412.45 50.9026 413.994 52.4485 413.994 54.3547V56.8943L399.921 56.8484L401.097 50.8891ZM423.548 56.9255L421.381 56.9182V53.0349C421.381 47.8568 417.169 43.6433 411.989 43.6433H402.527L403.519 38.6181L420.808 38.6828H420.822C422.782 38.6828 424.376 37.0974 424.383 35.1339C424.391 33.1672 422.802 31.5661 420.834 31.5588L385.714 31.4265H385.701C383.74 31.4265 382.146 33.013 382.138 34.9756C382.131 36.9433 383.721 38.5443 385.687 38.5516L396.043 38.5901L395.046 43.6433H388.13C386.162 43.6433 384.568 45.238 384.568 47.2058C384.568 49.1734 386.162 50.7683 388.13 50.7683H390.6V50.8755L393.617 50.8796L392.571 56.1776C392.528 56.3952 392.509 56.6109 392.505 56.8244L383.122 56.7943H383.11C381.088 56.7943 379.447 58.4287 379.441 60.4516C379.433 62.4786 381.072 64.1277 383.098 64.1338L423.524 64.2661H423.536C425.558 64.2661 427.2 62.6307 427.206 60.6078C427.213 58.5808 425.575 56.9328 423.548 56.9255Z" fill="white"/>
</svg>
