<svg width="470" height="121" viewBox="0 0 470 121" fill="none" xmlns="http://www.w3.org/2000/svg">
<rect width="469.206" height="121" rx="60.5" fill="white"/>
<path fill-rule="evenodd" clip-rule="evenodd" d="M83.1335 19.858L83.7475 19.8631C103.958 20.1917 120.242 36.7267 120.242 57.0753L120.243 64.8822C124.725 68.5972 127.583 74.2159 127.583 80.5032C127.583 91.6883 118.543 100.755 107.391 100.755H66.2174C64.6969 100.755 63.2154 100.586 61.7907 100.267L61.4363 100.184C52.5919 98.0302 46.0254 90.0357 46.0254 80.5032V57.0753C46.0254 36.5206 62.6396 19.858 83.1335 19.858Z" fill="#76DD33"/>
<path fill-rule="evenodd" clip-rule="evenodd" d="M60.6417 66.1455C60.6417 68.8426 58.4555 71.0287 55.7585 71.0287H46.8832C44.1861 71.0287 42 68.8426 42 66.1455C42 63.4483 44.1861 61.2623 46.8832 61.2623H55.7585C58.4555 61.2623 60.6417 63.4483 60.6417 66.1455Z" fill="#CCFFAA"/>
<path fill-rule="evenodd" clip-rule="evenodd" d="M127.582 66.1455C127.582 68.8426 125.396 71.0287 122.699 71.0287H117.638C114.941 71.0287 112.753 68.8426 112.753 66.1455C112.753 63.4483 114.941 61.2623 117.638 61.2623H122.699C125.396 61.2623 127.582 63.4483 127.582 66.1455Z" fill="#CCFFAA"/>
<path d="M86.4568 18.6616C91.0175 18.0084 94.5542 19.3734 97.0494 22.0715C98.402 23.5355 99.1716 25.0365 99.5136 26.1264C99.798 27.0299 99.2963 27.9921 98.3928 28.2755C97.5428 28.5432 96.6414 28.1137 96.3014 27.3101L96.1912 27.0063L96.0995 26.7868C96.0439 26.6611 95.9738 26.5127 95.8883 26.3448C95.5442 25.6732 95.094 25.0065 94.5326 24.3988C92.7802 22.5042 90.352 21.5668 86.942 22.0551C83.9997 22.4764 81.9651 23.7827 80.601 25.6999C80.0695 26.4468 79.678 27.2401 79.4091 28.021L79.3051 28.3382L79.2288 28.603C79.2082 28.6823 79.1907 28.7514 79.1784 28.81L79.1505 28.9554C79.0052 29.8908 78.1296 30.5316 77.1941 30.3863C76.2587 30.241 75.6179 29.3644 75.7632 28.43C75.9517 27.2112 76.5483 25.4856 77.8082 23.7127C79.6996 21.0526 82.5543 19.2199 86.4568 18.6616Z" fill="#004312"/>
<path fill-rule="evenodd" clip-rule="evenodd" d="M70.4727 53.4898C70.4727 64.6274 79.4798 73.6552 90.6029 73.6552C101.714 73.6552 110.722 64.6274 110.722 53.4898C110.722 52.6399 110.668 51.8004 110.56 50.972C109.336 41.0182 100.866 33.3132 90.6029 33.3132C82.9474 33.3132 76.2913 37.5855 72.8885 43.8914C71.3525 46.7431 70.4727 50.014 70.4727 53.4898Z" fill="white"/>
<path fill-rule="evenodd" clip-rule="evenodd" d="M85.6377 51.2284C85.6377 57.6785 90.8546 62.9068 97.2883 62.9068C103.723 62.9068 108.94 57.6785 108.94 51.2284C108.94 44.7792 103.723 39.5499 97.2883 39.5499C90.8546 39.5499 85.6377 44.7792 85.6377 51.2284Z" fill="#004312"/>
<path fill-rule="evenodd" clip-rule="evenodd" d="M72.2762 73.8726C72.5492 74.7441 72.0784 75.6703 71.2213 75.968C71.246 76.0185 71.2687 76.0721 71.2892 76.1256C72.0784 78.2808 73.9699 80.2485 76.2271 81.2612C77.6539 81.902 79.8987 82.4531 82.4835 81.4332C83.3499 81.0923 84.3296 81.5167 84.6717 82.3831C85.0137 83.2496 84.5882 84.2282 83.7219 84.5702C82.3588 85.107 80.9619 85.3749 79.5639 85.3749C77.9743 85.3749 76.3857 85.0286 74.8445 84.3375C72.3112 83.2001 70.1086 81.1489 68.8065 78.7846C68.5057 79.2987 67.9493 79.6191 67.3518 79.6191C67.2106 79.6191 67.0675 79.6006 66.9243 79.5634C66.0228 79.3286 65.483 78.4076 65.7189 77.5061C66.3875 74.9513 67.7166 73.5337 70.1633 72.7672C71.0523 72.4911 71.9981 72.9845 72.2762 73.8726Z" fill="#004312"/>
<path fill-rule="evenodd" clip-rule="evenodd" d="M179.659 76.594C178.631 74.9002 176.424 74.3606 174.731 75.3888L166.333 80.4867C164.64 81.5147 164.1 83.721 165.128 85.4148C165.803 86.5272 166.987 87.1408 168.198 87.1408C168.832 87.1408 169.475 86.9731 170.056 86.62L178.454 81.5221C180.148 80.4939 180.688 78.2877 179.659 76.594ZM173.397 72.8606C174 73.2512 174.677 73.4387 175.347 73.4387C176.521 73.4387 177.672 72.8626 178.359 71.8033C179.438 70.1408 178.965 67.9199 177.302 66.8408L172.67 63.8355C171.007 62.7574 168.787 63.2304 167.708 64.8929C166.629 66.5543 167.103 68.7762 168.765 69.8543L173.397 72.8606ZM204.809 82.0168C200.921 80.0648 197.75 77.6565 195.348 74.8429L195.493 74.7408L202.581 70.1408C204.243 69.0627 204.717 66.8408 203.638 65.1793C202.559 63.5168 200.338 63.0439 198.676 64.122L191.527 68.7606C191.487 68.7866 191.447 68.8137 191.408 68.8408L191.24 68.9605C189.599 66.2887 188.879 64.5407 188.41 62.7387V60.622H203.432C205.474 60.622 207.129 58.9669 207.129 56.9251C207.129 54.8846 205.474 53.2293 203.432 53.2293H199.499L201.293 41.7075C201.367 41.2273 201.405 40.7376 201.405 40.2523C201.405 35.0366 197.163 30.7939 191.947 30.7939H170.226C168.245 30.7939 166.639 32.4001 166.639 34.3814C166.639 36.3637 168.245 37.969 170.226 37.969L190.325 37.9929C192.246 37.995 193.801 39.5543 193.799 41.4762C193.798 41.6523 193.784 41.8272 193.757 42.0023L192.029 53.2293H166.591C164.549 53.2293 162.895 54.8846 162.895 56.9251C162.895 58.9669 164.549 60.622 166.591 60.622H181.019V83.5981C181.019 85.2627 179.665 86.6158 178 86.6158C177.912 86.6158 177.822 86.6126 177.733 86.6043C175.699 86.4242 173.905 87.9262 173.724 89.9585C173.544 91.9918 175.046 93.7866 177.079 93.9679C177.384 93.995 177.694 94.0085 178 94.0085C183.741 94.0085 188.41 89.3387 188.41 83.5981V77.622C191.591 81.997 196.02 85.6335 201.591 88.4293C202.107 88.6887 202.656 88.8106 203.197 88.8106C204.512 88.8106 205.776 88.0866 206.406 86.8325C207.295 85.0616 206.58 82.9054 204.809 82.0168ZM187.994 49.1032H188.007C189.982 49.1032 191.588 47.5064 191.595 45.5304C191.602 43.5492 190.003 41.9366 188.022 41.9283L171.862 41.8658C171.856 41.8658 171.852 41.8658 171.847 41.8658C169.872 41.8658 168.268 43.4627 168.259 45.4387C168.252 47.42 169.852 49.0324 171.833 49.0407L187.994 49.1032ZM159.431 78.472L145.572 82.5678C143.672 83.1283 142.587 85.1241 143.148 87.0241C143.609 88.5855 145.039 89.596 146.588 89.596C146.924 89.596 147.266 89.5481 147.605 89.4481L161.465 85.3534C163.365 84.7918 164.449 82.796 163.888 80.896C163.326 78.9961 161.331 77.9106 159.431 78.472ZM164.176 68.3491C164.641 70.2137 163.506 72.1012 161.642 72.5658L147.783 76.02C147.501 76.0898 147.218 76.1241 146.94 76.1241C145.379 76.1241 143.961 75.0669 143.566 73.4856C143.343 72.5887 143.493 71.6877 143.913 70.9408C143.993 70.6689 144.102 70.4012 144.251 70.145L152.838 55.4012L147.167 56.3564C146.971 56.3897 146.776 56.4054 146.584 56.4054C144.917 56.4054 143.445 55.2033 143.158 53.5044C143.115 53.2429 143.103 52.9846 143.118 52.7303C143.094 52.1117 143.227 51.4782 143.544 50.8929L154.368 30.8731C155.309 29.1303 157.487 28.4814 159.229 29.4242C160.972 30.3658 161.621 32.5429 160.679 34.2856L153.101 48.3012L158.781 47.3449C160.676 47.0251 162.471 48.3022 162.79 50.1971C162.798 50.2481 162.801 50.2992 162.807 50.3502C163.065 51.2553 162.971 52.2585 162.459 53.1356L154.247 67.2387L159.959 65.8148C161.823 65.3502 163.712 66.4846 164.176 68.3491Z" fill="black"/>
<path fill-rule="evenodd" clip-rule="evenodd" d="M261.719 51.0604H236.298C233.655 51.0604 231.515 53.202 231.515 55.8438V58.6833C231.515 61.325 233.655 63.4667 236.298 63.4667H261.719C264.36 63.4667 266.502 61.325 266.502 58.6833V55.8438C266.502 53.202 264.36 51.0604 261.719 51.0604ZM262.367 70.8989H235.624C229.15 70.8989 223.883 65.6312 223.883 59.1573V55.4083C223.883 48.9354 229.15 43.6676 235.624 43.6676H262.367C268.841 43.6676 274.108 48.9354 274.108 55.4083V59.1573C274.108 65.6312 268.841 70.8989 262.367 70.8989ZM228.632 73.0416C227.121 74.501 227.079 76.9104 228.54 78.4219L231.926 81.926C232.672 82.6989 233.667 83.0864 234.662 83.0864C235.615 83.0864 236.568 82.7323 237.306 82.0187C238.817 80.5583 238.858 78.1489 237.398 76.6385L234.013 73.1333C232.552 71.6229 230.143 71.5812 228.632 73.0416ZM277.163 84.4447L265.88 84.4042L270.297 77.7792C271.462 76.0312 270.99 73.6687 269.242 72.5031C267.493 71.3375 265.131 71.8104 263.966 73.5583L256.755 84.3718L220.635 84.2427H220.622C218.587 84.2427 216.933 85.8895 216.926 87.926C216.919 89.9677 218.568 91.6281 220.609 91.6354L277.137 91.8364H277.15C279.185 91.8364 280.839 90.1906 280.846 88.1542C280.853 86.1124 279.204 84.452 277.163 84.4447ZM219.1 35.3906C219.109 33.3541 220.763 31.7094 222.796 31.7094H222.813L275.101 31.9364C277.142 31.9447 278.79 33.6073 278.781 35.6479C278.772 37.6843 277.119 39.3281 275.085 39.3281H275.069L222.78 39.1021C220.74 39.0938 219.092 37.4313 219.1 35.3906Z" fill="black"/>
<path d="M335.276 58.7838H325.398C325.405 61.8807 325.247 64.6848 324.923 67.2088H338.637V62.2338C338.637 61.3109 338.278 60.4432 337.625 59.7911C336.995 59.1608 336.163 58.8078 335.276 58.7838ZM304.851 67.2088H317.509C317.854 64.9588 318.064 62.189 318.056 58.7838H308.212C307.325 58.8078 306.494 59.1608 305.863 59.7911C305.21 60.4432 304.851 61.3109 304.851 62.2338V67.2088ZM353.418 89.3609C353.18 91.213 351.601 92.565 349.781 92.565C349.626 92.565 349.469 92.5557 349.31 92.5349C336.966 90.9536 327.837 86.4827 322.181 79.2474C321.945 78.9453 321.702 78.6286 321.458 78.3057C321.178 78.7608 320.885 79.1942 320.576 79.6026C314.93 87.2224 305.926 91.5786 293.81 92.5526C293.71 92.5609 293.61 92.565 293.512 92.565C291.619 92.565 290.012 91.1098 289.858 89.189C289.696 87.1682 291.201 85.3984 293.222 85.2359C303.279 84.4276 310.3 81.1505 314.689 75.2192C314.698 75.2056 314.708 75.1932 314.718 75.1796C314.845 75.013 314.972 74.8297 315.1 74.6296L293.502 74.5463C291.475 74.539 289.838 72.889 289.846 70.863C289.854 68.84 291.496 67.2067 293.516 67.2067H293.53L297.276 67.2213V60.9432C297.276 55.7047 301.538 51.4432 306.776 51.4432H317.961V49.4193C317.961 47.3922 319.605 45.7484 321.631 45.7484C323.658 45.7484 325.302 47.3922 325.302 49.4193V51.4432H336.627C341.865 51.4432 346.126 55.7047 346.126 60.9432V67.4099L350.094 67.4244C352.121 67.4327 353.757 69.0817 353.749 71.1087C353.742 73.1307 352.1 74.7651 350.079 74.7651H350.065L327.927 74.6796C327.939 74.6953 327.952 74.7109 327.963 74.7265C332.387 80.3848 339.883 83.9266 350.244 85.2546C352.254 85.5119 353.675 87.3505 353.418 89.3609ZM289.846 39.2796C289.854 37.2578 291.496 35.6234 293.516 35.6234H293.53L305.408 35.6693L305.42 33.8734C305.432 31.7952 307.121 30.1182 309.197 30.1182C309.205 30.1182 309.212 30.1182 309.221 30.1182C311.307 30.1307 312.988 31.8327 312.976 33.9193L312.965 35.6994L330.235 35.7661L330.247 33.8734C330.259 31.7952 331.948 30.1182 334.024 30.1182C334.032 30.1182 334.039 30.1182 334.048 30.1182C336.134 30.1307 337.815 31.8327 337.803 33.9193L337.792 35.7952L349.877 35.8421C351.905 35.8494 353.542 37.4995 353.533 39.5266C353.526 41.5484 351.883 43.1817 349.863 43.1817H349.849L337.747 43.1348L337.745 43.6337C337.731 45.713 336.043 47.3901 333.967 47.3901C333.959 47.3901 333.951 47.3901 333.944 47.389C331.857 47.3765 330.176 45.6755 330.188 43.5891L330.192 43.1057L312.921 43.039L312.917 43.6337C312.904 45.713 311.215 47.3901 309.14 47.3901C309.131 47.3901 309.124 47.3901 309.117 47.389C307.029 47.3765 305.349 45.6755 305.36 43.5891L305.365 43.0098L293.502 42.9639C291.475 42.9556 289.838 41.3067 289.846 39.2796Z" fill="black"/>
<path d="M382.357 80.8589C383.388 82.6037 382.809 84.8547 381.064 85.886L374.546 89.7359C373.971 90.0754 373.325 90.2463 372.679 90.2463C372.052 90.2463 371.424 90.0859 370.86 89.7641C369.715 89.1109 369.009 87.8943 369.009 86.5765V56.7964H366.15C364.123 56.7964 362.479 55.1537 362.479 53.1266C362.479 51.0995 364.123 49.4568 366.15 49.4568H369.225C373.153 49.4568 376.349 52.6526 376.349 56.5808V80.1454L377.331 79.5652C379.076 78.5349 381.326 79.113 382.357 80.8589ZM368.08 36.5735C366.743 35.0505 366.894 32.7318 368.417 31.3943C369.939 30.0567 372.258 30.2079 373.596 31.7307L380.069 39.1036C381.406 40.6277 381.256 42.9464 379.732 44.2839C379.035 44.8952 378.172 45.1953 377.312 45.1953C376.292 45.1953 375.278 44.7734 374.553 43.9475L368.08 36.5735ZM416.103 78.8849V82.2912C416.103 83.2141 415.744 84.0818 415.092 84.7339C414.439 85.386 413.572 85.7453 412.649 85.7453H394.988C394.065 85.7453 393.198 85.386 392.546 84.7339C391.893 84.0818 391.534 83.2141 391.534 82.2912V78.8849C391.534 77.962 391.893 77.0942 392.546 76.4422C393.198 75.79 394.065 75.4308 394.988 75.4308H412.649C413.572 75.4308 414.439 75.79 415.092 76.4422C415.744 77.0942 416.103 77.962 416.103 78.8849ZM414.052 68.2953H393.58C388.402 68.2953 384.189 72.5089 384.189 77.687V83.4912C384.189 88.6693 388.402 92.8818 393.58 92.8818H414.052C419.23 92.8818 423.443 88.6693 423.443 83.4912V77.687C423.443 72.5089 419.23 68.2953 414.052 68.2953ZM401.097 50.8891L410.544 50.9006C412.45 50.9026 413.994 52.4485 413.994 54.3547V56.8943L399.921 56.8484L401.097 50.8891ZM423.548 56.9255L421.381 56.9182V53.0349C421.381 47.8568 417.169 43.6433 411.989 43.6433H402.527L403.519 38.6181L420.808 38.6828H420.822C422.782 38.6828 424.376 37.0974 424.383 35.1339C424.391 33.1672 422.802 31.5661 420.834 31.5588L385.714 31.4265H385.701C383.74 31.4265 382.146 33.013 382.138 34.9756C382.131 36.9433 383.721 38.5443 385.687 38.5516L396.043 38.5901L395.046 43.6433H388.13C386.162 43.6433 384.568 45.238 384.568 47.2058C384.568 49.1734 386.162 50.7683 388.13 50.7683H390.6V50.8755L393.617 50.8796L392.571 56.1776C392.528 56.3952 392.509 56.6109 392.505 56.8244L383.122 56.7943H383.11C381.088 56.7943 379.447 58.4287 379.441 60.4516C379.433 62.4786 381.072 64.1277 383.098 64.1338L423.524 64.2661H423.536C425.558 64.2661 427.2 62.6307 427.206 60.6078C427.213 58.5808 425.575 56.9328 423.548 56.9255Z" fill="black"/>
</svg>
